<?xml version="1.0" encoding="iso-8859-1"?>
<!-- Generator: Adobe Illustrator 18.0.0, SVG Export Plug-In . SVG Version: 6.00 Build 0)  -->
<!DOCTYPE svg PUBLIC "-//W3C//DTD SVG 1.1//EN" "http://www.w3.org/Graphics/SVG/1.1/DTD/svg11.dtd">
<svg version="1.1" id="Capa_1" xmlns="http://www.w3.org/2000/svg" xmlns:xlink="http://www.w3.org/1999/xlink" x="0px" y="0px"
	 viewBox="0 0 58 58" style="enable-background:new 0 0 58 58;" xml:space="preserve">
<rect y="10" style="fill:#C7CAC7;" width="58" height="24"/>
<rect x="3" y="28" style="fill:#E7ECED;" width="52" height="6"/>
<line style="fill:none;stroke:#556080;stroke-width:2;stroke-linecap:round;stroke-linejoin:round;stroke-miterlimit:10;" x1="27" y1="31" x2="31" y2="31"/>
<circle style="fill:#E7ECED;" cx="35" cy="15" r="1"/>
<circle style="fill:#E7ECED;" cx="38" cy="15" r="1"/>
<circle style="fill:#E7ECED;" cx="41" cy="15" r="1"/>
<circle style="fill:#E7ECED;" cx="44" cy="15" r="1"/>
<circle style="fill:#E7ECED;" cx="47" cy="15" r="1"/>
<circle style="fill:#E7ECED;" cx="50" cy="15" r="1"/>
<circle style="fill:#E7ECED;" cx="53" cy="15" r="1"/>
<circle style="fill:#E7ECED;" cx="35" cy="19" r="1"/>
<circle style="fill:#E7ECED;" cx="38" cy="19" r="1"/>
<circle style="fill:#E7ECED;" cx="41" cy="19" r="1"/>
<circle style="fill:#E7ECED;" cx="44" cy="19" r="1"/>
<circle style="fill:#E7ECED;" cx="47" cy="19" r="1"/>
<circle style="fill:#E7ECED;" cx="50" cy="19" r="1"/>
<circle style="fill:#E7ECED;" cx="53" cy="19" r="1"/>
<circle style="fill:#E7ECED;" cx="35" cy="23" r="1"/>
<circle style="fill:#E7ECED;" cx="38" cy="23" r="1"/>
<circle style="fill:#E7ECED;" cx="41" cy="23" r="1"/>
<circle style="fill:#E7ECED;" cx="44" cy="23" r="1"/>
<circle style="fill:#E7ECED;" cx="47" cy="23" r="1"/>
<circle style="fill:#E7ECED;" cx="50" cy="23" r="1"/>
<circle style="fill:#E7ECED;" cx="53" cy="23" r="1"/>
<circle style="fill:#E7ECED;" cx="5" cy="15" r="1"/>
<circle style="fill:#E7ECED;" cx="8" cy="15" r="1"/>
<circle style="fill:#E7ECED;" cx="11" cy="15" r="1"/>
<circle style="fill:#E7ECED;" cx="14" cy="15" r="1"/>
<circle style="fill:#E7ECED;" cx="17" cy="15" r="1"/>
<circle style="fill:#E7ECED;" cx="20" cy="15" r="1"/>
<circle style="fill:#E7ECED;" cx="23" cy="15" r="1"/>
<circle style="fill:#E7ECED;" cx="5" cy="19" r="1"/>
<circle style="fill:#E7ECED;" cx="8" cy="19" r="1"/>
<circle style="fill:#E7ECED;" cx="11" cy="19" r="1"/>
<circle style="fill:#E7ECED;" cx="14" cy="19" r="1"/>
<circle style="fill:#E7ECED;" cx="17" cy="19" r="1"/>
<circle style="fill:#E7ECED;" cx="20" cy="19" r="1"/>
<circle style="fill:#E7ECED;" cx="23" cy="19" r="1"/>
<circle style="fill:#E7ECED;" cx="5" cy="23" r="1"/>
<circle style="fill:#E7ECED;" cx="8" cy="23" r="1"/>
<circle style="fill:#E7ECED;" cx="11" cy="23" r="1"/>
<circle style="fill:#E7ECED;" cx="14" cy="23" r="1"/>
<circle style="fill:#E7ECED;" cx="17" cy="23" r="1"/>
<circle style="fill:#E7ECED;" cx="20" cy="23" r="1"/>
<circle style="fill:#E7ECED;" cx="23" cy="23" r="1"/>
<g>
	<g>
		
			<line style="fill:none;stroke:#A1C8EC;stroke-width:2;stroke-linecap:round;stroke-miterlimit:10;" x1="7" y1="39" x2="7" y2="41"/>
		
			<line style="fill:none;stroke:#A1C8EC;stroke-width:2;stroke-linecap:round;stroke-miterlimit:10;" x1="7" y1="45" x2="7" y2="47"/>
	</g>
</g>
<g>
	<g>
		
			<line style="fill:none;stroke:#A1C8EC;stroke-width:2;stroke-linecap:round;stroke-miterlimit:10;" x1="11" y1="39" x2="11" y2="41"/>
		
			<line style="fill:none;stroke:#A1C8EC;stroke-width:2;stroke-linecap:round;stroke-miterlimit:10;" x1="11" y1="45" x2="11" y2="47"/>
	</g>
</g>
<g>
	<g>
		
			<line style="fill:none;stroke:#A1C8EC;stroke-width:2;stroke-linecap:round;stroke-miterlimit:10;" x1="15" y1="39" x2="15" y2="41"/>
		
			<line style="fill:none;stroke:#A1C8EC;stroke-width:2;stroke-linecap:round;stroke-miterlimit:10;" x1="15" y1="45" x2="15" y2="47"/>
	</g>
</g>
<g>
	<g>
		
			<line style="fill:none;stroke:#A1C8EC;stroke-width:2;stroke-linecap:round;stroke-miterlimit:10;" x1="43" y1="39" x2="43" y2="41"/>
		
			<line style="fill:none;stroke:#A1C8EC;stroke-width:2;stroke-linecap:round;stroke-miterlimit:10;" x1="43" y1="45" x2="43" y2="47"/>
	</g>
</g>
<g>
	<g>
		
			<line style="fill:none;stroke:#A1C8EC;stroke-width:2;stroke-linecap:round;stroke-miterlimit:10;" x1="47" y1="39" x2="47" y2="41"/>
		
			<line style="fill:none;stroke:#A1C8EC;stroke-width:2;stroke-linecap:round;stroke-miterlimit:10;" x1="47" y1="45" x2="47" y2="47"/>
	</g>
</g>
<g>
	<g>
		
			<line style="fill:none;stroke:#A1C8EC;stroke-width:2;stroke-linecap:round;stroke-miterlimit:10;" x1="51" y1="39" x2="51" y2="41"/>
		
			<line style="fill:none;stroke:#A1C8EC;stroke-width:2;stroke-linecap:round;stroke-miterlimit:10;" x1="51" y1="45" x2="51" y2="47"/>
	</g>
</g>
<g>
</g>
<g>
</g>
<g>
</g>
<g>
</g>
<g>
</g>
<g>
</g>
<g>
</g>
<g>
</g>
<g>
</g>
<g>
</g>
<g>
</g>
<g>
</g>
<g>
</g>
<g>
</g>
<g>
</g>
</svg>
