<?xml version="1.0" encoding="iso-8859-1"?>
<!-- Generator: Adobe Illustrator 18.0.0, SVG Export Plug-In . SVG Version: 6.00 Build 0)  -->
<!DOCTYPE svg PUBLIC "-//W3C//DTD SVG 1.1//EN" "http://www.w3.org/Graphics/SVG/1.1/DTD/svg11.dtd">
<svg version="1.1" id="Capa_1" xmlns="http://www.w3.org/2000/svg" xmlns:xlink="http://www.w3.org/1999/xlink" x="0px" y="0px"
	 viewBox="0 0 57.995 57.995" style="enable-background:new 0 0 57.995 57.995;" xml:space="preserve">
<path style="fill:#30773A;" d="M8.994,23.553L11.3,33.78c0.49,2.174,2.421,3.718,4.65,3.718h26.339c2.211,0,4.132-1.521,4.639-3.674
	l1.977-8.392c0.3-1.14,1.33-1.934,2.509-1.934h0.58v-1c0-11.598-9.402-21-21-21h-4c-11.598,0-21,9.402-21,21v0h1.329
	C7.966,22.498,8.528,22.931,8.994,23.553z"/>
<polygon style="fill:#C19B5A;" points="43.994,47.498 45.994,56.498 48.619,56.498 47.744,47.498 "/>
<polygon style="fill:#C19B5A;" points="13.994,47.498 11.994,56.498 9.369,56.498 10.244,47.498 "/>
<g>
	<path style="fill:#153C1B;" d="M24.701,13.791c-0.391-0.391-1.023-0.391-1.414,0l-0.928,0.928c-0.856-0.401-1.874-0.401-2.73,0
		l-0.928-0.928c-0.391-0.391-1.023-0.391-1.414,0s-0.391,1.023,0,1.414l0.92,0.92c-0.426,0.866-0.426,1.88,0,2.747l-0.92,0.92
		c-0.391,0.391-0.391,1.023,0,1.414c0.195,0.195,0.451,0.293,0.707,0.293s0.512-0.098,0.707-0.293l0.918-0.918
		c0.424,0.21,0.888,0.332,1.375,0.332s0.951-0.123,1.375-0.332l0.918,0.918c0.195,0.195,0.451,0.293,0.707,0.293
		s0.512-0.098,0.707-0.293c0.391-0.391,0.391-1.023,0-1.414l-0.919-0.919c0.426-0.866,0.426-1.881,0-2.747l0.919-0.919
		C25.092,14.814,25.092,14.181,24.701,13.791z M20.201,18.291c-0.437-0.438-0.437-1.148,0-1.586
		c0.212-0.212,0.494-0.329,0.793-0.329s0.581,0.117,0.793,0.329c0.437,0.438,0.437,1.148,0,1.586
		C21.363,18.715,20.625,18.715,20.201,18.291z"/>
	<path style="fill:#153C1B;" d="M39.782,18.871c0.426-0.866,0.426-1.881,0-2.747l0.919-0.919c0.391-0.391,0.391-1.023,0-1.414
		s-1.023-0.391-1.414,0l-0.928,0.928c-0.856-0.401-1.874-0.401-2.73,0l-0.928-0.928c-0.391-0.391-1.023-0.391-1.414,0
		s-0.391,1.023,0,1.414l0.92,0.92c-0.426,0.866-0.426,1.88,0,2.747l-0.92,0.92c-0.391,0.391-0.391,1.023,0,1.414
		c0.195,0.195,0.451,0.293,0.707,0.293s0.512-0.098,0.707-0.293l0.918-0.918c0.424,0.21,0.888,0.332,1.375,0.332
		s0.951-0.123,1.375-0.332l0.918,0.918c0.195,0.195,0.451,0.293,0.707,0.293s0.512-0.098,0.707-0.293
		c0.391-0.391,0.391-1.023,0-1.414L39.782,18.871z M36.201,18.291c-0.437-0.438-0.437-1.148,0-1.586
		c0.212-0.212,0.494-0.329,0.793-0.329s0.581,0.117,0.793,0.329c0.437,0.438,0.437,1.148,0,1.586
		C37.363,18.715,36.625,18.715,36.201,18.291z"/>
</g>
<path style="fill:#3C8D43;" d="M51.414,23.498c-1.179,0-2.209,0.794-2.509,1.934l-1.977,8.392c-0.507,2.152-2.428,3.674-4.639,3.674
	H15.95c-2.228,0-4.159-1.544-4.65-3.718L8.994,23.553c-0.466-0.622-1.028-1.055-1.671-1.055h-5.25c-1.47,0-2.472,1.49-1.918,2.851
	L6.994,45.15c0.364,1.384,1.615,2.348,3.046,2.348h2.533h1.144h1.698h25h4h1.58h1.954c1.431,0,2.682-0.964,3.046-2.348l6.843-18.953
	c0.548-1.277-0.389-2.699-1.779-2.699H51.414z"/>
<path style="fill:#23A24D;" d="M15.95,37.498h26.339c1.366,0,2.618-0.583,3.498-1.534c-0.683-2.562-3.023-4.466-5.793-4.466h-22
	c-2.689,0-4.966,1.797-5.722,4.246C13.155,36.821,14.483,37.498,15.95,37.498z"/>
<g>
</g>
<g>
</g>
<g>
</g>
<g>
</g>
<g>
</g>
<g>
</g>
<g>
</g>
<g>
</g>
<g>
</g>
<g>
</g>
<g>
</g>
<g>
</g>
<g>
</g>
<g>
</g>
<g>
</g>
</svg>
