<?xml version="1.0" encoding="iso-8859-1"?>
<!-- Generator: Adobe Illustrator 18.0.0, SVG Export Plug-In . SVG Version: 6.00 Build 0)  -->
<!DOCTYPE svg PUBLIC "-//W3C//DTD SVG 1.1//EN" "http://www.w3.org/Graphics/SVG/1.1/DTD/svg11.dtd">
<svg version="1.1" id="Capa_1" xmlns="http://www.w3.org/2000/svg" xmlns:xlink="http://www.w3.org/1999/xlink" x="0px" y="0px"
	 viewBox="0 0 55 55" style="enable-background:new 0 0 55 55;" xml:space="preserve">
<path style="fill:#C7CAC7;" d="M11.47,23v6.993c0,0.002,0.001,0.005,0.001,0.007v4c0,2.761,2.239,5,5,5H38.47c2.761,0,5-2.239,5-5
	V23c0-2.419,1.718-4.436,4.001-4.899v-5.816c0-2.84-1.394-5.493-3.714-7.131c-9.735-6.871-22.837-6.871-32.571,0
	c-2.32,1.637-3.714,4.291-3.714,7.131v5.817C9.752,18.564,11.47,20.581,11.47,23z"/>
<path style="fill:#AFB6BB;" d="M53.5,39V23c0-2.761-2.269-5-5.03-5h0c-2.761,0-5,2.239-5,5v11c0,2.761-2.239,5-5,5h-22
	c-2.761,0-5-2.239-5-5V23c0-2.761-2.239-5-5-5h0c-2.761,0-4.97,2.239-4.97,5v16v3c0,2.761,2.209,5,4.97,5h5h32h5.03
	c2.761,0,5-2.239,5-5V39L53.5,39z"/>
<path style="fill:#C7CAC7;" d="M47.5,53v-2c0-0.552-0.448-1-1-1s-1,0.448-1,1v2c-0.552,0-1,0.448-1,1s0.448,1,1,1h2
	c0.552,0,1-0.448,1-1S48.052,53,47.5,53z"/>
<path style="fill:#C7CAC7;" d="M9.5,53v-2c0-0.552-0.448-1-1-1s-1,0.448-1,1v2c-0.552,0-1,0.448-1,1s0.448,1,1,1h2
	c0.552,0,1-0.448,1-1S10.052,53,9.5,53z"/>
<rect x="44.5" y="47" style="fill:#C7CAC7;" width="4" height="4"/>
<rect x="6.5" y="47" style="fill:#C7CAC7;" width="4" height="4"/>
<g>
	<circle style="fill:#E7ECED;" cx="18.47" cy="10" r="1"/>
	<circle style="fill:#E7ECED;" cx="24.47" cy="10" r="1"/>
	<circle style="fill:#E7ECED;" cx="30.47" cy="10" r="1"/>
	<circle style="fill:#E7ECED;" cx="36.47" cy="10" r="1"/>
	<circle style="fill:#E7ECED;" cx="18.47" cy="16" r="1"/>
	<circle style="fill:#E7ECED;" cx="18.47" cy="22" r="1"/>
	<circle style="fill:#E7ECED;" cx="21.47" cy="13" r="1"/>
	<circle style="fill:#E7ECED;" cx="27.47" cy="13" r="1"/>
	<circle style="fill:#E7ECED;" cx="21.47" cy="19" r="1"/>
	<circle style="fill:#E7ECED;" cx="27.47" cy="19" r="1"/>
	<circle style="fill:#E7ECED;" cx="24.47" cy="16" r="1"/>
	<circle style="fill:#E7ECED;" cx="30.47" cy="16" r="1"/>
	<circle style="fill:#E7ECED;" cx="24.47" cy="22" r="1"/>
	<circle style="fill:#E7ECED;" cx="30.47" cy="22" r="1"/>
	<circle style="fill:#E7ECED;" cx="33.47" cy="13" r="1"/>
	<circle style="fill:#E7ECED;" cx="33.47" cy="19" r="1"/>
	<circle style="fill:#E7ECED;" cx="36.47" cy="16" r="1"/>
	<circle style="fill:#E7ECED;" cx="36.47" cy="22" r="1"/>
</g>
<path style="fill:#9DA5A8;" d="M16.47,39h22c2.761,0,5-2.239,5-5v-4h-32v4C11.47,36.761,13.709,39,16.47,39z"/>
<path style="fill:#838B8E;" d="M28.75,30h-2.5l-2.55,3.4c-0.332,0.442-0.242,1.069,0.2,1.4c0.18,0.135,0.391,0.2,0.599,0.2
	c0.304,0,0.604-0.138,0.801-0.4l2.2-2.934l2.2,2.934c0.196,0.262,0.497,0.4,0.801,0.4c0.208,0,0.419-0.065,0.599-0.2
	c0.442-0.331,0.531-0.958,0.2-1.4L28.75,30z"/>
<g>
</g>
<g>
</g>
<g>
</g>
<g>
</g>
<g>
</g>
<g>
</g>
<g>
</g>
<g>
</g>
<g>
</g>
<g>
</g>
<g>
</g>
<g>
</g>
<g>
</g>
<g>
</g>
<g>
</g>
</svg>
