<?xml version="1.0" encoding="iso-8859-1"?>
<!-- Generator: Adobe Illustrator 18.0.0, SVG Export Plug-In . SVG Version: 6.00 Build 0)  -->
<!DOCTYPE svg PUBLIC "-//W3C//DTD SVG 1.1//EN" "http://www.w3.org/Graphics/SVG/1.1/DTD/svg11.dtd">
<svg version="1.1" id="Capa_1" xmlns="http://www.w3.org/2000/svg" xmlns:xlink="http://www.w3.org/1999/xlink" x="0px" y="0px"
	 viewBox="0 0 58.008 58.008" style="enable-background:new 0 0 58.008 58.008;" xml:space="preserve">
<path style="fill:#8E6844;" d="M57.941,30.318c-0.44-3.489-3.302-6.311-6.796-6.707c-4.696-0.532-8.676,3.127-8.676,7.716
	c0,0.175,0.015,0.06,0.026,0.232H15.514c0.011-0.172,0.026-0.057,0.026-0.232c0-4.589-3.979-8.249-8.676-7.716
	c-3.495,0.396-6.357,3.218-6.796,6.707c-0.575,4.563,2.562,8.462,6.936,8.751v10.063c0,1.893,1.785,3.427,3.677,3.427h36.645
	c1.893,0,3.677-1.535,3.677-3.427V39.069C55.378,38.779,58.515,34.881,57.941,30.318z"/>
<path style="fill:#66482F;" d="M43.903,40.559H14.105c-1.16,0-2.101-0.941-2.101-2.101v-2.965c0-2.173,1.761-3.934,3.934-3.934
	H42.07c2.173,0,3.934,1.761,3.934,3.934v2.965C46.004,39.619,45.064,40.559,43.903,40.559z"/>
<path style="fill:#949493;" d="M18.004,52.559c0,1.925-1.575,3-3.5,3h0c-1.925,0-3.5-1.075-3.5-3H18.004z"/>
<path style="fill:#949493;" d="M47.004,52.559c0,1.925-1.575,3-3.5,3h0c-1.925,0-3.5-1.075-3.5-3H47.004z"/>
<path style="fill:#66482F;" d="M52.979,34.534c-0.256,0-0.512-0.098-0.707-0.293c-0.391-0.391-0.391-1.023,0-1.414
	c0.975-0.975,0.975-2.561,0-3.536c-0.977-0.976-2.563-0.975-3.536,0c-0.391,0.391-1.023,0.391-1.414,0s-0.391-1.024,0-1.414
	c1.754-1.754,4.61-1.753,6.364,0c1.755,1.754,1.755,4.61,0,6.364C53.491,34.437,53.235,34.534,52.979,34.534z"/>
<path style="fill:#66482F;" d="M5.054,34.534c-0.256,0-0.512-0.098-0.707-0.293c-1.755-1.754-1.755-4.61,0-6.364
	c1.752-1.754,4.608-1.755,6.364,0c0.391,0.39,0.391,1.023,0,1.414c-0.391,0.391-1.023,0.391-1.414,0
	c-0.974-0.975-2.561-0.976-3.536,0c-0.473,0.473-0.732,1.1-0.732,1.768s0.26,1.295,0.732,1.768c0.391,0.391,0.391,1.023,0,1.414
	C5.566,34.437,5.31,34.534,5.054,34.534z"/>
<path style="fill:#B88C5E;" d="M38.193,3.41c-0.059,0.024-0.118,0.048-0.177,0.072c-5.772,2.345-12.243,2.345-18.015,0
	c-0.059-0.024-0.119-0.048-0.177-0.072C11.806,0.164,2.629,5.497,2.04,14.127c-0.021,0.308-0.032,0.619-0.032,0.933v4.455
	c0,2.552,2.265,4.41,4.799,4.103c0.019-0.002,0.038-0.005,0.057-0.007c4.696-0.532,8.676,3.127,8.676,7.716
	c0,0.175-0.015,0.06-0.026,0.232h13.495h13.486c-0.011-0.172-0.026-0.057-0.026-0.232c0-4.589,3.979-8.249,8.676-7.716
	c0.056,0.006,0.112,0.013,0.168,0.021c2.485,0.349,4.696-1.607,4.696-4.116l0-4.457c0-0.313-0.011-0.624-0.032-0.933
	C55.388,5.497,46.211,0.164,38.193,3.41z"/>
<g>
	<path style="fill:#8E6844;" d="M38.423,18.559l1.293-1.293c0.391-0.391,0.391-1.023,0-1.414s-1.023-0.391-1.414,0l-1.293,1.293
		l-1.293-1.293c-0.391-0.391-1.023-0.391-1.414,0s-0.391,1.023,0,1.414l1.293,1.293l-1.293,1.293c-0.391,0.391-0.391,1.023,0,1.414
		c0.195,0.195,0.451,0.293,0.707,0.293s0.512-0.098,0.707-0.293l1.293-1.293l1.293,1.293c0.195,0.195,0.451,0.293,0.707,0.293
		s0.512-0.098,0.707-0.293c0.391-0.391,0.391-1.023,0-1.414L38.423,18.559z"/>
	<path style="fill:#8E6844;" d="M23.715,15.852c-0.391-0.391-1.023-0.391-1.414,0l-1.293,1.293l-1.293-1.293
		c-0.391-0.391-1.023-0.391-1.414,0s-0.391,1.023,0,1.414l1.293,1.293l-1.293,1.293c-0.391,0.391-0.391,1.023,0,1.414
		c0.195,0.195,0.451,0.293,0.707,0.293s0.512-0.098,0.707-0.293l1.293-1.293l1.293,1.293c0.195,0.195,0.451,0.293,0.707,0.293
		s0.512-0.098,0.707-0.293c0.391-0.391,0.391-1.023,0-1.414l-1.293-1.293l1.293-1.293C24.106,16.876,24.106,16.243,23.715,15.852z"
		/>
</g>
<g>
</g>
<g>
</g>
<g>
</g>
<g>
</g>
<g>
</g>
<g>
</g>
<g>
</g>
<g>
</g>
<g>
</g>
<g>
</g>
<g>
</g>
<g>
</g>
<g>
</g>
<g>
</g>
<g>
</g>
</svg>
