<?xml version="1.0" encoding="iso-8859-1"?>
<!-- Generator: Adobe Illustrator 18.0.0, SVG Export Plug-In . SVG Version: 6.00 Build 0)  -->
<!DOCTYPE svg PUBLIC "-//W3C//DTD SVG 1.1//EN" "http://www.w3.org/Graphics/SVG/1.1/DTD/svg11.dtd">
<svg version="1.1" id="Capa_1" xmlns="http://www.w3.org/2000/svg" xmlns:xlink="http://www.w3.org/1999/xlink" x="0px" y="0px"
	 viewBox="0 0 56 56" style="enable-background:new 0 0 56 56;" xml:space="preserve">
<path style="fill:#F7E6A1;" d="M44,24L44,24c-1.105,0-2-0.895-2-2v-1c0-1.105,0.895-2,2-2h0V3.301C44,2.03,42.97,1,41.699,1H14.301
	C13.03,1,12,2.03,12,3.301V19h0c1.105,0,2,0.895,2,2v1c0,1.105-0.895,2-2,2h0v5h32V24z"/>
<g>
	<circle style="fill:#C6B97F;" cx="22" cy="14" r="1"/>
	<circle style="fill:#C6B97F;" cx="28" cy="14" r="1"/>
	<circle style="fill:#C6B97F;" cx="22" cy="20" r="1"/>
	<circle style="fill:#C6B97F;" cx="28" cy="20" r="1"/>
	<circle style="fill:#C6B97F;" cx="25" cy="17" r="1"/>
	<circle style="fill:#C6B97F;" cx="31" cy="17" r="1"/>
	<circle style="fill:#C6B97F;" cx="25" cy="11.152" r="1"/>
	<circle style="fill:#C6B97F;" cx="31" cy="11.152" r="1"/>
	<circle style="fill:#C6B97F;" cx="34" cy="14" r="1"/>
	<circle style="fill:#C6B97F;" cx="34" cy="20" r="1"/>
</g>
<rect x="12" y="34" style="fill:#A88F71;" width="32" height="8"/>
<rect x="12" y="27" style="fill:#DBCC8F;" width="32" height="7"/>
<g>
	<path style="fill:#BFA380;" d="M4,46V24H2c-1.105,0-2-0.895-2-2v-1c0-1.105,0.895-2,2-2h10c1.105,0,2,0.895,2,2v1
		c0,1.105-0.895,2-2,2H9v11h3v5H9v6H4z"/>
	<path style="fill:#BFA380;" d="M47,46v-6h-3v-5h3V24h-3c-1.105,0-2-0.895-2-2v-1c0-1.105,0.895-2,2-2h10c1.105,0,2,0.895,2,2v1
		c0,1.105-0.895,2-2,2h-2v22H47z"/>
</g>
<rect x="5" y="46" style="fill:#A88F71;" width="3" height="9"/>
<rect x="48" y="46" style="fill:#A88F71;" width="3" height="9"/>
<g>
</g>
<g>
</g>
<g>
</g>
<g>
</g>
<g>
</g>
<g>
</g>
<g>
</g>
<g>
</g>
<g>
</g>
<g>
</g>
<g>
</g>
<g>
</g>
<g>
</g>
<g>
</g>
<g>
</g>
</svg>
