<?xml version="1.0" encoding="iso-8859-1"?>
<!-- Generator: Adobe Illustrator 18.0.0, SVG Export Plug-In . SVG Version: 6.00 Build 0)  -->
<!DOCTYPE svg PUBLIC "-//W3C//DTD SVG 1.1//EN" "http://www.w3.org/Graphics/SVG/1.1/DTD/svg11.dtd">
<svg version="1.1" id="Capa_1" xmlns="http://www.w3.org/2000/svg" xmlns:xlink="http://www.w3.org/1999/xlink" x="0px" y="0px"
	 viewBox="0 0 58.008 58.008" style="enable-background:new 0 0 58.008 58.008;" xml:space="preserve">
<path style="fill:#E4A653;" d="M10.027,24.844c2.045,0.62-6.272,2.06-5.324,3.938c0.732,1.073,1.189,2.347,1.279,3.722h46.044
	c0.091-1.374,0.547-2.648,1.279-3.722c0.95-1.882-7.362-3.323-5.311-3.942l1.041-10.589c1.078-6.686-4.084-12.748-10.856-12.748
	H20.003c-6.772,0-11.935,6.062-10.856,12.748L10.027,24.844z"/>
<g>
	<path style="fill:#B7803D;" d="M25.711,12.797c-0.391-0.391-1.023-0.391-1.414,0l-0.928,0.928c-0.856-0.401-1.874-0.401-2.73,0
		l-0.928-0.928c-0.391-0.391-1.023-0.391-1.414,0s-0.391,1.023,0,1.414l0.92,0.92c-0.426,0.866-0.426,1.88,0,2.747l-0.92,0.92
		c-0.391,0.391-0.391,1.023,0,1.414c0.195,0.195,0.451,0.293,0.707,0.293s0.512-0.098,0.707-0.293l0.918-0.918
		c0.424,0.21,0.888,0.332,1.375,0.332s0.951-0.123,1.375-0.332l0.918,0.918c0.195,0.195,0.451,0.293,0.707,0.293
		s0.512-0.098,0.707-0.293c0.391-0.391,0.391-1.023,0-1.414l-0.919-0.919c0.426-0.866,0.426-1.881,0-2.747l0.919-0.919
		C26.102,13.821,26.102,13.188,25.711,12.797z M21.211,17.297c-0.437-0.438-0.437-1.148,0-1.586
		c0.212-0.212,0.494-0.329,0.793-0.329s0.581,0.117,0.793,0.329c0.437,0.438,0.437,1.148,0,1.586
		C22.373,17.721,21.635,17.721,21.211,17.297z"/>
	<path style="fill:#B7803D;" d="M40.792,17.878c0.426-0.866,0.426-1.881,0-2.747l0.919-0.919c0.391-0.391,0.391-1.023,0-1.414
		s-1.023-0.391-1.414,0l-0.928,0.928c-0.856-0.401-1.874-0.401-2.73,0l-0.928-0.928c-0.391-0.391-1.023-0.391-1.414,0
		s-0.391,1.023,0,1.414l0.92,0.92c-0.426,0.866-0.426,1.88,0,2.747l-0.92,0.92c-0.391,0.391-0.391,1.023,0,1.414
		c0.195,0.195,0.451,0.293,0.707,0.293s0.512-0.098,0.707-0.293l0.918-0.918c0.424,0.21,0.888,0.332,1.375,0.332
		s0.951-0.123,1.375-0.332l0.918,0.918c0.195,0.195,0.451,0.293,0.707,0.293s0.512-0.098,0.707-0.293
		c0.391-0.391,0.391-1.023,0-1.414L40.792,17.878z M37.211,17.297c-0.437-0.438-0.437-1.148,0-1.586
		c0.212-0.212,0.494-0.329,0.793-0.329s0.581,0.117,0.793,0.329c0.437,0.438,0.437,1.148,0,1.586
		C38.373,17.721,37.635,17.721,37.211,17.297z"/>
</g>
<path style="fill:#CF9340;" d="M57.956,31.391c-0.387-3.483-3.174-6.35-6.647-6.815c-4.767-0.638-8.84,3.054-8.84,7.696
	c0,0.175,0.015,0.06,0.026,0.232H15.514c0.011-0.172,0.026-0.057,0.026-0.232c0-4.642-4.073-8.334-8.84-7.696
	c-3.474,0.465-6.26,3.331-6.647,6.815c-0.278,2.504,0.561,4.799,2.105,6.393c2.959,3.056,4.847,6.987,4.847,11.241v1.052
	c0,1.893,1.535,3.427,3.427,3.427h36.895c2.023,0,3.677-1.655,3.677-3.677v-0.802c0-4.254,1.887-8.185,4.847-11.241
	C57.395,36.19,58.234,33.895,57.956,31.391z"/>
<path style="fill:#A57138;" d="M43.903,41.504H14.105c-1.16,0-2.101-0.941-2.101-2.101v-2.965c0-2.173,1.761-3.934,3.934-3.934
	H42.07c2.173,0,3.934,1.761,3.934,3.934v2.965C46.004,40.564,45.064,41.504,43.903,41.504z"/>
<path style="fill:#BFA380;" d="M18.004,53.504c0,1.925-1.575,3-3.5,3h0c-1.925,0-3.5-1.075-3.5-3H18.004z"/>
<path style="fill:#BFA380;" d="M47.004,53.504c0,1.925-1.575,3-3.5,3h0c-1.925,0-3.5-1.075-3.5-3H47.004z"/>
<g>
</g>
<g>
</g>
<g>
</g>
<g>
</g>
<g>
</g>
<g>
</g>
<g>
</g>
<g>
</g>
<g>
</g>
<g>
</g>
<g>
</g>
<g>
</g>
<g>
</g>
<g>
</g>
<g>
</g>
</svg>
