<?xml version="1.0" encoding="iso-8859-1"?>
<!-- Generator: Adobe Illustrator 18.0.0, SVG Export Plug-In . SVG Version: 6.00 Build 0)  -->
<!DOCTYPE svg PUBLIC "-//W3C//DTD SVG 1.1//EN" "http://www.w3.org/Graphics/SVG/1.1/DTD/svg11.dtd">
<svg version="1.1" id="Capa_1" xmlns="http://www.w3.org/2000/svg" xmlns:xlink="http://www.w3.org/1999/xlink" x="0px" y="0px"
	 viewBox="0 0 54 54" style="enable-background:new 0 0 54 54;" xml:space="preserve">
<path style="fill:#352727;" d="M8.73,25.247c2.881,0.834,4.77,3.608,4.77,6.607V33h27v-1.146c0-2.999,1.888-5.773,4.77-6.607
	c1.146-0.332,2.227-0.301,3.23-0.073v-13.58C48.5,5.191,43.309,0,36.906,0H17.094C10.691,0,5.5,5.191,5.5,11.594v13.58
	C6.503,24.946,7.584,24.915,8.73,25.247z"/>
<g>
	<path style="fill:#261A1A;" d="M30.207,4.293c-0.391-0.391-1.023-0.391-1.414,0l-0.928,0.928c-0.856-0.4-1.875-0.4-2.73,0
		l-0.928-0.928c-0.391-0.391-1.023-0.391-1.414,0s-0.391,1.023,0,1.414l0.92,0.92c-0.425,0.866-0.425,1.88,0,2.747l-0.92,0.92
		c-0.391,0.391-0.391,1.023,0,1.414C22.988,11.902,23.244,12,23.5,12s0.512-0.098,0.707-0.293l0.918-0.918
		c0.424,0.21,0.888,0.332,1.375,0.332s0.951-0.123,1.375-0.332l0.918,0.918C28.988,11.902,29.244,12,29.5,12
		s0.512-0.098,0.707-0.293c0.391-0.391,0.391-1.023,0-1.414l-0.92-0.92c0.425-0.866,0.425-1.88,0-2.747l0.92-0.92
		C30.598,5.316,30.598,4.684,30.207,4.293z M25.707,8.793c-0.437-0.437-0.437-1.149,0-1.586C25.919,6.995,26.2,6.878,26.5,6.878
		s0.581,0.117,0.793,0.329c0.437,0.437,0.437,1.149,0,1.586C26.869,9.217,26.131,9.217,25.707,8.793z"/>
	<path style="fill:#261A1A;" d="M30.207,21.293c-0.391-0.391-1.023-0.391-1.414,0l-0.928,0.928c-0.856-0.4-1.875-0.4-2.73,0
		l-0.928-0.928c-0.391-0.391-1.023-0.391-1.414,0s-0.391,1.023,0,1.414l0.92,0.92c-0.425,0.866-0.425,1.88,0,2.747l-0.92,0.92
		c-0.391,0.391-0.391,1.023,0,1.414C22.988,28.902,23.244,29,23.5,29s0.512-0.098,0.707-0.293l0.918-0.918
		c0.424,0.21,0.888,0.332,1.375,0.332s0.951-0.123,1.375-0.332l0.918,0.918C28.988,28.902,29.244,29,29.5,29
		s0.512-0.098,0.707-0.293c0.391-0.391,0.391-1.023,0-1.414l-0.92-0.92c0.425-0.866,0.425-1.88,0-2.747l0.92-0.92
		C30.598,22.316,30.598,21.684,30.207,21.293z M25.707,25.793c-0.437-0.437-0.437-1.149,0-1.586
		c0.212-0.212,0.493-0.329,0.793-0.329s0.581,0.117,0.793,0.329c0.437,0.437,0.437,1.149,0,1.586
		C26.869,26.217,26.131,26.217,25.707,25.793z"/>
	<path style="fill:#261A1A;" d="M20.207,12.293c-0.391-0.391-1.023-0.391-1.414,0l-0.928,0.928c-0.856-0.4-1.875-0.4-2.73,0
		l-0.928-0.928c-0.391-0.391-1.023-0.391-1.414,0s-0.391,1.023,0,1.414l0.92,0.92c-0.425,0.866-0.425,1.88,0,2.747l-0.92,0.92
		c-0.391,0.391-0.391,1.023,0,1.414C12.988,19.902,13.244,20,13.5,20s0.512-0.098,0.707-0.293l0.918-0.918
		c0.424,0.21,0.888,0.332,1.375,0.332s0.951-0.123,1.375-0.332l0.918,0.918C18.988,19.902,19.244,20,19.5,20
		s0.512-0.098,0.707-0.293c0.391-0.391,0.391-1.023,0-1.414l-0.92-0.92c0.425-0.866,0.425-1.88,0-2.747l0.92-0.92
		C20.598,13.316,20.598,12.684,20.207,12.293z M15.707,16.793c-0.437-0.437-0.437-1.149,0-1.586
		c0.212-0.212,0.493-0.329,0.793-0.329s0.581,0.117,0.793,0.329c0.437,0.437,0.437,1.149,0,1.586
		C16.869,17.217,16.131,17.217,15.707,16.793z"/>
	<path style="fill:#261A1A;" d="M39.287,17.373c0.425-0.866,0.425-1.88,0-2.747l0.92-0.92c0.391-0.391,0.391-1.023,0-1.414
		s-1.023-0.391-1.414,0l-0.928,0.928c-0.856-0.4-1.875-0.4-2.73,0l-0.928-0.928c-0.391-0.391-1.023-0.391-1.414,0
		s-0.391,1.023,0,1.414l0.92,0.92c-0.425,0.866-0.425,1.88,0,2.747l-0.92,0.92c-0.391,0.391-0.391,1.023,0,1.414
		C32.988,19.902,33.244,20,33.5,20s0.512-0.098,0.707-0.293l0.918-0.918c0.424,0.21,0.888,0.332,1.375,0.332
		s0.951-0.123,1.375-0.332l0.918,0.918C38.988,19.902,39.244,20,39.5,20s0.512-0.098,0.707-0.293c0.391-0.391,0.391-1.023,0-1.414
		L39.287,17.373z M35.707,16.793c-0.437-0.437-0.437-1.149,0-1.586c0.212-0.212,0.493-0.329,0.793-0.329s0.581,0.117,0.793,0.329
		c0.437,0.437,0.437,1.149,0,1.586C36.869,17.217,36.131,17.217,35.707,16.793z"/>
</g>
<rect x="13.5" y="37" style="fill:#352727;" width="27" height="15"/>
<rect x="13.5" y="31" style="fill:#47363D;" width="27" height="6"/>
<path style="fill:#261A1A;" d="M13.5,54h-13V31.378C0.5,27.788,3.41,25,7,25h0c3.59,0,6.5,2.788,6.5,6.378V54z"/>
<path style="fill:#261A1A;" d="M53.5,54h-13V31.378C40.5,27.788,43.41,25,47,25h0c3.59,0,6.5,2.788,6.5,6.378V54z"/>
<path style="fill:#3A2A2A;" d="M10.5,52h-7c-0.553,0-1-0.448-1-1s0.447-1,1-1h7c0.553,0,1,0.448,1,1S11.053,52,10.5,52z"/>
<path style="fill:#3A2A2A;" d="M50.5,52h-7c-0.553,0-1-0.448-1-1s0.447-1,1-1h7c0.553,0,1,0.448,1,1S51.053,52,50.5,52z"/>
<g>
</g>
<g>
</g>
<g>
</g>
<g>
</g>
<g>
</g>
<g>
</g>
<g>
</g>
<g>
</g>
<g>
</g>
<g>
</g>
<g>
</g>
<g>
</g>
<g>
</g>
<g>
</g>
<g>
</g>
</svg>
