<?xml version="1.0" encoding="iso-8859-1"?>
<!-- Generator: Adobe Illustrator 18.0.0, SVG Export Plug-In . SVG Version: 6.00 Build 0)  -->
<!DOCTYPE svg PUBLIC "-//W3C//DTD SVG 1.1//EN" "http://www.w3.org/Graphics/SVG/1.1/DTD/svg11.dtd">
<svg version="1.1" id="Capa_1" xmlns="http://www.w3.org/2000/svg" xmlns:xlink="http://www.w3.org/1999/xlink" x="0px" y="0px"
	 viewBox="0 0 60 60" style="enable-background:new 0 0 60 60;" xml:space="preserve">
<polygon style="fill:#556080;" points="15,58.999 12,58.999 12,54.999 17,54.999 "/>
<polygon style="fill:#556080;" points="45,58.999 48,58.999 48,54.999 43,54.999 "/>
<path style="fill:#BDC3C7;" d="M56,33.999c-0.552,0-1-0.447-1-1V2.416c0-0.24-0.16-0.343-0.256-0.383
	c-0.095-0.038-0.282-0.08-0.452,0.09L51.05,5.365c-0.391,0.391-1.023,0.391-1.414,0s-0.391-1.023,0-1.414l3.242-3.242
	c0.693-0.692,1.727-0.896,2.631-0.523C56.415,0.56,57,1.436,57,2.416v30.583C57,33.551,56.552,33.999,56,33.999z"/>
<line style="fill:none;stroke:#556080;stroke-width:2;stroke-linecap:round;stroke-linejoin:round;stroke-miterlimit:10;" x1="1" y1="58.999" x2="59" y2="58.999"/>
<line style="fill:none;stroke:#1081E0;stroke-width:2;stroke-linecap:round;stroke-miterlimit:10;stroke-dasharray:1,3;" x1="47" y1="11.999" x2="47" y2="28.999"/>
<line style="fill:none;stroke:#1081E0;stroke-width:2;stroke-linecap:round;stroke-miterlimit:10;stroke-dasharray:1,3;" x1="41" y1="7.999" x2="19.5" y2="29.499"/>
<line style="fill:none;stroke:#1081E0;stroke-width:2;stroke-linecap:round;stroke-miterlimit:10;stroke-dasharray:1,3;" x1="44" y1="10.999" x2="34" y2="28.999"/>
<g>
	<path style="fill:#EAEBF0;" d="M12,32.999H3c-1.1,0-2,0.9-2,2s0.9,2,2,2h9V32.999z"/>
	<path style="fill:#EAEBF0;" d="M57,32.999H23v4h34c1.1,0,2-0.9,2-2S58.1,32.999,57,32.999z"/>
</g>
<path style="fill:#D6D9DF;" d="M23,36.999v11H12v-11H3l3.722,13.399c0.755,2.719,3.231,4.601,6.053,4.601h34.451
	c2.822,0,5.297-1.882,6.053-4.601L57,36.999H23z"/>
<path style="fill:#7383BF;" d="M50.509,11.564l-7.071-7.071l0,0c1.861-1.861,4.879-1.861,6.74,0l0.331,0.331
	C52.37,6.685,52.37,9.703,50.509,11.564L50.509,11.564z"/>
<rect x="12" y="30.999" style="fill:#26B99A;" width="11" height="17"/>
<rect x="12" y="43.999" style="fill:#1A9172;" width="11" height="4"/>
<g>
</g>
<g>
</g>
<g>
</g>
<g>
</g>
<g>
</g>
<g>
</g>
<g>
</g>
<g>
</g>
<g>
</g>
<g>
</g>
<g>
</g>
<g>
</g>
<g>
</g>
<g>
</g>
<g>
</g>
</svg>
