<?xml version="1.0" encoding="iso-8859-1"?>
<!-- Generator: Adobe Illustrator 18.0.0, SVG Export Plug-In . SVG Version: 6.00 Build 0)  -->
<!DOCTYPE svg PUBLIC "-//W3C//DTD SVG 1.1//EN" "http://www.w3.org/Graphics/SVG/1.1/DTD/svg11.dtd">
<svg version="1.1" id="Capa_1" xmlns="http://www.w3.org/2000/svg" xmlns:xlink="http://www.w3.org/1999/xlink" x="0px" y="0px"
	 viewBox="0 0 59 59" style="enable-background:new 0 0 59 59;" xml:space="preserve">
<polygon style="fill:#556080;" points="14,59 11,59 11,55 16,55 "/>
<polygon style="fill:#556080;" points="44,59 47,59 47,55 42,55 "/>
<line style="fill:none;stroke:#556080;stroke-width:2;stroke-linecap:round;stroke-linejoin:round;stroke-miterlimit:10;" x1="4" y1="3" x2="36" y2="3"/>
<rect x="9" y="7" style="fill:#25AE88;" width="22" height="37"/>
<line style="fill:none;stroke:#C7CAC7;stroke-width:2;stroke-linecap:round;stroke-miterlimit:10;" x1="11" y1="1" x2="11" y2="7"/>
<line style="fill:none;stroke:#C7CAC7;stroke-width:2;stroke-linecap:round;stroke-miterlimit:10;" x1="14" y1="1" x2="14" y2="7"/>
<line style="fill:none;stroke:#C7CAC7;stroke-width:2;stroke-linecap:round;stroke-miterlimit:10;" x1="17" y1="1" x2="17" y2="7"/>
<line style="fill:none;stroke:#C7CAC7;stroke-width:2;stroke-linecap:round;stroke-miterlimit:10;" x1="20" y1="1" x2="20" y2="7"/>
<line style="fill:none;stroke:#C7CAC7;stroke-width:2;stroke-linecap:round;stroke-miterlimit:10;" x1="23" y1="1" x2="23" y2="7"/>
<line style="fill:none;stroke:#C7CAC7;stroke-width:2;stroke-linecap:round;stroke-miterlimit:10;" x1="26" y1="1" x2="26" y2="7"/>
<line style="fill:none;stroke:#C7CAC7;stroke-width:2;stroke-linecap:round;stroke-miterlimit:10;" x1="29" y1="1" x2="29" y2="7"/>
<line style="fill:none;stroke:#57D8AB;stroke-width:2;stroke-linecap:round;stroke-miterlimit:10;" x1="13" y1="11" x2="13" y2="22"/>
<line style="fill:none;stroke:#57D8AB;stroke-width:2;stroke-linecap:round;stroke-miterlimit:10;" x1="17" y1="29" x2="17" y2="17"/>
<line style="fill:none;stroke:#57D8AB;stroke-width:2;stroke-linecap:round;stroke-miterlimit:10;" x1="21" y1="13" x2="21" y2="26"/>
<line style="fill:none;stroke:#57D8AB;stroke-width:2;stroke-linecap:round;stroke-miterlimit:10;" x1="26" y1="31" x2="26" y2="20"/>
<path style="fill:#7383BF;" d="M52.509,11.565l-7.071-7.071l0,0c1.861-1.861,4.879-1.861,6.74,0l0.331,0.331
	C54.37,6.686,54.37,9.704,52.509,11.565L52.509,11.565z"/>
<path style="fill:none;stroke:#AFB6BB;stroke-width:2;stroke-linecap:round;stroke-linejoin:round;stroke-miterlimit:10;" d="M58,35
	V2.417c0-1.26-1.523-1.891-2.414-1L52.343,4.66"/>
<g>
	<path style="fill:#EAEBF0;" d="M9,33H8H2c-1.1,0-2,0.9-2,2s0.9,2,2,2h7V33z"/>
	<path style="fill:#EAEBF0;" d="M56,33H31v4h25c1.1,0,2-0.9,2-2S57.1,33,56,33z"/>
</g>
<path style="fill:#D6D9DF;" d="M31,37v7H9v-7H2l3.722,13.399C6.477,53.118,8.953,55,11.775,55h34.451
	c2.822,0,5.297-1.882,6.053-4.601L56,37H31z"/>
<g>
</g>
<g>
</g>
<g>
</g>
<g>
</g>
<g>
</g>
<g>
</g>
<g>
</g>
<g>
</g>
<g>
</g>
<g>
</g>
<g>
</g>
<g>
</g>
<g>
</g>
<g>
</g>
<g>
</g>
</svg>
