<?xml version="1.0" encoding="iso-8859-1"?>
<!-- Generator: Adobe Illustrator 18.0.0, SVG Export Plug-In . SVG Version: 6.00 Build 0)  -->
<!DOCTYPE svg PUBLIC "-//W3C//DTD SVG 1.1//EN" "http://www.w3.org/Graphics/SVG/1.1/DTD/svg11.dtd">
<svg version="1.1" id="Capa_1" xmlns="http://www.w3.org/2000/svg" xmlns:xlink="http://www.w3.org/1999/xlink" x="0px" y="0px"
	 viewBox="0 0 58 58" style="enable-background:new 0 0 58 58;" xml:space="preserve">
<path style="fill:#382016;" d="M52,38v-8h3v-2.856C55,25.407,53.593,24,51.856,24H6.144C4.407,24,3,25.407,3,27.144V30h3v8H3v8h52
	v-8H52z"/>
<rect x="8" y="1" style="fill:#FFFFFF;stroke:#556080;stroke-width:2;stroke-linecap:round;stroke-miterlimit:10;" width="42" height="19"/>
<path style="fill:#B02721;" d="M52,46H6v0c0-3.314,2.686-6,6-6h34C49.314,40,52,42.686,52,46L52,46z"/>
<g>
	<circle style="fill:#DD352E;" cx="10" cy="45" r="1"/>
	<circle style="fill:#DD352E;" cx="13" cy="42" r="1"/>
	<circle style="fill:#DD352E;" cx="16" cy="45" r="1"/>
	<circle style="fill:#DD352E;" cx="22" cy="45" r="1"/>
	<circle style="fill:#DD352E;" cx="19" cy="42" r="1"/>
	<circle style="fill:#DD352E;" cx="25" cy="42" r="1"/>
	<circle style="fill:#DD352E;" cx="28" cy="45" r="1"/>
	<circle style="fill:#DD352E;" cx="34" cy="45" r="1"/>
	<circle style="fill:#DD352E;" cx="31" cy="42" r="1"/>
	<circle style="fill:#DD352E;" cx="37" cy="42" r="1"/>
	<circle style="fill:#DD352E;" cx="40" cy="45" r="1"/>
	<circle style="fill:#DD352E;" cx="46" cy="45" r="1"/>
	<circle style="fill:#DD352E;" cx="43" cy="42" r="1"/>
</g>
<path style="fill:#F5EEE4;" d="M24.315,40c0.927-0.97,0.915-2.494-0.047-3.443l-3.992-3.935c-0.98-0.966-2.57-0.966-3.551,0
	l-3.992,3.935C11.77,37.506,11.758,39.03,12.685,40H24.315z"/>
<path style="fill:#F5EEE4;" d="M44.315,40c0.927-0.97,0.915-2.494-0.047-3.443l-3.992-3.935c-0.98-0.966-2.57-0.966-3.551,0
	l-3.992,3.935C31.77,37.506,31.758,39.03,32.685,40H44.315z"/>
<rect x="6" y="46" style="fill:#BCB3AA;" width="46" height="6.074"/>
<polygon style="fill:#6B5B4B;" points="6,46 0,46 0,58 9,58 9,56 6,56 "/>
<polygon style="fill:#6B5B4B;" points="52,46 58,46 58,58 49,58 49,56 52,56 "/>
<line style="fill:none;stroke:#556080;stroke-width:2;stroke-linecap:round;stroke-miterlimit:10;" x1="3" y1="45" x2="3" y2="38"/>
<line style="fill:none;stroke:#556080;stroke-width:2;stroke-linecap:round;stroke-miterlimit:10;" x1="1" y1="45" x2="5" y2="45"/>
<line style="fill:none;stroke:#556080;stroke-width:2;stroke-linecap:round;stroke-miterlimit:10;" x1="55" y1="45" x2="55" y2="38"/>
<line style="fill:none;stroke:#556080;stroke-width:2;stroke-linecap:round;stroke-miterlimit:10;" x1="53" y1="45" x2="57" y2="45"/>
<rect x="12" y="5" style="fill:#EFCE4A;" width="34" height="11"/>
<path style="fill:#DC691D;" d="M17,13c-0.256,0-0.512-0.098-0.707-0.293c-0.391-0.391-0.391-1.023,0-1.414l3-3
	c0.391-0.391,1.023-0.391,1.414,0s0.391,1.023,0,1.414l-3,3C17.512,12.902,17.256,13,17,13z"/>
<path style="fill:#DC691D;" d="M23,13c-0.256,0-0.512-0.098-0.707-0.293l-3-3c-0.391-0.391-0.391-1.023,0-1.414s1.023-0.391,1.414,0
	l3,3c0.391,0.391,0.391,1.023,0,1.414C23.512,12.902,23.256,13,23,13z"/>
<path style="fill:#DC691D;" d="M23,13c-0.256,0-0.512-0.098-0.707-0.293c-0.391-0.391-0.391-1.023,0-1.414l3-3
	c0.391-0.391,1.023-0.391,1.414,0s0.391,1.023,0,1.414l-3,3C23.512,12.902,23.256,13,23,13z"/>
<path style="fill:#DC691D;" d="M29,13c-0.256,0-0.512-0.098-0.707-0.293l-3-3c-0.391-0.391-0.391-1.023,0-1.414s1.023-0.391,1.414,0
	l3,3c0.391,0.391,0.391,1.023,0,1.414C29.512,12.902,29.256,13,29,13z"/>
<path style="fill:#DC691D;" d="M29,13c-0.256,0-0.512-0.098-0.707-0.293c-0.391-0.391-0.391-1.023,0-1.414l3-3
	c0.391-0.391,1.023-0.391,1.414,0s0.391,1.023,0,1.414l-3,3C29.512,12.902,29.256,13,29,13z"/>
<path style="fill:#DC691D;" d="M35,13c-0.256,0-0.512-0.098-0.707-0.293l-3-3c-0.391-0.391-0.391-1.023,0-1.414s1.023-0.391,1.414,0
	l3,3c0.391,0.391,0.391,1.023,0,1.414C35.512,12.902,35.256,13,35,13z"/>
<path style="fill:#DC691D;" d="M35,13c-0.256,0-0.512-0.098-0.707-0.293c-0.391-0.391-0.391-1.023,0-1.414l3-3
	c0.391-0.391,1.023-0.391,1.414,0s0.391,1.023,0,1.414l-3,3C35.512,12.902,35.256,13,35,13z"/>
<path style="fill:#DC691D;" d="M41,13c-0.256,0-0.512-0.098-0.707-0.293l-3-3c-0.391-0.391-0.391-1.023,0-1.414s1.023-0.391,1.414,0
	l3,3c0.391,0.391,0.391,1.023,0,1.414C41.512,12.902,41.256,13,41,13z"/>
<rect y="30" style="fill:#EBBA16;" width="6" height="8"/>
<rect x="52" y="30" style="fill:#EBBA16;" width="6" height="8"/>
<rect x="6" y="52" style="fill:#382016;" width="46" height="6"/>
<g>
</g>
<g>
</g>
<g>
</g>
<g>
</g>
<g>
</g>
<g>
</g>
<g>
</g>
<g>
</g>
<g>
</g>
<g>
</g>
<g>
</g>
<g>
</g>
<g>
</g>
<g>
</g>
<g>
</g>
</svg>
