<?xml version="1.0" encoding="iso-8859-1"?>
<!-- Generator: Adobe Illustrator 18.0.0, SVG Export Plug-In . SVG Version: 6.00 Build 0)  -->
<!DOCTYPE svg PUBLIC "-//W3C//DTD SVG 1.1//EN" "http://www.w3.org/Graphics/SVG/1.1/DTD/svg11.dtd">
<svg version="1.1" id="Capa_1" xmlns="http://www.w3.org/2000/svg" xmlns:xlink="http://www.w3.org/1999/xlink" x="0px" y="0px"
	 viewBox="0 0 58 58" style="enable-background:new 0 0 58 58;" xml:space="preserve">
<path style="fill:#F5EEE4;" d="M2.181,31.5h53.637c1.094,0,1.998,0.819,2.15,1.873c0.029-0.055,0.041-0.12,0.017-0.185L55.19,10.5
	c-0.645-2.272-2.72-4-5.082-4H7.892c-2.362,0-4.437,1.728-5.082,4L0.014,33.188c-0.024,0.065-0.012,0.13,0.017,0.185
	C0.183,32.319,1.087,31.5,2.181,31.5z"/>
<rect x="2" y="48.5" style="fill:#6C4127;" width="7" height="3"/>
<rect x="49" y="48.5" style="fill:#6C4127;" width="7" height="3"/>
<path style="fill:#BCB3AA;" d="M55.819,41.5H2.181C0.982,41.5,0,40.518,0,39.319v-5.637c0-1.2,0.982-2.181,2.181-2.181h53.637
	c1.2,0,2.181,0.982,2.181,2.181v5.637C58,40.518,57.018,41.5,55.819,41.5z"/>
<path style="fill:#9E6C53;" d="M55.819,48.5H2.181C0.982,48.5,0,47.518,0,46.319v-2.637c0-1.2,0.982-2.181,2.181-2.181h53.637
	c1.2,0,2.181,0.982,2.181,2.181v2.637C58,47.518,57.018,48.5,55.819,48.5z"/>
<path style="fill:#7383BF;" d="M56,31.5H2v0c0-3.314,2.686-6,6-6h42C53.314,25.5,56,28.186,56,31.5L56,31.5z"/>
<path style="fill:#A8C9E3;" d="M22.163,25.5c1.128-1.197,1.113-3.078-0.058-4.249l-4.857-4.857c-1.193-1.193-3.127-1.193-4.319,0
	l-4.857,4.857c-1.171,1.171-1.185,3.052-0.058,4.249H22.163z"/>
<path style="fill:#A8C9E3;" d="M48.985,25.5c1.128-1.197,1.113-3.078-0.058-4.249l-4.857-4.857c-1.193-1.193-3.127-1.193-4.319,0
	l-4.857,4.857c-1.171,1.171-1.185,3.052-0.058,4.249H48.985z"/>
<g>
</g>
<g>
</g>
<g>
</g>
<g>
</g>
<g>
</g>
<g>
</g>
<g>
</g>
<g>
</g>
<g>
</g>
<g>
</g>
<g>
</g>
<g>
</g>
<g>
</g>
<g>
</g>
<g>
</g>
</svg>
