<?xml version="1.0" encoding="iso-8859-1"?>
<!-- Generator: Adobe Illustrator 18.0.0, SVG Export Plug-In . SVG Version: 6.00 Build 0)  -->
<!DOCTYPE svg PUBLIC "-//W3C//DTD SVG 1.1//EN" "http://www.w3.org/Graphics/SVG/1.1/DTD/svg11.dtd">
<svg version="1.1" id="Capa_1" xmlns="http://www.w3.org/2000/svg" xmlns:xlink="http://www.w3.org/1999/xlink" x="0px" y="0px"
	 viewBox="0 0 58 58" style="enable-background:new 0 0 58 58;" xml:space="preserve">
<path style="fill:#B02721;" d="M0,13.604v19.077c0-1.2,0.982-2.181,2.181-2.181h53.637c1.2,0,2.181,0.982,2.181,2.181V13.604
	c0-3.371-2.733-6.104-6.104-6.104H6.104C2.733,7.5,0,10.233,0,13.604z"/>
<rect x="2" y="47.5" style="fill:#774836;" width="7" height="3"/>
<rect x="49" y="47.5" style="fill:#774836;" width="7" height="3"/>
<path style="fill:#BCB3AA;" d="M55.819,40.5H2.181C0.982,40.5,0,39.518,0,38.319v-5.637c0-1.2,0.982-2.181,2.181-2.181h53.637
	c1.2,0,2.181,0.982,2.181,2.181v5.637C58,39.518,57.018,40.5,55.819,40.5z"/>
<path style="fill:#553323;" d="M55.819,47.5H2.181C0.982,47.5,0,46.518,0,45.319v-2.637c0-1.2,0.982-2.181,2.181-2.181h53.637
	c1.2,0,2.181,0.982,2.181,2.181v2.637C58,46.518,57.018,47.5,55.819,47.5z"/>
<g>
	<circle style="fill:#DD352E;" cx="5" cy="12.5" r="1"/>
	<circle style="fill:#DD352E;" cx="8" cy="9.5" r="1"/>
	<circle style="fill:#DD352E;" cx="2" cy="15.5" r="1"/>
	<circle style="fill:#DD352E;" cx="8" cy="15.5" r="1"/>
	<circle style="fill:#DD352E;" cx="11" cy="12.5" r="1"/>
	<circle style="fill:#DD352E;" cx="17" cy="12.5" r="1"/>
	<circle style="fill:#DD352E;" cx="14" cy="9.5" r="1"/>
	<circle style="fill:#DD352E;" cx="20" cy="9.5" r="1"/>
	<circle style="fill:#DD352E;" cx="20" cy="15.5" r="1"/>
	<circle style="fill:#DD352E;" cx="23" cy="12.5" r="1"/>
	<circle style="fill:#DD352E;" cx="29" cy="12.5" r="1"/>
	<circle style="fill:#DD352E;" cx="26" cy="9.5" r="1"/>
	<circle style="fill:#DD352E;" cx="32" cy="9.5" r="1"/>
	<circle style="fill:#DD352E;" cx="26" cy="15.5" r="1"/>
	<circle style="fill:#DD352E;" cx="32" cy="15.5" r="1"/>
	<circle style="fill:#DD352E;" cx="35" cy="12.5" r="1"/>
	<circle style="fill:#DD352E;" cx="41" cy="12.5" r="1"/>
	<circle style="fill:#DD352E;" cx="38" cy="9.5" r="1"/>
	<circle style="fill:#DD352E;" cx="44" cy="9.5" r="1"/>
	<circle style="fill:#DD352E;" cx="38" cy="15.5" r="1"/>
	<circle style="fill:#DD352E;" cx="47" cy="12.5" r="1"/>
	<circle style="fill:#DD352E;" cx="53" cy="12.5" r="1"/>
	<circle style="fill:#DD352E;" cx="5" cy="18.5" r="1"/>
	<circle style="fill:#DD352E;" cx="23" cy="18.5" r="1"/>
	<circle style="fill:#DD352E;" cx="29" cy="18.5" r="1"/>
	<circle style="fill:#DD352E;" cx="35" cy="18.5" r="1"/>
	<circle style="fill:#DD352E;" cx="53" cy="18.5" r="1"/>
	<circle style="fill:#DD352E;" cx="50" cy="9.5" r="1"/>
	<circle style="fill:#DD352E;" cx="50" cy="15.5" r="1"/>
	<circle style="fill:#DD352E;" cx="56" cy="15.5" r="1"/>
	<circle style="fill:#DD352E;" cx="2" cy="21.5" r="1"/>
	<circle style="fill:#DD352E;" cx="2" cy="27.5" r="1"/>
	<circle style="fill:#DD352E;" cx="26" cy="21.5" r="1"/>
	<circle style="fill:#DD352E;" cx="32" cy="21.5" r="1"/>
	<circle style="fill:#DD352E;" cx="56" cy="21.5" r="1"/>
	<circle style="fill:#DD352E;" cx="56" cy="27.5" r="1"/>
</g>
<path style="fill:#F5EEE4;" d="M56,30.5H2v0c0-3.314,2.686-6,6-6h42C53.314,24.5,56,27.186,56,30.5L56,30.5z"/>
<path style="fill:#FBCE9D;" d="M22.163,24.5c1.128-1.197,1.113-3.078-0.058-4.249l-4.857-4.857c-1.193-1.193-3.127-1.193-4.319,0
	l-4.857,4.857c-1.171,1.171-1.185,3.052-0.058,4.249H22.163z"/>
<path style="fill:#FBCE9D;" d="M48.985,24.5c1.128-1.197,1.113-3.078-0.058-4.249l-4.857-4.857c-1.193-1.193-3.127-1.193-4.319,0
	l-4.857,4.857c-1.171,1.171-1.185,3.052-0.058,4.249H48.985z"/>
<g>
</g>
<g>
</g>
<g>
</g>
<g>
</g>
<g>
</g>
<g>
</g>
<g>
</g>
<g>
</g>
<g>
</g>
<g>
</g>
<g>
</g>
<g>
</g>
<g>
</g>
<g>
</g>
<g>
</g>
</svg>
