<?xml version="1.0" encoding="iso-8859-1"?>
<!-- Generator: Adobe Illustrator 18.0.0, SVG Export Plug-In . SVG Version: 6.00 Build 0)  -->
<!DOCTYPE svg PUBLIC "-//W3C//DTD SVG 1.1//EN" "http://www.w3.org/Graphics/SVG/1.1/DTD/svg11.dtd">
<svg version="1.1" id="Capa_1" xmlns="http://www.w3.org/2000/svg" xmlns:xlink="http://www.w3.org/1999/xlink" x="0px" y="0px"
	 viewBox="0 0 56 56" style="enable-background:new 0 0 56 56;" xml:space="preserve">
<rect x="10.5" y="42" style="fill:#839594;" width="28" height="11"/>
<path style="fill:#7383BF;" d="M38.146,8.007L38.5,4h-28v6l-3,2v3h0c2.761,0,5,2.239,5,5v18h23l0.807-9.149
	C36.86,28.941,37.422,29,38,29c5.799,0,10.5-4.701,10.5-10.5C48.5,12.75,43.877,8.086,38.146,8.007z M38,25
	c-0.46,0-0.908-0.049-1.341-0.14l1.134-12.85C37.863,12.008,37.93,12,38,12c3.59,0,6.5,2.91,6.5,6.5S41.59,25,38,25z"/>
<path style="fill:#556080;" d="M36.5,4h-23V2.67C13.5,1.195,14.695,0,16.17,0h17.66c1.475,0,2.67,1.195,2.67,2.67V4z"/>
<path style="fill:#38454F;" d="M13.5,4h23v1.33C36.5,6.805,35.305,8,33.83,8H16.17c-1.475,0-2.67-1.195-2.67-2.67V4z"/>
<rect x="20.5" y="30" style="fill:#38454F;" width="8" height="8"/>
<path style="fill:none;stroke:#556080;stroke-width:2;stroke-linecap:round;stroke-linejoin:round;stroke-miterlimit:10;" d="
	M16.5,30c0,2.211,1.789,4,4,4"/>
<path style="fill:none;stroke:#556080;stroke-width:2;stroke-linecap:round;stroke-linejoin:round;stroke-miterlimit:10;" d="
	M32.5,30c0,2.211-1.789,4-4,4"/>
<line style="fill:none;stroke:#556080;stroke-width:2;stroke-linecap:round;stroke-linejoin:round;stroke-miterlimit:10;" x1="20.5" y1="36" x2="28.5" y2="33"/>
<rect x="11.5" y="38" style="fill:#C7CAC7;" width="26" height="4"/>
<rect x="13.5" y="53" style="fill:#556080;" width="4" height="3"/>
<rect x="31.5" y="53" style="fill:#556080;" width="4" height="3"/>
<circle style="fill:#FFFFFF;" cx="18" cy="47.5" r="3.5"/>
<rect x="25.5" y="46" style="fill:#FFFFFF;" width="3" height="3"/>
<rect x="31.5" y="46" style="fill:#FFFFFF;" width="3" height="3"/>
<g>
</g>
<g>
</g>
<g>
</g>
<g>
</g>
<g>
</g>
<g>
</g>
<g>
</g>
<g>
</g>
<g>
</g>
<g>
</g>
<g>
</g>
<g>
</g>
<g>
</g>
<g>
</g>
<g>
</g>
</svg>
