<?xml version="1.0" encoding="iso-8859-1"?>
<!-- Generator: Adobe Illustrator 18.0.0, SVG Export Plug-In . SVG Version: 6.00 Build 0)  -->
<!DOCTYPE svg PUBLIC "-//W3C//DTD SVG 1.1//EN" "http://www.w3.org/Graphics/SVG/1.1/DTD/svg11.dtd">
<svg version="1.1" id="Capa_1" xmlns="http://www.w3.org/2000/svg" xmlns:xlink="http://www.w3.org/1999/xlink" x="0px" y="0px"
	 viewBox="0 0 58 58" style="enable-background:new 0 0 58 58;" xml:space="preserve">
<path style="fill:#C7CAC7;" d="M56.5,16H46.378C42.257,6.04,36.884,0,31,0c-6.102,0-11.656,6.489-15.831,17.119
	C14.622,17.049,14.067,17,13.5,17c-7.18,0-13,5.82-13,13c0,5.613,3.564,10.38,8.546,12.2C8.53,45.98,8.132,49.922,7.872,54h46.251
	c-0.732-11.506-2.534-21.98-5.12-30.572C51.563,19.275,56.5,16,56.5,16z M4.5,30c0-4.971,4.029-9,9-9
	c0.089,0,0.175,0.011,0.264,0.013c-1.672,5.036-3.063,10.806-4.105,17.117C6.612,36.688,4.5,33.594,4.5,30z"/>
<path style="fill:#23A24D;" d="M45.034,13C41.118,4.846,36.265,0,31,0c-5.269,0-10.132,4.836-14.05,13H45.034z"/>
<rect x="4.5" y="54" style="fill:#556080;" width="53" height="4"/>
<path style="fill:#FFFFFF;stroke:#949493;stroke-width:2;stroke-linecap:round;stroke-linejoin:round;stroke-miterlimit:10;" d="
	M26.5,50L26.5,50c-2.2,0-4-1.8-4-4V22c0-2.2,1.8-4,4-4h0c2.2,0,4,1.8,4,4v24C30.5,48.2,28.7,50,26.5,50z"/>
<line style="fill:none;stroke:#949493;stroke-width:2;stroke-linecap:round;stroke-linejoin:round;stroke-miterlimit:10;" x1="27.5" y1="44" x2="30.5" y2="44"/>
<line style="fill:none;stroke:#949493;stroke-width:2;stroke-linecap:round;stroke-linejoin:round;stroke-miterlimit:10;" x1="27.5" y1="40" x2="30.5" y2="40"/>
<line style="fill:none;stroke:#949493;stroke-width:2;stroke-linecap:round;stroke-linejoin:round;stroke-miterlimit:10;" x1="27.5" y1="36" x2="30.5" y2="36"/>
<line style="fill:none;stroke:#949493;stroke-width:2;stroke-linecap:round;stroke-linejoin:round;stroke-miterlimit:10;" x1="27.5" y1="32" x2="30.5" y2="32"/>
<line style="fill:none;stroke:#949493;stroke-width:2;stroke-linecap:round;stroke-linejoin:round;stroke-miterlimit:10;" x1="27.5" y1="28" x2="30.5" y2="28"/>
<line style="fill:none;stroke:#949493;stroke-width:2;stroke-linecap:round;stroke-linejoin:round;stroke-miterlimit:10;" x1="27.5" y1="24" x2="30.5" y2="24"/>
<g>
</g>
<g>
</g>
<g>
</g>
<g>
</g>
<g>
</g>
<g>
</g>
<g>
</g>
<g>
</g>
<g>
</g>
<g>
</g>
<g>
</g>
<g>
</g>
<g>
</g>
<g>
</g>
<g>
</g>
</svg>
