<?xml version="1.0" encoding="iso-8859-1"?>
<!-- Generator: Adobe Illustrator 18.0.0, SVG Export Plug-In . SVG Version: 6.00 Build 0)  -->
<!DOCTYPE svg PUBLIC "-//W3C//DTD SVG 1.1//EN" "http://www.w3.org/Graphics/SVG/1.1/DTD/svg11.dtd">
<svg version="1.1" id="Capa_1" xmlns="http://www.w3.org/2000/svg" xmlns:xlink="http://www.w3.org/1999/xlink" x="0px" y="0px"
	 viewBox="0 0 58 58" style="enable-background:new 0 0 58 58;" xml:space="preserve">
<rect x="4" y="44" style="fill:#C7CAC7;" width="50" height="4"/>
<path style="fill:#AFB6BB;" d="M48.065,55H9.935C7.762,55,6,53.238,6,51.065V48h46v3.065C52,53.238,50.238,55,48.065,55z"/>
<rect x="12" y="55" style="fill:#C7CAC7;" width="6" height="3"/>
<rect x="40" y="55" style="fill:#C7CAC7;" width="6" height="3"/>
<path style="fill:#43B05C;" d="M26.522,16.997c-0.325-0.63-0.157-1.392,0.393-1.839C27.583,14.616,28,13.852,28,13
	c0-1.657-1.567-3-3.5-3c-0.576,0-1.111,0.131-1.59,0.342C22.559,9.003,21.168,8,19.5,8c-1.023,0-1.935,0.383-2.576,0.983
	c-0.748-0.822-1.816-1.347-3.015-1.347c-0.818,0-1.576,0.246-2.215,0.66c-0.923-1.638-2.839-2.642-4.933-2.185
	C5.235,6.443,3.97,7.614,3.495,9.101c-0.323,1.011-0.273,1.975,0.015,2.831C1.481,12.535,0,14.412,0,16.636
	c0,2.711,2.198,4.909,4.909,4.909c0.075,0,0.148-0.008,0.222-0.011C5.635,22.967,6.986,24,8.591,24c0.875,0,1.667-0.316,2.295-0.828
	C11.866,24.271,13.565,25,15.5,25c1.946,0,3.653-0.736,4.629-1.846c0.53-0.602,1.353-0.777,2.081-0.44
	C22.609,22.898,23.043,23,23.5,23c1.933,0,3.5-1.791,3.5-4C27,18.267,26.825,17.585,26.522,16.997z"/>
<path style="fill:#6B4842;" d="M13,28v-3.444c-0.859-0.321-1.591-0.797-2.114-1.383C10.258,23.684,9.466,24,8.591,24
	C8.018,24,7.481,23.864,7,23.629V31v3c0,1.657,1.343,3,3,3h2.387c0.901-0.629,1.995-1,3.178-1C18.014,36,20,34.014,20,31.565V31h-4
	C14.343,31,13,29.657,13,28z"/>
<path style="fill:#88C057;" d="M53.561,12.727C55.553,12.068,57,10.213,57,8c0-2.761-2.239-5-5-5c-0.379,0-0.746,0.05-1.101,0.13
	C50.501,1.341,48.91,0,47,0c-2.209,0-4,1.791-4,4c0,0.32,0.047,0.627,0.118,0.925c-0.465,0.33-0.87,0.738-1.2,1.202
	c-0.006,0.001-0.013,0.002-0.019,0.003C41.501,4.341,39.91,3,38,3c-2.209,0-4,1.791-4,4c0,0.32,0.047,0.627,0.118,0.925
	C32.84,8.831,32,10.314,32,12c0,2.761,2.239,5,5,5c1.448,0,2.742-0.625,3.655-1.609c0.024,0.013,0.05,0.022,0.074,0.035
	C40.272,16.177,40,17.054,40,18c0,2.761,2.239,5,5,5c1.448,0,2.742-0.625,3.655-1.609C49.357,21.767,50.148,22,51,22
	c2.761,0,5-2.239,5-5C56,15.179,55.016,13.601,53.561,12.727z"/>
<g>
	<path style="fill:#23A24D;" d="M40,18c0-0.946,0.272-1.823,0.729-2.575c-0.024-0.012-0.05-0.022-0.074-0.035
		C39.742,16.375,38.448,17,37,17c-2.761,0-5-2.239-5-5c0-1.686,0.84-3.169,2.118-4.075C34.047,7.627,34,7.32,34,7
		c0-0.889,0.299-1.701,0.789-2.365c-0.12-0.759-0.458-1.49-1.043-2.075c-1.473-1.473-3.861-1.473-5.334,0
		c-0.018,0.018-0.032,0.037-0.05,0.055c-0.177-0.552-0.482-1.072-0.92-1.51c-1.654-1.654-4.462-1.45-5.832,0.611
		c-0.813,1.222-0.813,2.865-0.01,4.094c0.501,0.768,1.201,1.274,1.966,1.532c0.038,0.013,0.049,0.056,0.024,0.087
		c-0.667,0.814-0.9,1.859-0.709,2.837c0.008,0.026,0.021,0.05,0.028,0.077C23.389,10.131,23.924,10,24.5,10c1.933,0,3.5,1.343,3.5,3
		c0,0.853-0.417,1.616-1.085,2.159c-0.409,0.332-0.604,0.838-0.546,1.334c0.038,0.041,0.065,0.088,0.104,0.127
		c1.143,1.143,2.836,1.397,4.225,0.766c0.156-0.071,0.319-0.105,0.483-0.124C31.744,19.409,33.678,21,36,21
		c1.693,0,3.183-0.846,4.087-2.133C40.038,18.584,40,18.297,40,18z"/>
</g>
<g>
	<path style="fill:#6B5B4B;" d="M42.435,36h-9C30.986,36,29,34.014,29,31.565C29,29.044,31.044,27,33.565,27H39h1.037
		C40.028,26.878,40,26.761,40,26.636c0-1.858,1.04-3.462,2.563-4.295c-1.281-0.721-2.213-1.975-2.476-3.474
		C39.183,20.154,37.693,21,36,21c-2.047,0-3.79-1.237-4.56-3h-4.556C26.958,18.319,27,18.654,27,19c0,2.209-1.567,4-3.5,4
		c-0.457,0-0.891-0.102-1.289-0.286c-0.728-0.336-1.552-0.162-2.081,0.44C20.09,23.199,20.042,23.24,20,23.283V24v3v4.565
		C20,34.014,18.014,36,15.565,36C12.492,36,10,38.491,10,41.565V44h38v-2.435C48,38.491,45.508,36,42.435,36z"/>
</g>
<path style="fill:#61B872;" d="M58,21.727c0-1.551-0.873-2.884-2.146-3.578C55.333,20.354,53.364,22,51,22
	c-0.852,0-1.643-0.233-2.345-0.609C47.742,22.375,46.448,23,45,23c-0.89,0-1.713-0.252-2.437-0.659
	C41.04,23.174,40,24.778,40,26.636c0,2.711,2.198,4.909,4.909,4.909c0.075,0,0.148-0.008,0.222-0.011
	C45.635,32.967,46.986,34,48.591,34c1.9,0,3.445-1.444,3.643-3.292c2.764-0.19,4.948-2.487,4.948-5.299
	c0-0.38-0.042-0.75-0.117-1.108C57.64,23.597,58,22.708,58,21.727z"/>
<circle style="fill:#23A24D;" cx="28.5" cy="16.5" r="3.5"/>
<g>
</g>
<g>
</g>
<g>
</g>
<g>
</g>
<g>
</g>
<g>
</g>
<g>
</g>
<g>
</g>
<g>
</g>
<g>
</g>
<g>
</g>
<g>
</g>
<g>
</g>
<g>
</g>
<g>
</g>
</svg>
