<?xml version="1.0" encoding="iso-8859-1"?>
<!-- Generator: Adobe Illustrator 18.0.0, SVG Export Plug-In . SVG Version: 6.00 Build 0)  -->
<!DOCTYPE svg PUBLIC "-//W3C//DTD SVG 1.1//EN" "http://www.w3.org/Graphics/SVG/1.1/DTD/svg11.dtd">
<svg version="1.1" id="Capa_1" xmlns="http://www.w3.org/2000/svg" xmlns:xlink="http://www.w3.org/1999/xlink" x="0px" y="0px"
	 viewBox="0 0 60 60" style="enable-background:new 0 0 60 60;" xml:space="preserve">
<path style="fill:#BFA380;" d="M8.999,55.5c-0.181,0-0.364-0.049-0.529-0.152c-0.468-0.292-0.61-0.909-0.317-1.378l5-8
	c0.292-0.469,0.909-0.611,1.378-0.317c0.468,0.292,0.61,0.909,0.317,1.378l-5,8C9.658,55.334,9.332,55.5,8.999,55.5z"/>
<path style="fill:#BFA380;" d="M53.001,55.5c-0.333,0-0.659-0.166-0.849-0.47l-5-8c-0.293-0.469-0.15-1.086,0.317-1.378
	c0.469-0.294,1.086-0.151,1.378,0.317l5,8c0.293,0.469,0.15,1.086-0.317,1.378C53.365,55.451,53.182,55.5,53.001,55.5z"/>
<path style="fill:none;stroke:#23A24D;stroke-width:2;stroke-linecap:round;stroke-miterlimit:10;" d="M20,13.5c0-3.316,2.684-6,6-6
	"/>
<path style="fill:none;stroke:#23A24D;stroke-width:2;stroke-linecap:round;stroke-miterlimit:10;" d="M20,13.5c0-3.316-2.684-6-6-6
	"/>
<line style="fill:none;stroke:#23A24D;stroke-width:2;stroke-linecap:round;stroke-miterlimit:10;" x1="20" y1="13.5" x2="20" y2="5.5"/>
<path style="fill:#DC691D;" d="M17.025,13.5C16.39,15.093,16,17.192,16,19.5c0,4.97,1.791,9,4,9s4-4.03,4-9
	c0-2.308-0.39-4.407-1.025-6H17.025z"/>
<path style="fill:#553323;stroke:#BFA380;stroke-width:2;stroke-linecap:round;stroke-miterlimit:10;" d="M50,46.5H10
	c-4.971,0-9-4.029-9-9v0c0-4.971,4.029-9,9-9h40c4.971,0,9,4.029,9,9v0C59,42.471,54.971,46.5,50,46.5z"/>
<rect x="17" y="32.5" style="fill:#B02721;" width="4" height="13"/>
<rect x="21" y="34.5" style="fill:#DC691D;" width="4" height="11"/>
<rect x="25" y="31.5" style="fill:#EBBA16;" width="4" height="14"/>
<rect x="29" y="33.5" style="fill:#61B872;" width="10" height="4"/>
<rect x="29" y="37.5" style="fill:#23A24D;" width="12" height="4"/>
<rect x="29" y="23.5" style="fill:#AFB6BB;" width="12" height="4"/>
<rect x="29" y="41.5" style="fill:#3D6F44;" width="14" height="4"/>
<g>
</g>
<g>
</g>
<g>
</g>
<g>
</g>
<g>
</g>
<g>
</g>
<g>
</g>
<g>
</g>
<g>
</g>
<g>
</g>
<g>
</g>
<g>
</g>
<g>
</g>
<g>
</g>
<g>
</g>
</svg>
