<?xml version="1.0" encoding="iso-8859-1"?>
<!-- Generator: Adobe Illustrator 18.0.0, SVG Export Plug-In . SVG Version: 6.00 Build 0)  -->
<!DOCTYPE svg PUBLIC "-//W3C//DTD SVG 1.1//EN" "http://www.w3.org/Graphics/SVG/1.1/DTD/svg11.dtd">
<svg version="1.1" id="Capa_1" xmlns="http://www.w3.org/2000/svg" xmlns:xlink="http://www.w3.org/1999/xlink" x="0px" y="0px"
	 viewBox="0 0 58 58" style="enable-background:new 0 0 58 58;" xml:space="preserve">
<path style="fill:none;stroke:#7383BF;stroke-width:2;stroke-linecap:round;stroke-miterlimit:10;" d="M22,12h2c1.105,0,2-0.895,2-2
	s-0.895-2-2-2h-2"/>
<rect x="15" y="43" style="fill:none;stroke:#6B5B4B;stroke-width:2;stroke-linecap:round;stroke-miterlimit:10;" width="14" height="14"/>
<rect x="1" y="43" style="fill:none;stroke:#6B5B4B;stroke-width:2;stroke-linecap:round;stroke-miterlimit:10;" width="14" height="14"/>
<rect x="29" y="43" style="fill:none;stroke:#6B5B4B;stroke-width:2;stroke-linecap:round;stroke-miterlimit:10;" width="14" height="14"/>
<rect x="43" y="43" style="fill:none;stroke:#6B5B4B;stroke-width:2;stroke-linecap:round;stroke-miterlimit:10;" width="14" height="14"/>
<rect x="1" y="29" style="fill:none;stroke:#6B5B4B;stroke-width:2;stroke-linecap:round;stroke-miterlimit:10;" width="14" height="14"/>
<rect x="15" y="29" style="fill:none;stroke:#6B5B4B;stroke-width:2;stroke-linecap:round;stroke-miterlimit:10;" width="14" height="14"/>
<rect x="29" y="29" style="fill:none;stroke:#6B5B4B;stroke-width:2;stroke-linecap:round;stroke-miterlimit:10;" width="14" height="14"/>
<rect x="1" y="15" style="fill:none;stroke:#6B5B4B;stroke-width:2;stroke-linecap:round;stroke-miterlimit:10;" width="14" height="14"/>
<rect x="15" y="15" style="fill:none;stroke:#6B5B4B;stroke-width:2;stroke-linecap:round;stroke-miterlimit:10;" width="14" height="14"/>
<rect x="1" y="1" style="fill:none;stroke:#6B5B4B;stroke-width:2;stroke-linecap:round;stroke-miterlimit:10;" width="14" height="14"/>
<rect x="8" y="19" style="fill:#FC3952;" width="3" height="9"/>
<rect x="5" y="19" style="fill:#FBD490;" width="3" height="9"/>
<rect x="2" y="19" style="fill:#7383BF;" width="3" height="9"/>
<line style="fill:none;stroke:#88C057;stroke-width:2;stroke-linecap:round;stroke-miterlimit:10;" x1="36" y1="22" x2="36" y2="14"/>
<path style="fill:#DD352E;" d="M36,7h-3v4c0,1.65,1.35,3,3,3V7z"/>
<line style="fill:none;stroke:#88C057;stroke-width:2;stroke-linecap:round;stroke-miterlimit:10;" x1="36" y1="20" x2="39" y2="17"/>
<path style="fill:#B02721;" d="M36,8h3v3c0,1.65-1.35,3-3,3V8z"/>
<rect x="48" y="30" style="fill:#EB7937;" width="4" height="12"/>
<rect x="44" y="32" style="fill:#EFCE4A;" width="4" height="10"/>
<rect x="52" y="32" style="fill:#88C057;" width="4" height="10"/>
<rect x="18" y="50" style="fill:#6EC98D;" width="8" height="3"/>
<rect x="18" y="47" style="fill:#72A6BF;" width="8" height="3"/>
<rect x="18" y="53" style="fill:#DD352E;" width="8" height="3"/>
<rect x="18" y="7" style="fill:#7383BF;" width="5" height="7"/>
<path style="fill:none;stroke:#C7CAC7;stroke-width:2;stroke-linecap:round;stroke-miterlimit:10;" d="M20.845,1.536
	c1.206,0.5,1.206,1.309,0,1.809s-1.206,1.309,0,1.809"/>
<path style="fill:#C7CAC7;" d="M37.8,22L37.8,22l-3.6,0v0c-0.283,1.13-0.965,2.089-1.82,2.88c-0.437,0.405-0.675,1.022-0.544,1.683
	C32.006,27.417,32.808,28,33.679,28h4.642c0.871,0,1.673-0.583,1.843-1.437c0.131-0.661-0.106-1.278-0.544-1.683
	C38.765,24.089,38.083,23.13,37.8,22z"/>
<g>
</g>
<g>
</g>
<g>
</g>
<g>
</g>
<g>
</g>
<g>
</g>
<g>
</g>
<g>
</g>
<g>
</g>
<g>
</g>
<g>
</g>
<g>
</g>
<g>
</g>
<g>
</g>
<g>
</g>
</svg>
