<?xml version="1.0" encoding="iso-8859-1"?>
<!-- Generator: Adobe Illustrator 18.0.0, SVG Export Plug-In . SVG Version: 6.00 Build 0)  -->
<!DOCTYPE svg PUBLIC "-//W3C//DTD SVG 1.1//EN" "http://www.w3.org/Graphics/SVG/1.1/DTD/svg11.dtd">
<svg version="1.1" id="Capa_1" xmlns="http://www.w3.org/2000/svg" xmlns:xlink="http://www.w3.org/1999/xlink" x="0px" y="0px"
	 viewBox="0 0 60 60" style="enable-background:new 0 0 60 60;" xml:space="preserve">
<polygon style="fill:#382016;" points="54,59 57,59 57,54 52,54 "/>
<polygon style="fill:#382016;" points="6,59 3,59 3,54 8,54 "/>
<rect x="1" y="26" style="fill:#553323;stroke:#382016;stroke-width:2;stroke-miterlimit:10;" width="58" height="28"/>
<rect x="31" y="40" style="fill:#553323;stroke:#382016;stroke-width:2;stroke-miterlimit:10;" width="28" height="14"/>
<rect x="31" y="26" style="fill:#553323;stroke:#382016;stroke-width:2;stroke-miterlimit:10;" width="28" height="14"/>
<rect x="1" y="26" style="fill:#553323;stroke:#382016;stroke-width:2;stroke-miterlimit:10;" width="10" height="28"/>
<rect x="11" y="26" style="fill:#553323;stroke:#382016;stroke-width:2;stroke-miterlimit:10;" width="10" height="28"/>
<rect x="21" y="26" style="fill:#553323;stroke:#382016;stroke-width:2;stroke-miterlimit:10;" width="10" height="28"/>
<g>
	<path style="fill:#D7B740;" d="M43,34h4c0.553,0,1-0.447,1-1s-0.447-1-1-1h-4c-0.553,0-1,0.447-1,1S42.447,34,43,34z"/>
	<path style="fill:#D7B740;" d="M27,29c-0.553,0-1,0.447-1,1v4c0,0.553,0.447,1,1,1s1-0.447,1-1v-4C28,29.447,27.553,29,27,29z"/>
	<path style="fill:#D7B740;" d="M17,29c-0.553,0-1,0.447-1,1v4c0,0.553,0.447,1,1,1s1-0.447,1-1v-4C18,29.447,17.553,29,17,29z"/>
	<path style="fill:#D7B740;" d="M7,29c-0.553,0-1,0.447-1,1v4c0,0.553,0.447,1,1,1s1-0.447,1-1v-4C8,29.447,7.553,29,7,29z"/>
	<path style="fill:#D7B740;" d="M47,46h-4c-0.553,0-1,0.447-1,1s0.447,1,1,1h4c0.553,0,1-0.447,1-1S47.553,46,47,46z"/>
</g>
<path style="fill:none;stroke:#23A24D;stroke-width:2;stroke-linecap:round;stroke-miterlimit:10;" d="M9,10c0-3.316,2.684-6,6-6"/>
<path style="fill:none;stroke:#23A24D;stroke-width:2;stroke-linecap:round;stroke-miterlimit:10;" d="M9,10c0-3.316-2.684-6-6-6"/>
<line style="fill:none;stroke:#23A24D;stroke-width:2;stroke-linecap:round;stroke-miterlimit:10;" x1="9" y1="10" x2="9" y2="2"/>
<path style="fill:#D7B740;" d="M6.025,10C5.39,11.593,5,13.692,5,16c0,4.97,1.791,9,4,9s4-4.03,4-9c0-2.308-0.39-4.407-1.025-6
	H6.025z"/>
<rect x="18" y="21" style="fill:#B02721;" width="12" height="4"/>
<rect x="20" y="17" style="fill:#EBBA16;" width="12" height="4"/>
<rect x="18" y="13" style="fill:#DD352E;" width="12" height="4"/>
<path style="fill:#C7CAC7;stroke:#C7CAC7;stroke-width:2;stroke-linecap:round;stroke-miterlimit:10;" d="M55,20H41
	c1.105,0,4,0.895,4,2c0,0.449,0,2,0,2h6c0,0,0-1.551,0-2C51,20.895,53.895,20,55,20z"/>
<line style="fill:none;stroke:#949493;stroke-width:2;stroke-linecap:round;stroke-miterlimit:10;" x1="40" y1="20" x2="56" y2="20"/>
<g>
</g>
<g>
</g>
<g>
</g>
<g>
</g>
<g>
</g>
<g>
</g>
<g>
</g>
<g>
</g>
<g>
</g>
<g>
</g>
<g>
</g>
<g>
</g>
<g>
</g>
<g>
</g>
<g>
</g>
</svg>
