<?xml version="1.0" encoding="iso-8859-1"?>
<!-- Generator: Adobe Illustrator 18.0.0, SVG Export Plug-In . SVG Version: 6.00 Build 0)  -->
<!DOCTYPE svg PUBLIC "-//W3C//DTD SVG 1.1//EN" "http://www.w3.org/Graphics/SVG/1.1/DTD/svg11.dtd">
<svg version="1.1" id="Capa_1" xmlns="http://www.w3.org/2000/svg" xmlns:xlink="http://www.w3.org/1999/xlink" x="0px" y="0px"
	 viewBox="0 0 58 58" style="enable-background:new 0 0 58 58;" xml:space="preserve">
<rect style="fill:#382016;" width="58" height="58"/>
<rect x="3" y="43" style="fill:#553323;stroke:#382016;stroke-width:2;stroke-miterlimit:10;" width="12" height="12"/>
<rect x="15" y="43" style="fill:#553323;stroke:#382016;stroke-width:2;stroke-miterlimit:10;" width="14" height="12"/>
<rect x="29" y="43" style="fill:#553323;stroke:#382016;stroke-width:2;stroke-miterlimit:10;" width="14" height="12"/>
<rect x="43" y="43" style="fill:#553323;stroke:#382016;stroke-width:2;stroke-miterlimit:10;" width="12" height="12"/>
<rect x="3" y="29" style="fill:#553323;stroke:#382016;stroke-width:2;stroke-miterlimit:10;" width="12" height="14"/>
<rect x="15" y="29" style="fill:#553323;stroke:#382016;stroke-width:2;stroke-miterlimit:10;" width="14" height="14"/>
<rect x="29" y="29" style="fill:#553323;stroke:#382016;stroke-width:2;stroke-miterlimit:10;" width="14" height="14"/>
<rect x="43" y="29" style="fill:#553323;stroke:#382016;stroke-width:2;stroke-miterlimit:10;" width="12" height="14"/>
<rect x="3" y="15" style="fill:#553323;stroke:#382016;stroke-width:2;stroke-miterlimit:10;" width="12" height="14"/>
<rect x="15" y="15" style="fill:#553323;stroke:#382016;stroke-width:2;stroke-miterlimit:10;" width="14" height="14"/>
<rect x="29" y="15" style="fill:#553323;stroke:#382016;stroke-width:2;stroke-miterlimit:10;" width="14" height="14"/>
<rect x="43" y="15" style="fill:#553323;stroke:#382016;stroke-width:2;stroke-miterlimit:10;" width="12" height="14"/>
<rect x="3" y="3" style="fill:#553323;stroke:#382016;stroke-width:2;stroke-miterlimit:10;" width="12" height="12"/>
<rect x="15" y="3" style="fill:#553323;stroke:#382016;stroke-width:2;stroke-miterlimit:10;" width="14" height="12"/>
<rect x="29" y="3" style="fill:#553323;stroke:#382016;stroke-width:2;stroke-miterlimit:10;" width="14" height="12"/>
<rect x="43" y="3" style="fill:#553323;stroke:#382016;stroke-width:2;stroke-miterlimit:10;" width="12" height="12"/>
<rect x="50" y="33" style="fill:#DD352E;" width="3" height="9"/>
<rect x="47" y="33" style="fill:#EB7937;" width="3" height="9"/>
<rect x="44" y="33" style="fill:#EFCE4A;" width="3" height="9"/>
<rect x="25" y="19" style="fill:#556080;" width="3" height="9"/>
<rect x="22" y="19" style="fill:#7383BF;" width="3" height="9"/>
<rect x="19" y="19" style="fill:#BF4D90;" width="3" height="9"/>
<g>
</g>
<g>
</g>
<g>
</g>
<g>
</g>
<g>
</g>
<g>
</g>
<g>
</g>
<g>
</g>
<g>
</g>
<g>
</g>
<g>
</g>
<g>
</g>
<g>
</g>
<g>
</g>
<g>
</g>
</svg>
