<?xml version="1.0" encoding="iso-8859-1"?>
<!-- Generator: Adobe Illustrator 18.0.0, SVG Export Plug-In . SVG Version: 6.00 Build 0)  -->
<!DOCTYPE svg PUBLIC "-//W3C//DTD SVG 1.1//EN" "http://www.w3.org/Graphics/SVG/1.1/DTD/svg11.dtd">
<svg version="1.1" id="Capa_1" xmlns="http://www.w3.org/2000/svg" xmlns:xlink="http://www.w3.org/1999/xlink" x="0px" y="0px"
	 viewBox="0 0 59 59" style="enable-background:new 0 0 59 59;" xml:space="preserve">
<path style="fill:#382016;" d="M39,59c-0.131,0-0.265-0.025-0.394-0.081c-0.507-0.218-0.743-0.806-0.525-1.313l3-7
	c0.216-0.509,0.804-0.746,1.313-0.525c0.507,0.218,0.743,0.806,0.525,1.313l-3,7C39.757,58.773,39.388,59,39,59z"/>
<path style="fill:#382016;" d="M57,59c-0.388,0-0.757-0.227-0.919-0.606l-3-7c-0.218-0.507,0.018-1.095,0.525-1.313
	c0.507-0.22,1.096,0.017,1.313,0.525l3,7c0.218,0.507-0.018,1.095-0.525,1.313C57.266,58.975,57.132,59,57,59z"/>
<path style="fill:#6B5B4B;" d="M2,59c-0.552,0-1-0.447-1-1v-1c0-0.553,0.448-1,1-1s1,0.447,1,1v1C3,58.553,2.552,59,2,59z"/>
<path style="fill:#6B5B4B;" d="M32,59c-0.552,0-1-0.447-1-1v-1c0-0.553,0.448-1,1-1s1,0.447,1,1v1C33,58.553,32.552,59,32,59z"/>
<rect style="fill:#6B5B4B;" width="34" height="57"/>
<rect x="3" y="41" style="fill:#F7E6A1;stroke:#D1C17C;stroke-width:2;stroke-linecap:round;stroke-miterlimit:10;" width="14" height="13"/>
<rect x="17" y="41" style="fill:#F7E6A1;stroke:#D1C17C;stroke-width:2;stroke-linecap:round;stroke-miterlimit:10;" width="14" height="13"/>
<rect x="3" y="28" style="fill:#F7E6A1;stroke:#D1C17C;stroke-width:2;stroke-linecap:round;stroke-miterlimit:10;" width="14" height="13"/>
<rect x="17" y="28" style="fill:#F7E6A1;stroke:#D1C17C;stroke-width:2;stroke-linecap:round;stroke-miterlimit:10;" width="14" height="13"/>
<rect x="3" y="15" style="fill:#F7E6A1;stroke:#D1C17C;stroke-width:2;stroke-linecap:round;stroke-miterlimit:10;" width="14" height="13"/>
<rect x="17" y="15" style="fill:#F7E6A1;stroke:#D1C17C;stroke-width:2;stroke-linecap:round;stroke-miterlimit:10;" width="14" height="13"/>
<rect x="3" y="3" style="fill:#F7E6A1;stroke:#D1C17C;stroke-width:2;stroke-linecap:round;stroke-miterlimit:10;" width="14" height="12"/>
<rect x="17" y="3" style="fill:#F7E6A1;stroke:#D1C17C;stroke-width:2;stroke-linecap:round;stroke-miterlimit:10;" width="14" height="12"/>
<rect x="27" y="31" style="fill:#3D6F44;" width="3" height="9"/>
<rect x="24" y="31" style="fill:#1A9172;" width="3" height="9"/>
<rect x="21" y="31" style="fill:#88C057;" width="3" height="9"/>
<line style="fill:none;stroke:#6B5B4B;stroke-width:2;stroke-linecap:round;stroke-miterlimit:10;" x1="22" y1="44" x2="26" y2="44"/>
<line style="fill:none;stroke:#6B5B4B;stroke-width:2;stroke-linecap:round;stroke-miterlimit:10;" x1="8" y1="44" x2="12" y2="44"/>
<rect x="38" y="45" style="fill:#6B5B4B;stroke:#54473C;stroke-width:2;stroke-linecap:round;stroke-miterlimit:10;" width="20" height="6"/>
<path style="fill:#88C057;" d="M51.907,32.293c-0.391-0.391-1.023-0.391-1.414,0L49.2,33.586V30c0-0.553-0.448-1-1-1s-1,0.447-1,1v8
	c0,0.553,0.448,1,1,1s1-0.447,1-1v-1.586l2.707-2.707C52.298,33.316,52.298,32.684,51.907,32.293z"/>
<path style="fill:#DD352E;" d="M48.2,23h-3v4c0,1.65,1.35,3,3,3V23z"/>
<path style="fill:#B02721;" d="M48.2,24h3v3c0,1.65-1.35,3-3,3V24z"/>
<path style="fill:#C7CAC7;" d="M50,38L50,38l-3.6,0v0c-0.283,1.13-0.965,2.089-1.82,2.88c-0.437,0.405-0.675,1.022-0.544,1.683
	C44.206,43.417,45.008,44,45.879,44h4.642c0.871,0,1.673-0.583,1.843-1.437c0.131-0.661-0.106-1.278-0.544-1.683
	C50.965,40.089,50.283,39.13,50,38z"/>
<rect x="4" y="18" style="fill:#DD352E;" width="3" height="9"/>
<rect x="7" y="18" style="fill:#EB7937;" width="3" height="9"/>
<rect x="10" y="18" style="fill:#EFCE4A;" width="3" height="9"/>
<g>
</g>
<g>
</g>
<g>
</g>
<g>
</g>
<g>
</g>
<g>
</g>
<g>
</g>
<g>
</g>
<g>
</g>
<g>
</g>
<g>
</g>
<g>
</g>
<g>
</g>
<g>
</g>
<g>
</g>
</svg>
