<?xml version="1.0" encoding="iso-8859-1"?>
<!-- Generator: Adobe Illustrator 18.0.0, SVG Export Plug-In . SVG Version: 6.00 Build 0)  -->
<!DOCTYPE svg PUBLIC "-//W3C//DTD SVG 1.1//EN" "http://www.w3.org/Graphics/SVG/1.1/DTD/svg11.dtd">
<svg version="1.1" id="Capa_1" xmlns="http://www.w3.org/2000/svg" xmlns:xlink="http://www.w3.org/1999/xlink" x="0px" y="0px"
	 viewBox="0 0 59 59" style="enable-background:new 0 0 59 59;" xml:space="preserve">
<line style="fill:none;stroke:#6B5B4B;stroke-width:2;stroke-linecap:round;stroke-miterlimit:10;" x1="15.5" y1="30" x2="15.5" y2="11"/>
<line style="fill:none;stroke:#6B5B4B;stroke-width:2;stroke-linecap:round;stroke-miterlimit:10;" x1="19.5" y1="30" x2="19.5" y2="11"/>
<line style="fill:none;stroke:#6B5B4B;stroke-width:2;stroke-linecap:round;stroke-miterlimit:10;" x1="23.5" y1="30" x2="23.5" y2="11"/>
<line style="fill:none;stroke:#6B5B4B;stroke-width:2;stroke-linecap:round;stroke-miterlimit:10;" x1="27.5" y1="30" x2="27.5" y2="11"/>
<line style="fill:none;stroke:#6B5B4B;stroke-width:2;stroke-linecap:round;stroke-miterlimit:10;" x1="31.5" y1="30" x2="31.5" y2="11"/>
<line style="fill:none;stroke:#6B5B4B;stroke-width:2;stroke-linecap:round;stroke-miterlimit:10;" x1="35.5" y1="30" x2="35.5" y2="11"/>
<line style="fill:none;stroke:#6B5B4B;stroke-width:2;stroke-linecap:round;stroke-miterlimit:10;" x1="39.5" y1="30" x2="39.5" y2="11"/>
<line style="fill:none;stroke:#6B5B4B;stroke-width:2;stroke-linecap:round;stroke-miterlimit:10;" x1="43.5" y1="30" x2="43.5" y2="11"/>
<line style="fill:none;stroke:#BE6E41;stroke-width:2;stroke-linecap:round;stroke-miterlimit:10;" x1="14.5" y1="34" x2="14.5" y2="58"/>
<line style="fill:none;stroke:#BE6E41;stroke-width:2;stroke-linecap:round;stroke-miterlimit:10;" x1="44.5" y1="34" x2="44.5" y2="58"/>
<line style="fill:none;stroke:#A55D38;stroke-width:2;stroke-linecap:round;stroke-miterlimit:10;" x1="18.5" y1="34" x2="18.5" y2="56"/>
<line style="fill:none;stroke:#A55D38;stroke-width:2;stroke-linecap:round;stroke-miterlimit:10;" x1="40.5" y1="34" x2="40.5" y2="56"/>
<line style="fill:none;stroke:#BE6E41;stroke-width:2;stroke-linecap:round;stroke-miterlimit:10;" x1="14.5" y1="40" x2="44.5" y2="40"/>
<rect x="11.5" y="30" style="fill:#BFA380;" width="36" height="4"/>
<path style="fill:#BFA380;" d="M13.5,0v11h32V0H13.5z M35.5,7h-12V4h12V7z"/>
<g>
</g>
<g>
</g>
<g>
</g>
<g>
</g>
<g>
</g>
<g>
</g>
<g>
</g>
<g>
</g>
<g>
</g>
<g>
</g>
<g>
</g>
<g>
</g>
<g>
</g>
<g>
</g>
<g>
</g>
</svg>
