<?xml version="1.0" encoding="iso-8859-1"?>
<!-- Generator: Adobe Illustrator 18.0.0, SVG Export Plug-In . SVG Version: 6.00 Build 0)  -->
<!DOCTYPE svg PUBLIC "-//W3C//DTD SVG 1.1//EN" "http://www.w3.org/Graphics/SVG/1.1/DTD/svg11.dtd">
<svg version="1.1" id="Capa_1" xmlns="http://www.w3.org/2000/svg" xmlns:xlink="http://www.w3.org/1999/xlink" x="0px" y="0px"
	 viewBox="0 0 59 59" style="enable-background:new 0 0 59 59;" xml:space="preserve">
<line style="fill:none;stroke:#C7CAC7;stroke-width:2;stroke-linecap:round;stroke-miterlimit:10;" x1="14.5" y1="36" x2="14.5" y2="58"/>
<line style="fill:none;stroke:#C7CAC7;stroke-width:2;stroke-linecap:round;stroke-miterlimit:10;" x1="44.5" y1="36" x2="44.5" y2="58"/>
<line style="fill:none;stroke:#949493;stroke-width:2;stroke-linecap:round;stroke-miterlimit:10;" x1="18.5" y1="36" x2="18.5" y2="56"/>
<line style="fill:none;stroke:#949493;stroke-width:2;stroke-linecap:round;stroke-miterlimit:10;" x1="40.5" y1="36" x2="40.5" y2="56"/>
<line style="fill:none;stroke:#C7CAC7;stroke-width:2;stroke-linecap:round;stroke-miterlimit:10;" x1="14.5" y1="40" x2="44.5" y2="40"/>
<line style="fill:none;stroke:#AFB6BB;stroke-width:2;stroke-linecap:round;stroke-miterlimit:10;" x1="16.5" y1="28" x2="16.5" y2="14"/>
<line style="fill:none;stroke:#AFB6BB;stroke-width:2;stroke-linecap:round;stroke-miterlimit:10;" x1="42.5" y1="28" x2="42.5" y2="14"/>
<path style="fill:#7383BF;" d="M47.5,32c0-3.59-6.954-7-18-7s-18,3.41-18,7h0.051c-0.024,0.165-0.051,0.329-0.051,0.5
	c0,1.925,1.575,3.5,3.5,3.5h29c1.925,0,3.5-1.575,3.5-3.5c0-0.171-0.027-0.335-0.051-0.5H47.5z"/>
<path style="fill:#556080;" d="M36,19H23c-5.247,0-9.5-4.253-9.5-9.5v0C13.5,4.253,17.753,0,23,0h13c5.247,0,9.5,4.253,9.5,9.5v0
	C45.5,14.747,41.247,19,36,19z"/>
<g>
	<path style="fill:#97A7DD;" d="M41.5,31h-14c-0.552,0-1,0.447-1,1s0.448,1,1,1h14c0.552,0,1-0.447,1-1S42.052,31,41.5,31z"/>
	<path style="fill:#97A7DD;" d="M21.5,31h-4c-0.552,0-1,0.447-1,1s0.448,1,1,1h4c0.552,0,1-0.447,1-1S22.053,31,21.5,31z"/>
</g>
<g>
</g>
<g>
</g>
<g>
</g>
<g>
</g>
<g>
</g>
<g>
</g>
<g>
</g>
<g>
</g>
<g>
</g>
<g>
</g>
<g>
</g>
<g>
</g>
<g>
</g>
<g>
</g>
<g>
</g>
</svg>
