<?xml version="1.0" encoding="iso-8859-1"?>
<!-- Generator: Adobe Illustrator 18.0.0, SVG Export Plug-In . SVG Version: 6.00 Build 0)  -->
<!DOCTYPE svg PUBLIC "-//W3C//DTD SVG 1.1//EN" "http://www.w3.org/Graphics/SVG/1.1/DTD/svg11.dtd">
<svg version="1.1" id="Capa_1" xmlns="http://www.w3.org/2000/svg" xmlns:xlink="http://www.w3.org/1999/xlink" x="0px" y="0px"
	 viewBox="0 0 59 59" style="enable-background:new 0 0 59 59;" xml:space="preserve">
<line style="fill:none;stroke:#949493;stroke-width:2;stroke-linecap:round;stroke-miterlimit:10;" x1="16.5" y1="30" x2="16.5" y2="19"/>
<line style="fill:none;stroke:#949493;stroke-width:2;stroke-linecap:round;stroke-miterlimit:10;" x1="42.5" y1="30" x2="42.5" y2="19"/>
<line style="fill:none;stroke:#6B4842;stroke-width:2;stroke-linecap:round;stroke-miterlimit:10;" x1="14.5" y1="34" x2="14.5" y2="58"/>
<line style="fill:none;stroke:#6B4842;stroke-width:2;stroke-linecap:round;stroke-miterlimit:10;" x1="44.5" y1="34" x2="44.5" y2="58"/>
<line style="fill:none;stroke:#6C4127;stroke-width:2;stroke-linecap:round;stroke-miterlimit:10;" x1="18.5" y1="34" x2="18.5" y2="56"/>
<line style="fill:none;stroke:#6C4127;stroke-width:2;stroke-linecap:round;stroke-miterlimit:10;" x1="40.5" y1="34" x2="40.5" y2="56"/>
<line style="fill:none;stroke:#6B4842;stroke-width:2;stroke-linecap:round;stroke-miterlimit:10;" x1="14.5" y1="40" x2="44.5" y2="40"/>
<rect x="11.5" y="30" style="fill:#AFB6BB;" width="36" height="4"/>
<path style="fill:#E7ECED;" d="M42.397,0H16.603C14.889,0,13.5,1.389,13.5,3.103v15.794c0,1.714,1.389,3.103,3.103,3.103h25.794
	c1.714,0,3.103-1.389,3.103-3.103V3.103C45.5,1.389,44.111,0,42.397,0z M34.5,9h-10c-1.105,0-2-0.895-2-2c0-1.105,0.895-2,2-2h10
	c1.105,0,2,0.895,2,2C36.5,8.105,35.605,9,34.5,9z"/>
<g>
</g>
<g>
</g>
<g>
</g>
<g>
</g>
<g>
</g>
<g>
</g>
<g>
</g>
<g>
</g>
<g>
</g>
<g>
</g>
<g>
</g>
<g>
</g>
<g>
</g>
<g>
</g>
<g>
</g>
</svg>
