<?xml version="1.0" encoding="iso-8859-1"?>
<!-- Generator: Adobe Illustrator 18.0.0, SVG Export Plug-In . SVG Version: 6.00 Build 0)  -->
<!DOCTYPE svg PUBLIC "-//W3C//DTD SVG 1.1//EN" "http://www.w3.org/Graphics/SVG/1.1/DTD/svg11.dtd">
<svg version="1.1" id="Capa_1" xmlns="http://www.w3.org/2000/svg" xmlns:xlink="http://www.w3.org/1999/xlink" x="0px" y="0px"
	 viewBox="0 0 58 58" style="enable-background:new 0 0 58 58;" xml:space="preserve">
<line style="fill:none;stroke:#9E6C53;stroke-width:2;stroke-linecap:round;stroke-miterlimit:10;" x1="19.853" y1="33.708" x2="39.418" y2="45.023"/>
<line style="fill:none;stroke:#9E6C53;stroke-width:2;stroke-linecap:round;stroke-miterlimit:10;" x1="38.147" y1="33.708" x2="18.582" y2="45.023"/>
<path style="fill:#F7E6A1;" d="M53.342,12c-4.3,0-8.291-2.063-10.937-5.452C39.295,2.563,34.447,0,29,0S18.705,2.563,15.595,6.548
	C12.949,9.937,8.957,12,4.658,12h0C3.742,12,3,12.742,3,13.658V14c0,0.549,0.442,1.009,0.991,1C4.547,14.991,5,15.444,5,16v0
	c0,9.941,8.059,18,18,18h12c9.941,0,18-8.059,18-18v0c0-0.548,0.44-1.007,0.988-1C54.546,15.007,55,14.556,55,14v-0.342
	C55,12.742,54.258,12,53.342,12L53.342,12z"/>
<path style="fill:#F7B563;" d="M41.873,32.634c-1.183,0.489-2.432,0.845-3.726,1.073l2.614,23.267
	C40.945,57.583,41.507,58,42.143,58h0.981c0.969,0,1.664-0.936,1.382-1.863L41.873,32.634z"/>
<path style="fill:#F7B563;" d="M16.127,32.634l-2.634,23.502C13.212,57.064,13.906,58,14.876,58h0.981
	c0.636,0,1.198-0.417,1.382-1.026l2.614-23.267C18.559,33.479,17.31,33.124,16.127,32.634z"/>
<path style="fill:#E2D28F;" d="M43.139,11.475c0.204,4.913-1.397,20.177-29.903,15.888C15.863,29.624,19.271,31,23,31h12
	c8.271,0,15-6.729,15-15c0-0.454,0.075-0.891,0.215-1.298C47.643,14.208,45.231,13.098,43.139,11.475z"/>
<path style="fill:#FCF0BE;" d="M17.379,11.416l0.731-0.157c7.837-1.679,15.942-1.679,23.779,0l0.731,0.157
	C43.425,11.589,44,12.3,44,13.122v1.431c0,1.111-1.024,1.939-2.11,1.706l0,0c-7.837-1.679-15.942-1.679-23.779,0l0,0
	C17.024,16.492,16,15.664,16,14.554v-1.431C16,12.3,16.575,11.589,17.379,11.416z"/>
<g>
</g>
<g>
</g>
<g>
</g>
<g>
</g>
<g>
</g>
<g>
</g>
<g>
</g>
<g>
</g>
<g>
</g>
<g>
</g>
<g>
</g>
<g>
</g>
<g>
</g>
<g>
</g>
<g>
</g>
</svg>
