<?xml version="1.0" encoding="iso-8859-1"?>
<!-- Generator: Adobe Illustrator 18.0.0, SVG Export Plug-In . SVG Version: 6.00 Build 0)  -->
<!DOCTYPE svg PUBLIC "-//W3C//DTD SVG 1.1//EN" "http://www.w3.org/Graphics/SVG/1.1/DTD/svg11.dtd">
<svg version="1.1" id="Capa_1" xmlns="http://www.w3.org/2000/svg" xmlns:xlink="http://www.w3.org/1999/xlink" x="0px" y="0px"
	 viewBox="0 0 59 59" style="enable-background:new 0 0 59 59;" xml:space="preserve">
<line style="fill:none;stroke:#BE6E41;stroke-width:2;stroke-linecap:round;stroke-miterlimit:10;" x1="14.5" y1="31.542" x2="14.5" y2="58"/>
<line style="fill:none;stroke:#BE6E41;stroke-width:2;stroke-linecap:round;stroke-miterlimit:10;" x1="44.5" y1="31.542" x2="44.5" y2="58"/>
<line style="fill:none;stroke:#6C4127;stroke-width:2;stroke-linecap:round;stroke-miterlimit:10;" x1="18.5" y1="33.296" x2="18.5" y2="56"/>
<line style="fill:none;stroke:#6C4127;stroke-width:2;stroke-linecap:round;stroke-miterlimit:10;" x1="40.5" y1="33.296" x2="40.5" y2="56"/>
<line style="fill:none;stroke:#BE6E41;stroke-width:2;stroke-linecap:round;stroke-miterlimit:10;" x1="14.5" y1="40" x2="44.5" y2="40"/>
<path style="fill:#EBEBEB;" d="M53.842,12c-4.3,0-8.291-2.063-10.937-5.452C39.795,2.563,34.947,0,29.5,0S19.205,2.563,16.095,6.548
	C13.449,9.937,9.457,12,5.158,12h0C4.242,12,3.5,12.742,3.5,13.658V14c0,0.549,0.442,1.009,0.991,1C5.047,14.991,5.5,15.444,5.5,16
	v0c0,9.941,8.059,18,18,18h12c9.941,0,18-8.059,18-18v0c0-0.548,0.44-1.007,0.988-1c0.558,0.007,1.012-0.444,1.012-1v-0.342
	C55.5,12.742,54.758,12,53.842,12L53.842,12z"/>
<path style="fill:#C7CAC7;" d="M43.424,12.475c0.204,4.913-1.397,20.177-29.903,15.888C16.148,30.624,19.556,32,23.285,32h12
	c8.271,0,15-6.729,15-15c0-0.454,0.075-0.891,0.215-1.298C47.928,15.208,45.516,14.098,43.424,12.475z"/>
<g>
</g>
<g>
</g>
<g>
</g>
<g>
</g>
<g>
</g>
<g>
</g>
<g>
</g>
<g>
</g>
<g>
</g>
<g>
</g>
<g>
</g>
<g>
</g>
<g>
</g>
<g>
</g>
<g>
</g>
</svg>
