<?xml version="1.0" encoding="iso-8859-1"?>
<!-- Generator: Adobe Illustrator 18.0.0, SVG Export Plug-In . SVG Version: 6.00 Build 0)  -->
<!DOCTYPE svg PUBLIC "-//W3C//DTD SVG 1.1//EN" "http://www.w3.org/Graphics/SVG/1.1/DTD/svg11.dtd">
<svg version="1.1" id="Capa_1" xmlns="http://www.w3.org/2000/svg" xmlns:xlink="http://www.w3.org/1999/xlink" x="0px" y="0px"
	 viewBox="0 0 59 59" style="enable-background:new 0 0 59 59;" xml:space="preserve">
<path style="fill:#E52E26;" d="M53.842,12c-4.3,0-8.291-2.063-10.937-5.452C39.795,2.563,34.947,0,29.5,0S19.205,2.563,16.095,6.548
	C13.449,9.937,9.457,12,5.158,12h0C4.242,12,3.5,12.742,3.5,13.658V14c0,0.549,0.442,1.009,0.991,1C5.047,14.991,5.5,15.444,5.5,16
	v0c0,9.941,8.059,18,18,18h12c9.941,0,18-8.059,18-18v0c0-0.548,0.44-1.007,0.988-1c0.558,0.007,1.012-0.444,1.012-1v-0.342
	C55.5,12.742,54.758,12,53.842,12L53.842,12z"/>
<path style="fill:#F73737;" d="M16.879,11.416l0.731-0.157c7.837-1.679,15.942-1.679,23.779,0l0.731,0.157
	c0.804,0.172,1.379,0.883,1.379,1.706v1.431c0,1.111-1.024,1.939-2.11,1.706l0,0c-7.837-1.679-15.942-1.679-23.779,0l0,0
	c-1.086,0.233-2.11-0.595-2.11-1.706v-1.431C15.5,12.3,16.075,11.589,16.879,11.416z"/>
<rect x="26.5" y="34" style="fill:#C7CAC7;" width="6" height="11"/>
<rect x="27.5" y="45" style="fill:#839594;" width="4" height="4"/>
<path style="fill:#C7CAC7;" d="M42.5,58h-26v0c4.971,0,9-4.029,9-9h8C33.5,53.971,37.529,58,42.5,58L42.5,58z"/>
<polyline style="fill:none;stroke:#AFB6BB;stroke-width:2;stroke-linecap:round;stroke-miterlimit:10;" points="46.5,58 41.5,58 
	17.5,58 12.5,58 "/>
<path style="fill:#CF2C25;" d="M44.424,11.475c0.204,4.913-1.397,20.177-29.903,15.888C17.148,29.624,20.556,31,24.285,31h12
	c8.271,0,15-6.729,15-15c0-0.454,0.075-0.891,0.215-1.298C48.928,14.208,46.516,13.098,44.424,11.475z"/>
<path style="fill:#E7ECED;" d="M32.726,57c-0.538-0.929-0.956-1.937-1.23-3v-5h-2v5h0.01c-0.274,1.063-0.692,2.071-1.23,3H32.726z"
	/>
<rect x="29.5" y="33.964" style="fill:#E7ECED;" width="2" height="11.036"/>
<g>
</g>
<g>
</g>
<g>
</g>
<g>
</g>
<g>
</g>
<g>
</g>
<g>
</g>
<g>
</g>
<g>
</g>
<g>
</g>
<g>
</g>
<g>
</g>
<g>
</g>
<g>
</g>
<g>
</g>
</svg>
