<?xml version="1.0" encoding="iso-8859-1"?>
<!-- Generator: Adobe Illustrator 18.0.0, SVG Export Plug-In . SVG Version: 6.00 Build 0)  -->
<!DOCTYPE svg PUBLIC "-//W3C//DTD SVG 1.1//EN" "http://www.w3.org/Graphics/SVG/1.1/DTD/svg11.dtd">
<svg version="1.1" id="Capa_1" xmlns="http://www.w3.org/2000/svg" xmlns:xlink="http://www.w3.org/1999/xlink" x="0px" y="0px"
	 viewBox="0 0 58 58" style="enable-background:new 0 0 58 58;" xml:space="preserve">
<polygon style="fill:#332C25;" points="0,0 0,58 3,58 3,56 55,56 55,58 58,58 58,0 "/>
<rect x="3" y="3" style="fill:#6B5B4B;stroke:#BFA380;stroke-width:2;stroke-linecap:round;stroke-miterlimit:10;" width="24" height="10"/>
<rect x="31" y="13" style="fill:#6B5B4B;stroke:#BFA380;stroke-width:2;stroke-linecap:round;stroke-miterlimit:10;" width="24" height="10"/>
<rect x="3" y="23" style="fill:#6B5B4B;stroke:#BFA380;stroke-width:2;stroke-linecap:round;stroke-miterlimit:10;" width="24" height="10"/>
<rect x="31" y="33" style="fill:#6B5B4B;stroke:#BFA380;stroke-width:2;stroke-linecap:round;stroke-miterlimit:10;" width="24" height="10"/>
<rect x="3" y="43" style="fill:#6B5B4B;stroke:#BFA380;stroke-width:2;stroke-linecap:round;stroke-miterlimit:10;" width="24" height="10"/>
<rect x="31" y="3" style="fill:#6B5B4B;stroke:#BFA380;stroke-width:2;stroke-linecap:round;stroke-miterlimit:10;" width="24" height="10"/>
<rect x="3" y="13" style="fill:#6B5B4B;stroke:#BFA380;stroke-width:2;stroke-linecap:round;stroke-miterlimit:10;" width="24" height="10"/>
<rect x="31" y="23" style="fill:#6B5B4B;stroke:#BFA380;stroke-width:2;stroke-linecap:round;stroke-miterlimit:10;" width="24" height="10"/>
<rect x="3" y="33" style="fill:#6B5B4B;stroke:#BFA380;stroke-width:2;stroke-linecap:round;stroke-miterlimit:10;" width="24" height="10"/>
<rect x="31" y="43" style="fill:#6B5B4B;stroke:#BFA380;stroke-width:2;stroke-linecap:round;stroke-miterlimit:10;" width="24" height="10"/>
<g>
	<path style="fill:#332C25;" d="M17,27h-4c-0.552,0-1,0.447-1,1s0.448,1,1,1h4c0.552,0,1-0.447,1-1S17.552,27,17,27z"/>
	<path style="fill:#332C25;" d="M17,17h-4c-0.552,0-1,0.447-1,1s0.448,1,1,1h4c0.552,0,1-0.447,1-1S17.552,17,17,17z"/>
	<path style="fill:#332C25;" d="M17,7h-4c-0.552,0-1,0.447-1,1s0.448,1,1,1h4c0.552,0,1-0.447,1-1S17.552,7,17,7z"/>
	<path style="fill:#332C25;" d="M17,37h-4c-0.552,0-1,0.447-1,1s0.448,1,1,1h4c0.552,0,1-0.447,1-1S17.552,37,17,37z"/>
	<path style="fill:#332C25;" d="M17,47h-4c-0.552,0-1,0.447-1,1s0.448,1,1,1h4c0.552,0,1-0.447,1-1S17.552,47,17,47z"/>
	<path style="fill:#332C25;" d="M45,27h-4c-0.552,0-1,0.447-1,1s0.448,1,1,1h4c0.552,0,1-0.447,1-1S45.552,27,45,27z"/>
	<path style="fill:#332C25;" d="M45,17h-4c-0.552,0-1,0.447-1,1s0.448,1,1,1h4c0.552,0,1-0.447,1-1S45.552,17,45,17z"/>
	<path style="fill:#332C25;" d="M41,9h4c0.552,0,1-0.447,1-1s-0.448-1-1-1h-4c-0.552,0-1,0.447-1,1S40.448,9,41,9z"/>
	<path style="fill:#332C25;" d="M45,37h-4c-0.552,0-1,0.447-1,1s0.448,1,1,1h4c0.552,0,1-0.447,1-1S45.552,37,45,37z"/>
	<path style="fill:#332C25;" d="M45,47h-4c-0.552,0-1,0.447-1,1s0.448,1,1,1h4c0.552,0,1-0.447,1-1S45.552,47,45,47z"/>
</g>
<g>
</g>
<g>
</g>
<g>
</g>
<g>
</g>
<g>
</g>
<g>
</g>
<g>
</g>
<g>
</g>
<g>
</g>
<g>
</g>
<g>
</g>
<g>
</g>
<g>
</g>
<g>
</g>
<g>
</g>
</svg>
