<?xml version="1.0" encoding="iso-8859-1"?>
<!-- Generator: Adobe Illustrator 18.0.0, SVG Export Plug-In . SVG Version: 6.00 Build 0)  -->
<!DOCTYPE svg PUBLIC "-//W3C//DTD SVG 1.1//EN" "http://www.w3.org/Graphics/SVG/1.1/DTD/svg11.dtd">
<svg version="1.1" id="Capa_1" xmlns="http://www.w3.org/2000/svg" xmlns:xlink="http://www.w3.org/1999/xlink" x="0px" y="0px"
	 viewBox="0 0 58 58" style="enable-background:new 0 0 58 58;" xml:space="preserve">
<polygon style="fill:#2D2620;" points="0,0 0,58 3,58 3,56 55,56 55,58 58,58 58,0 "/>
<rect x="31" y="3" style="fill:#6B5B4B;stroke:#443930;stroke-width:2;stroke-linecap:round;stroke-miterlimit:10;" width="24" height="10"/>
<rect x="31" y="13" style="fill:#6B5B4B;stroke:#443930;stroke-width:2;stroke-linecap:round;stroke-miterlimit:10;" width="24" height="10"/>
<rect x="31" y="23" style="fill:#6B5B4B;stroke:#443930;stroke-width:2;stroke-linecap:round;stroke-miterlimit:10;" width="24" height="10"/>
<rect x="31" y="33" style="fill:#6B5B4B;stroke:#443930;stroke-width:2;stroke-linecap:round;stroke-miterlimit:10;" width="24" height="10"/>
<rect x="31" y="43" style="fill:#6B5B4B;stroke:#443930;stroke-width:2;stroke-linecap:round;stroke-miterlimit:10;" width="24" height="10"/>
<path style="fill:#D7B740;" d="M45,29h-4c-0.553,0-1-0.447-1-1s0.447-1,1-1h4c0.553,0,1,0.447,1,1S45.553,29,45,29z"/>
<path style="fill:#D7B740;" d="M45,19h-4c-0.553,0-1-0.447-1-1s0.447-1,1-1h4c0.553,0,1,0.447,1,1S45.553,19,45,19z"/>
<path style="fill:#D7B740;" d="M45,9h-4c-0.553,0-1-0.447-1-1s0.447-1,1-1h4c0.553,0,1,0.447,1,1S45.553,9,45,9z"/>
<path style="fill:#D7B740;" d="M45,39h-4c-0.553,0-1-0.447-1-1s0.447-1,1-1h4c0.553,0,1,0.447,1,1S45.553,39,45,39z"/>
<path style="fill:#D7B740;" d="M45,49h-4c-0.553,0-1-0.447-1-1s0.447-1,1-1h4c0.553,0,1,0.447,1,1S45.553,49,45,49z"/>
<g>
	<rect x="3" y="3" style="fill:#6B5B4B;" width="24" height="17"/>
	<path style="fill:#443930;" d="M28,21H2V2h26V21z M4,19h22V4H4V19z"/>
</g>
<g>
	<rect x="3" y="20" style="fill:#6B5B4B;" width="24" height="16"/>
	<path style="fill:#443930;" d="M28,37H2V19h26V37z M4,35h22V21H4V35z"/>
</g>
<g>
	<rect x="3" y="36" style="fill:#6B5B4B;" width="24" height="17"/>
	<path style="fill:#443930;" d="M28,54H2V35h26V54z M4,52h22V37H4V52z"/>
</g>
<g>
</g>
<g>
</g>
<g>
</g>
<g>
</g>
<g>
</g>
<g>
</g>
<g>
</g>
<g>
</g>
<g>
</g>
<g>
</g>
<g>
</g>
<g>
</g>
<g>
</g>
<g>
</g>
<g>
</g>
</svg>
