<?xml version="1.0" encoding="iso-8859-1"?>
<!-- Generator: Adobe Illustrator 18.0.0, SVG Export Plug-In . SVG Version: 6.00 Build 0)  -->
<!DOCTYPE svg PUBLIC "-//W3C//DTD SVG 1.1//EN" "http://www.w3.org/Graphics/SVG/1.1/DTD/svg11.dtd">
<svg version="1.1" id="Capa_1" xmlns="http://www.w3.org/2000/svg" xmlns:xlink="http://www.w3.org/1999/xlink" x="0px" y="0px"
	 viewBox="0 0 60 60" style="enable-background:new 0 0 60 60;" xml:space="preserve">
<rect x="6" y="56" style="fill:#382016;" width="4" height="3"/>
<rect x="50" y="56" style="fill:#382016;" width="4" height="3"/>
<rect x="3" y="38" style="fill:#845C46;stroke:#553323;stroke-width:2;stroke-miterlimit:10;" width="54" height="18"/>
<rect x="3" y="20" style="fill:#845C46;stroke:#553323;stroke-width:2;stroke-miterlimit:10;" width="54" height="18"/>
<rect x="3" y="2" style="fill:#845C46;stroke:#553323;stroke-width:2;stroke-miterlimit:10;" width="54" height="18"/>
<rect x="7" y="6" style="fill:#D7B740;" width="46" height="10"/>
<circle style="fill:#F7E6A1;" cx="30" cy="11" r="3"/>
<rect x="7" y="24" style="fill:#D7B740;" width="46" height="10"/>
<circle style="fill:#F7E6A1;" cx="30" cy="29" r="3"/>
<rect x="7" y="42" style="fill:#D7B740;" width="46" height="10"/>
<circle style="fill:#F7E6A1;" cx="30" cy="47" r="3"/>
<path style="fill:#553323;" d="M59,3H1C0.447,3,0,2.553,0,2s0.447-1,1-1h58c0.553,0,1,0.447,1,1S59.553,3,59,3z"/>
<g>
</g>
<g>
</g>
<g>
</g>
<g>
</g>
<g>
</g>
<g>
</g>
<g>
</g>
<g>
</g>
<g>
</g>
<g>
</g>
<g>
</g>
<g>
</g>
<g>
</g>
<g>
</g>
<g>
</g>
</svg>
