<?xml version="1.0" encoding="iso-8859-1"?>
<!-- Generator: Adobe Illustrator 18.0.0, SVG Export Plug-In . SVG Version: 6.00 Build 0)  -->
<!DOCTYPE svg PUBLIC "-//W3C//DTD SVG 1.1//EN" "http://www.w3.org/Graphics/SVG/1.1/DTD/svg11.dtd">
<svg version="1.1" id="Capa_1" xmlns="http://www.w3.org/2000/svg" xmlns:xlink="http://www.w3.org/1999/xlink" x="0px" y="0px"
	 viewBox="0 0 57 57" style="enable-background:new 0 0 57 57;" xml:space="preserve">
<polygon style="fill:#BFA380;" points="50,15 32,15 35,1 47,1 "/>
<g>
	<path style="fill:#E8CCAA;" d="M38.124,3.008c-0.544-0.068-1.048,0.319-1.116,0.868l-1,8c-0.068,0.548,0.32,1.048,0.868,1.116
		C36.918,12.997,36.96,13,37.001,13c0.497,0,0.928-0.37,0.991-0.876l1-8C39.061,3.576,38.672,3.076,38.124,3.008z"/>
	<path style="fill:#E8CCAA;" d="M41,3c-0.552,0-1,0.447-1,1v8c0,0.553,0.448,1,1,1s1-0.447,1-1V4C42,3.447,41.552,3,41,3z"/>
	<path style="fill:#E8CCAA;" d="M44.992,3.876c-0.068-0.549-0.576-0.937-1.116-0.868c-0.548,0.068-0.937,0.568-0.868,1.116l1,8
		C44.071,12.63,44.502,13,44.999,13c0.042,0,0.083-0.003,0.125-0.008c0.548-0.068,0.937-0.568,0.868-1.116L44.992,3.876z"/>
</g>
<path style="fill:#EBBA16;" d="M44.344,18h-0.251C44.042,18,44,17.958,44,17.906V15h-6v2.906C38,17.958,37.958,18,37.906,18h-0.251
	c-1.179,0-2.304,0.74-2.582,1.886C34.678,21.523,35.925,23,37.5,23h7c1.575,0,2.822-1.477,2.426-3.114
	C46.648,18.74,45.523,18,44.344,18z"/>
<rect x="1" y="43" style="fill:#553323;stroke:#382016;stroke-width:2;stroke-miterlimit:10;" width="55" height="10"/>
<rect x="1" y="33" style="fill:#553323;stroke:#382016;stroke-width:2;stroke-miterlimit:10;" width="55" height="10"/>
<rect x="1" y="23" style="fill:#553323;stroke:#382016;stroke-width:2;stroke-miterlimit:10;" width="55" height="10"/>
<rect x="4" y="53" style="fill:#382016;" width="7" height="3"/>
<rect x="46" y="53" style="fill:#382016;" width="7" height="3"/>
<g>
	<path style="fill:#AB8024;" d="M14,47H6c-0.552,0-1,0.447-1,1s0.448,1,1,1h8c0.552,0,1-0.447,1-1S14.552,47,14,47z"/>
	<path style="fill:#AB8024;" d="M51,47h-8c-0.552,0-1,0.447-1,1s0.448,1,1,1h8c0.552,0,1-0.447,1-1S51.552,47,51,47z"/>
	<path style="fill:#AB8024;" d="M14,37H6c-0.552,0-1,0.447-1,1s0.448,1,1,1h8c0.552,0,1-0.447,1-1S14.552,37,14,37z"/>
	<path style="fill:#AB8024;" d="M51,37h-8c-0.552,0-1,0.447-1,1s0.448,1,1,1h8c0.552,0,1-0.447,1-1S51.552,37,51,37z"/>
	<path style="fill:#AB8024;" d="M14,27H6c-0.552,0-1,0.447-1,1s0.448,1,1,1h8c0.552,0,1-0.447,1-1S14.552,27,14,27z"/>
	<path style="fill:#AB8024;" d="M43,29h8c0.552,0,1-0.447,1-1s-0.448-1-1-1h-8c-0.552,0-1,0.447-1,1S42.448,29,43,29z"/>
</g>
<g>
</g>
<g>
</g>
<g>
</g>
<g>
</g>
<g>
</g>
<g>
</g>
<g>
</g>
<g>
</g>
<g>
</g>
<g>
</g>
<g>
</g>
<g>
</g>
<g>
</g>
<g>
</g>
<g>
</g>
</svg>
