<?xml version="1.0" encoding="iso-8859-1"?>
<!-- Generator: Adobe Illustrator 18.0.0, SVG Export Plug-In . SVG Version: 6.00 Build 0)  -->
<!DOCTYPE svg PUBLIC "-//W3C//DTD SVG 1.1//EN" "http://www.w3.org/Graphics/SVG/1.1/DTD/svg11.dtd">
<svg version="1.1" id="Capa_1" xmlns="http://www.w3.org/2000/svg" xmlns:xlink="http://www.w3.org/1999/xlink" x="0px" y="0px"
	 viewBox="0 0 58 58" style="enable-background:new 0 0 58 58;" xml:space="preserve">
<rect x="3" y="53.5" style="fill:#D1C17C;" width="4" height="3"/>
<rect x="51" y="53.5" style="fill:#D1C17C;" width="4" height="3"/>
<rect y="37.5" style="fill:#BFA380;" width="58" height="16"/>
<path style="fill:#6B5B4B;" d="M32,46.5h-6c-0.553,0-1-0.447-1-1s0.447-1,1-1h6c0.553,0,1,0.447,1,1S32.553,46.5,32,46.5z"/>
<rect y="21.5" style="fill:#D3B99B;" width="58" height="16"/>
<path style="fill:#6B5B4B;" d="M32,30.5h-6c-0.553,0-1-0.447-1-1s0.447-1,1-1h6c0.553,0,1,0.447,1,1S32.553,30.5,32,30.5z"/>
<rect y="5.5" style="fill:#BFA380;" width="58" height="16"/>
<path style="fill:#6B5B4B;" d="M32,14.5h-6c-0.553,0-1-0.447-1-1s0.447-1,1-1h6c0.553,0,1,0.447,1,1S32.553,14.5,32,14.5z"/>
<rect x="40" y="2.5" style="fill:#C7CAC7;" width="10" height="3"/>
<line style="fill:none;stroke:#949493;stroke-width:2;stroke-linecap:round;stroke-miterlimit:10;" x1="39" y1="2.5" x2="51" y2="2.5"/>
<g>
</g>
<g>
</g>
<g>
</g>
<g>
</g>
<g>
</g>
<g>
</g>
<g>
</g>
<g>
</g>
<g>
</g>
<g>
</g>
<g>
</g>
<g>
</g>
<g>
</g>
<g>
</g>
<g>
</g>
</svg>
