<?xml version="1.0" encoding="iso-8859-1"?>
<!-- Generator: Adobe Illustrator 18.0.0, SVG Export Plug-In . SVG Version: 6.00 Build 0)  -->
<!DOCTYPE svg PUBLIC "-//W3C//DTD SVG 1.1//EN" "http://www.w3.org/Graphics/SVG/1.1/DTD/svg11.dtd">
<svg version="1.1" id="Capa_1" xmlns="http://www.w3.org/2000/svg" xmlns:xlink="http://www.w3.org/1999/xlink" x="0px" y="0px"
	 viewBox="0 0 58 58" style="enable-background:new 0 0 58 58;" xml:space="preserve">
<polygon style="fill:#839594;" points="0,0 0,58 3,58 3,56 55,56 55,58 58,58 58,0 "/>
<rect x="15" y="3" style="fill:#F7F7F7;" width="28" height="10"/>
<rect x="43" y="3" style="fill:#C7CAC7;" width="12" height="10"/>
<rect x="3" y="3" style="fill:#C7CAC7;" width="12" height="10"/>
<g>
	<line style="fill:#839594;" x1="28" y1="8" x2="30" y2="8"/>
	<path style="fill:#839594;" d="M30,9h-2c-0.553,0-1-0.447-1-1s0.447-1,1-1h2c0.553,0,1,0.447,1,1S30.553,9,30,9z"/>
</g>
<g>
	<line style="fill:#839594;" x1="48" y1="8" x2="50" y2="8"/>
	<path style="fill:#839594;" d="M50,9h-2c-0.553,0-1-0.447-1-1s0.447-1,1-1h2c0.553,0,1,0.447,1,1S50.553,9,50,9z"/>
</g>
<rect x="15" y="13" style="fill:#C7CAC7;" width="28" height="10"/>
<rect x="43" y="13" style="fill:#F7F7F7;" width="12" height="10"/>
<rect x="3" y="13" style="fill:#F7F7F7;" width="12" height="10"/>
<g>
	<line style="fill:#839594;" x1="28" y1="18" x2="30" y2="18"/>
	<path style="fill:#839594;" d="M30,19h-2c-0.553,0-1-0.447-1-1s0.447-1,1-1h2c0.553,0,1,0.447,1,1S30.553,19,30,19z"/>
</g>
<g>
	<line style="fill:#839594;" x1="48" y1="18" x2="50" y2="18"/>
	<path style="fill:#839594;" d="M50,19h-2c-0.553,0-1-0.447-1-1s0.447-1,1-1h2c0.553,0,1,0.447,1,1S50.553,19,50,19z"/>
</g>
<rect x="15" y="23" style="fill:#F7F7F7;" width="28" height="10"/>
<rect x="43" y="23" style="fill:#C7CAC7;" width="12" height="10"/>
<rect x="3" y="23" style="fill:#C7CAC7;" width="12" height="10"/>
<g>
	<line style="fill:#839594;" x1="28" y1="28" x2="30" y2="28"/>
	<path style="fill:#839594;" d="M30,29h-2c-0.553,0-1-0.447-1-1s0.447-1,1-1h2c0.553,0,1,0.447,1,1S30.553,29,30,29z"/>
</g>
<g>
	<line style="fill:#839594;" x1="48" y1="28" x2="50" y2="28"/>
	<path style="fill:#839594;" d="M50,29h-2c-0.553,0-1-0.447-1-1s0.447-1,1-1h2c0.553,0,1,0.447,1,1S50.553,29,50,29z"/>
</g>
<rect x="15" y="33" style="fill:#C7CAC7;" width="28" height="10"/>
<rect x="43" y="33" style="fill:#F7F7F7;" width="12" height="10"/>
<rect x="3" y="33" style="fill:#F7F7F7;" width="12" height="10"/>
<g>
	<line style="fill:#839594;" x1="28" y1="38" x2="30" y2="38"/>
	<path style="fill:#839594;" d="M30,39h-2c-0.553,0-1-0.447-1-1s0.447-1,1-1h2c0.553,0,1,0.447,1,1S30.553,39,30,39z"/>
</g>
<g>
	<line style="fill:#839594;" x1="48" y1="38" x2="50" y2="38"/>
	<path style="fill:#839594;" d="M50,39h-2c-0.553,0-1-0.447-1-1s0.447-1,1-1h2c0.553,0,1,0.447,1,1S50.553,39,50,39z"/>
</g>
<rect x="15" y="43" style="fill:#F7F7F7;" width="28" height="10"/>
<rect x="43" y="43" style="fill:#C7CAC7;" width="12" height="10"/>
<rect x="3" y="43" style="fill:#C7CAC7;" width="12" height="10"/>
<g>
	<line style="fill:#839594;" x1="28" y1="48" x2="30" y2="48"/>
	<path style="fill:#839594;" d="M30,49h-2c-0.553,0-1-0.447-1-1s0.447-1,1-1h2c0.553,0,1,0.447,1,1S30.553,49,30,49z"/>
</g>
<g>
	<path style="fill:#839594;" d="M8,9h2c0.553,0,1-0.447,1-1s-0.447-1-1-1H8C7.447,7,7,7.447,7,8S7.447,9,8,9z"/>
	<path style="fill:#839594;" d="M10,17H8c-0.553,0-1,0.447-1,1s0.447,1,1,1h2c0.553,0,1-0.447,1-1S10.553,17,10,17z"/>
	<path style="fill:#839594;" d="M10,27H8c-0.553,0-1,0.447-1,1s0.447,1,1,1h2c0.553,0,1-0.447,1-1S10.553,27,10,27z"/>
	<path style="fill:#839594;" d="M10,37H8c-0.553,0-1,0.447-1,1s0.447,1,1,1h2c0.553,0,1-0.447,1-1S10.553,37,10,37z"/>
	<path style="fill:#839594;" d="M10,47H8c-0.553,0-1,0.447-1,1s0.447,1,1,1h2c0.553,0,1-0.447,1-1S10.553,47,10,47z"/>
</g>
<g>
	<line style="fill:#839594;" x1="48" y1="48" x2="50" y2="48"/>
	<path style="fill:#839594;" d="M50,49h-2c-0.553,0-1-0.447-1-1s0.447-1,1-1h2c0.553,0,1,0.447,1,1S50.553,49,50,49z"/>
</g>
<rect x="15" y="3" style="fill:#839594;" width="3" height="50"/>
<rect x="40" y="3" style="fill:#839594;" width="3" height="50"/>
<g>
</g>
<g>
</g>
<g>
</g>
<g>
</g>
<g>
</g>
<g>
</g>
<g>
</g>
<g>
</g>
<g>
</g>
<g>
</g>
<g>
</g>
<g>
</g>
<g>
</g>
<g>
</g>
<g>
</g>
</svg>
