<?xml version="1.0" encoding="iso-8859-1"?>
<!-- Generator: Adobe Illustrator 18.0.0, SVG Export Plug-In . SVG Version: 6.00 Build 0)  -->
<!DOCTYPE svg PUBLIC "-//W3C//DTD SVG 1.1//EN" "http://www.w3.org/Graphics/SVG/1.1/DTD/svg11.dtd">
<svg version="1.1" id="Capa_1" xmlns="http://www.w3.org/2000/svg" xmlns:xlink="http://www.w3.org/1999/xlink" x="0px" y="0px"
	 viewBox="0 0 58 58" style="enable-background:new 0 0 58 58;" xml:space="preserve">
<polygon style="fill:#A58763;" points="0,0 0,58 3,58 3,56 55,56 55,58 58,58 58,0 "/>
<rect x="31" y="3" style="fill:#A58763;stroke:#685642;stroke-width:2;stroke-miterlimit:10;" width="24" height="10"/>
<rect x="31" y="13" style="fill:#A58763;stroke:#685642;stroke-width:2;stroke-miterlimit:10;" width="24" height="10"/>
<rect x="31" y="23" style="fill:#A58763;stroke:#685642;stroke-width:2;stroke-miterlimit:10;" width="24" height="10"/>
<rect x="31" y="33" style="fill:#A58763;stroke:#685642;stroke-width:2;stroke-miterlimit:10;" width="24" height="10"/>
<rect x="31" y="43" style="fill:#A58763;stroke:#685642;stroke-width:2;stroke-miterlimit:10;" width="24" height="10"/>
<path style="fill:#F7E6A1;" d="M45,29h-4c-0.553,0-1-0.447-1-1s0.447-1,1-1h4c0.553,0,1,0.447,1,1S45.553,29,45,29z"/>
<path style="fill:#F7E6A1;" d="M45,19h-4c-0.553,0-1-0.447-1-1s0.447-1,1-1h4c0.553,0,1,0.447,1,1S45.553,19,45,19z"/>
<path style="fill:#F7E6A1;" d="M45,9h-4c-0.553,0-1-0.447-1-1s0.447-1,1-1h4c0.553,0,1,0.447,1,1S45.553,9,45,9z"/>
<path style="fill:#F7E6A1;" d="M45,39h-4c-0.553,0-1-0.447-1-1s0.447-1,1-1h4c0.553,0,1,0.447,1,1S45.553,39,45,39z"/>
<path style="fill:#F7E6A1;" d="M45,49h-4c-0.553,0-1-0.447-1-1s0.447-1,1-1h4c0.553,0,1,0.447,1,1S45.553,49,45,49z"/>
<g>
	<polygon style="fill:#685642;" points="3,3 3,20 3,36 3,53 28,53 28,36 28,20 28,3 	"/>
	<path style="fill:#685642;" d="M29,54H2V2h27V54z M4,52h23V4H4V52z"/>
</g>
<line style="fill:none;stroke:#F2ECBF;stroke-width:2;stroke-miterlimit:10;" x1="2" y1="14" x2="29" y2="14"/>
<line style="fill:none;stroke:#F2ECBF;stroke-width:2;stroke-miterlimit:10;" x1="2" y1="19" x2="29" y2="19"/>
<line style="fill:none;stroke:#F7B563;stroke-width:2;stroke-linecap:round;stroke-miterlimit:10;" x1="10" y1="17" x2="10" y2="22"/>
<line style="fill:none;stroke:#F7B563;stroke-width:2;stroke-linecap:round;stroke-miterlimit:10;" x1="13" y1="17" x2="13" y2="22"/>
<line style="fill:none;stroke:#F7B563;stroke-width:2;stroke-linecap:round;stroke-miterlimit:10;" x1="16" y1="17" x2="16" y2="22"/>
<line style="fill:none;stroke:#F7B563;stroke-width:2;stroke-linecap:round;stroke-miterlimit:10;" x1="19" y1="17" x2="19" y2="22"/>
<g>
</g>
<g>
</g>
<g>
</g>
<g>
</g>
<g>
</g>
<g>
</g>
<g>
</g>
<g>
</g>
<g>
</g>
<g>
</g>
<g>
</g>
<g>
</g>
<g>
</g>
<g>
</g>
<g>
</g>
</svg>
