<?xml version="1.0" encoding="iso-8859-1"?>
<!-- Generator: Adobe Illustrator 18.0.0, SVG Export Plug-In . SVG Version: 6.00 Build 0)  -->
<!DOCTYPE svg PUBLIC "-//W3C//DTD SVG 1.1//EN" "http://www.w3.org/Graphics/SVG/1.1/DTD/svg11.dtd">
<svg version="1.1" id="Capa_1" xmlns="http://www.w3.org/2000/svg" xmlns:xlink="http://www.w3.org/1999/xlink" x="0px" y="0px"
	 viewBox="0 0 58 58" style="enable-background:new 0 0 58 58;" xml:space="preserve">
<polygon style="fill:#382016;" points="0,0 0,58 3,58 3,55 55,55 55,58 58,58 58,0 "/>
<rect x="3" y="46" style="fill:#99735F;" width="52" height="6"/>
<rect x="3" y="40" style="fill:#826254;" width="52" height="6"/>
<polygon style="fill:#99735F;" points="12,34 12,37 9,37 3,34 3,40 55,40 55,34 "/>
<rect x="29" y="3" style="fill:#845C46;" width="26" height="31"/>
<path style="fill:#F3A250;" d="M33,22c-0.553,0-1-0.447-1-1v-5c0-0.553,0.447-1,1-1s1,0.447,1,1v5C34,21.553,33.553,22,33,22z"/>
<rect x="12" y="3" style="fill:#4F2F1E;" width="17" height="31"/>
<polygon style="fill:#845C46;" points="9,37 3,34 3,3 9,0 "/>
<path style="fill:#F3A250;" d="M31,38h-4c-0.553,0-1-0.447-1-1s0.447-1,1-1h4c0.553,0,1,0.447,1,1S31.553,38,31,38z"/>
<path style="fill:#F3A250;" d="M31,44h-4c-0.553,0-1-0.447-1-1s0.447-1,1-1h4c0.553,0,1,0.447,1,1S31.553,44,31,44z"/>
<path style="fill:#F3A250;" d="M31,50h-4c-0.553,0-1-0.447-1-1s0.447-1,1-1h4c0.553,0,1,0.447,1,1S31.553,50,31,50z"/>
<line style="fill:none;stroke:#BFA380;stroke-width:2;stroke-miterlimit:10;" x1="12" y1="10" x2="29" y2="10"/>
<path style="fill:#E7ECED;" d="M16,14c-0.553,0-1-0.447-1-1V8c0-0.553,0.447-1,1-1s1,0.447,1,1v5C17,13.553,16.553,14,16,14z"/>
<path style="fill:#E7ECED;" d="M19,14c-0.553,0-1-0.447-1-1V8c0-0.553,0.447-1,1-1s1,0.447,1,1v5C20,13.553,19.553,14,19,14z"/>
<path style="fill:#E7ECED;" d="M22,14c-0.553,0-1-0.447-1-1V8c0-0.553,0.447-1,1-1s1,0.447,1,1v5C23,13.553,22.553,14,22,14z"/>
<path style="fill:#E7ECED;" d="M25,14c-0.553,0-1-0.447-1-1V8c0-0.553,0.447-1,1-1s1,0.447,1,1v5C26,13.553,25.553,14,25,14z"/>
<rect x="9" style="fill:#B79586;" width="3" height="37"/>
<rect x="12" y="26" style="fill:#99735F;" width="17" height="2"/>
<g>
</g>
<g>
</g>
<g>
</g>
<g>
</g>
<g>
</g>
<g>
</g>
<g>
</g>
<g>
</g>
<g>
</g>
<g>
</g>
<g>
</g>
<g>
</g>
<g>
</g>
<g>
</g>
<g>
</g>
</svg>
