<?xml version="1.0" encoding="iso-8859-1"?>
<!-- Generator: Adobe Illustrator 18.0.0, SVG Export Plug-In . SVG Version: 6.00 Build 0)  -->
<!DOCTYPE svg PUBLIC "-//W3C//DTD SVG 1.1//EN" "http://www.w3.org/Graphics/SVG/1.1/DTD/svg11.dtd">
<svg version="1.1" id="Capa_1" xmlns="http://www.w3.org/2000/svg" xmlns:xlink="http://www.w3.org/1999/xlink" x="0px" y="0px"
	 viewBox="0 0 58 58" style="enable-background:new 0 0 58 58;" xml:space="preserve">
<path style="fill:#382016;" d="M6,54V4.313C6,1.931,7.931,0,10.313,0h37.374C50.069,0,52,1.931,52,4.313V54H6z"/>
<path style="fill:#553323;stroke:#774836;stroke-width:2;stroke-linejoin:round;stroke-miterlimit:10;" d="M29,51H9V5.451
	C9,4.097,10.097,3,11.451,3H29V51z"/>
<polygon style="fill:#774836;" points="11,58 8,58 8,54 13,54 "/>
<path style="fill:#AB8024;" d="M24,31c-0.552,0-1-0.447-1-1v-5c0-0.553,0.448-1,1-1s1,0.447,1,1v5C25,30.553,24.552,31,24,31z"/>
<path style="fill:#553323;stroke:#774836;stroke-width:2;stroke-linejoin:round;stroke-miterlimit:10;" d="M49,51H29V3h17.549
	C47.903,3,49,4.097,49,5.451V51z"/>
<polygon style="fill:#774836;" points="49,58 52,58 52,54 47,54 "/>
<path style="fill:#AB8024;" d="M34,31c-0.552,0-1-0.447-1-1v-5c0-0.553,0.448-1,1-1s1,0.447,1,1v5C35,30.553,34.552,31,34,31z"/>
<g>
</g>
<g>
</g>
<g>
</g>
<g>
</g>
<g>
</g>
<g>
</g>
<g>
</g>
<g>
</g>
<g>
</g>
<g>
</g>
<g>
</g>
<g>
</g>
<g>
</g>
<g>
</g>
<g>
</g>
</svg>
