<?xml version="1.0" encoding="iso-8859-1"?>
<!-- Generator: Adobe Illustrator 18.0.0, SVG Export Plug-In . SVG Version: 6.00 Build 0)  -->
<!DOCTYPE svg PUBLIC "-//W3C//DTD SVG 1.1//EN" "http://www.w3.org/Graphics/SVG/1.1/DTD/svg11.dtd">
<svg version="1.1" id="Capa_1" xmlns="http://www.w3.org/2000/svg" xmlns:xlink="http://www.w3.org/1999/xlink" x="0px" y="0px"
	 viewBox="0 0 58 58" style="enable-background:new 0 0 58 58;" xml:space="preserve">
<line style="fill:none;stroke:#C7CAC7;stroke-width:2;stroke-linecap:round;stroke-miterlimit:10;" x1="54.5" y1="11" x2="54.5" y2="42"/>
<path style="fill:#556080;" d="M56.5,58h-55v-2.616C1.5,53.515,3.015,52,4.884,52h48.232c1.869,0,3.384,1.515,3.384,3.384V58z"/>
<path style="fill:#38454F;" d="M47.579,23H10.421c-1.82,0-3.51-0.548-4.921-1.483V52h46V22.083C50.315,22.665,48.988,23,47.579,23z"
	/>
<path style="fill:#556080;" d="M47.579,23H10.421C5.494,23,1.5,19.006,1.5,14.079V4.247C1.5,1.901,3.401,0,5.747,0h46.506
	C54.599,0,56.5,1.901,56.5,4.247v9.832C56.5,19.006,52.506,23,47.579,23z"/>
<rect x="17.5" y="4" style="fill:#A4CA83;" width="22" height="15"/>
<path style="fill:#E7ECED;" d="M31.979,52h-6.958c-2.497,0-4.521-2.024-4.521-4.521V39h16v8.479C36.5,49.976,34.476,52,31.979,52z"
	/>
<path style="fill:none;stroke:#E7ECED;stroke-width:2;stroke-linecap:round;stroke-miterlimit:10;" d="M21.5,48h-4
	c-2.209,0-4-1.791-4-4v0c0-2.209,1.791-4,4-4h4V48z"/>
<circle style="fill:#E7ECED;" cx="47.5" cy="7" r="4"/>
<circle style="fill:#28384C;" cx="47.5" cy="17" r="3"/>
<rect x="7.5" y="4" style="fill:#28384C;" width="6" height="5"/>
<rect x="7.5" y="14" style="fill:#28384C;" width="6" height="5"/>
<path style="fill:#88C057;" d="M20.5,10c-0.256,0-0.512-0.098-0.707-0.293c-0.391-0.391-0.391-1.023,0-1.414l2-2
	c0.391-0.391,1.023-0.391,1.414,0s0.391,1.023,0,1.414l-2,2C21.012,9.902,20.756,10,20.5,10z"/>
<path style="fill:#88C057;" d="M20.5,15c-0.256,0-0.512-0.098-0.707-0.293c-0.391-0.391-0.391-1.023,0-1.414l7-7
	c0.391-0.391,1.023-0.391,1.414,0s0.391,1.023,0,1.414l-7,7C21.012,14.902,20.756,15,20.5,15z"/>
<line style="fill:none;stroke:#E7ECED;stroke-width:2;stroke-linecap:round;stroke-miterlimit:10;" x1="26.5" y1="34" x2="26.5" y2="36"/>
<line style="fill:none;stroke:#E7ECED;stroke-width:2;stroke-linecap:round;stroke-miterlimit:10;" x1="30.5" y1="34" x2="30.5" y2="36"/>
<path style="fill:#C7CAC7;" d="M43.5,31H32.806c-0.722,0-1.306-0.585-1.306-1.306v-1.387c0-0.722,0.585-1.306,1.306-1.306H43.5
	c1.105,0,2,0.895,2,2v0C45.5,30.105,44.605,31,43.5,31z"/>
<path style="fill:#949493;" d="M32.806,27H35.5v-4h-14v8c0,1.657,1.343,3,3,3h8c1.657,0,3-1.343,3-3h-2.694
	c-0.722,0-1.306-0.585-1.306-1.306v-1.387C31.5,27.585,32.085,27,32.806,27z"/>
<g>
</g>
<g>
</g>
<g>
</g>
<g>
</g>
<g>
</g>
<g>
</g>
<g>
</g>
<g>
</g>
<g>
</g>
<g>
</g>
<g>
</g>
<g>
</g>
<g>
</g>
<g>
</g>
<g>
</g>
</svg>
