<?xml version="1.0" encoding="iso-8859-1"?>
<!-- Generator: Adobe Illustrator 18.0.0, SVG Export Plug-In . SVG Version: 6.00 Build 0)  -->
<!DOCTYPE svg PUBLIC "-//W3C//DTD SVG 1.1//EN" "http://www.w3.org/Graphics/SVG/1.1/DTD/svg11.dtd">
<svg version="1.1" id="Capa_1" xmlns="http://www.w3.org/2000/svg" xmlns:xlink="http://www.w3.org/1999/xlink" x="0px" y="0px"
	 viewBox="0 0 58 58" style="enable-background:new 0 0 58 58;" xml:space="preserve">
<path style="fill:#AFB6BB;" d="M50,58H8V6.291C8,2.817,10.817,0,14.291,0h29.418C47.183,0,50,2.817,50,6.291V58z"/>
<rect x="10" y="26" style="fill:#7383BF;" width="38" height="21"/>
<rect x="8" y="50" style="fill:#556080;" width="42" height="8"/>
<path style="fill:#7383BF;" d="M50,14H8V6.291C8,2.817,10.817,0,14.291,0h29.418C47.183,0,50,2.817,50,6.291V14z"/>
<rect x="12" y="28" style="fill:#7FABDA;" width="34" height="17"/>
<path style="fill:#E7ECED;" d="M46,22H12c-1.105,0-2-0.895-2-2v0c0-1.105,0.895-2,2-2h34c1.105,0,2,0.895,2,2v0
	C48,21.105,47.105,22,46,22z"/>
<circle style="fill:#38454F;" cx="15" cy="8" r="3"/>
<circle style="fill:#38454F;" cx="43" cy="8" r="3"/>
<rect x="22" y="4" style="fill:#A4CA83;" width="14" height="6"/>
<circle style="fill:#C6E2F7;" cx="14" cy="29" r="1"/>
<circle style="fill:#C6E2F7;" cx="20" cy="29" r="1"/>
<circle style="fill:#C6E2F7;" cx="14" cy="35" r="1"/>
<circle style="fill:#C6E2F7;" cx="20" cy="35" r="1"/>
<circle style="fill:#C6E2F7;" cx="17" cy="32" r="1"/>
<circle style="fill:#C6E2F7;" cx="23" cy="32" r="1"/>
<circle style="fill:#C6E2F7;" cx="17" cy="38" r="1"/>
<circle style="fill:#C6E2F7;" cx="23" cy="38" r="1"/>
<circle style="fill:#C6E2F7;" cx="26" cy="29" r="1"/>
<circle style="fill:#C6E2F7;" cx="32" cy="29" r="1"/>
<circle style="fill:#C6E2F7;" cx="26" cy="35" r="1"/>
<circle style="fill:#C6E2F7;" cx="32" cy="35" r="1"/>
<circle style="fill:#C6E2F7;" cx="29" cy="32" r="1"/>
<circle style="fill:#C6E2F7;" cx="35" cy="32" r="1"/>
<circle style="fill:#C6E2F7;" cx="29" cy="38" r="1"/>
<circle style="fill:#C6E2F7;" cx="35" cy="38" r="1"/>
<circle style="fill:#C6E2F7;" cx="38" cy="29" r="1"/>
<circle style="fill:#C6E2F7;" cx="44" cy="29" r="1"/>
<circle style="fill:#C6E2F7;" cx="38" cy="35" r="1"/>
<circle style="fill:#C6E2F7;" cx="44" cy="35" r="1"/>
<circle style="fill:#C6E2F7;" cx="41" cy="32" r="1"/>
<circle style="fill:#C6E2F7;" cx="41" cy="38" r="1"/>
<circle style="fill:#C6E2F7;" cx="14" cy="41" r="1"/>
<circle style="fill:#C6E2F7;" cx="20" cy="41" r="1"/>
<circle style="fill:#C6E2F7;" cx="17" cy="44" r="1"/>
<circle style="fill:#C6E2F7;" cx="23" cy="44" r="1"/>
<circle style="fill:#C6E2F7;" cx="26" cy="41" r="1"/>
<circle style="fill:#C6E2F7;" cx="32" cy="41" r="1"/>
<circle style="fill:#C6E2F7;" cx="29" cy="44" r="1"/>
<circle style="fill:#C6E2F7;" cx="35" cy="44" r="1"/>
<circle style="fill:#C6E2F7;" cx="38" cy="41" r="1"/>
<circle style="fill:#C6E2F7;" cx="44" cy="41" r="1"/>
<circle style="fill:#C6E2F7;" cx="41" cy="44" r="1"/>
<path style="fill:#FFFFFF;" d="M46.5,20h-35c-0.275,0-0.5-0.225-0.5-0.5l0,0c0-0.275,0.225-0.5,0.5-0.5h35
	c0.275,0,0.5,0.225,0.5,0.5l0,0C47,19.775,46.775,20,46.5,20z"/>
<g>
</g>
<g>
</g>
<g>
</g>
<g>
</g>
<g>
</g>
<g>
</g>
<g>
</g>
<g>
</g>
<g>
</g>
<g>
</g>
<g>
</g>
<g>
</g>
<g>
</g>
<g>
</g>
<g>
</g>
</svg>
