<?xml version="1.0" encoding="iso-8859-1"?>
<!-- Generator: Adobe Illustrator 18.0.0, SVG Export Plug-In . SVG Version: 6.00 Build 0)  -->
<!DOCTYPE svg PUBLIC "-//W3C//DTD SVG 1.1//EN" "http://www.w3.org/Graphics/SVG/1.1/DTD/svg11.dtd">
<svg version="1.1" id="Capa_1" xmlns="http://www.w3.org/2000/svg" xmlns:xlink="http://www.w3.org/1999/xlink" x="0px" y="0px"
	 viewBox="0 0 58 58" style="enable-background:new 0 0 58 58;" xml:space="preserve">
<path style="fill:#CDD4D9;" d="M52,25c0-1.657,1.343-3,3-3c0.353,0,0.686,0.072,1,0.184v-6.473C56,13.109,53.891,11,51.289,11H6.711
	C4.109,11,2,13.109,2,15.711v6.473C2.314,22.072,2.647,22,3,22c1.657,0,3,1.343,3,3v8h46V25z"/>
<path style="fill:#A6B2BC;" d="M6,44H0V25c0-1.657,1.343-3,3-3h0c1.657,0,3,1.343,3,3V44z"/>
<path style="fill:#A6B2BC;" d="M58,44h-6V25c0-1.657,1.343-3,3-3h0c1.657,0,3,1.343,3,3V44z"/>
<rect x="6" y="33" style="fill:#60737F;" width="46" height="11"/>
<rect x="6" y="28" style="fill:#7C8E9C;" width="46" height="5"/>
<rect x="1" y="44" style="fill:#9E6C53;" width="4" height="3"/>
<rect x="53" y="44" style="fill:#9E6C53;" width="4" height="3"/>
<g>
	<circle style="fill:#A6B2BC;" cx="11" cy="18" r="1"/>
	<circle style="fill:#A6B2BC;" cx="17" cy="18" r="1"/>
	<circle style="fill:#A6B2BC;" cx="23" cy="18" r="1"/>
	<circle style="fill:#A6B2BC;" cx="29" cy="18" r="1"/>
	<circle style="fill:#A6B2BC;" cx="35" cy="18" r="1"/>
	<circle style="fill:#A6B2BC;" cx="41" cy="18" r="1"/>
	<circle style="fill:#A6B2BC;" cx="47" cy="18" r="1"/>
	<circle style="fill:#A6B2BC;" cx="14" cy="22" r="1"/>
	<circle style="fill:#A6B2BC;" cx="20" cy="22" r="1"/>
	<circle style="fill:#A6B2BC;" cx="26" cy="22" r="1"/>
	<circle style="fill:#A6B2BC;" cx="32" cy="22" r="1"/>
	<circle style="fill:#A6B2BC;" cx="38" cy="22" r="1"/>
	<circle style="fill:#A6B2BC;" cx="44" cy="22" r="1"/>
</g>
<g>
</g>
<g>
</g>
<g>
</g>
<g>
</g>
<g>
</g>
<g>
</g>
<g>
</g>
<g>
</g>
<g>
</g>
<g>
</g>
<g>
</g>
<g>
</g>
<g>
</g>
<g>
</g>
<g>
</g>
</svg>
