<?xml version="1.0" encoding="iso-8859-1"?>
<!-- Generator: Adobe Illustrator 18.0.0, SVG Export Plug-In . SVG Version: 6.00 Build 0)  -->
<!DOCTYPE svg PUBLIC "-//W3C//DTD SVG 1.1//EN" "http://www.w3.org/Graphics/SVG/1.1/DTD/svg11.dtd">
<svg version="1.1" id="Capa_1" xmlns="http://www.w3.org/2000/svg" xmlns:xlink="http://www.w3.org/1999/xlink" x="0px" y="0px"
	 viewBox="0 0 58 58" style="enable-background:new 0 0 58 58;" xml:space="preserve">
<rect x="6" y="33" style="fill:#543D30;" width="46" height="11"/>
<path style="fill:#664C3B;" d="M48.078,11h-14.25c-1.811,0-3.548,0.719-4.828,2l0,0l0,0c-1.281-1.281-3.017-2-4.828-2H9.922
	C5.547,11,2,14.547,2,18.922v3.262c0.654-0.232,1.39-0.293,2.211,0.11C5.336,22.845,6,24.046,6,25.3L6,33h46v-7.7
	c0-1.253,0.664-2.455,1.789-3.007c0.821-0.403,1.557-0.342,2.211-0.11v-3.262C56,14.547,52.453,11,48.078,11z"/>
<path style="fill:#423026;" d="M6,44H0V25c0-1.657,1.343-3,3-3h0c1.657,0,3,1.343,3,3V44z"/>
<path style="fill:#423026;" d="M58,44h-6V25c0-1.657,1.343-3,3-3h0c1.657,0,3,1.343,3,3V44z"/>
<rect x="1" y="44" style="fill:#9E6C53;" width="4" height="3"/>
<rect x="53" y="44" style="fill:#9E6C53;" width="4" height="3"/>
<g>
	<path style="fill:#423026;" d="M18.707,16.293c-0.391-0.391-1.023-0.391-1.414,0L16,17.586l-1.293-1.293
		c-0.391-0.391-1.023-0.391-1.414,0s-0.391,1.023,0,1.414L14.586,19l-1.293,1.293c-0.391,0.391-0.391,1.023,0,1.414
		C13.488,21.902,13.744,22,14,22s0.512-0.098,0.707-0.293L16,20.414l1.293,1.293C17.488,21.902,17.744,22,18,22
		s0.512-0.098,0.707-0.293c0.391-0.391,0.391-1.023,0-1.414L17.414,19l1.293-1.293C19.098,17.316,19.098,16.684,18.707,16.293z"/>
	<path style="fill:#423026;" d="M43.414,19l1.293-1.293c0.391-0.391,0.391-1.023,0-1.414s-1.023-0.391-1.414,0L42,17.586
		l-1.293-1.293c-0.391-0.391-1.023-0.391-1.414,0s-0.391,1.023,0,1.414L40.586,19l-1.293,1.293c-0.391,0.391-0.391,1.023,0,1.414
		C39.488,21.902,39.744,22,40,22s0.512-0.098,0.707-0.293L42,20.414l1.293,1.293C43.488,21.902,43.744,22,44,22
		s0.512-0.098,0.707-0.293c0.391-0.391,0.391-1.023,0-1.414L43.414,19z"/>
</g>
<path style="fill:#423026;" d="M29,30L29,30L29,30c-1.281-1.281-3.017-2-4.828-2H6v5h46v-5H33.828C32.017,28,30.281,28.719,29,30z"
	/>
<path style="fill:#423026;" d="M29,31c0.553,0,1-0.683,1-1.526V12.177c-0.356,0.241-0.692,0.515-1,0.823
	c-0.308-0.308-0.644-0.582-1-0.823v17.297C28,30.317,28.447,31,29,31z"/>
<g>
</g>
<g>
</g>
<g>
</g>
<g>
</g>
<g>
</g>
<g>
</g>
<g>
</g>
<g>
</g>
<g>
</g>
<g>
</g>
<g>
</g>
<g>
</g>
<g>
</g>
<g>
</g>
<g>
</g>
</svg>
