<?xml version="1.0" encoding="iso-8859-1"?>
<!-- Generator: Adobe Illustrator 18.0.0, SVG Export Plug-In . SVG Version: 6.00 Build 0)  -->
<!DOCTYPE svg PUBLIC "-//W3C//DTD SVG 1.1//EN" "http://www.w3.org/Graphics/SVG/1.1/DTD/svg11.dtd">
<svg version="1.1" id="Capa_1" xmlns="http://www.w3.org/2000/svg" xmlns:xlink="http://www.w3.org/1999/xlink" x="0px" y="0px"
	 viewBox="0 0 58 58" style="enable-background:new 0 0 58 58;" xml:space="preserve">
<path style="fill:#D1D3CB;" d="M1.912,41.288L1.912,41.288c-2.549-4.025-2.549-10.551,0-14.576l0,0c0.601-0.949,1.576-0.949,2.177,0
	l0,0c2.549,4.025,2.549,10.551,0,14.576l0,0C3.487,42.237,2.513,42.237,1.912,41.288z"/>
<path style="fill:#D1D3CB;" d="M53.912,41.288L53.912,41.288c-2.549-4.025-2.549-10.551,0-14.576l0,0
	c0.601-0.949,1.576-0.949,2.177,0l0,0c2.549,4.025,2.549,10.551,0,14.576l0,0C55.487,42.237,54.513,42.237,53.912,41.288z"/>
<g>
	<path style="fill:#BCBDB8;" d="M4.253,41h49.493c-0.693-1.18-1.185-2.548-1.463-4H5.717C5.438,38.452,4.947,39.82,4.253,41z"/>
</g>
<rect x="6" y="41" style="fill:#774836;" width="4" height="4"/>
<rect x="48" y="41" style="fill:#774836;" width="4" height="4"/>
<path style="fill:#EBBA16;" d="M14.193,34H9.807C8.809,34,8,33.191,8,32.193v-4.386C8,26.809,8.809,26,9.807,26h4.386
	C15.191,26,16,26.809,16,27.807v4.386C16,33.191,15.191,34,14.193,34z"/>
<path style="fill:#EBBA16;" d="M48.193,34h-4.386C42.809,34,42,33.191,42,32.193v-4.386C42,26.809,42.809,26,43.807,26h4.386
	C49.191,26,50,26.809,50,27.807v4.386C50,33.191,49.191,34,48.193,34z"/>
<path style="fill:#F3F3F1;" d="M45.18,13H12.82C10.158,13,8,15.158,8,17.82v9.987C8,26.809,8.809,26,9.807,26h4.386
	C15.191,26,16,26.809,16,27.807V32h26v-4.193C42,26.809,42.809,26,43.807,26h4.386C49.191,26,50,26.809,50,27.807V17.82
	C50,15.158,47.842,13,45.18,13z"/>
<path style="fill:#DADBD5;" d="M52.283,37c-0.312-1.624-0.365-3.344-0.159-5H50v0.193C50,33.191,49.191,34,48.193,34h-4.386
	C42.809,34,42,33.191,42,32.193V32H16v0.193C16,33.191,15.191,34,14.193,34H9.807C8.809,34,8,33.191,8,32.193V32H5.876
	c0.206,1.656,0.153,3.376-0.159,5H52.283z"/>
<g>
	<path style="fill:#AEAFAA;" d="M39.788,22.373c0.426-0.866,0.426-1.881,0-2.747l0.919-0.919c0.391-0.391,0.391-1.023,0-1.414
		s-1.023-0.391-1.414,0l-0.928,0.928c-0.856-0.401-1.874-0.401-2.73,0l-0.928-0.928c-0.391-0.391-1.023-0.391-1.414,0
		s-0.391,1.023,0,1.414l0.92,0.92c-0.426,0.866-0.426,1.88,0,2.747l-0.92,0.92c-0.391,0.391-0.391,1.023,0,1.414
		C33.488,24.902,33.744,25,34,25s0.512-0.098,0.707-0.293l0.918-0.918c0.424,0.21,0.888,0.332,1.375,0.332s0.951-0.123,1.375-0.332
		l0.918,0.918C39.488,24.902,39.744,25,40,25s0.512-0.098,0.707-0.293c0.391-0.391,0.391-1.023,0-1.414L39.788,22.373z
		 M36.207,21.793c-0.437-0.438-0.437-1.148,0-1.586c0.212-0.212,0.494-0.329,0.793-0.329s0.581,0.117,0.793,0.329
		c0.437,0.438,0.437,1.148,0,1.586C37.369,22.217,36.631,22.217,36.207,21.793z"/>
	<path style="fill:#AEAFAA;" d="M24.707,17.293c-0.391-0.391-1.023-0.391-1.414,0l-0.928,0.928c-0.856-0.401-1.874-0.401-2.73,0
		l-0.928-0.928c-0.391-0.391-1.023-0.391-1.414,0s-0.391,1.023,0,1.414l0.92,0.92c-0.426,0.866-0.426,1.88,0,2.747l-0.92,0.92
		c-0.391,0.391-0.391,1.023,0,1.414C17.488,24.902,17.744,25,18,25s0.512-0.098,0.707-0.293l0.918-0.918
		c0.424,0.21,0.888,0.332,1.375,0.332s0.951-0.123,1.375-0.332l0.918,0.918C23.488,24.902,23.744,25,24,25s0.512-0.098,0.707-0.293
		c0.391-0.391,0.391-1.023,0-1.414l-0.919-0.919c0.426-0.866,0.426-1.881,0-2.747l0.919-0.919
		C25.098,18.316,25.098,17.684,24.707,17.293z M20.207,21.793c-0.437-0.438-0.437-1.148,0-1.586
		c0.212-0.212,0.494-0.329,0.793-0.329s0.581,0.117,0.793,0.329c0.437,0.438,0.437,1.148,0,1.586
		C21.369,22.217,20.631,22.217,20.207,21.793z"/>
</g>
<path style="fill:#A8AAA0;" d="M50,23v9.827L52.283,37c-0.677-3.522-0.135-7.503,1.628-10.288l0,0
	c0.116-0.183,0.249-0.32,0.388-0.433C54.519,26.1,54.758,26,55,26L50,23z"/>
<path style="fill:#A8AAA0;" d="M8,23v9.827L5.717,37c0.677-3.522,0.135-7.503-1.628-10.288l0,0c-0.116-0.183-0.249-0.32-0.388-0.433
	C3.481,26.1,3.242,26,3,26L8,23z"/>
<g>
</g>
<g>
</g>
<g>
</g>
<g>
</g>
<g>
</g>
<g>
</g>
<g>
</g>
<g>
</g>
<g>
</g>
<g>
</g>
<g>
</g>
<g>
</g>
<g>
</g>
<g>
</g>
<g>
</g>
</svg>
