<?xml version="1.0" encoding="iso-8859-1"?>
<!-- Generator: Adobe Illustrator 18.0.0, SVG Export Plug-In . SVG Version: 6.00 Build 0)  -->
<!DOCTYPE svg PUBLIC "-//W3C//DTD SVG 1.1//EN" "http://www.w3.org/Graphics/SVG/1.1/DTD/svg11.dtd">
<svg version="1.1" id="Capa_1" xmlns="http://www.w3.org/2000/svg" xmlns:xlink="http://www.w3.org/1999/xlink" x="0px" y="0px"
	 viewBox="0 0 58 58" style="enable-background:new 0 0 58 58;" xml:space="preserve">
<polygon style="fill:#382016;" points="48,48.5 51,48.5 51,45.5 46,45.5 "/>
<polygon style="fill:#382016;" points="11,48.5 8,48.5 8,45.5 13,45.5 "/>
<path style="fill:#AFB6BB;" d="M56.432,33.5h-0.211c-1.172,1.23-2.821,2-4.654,2H48H10H6.432c-1.833,0-3.482-0.77-4.654-2H1.568
	C0.702,33.5,0,34.202,0,35.068C0,38.62,2.88,41.5,6.432,41.5H10h38h3.568C55.12,41.5,58,38.62,58,35.068
	C58,34.202,57.298,33.5,56.432,33.5z"/>
<path style="fill:#E7ECED;" d="M54.454,30.224c-2.562,1.467-10.207,3.525-10.661,1.276H14.206
	c-0.453,2.249-8.098,0.191-10.661-1.276c-1.613,0.812-2.845,2.264-3.321,4.046c0.273-0.46,0.77-0.771,1.343-0.771h0.211
	c1.172,1.23,2.821,2,4.654,2H10h38h3.568c1.833,0,3.482-0.77,4.654-2h0.211c0.573,0,1.07,0.311,1.343,0.771
	C57.299,32.488,56.068,31.036,54.454,30.224z"/>
<g>
	<path style="fill:#AFB6BB;stroke:#E7ECED;stroke-width:2;stroke-linecap:round;stroke-linejoin:round;stroke-miterlimit:10;" d="
		M14,30.4c0.21,0.447,0.267,0.808,0.209,1.1h29.579C43.73,31.209,43.79,30.847,44,30.4c1.398-2.974,6.462-6.175,9.761-5.903
		C51.677,20.922,47.81,18.5,43.395,18.5h-0.541c-1.664-4.615-7.053-8-13.459-8s-11.796,3.385-13.459,8h-0.541
		c-4.415,0-8.283,2.423-10.366,5.998C8.296,24.72,12.71,27.655,14,30.4z"/>
</g>
<path style="fill:none;stroke:#E7ECED;stroke-width:2;stroke-linecap:round;stroke-linejoin:round;stroke-miterlimit:10;" d="
	M19.395,22.5c0-2.211-1.789-4-4-4"/>
<path style="fill:none;stroke:#E7ECED;stroke-width:2;stroke-linecap:round;stroke-linejoin:round;stroke-miterlimit:10;" d="
	M39.395,22.5c0-2.211,1.789-4,4-4"/>
<g>
	<path style="fill:#CDD4D9;" d="M56.975,26.878c-0.143-1.391-0.85-2.53-1.893-3.048c-0.344-0.17-0.697-0.277-1.136-0.325
		c-3.67-0.37-9.226,3.011-10.852,6.47c-0.541,1.15-0.314,1.927-0.029,2.377c0.491,0.772,1.455,1.148,2.948,1.148
		c3.012,0,8.012-1.608,9.545-2.808C56.589,29.886,57.132,28.424,56.975,26.878z"/>
	<path style="fill:#CDD4D9;" d="M4.64,23.476c-0.199,0-0.396,0.01-0.671,0.038c-0.354,0.039-0.707,0.146-1.051,0.316
		c-1.043,0.518-1.75,1.657-1.893,3.048c-0.157,1.546,0.386,3.007,1.416,3.813c1.533,1.2,6.533,2.808,9.545,2.808
		c1.493,0,2.457-0.375,2.948-1.148c0.285-0.449,0.512-1.227-0.029-2.377C13.363,26.695,8.279,23.476,4.64,23.476z"/>
</g>
<rect x="6" y="41.5" style="fill:#774836;" width="46" height="4"/>
<g>
</g>
<g>
</g>
<g>
</g>
<g>
</g>
<g>
</g>
<g>
</g>
<g>
</g>
<g>
</g>
<g>
</g>
<g>
</g>
<g>
</g>
<g>
</g>
<g>
</g>
<g>
</g>
<g>
</g>
</svg>
