<?xml version="1.0" encoding="iso-8859-1"?>
<!-- Generator: Adobe Illustrator 18.0.0, SVG Export Plug-In . SVG Version: 6.00 Build 0)  -->
<!DOCTYPE svg PUBLIC "-//W3C//DTD SVG 1.1//EN" "http://www.w3.org/Graphics/SVG/1.1/DTD/svg11.dtd">
<svg version="1.1" id="Capa_1" xmlns="http://www.w3.org/2000/svg" xmlns:xlink="http://www.w3.org/1999/xlink" x="0px" y="0px"
	 viewBox="0 0 58 58" style="enable-background:new 0 0 58 58;" xml:space="preserve">
<path style="fill:#EBBA16;" d="M57,24c-0.552,0-1-0.448-1-1c0-0.552,0.448-1,1-1c0.132,0,0.257,0.029,0.372,0.075
	c-0.802-1.932-2.459-3.992-5.413-5.277C51.974,16.865,52,16.928,52,17c0,0.552-0.448,1-1,1s-1-0.448-1-1
	c0-0.316,0.156-0.585,0.384-0.769C50.11,16.15,49.838,16.068,49.546,16c-3.669-0.859-7.17-1.712-10.511-3.456
	c-1.501-0.784-3.223-1.469-5.113-1.933C33.972,10.731,34,10.862,34,11c0,0.552-0.448,1-1,1s-1-0.448-1-1
	c0-0.284,0.12-0.537,0.31-0.719C31.25,10.107,30.148,10,29,10c-0.558,0-1.103,0.029-1.641,0.073C27.733,10.217,28,10.575,28,11
	c0,0.552-0.448,1-1,1s-1-0.448-1-1c0-0.359,0.199-0.658,0.483-0.835c-2.857,0.357-5.401,1.275-7.517,2.379
	c-0.313,0.163-0.629,0.312-0.945,0.46C18.563,13.016,19,13.455,19,14c0,0.552-0.448,1-1,1s-1-0.448-1-1
	c0-0.252,0.102-0.475,0.255-0.651c-2.821,1.22-5.752,1.937-8.801,2.651C1.947,17.524,0,22.286,0,25v12c0.223,3.35,3.026,6,6.432,6
	H10h38h3.568c3.406,0,6.209-2.65,6.432-6v-8c0,0.552-0.448,1-1,1s-1-0.448-1-1c0-0.552,0.448-1,1-1s1,0.448,1,1v-4
	c0-0.442-0.058-0.942-0.173-1.471C57.649,23.806,57.353,24,57,24z M3,30c-0.552,0-1-0.448-1-1c0-0.552,0.448-1,1-1s1,0.448,1,1
	C4,29.552,3.552,30,3,30z M3,24c-0.552,0-1-0.448-1-1c0-0.552,0.448-1,1-1s1,0.448,1,1C4,23.552,3.552,24,3,24z M6,27
	c-0.552,0-1-0.448-1-1c0-0.552,0.448-1,1-1s1,0.448,1,1C7,26.552,6.552,27,6,27z M6,21c-0.552,0-1-0.448-1-1c0-0.552,0.448-1,1-1
	s1,0.448,1,1C7,20.552,6.552,21,6,21z M9,30c-0.552,0-1-0.448-1-1c0-0.552,0.448-1,1-1s1,0.448,1,1C10,29.552,9.552,30,9,30z M9,24
	c-0.552,0-1-0.448-1-1c0-0.552,0.448-1,1-1s1,0.448,1,1C10,23.552,9.552,24,9,24z M9,18c-0.552,0-1-0.448-1-1c0-0.552,0.448-1,1-1
	s1,0.448,1,1C10,17.552,9.552,18,9,18z M12,33c-0.552,0-1-0.448-1-1c0-0.552,0.448-1,1-1s1,0.448,1,1C13,32.552,12.552,33,12,33z
	 M12,27c-0.552,0-1-0.448-1-1c0-0.552,0.448-1,1-1s1,0.448,1,1C13,26.552,12.552,27,12,27z M12,21c-0.552,0-1-0.448-1-1
	c0-0.552,0.448-1,1-1s1,0.448,1,1C13,20.552,12.552,21,12,21z M15,30c-0.552,0-1-0.448-1-1c0-0.552,0.448-1,1-1s1,0.448,1,1
	C16,29.552,15.552,30,15,30z M15,24c-0.552,0-1-0.448-1-1c0-0.552,0.448-1,1-1s1,0.448,1,1C16,23.552,15.552,24,15,24z M15,18
	c-0.552,0-1-0.448-1-1c0-0.552,0.448-1,1-1s1,0.448,1,1C16,17.552,15.552,18,15,18z M18,33c-0.552,0-1-0.448-1-1
	c0-0.552,0.448-1,1-1s1,0.448,1,1C19,32.552,18.552,33,18,33z M18,27c-0.552,0-1-0.448-1-1c0-0.552,0.448-1,1-1s1,0.448,1,1
	C19,26.552,18.552,27,18,27z M18,21c-0.552,0-1-0.448-1-1c0-0.552,0.448-1,1-1s1,0.448,1,1C19,20.552,18.552,21,18,21z M21,30
	c-0.552,0-1-0.448-1-1c0-0.552,0.448-1,1-1s1,0.448,1,1C22,29.552,21.552,30,21,30z M21,24c-0.552,0-1-0.448-1-1
	c0-0.552,0.448-1,1-1s1,0.448,1,1C22,23.552,21.552,24,21,24z M21,18c-0.552,0-1-0.448-1-1c0-0.552,0.448-1,1-1s1,0.448,1,1
	C22,17.552,21.552,18,21,18z M24,33c-0.552,0-1-0.448-1-1c0-0.552,0.448-1,1-1s1,0.448,1,1C25,32.552,24.552,33,24,33z M24,27
	c-0.552,0-1-0.448-1-1c0-0.552,0.448-1,1-1s1,0.448,1,1C25,26.552,24.552,27,24,27z M24,21c-0.552,0-1-0.448-1-1
	c0-0.552,0.448-1,1-1s1,0.448,1,1C25,20.552,24.552,21,24,21z M24,15c-0.552,0-1-0.448-1-1c0-0.552,0.448-1,1-1s1,0.448,1,1
	C25,14.552,24.552,15,24,15z M27,30c-0.552,0-1-0.448-1-1c0-0.552,0.448-1,1-1s1,0.448,1,1C28,29.552,27.552,30,27,30z M27,24
	c-0.552,0-1-0.448-1-1c0-0.552,0.448-1,1-1s1,0.448,1,1C28,23.552,27.552,24,27,24z M27,18c-0.552,0-1-0.448-1-1
	c0-0.552,0.448-1,1-1s1,0.448,1,1C28,17.552,27.552,18,27,18z M30,33c-0.552,0-1-0.448-1-1c0-0.552,0.448-1,1-1s1,0.448,1,1
	C31,32.552,30.552,33,30,33z M30,27c-0.552,0-1-0.448-1-1c0-0.552,0.448-1,1-1s1,0.448,1,1C31,26.552,30.552,27,30,27z M30,21
	c-0.552,0-1-0.448-1-1c0-0.552,0.448-1,1-1s1,0.448,1,1C31,20.552,30.552,21,30,21z M30,15c-0.552,0-1-0.448-1-1
	c0-0.552,0.448-1,1-1s1,0.448,1,1C31,14.552,30.552,15,30,15z M33,30c-0.552,0-1-0.448-1-1c0-0.552,0.448-1,1-1s1,0.448,1,1
	C34,29.552,33.552,30,33,30z M33,24c-0.552,0-1-0.448-1-1c0-0.552,0.448-1,1-1s1,0.448,1,1C34,23.552,33.552,24,33,24z M33,18
	c-0.552,0-1-0.448-1-1c0-0.552,0.448-1,1-1s1,0.448,1,1C34,17.552,33.552,18,33,18z M36,33c-0.552,0-1-0.448-1-1
	c0-0.552,0.448-1,1-1s1,0.448,1,1C37,32.552,36.552,33,36,33z M36,27c-0.552,0-1-0.448-1-1c0-0.552,0.448-1,1-1s1,0.448,1,1
	C37,26.552,36.552,27,36,27z M36,21c-0.552,0-1-0.448-1-1c0-0.552,0.448-1,1-1s1,0.448,1,1C37,20.552,36.552,21,36,21z M36,15
	c-0.552,0-1-0.448-1-1c0-0.552,0.448-1,1-1s1,0.448,1,1C37,14.552,36.552,15,36,15z M39,30c-0.552,0-1-0.448-1-1
	c0-0.552,0.448-1,1-1s1,0.448,1,1C40,29.552,39.552,30,39,30z M39,24c-0.552,0-1-0.448-1-1c0-0.552,0.448-1,1-1s1,0.448,1,1
	C40,23.552,39.552,24,39,24z M39,18c-0.552,0-1-0.448-1-1c0-0.552,0.448-1,1-1s1,0.448,1,1C40,17.552,39.552,18,39,18z M42,33
	c-0.552,0-1-0.448-1-1c0-0.552,0.448-1,1-1s1,0.448,1,1C43,32.552,42.552,33,42,33z M42,27c-0.552,0-1-0.448-1-1
	c0-0.552,0.448-1,1-1s1,0.448,1,1C43,26.552,42.552,27,42,27z M42,21c-0.552,0-1-0.448-1-1c0-0.552,0.448-1,1-1s1,0.448,1,1
	C43,20.552,42.552,21,42,21z M45,30c-0.552,0-1-0.448-1-1c0-0.552,0.448-1,1-1s1,0.448,1,1C46,29.552,45.552,30,45,30z M45,24
	c-0.552,0-1-0.448-1-1c0-0.552,0.448-1,1-1s1,0.448,1,1C46,23.552,45.552,24,45,24z M45,18c-0.552,0-1-0.448-1-1
	c0-0.552,0.448-1,1-1s1,0.448,1,1C46,17.552,45.552,18,45,18z M48,33c-0.552,0-1-0.448-1-1c0-0.552,0.448-1,1-1s1,0.448,1,1
	C49,32.552,48.552,33,48,33z M48,27c-0.552,0-1-0.448-1-1c0-0.552,0.448-1,1-1s1,0.448,1,1C49,26.552,48.552,27,48,27z M48,21
	c-0.552,0-1-0.448-1-1c0-0.552,0.448-1,1-1s1,0.448,1,1C49,20.552,48.552,21,48,21z M51,30c-0.552,0-1-0.448-1-1
	c0-0.552,0.448-1,1-1s1,0.448,1,1C52,29.552,51.552,30,51,30z M51,24c-0.552,0-1-0.448-1-1c0-0.552,0.448-1,1-1s1,0.448,1,1
	C52,23.552,51.552,24,51,24z M54,27c-0.552,0-1-0.448-1-1c0-0.552,0.448-1,1-1s1,0.448,1,1C55,26.552,54.552,27,54,27z M54,21
	c-0.552,0-1-0.448-1-1c0-0.552,0.448-1,1-1s1,0.448,1,1C55,20.552,54.552,21,54,21z"/>
<g>
	<circle style="fill:#EFCE4A;" cx="9" cy="17" r="1"/>
	<path style="fill:#EFCE4A;" d="M18.021,13.004c-0.254,0.12-0.51,0.234-0.766,0.345C17.102,13.525,17,13.748,17,14
		c0,0.552,0.448,1,1,1s1-0.448,1-1C19,13.455,18.563,13.016,18.021,13.004z"/>
	<circle style="fill:#EFCE4A;" cx="15" cy="17" r="1"/>
	<circle style="fill:#EFCE4A;" cx="21" cy="17" r="1"/>
	<circle style="fill:#EFCE4A;" cx="24" cy="14" r="1"/>
	<circle style="fill:#EFCE4A;" cx="30" cy="14" r="1"/>
	<path style="fill:#EFCE4A;" d="M27.359,10.072c-0.296,0.024-0.587,0.056-0.877,0.093C26.199,10.342,26,10.642,26,11
		c0,0.552,0.448,1,1,1s1-0.448,1-1C28,10.575,27.733,10.217,27.359,10.072z"/>
	<path style="fill:#EFCE4A;" d="M32.31,10.281C32.12,10.463,32,10.717,32,11c0,0.552,0.448,1,1,1s1-0.448,1-1
		c0-0.138-0.028-0.269-0.079-0.389C33.397,10.482,32.86,10.372,32.31,10.281z"/>
	<circle style="fill:#EFCE4A;" cx="27" cy="17" r="1"/>
	<circle style="fill:#EFCE4A;" cx="33" cy="17" r="1"/>
	<circle style="fill:#EFCE4A;" cx="36" cy="14" r="1"/>
	<circle style="fill:#EFCE4A;" cx="39" cy="17" r="1"/>
	<circle style="fill:#EFCE4A;" cx="45" cy="17" r="1"/>
	<path style="fill:#EFCE4A;" d="M50.384,16.231C50.156,16.415,50,16.684,50,17c0,0.552,0.448,1,1,1s1-0.448,1-1
		c0-0.072-0.026-0.135-0.041-0.202C51.471,16.586,50.945,16.397,50.384,16.231z"/>
	<circle style="fill:#EFCE4A;" cx="6" cy="20" r="1"/>
	<circle style="fill:#EFCE4A;" cx="6" cy="26" r="1"/>
	<circle style="fill:#EFCE4A;" cx="3" cy="23" r="1"/>
	<circle style="fill:#EFCE4A;" cx="9" cy="23" r="1"/>
	<circle style="fill:#EFCE4A;" cx="3" cy="29" r="1"/>
	<circle style="fill:#EFCE4A;" cx="9" cy="29" r="1"/>
	<circle style="fill:#EFCE4A;" cx="12" cy="20" r="1"/>
	<circle style="fill:#EFCE4A;" cx="18" cy="20" r="1"/>
	<circle style="fill:#EFCE4A;" cx="12" cy="26" r="1"/>
	<circle style="fill:#EFCE4A;" cx="18" cy="26" r="1"/>
	<circle style="fill:#EFCE4A;" cx="15" cy="23" r="1"/>
	<circle style="fill:#EFCE4A;" cx="21" cy="23" r="1"/>
	<circle style="fill:#EFCE4A;" cx="15" cy="29" r="1"/>
	<circle style="fill:#EFCE4A;" cx="21" cy="29" r="1"/>
	<circle style="fill:#EFCE4A;" cx="24" cy="20" r="1"/>
	<circle style="fill:#EFCE4A;" cx="30" cy="20" r="1"/>
	<circle style="fill:#EFCE4A;" cx="24" cy="26" r="1"/>
	<circle style="fill:#EFCE4A;" cx="30" cy="26" r="1"/>
	<circle style="fill:#EFCE4A;" cx="27" cy="23" r="1"/>
	<circle style="fill:#EFCE4A;" cx="33" cy="23" r="1"/>
	<circle style="fill:#EFCE4A;" cx="27" cy="29" r="1"/>
	<circle style="fill:#EFCE4A;" cx="33" cy="29" r="1"/>
	<circle style="fill:#EFCE4A;" cx="36" cy="20" r="1"/>
	<circle style="fill:#EFCE4A;" cx="42" cy="20" r="1"/>
	<circle style="fill:#EFCE4A;" cx="36" cy="26" r="1"/>
	<circle style="fill:#EFCE4A;" cx="42" cy="26" r="1"/>
	<circle style="fill:#EFCE4A;" cx="39" cy="23" r="1"/>
	<circle style="fill:#EFCE4A;" cx="45" cy="23" r="1"/>
	<circle style="fill:#EFCE4A;" cx="39" cy="29" r="1"/>
	<circle style="fill:#EFCE4A;" cx="45" cy="29" r="1"/>
	<circle style="fill:#EFCE4A;" cx="48" cy="20" r="1"/>
	<circle style="fill:#EFCE4A;" cx="54" cy="20" r="1"/>
	<circle style="fill:#EFCE4A;" cx="48" cy="26" r="1"/>
	<circle style="fill:#EFCE4A;" cx="54" cy="26" r="1"/>
	<circle style="fill:#EFCE4A;" cx="51" cy="23" r="1"/>
	<path style="fill:#EFCE4A;" d="M57,24c0.353,0,0.649-0.194,0.827-0.471c-0.101-0.466-0.248-0.954-0.455-1.454
		C57.257,22.029,57.132,22,57,22c-0.552,0-1,0.448-1,1C56,23.552,56.448,24,57,24z"/>
	<circle style="fill:#EFCE4A;" cx="51" cy="29" r="1"/>
	<circle style="fill:#EFCE4A;" cx="57" cy="29" r="1"/>
	<circle style="fill:#EFCE4A;" cx="12" cy="32" r="1"/>
	<circle style="fill:#EFCE4A;" cx="18" cy="32" r="1"/>
	<circle style="fill:#EFCE4A;" cx="24" cy="32" r="1"/>
	<circle style="fill:#EFCE4A;" cx="30" cy="32" r="1"/>
	<circle style="fill:#EFCE4A;" cx="36" cy="32" r="1"/>
	<circle style="fill:#EFCE4A;" cx="42" cy="32" r="1"/>
	<circle style="fill:#EFCE4A;" cx="48" cy="32" r="1"/>
</g>
<path style="fill:#DD352E;" d="M56.943,35.428c1.504-1.177,1.405-4.33-0.305-5.178c-0.235-0.117-0.476-0.192-0.717-0.218l0,0
	c-0.025-0.003-0.05-0.005-0.075-0.008c-3.296-0.333-8.436,2.902-9.846,5.9C44.045,40.084,54.865,37.054,56.943,35.428z"/>
<path style="fill:#DD352E;" d="M1.058,35.428c-1.504-1.177-1.405-4.33,0.305-5.178c0.235-0.117,0.476-0.192,0.717-0.218l0,0
	c0.025-0.003,0.05-0.005,0.075-0.008c3.296-0.333,8.436,2.902,9.846,5.9C13.955,40.084,3.135,37.054,1.058,35.428z"/>
<polygon style="fill:#9E6C53;" points="6,43 5,48 7,48 12,43 "/>
<polygon style="fill:#9E6C53;" points="52,43 53,48 51,48 46,43 "/>
<path style="fill:#ED8A19;" d="M45.788,37c-0.051-0.288,0.007-0.64,0.212-1.076c0.468-0.996,1.352-2.015,2.439-2.924H9.561
	c1.087,0.909,1.971,1.928,2.439,2.924c0.205,0.436,0.262,0.788,0.212,1.076H45.788z"/>
<g>
</g>
<g>
</g>
<g>
</g>
<g>
</g>
<g>
</g>
<g>
</g>
<g>
</g>
<g>
</g>
<g>
</g>
<g>
</g>
<g>
</g>
<g>
</g>
<g>
</g>
<g>
</g>
<g>
</g>
</svg>
