<?xml version="1.0" encoding="iso-8859-1"?>
<!-- Generator: Adobe Illustrator 18.0.0, SVG Export Plug-In . SVG Version: 6.00 Build 0)  -->
<!DOCTYPE svg PUBLIC "-//W3C//DTD SVG 1.1//EN" "http://www.w3.org/Graphics/SVG/1.1/DTD/svg11.dtd">
<svg version="1.1" id="Capa_1" xmlns="http://www.w3.org/2000/svg" xmlns:xlink="http://www.w3.org/1999/xlink" x="0px" y="0px"
	 viewBox="0 0 58 58" style="enable-background:new 0 0 58 58;" xml:space="preserve">
<rect x="10" y="35.5" style="fill:#42251A;" width="38" height="11"/>
<path style="fill:#774836;" d="M10,26.5v9h38v-9c0-2.757,2.243-5,5-5v-5.928c0-1.697-1.376-3.072-3.072-3.072H8.072
	C6.376,12.5,5,13.876,5,15.572V21.5C7.757,21.5,10,23.743,10,26.5z"/>
<path style="fill:#382016;" d="M49.928,11.5H8.072C5.827,11.5,4,13.327,4,15.572V22.5h1c0.347,0,0.678,0.058,1,0.142v-2.059V18.5
	v-2.928C6,14.43,6.93,13.5,8.072,13.5h41.855C51.07,13.5,52,14.43,52,15.572V18.5v2.083v2.059c0.322-0.084,0.653-0.142,1-0.142h1
	v-6.928C54,13.327,52.173,11.5,49.928,11.5z"/>
<rect x="10" y="30.5" style="fill:#382016;" width="38" height="5"/>
<g>
	<circle style="fill:#382016;" cx="7" cy="13.5" r="1"/>
	<circle style="fill:#382016;" cx="10" cy="16.5" r="1"/>
	<circle style="fill:#382016;" cx="13" cy="13.5" r="1"/>
	<circle style="fill:#382016;" cx="19" cy="13.5" r="1"/>
	<circle style="fill:#382016;" cx="16" cy="16.5" r="1"/>
	<circle style="fill:#382016;" cx="22" cy="16.5" r="1"/>
	<circle style="fill:#382016;" cx="25" cy="13.5" r="1"/>
	<circle style="fill:#382016;" cx="31" cy="13.5" r="1"/>
	<circle style="fill:#382016;" cx="28" cy="16.5" r="1"/>
	<circle style="fill:#382016;" cx="34" cy="16.5" r="1"/>
	<circle style="fill:#382016;" cx="37" cy="13.5" r="1"/>
	<circle style="fill:#382016;" cx="43" cy="13.5" r="1"/>
	<circle style="fill:#382016;" cx="40" cy="16.5" r="1"/>
	<circle style="fill:#382016;" cx="46" cy="16.5" r="1"/>
	<circle style="fill:#382016;" cx="49" cy="13.5" r="1"/>
	<circle style="fill:#382016;" cx="52" cy="16.5" r="1"/>
	<circle style="fill:#382016;" cx="7" cy="19.5" r="1"/>
	<circle style="fill:#382016;" cx="10" cy="22.5" r="1"/>
	<circle style="fill:#382016;" cx="10" cy="28.5" r="1"/>
	<circle style="fill:#382016;" cx="13" cy="19.5" r="1"/>
	<circle style="fill:#382016;" cx="19" cy="19.5" r="1"/>
	<circle style="fill:#382016;" cx="13" cy="25.5" r="1"/>
	<circle style="fill:#382016;" cx="19" cy="25.5" r="1"/>
	<circle style="fill:#382016;" cx="16" cy="22.5" r="1"/>
	<circle style="fill:#382016;" cx="22" cy="22.5" r="1"/>
	<circle style="fill:#382016;" cx="16" cy="28.5" r="1"/>
	<circle style="fill:#382016;" cx="22" cy="28.5" r="1"/>
	<circle style="fill:#382016;" cx="25" cy="19.5" r="1"/>
	<circle style="fill:#382016;" cx="31" cy="19.5" r="1"/>
	<circle style="fill:#382016;" cx="25" cy="25.5" r="1"/>
	<circle style="fill:#382016;" cx="31" cy="25.5" r="1"/>
	<circle style="fill:#382016;" cx="28" cy="22.5" r="1"/>
	<circle style="fill:#382016;" cx="34" cy="22.5" r="1"/>
	<circle style="fill:#382016;" cx="28" cy="28.5" r="1"/>
	<circle style="fill:#382016;" cx="34" cy="28.5" r="1"/>
	<circle style="fill:#382016;" cx="37" cy="19.5" r="1"/>
	<circle style="fill:#382016;" cx="43" cy="19.5" r="1"/>
	<circle style="fill:#382016;" cx="37" cy="25.5" r="1"/>
	<circle style="fill:#382016;" cx="43" cy="25.5" r="1"/>
	<circle style="fill:#382016;" cx="40" cy="22.5" r="1"/>
	<circle style="fill:#382016;" cx="46" cy="22.5" r="1"/>
	<circle style="fill:#382016;" cx="40" cy="28.5" r="1"/>
	<circle style="fill:#382016;" cx="46" cy="28.5" r="1"/>
	<circle style="fill:#382016;" cx="49" cy="19.5" r="1"/>
</g>
<path style="fill:#553323;" d="M48,26.5v20h5v-15c2.757,0,5-2.243,5-5s-2.243-5-5-5S48,23.743,48,26.5z"/>
<path style="fill:#382016;" d="M54,25.5c-0.552,0-1,0.448-1,1v5c0.712,0,1.386-0.154,2-0.424V26.5C55,25.948,54.552,25.5,54,25.5z"
	/>
<path style="fill:#553323;" d="M5,21.5c-2.757,0-5,2.243-5,5s2.243,5,5,5v15h5v-20C10,23.743,7.757,21.5,5,21.5z"/>
<path style="fill:#382016;" d="M5,31.5v-5c0-0.552-0.448-1-1-1s-1,0.448-1,1v4.576C3.614,31.346,4.288,31.5,5,31.5z"/>
<g>
</g>
<g>
</g>
<g>
</g>
<g>
</g>
<g>
</g>
<g>
</g>
<g>
</g>
<g>
</g>
<g>
</g>
<g>
</g>
<g>
</g>
<g>
</g>
<g>
</g>
<g>
</g>
<g>
</g>
</svg>
