<?xml version="1.0" encoding="iso-8859-1"?>
<!-- Generator: Adobe Illustrator 18.0.0, SVG Export Plug-In . SVG Version: 6.00 Build 0)  -->
<!DOCTYPE svg PUBLIC "-//W3C//DTD SVG 1.1//EN" "http://www.w3.org/Graphics/SVG/1.1/DTD/svg11.dtd">
<svg version="1.1" id="Capa_1" xmlns="http://www.w3.org/2000/svg" xmlns:xlink="http://www.w3.org/1999/xlink" x="0px" y="0px"
	 viewBox="0 0 58 58" style="enable-background:new 0 0 58 58;" xml:space="preserve">
<g>
	<path style="fill:#1F893D;" d="M9,30.764V17.389L2,20.5v0.05c0.162-0.033,0.329-0.05,0.5-0.05C3.881,20.5,5,21.619,5,23v10.221
		C6.042,32.038,7.429,31.171,9,30.764L9,30.764z"/>
</g>
<g>
	<path style="fill:#1F893D;" d="M49,30.764V17.389l7,3.111v0.05c-0.162-0.033-0.329-0.05-0.5-0.05c-1.381,0-2.5,1.119-2.5,2.5
		v10.221C51.958,32.038,50.572,31.171,49,30.764L49,30.764z"/>
</g>
<path style="fill:#33B356;" d="M11,30.5h14.75c1.795,0,3.25,1.455,3.25,3.25c0-1.795,1.455-3.25,3.25-3.25H47
	c0.692,0,1.36,0.098,2,0.264v-19.33c0-1.068-0.866-1.934-1.934-1.934H10.934C9.866,9.5,9,10.366,9,11.434v19.33
	C9.64,30.598,10.308,30.5,11,30.5z"/>
<circle style="fill:#88C057;" cx="24" cy="18.5" r="1"/>
<circle style="fill:#88C057;" cx="26" cy="21.5" r="1"/>
<circle style="fill:#88C057;" cx="30" cy="21.5" r="1"/>
<circle style="fill:#88C057;" cx="28" cy="18.5" r="1"/>
<circle style="fill:#88C057;" cx="32" cy="18.5" r="1"/>
<path style="fill:#33B356;" d="M53,23v10.772c0,2.611-2.117,4.728-4.728,4.728H9.728C7.117,38.5,5,36.383,5,33.772V23
	c0-1.381-1.119-2.5-2.5-2.5h0C1.119,20.5,0,21.619,0,23l0,10.772C0,39.145,4.355,43.5,9.728,43.5h38.544
	c5.373,0,9.728-4.355,9.728-9.728V23c0-1.381-1.119-2.5-2.5-2.5h0C54.119,20.5,53,21.619,53,23z"/>
<polygon style="fill:#BFA380;" points="10,43.5 9,48.5 11,48.5 16,43.5 "/>
<polygon style="fill:#BFA380;" points="48,43.5 49,48.5 47,48.5 42,43.5 "/>
<path style="fill:#3EC15D;" d="M5,33.772C5,36.383,7.117,38.5,9.728,38.5H29v-4.75c0-1.795-1.455-3.25-3.25-3.25H11
	c-2.393,0-4.534,1.056-6,2.721V33.772z"/>
<path style="fill:#23A24D;" d="M53,33.772c0,2.611-2.117,4.728-4.728,4.728H29v-4.75c0-1.795,1.455-3.25,3.25-3.25H47
	c2.393,0,4.534,1.056,6,2.721V33.772z"/>
<g>
</g>
<g>
</g>
<g>
</g>
<g>
</g>
<g>
</g>
<g>
</g>
<g>
</g>
<g>
</g>
<g>
</g>
<g>
</g>
<g>
</g>
<g>
</g>
<g>
</g>
<g>
</g>
<g>
</g>
</svg>
