<?xml version="1.0" encoding="iso-8859-1"?>
<!-- Generator: Adobe Illustrator 18.0.0, SVG Export Plug-In . SVG Version: 6.00 Build 0)  -->
<!DOCTYPE svg PUBLIC "-//W3C//DTD SVG 1.1//EN" "http://www.w3.org/Graphics/SVG/1.1/DTD/svg11.dtd">
<svg version="1.1" id="Capa_1" xmlns="http://www.w3.org/2000/svg" xmlns:xlink="http://www.w3.org/1999/xlink" x="0px" y="0px"
	 viewBox="0 0 58 58" style="enable-background:new 0 0 58 58;" xml:space="preserve">
<polygon style="fill:#774836;" points="56,49 57,49 57,42 52,42 "/>
<polygon style="fill:#774836;" points="2,49 1,49 1,42 6,42 "/>
<rect y="34" style="fill:#4F5A2F;" width="58" height="8"/>
<path style="fill:#B6C967;" d="M54.541,30.805L54.541,30.805c1.763-0.183,3.169-1.45,3.42-3.08l0,0
	c0.269-1.748-0.863-3.421-2.677-3.954l0,0c-3.733-1.098-7.751-1.02-11.431,0.223l-4.459,1.506c-1.901,0.642-1.844,3.156,0.084,3.723
	l1.039,0.306C45.045,30.86,49.822,31.295,54.541,30.805z"/>
<path style="fill:#B6C967;" d="M3.459,30.805L3.459,30.805c-1.763-0.183-3.169-1.45-3.42-3.08l0,0
	c-0.269-1.748,0.863-3.421,2.677-3.954l0,0c3.733-1.098,7.751-1.02,11.431,0.223l4.459,1.506c1.901,0.642,1.844,3.156-0.084,3.723
	l-1.039,0.306C12.955,30.86,8.178,31.295,3.459,30.805z"/>
<path style="fill:#626F3D;" d="M14.147,23.993l4.459,1.506c1.204,0.407,1.617,1.563,1.272,2.501h18.245
	c-0.345-0.938,0.068-2.095,1.272-2.501l4.459-1.506c3.587-1.211,7.495-1.308,11.147-0.295v-9.943C55,11.129,52.871,9,50.245,9H7.755
	C5.129,9,3,11.129,3,13.755v9.943C6.652,22.685,10.56,22.781,14.147,23.993z"/>
<path style="fill:#394624;" d="M56.141,30.282c-0.477,0.273-1.016,0.462-1.6,0.522c-4.719,0.49-9.497,0.055-14.023-1.277
	l-1.039-0.306c-0.707-0.208-1.156-0.679-1.356-1.222H19.878c-0.2,0.543-0.649,1.014-1.356,1.222l-1.039,0.306
	c-4.527,1.332-9.304,1.767-14.023,1.277c-0.584-0.061-1.123-0.25-1.6-0.522L0,34h58L56.141,30.282z"/>
<g>
</g>
<g>
</g>
<g>
</g>
<g>
</g>
<g>
</g>
<g>
</g>
<g>
</g>
<g>
</g>
<g>
</g>
<g>
</g>
<g>
</g>
<g>
</g>
<g>
</g>
<g>
</g>
<g>
</g>
</svg>
