<?xml version="1.0" encoding="iso-8859-1"?>
<!-- Generator: Adobe Illustrator 18.0.0, SVG Export Plug-In . SVG Version: 6.00 Build 0)  -->
<!DOCTYPE svg PUBLIC "-//W3C//DTD SVG 1.1//EN" "http://www.w3.org/Graphics/SVG/1.1/DTD/svg11.dtd">
<svg version="1.1" id="Capa_1" xmlns="http://www.w3.org/2000/svg" xmlns:xlink="http://www.w3.org/1999/xlink" x="0px" y="0px"
	 viewBox="0 0 58 58" style="enable-background:new 0 0 58 58;" xml:space="preserve">
<path style="fill:#664C3B;" d="M52,25c0-1.657,1.343-3,3-3c0.353,0,0.686,0.072,1,0.184v-6.473C56,13.109,53.891,11,51.289,11H6.711
	C4.109,11,2,13.109,2,15.711v6.473C2.314,22.072,2.647,22,3,22c1.657,0,3,1.343,3,3v8h46V25z"/>
<rect x="6" y="33" style="fill:#543D30;" width="46" height="11"/>
<rect x="6" y="28" style="fill:#423026;" width="46" height="5"/>
<g>
	<path style="fill:#423026;" d="M47.787,20.373c0.425-0.866,0.425-1.88,0-2.747l0.92-0.92c0.391-0.391,0.391-1.023,0-1.414
		s-1.023-0.391-1.414,0l-0.928,0.928c-0.856-0.401-1.874-0.401-2.73,0l-0.928-0.928c-0.391-0.391-1.023-0.391-1.414,0
		s-0.391,1.023,0,1.414l0.92,0.92c-0.426,0.866-0.426,1.88,0,2.747l-0.92,0.92c-0.391,0.391-0.391,1.023,0,1.414
		C41.488,22.902,41.744,23,42,23s0.512-0.098,0.707-0.293l0.918-0.918c0.424,0.21,0.888,0.332,1.375,0.332
		c0.487,0,0.951-0.123,1.375-0.333l0.918,0.918C47.488,22.902,47.744,23,48,23s0.512-0.098,0.707-0.293
		c0.391-0.391,0.391-1.023,0-1.414L47.787,20.373z M44.207,19.793c-0.437-0.438-0.437-1.148,0-1.586
		c0.212-0.212,0.494-0.329,0.793-0.329s0.581,0.117,0.792,0.329c0.437,0.437,0.437,1.149,0,1.586
		C45.369,20.217,44.631,20.217,44.207,19.793z"/>
	<path style="fill:#423026;" d="M32.707,15.293c-0.391-0.391-1.023-0.391-1.414,0l-0.928,0.928c-0.856-0.401-1.874-0.401-2.73,0
		l-0.928-0.928c-0.391-0.391-1.023-0.391-1.414,0s-0.391,1.023,0,1.414l0.92,0.92c-0.426,0.866-0.426,1.88,0,2.747l-0.92,0.92
		c-0.391,0.391-0.391,1.023,0,1.414C25.488,22.902,25.744,23,26,23s0.512-0.098,0.707-0.293l0.918-0.918
		c0.424,0.21,0.888,0.332,1.375,0.332s0.951-0.123,1.375-0.332l0.918,0.918C31.488,22.902,31.744,23,32,23s0.512-0.098,0.707-0.293
		c0.391-0.391,0.391-1.023,0-1.414l-0.919-0.919c0.426-0.866,0.426-1.881,0-2.747l0.919-0.919
		C33.098,16.316,33.098,15.684,32.707,15.293z M28.207,19.793c-0.437-0.438-0.437-1.148,0-1.586
		c0.212-0.212,0.494-0.329,0.793-0.329s0.581,0.117,0.793,0.329c0.437,0.438,0.437,1.148,0,1.586
		C29.369,20.217,28.631,20.217,28.207,19.793z"/>
	<path style="fill:#423026;" d="M16.707,15.293c-0.391-0.391-1.023-0.391-1.414,0l-0.928,0.928c-0.856-0.401-1.874-0.401-2.73,0
		l-0.928-0.928c-0.391-0.391-1.023-0.391-1.414,0s-0.391,1.023,0,1.414l0.92,0.92c-0.426,0.866-0.426,1.88,0,2.747l-0.92,0.92
		c-0.391,0.391-0.391,1.023,0,1.414C9.488,22.902,9.744,23,10,23s0.512-0.098,0.707-0.293l0.918-0.918
		c0.424,0.21,0.888,0.332,1.375,0.332s0.951-0.123,1.375-0.332l0.918,0.918C15.488,22.902,15.744,23,16,23s0.512-0.098,0.707-0.293
		c0.391-0.391,0.391-1.023,0-1.414l-0.919-0.919c0.426-0.866,0.426-1.881,0-2.747l0.919-0.919
		C17.098,16.316,17.098,15.684,16.707,15.293z M12.207,19.793c-0.437-0.438-0.437-1.148,0-1.586
		c0.212-0.212,0.494-0.329,0.793-0.329s0.581,0.117,0.793,0.329c0.437,0.438,0.437,1.148,0,1.586
		C13.369,20.217,12.631,20.217,12.207,19.793z"/>
</g>
<path style="fill:#423026;" d="M6,44H0V25c0-1.657,1.343-3,3-3h0c1.657,0,3,1.343,3,3V44z"/>
<path style="fill:#423026;" d="M58,44h-6V25c0-1.657,1.343-3,3-3h0c1.657,0,3,1.343,3,3V44z"/>
<rect x="1" y="44" style="fill:#9E6C53;" width="4" height="3"/>
<rect x="53" y="44" style="fill:#9E6C53;" width="4" height="3"/>
<rect x="28" y="33" style="fill:#423026;" width="2" height="11"/>
<g>
</g>
<g>
</g>
<g>
</g>
<g>
</g>
<g>
</g>
<g>
</g>
<g>
</g>
<g>
</g>
<g>
</g>
<g>
</g>
<g>
</g>
<g>
</g>
<g>
</g>
<g>
</g>
<g>
</g>
</svg>
