<?xml version="1.0" encoding="iso-8859-1"?>
<!-- Generator: Adobe Illustrator 18.0.0, SVG Export Plug-In . SVG Version: 6.00 Build 0)  -->
<!DOCTYPE svg PUBLIC "-//W3C//DTD SVG 1.1//EN" "http://www.w3.org/Graphics/SVG/1.1/DTD/svg11.dtd">
<svg version="1.1" id="Capa_1" xmlns="http://www.w3.org/2000/svg" xmlns:xlink="http://www.w3.org/1999/xlink" x="0px" y="0px"
	 viewBox="0 0 58 58" style="enable-background:new 0 0 58 58;" xml:space="preserve">
<polygon style="fill:#FEDBB5;" points="6,43.037 5,48.037 7,48.037 12,43.037 "/>
<polygon style="fill:#FEDBB5;" points="52,43.037 53,48.037 51,48.037 46,43.037 "/>
<path style="fill:#ED3E3E;" d="M56.432,35.037h-0.211c-1.172,1.23-2.821,2-4.654,2H48H10H6.432c-1.833,0-3.482-0.77-4.654-2H1.568
	C0.702,35.037,0,35.739,0,36.605c0,3.552,2.88,6.432,6.432,6.432H10h38h3.568c3.552,0,6.432-2.88,6.432-6.432
	C58,35.739,57.298,35.037,56.432,35.037z"/>
<path style="fill:#DD352E;" d="M54.454,31.761c-2.562,1.467-10.207,3.525-10.661,1.276H14.206
	c-0.453,2.249-8.098,0.191-10.661-1.276c-1.613,0.812-2.845,2.264-3.321,4.046c0.273-0.46,0.77-0.771,1.343-0.771h0.211
	c1.172,1.23,2.821,2,4.654,2H10h38h3.568c1.833,0,3.482-0.77,4.654-2h0.211c0.573,0,1.07,0.311,1.343,0.771
	C57.299,34.026,56.068,32.573,54.454,31.761z"/>
<g>
	<path style="fill:#B02721;" d="M53,19.037H30c-6.167,0-7.011-1.845-9.32-4.507C16.225,9.392,8.479,8.303,3.321,12.736
		c-0.21,0.181-0.409,0.368-0.597,0.558C0.898,15.15,0,17.729,0,20.333v16.272c0-0.292,0.085-0.563,0.225-0.797l0,0
		c0.476-1.782,1.708-3.235,3.321-4.046c2.562,1.467,10.207,3.525,10.661,1.276h29.587c0.453,2.249,8.098,0.191,10.661-1.276
		c1.613,0.812,2.845,2.264,3.321,4.046l0,0C57.915,36.042,58,36.312,58,36.605c0-2.402,0-10.182,0-12.568
		C58,21.276,55.761,19.037,53,19.037z"/>
</g>
<path style="fill:#E7ECED;" d="M54.943,31.442c1.504-1.177,1.405-4.33-0.305-5.178c-0.235-0.117-0.476-0.192-0.717-0.218h0
	c-0.025-0.003-0.05-0.005-0.075-0.008c-3.296-0.333-8.436,2.902-9.846,5.9C42.045,36.097,52.865,33.067,54.943,31.442z"/>
<path style="fill:#E7ECED;" d="M3.058,31.442c-1.504-1.177-1.405-4.33,0.305-5.178c0.235-0.117,0.476-0.192,0.717-0.218h0
	c0.025-0.003,0.05-0.005,0.075-0.008c3.296-0.333,8.436,2.902,9.846,5.9C15.955,36.097,5.135,33.067,3.058,31.442z"/>
<g>
</g>
<g>
</g>
<g>
</g>
<g>
</g>
<g>
</g>
<g>
</g>
<g>
</g>
<g>
</g>
<g>
</g>
<g>
</g>
<g>
</g>
<g>
</g>
<g>
</g>
<g>
</g>
<g>
</g>
</svg>
