<?xml version="1.0" encoding="iso-8859-1"?>
<!-- Generator: Adobe Illustrator 18.0.0, SVG Export Plug-In . SVG Version: 6.00 Build 0)  -->
<!DOCTYPE svg PUBLIC "-//W3C//DTD SVG 1.1//EN" "http://www.w3.org/Graphics/SVG/1.1/DTD/svg11.dtd">
<svg version="1.1" id="Capa_1" xmlns="http://www.w3.org/2000/svg" xmlns:xlink="http://www.w3.org/1999/xlink" x="0px" y="0px"
	 viewBox="0 0 58 58" style="enable-background:new 0 0 58 58;" xml:space="preserve">
<path style="fill:#D8D8D8;" d="M48.078,11h-14.25c-1.811,0-3.548,0.719-4.828,2l0,0l0,0c-1.281-1.281-3.017-2-4.828-2H9.922
	C5.547,11,2,14.547,2,18.922v3.262c0.654-0.232,1.39-0.293,2.211,0.11C5.336,22.845,6,24.046,6,25.3L6,33h46v-7.7
	c0-1.253,0.664-2.455,1.789-3.007c0.821-0.403,1.557-0.342,2.211-0.11v-3.262C56,14.547,52.453,11,48.078,11z"/>
<rect x="6" y="33" style="fill:#D8D8D8;" width="46" height="11"/>
<g>
	<path style="fill:#EBEBEB;" d="M29,23c-0.553,0-1,0.448-1,1v1c0,0.552,0.447,1,1,1s1-0.448,1-1v-1C30,23.448,29.553,23,29,23z"/>
	<path style="fill:#EBEBEB;" d="M29,19c-0.553,0-1,0.448-1,1v1c0,0.552,0.447,1,1,1s1-0.448,1-1v-1C30,19.448,29.553,19,29,19z"/>
	<path style="fill:#EBEBEB;" d="M29,15c-0.553,0-1,0.448-1,1v1c0,0.552,0.447,1,1,1s1-0.448,1-1v-1C30,15.448,29.553,15,29,15z"/>
</g>
<g>
	<circle style="fill:#C4C3C2;" cx="8" cy="36" r="1"/>
	<circle style="fill:#C4C3C2;" cx="8" cy="42" r="1"/>
	<circle style="fill:#C4C3C2;" cx="11" cy="39" r="1"/>
	<circle style="fill:#C4C3C2;" cx="17" cy="39" r="1"/>
	<circle style="fill:#C4C3C2;" cx="14" cy="36" r="1"/>
	<circle style="fill:#C4C3C2;" cx="20" cy="36" r="1"/>
	<circle style="fill:#C4C3C2;" cx="14" cy="42" r="1"/>
	<circle style="fill:#C4C3C2;" cx="20" cy="42" r="1"/>
	<circle style="fill:#C4C3C2;" cx="23" cy="39" r="1"/>
	<circle style="fill:#C4C3C2;" cx="29" cy="39" r="1"/>
	<circle style="fill:#C4C3C2;" cx="26" cy="36" r="1"/>
	<circle style="fill:#C4C3C2;" cx="32" cy="36" r="1"/>
	<circle style="fill:#C4C3C2;" cx="26" cy="42" r="1"/>
	<circle style="fill:#C4C3C2;" cx="32" cy="42" r="1"/>
	<circle style="fill:#C4C3C2;" cx="35" cy="39" r="1"/>
	<circle style="fill:#C4C3C2;" cx="41" cy="39" r="1"/>
	<circle style="fill:#C4C3C2;" cx="38" cy="36" r="1"/>
	<circle style="fill:#C4C3C2;" cx="44" cy="36" r="1"/>
	<circle style="fill:#C4C3C2;" cx="38" cy="42" r="1"/>
	<circle style="fill:#C4C3C2;" cx="44" cy="42" r="1"/>
	<circle style="fill:#C4C3C2;" cx="47" cy="39" r="1"/>
	<circle style="fill:#C4C3C2;" cx="50" cy="36" r="1"/>
	<circle style="fill:#C4C3C2;" cx="50" cy="42" r="1"/>
</g>
<path style="fill:#ADA8A3;" d="M6,44H0V25c0-1.657,1.343-3,3-3h0c1.657,0,3,1.343,3,3V44z"/>
<path style="fill:#ADA8A3;" d="M58,44h-6V25c0-1.657,1.343-3,3-3h0c1.657,0,3,1.343,3,3V44z"/>
<rect x="1" y="44" style="fill:#673D2F;" width="4" height="3"/>
<rect x="53" y="44" style="fill:#673D2F;" width="4" height="3"/>
<path style="fill:#C4C3C2;" d="M29,30L29,30L29,30c-1.281-1.281-3.017-2-4.828-2H6v5h46v-5H33.828C32.017,28,30.281,28.719,29,30z"
	/>
<g>
</g>
<g>
</g>
<g>
</g>
<g>
</g>
<g>
</g>
<g>
</g>
<g>
</g>
<g>
</g>
<g>
</g>
<g>
</g>
<g>
</g>
<g>
</g>
<g>
</g>
<g>
</g>
<g>
</g>
</svg>
