<?xml version="1.0" encoding="iso-8859-1"?>
<!-- Generator: Adobe Illustrator 18.0.0, SVG Export Plug-In . SVG Version: 6.00 Build 0)  -->
<!DOCTYPE svg PUBLIC "-//W3C//DTD SVG 1.1//EN" "http://www.w3.org/Graphics/SVG/1.1/DTD/svg11.dtd">
<svg version="1.1" id="Capa_1" xmlns="http://www.w3.org/2000/svg" xmlns:xlink="http://www.w3.org/1999/xlink" x="0px" y="0px"
	 viewBox="0 0 58 58" style="enable-background:new 0 0 58 58;" xml:space="preserve">
<path style="fill:#B02721;" d="M10,26v9h38v-9c0-2.757,2.243-5,5-5v-5.928C53,13.376,51.624,12,49.928,12H8.072
	C6.376,12,5,13.376,5,15.072V21C7.757,21,10,23.243,10,26z"/>
<path style="fill:#DD352E;" d="M5,21c-2.757,0-5,2.243-5,5s2.243,5,5,5v15h5V26C10,23.243,7.757,21,5,21z"/>
<path style="fill:#DD352E;" d="M48,26v20h5V31c2.757,0,5-2.243,5-5s-2.243-5-5-5S48,23.243,48,26z"/>
<rect x="10" y="35" style="fill:#B02721;" width="38" height="9"/>
<rect x="10" y="30" style="fill:#6C2027;" width="38" height="5"/>
<path style="fill:none;stroke:#6C2027;stroke-width:2;stroke-linecap:round;stroke-miterlimit:10;" d="M37.5,22.5L37.5,22.5
	c-0.828-0.828-0.828-2.172,0-3v0c0.828-0.828,2.172-0.828,3,0v0c0.828,0.828,0.828,2.172,0,3v0
	C39.672,23.328,38.328,23.328,37.5,22.5z"/>
<line style="fill:none;stroke:#6C2027;stroke-width:2;stroke-linecap:round;stroke-miterlimit:10;" x1="42" y1="24" x2="40.5" y2="22.5"/>
<line style="fill:none;stroke:#6C2027;stroke-width:2;stroke-linecap:round;stroke-miterlimit:10;" x1="42" y1="18" x2="40.5" y2="19.5"/>
<line style="fill:none;stroke:#6C2027;stroke-width:2;stroke-linecap:round;stroke-miterlimit:10;" x1="36" y1="18" x2="37.5" y2="19.5"/>
<line style="fill:none;stroke:#6C2027;stroke-width:2;stroke-linecap:round;stroke-miterlimit:10;" x1="36" y1="24" x2="37.5" y2="22.5"/>
<path style="fill:none;stroke:#6C2027;stroke-width:2;stroke-linecap:round;stroke-miterlimit:10;" d="M17.5,22.5L17.5,22.5
	c-0.828-0.828-0.828-2.172,0-3l0,0c0.828-0.828,2.172-0.828,3,0l0,0c0.828,0.828,0.828,2.172,0,3l0,0
	C19.672,23.328,18.328,23.328,17.5,22.5z"/>
<line style="fill:none;stroke:#6C2027;stroke-width:2;stroke-linecap:round;stroke-miterlimit:10;" x1="22" y1="24" x2="20.5" y2="22.5"/>
<line style="fill:none;stroke:#6C2027;stroke-width:2;stroke-linecap:round;stroke-miterlimit:10;" x1="22" y1="18" x2="20.5" y2="19.5"/>
<line style="fill:none;stroke:#6C2027;stroke-width:2;stroke-linecap:round;stroke-miterlimit:10;" x1="16" y1="18" x2="17.5" y2="19.5"/>
<line style="fill:none;stroke:#6C2027;stroke-width:2;stroke-linecap:round;stroke-miterlimit:10;" x1="16" y1="24" x2="17.5" y2="22.5"/>
<path style="fill:#B02721;" d="M54,25c-0.552,0-1,0.448-1,1v5c0.712,0,1.386-0.154,2-0.424V26C55,25.448,54.552,25,54,25z"/>
<path style="fill:#B02721;" d="M5,31v-5c0-0.552-0.448-1-1-1s-1,0.448-1,1v4.576C3.614,30.846,4.288,31,5,31z"/>
<g>
</g>
<g>
</g>
<g>
</g>
<g>
</g>
<g>
</g>
<g>
</g>
<g>
</g>
<g>
</g>
<g>
</g>
<g>
</g>
<g>
</g>
<g>
</g>
<g>
</g>
<g>
</g>
<g>
</g>
</svg>
