<?xml version="1.0" encoding="iso-8859-1"?>
<!-- Generator: Adobe Illustrator 18.0.0, SVG Export Plug-In . SVG Version: 6.00 Build 0)  -->
<!DOCTYPE svg PUBLIC "-//W3C//DTD SVG 1.1//EN" "http://www.w3.org/Graphics/SVG/1.1/DTD/svg11.dtd">
<svg version="1.1" id="Capa_1" xmlns="http://www.w3.org/2000/svg" xmlns:xlink="http://www.w3.org/1999/xlink" x="0px" y="0px"
	 viewBox="0 0 59 59" style="enable-background:new 0 0 59 59;" xml:space="preserve">
<rect x="41.5" y="42" style="fill:#845C46;stroke:#553323;stroke-width:2;stroke-miterlimit:10;" width="16" height="8"/>
<rect x="1.5" y="42" style="fill:#845C46;stroke:#553323;stroke-width:2;stroke-miterlimit:10;" width="16" height="8"/>
<rect x="0.5" y="22" style="fill:#845C46;" width="58" height="4"/>
<rect x="1.5" y="26" style="fill:#845C46;stroke:#553323;stroke-width:2;stroke-miterlimit:10;" width="56" height="8"/>
<rect x="17.5" y="26" style="fill:#845C46;stroke:#553323;stroke-width:2;stroke-miterlimit:10;" width="24" height="8"/>
<path style="fill:#D7B740;" d="M31.5,31h-4c-0.553,0-1-0.447-1-1s0.447-1,1-1h4c0.553,0,1,0.447,1,1S32.053,31,31.5,31z"/>
<path style="fill:#D7B740;" d="M11.5,47h-4c-0.553,0-1-0.447-1-1s0.447-1,1-1h4c0.553,0,1,0.447,1,1S12.053,47,11.5,47z"/>
<path style="fill:#D7B740;" d="M51.5,47h-4c-0.553,0-1-0.447-1-1s0.447-1,1-1h4c0.553,0,1,0.447,1,1S52.053,47,51.5,47z"/>
<rect x="41.5" y="34" style="fill:#845C46;stroke:#553323;stroke-width:2;stroke-miterlimit:10;" width="16" height="8"/>
<rect x="1.5" y="34" style="fill:#845C46;stroke:#553323;stroke-width:2;stroke-miterlimit:10;" width="16" height="8"/>
<rect x="41.5" y="50" style="fill:#845C46;stroke:#553323;stroke-width:2;stroke-miterlimit:10;" width="16" height="8"/>
<rect x="1.5" y="50" style="fill:#845C46;stroke:#553323;stroke-width:2;stroke-miterlimit:10;" width="16" height="8"/>
<rect x="17.5" y="1" style="fill:#7383BF;stroke:#556080;stroke-width:2;stroke-linecap:round;stroke-miterlimit:10;" width="24" height="17"/>
<line style="fill:none;stroke:#556080;stroke-width:2;stroke-miterlimit:10;" x1="29.5" y1="18" x2="29.5" y2="22"/>
<rect x="52.5" y="10" style="fill:#23A24D;" width="4" height="12"/>
<rect x="48.5" y="12" style="fill:#88C057;" width="4" height="10"/>
<path style="fill:#D7B740;" d="M11.5,39h-4c-0.553,0-1-0.447-1-1s0.447-1,1-1h4c0.553,0,1,0.447,1,1S12.053,39,11.5,39z"/>
<path style="fill:#D7B740;" d="M11.5,55h-4c-0.553,0-1-0.447-1-1s0.447-1,1-1h4c0.553,0,1,0.447,1,1S12.053,55,11.5,55z"/>
<path style="fill:#D7B740;" d="M51.5,39h-4c-0.553,0-1-0.447-1-1s0.447-1,1-1h4c0.553,0,1,0.447,1,1S52.053,39,51.5,39z"/>
<path style="fill:#D7B740;" d="M51.5,55h-4c-0.553,0-1-0.447-1-1s0.447-1,1-1h4c0.553,0,1,0.447,1,1S52.053,55,51.5,55z"/>
<path style="fill:none;stroke:#7383BF;stroke-width:2;stroke-linecap:round;stroke-miterlimit:10;" d="M6.5,20h2
	c1.105,0,2-0.895,2-2s-0.895-2-2-2h-2"/>
<rect x="2.5" y="15" style="fill:#7383BF;" width="5" height="7"/>
<path style="fill:none;stroke:#C7CAC7;stroke-width:2;stroke-linecap:round;stroke-miterlimit:10;" d="M5.345,9.536
	c1.206,0.5,1.206,1.309,0,1.809c-1.206,0.5-1.206,1.309,0,1.809"/>
<g>
</g>
<g>
</g>
<g>
</g>
<g>
</g>
<g>
</g>
<g>
</g>
<g>
</g>
<g>
</g>
<g>
</g>
<g>
</g>
<g>
</g>
<g>
</g>
<g>
</g>
<g>
</g>
<g>
</g>
</svg>
