<?xml version="1.0" encoding="iso-8859-1"?>
<!-- Generator: Adobe Illustrator 18.0.0, SVG Export Plug-In . SVG Version: 6.00 Build 0)  -->
<!DOCTYPE svg PUBLIC "-//W3C//DTD SVG 1.1//EN" "http://www.w3.org/Graphics/SVG/1.1/DTD/svg11.dtd">
<svg version="1.1" id="Capa_1" xmlns="http://www.w3.org/2000/svg" xmlns:xlink="http://www.w3.org/1999/xlink" x="0px" y="0px"
	 viewBox="0 0 60 60" style="enable-background:new 0 0 60 60;" xml:space="preserve">
<rect x="18" y="23.232" style="fill:#382016;" width="24" height="7"/>
<path style="fill:#382016;" d="M7.352,35.232c-1.46,1.093-3.012,4.482-2.352,9c0.792,5.417-1.139,6.991-1.11,7l-2.89,4h1
	c5,0,7.115-7.711,7-11c-0.25-7.125,3.726-9,3.726-9H7.352z"/>
<path style="fill:#382016;" d="M52.648,35.232c1.46,1.093,3.012,4.482,2.352,9c-0.792,5.417,1.139,6.991,1.11,7l2.89,4h-1
	c-5,0-7.115-7.711-7-11c0.25-7.125-3.726-9-3.726-9H52.648z"/>
<rect x="2" y="19.232" style="fill:#845C46;stroke:#553323;stroke-width:2;stroke-miterlimit:10;" width="16" height="8"/>
<rect x="42" y="19.232" style="fill:#845C46;stroke:#553323;stroke-width:2;stroke-miterlimit:10;" width="16" height="8"/>
<rect x="2" y="27.232" style="fill:#845C46;stroke:#553323;stroke-width:2;stroke-miterlimit:10;" width="16" height="8"/>
<rect x="42" y="27.232" style="fill:#845C46;stroke:#553323;stroke-width:2;stroke-miterlimit:10;" width="16" height="8"/>
<g>
	<path style="fill:#D7B740;" d="M12,22.232H8c-0.553,0-1,0.447-1,1s0.447,1,1,1h4c0.553,0,1-0.447,1-1S12.553,22.232,12,22.232z"/>
	<path style="fill:#D7B740;" d="M12,30.232H8c-0.553,0-1,0.447-1,1s0.447,1,1,1h4c0.553,0,1-0.447,1-1S12.553,30.232,12,30.232z"/>
	<path style="fill:#D7B740;" d="M48,24.232h4c0.553,0,1-0.447,1-1s-0.447-1-1-1h-4c-0.553,0-1,0.447-1,1S47.447,24.232,48,24.232z"
		/>
	<path style="fill:#D7B740;" d="M52,30.232h-4c-0.553,0-1,0.447-1,1s0.447,1,1,1h4c0.553,0,1-0.447,1-1S52.553,30.232,52,30.232z"/>
</g>
<rect x="1.5" y="15.232" style="fill:#EBBA16;" width="12" height="3"/>
<rect x="3" y="12.232" style="fill:#DD352E;" width="9" height="3"/>
<rect x="21" y="5.232" style="fill:#E7ECED;" width="18" height="11"/>
<rect x="20" y="16.232" style="fill:#AFB6BB;" width="20" height="2"/>
<path style="fill:none;stroke:#7383BF;stroke-width:2;stroke-linecap:round;stroke-miterlimit:10;" d="M54,16.232h2
	c1.105,0,2-0.895,2-2s-0.895-2-2-2h-2"/>
<rect x="50" y="11.232" style="fill:#7383BF;" width="5" height="7"/>
<path style="fill:none;stroke:#C7CAC7;stroke-width:2;stroke-linecap:round;stroke-miterlimit:10;" d="M52.845,5.768
	c1.206,0.5,1.206,1.309,0,1.809c-1.206,0.5-1.206,1.309,0,1.809"/>
<rect x="23" y="7.232" style="fill:#556080;" width="14" height="9"/>
<rect x="19" y="20.232" style="fill:#1E110D;" width="22" height="3"/>
<path style="fill:#382016;" d="M59,20.232H1c-0.553,0-1-0.447-1-1s0.447-1,1-1h58c0.553,0,1,0.447,1,1S59.553,20.232,59,20.232z"/>
<g>
</g>
<g>
</g>
<g>
</g>
<g>
</g>
<g>
</g>
<g>
</g>
<g>
</g>
<g>
</g>
<g>
</g>
<g>
</g>
<g>
</g>
<g>
</g>
<g>
</g>
<g>
</g>
<g>
</g>
</svg>
