<?xml version="1.0" encoding="iso-8859-1"?>
<!-- Generator: Adobe Illustrator 18.0.0, SVG Export Plug-In . SVG Version: 6.00 Build 0)  -->
<!DOCTYPE svg PUBLIC "-//W3C//DTD SVG 1.1//EN" "http://www.w3.org/Graphics/SVG/1.1/DTD/svg11.dtd">
<svg version="1.1" id="Capa_1" xmlns="http://www.w3.org/2000/svg" xmlns:xlink="http://www.w3.org/1999/xlink" x="0px" y="0px"
	 viewBox="0 0 58 58" style="enable-background:new 0 0 58 58;" xml:space="preserve">
<rect x="53" y="19" style="fill:#ED8A19;" width="3" height="9"/>
<rect x="50" y="19" style="fill:#EBBA16;" width="3" height="9"/>
<path style="fill:#546A79;" d="M46,19H12V1.342C12,0.601,12.601,0,13.342,0h31.316C45.399,0,46,0.601,46,1.342V19z"/>
<rect x="27" y="23" style="fill:#AFB6BB;" width="4" height="5"/>
<path style="fill:#E7ECED;" d="M44.658,25H13.342C12.601,25,12,24.399,12,23.658V19h34v4.658C46,24.399,45.399,25,44.658,25z"/>
<polygon style="fill:#553323;" points="58,28 56,28 51.487,28 6.513,28 2,28 0,28 0,32 2,32 2,58 4.513,58 6.246,32 51.754,32 
	53.487,58 56,58 56,32 58,32 "/>
<g>
</g>
<g>
</g>
<g>
</g>
<g>
</g>
<g>
</g>
<g>
</g>
<g>
</g>
<g>
</g>
<g>
</g>
<g>
</g>
<g>
</g>
<g>
</g>
<g>
</g>
<g>
</g>
<g>
</g>
</svg>
