<?xml version="1.0" encoding="iso-8859-1"?>
<!-- Generator: Adobe Illustrator 18.0.0, SVG Export Plug-In . SVG Version: 6.00 Build 0)  -->
<!DOCTYPE svg PUBLIC "-//W3C//DTD SVG 1.1//EN" "http://www.w3.org/Graphics/SVG/1.1/DTD/svg11.dtd">
<svg version="1.1" id="Capa_1" xmlns="http://www.w3.org/2000/svg" xmlns:xlink="http://www.w3.org/1999/xlink" x="0px" y="0px"
	 viewBox="0 0 58 58" style="enable-background:new 0 0 58 58;" xml:space="preserve">
<rect x="13" y="3.5" style="fill:#E65252;" width="32" height="54"/>
<polygon style="fill:#DBD6D2;" points="13,57.5 10,57.5 10,0.5 13,3.5 "/>
<polygon style="fill:#DBD6D2;" points="45,57.5 48,57.5 48,0.5 45,3.5 "/>
<polygon style="fill:#FBF6F2;" points="45,3.5 13,3.5 10,0.5 48,0.5 "/>
<rect y="54.5" style="fill:#BFA380;" width="10" height="3"/>
<rect x="48" y="54.5" style="fill:#BFA380;" width="10" height="3"/>
<rect x="18" y="8.5" style="fill:#9B3838;" width="22" height="8"/>
<rect x="18" y="44.5" style="fill:#9B3838;" width="22" height="8"/>
<polygon style="fill:#9B3838;" points="35,33.5 35,32.5 18,32.5 18,40.5 40,40.5 40,33.5 "/>
<polygon style="fill:#9B3838;" points="35,27.5 40,27.5 40,20.5 18,20.5 18,28.5 35,28.5 "/>
<path style="fill:#CFBB42;" d="M42,31.5h-4c-0.552,0-1-0.447-1-1s0.448-1,1-1h4c0.552,0,1,0.447,1,1S42.552,31.5,42,31.5z"/>
<g>
</g>
<g>
</g>
<g>
</g>
<g>
</g>
<g>
</g>
<g>
</g>
<g>
</g>
<g>
</g>
<g>
</g>
<g>
</g>
<g>
</g>
<g>
</g>
<g>
</g>
<g>
</g>
<g>
</g>
</svg>
