<?xml version="1.0" encoding="iso-8859-1"?>
<!-- Generator: Adobe Illustrator 18.0.0, SVG Export Plug-In . SVG Version: 6.00 Build 0)  -->
<!DOCTYPE svg PUBLIC "-//W3C//DTD SVG 1.1//EN" "http://www.w3.org/Graphics/SVG/1.1/DTD/svg11.dtd">
<svg version="1.1" id="Capa_1" xmlns="http://www.w3.org/2000/svg" xmlns:xlink="http://www.w3.org/1999/xlink" x="0px" y="0px"
	 viewBox="0 0 58 58" style="enable-background:new 0 0 58 58;" xml:space="preserve">
<rect x="1" style="fill:#332C25;" width="56" height="58"/>
<rect x="5" y="4" style="fill:#6B5B4B;" width="24" height="54"/>
<rect x="9" y="8" style="fill:#7FABDA;" width="16" height="30"/>
<rect x="9" y="42" style="fill:#7FABDA;stroke:#332C25;stroke-width:2;stroke-linecap:round;stroke-miterlimit:10;" width="16" height="12"/>
<path style="fill:#332C25;" d="M25,27h-7v-8h7c0.553,0,1-0.447,1-1s-0.447-1-1-1h-7V8c0-0.553-0.447-1-1-1s-1,0.447-1,1v9H9
	c-0.553,0-1,0.447-1,1s0.447,1,1,1h7v8H9c-0.553,0-1,0.447-1,1s0.447,1,1,1h7v9c0,0.553,0.447,1,1,1s1-0.447,1-1v-9h7
	c0.553,0,1-0.447,1-1S25.553,27,25,27z"/>
<rect x="29" y="4" style="fill:#4F4337;" width="24" height="54"/>
<rect x="33" y="8" style="fill:#7FABDA;stroke:#332C25;stroke-width:2;stroke-linecap:round;stroke-miterlimit:10;" width="16" height="30"/>
<rect x="33" y="42" style="fill:#7FABDA;stroke:#332C25;stroke-width:2;stroke-linecap:round;stroke-miterlimit:10;" width="16" height="12"/>
<g>
	<line style="fill:#332C25;" x1="33" y1="28" x2="49" y2="28"/>
	<path style="fill:#332C25;" d="M49,29H33c-0.553,0-1-0.447-1-1s0.447-1,1-1h16c0.553,0,1,0.447,1,1S49.553,29,49,29z"/>
</g>
<g>
	<line style="fill:#332C25;" x1="33" y1="18" x2="49" y2="18"/>
	<path style="fill:#332C25;" d="M49,19H33c-0.553,0-1-0.447-1-1s0.447-1,1-1h16c0.553,0,1,0.447,1,1S49.553,19,49,19z"/>
</g>
<g>
	<line style="fill:#332C25;" x1="41" y1="8" x2="41" y2="38"/>
	<path style="fill:#332C25;" d="M41,39c-0.553,0-1-0.447-1-1V8c0-0.553,0.447-1,1-1s1,0.447,1,1v30C42,38.553,41.553,39,41,39z"/>
</g>
<path style="fill:#A0CAEF;" d="M36,50c-0.256,0-0.512-0.098-0.707-0.293c-0.391-0.391-0.391-1.023,0-1.414l2-2
	c0.391-0.391,1.023-0.391,1.414,0s0.391,1.023,0,1.414l-2,2C36.512,49.902,36.256,50,36,50z"/>
<path style="fill:#A0CAEF;" d="M12,50c-0.256,0-0.512-0.098-0.707-0.293c-0.391-0.391-0.391-1.023,0-1.414l2-2
	c0.391-0.391,1.023-0.391,1.414,0s0.391,1.023,0,1.414l-2,2C12.512,49.902,12.256,50,12,50z"/>
<circle style="fill:#A0CAEF;" cx="36" cy="45" r="1"/>
<circle style="fill:#A0CAEF;" cx="40" cy="45" r="1"/>
<circle style="fill:#A0CAEF;" cx="12" cy="45" r="1"/>
<circle style="fill:#A0CAEF;" cx="16" cy="45" r="1"/>
<path style="fill:#332C25;" d="M26,39H8V7h18V39z M10,37h14V9H10V37z"/>
<g>
</g>
<g>
</g>
<g>
</g>
<g>
</g>
<g>
</g>
<g>
</g>
<g>
</g>
<g>
</g>
<g>
</g>
<g>
</g>
<g>
</g>
<g>
</g>
<g>
</g>
<g>
</g>
<g>
</g>
</svg>
