<?xml version="1.0" encoding="iso-8859-1"?>
<!-- Generator: Adobe Illustrator 18.0.0, SVG Export Plug-In . SVG Version: 6.00 Build 0)  -->
<!DOCTYPE svg PUBLIC "-//W3C//DTD SVG 1.1//EN" "http://www.w3.org/Graphics/SVG/1.1/DTD/svg11.dtd">
<svg version="1.1" id="Capa_1" xmlns="http://www.w3.org/2000/svg" xmlns:xlink="http://www.w3.org/1999/xlink" x="0px" y="0px"
	 viewBox="0 0 55 55" style="enable-background:new 0 0 55 55;" xml:space="preserve">
<rect x="4" style="fill:#124BA0;" width="37" height="55"/>
<rect x="7" y="3" style="fill:#569CEF;" width="31" height="49"/>
<rect x="10" y="6" style="fill:#3173D1;" width="10" height="20"/>
<rect x="25" y="6" style="fill:#3173D1;" width="10" height="20"/>
<rect x="10" y="32" style="fill:#3173D1;" width="10" height="17"/>
<rect x="25" y="32" style="fill:#3173D1;" width="10" height="17"/>
<line style="fill:none;stroke:#E7ECED;stroke-width:2;stroke-linecap:round;stroke-miterlimit:10;" x1="35" y1="29" x2="32" y2="29"/>
<rect x="41" style="fill:#7FABDA;" width="10" height="11"/>
<rect x="41" y="11" style="fill:#A1C8EC;" width="10" height="11"/>
<rect x="41" y="22" style="fill:#7FABDA;" width="10" height="11"/>
<rect x="41" y="33" style="fill:#A1C8EC;" width="10" height="11"/>
<rect x="41" y="44" style="fill:#7FABDA;" width="10" height="11"/>
<path style="fill:#A8CDEF;" d="M44,8c-0.256,0-0.512-0.098-0.707-0.293c-0.391-0.391-0.391-1.023,0-1.414l2-2
	c0.391-0.391,1.023-0.391,1.414,0s0.391,1.023,0,1.414l-2,2C44.512,7.902,44.256,8,44,8z"/>
<path style="fill:#A8CDEF;" d="M44,19c-0.256,0-0.512-0.098-0.707-0.293c-0.391-0.391-0.391-1.023,0-1.414l2-2
	c0.391-0.391,1.023-0.391,1.414,0s0.391,1.023,0,1.414l-2,2C44.512,18.902,44.256,19,44,19z"/>
<path style="fill:#A8CDEF;" d="M44,30c-0.256,0-0.512-0.098-0.707-0.293c-0.391-0.391-0.391-1.023,0-1.414l2-2
	c0.391-0.391,1.023-0.391,1.414,0s0.391,1.023,0,1.414l-2,2C44.512,29.902,44.256,30,44,30z"/>
<path style="fill:#A8CDEF;" d="M44,41c-0.256,0-0.512-0.098-0.707-0.293c-0.391-0.391-0.391-1.023,0-1.414l2-2
	c0.391-0.391,1.023-0.391,1.414,0s0.391,1.023,0,1.414l-2,2C44.512,40.902,44.256,41,44,41z"/>
<path style="fill:#A8CDEF;" d="M44,52c-0.256,0-0.512-0.098-0.707-0.293c-0.391-0.391-0.391-1.023,0-1.414l2-2
	c0.391-0.391,1.023-0.391,1.414,0s0.391,1.023,0,1.414l-2,2C44.512,51.902,44.256,52,44,52z"/>
<circle style="fill:#A8CDEF;" cx="44" cy="3" r="1"/>
<circle style="fill:#A8CDEF;" cx="48" cy="3" r="1"/>
<circle style="fill:#A8CDEF;" cx="44" cy="14" r="1"/>
<circle style="fill:#A8CDEF;" cx="48" cy="14" r="1"/>
<circle style="fill:#A8CDEF;" cx="44" cy="25" r="1"/>
<circle style="fill:#A8CDEF;" cx="48" cy="25" r="1"/>
<circle style="fill:#A8CDEF;" cx="44" cy="36" r="1"/>
<circle style="fill:#A8CDEF;" cx="48" cy="36" r="1"/>
<circle style="fill:#A8CDEF;" cx="44" cy="47" r="1"/>
<circle style="fill:#A8CDEF;" cx="48" cy="47" r="1"/>
<g>
</g>
<g>
</g>
<g>
</g>
<g>
</g>
<g>
</g>
<g>
</g>
<g>
</g>
<g>
</g>
<g>
</g>
<g>
</g>
<g>
</g>
<g>
</g>
<g>
</g>
<g>
</g>
<g>
</g>
</svg>
