<?xml version="1.0" encoding="iso-8859-1"?>
<!-- Generator: Adobe Illustrator 18.0.0, SVG Export Plug-In . SVG Version: 6.00 Build 0)  -->
<!DOCTYPE svg PUBLIC "-//W3C//DTD SVG 1.1//EN" "http://www.w3.org/Graphics/SVG/1.1/DTD/svg11.dtd">
<svg version="1.1" id="Capa_1" xmlns="http://www.w3.org/2000/svg" xmlns:xlink="http://www.w3.org/1999/xlink" x="0px" y="0px"
	 viewBox="0 0 58 58" style="enable-background:new 0 0 58 58;" xml:space="preserve">
<g>
	<rect x="8" style="fill:#BFA380;" width="4" height="7"/>
	<rect x="8" y="51" style="fill:#BFA380;" width="4" height="7"/>
	<rect x="8" y="10" style="fill:#BFA380;" width="4" height="38"/>
</g>
<polygon style="fill:#E7ECED;" points="12,0 12,7 13,7 13,10 12,10 12,48 13,48 13,51 12,51 12,58 46,58 46,0 "/>
<rect x="16" y="4" style="fill:#7383BF;" width="26" height="25"/>
<rect x="16" y="35" style="fill:#7383BF;" width="26" height="19"/>
<rect y="53" style="fill:#949493;" width="8" height="5"/>
<rect x="50" y="53" style="fill:#949493;" width="8" height="5"/>
<rect x="21" y="5" style="fill:none;stroke:#556080;stroke-width:2;stroke-linecap:round;stroke-miterlimit:10;" width="16" height="21"/>
<line style="fill:none;stroke:#556080;stroke-width:2;stroke-linecap:round;stroke-miterlimit:10;" x1="19" y1="8" x2="39" y2="8"/>
<line style="fill:none;stroke:#556080;stroke-width:2;stroke-linecap:round;stroke-miterlimit:10;" x1="19" y1="11" x2="39" y2="11"/>
<line style="fill:none;stroke:#556080;stroke-width:2;stroke-linecap:round;stroke-miterlimit:10;" x1="19" y1="14" x2="39" y2="14"/>
<line style="fill:none;stroke:#556080;stroke-width:2;stroke-linecap:round;stroke-miterlimit:10;" x1="19" y1="17" x2="39" y2="17"/>
<line style="fill:none;stroke:#556080;stroke-width:2;stroke-linecap:round;stroke-miterlimit:10;" x1="19" y1="20" x2="39" y2="20"/>
<line style="fill:none;stroke:#556080;stroke-width:2;stroke-linecap:round;stroke-miterlimit:10;" x1="19" y1="23" x2="39" y2="23"/>
<line style="fill:none;stroke:#556080;stroke-width:2;stroke-linecap:round;stroke-miterlimit:10;" x1="19" y1="26" x2="39" y2="26"/>
<line style="fill:none;stroke:#7FABDA;stroke-width:2;stroke-linecap:round;stroke-miterlimit:10;" x1="20" y1="43" x2="24" y2="39"/>
<line style="fill:none;stroke:#7FABDA;stroke-width:2;stroke-linecap:round;stroke-miterlimit:10;" x1="20" y1="48" x2="22" y2="46"/>
<line style="fill:none;stroke:#7FABDA;stroke-width:2;stroke-linecap:round;stroke-miterlimit:10;" x1="24" y1="44" x2="24" y2="44"/>
<line style="fill:none;stroke:#7FABDA;stroke-width:2;stroke-linecap:round;stroke-miterlimit:10;" x1="26" y1="42" x2="29" y2="39"/>
<path style="fill:#D1C17C;" d="M43,33h-4c-0.552,0-1-0.447-1-1s0.448-1,1-1h4c0.552,0,1,0.447,1,1S43.552,33,43,33z"/>
<rect x="46" style="fill:#BFA380;" width="4" height="58"/>
<rect x="8" y="7" style="fill:#556080;" width="5" height="3"/>
<rect x="8" y="48" style="fill:#556080;" width="5" height="3"/>
<g>
</g>
<g>
</g>
<g>
</g>
<g>
</g>
<g>
</g>
<g>
</g>
<g>
</g>
<g>
</g>
<g>
</g>
<g>
</g>
<g>
</g>
<g>
</g>
<g>
</g>
<g>
</g>
<g>
</g>
</svg>
