<?xml version="1.0" encoding="iso-8859-1"?>
<!-- Generator: Adobe Illustrator 18.0.0, SVG Export Plug-In . SVG Version: 6.00 Build 0)  -->
<!DOCTYPE svg PUBLIC "-//W3C//DTD SVG 1.1//EN" "http://www.w3.org/Graphics/SVG/1.1/DTD/svg11.dtd">
<svg version="1.1" id="Capa_1" xmlns="http://www.w3.org/2000/svg" xmlns:xlink="http://www.w3.org/1999/xlink" x="0px" y="0px"
	 viewBox="0 0 58 58" style="enable-background:new 0 0 58 58;" xml:space="preserve">
<rect x="6" y="3.5" style="fill:#6B5B4B;" width="33" height="54"/>
<polygon style="fill:#998373;" points="6,57.5 3,57.5 3,0.5 6,3.5 "/>
<polygon style="fill:#998373;" points="39,57.5 42,57.5 42,0.5 39,3.5 "/>
<polygon style="fill:#846E5B;" points="39,3.5 6,3.5 3,0.5 42,0.5 "/>
<rect y="54.5" style="fill:#C7CAC7;" width="3" height="3"/>
<rect x="10" y="7.5" style="fill:#514439;" width="10" height="20"/>
<rect x="25" y="7.5" style="fill:#514439;" width="10" height="20"/>
<rect x="10" y="33.5" style="fill:#514439;" width="10" height="20"/>
<rect x="25" y="33.5" style="fill:#514439;" width="10" height="20"/>
<path style="fill:#D1C17C;" d="M36,31.5h-4c-0.552,0-1-0.447-1-1s0.448-1,1-1h4c0.552,0,1,0.447,1,1S36.552,31.5,36,31.5z"/>
<rect x="46" y="48.5" style="fill:#BC8850;" width="10" height="3"/>
<rect x="47" y="51.5" style="fill:#F7B563;" width="8" height="6"/>
<line style="fill:none;stroke:#23A24D;stroke-width:2;stroke-linecap:round;stroke-miterlimit:10;" x1="51" y1="48.5" x2="51" y2="40.5"/>
<g>
	<rect x="42" y="54.5" style="fill:#C7CAC7;" width="5" height="3"/>
</g>
<rect x="55" y="54.5" style="fill:#C7CAC7;" width="3" height="3"/>
<path style="fill:#61B872;" d="M55.188,30.962c0.304-0.768,0.521-1.625,0.357-2.444c-0.071-0.355-0.233-0.696-0.456-0.965
	c-0.376-0.455-0.54-1.109-0.411-1.711c0.122-0.57,0.049-1.21-0.216-1.721c-0.483-0.931-1.444-1.452-2.399-1.588
	c-0.702-0.1-1.477,0.007-1.997,0.543l-0.618,0.534c-0.702,0.331-1.24,1.064-1.394,1.897c-0.083,0.452-0.053,0.926,0.077,1.364
	c0.194,0.653,0.033,1.359-0.338,1.908c-0.836,1.236-1.057,3.007-0.441,4.409c0.078,0.178,0.179,0.354,0.297,0.513
	c0.404,0.543,0.556,1.263,0.387,1.944c-0.039,0.156-0.065,0.316-0.08,0.475c-0.066,0.727,0.082,1.455,0.232,2.167
	c0.156,0.74,0.348,1.539,0.888,2.003c0.732,0.629,1.792,0.385,2.63-0.047c1.184-0.611,2.28-1.617,2.698-2.997
	c0.244-0.805,0.186-1.739-0.141-2.495c-0.33-0.764-0.33-1.671,0.148-2.33C54.73,31.982,54.985,31.476,55.188,30.962z"/>
<g>
</g>
<g>
</g>
<g>
</g>
<g>
</g>
<g>
</g>
<g>
</g>
<g>
</g>
<g>
</g>
<g>
</g>
<g>
</g>
<g>
</g>
<g>
</g>
<g>
</g>
<g>
</g>
<g>
</g>
</svg>
