<?xml version="1.0" encoding="iso-8859-1"?>
<!-- Generator: Adobe Illustrator 18.0.0, SVG Export Plug-In . SVG Version: 6.00 Build 0)  -->
<!DOCTYPE svg PUBLIC "-//W3C//DTD SVG 1.1//EN" "http://www.w3.org/Graphics/SVG/1.1/DTD/svg11.dtd">
<svg version="1.1" id="Capa_1" xmlns="http://www.w3.org/2000/svg" xmlns:xlink="http://www.w3.org/1999/xlink" x="0px" y="0px"
	 viewBox="0 0 60 60" style="enable-background:new 0 0 60 60;" xml:space="preserve">
<polygon style="fill:#7FABDA;stroke:#6B5B4B;stroke-width:2;stroke-linecap:round;stroke-linejoin:round;stroke-miterlimit:10;" points="
	21,29.5 11,29.5 11,6.5 21,1.5 "/>
<polygon style="fill:#7FABDA;stroke:#6B5B4B;stroke-width:2;stroke-linecap:round;stroke-linejoin:round;stroke-miterlimit:10;" points="
	49,29.5 39,29.5 39,1.5 49,6.5 "/>
<rect x="21" y="1.5" style="fill:#A1C8EC;stroke:#6B5B4B;stroke-width:2;stroke-linecap:round;stroke-linejoin:round;stroke-miterlimit:10;" width="18" height="28"/>
<rect x="2" y="29.5" style="fill:#BFA380;" width="28" height="6"/>
<rect x="30" y="29.5" style="fill:#A58763;" width="28" height="6"/>
<rect x="4" y="35.5" style="fill:#553323;" width="3" height="24"/>
<rect x="53" y="35.5" style="fill:#553323;" width="3" height="24"/>
<path style="fill:#553323;" d="M18,33.5h-4c-0.552,0-1-0.447-1-1s0.448-1,1-1h4c0.552,0,1,0.447,1,1S18.552,33.5,18,33.5z"/>
<path style="fill:#553323;" d="M46,33.5h-4c-0.552,0-1-0.447-1-1s0.448-1,1-1h4c0.552,0,1,0.447,1,1S46.552,33.5,46,33.5z"/>
<path style="fill:#553323;" d="M59,30.5H1c-0.552,0-1-0.447-1-1s0.448-1,1-1h58c0.553,0,1,0.447,1,1S59.553,30.5,59,30.5z"/>
<polygon style="fill:#C0E1F9;" points="33,2.5 38,2.5 38,7.5 26,28.5 22,28.5 22,23.5 "/>
<g>
</g>
<g>
</g>
<g>
</g>
<g>
</g>
<g>
</g>
<g>
</g>
<g>
</g>
<g>
</g>
<g>
</g>
<g>
</g>
<g>
</g>
<g>
</g>
<g>
</g>
<g>
</g>
<g>
</g>
</svg>
