<?xml version="1.0" encoding="iso-8859-1"?>
<!-- Generator: Adobe Illustrator 18.0.0, SVG Export Plug-In . SVG Version: 6.00 Build 0)  -->
<!DOCTYPE svg PUBLIC "-//W3C//DTD SVG 1.1//EN" "http://www.w3.org/Graphics/SVG/1.1/DTD/svg11.dtd">
<svg version="1.1" id="Capa_1" xmlns="http://www.w3.org/2000/svg" xmlns:xlink="http://www.w3.org/1999/xlink" x="0px" y="0px"
	 viewBox="0 0 58 58" style="enable-background:new 0 0 58 58;" xml:space="preserve">
<polygon style="fill:#382016;" points="0,0 0,58 3,58 3,55 55,55 55,58 58,58 58,0 "/>
<rect x="3" y="44" style="fill:#BFA380;stroke:#6B5B4B;stroke-width:2;stroke-linecap:round;stroke-miterlimit:10;" width="13" height="8"/>
<rect x="16" y="44" style="fill:#BFA380;stroke:#6B5B4B;stroke-width:2;stroke-linecap:round;stroke-miterlimit:10;" width="13" height="8"/>
<rect x="29" y="44" style="fill:#BFA380;stroke:#6B5B4B;stroke-width:2;stroke-linecap:round;stroke-miterlimit:10;" width="13" height="8"/>
<rect x="42" y="44" style="fill:#BFA380;stroke:#6B5B4B;stroke-width:2;stroke-linecap:round;stroke-miterlimit:10;" width="13" height="8"/>
<rect x="3" y="36" style="fill:#BFA380;stroke:#6B5B4B;stroke-width:2;stroke-linecap:round;stroke-miterlimit:10;" width="13" height="8"/>
<rect x="16" y="36" style="fill:#BFA380;stroke:#6B5B4B;stroke-width:2;stroke-linecap:round;stroke-miterlimit:10;" width="13" height="8"/>
<rect x="29" y="36" style="fill:#BFA380;stroke:#6B5B4B;stroke-width:2;stroke-linecap:round;stroke-miterlimit:10;" width="13" height="8"/>
<rect x="42" y="36" style="fill:#BFA380;stroke:#6B5B4B;stroke-width:2;stroke-linecap:round;stroke-miterlimit:10;" width="13" height="8"/>
<rect x="3" y="3" style="fill:#BFA380;stroke:#6B5B4B;stroke-width:2;stroke-linecap:round;stroke-miterlimit:10;" width="13" height="8"/>
<rect x="16" y="3" style="fill:#BFA380;stroke:#6B5B4B;stroke-width:2;stroke-linecap:round;stroke-miterlimit:10;" width="13" height="8"/>
<rect x="29" y="3" style="fill:#BFA380;stroke:#6B5B4B;stroke-width:2;stroke-linecap:round;stroke-miterlimit:10;" width="13" height="8"/>
<rect x="42" y="3" style="fill:#BFA380;stroke:#6B5B4B;stroke-width:2;stroke-linecap:round;stroke-miterlimit:10;" width="13" height="8"/>
<rect x="3" y="11" style="fill:#BFA380;stroke:#6B5B4B;stroke-width:2;stroke-linecap:round;stroke-miterlimit:10;" width="13" height="25"/>
<rect x="16" y="11" style="fill:#BFA380;stroke:#6B5B4B;stroke-width:2;stroke-linecap:round;stroke-miterlimit:10;" width="13" height="25"/>
<rect x="29" y="11" style="fill:#BFA380;stroke:#6B5B4B;stroke-width:2;stroke-linecap:round;stroke-miterlimit:10;" width="13" height="25"/>
<rect x="42" y="11" style="fill:#BFA380;stroke:#6B5B4B;stroke-width:2;stroke-linecap:round;stroke-miterlimit:10;" width="13" height="25"/>
<path style="fill:#E7ECED;" d="M13,26c-0.552,0-1-0.447-1-1v-4c0-0.553,0.448-1,1-1s1,0.447,1,1v4C14,25.553,13.552,26,13,26z"/>
<path style="fill:#E7ECED;" d="M19,26c-0.552,0-1-0.447-1-1v-4c0-0.553,0.448-1,1-1s1,0.447,1,1v4C20,25.553,19.552,26,19,26z"/>
<path style="fill:#E7ECED;" d="M39,26c-0.552,0-1-0.447-1-1v-4c0-0.553,0.448-1,1-1s1,0.447,1,1v4C40,25.553,39.552,26,39,26z"/>
<path style="fill:#E7ECED;" d="M45,26c-0.552,0-1-0.447-1-1v-4c0-0.553,0.448-1,1-1s1,0.447,1,1v4C46,25.553,45.552,26,45,26z"/>
<path style="fill:#E7ECED;" d="M11,41H8c-0.552,0-1-0.447-1-1s0.448-1,1-1h3c0.552,0,1,0.447,1,1S11.552,41,11,41z"/>
<path style="fill:#E7ECED;" d="M11,49H8c-0.552,0-1-0.447-1-1s0.448-1,1-1h3c0.552,0,1,0.447,1,1S11.552,49,11,49z"/>
<path style="fill:#E7ECED;" d="M24,41h-3c-0.552,0-1-0.447-1-1s0.448-1,1-1h3c0.552,0,1,0.447,1,1S24.552,41,24,41z"/>
<path style="fill:#E7ECED;" d="M24,49h-3c-0.552,0-1-0.447-1-1s0.448-1,1-1h3c0.552,0,1,0.447,1,1S24.552,49,24,49z"/>
<path style="fill:#E7ECED;" d="M37,41h-3c-0.552,0-1-0.447-1-1s0.448-1,1-1h3c0.552,0,1,0.447,1,1S37.552,41,37,41z"/>
<path style="fill:#E7ECED;" d="M37,49h-3c-0.552,0-1-0.447-1-1s0.448-1,1-1h3c0.552,0,1,0.447,1,1S37.552,49,37,49z"/>
<path style="fill:#E7ECED;" d="M50,41h-3c-0.552,0-1-0.447-1-1s0.448-1,1-1h3c0.552,0,1,0.447,1,1S50.552,41,50,41z"/>
<path style="fill:#E7ECED;" d="M50,49h-3c-0.552,0-1-0.447-1-1s0.448-1,1-1h3c0.552,0,1,0.447,1,1S50.552,49,50,49z"/>
<g>
</g>
<g>
</g>
<g>
</g>
<g>
</g>
<g>
</g>
<g>
</g>
<g>
</g>
<g>
</g>
<g>
</g>
<g>
</g>
<g>
</g>
<g>
</g>
<g>
</g>
<g>
</g>
<g>
</g>
</svg>
