<?xml version="1.0" encoding="iso-8859-1"?>
<!-- Generator: Adobe Illustrator 18.0.0, SVG Export Plug-In . SVG Version: 6.00 Build 0)  -->
<!DOCTYPE svg PUBLIC "-//W3C//DTD SVG 1.1//EN" "http://www.w3.org/Graphics/SVG/1.1/DTD/svg11.dtd">
<svg version="1.1" id="Capa_1" xmlns="http://www.w3.org/2000/svg" xmlns:xlink="http://www.w3.org/1999/xlink" x="0px" y="0px"
	 viewBox="0 0 59 59" style="enable-background:new 0 0 59 59;" xml:space="preserve">
<path style="fill:#3D241A;" d="M8.852,38C7.392,40.093,5.84,43.482,6.5,48c0.792,5.417-1.139,6.991-1.11,7L2.5,59h1
	c5,0,7.115-7.711,7-11c-0.25-7.125,3.262-9.542,3.292-9.572L14.226,38H8.852z"/>
<path style="fill:#3D241A;" d="M50.148,38c1.46,2.093,3.012,5.482,2.352,10c-0.792,5.417,1.139,6.991,1.11,7l2.89,4h-1
	c-5,0-7.115-7.711-7-11c0.25-7.125-3.262-9.542-3.292-9.572L44.774,38H50.148z"/>
<rect x="18.5" y="36" style="fill:#553323;stroke:#774836;stroke-width:2;stroke-linejoin:round;stroke-miterlimit:10;" width="22" height="6"/>
<polygon style="fill:#553323;stroke:#774836;stroke-width:2;stroke-linejoin:round;stroke-miterlimit:10;" points="4.5,32 4.5,38 
	18.5,38 18.5,36 40.5,36 40.5,38 54.5,38 54.5,32 "/>
<path style="fill:#7FABDA;" d="M40.5,28h-22V12c0-6.075,4.925-11,11-11h0c6.075,0,11,4.925,11,11V28z"/>
<path style="fill:#774836;" d="M29.5,0c-6.617,0-12,5.383-12,12v16c0,0.553,0.447,1,1,1h1v-2V15v-3c0-5.514,4.486-10,10-10
	s10,4.486,10,10v3v12v2h1c0.553,0,1-0.447,1-1V12C41.5,5.383,36.117,0,29.5,0z"/>
<rect x="6.5" y="17" style="fill:#553323;stroke:#774836;stroke-width:2;stroke-linejoin:round;stroke-miterlimit:10;" width="12" height="6"/>
<rect x="6.5" y="23" style="fill:#553323;stroke:#774836;stroke-width:2;stroke-linejoin:round;stroke-miterlimit:10;" width="12" height="6"/>
<rect x="40.5" y="17" style="fill:#553323;stroke:#774836;stroke-width:2;stroke-linejoin:round;stroke-miterlimit:10;" width="12" height="6"/>
<rect x="40.5" y="23" style="fill:#553323;stroke:#774836;stroke-width:2;stroke-linejoin:round;stroke-miterlimit:10;" width="12" height="6"/>
<g>
	<path style="fill:#AB8024;" d="M32.5,38h-6c-0.553,0-1,0.447-1,1s0.447,1,1,1h6c0.553,0,1-0.447,1-1S33.053,38,32.5,38z"/>
	<path style="fill:#AB8024;" d="M13.5,19h-2c-0.553,0-1,0.447-1,1s0.447,1,1,1h2c0.553,0,1-0.447,1-1S14.053,19,13.5,19z"/>
	<path style="fill:#AB8024;" d="M13.5,25h-2c-0.553,0-1,0.447-1,1s0.447,1,1,1h2c0.553,0,1-0.447,1-1S14.053,25,13.5,25z"/>
	<path style="fill:#AB8024;" d="M45.5,21h2c0.553,0,1-0.447,1-1s-0.447-1-1-1h-2c-0.553,0-1,0.447-1,1S44.947,21,45.5,21z"/>
	<path style="fill:#AB8024;" d="M47.5,25h-2c-0.553,0-1,0.447-1,1s0.447,1,1,1h2c0.553,0,1-0.447,1-1S48.053,25,47.5,25z"/>
</g>
<path style="fill:#A1C8EC;" d="M33.36,2.776L19.5,16.636V28h1.364L39.21,9.654C38.458,6.544,36.259,3.995,33.36,2.776z"/>
<path style="fill:#3D241A;" d="M56.5,32h-54c-1.1,0-2-0.9-2-2v0c0-1.1,0.9-2,2-2h54c1.1,0,2,0.9,2,2v0C58.5,31.1,57.6,32,56.5,32z"
	/>
<g>
</g>
<g>
</g>
<g>
</g>
<g>
</g>
<g>
</g>
<g>
</g>
<g>
</g>
<g>
</g>
<g>
</g>
<g>
</g>
<g>
</g>
<g>
</g>
<g>
</g>
<g>
</g>
<g>
</g>
</svg>
