<?xml version="1.0" encoding="iso-8859-1"?>
<!-- Generator: Adobe Illustrator 18.0.0, SVG Export Plug-In . SVG Version: 6.00 Build 0)  -->
<!DOCTYPE svg PUBLIC "-//W3C//DTD SVG 1.1//EN" "http://www.w3.org/Graphics/SVG/1.1/DTD/svg11.dtd">
<svg version="1.1" id="Capa_1" xmlns="http://www.w3.org/2000/svg" xmlns:xlink="http://www.w3.org/1999/xlink" x="0px" y="0px"
	 viewBox="0 0 60 60" style="enable-background:new 0 0 60 60;" xml:space="preserve">
<rect x="11" y="29" style="fill:#6C797A;" width="38" height="27"/>
<path style="fill:#ED8A19;" d="M35.177,37.985l-1.726-2.003c-0.239,2.214-0.861,3.921-0.861,3.921c0-2.923-1.033-5.522-2.358-7.657
	L30.02,32l-1.685,1.956c-2.174,2.523-3.098,5.949-2.383,9.226c0.006,0.029,0.013,0.058,0.019,0.087c0,0-1.307-1.883-1.902-4.213
	c-1.621,2.638-1.4,6.104,0.673,8.51c2.777,3.223,7.688,3.246,10.496,0.069C37.644,44.911,37.55,40.738,35.177,37.985z"/>
<g>
	<polygon style="fill:#E7ECED;" points="5,38 5,47 5,56 11,56 11,47 11,38 11,29 5,29 	"/>
	<polygon style="fill:#E7ECED;" points="49,29 49,38 49,47 49,56 55,56 55,47 55,38 55,29 	"/>
</g>
<polygon style="fill:#AFB6BB;" points="49,24 11,24 3,24 3,29 11,29 49,29 57,29 57,24 "/>
<polygon style="fill:#C7CAC7;" points="49,24 11,24 19,10 41,10 "/>
<path style="fill:none;stroke:#556080;stroke-width:2;stroke-linecap:round;stroke-miterlimit:10;" d="M23,52c0,2.211-1.789,4-4,4
	h-2"/>
<path style="fill:none;stroke:#556080;stroke-width:2;stroke-linecap:round;stroke-miterlimit:10;" d="M37,52c0,2.211,1.789,4,4,4h2
	"/>
<line style="fill:none;stroke:#C7CAC7;stroke-width:2;stroke-linecap:round;stroke-miterlimit:10;" x1="8" y1="32" x2="8" y2="53"/>
<line style="fill:none;stroke:#C7CAC7;stroke-width:2;stroke-linecap:round;stroke-miterlimit:10;" x1="52" y1="32" x2="52" y2="53"/>
<path style="fill:#6B5B4B;" d="M34.878,48c-2.709,2.656-7.01,2.657-9.718,0H19v4h21v-4H34.878z"/>
<rect x="20" y="7" style="fill:#E7ECED;" width="20" height="3"/>
<rect x="21" y="4" style="fill:#C7CAC7;" width="18" height="3"/>
<rect x="22" y="1" style="fill:#E7ECED;" width="16" height="3"/>
<line style="fill:none;stroke:#E7ECED;stroke-width:2;stroke-linecap:round;stroke-miterlimit:10;" x1="1" y1="24" x2="59" y2="24"/>
<rect x="3" y="56" style="fill:#949493;" width="54" height="3"/>
<path style="fill:#EFCE4A;" d="M33.81,42.303l-1.126-1.283c-0.156,1.418-0.562,2.512-0.562,2.512c0-1.873-0.674-3.537-1.539-4.905
	l-0.138-0.157l-1.1,1.253c-1.419,1.616-2.021,3.811-1.555,5.91c0.004,0.018,0.008,0.037,0.013,0.056c0,0-0.853-1.207-1.241-2.699
	c-1.058,1.69-0.914,3.91,0.439,5.451c1.812,2.065,5.017,2.079,6.849,0.044C35.42,46.74,35.359,44.067,33.81,42.303z"/>
<g>
</g>
<g>
</g>
<g>
</g>
<g>
</g>
<g>
</g>
<g>
</g>
<g>
</g>
<g>
</g>
<g>
</g>
<g>
</g>
<g>
</g>
<g>
</g>
<g>
</g>
<g>
</g>
<g>
</g>
</svg>
