<?xml version="1.0" encoding="iso-8859-1"?>
<!-- Generator: Adobe Illustrator 18.0.0, SVG Export Plug-In . SVG Version: 6.00 Build 0)  -->
<!DOCTYPE svg PUBLIC "-//W3C//DTD SVG 1.1//EN" "http://www.w3.org/Graphics/SVG/1.1/DTD/svg11.dtd">
<svg version="1.1" id="Capa_1" xmlns="http://www.w3.org/2000/svg" xmlns:xlink="http://www.w3.org/1999/xlink" x="0px" y="0px"
	 viewBox="0 0 60 60" style="enable-background:new 0 0 60 60;" xml:space="preserve">
<rect x="9" y="34.5" style="fill:#6C2027;" width="42" height="21"/>
<path style="fill:#212F3F;" d="M47,55.5H13v-1c0-9.389,7.611-17,17-17h0c9.389,0,17,7.611,17,17V55.5z"/>
<path style="fill:#6B5B4B;" d="M34.878,51.5c-2.709,2.656-7.01,2.657-9.718,0H19v4h21v-4H34.878z"/>
<rect x="8" y="55.5" style="fill:#556080;" width="44" height="3"/>
<rect x="23" y="11.5" style="fill:#F5EEE4;" width="14" height="4"/>
<polygon style="fill:#A0978E;" points="35.667,15.5 24.333,15.5 16,24.5 44,24.5 "/>
<rect x="26" y="0.5" style="fill:#BCB3AA;" width="8" height="11"/>
<polygon style="fill:#F5EEE4;" points="51,28.5 9,28.5 13,24.5 47,24.5 "/>
<rect x="6" y="31.5" style="fill:#A0978E;" width="48" height="3"/>
<rect x="11" y="28.5" style="fill:#BCB3AA;" width="38" height="3"/>
<line style="fill:none;stroke:#38454F;stroke-width:2;stroke-linecap:round;stroke-miterlimit:10;" x1="1" y1="58.5" x2="59" y2="58.5"/>
<path style="fill:#ED8A19;" d="M35.238,51.135c2.406-2.723,2.312-6.896-0.061-9.65l-1.726-2.003
	c-0.239,2.214-0.861,3.921-0.861,3.921c0-2.14-0.556-4.104-1.373-5.841C30.813,37.533,30.411,37.5,30,37.5
	c-0.598,0-1.188,0.032-1.77,0.093c-2.094,2.51-2.98,5.869-2.278,9.089c0.006,0.029,0.013,0.058,0.019,0.087
	c0,0-1.307-1.883-1.902-4.213c-1.621,2.638-1.4,6.104,0.673,8.51C27.519,54.288,32.43,54.311,35.238,51.135z"/>
<rect x="3" y="30.5" style="fill:#F5EEE4;" width="54" height="2"/>
<path style="fill:#EFCE4A;" d="M32.946,45.803L31.82,44.52c-0.156,1.418-0.562,2.512-0.562,2.512c0-1.873-0.674-3.537-1.539-4.905
	l-0.138-0.157l-1.1,1.253c-1.419,1.616-2.021,3.811-1.555,5.91c0.004,0.018,0.008,0.037,0.013,0.056c0,0-0.853-1.207-1.241-2.699
	c-1.058,1.69-0.914,3.91,0.439,5.451c1.812,2.065,5.017,2.079,6.849,0.044C34.557,50.24,34.495,47.567,32.946,45.803z"/>
<g>
</g>
<g>
</g>
<g>
</g>
<g>
</g>
<g>
</g>
<g>
</g>
<g>
</g>
<g>
</g>
<g>
</g>
<g>
</g>
<g>
</g>
<g>
</g>
<g>
</g>
<g>
</g>
<g>
</g>
</svg>
