<?xml version="1.0" encoding="iso-8859-1"?>
<!-- Generator: Adobe Illustrator 18.0.0, SVG Export Plug-In . SVG Version: 6.00 Build 0)  -->
<!DOCTYPE svg PUBLIC "-//W3C//DTD SVG 1.1//EN" "http://www.w3.org/Graphics/SVG/1.1/DTD/svg11.dtd">
<svg version="1.1" id="Capa_1" xmlns="http://www.w3.org/2000/svg" xmlns:xlink="http://www.w3.org/1999/xlink" x="0px" y="0px"
	 viewBox="0 0 58 58" style="enable-background:new 0 0 58 58;" xml:space="preserve">
<line style="fill:none;stroke:#23A24D;stroke-width:2;stroke-linecap:round;stroke-miterlimit:10;" x1="8" y1="12" x2="8" y2="7"/>
<path style="fill:#EFCE4A;" d="M8,0H5v4c0,1.65,1.35,3,3,3V0z"/>
<path style="fill:#DC691D;" d="M8,0l3,0v4c0,1.65-1.35,3-3,3V0z"/>
<rect x="6" y="30" style="fill:#47363D;" width="47" height="28"/>
<polygon style="fill:#BCB3AA;" points="2,23 2,58 9,58 9,36 12,34 12,31 46,31 46,34 49,36 49,58 56,58 56,23 "/>
<path style="fill:#ED8A19;" d="M34.177,39.985l-1.726-2.003c-0.239,2.214-0.861,3.921-0.861,3.921c0-2.923-1.033-5.522-2.358-7.657
	L29.02,34l-1.685,1.956c-2.174,2.523-3.098,5.949-2.383,9.226c0.006,0.029,0.013,0.058,0.019,0.087c0,0-1.307-1.883-1.902-4.213
	c-1.621,2.638-1.4,6.104,0.673,8.51c2.777,3.223,7.688,3.246,10.496,0.069C36.644,46.911,36.55,42.738,34.177,39.985z"/>
<rect x="0" y="18" style="fill:#F5EEE4;" width="58" height="5"/>
<rect x="20" y="54" style="fill:#54473C;" width="18" height="4"/>
<rect x="46" y="6" style="fill:#88C057;stroke:#556080;stroke-width:2;stroke-linecap:round;stroke-miterlimit:10;" width="8" height="12"/>
<rect x="31" y="10" style="fill:#EFCE4A;stroke:#556080;stroke-width:2;stroke-linecap:round;stroke-miterlimit:10;" width="12" height="8"/>
<rect x="18" y="8" style="fill:#C5411E;stroke:#556080;stroke-width:2;stroke-linecap:round;stroke-miterlimit:10;" width="10" height="10"/>
<path style="fill:#BFA380;" d="M10,12L10,12l-3.6,0l0,0c-0.283,1.13-0.965,2.089-1.82,2.88c-0.437,0.405-0.675,1.022-0.544,1.683
	C4.206,17.417,5.008,18,5.879,18h4.642c0.871,0,1.673-0.583,1.843-1.437c0.131-0.661-0.106-1.278-0.544-1.683
	C10.965,14.089,10.283,13.13,10,12z"/>
<g>
	<rect x="4" y="23" style="fill:#A0978E;" width="2" height="3"/>
	<rect x="7" y="23" style="fill:#A0978E;" width="2" height="3"/>
	<rect x="10" y="23" style="fill:#A0978E;" width="2" height="3"/>
	<rect x="13" y="23" style="fill:#A0978E;" width="2" height="3"/>
	<rect x="16" y="23" style="fill:#A0978E;" width="2" height="3"/>
	<rect x="19" y="23" style="fill:#A0978E;" width="2" height="3"/>
	<rect x="22" y="23" style="fill:#A0978E;" width="2" height="3"/>
	<rect x="25" y="23" style="fill:#A0978E;" width="2" height="3"/>
	<rect x="28" y="23" style="fill:#A0978E;" width="2" height="3"/>
	<rect x="31" y="23" style="fill:#A0978E;" width="2" height="3"/>
	<rect x="34" y="23" style="fill:#A0978E;" width="2" height="3"/>
	<rect x="37" y="23" style="fill:#A0978E;" width="2" height="3"/>
	<rect x="40" y="23" style="fill:#A0978E;" width="2" height="3"/>
	<rect x="43" y="23" style="fill:#A0978E;" width="2" height="3"/>
	<rect x="46" y="23" style="fill:#A0978E;" width="2" height="3"/>
	<rect x="49" y="23" style="fill:#A0978E;" width="2" height="3"/>
	<rect x="52" y="23" style="fill:#A0978E;" width="2" height="3"/>
</g>
<path style="fill:#6B5B4B;" d="M33.878,50c-2.709,2.656-7.01,2.657-9.718,0H22v4h14v-4H33.878z"/>
<path style="fill:#EFCE4A;" d="M32.81,44.303l-1.126-1.283c-0.156,1.418-0.562,2.512-0.562,2.512c0-1.873-0.674-3.537-1.539-4.905
	l-0.138-0.157l-1.1,1.253c-1.419,1.616-2.021,3.811-1.555,5.91c0.004,0.018,0.008,0.037,0.013,0.056c0,0-0.853-1.207-1.241-2.699
	c-1.058,1.69-0.914,3.91,0.439,5.451c1.812,2.065,5.017,2.079,6.849,0.044C34.42,48.74,34.359,46.067,32.81,44.303z"/>
<g>
</g>
<g>
</g>
<g>
</g>
<g>
</g>
<g>
</g>
<g>
</g>
<g>
</g>
<g>
</g>
<g>
</g>
<g>
</g>
<g>
</g>
<g>
</g>
<g>
</g>
<g>
</g>
<g>
</g>
</svg>
