<?xml version="1.0" encoding="iso-8859-1"?>
<!-- Generator: Adobe Illustrator 18.0.0, SVG Export Plug-In . SVG Version: 6.00 Build 0)  -->
<!DOCTYPE svg PUBLIC "-//W3C//DTD SVG 1.1//EN" "http://www.w3.org/Graphics/SVG/1.1/DTD/svg11.dtd">
<svg version="1.1" id="Capa_1" xmlns="http://www.w3.org/2000/svg" xmlns:xlink="http://www.w3.org/1999/xlink" x="0px" y="0px"
	 viewBox="0 0 54.585 54.585" style="enable-background:new 0 0 54.585 54.585;" xml:space="preserve">
<line style="fill:none;stroke:#23A24D;stroke-width:2;stroke-linecap:round;stroke-miterlimit:10;" x1="27.293" y1="32.585" x2="27.293" y2="11.585"/>
<path style="fill:#DC691D;" d="M27.293,1.762L22.301,0c-0.001,0.029-0.009,0.056-0.009,0.085v8c0,2.475,2.025,4.5,4.5,4.5
	c0.171,0,0.334-0.032,0.5-0.051V1.762z"/>
<path style="fill:#ED8A19;" d="M27.293,4.585l4.991-1.762c0.001,0.029,0.009,0.056,0.009,0.085v5.176c0,2.475-2.025,4.5-4.5,4.5
	c-0.171,0-0.334-0.032-0.5-0.051V4.585z"/>
<path style="fill:#88C057;" d="M27.293,22.585c3.316,0,6-2.684,6-6C29.976,16.585,27.293,19.269,27.293,22.585z"/>
<path style="fill:#88C057;" d="M27.293,29.585c0-3.316-2.684-6-6-6C21.293,26.902,23.976,29.585,27.293,29.585z"/>
<path style="fill:#E7ECED;" d="M34.62,52.585H19.965c-0.973,0-1.81-0.687-2.001-1.64l-3.672-18.36h26l-3.672,18.36
	C36.43,51.899,35.592,52.585,34.62,52.585z"/>
<path style="fill:#C7CAC7;" d="M16.893,45.585l1.072,5.36c0.191,0.954,1.028,1.64,2.001,1.64H34.62c0.973,0,1.81-0.687,2.001-1.64
	l1.072-5.36H16.893z"/>
<line style="fill:none;stroke:#AFB6BB;stroke-width:2;stroke-linecap:round;stroke-miterlimit:10;" x1="15.293" y1="53.585" x2="39.293" y2="53.585"/>
<line style="fill:none;stroke:#AFB6BB;stroke-width:2;stroke-linecap:round;stroke-miterlimit:10;" x1="42.293" y1="50.585" x2="39.293" y2="53.585"/>
<line style="fill:none;stroke:#AFB6BB;stroke-width:2;stroke-linecap:round;stroke-miterlimit:10;" x1="15.293" y1="53.585" x2="12.293" y2="50.585"/>
<g>
</g>
<g>
</g>
<g>
</g>
<g>
</g>
<g>
</g>
<g>
</g>
<g>
</g>
<g>
</g>
<g>
</g>
<g>
</g>
<g>
</g>
<g>
</g>
<g>
</g>
<g>
</g>
<g>
</g>
</svg>
