<?xml version="1.0" encoding="iso-8859-1"?>
<!-- Generator: Adobe Illustrator 18.0.0, SVG Export Plug-In . SVG Version: 6.00 Build 0)  -->
<!DOCTYPE svg PUBLIC "-//W3C//DTD SVG 1.1//EN" "http://www.w3.org/Graphics/SVG/1.1/DTD/svg11.dtd">
<svg version="1.1" id="Capa_1" xmlns="http://www.w3.org/2000/svg" xmlns:xlink="http://www.w3.org/1999/xlink" x="0px" y="0px"
	 viewBox="0 0 53 53" style="enable-background:new 0 0 53 53;" xml:space="preserve">
<line style="fill:none;stroke:#23A24D;stroke-width:2;stroke-linecap:round;stroke-miterlimit:10;" x1="18.5" y1="18.455" x2="18.5" y2="33"/>
<line style="fill:none;stroke:#23A24D;stroke-width:2;stroke-linecap:round;stroke-miterlimit:10;" x1="31.5" y1="27.182" x2="31.5" y2="33"/>
<line style="fill:none;stroke:#23A24D;stroke-width:2;stroke-linecap:round;stroke-miterlimit:10;" x1="24.5" y1="18.455" x2="24.5" y2="33"/>
<line style="fill:none;stroke:#23A24D;stroke-width:2;stroke-linecap:round;stroke-miterlimit:10;" x1="34.5" y1="28.636" x2="34.5" y2="33"/>
<line style="fill:none;stroke:#23A24D;stroke-width:2;stroke-linecap:round;stroke-miterlimit:10;" x1="21.5" y1="17" x2="21.5" y2="33"/>
<line style="fill:none;stroke:#23A24D;stroke-width:2;stroke-linecap:round;stroke-miterlimit:10;" x1="28.5" y1="25.727" x2="28.5" y2="33"/>
<path style="fill:#88C057;" d="M34.5,30L34.5,30c0-6.627,5.373-12,12-12h0v0C46.5,24.627,41.127,30,34.5,30L34.5,30z"/>
<path style="fill:#ED8A19;" d="M24.843,13.657c0.816,0.816,1.981,1.05,3.011,0.73c0.019,0.036,0.044,0.069,0.064,0.104
	c0.316-0.003,0.631,0.027,0.936,0.122C29.356,13.658,30.346,13,31.5,13c1.11,0,2.063,0.613,2.581,1.509
	c0.752-0.007,1.501-0.277,2.075-0.852c0.816-0.816,1.05-1.981,0.73-3.011C37.841,10.144,38.5,9.154,38.5,8s-0.659-2.144-1.613-2.646
	c0.32-1.03,0.086-2.196-0.73-3.011c-0.816-0.816-1.981-1.05-3.011-0.73C32.644,0.658,31.654,0,30.5,0s-2.144,0.658-2.645,1.613
	c-1.03-0.32-2.196-0.086-3.011,0.73c-0.816,0.816-1.05,1.981-0.73,3.011C23.159,5.856,22.5,6.846,22.5,8s0.659,2.144,1.613,2.646
	C23.793,11.676,24.027,12.841,24.843,13.657z"/>
<path style="fill:#EFCE4A;" d="M24.843,13.657c-0.816-0.816-1.05-1.981-0.73-3.011c-0.803-0.422-1.391-1.191-1.559-2.11
	c-0.469-0.079-0.951-0.065-1.409,0.078C20.644,7.658,19.654,7,18.5,7s-2.144,0.658-2.645,1.613c-1.03-0.32-2.196-0.086-3.011,0.73
	c-0.816,0.816-1.05,1.981-0.73,3.011C11.159,12.856,10.5,13.846,10.5,15s0.659,2.144,1.613,2.646
	c-0.07,0.226-0.103,0.46-0.119,0.694c1.463,0.756,2.754,1.796,3.79,3.059c0.023-0.007,0.048-0.005,0.071-0.012
	C16.356,22.342,17.346,23,18.5,23s2.144-0.658,2.645-1.613c0.781,0.243,1.639,0.163,2.365-0.244C23.508,21.095,23.5,21.048,23.5,21
	c0-1.114,0.617-2.071,1.518-2.587c-0.012-0.259-0.054-0.517-0.132-0.767c0.033-0.017,0.063-0.04,0.095-0.058
	c-0.038-0.808,0.244-1.626,0.862-2.244c0.197-0.197,0.416-0.356,0.647-0.486c-0.006-0.134-0.021-0.265-0.044-0.393
	C25.86,14.366,25.297,14.11,24.843,13.657z"/>
<path style="fill:#DC691D;" d="M39.417,20.329c-0.2-0.859-0.767-1.573-1.53-1.975c0.32-1.03,0.086-2.196-0.73-3.011
	c-0.816-0.816-1.981-1.05-3.011-0.73C33.644,13.658,32.654,13,31.5,13s-2.144,0.658-2.645,1.613c-1.03-0.32-2.196-0.086-3.011,0.73
	c-0.816,0.816-1.05,1.981-0.73,3.011C24.159,18.856,23.5,19.846,23.5,21s0.659,2.144,1.613,2.646c-0.32,1.03-0.086,2.196,0.73,3.011
	c0.816,0.816,1.981,1.05,3.011,0.73C29.356,28.342,30.346,29,31.5,29s2.144-0.658,2.645-1.613c0.202,0.063,0.412,0.087,0.621,0.107
	C35.389,24.565,37.084,22.04,39.417,20.329z"/>
<rect x="11.5" y="33" style="fill:#6B4842;" width="28" height="6"/>
<polygon style="fill:#9E6C53;" points="33.5,53 17.5,53 13.885,39 37.115,39 "/>
<path style="fill:#CE9982;" d="M26.5,43h-6c-0.552,0-1-0.447-1-1s0.448-1,1-1h6c0.552,0,1,0.447,1,1S27.052,43,26.5,43z"/>
<path style="fill:#CE9982;" d="M29.5,43c-0.26,0-0.52-0.11-0.71-0.29c-0.18-0.19-0.29-0.45-0.29-0.71c0-0.271,0.11-0.521,0.29-0.71
	c0.38-0.37,1.05-0.36,1.42,0c0.18,0.18,0.29,0.439,0.29,0.71c0,0.26-0.11,0.52-0.29,0.71C30.02,42.89,29.76,43,29.5,43z"/>
<path style="fill:#CE9982;" d="M25.5,46h-2c-0.552,0-1-0.447-1-1s0.448-1,1-1h2c0.552,0,1,0.447,1,1S26.052,46,25.5,46z"/>
<path style="fill:#CE9982;" d="M20.5,46c-0.26,0-0.52-0.11-0.71-0.29c-0.18-0.19-0.29-0.44-0.29-0.71c0-0.26,0.11-0.521,0.29-0.71
	c0.38-0.37,1.05-0.37,1.42,0c0.18,0.189,0.29,0.45,0.29,0.71s-0.11,0.52-0.29,0.71C21.02,45.89,20.76,46,20.5,46z"/>
<circle style="fill:#DD352E;" cx="18.5" cy="15" r="1"/>
<circle style="fill:#DD352E;" cx="30.5" cy="8" r="1"/>
<circle style="fill:#DD352E;" cx="31.5" cy="21" r="1"/>
<path style="fill:#88C057;" d="M18.5,29L18.5,29c-6.627,0-12-5.373-12-12v0h0C13.127,17,18.5,22.373,18.5,29L18.5,29z"/>
<g>
</g>
<g>
</g>
<g>
</g>
<g>
</g>
<g>
</g>
<g>
</g>
<g>
</g>
<g>
</g>
<g>
</g>
<g>
</g>
<g>
</g>
<g>
</g>
<g>
</g>
<g>
</g>
<g>
</g>
</svg>
