<?xml version="1.0" encoding="iso-8859-1"?>
<!-- Generator: Adobe Illustrator 18.0.0, SVG Export Plug-In . SVG Version: 6.00 Build 0)  -->
<!DOCTYPE svg PUBLIC "-//W3C//DTD SVG 1.1//EN" "http://www.w3.org/Graphics/SVG/1.1/DTD/svg11.dtd">
<svg version="1.1" id="Capa_1" xmlns="http://www.w3.org/2000/svg" xmlns:xlink="http://www.w3.org/1999/xlink" x="0px" y="0px"
	 viewBox="0 0 58 58" style="enable-background:new 0 0 58 58;" xml:space="preserve">
<rect x="12" y="44" style="fill:#E7ECED;" width="34" height="14"/>
<path style="fill:#A1C8EC;" d="M46.072,44H11.928C10.311,44,9,42.689,9,41.072V32h40v9.072C49,42.689,47.689,44,46.072,44z"/>
<rect x="9" y="32" style="fill:#0F6056;" width="40" height="3"/>
<path style="fill:#A1C8EC;" d="M46.072,32H11.928C10.311,32,9,30.689,9,29.072V19h40v10.072C49,30.689,47.689,32,46.072,32z"/>
<rect x="9" y="19" style="fill:#0F6056;" width="40" height="3"/>
<path style="fill:#A1C8EC;" d="M46.072,19H11.928C10.311,19,9,17.689,9,16.072V4h40v12.072C49,17.689,47.689,19,46.072,19z"/>
<rect x="9" y="4" style="fill:#0F6056;" width="40" height="3"/>
<path style="fill:#AFB6BB;" d="M31.696,48.062C32.492,48.793,33,49.833,33,51c0,2.209-1.791,4-4,4s-4-1.791-4-4
	c0-1.167,0.508-2.207,1.304-2.938C20.807,48.298,15.842,49.244,12,50.67V58h34v-7.33C42.158,49.244,37.193,48.298,31.696,48.062z"/>
<path style="fill:#1EC4B0;" d="M48,4H10V3.304C10,1.479,11.479,0,13.304,0h31.392C46.521,0,48,1.479,48,3.304V4z"/>
<path style="fill:#019587;" d="M52,33H6c-0.553,0-1-0.447-1-1s0.447-1,1-1h46c0.553,0,1,0.447,1,1S52.553,33,52,33z"/>
<path style="fill:#019587;" d="M52,20H6c-0.553,0-1-0.447-1-1s0.447-1,1-1h46c0.553,0,1,0.447,1,1S52.553,20,52,20z"/>
<path style="fill:#019587;" d="M52,5H6C5.447,5,5,4.553,5,4s0.447-1,1-1h46c0.553,0,1,0.447,1,1S52.553,5,52,5z"/>
<circle style="fill:#38454F;stroke:#38454F;stroke-width:2;stroke-linecap:round;stroke-linejoin:round;stroke-miterlimit:10;" cx="29" cy="51" r="4"/>
<line style="fill:none;stroke:#7383BF;stroke-width:2;stroke-linecap:round;stroke-linejoin:round;stroke-miterlimit:10;" x1="29" y1="51" x2="31.819" y2="48.181"/>
<g>
</g>
<g>
</g>
<g>
</g>
<g>
</g>
<g>
</g>
<g>
</g>
<g>
</g>
<g>
</g>
<g>
</g>
<g>
</g>
<g>
</g>
<g>
</g>
<g>
</g>
<g>
</g>
<g>
</g>
</svg>
