<?xml version="1.0" encoding="iso-8859-1"?>
<!-- Generator: Adobe Illustrator 18.0.0, SVG Export Plug-In . SVG Version: 6.00 Build 0)  -->
<!DOCTYPE svg PUBLIC "-//W3C//DTD SVG 1.1//EN" "http://www.w3.org/Graphics/SVG/1.1/DTD/svg11.dtd">
<svg version="1.1" id="Capa_1" xmlns="http://www.w3.org/2000/svg" xmlns:xlink="http://www.w3.org/1999/xlink" x="0px" y="0px"
	 viewBox="0 0 58 58" style="enable-background:new 0 0 58 58;" xml:space="preserve">
<path style="fill:#A7ADB0;" d="M48.403,0H29v58h18.044h3.026c1.066,0,1.93-0.864,1.93-1.93V3.56C51.96,1.594,50.368,0,48.403,0z"/>
<path style="fill:#727D82;" d="M9.56,0C7.594,0,6,1.594,6,3.56v52.51C6,57.136,6.864,58,7.93,58H29V0H9.56z"/>
<line style="fill:none;stroke:#556080;stroke-width:2;stroke-linecap:round;stroke-miterlimit:10;" x1="40" y1="7" x2="42" y2="7"/>
<rect x="10" y="27" style="fill:#556080;" width="15" height="10"/>
<rect x="33" y="22" style="fill:#556080;" width="15" height="15"/>
<rect x="10" y="34" style="fill:#38454F;" width="15" height="3"/>
<rect x="13" y="27" style="fill:#FFFFFF;" width="3" height="4"/>
<rect x="19" y="27" style="fill:#FFFFFF;" width="3" height="4"/>
<line style="fill:none;stroke:#38454F;stroke-width:2;stroke-linecap:round;stroke-miterlimit:10;" x1="36" y1="26" x2="45" y2="26"/>
<rect x="10" y="22" style="fill:#38454F;" width="15" height="5"/>
<rect x="28" style="fill:#556080;" width="2" height="58"/>
<g>
</g>
<g>
</g>
<g>
</g>
<g>
</g>
<g>
</g>
<g>
</g>
<g>
</g>
<g>
</g>
<g>
</g>
<g>
</g>
<g>
</g>
<g>
</g>
<g>
</g>
<g>
</g>
<g>
</g>
</svg>
