<?xml version="1.0" encoding="iso-8859-1"?>
<!-- Generator: Adobe Illustrator 18.0.0, SVG Export Plug-In . SVG Version: 6.00 Build 0)  -->
<!DOCTYPE svg PUBLIC "-//W3C//DTD SVG 1.1//EN" "http://www.w3.org/Graphics/SVG/1.1/DTD/svg11.dtd">
<svg version="1.1" id="Capa_1" xmlns="http://www.w3.org/2000/svg" xmlns:xlink="http://www.w3.org/1999/xlink" x="0px" y="0px"
	 viewBox="0 0 58 58" style="enable-background:new 0 0 58 58;" xml:space="preserve">
<path style="fill:#D3CEB8;" d="M14.5,56.059c0,1.072,0.869,1.941,1.941,1.941h25.119c1.072,0,1.941-0.869,1.941-1.941V35h-29V56.059
	z"/>
<path style="fill:#E6E0C8;" d="M41.559,0H16.441C15.369,0,14.5,0.869,14.5,1.941V35h29V1.941C43.5,0.869,42.631,0,41.559,0z"/>
<path style="fill:#392338;" d="M17.5,32c-0.553,0-1-0.447-1-1s0.447-1,1-1c0.552,0,1-0.448,1-1v-6c0-0.552-0.448-1-1-1
	c-0.553,0-1-0.447-1-1s0.447-1,1-1c1.654,0,3,1.346,3,3v6C20.5,30.654,19.154,32,17.5,32z"/>
<path style="fill:#392338;" d="M17.5,50c-0.553,0-1-0.447-1-1s0.447-1,1-1c0.552,0,1-0.448,1-1v-6c0-0.552-0.448-1-1-1
	c-0.553,0-1-0.447-1-1s0.447-1,1-1c1.654,0,3,1.346,3,3v6C20.5,48.654,19.154,50,17.5,50z"/>
<path style="fill:#392338;" d="M29.5,7h-2c-0.553,0-1-0.447-1-1s0.447-1,1-1h2c0.553,0,1,0.447,1,1S30.053,7,29.5,7z"/>
<g>
</g>
<g>
</g>
<g>
</g>
<g>
</g>
<g>
</g>
<g>
</g>
<g>
</g>
<g>
</g>
<g>
</g>
<g>
</g>
<g>
</g>
<g>
</g>
<g>
</g>
<g>
</g>
<g>
</g>
</svg>
