<?xml version="1.0" encoding="iso-8859-1"?>
<!-- Generator: Adobe Illustrator 18.0.0, SVG Export Plug-In . SVG Version: 6.00 Build 0)  -->
<!DOCTYPE svg PUBLIC "-//W3C//DTD SVG 1.1//EN" "http://www.w3.org/Graphics/SVG/1.1/DTD/svg11.dtd">
<svg version="1.1" id="Capa_1" xmlns="http://www.w3.org/2000/svg" xmlns:xlink="http://www.w3.org/1999/xlink" x="0px" y="0px"
	 viewBox="0 0 58 58" style="enable-background:new 0 0 58 58;" xml:space="preserve">
<path style="fill:#AAC1CF;" d="M7.17,0C6.524,0,6,0.524,6,1.17V40h23V0H7.17z"/>
<path style="fill:#B6CFDB;" d="M50.83,0H29v40h23V1.17C52,0.524,51.476,0,50.83,0z"/>
<line style="fill:none;stroke:#FFFFFF;stroke-width:2;stroke-linecap:round;stroke-miterlimit:10;" x1="40" y1="7" x2="42" y2="7"/>
<path style="fill:#C8DAE4;" d="M6,40v16.07C6,57.136,6.864,58,7.93,58h42.14c1.066,0,1.93-0.864,1.93-1.93V40H6z"/>
<rect x="11" y="22" style="fill:#556080;" width="10" height="12"/>
<rect x="14" y="22" style="fill:#FFFFFF;" width="4" height="5"/>
<path style="fill:#556080;" d="M25,37c-0.552,0-1-0.447-1-1V20c0-0.553,0.448-1,1-1s1,0.447,1,1v16C26,36.553,25.552,37,25,37z"/>
<path style="fill:#556080;" d="M33,37c-0.552,0-1-0.447-1-1V20c0-0.553,0.448-1,1-1s1,0.447,1,1v16C34,36.553,33.552,37,33,37z"/>
<path style="fill:#556080;" d="M37,45H21c-0.552,0-1-0.447-1-1s0.448-1,1-1h16c0.552,0,1,0.447,1,1S37.552,45,37,45z"/>
<rect x="28" style="fill:#879EAA;" width="2" height="40"/>
<rect x="6" y="39" style="fill:#879EAA;" width="46" height="2"/>
<g>
</g>
<g>
</g>
<g>
</g>
<g>
</g>
<g>
</g>
<g>
</g>
<g>
</g>
<g>
</g>
<g>
</g>
<g>
</g>
<g>
</g>
<g>
</g>
<g>
</g>
<g>
</g>
<g>
</g>
</svg>
