<?xml version="1.0" encoding="iso-8859-1"?>
<!-- Generator: Adobe Illustrator 18.0.0, SVG Export Plug-In . SVG Version: 6.00 Build 0)  -->
<!DOCTYPE svg PUBLIC "-//W3C//DTD SVG 1.1//EN" "http://www.w3.org/Graphics/SVG/1.1/DTD/svg11.dtd">
<svg version="1.1" id="Capa_1" xmlns="http://www.w3.org/2000/svg" xmlns:xlink="http://www.w3.org/1999/xlink" x="0px" y="0px"
	 viewBox="0 0 60 60" style="enable-background:new 0 0 60 60;" xml:space="preserve">
<rect x="33" y="4.5" style="fill:#EFCE4A;stroke:#556080;stroke-width:2;stroke-miterlimit:10;" width="24" height="14"/>
<path style="fill:#23A24D;" d="M34,16.5l3.782-3.188c0.762-0.508,1.726-0.609,2.577-0.268l2.076,0.83
	c0.962,0.385,2.058,0.203,2.845-0.471l3.764-3.226c1.104-0.946,2.751-0.883,3.779,0.145L56,14.5v3H34V16.5z"/>
<path style="fill:#556080;" d="M20,58.5H8c-1.1,0-2-0.9-2-2v0c0-1.1,0.9-2,2-2h12c1.1,0,2,0.9,2,2v0C22,57.6,21.1,58.5,20,58.5z"/>
<line style="fill:none;stroke:#556080;stroke-width:2;stroke-miterlimit:10;" x1="14" y1="54.5" x2="14" y2="5.5"/>
<line style="fill:none;stroke:#556080;stroke-width:2;stroke-miterlimit:10;" x1="14" y1="34.5" x2="24" y2="24.5"/>
<line style="fill:none;stroke:#556080;stroke-width:2;stroke-miterlimit:10;" x1="14" y1="29.5" x2="8" y2="23.5"/>
<line style="fill:none;stroke:#556080;stroke-width:2;stroke-miterlimit:10;" x1="14" y1="19.5" x2="19" y2="14.5"/>
<circle style="fill:#556080;" cx="26" cy="22.5" r="3"/>
<circle style="fill:#556080;" cx="21" cy="12.5" r="3"/>
<circle style="fill:#556080;" cx="6" cy="21.5" r="3"/>
<circle style="fill:#556080;" cx="14" cy="3.5" r="3"/>
<line style="fill:none;stroke:#38454F;stroke-width:2;stroke-linecap:round;stroke-miterlimit:10;" x1="1" y1="58.5" x2="59" y2="58.5"/>
<g>
</g>
<g>
</g>
<g>
</g>
<g>
</g>
<g>
</g>
<g>
</g>
<g>
</g>
<g>
</g>
<g>
</g>
<g>
</g>
<g>
</g>
<g>
</g>
<g>
</g>
<g>
</g>
<g>
</g>
</svg>
