<?xml version="1.0" encoding="iso-8859-1"?>
<!-- Generator: Adobe Illustrator 18.0.0, SVG Export Plug-In . SVG Version: 6.00 Build 0)  -->
<!DOCTYPE svg PUBLIC "-//W3C//DTD SVG 1.1//EN" "http://www.w3.org/Graphics/SVG/1.1/DTD/svg11.dtd">
<svg version="1.1" id="Capa_1" xmlns="http://www.w3.org/2000/svg" xmlns:xlink="http://www.w3.org/1999/xlink" x="0px" y="0px"
	 viewBox="0 0 60 60" style="enable-background:new 0 0 60 60;" xml:space="preserve">
<path style="fill:#556080;" d="M18,58.5H6c-1.1,0-2-0.9-2-2v0c0-1.1,0.9-2,2-2h12c1.1,0,2,0.9,2,2v0C20,57.6,19.1,58.5,18,58.5z"/>
<line style="fill:none;stroke:#949493;stroke-width:2;stroke-miterlimit:10;" x1="12" y1="54.5" x2="12" y2="5.5"/>
<line style="fill:none;stroke:#949493;stroke-width:2;stroke-miterlimit:10;" x1="12" y1="44.5" x2="22" y2="34.5"/>
<line style="fill:none;stroke:#949493;stroke-width:2;stroke-miterlimit:10;" x1="12" y1="36.5" x2="6" y2="30.5"/>
<line style="fill:none;stroke:#949493;stroke-width:2;stroke-miterlimit:10;" x1="12" y1="16.5" x2="6" y2="10.5"/>
<line style="fill:none;stroke:#949493;stroke-width:2;stroke-miterlimit:10;" x1="12" y1="24.5" x2="17" y2="19.5"/>
<polygon style="fill:#556080;" points="35,58.5 29,58.5 26,40.5 38,40.5 "/>
<path style="fill:none;stroke:#38454F;stroke-width:2;stroke-miterlimit:10;" d="M33,32.833c0-1.842,1.491-3.333,3.333-3.333"/>
<path style="fill:none;stroke:#38454F;stroke-width:2;stroke-miterlimit:10;" d="M39.667,32.833c0-1.842-1.491-3.333-3.333-3.333"/>
<line style="fill:none;stroke:#38454F;stroke-width:2;stroke-miterlimit:10;" x1="33" y1="32.833" x2="33" y2="40.5"/>
<line style="fill:none;stroke:#38454F;stroke-width:2;stroke-miterlimit:10;" x1="0" y1="58.5" x2="60" y2="58.5"/>
<circle style="fill:#C7CAC7;" cx="12" cy="3.5" r="3"/>
<g>
</g>
<g>
</g>
<g>
</g>
<g>
</g>
<g>
</g>
<g>
</g>
<g>
</g>
<g>
</g>
<g>
</g>
<g>
</g>
<g>
</g>
<g>
</g>
<g>
</g>
<g>
</g>
<g>
</g>
</svg>
