<?xml version="1.0" encoding="iso-8859-1"?>
<!-- Generator: Adobe Illustrator 18.0.0, SVG Export Plug-In . SVG Version: 6.00 Build 0)  -->
<!DOCTYPE svg PUBLIC "-//W3C//DTD SVG 1.1//EN" "http://www.w3.org/Graphics/SVG/1.1/DTD/svg11.dtd">
<svg version="1.1" id="Capa_1" xmlns="http://www.w3.org/2000/svg" xmlns:xlink="http://www.w3.org/1999/xlink" x="0px" y="0px"
	 viewBox="0 0 60 60" style="enable-background:new 0 0 60 60;" xml:space="preserve">
<line style="fill:none;stroke:#949493;stroke-width:2;stroke-miterlimit:10;" x1="18" y1="58.5" x2="18" y2="7.5"/>
<path style="fill:none;stroke:#7383BF;stroke-width:2;stroke-linecap:round;stroke-miterlimit:10;" d="M27,9.5c0,4.975-4.025,9-9,9"
	/>
<path style="fill:none;stroke:#7383BF;stroke-width:2;stroke-linecap:round;stroke-miterlimit:10;" d="M31,9.5
	c0,7.168-5.832,13-13,13"/>
<path style="fill:none;stroke:#7383BF;stroke-width:2;stroke-linecap:round;stroke-miterlimit:10;" d="M9,9.5c0,4.975,4.025,9,9,9"
	/>
<circle style="fill:#C7CAC7;" cx="18" cy="4.5" r="4"/>
<path style="fill:none;stroke:#949493;stroke-width:2;stroke-miterlimit:10;" d="M18,47.5c0,6.08-4.92,11-11,11"/>
<path style="fill:none;stroke:#949493;stroke-width:2;stroke-miterlimit:10;" d="M18,47.5c0,6.08,4.92,11,11,11"/>
<path style="fill:none;stroke:#7383BF;stroke-width:2;stroke-linecap:round;stroke-miterlimit:10;" d="M5,9.5
	c0,7.168,5.832,13,13,13"/>
<line style="fill:none;stroke:#556080;stroke-width:2;stroke-linecap:round;stroke-miterlimit:10;" x1="1" y1="58.5" x2="59" y2="58.5"/>
<g>
</g>
<g>
</g>
<g>
</g>
<g>
</g>
<g>
</g>
<g>
</g>
<g>
</g>
<g>
</g>
<g>
</g>
<g>
</g>
<g>
</g>
<g>
</g>
<g>
</g>
<g>
</g>
<g>
</g>
</svg>
