<?xml version="1.0" encoding="iso-8859-1"?>
<!-- Generator: Adobe Illustrator 18.0.0, SVG Export Plug-In . SVG Version: 6.00 Build 0)  -->
<!DOCTYPE svg PUBLIC "-//W3C//DTD SVG 1.1//EN" "http://www.w3.org/Graphics/SVG/1.1/DTD/svg11.dtd">
<svg version="1.1" id="Capa_1" xmlns="http://www.w3.org/2000/svg" xmlns:xlink="http://www.w3.org/1999/xlink" x="0px" y="0px"
	 viewBox="0 0 58 58" style="enable-background:new 0 0 58 58;" xml:space="preserve">
<rect y="4.5" style="fill:#EAEBF0;" width="58" height="46"/>
<rect x="3" y="50.5" style="fill:#AFB6BB;" width="4" height="3"/>
<rect x="51" y="50.5" style="fill:#AFB6BB;" width="4" height="3"/>
<rect x="4" y="8.5" style="fill:#556080;" width="41" height="38"/>
<g>
	<path style="fill:#EBBA16;" d="M8,15.086l-4.707,4.707c-0.391,0.391-0.391,1.023,0,1.414C3.488,21.402,3.744,21.5,4,21.5
		s0.512-0.098,0.707-0.293L8,17.914l1.294,1.294c0.391,0.391,1.023,0.391,1.414,0s0.391-1.023,0-1.414L8,15.086z"/>
	<path style="fill:#EBBA16;" d="M20,15.086l-3,3l-0.294-0.294c-0.391-0.391-1.023-0.391-1.414,0s-0.391,1.023,0,1.414L17,20.914l3-3
		l1.294,1.294c0.391,0.391,1.023,0.391,1.414,0s0.391-1.023,0-1.414L20,15.086z"/>
	<path style="fill:#EBBA16;" d="M32,15.086l-3,3l-0.292-0.292c-0.391-0.391-1.023-0.391-1.414,0s-0.391,1.023,0,1.414L29,20.914l3-3
		l0.294,0.294c0.391,0.391,1.023,0.391,1.414,0s0.391-1.023,0-1.414L32,15.086z"/>
	<path style="fill:#EBBA16;" d="M44.293,14.793L41,18.086l-1.294-1.294c-0.391-0.391-1.023-0.391-1.414,0s-0.391,1.023,0,1.414
		L41,20.914l4.707-4.707c0.391-0.391,0.391-1.023,0-1.414S44.684,14.402,44.293,14.793z"/>
	<path style="fill:#EBBA16;" d="M8,19.086l-4.707,4.707c-0.391,0.391-0.391,1.023,0,1.414C3.488,25.402,3.744,25.5,4,25.5
		s0.512-0.098,0.707-0.293L8,21.914l1.294,1.294c0.391,0.391,1.023,0.391,1.414,0s0.391-1.023,0-1.414L8,19.086z"/>
	<path style="fill:#EBBA16;" d="M20,19.086l-3,3l-0.294-0.294c-0.391-0.391-1.023-0.391-1.414,0s-0.391,1.023,0,1.414L17,24.914l3-3
		l1.294,1.294c0.391,0.391,1.023,0.391,1.414,0s0.391-1.023,0-1.414L20,19.086z"/>
	<path style="fill:#EBBA16;" d="M32,19.086l-3,3l-0.292-0.292c-0.391-0.391-1.023-0.391-1.414,0s-0.391,1.023,0,1.414L29,24.914l3-3
		l0.294,0.294c0.391,0.391,1.023,0.391,1.414,0s0.391-1.023,0-1.414L32,19.086z"/>
	<path style="fill:#EBBA16;" d="M44.293,18.793L41,22.086l-1.294-1.294c-0.391-0.391-1.023-0.391-1.414,0s-0.391,1.023,0,1.414
		L41,24.914l4.707-4.707c0.391-0.391,0.391-1.023,0-1.414S44.684,18.402,44.293,18.793z"/>
	<path style="fill:#EBBA16;" d="M8,11.086l-4.707,4.707c-0.391,0.391-0.391,1.023,0,1.414C3.488,17.402,3.744,17.5,4,17.5
		s0.512-0.098,0.707-0.293L8,13.914l1.294,1.294c0.391,0.391,1.023,0.391,1.414,0s0.391-1.023,0-1.414L8,11.086z"/>
	<path style="fill:#EBBA16;" d="M20,11.086l-3,3l-0.294-0.294c-0.391-0.391-1.023-0.391-1.414,0s-0.391,1.023,0,1.414L17,16.914l3-3
		l1.294,1.294c0.391,0.391,1.023,0.391,1.414,0s0.391-1.023,0-1.414L20,11.086z"/>
	<path style="fill:#EBBA16;" d="M29,16.914l3-3l0.292,0.292c0.391,0.391,1.023,0.391,1.414,0s0.391-1.023,0-1.414L32,11.086l-3,3
		l-0.292-0.292c-0.391-0.391-1.023-0.391-1.414,0s-0.391,1.023,0,1.414L29,16.914z"/>
	<path style="fill:#EBBA16;" d="M41,16.914l4.707-4.707c0.391-0.391,0.391-1.023,0-1.414s-1.023-0.391-1.414,0L41,14.086
		l-1.294-1.294c-0.391-0.391-1.023-0.391-1.414,0s-0.391,1.023,0,1.414L41,16.914z"/>
	<path style="fill:#EBBA16;" d="M8,34.086l-4.707,4.707c-0.391,0.391-0.391,1.023,0,1.414C3.488,40.402,3.744,40.5,4,40.5
		s0.512-0.098,0.707-0.293L8,36.914l1.294,1.294c0.391,0.391,1.023,0.391,1.414,0s0.391-1.023,0-1.414L8,34.086z"/>
	<path style="fill:#EBBA16;" d="M20,34.086l-3,3l-0.294-0.294c-0.391-0.391-1.023-0.391-1.414,0s-0.391,1.023,0,1.414L17,39.914l3-3
		l1.294,1.294c0.391,0.391,1.023,0.391,1.414,0s0.391-1.023,0-1.414L20,34.086z"/>
	<path style="fill:#EBBA16;" d="M32,34.086l-3,3l-0.292-0.292c-0.391-0.391-1.023-0.391-1.414,0s-0.391,1.023,0,1.414L29,39.914l3-3
		l0.294,0.294c0.391,0.391,1.023,0.391,1.414,0s0.391-1.023,0-1.414L32,34.086z"/>
	<path style="fill:#EBBA16;" d="M44.293,33.793L41,37.086l-1.294-1.294c-0.391-0.391-1.023-0.391-1.414,0s-0.391,1.023,0,1.414
		L41,39.914l4.707-4.707c0.391-0.391,0.391-1.023,0-1.414S44.684,33.402,44.293,33.793z"/>
	<path style="fill:#EBBA16;" d="M8,38.086l-4.707,4.707c-0.391,0.391-0.391,1.023,0,1.414C3.488,44.402,3.744,44.5,4,44.5
		s0.512-0.098,0.707-0.293L8,40.914l1.294,1.294c0.391,0.391,1.023,0.391,1.414,0s0.391-1.023,0-1.414L8,38.086z"/>
	<path style="fill:#EBBA16;" d="M20,38.086l-3,3l-0.294-0.294c-0.391-0.391-1.023-0.391-1.414,0s-0.391,1.023,0,1.414L17,43.914l3-3
		l1.294,1.294c0.391,0.391,1.023,0.391,1.414,0s0.391-1.023,0-1.414L20,38.086z"/>
	<path style="fill:#EBBA16;" d="M32,38.086l-3,3l-0.292-0.292c-0.391-0.391-1.023-0.391-1.414,0s-0.391,1.023,0,1.414L29,43.914l3-3
		l0.294,0.294c0.391,0.391,1.023,0.391,1.414,0s0.391-1.023,0-1.414L32,38.086z"/>
	<path style="fill:#EBBA16;" d="M44.293,37.793L41,41.086l-1.294-1.294c-0.391-0.391-1.023-0.391-1.414,0s-0.391,1.023,0,1.414
		L41,43.914l4.707-4.707c0.391-0.391,0.391-1.023,0-1.414S44.684,37.402,44.293,37.793z"/>
	<path style="fill:#EBBA16;" d="M8,30.086l-4.707,4.707c-0.391,0.391-0.391,1.023,0,1.414C3.488,36.402,3.744,36.5,4,36.5
		s0.512-0.098,0.707-0.293L8,32.914l1.294,1.294c0.391,0.391,1.023,0.391,1.414,0s0.391-1.023,0-1.414L8,30.086z"/>
	<path style="fill:#EBBA16;" d="M20,30.086l-3,3l-0.294-0.294c-0.391-0.391-1.023-0.391-1.414,0s-0.391,1.023,0,1.414L17,35.914l3-3
		l1.294,1.294c0.391,0.391,1.023,0.391,1.414,0s0.391-1.023,0-1.414L20,30.086z"/>
	<path style="fill:#EBBA16;" d="M29,35.914l3-3l0.292,0.292c0.391,0.391,1.023,0.391,1.414,0s0.391-1.023,0-1.414L32,30.086l-3,3
		l-0.292-0.292c-0.391-0.391-1.023-0.391-1.414,0s-0.391,1.023,0,1.414L29,35.914z"/>
	<path style="fill:#EBBA16;" d="M44.293,29.793L41,33.086l-1.294-1.294c-0.391-0.391-1.023-0.391-1.414,0s-0.391,1.023,0,1.414
		L41,35.914l4.707-4.707c0.391-0.391,0.391-1.023,0-1.414S44.684,29.402,44.293,29.793z"/>
</g>
<rect x="49" y="8.5" style="fill:#C2C4C8;" width="5" height="4"/>
<rect x="49" y="15.5" style="fill:#C2C4C8;" width="5" height="4"/>
<path style="fill:#38454F;" d="M3,7.5v40h43v-40H3z M44,26.5h-7v-17h7V26.5z M14,9.5h10v17H14V9.5z M24,28.5v17H14v-17H24z M26,28.5
	h9v17h-9V28.5z M26,26.5v-17h9v17H26z M12,9.5v17H5v-17H12z M5,28.5h7v17H5V28.5z M37,45.5v-17h7v17H37z"/>
<path style="fill:#999A9F;" d="M55.714,40.357c0-2.13-1.727-3.857-3.857-3.857S48,38.227,48,40.357c0,0.22,0.029,0.433,0.065,0.643
	C48.029,41.21,48,41.423,48,41.643c0,2.13,1.727,3.857,3.857,3.857s3.857-1.727,3.857-3.857c0-0.22-0.029-0.433-0.065-0.643
	C55.685,40.79,55.714,40.577,55.714,40.357z"/>
<circle style="fill:#C2C4C8;" cx="51.857" cy="40.357" r="3.857"/>
<line style="fill:none;stroke:#FFFFFF;stroke-width:2;stroke-miterlimit:10;" x1="51.857" y1="40.515" x2="53.789" y2="38.5"/>
<g>
</g>
<g>
</g>
<g>
</g>
<g>
</g>
<g>
</g>
<g>
</g>
<g>
</g>
<g>
</g>
<g>
</g>
<g>
</g>
<g>
</g>
<g>
</g>
<g>
</g>
<g>
</g>
<g>
</g>
</svg>
