<?xml version="1.0" encoding="iso-8859-1"?>
<!-- Generator: Adobe Illustrator 18.0.0, SVG Export Plug-In . SVG Version: 6.00 Build 0)  -->
<!DOCTYPE svg PUBLIC "-//W3C//DTD SVG 1.1//EN" "http://www.w3.org/Graphics/SVG/1.1/DTD/svg11.dtd">
<svg version="1.1" id="Capa_1" xmlns="http://www.w3.org/2000/svg" xmlns:xlink="http://www.w3.org/1999/xlink" x="0px" y="0px"
	 viewBox="0 0 58 58" style="enable-background:new 0 0 58 58;" xml:space="preserve">
<rect x="21" y="6" style="fill:#D6CBC7;" width="16" height="15"/>
<rect y="41" style="fill:#D6CBC7;" width="58" height="11"/>
<polygon style="fill:#A89B98;" points="58,41 0,41 21,21 37,21 "/>
<rect x="45" y="45" style="fill:#FFFFFF;" width="3" height="3"/>
<rect x="51" y="45" style="fill:#FFFFFF;" width="3" height="3"/>
<line style="fill:none;stroke:#FFFFFF;stroke-width:2;stroke-linecap:round;stroke-linejoin:round;stroke-miterlimit:10;" x1="4" y1="48" x2="9" y2="48"/>
<path style="fill:#A89B98;" d="M19,48c-0.553,0-1,0.447-1,1v3h2v-3C20,48.447,19.553,48,19,48z"/>
<path style="fill:#A89B98;" d="M23,48c-0.553,0-1,0.447-1,1v3h2v-3C24,48.447,23.553,48,23,48z"/>
<path style="fill:#A89B98;" d="M27,48c-0.553,0-1,0.447-1,1v3h2v-3C28,48.447,27.553,48,27,48z"/>
<path style="fill:#A89B98;" d="M31,48c-0.553,0-1,0.447-1,1v3h2v-3C32,48.447,31.553,48,31,48z"/>
<path style="fill:#A89B98;" d="M35,48c-0.553,0-1,0.447-1,1v3h2v-3C36,48.447,35.553,48,35,48z"/>
<path style="fill:#A89B98;" d="M39,48c-0.553,0-1,0.447-1,1v3h2v-3C40,48.447,39.553,48,39,48z"/>
<path style="fill:#D6CBC7;" d="M14.081,41l6.7-8.375c0.345-0.432,0.274-1.061-0.156-1.406c-0.433-0.346-1.06-0.272-1.406,0.156
	L11.519,41H14.081z"/>
<path style="fill:#D6CBC7;" d="M43.919,41h2.563l-7.7-9.625c-0.346-0.431-0.974-0.502-1.406-0.156
	c-0.431,0.346-0.501,0.975-0.156,1.406L43.919,41z"/>
<g>
</g>
<g>
</g>
<g>
</g>
<g>
</g>
<g>
</g>
<g>
</g>
<g>
</g>
<g>
</g>
<g>
</g>
<g>
</g>
<g>
</g>
<g>
</g>
<g>
</g>
<g>
</g>
<g>
</g>
</svg>
