<?xml version="1.0" encoding="iso-8859-1"?>
<!-- Generator: Adobe Illustrator 18.0.0, SVG Export Plug-In . SVG Version: 6.00 Build 0)  -->
<!DOCTYPE svg PUBLIC "-//W3C//DTD SVG 1.1//EN" "http://www.w3.org/Graphics/SVG/1.1/DTD/svg11.dtd">
<svg version="1.1" id="Capa_1" xmlns="http://www.w3.org/2000/svg" xmlns:xlink="http://www.w3.org/1999/xlink" x="0px" y="0px"
	 viewBox="0 0 56 56" style="enable-background:new 0 0 56 56;" xml:space="preserve">
<path style="fill:#289341;" d="M43,29.797C42.897,13.984,30.989,4,28,4c-3.002,0-15,10.07-15,26c0,0.553,0.448,1,1,1h28
	c0.006,0,0.013,0,0.02,0c0.552,0,1-0.447,1-1C43.02,29.931,43.013,29.862,43,29.797z"/>
<path style="fill:#2FC95A;" d="M28.574,4.184c-0.347-0.244-0.81-0.244-1.155,0c-2.534,1.793-5.417,6.25-7.599,25.705
	c-0.032,0.283,0.059,0.565,0.248,0.778C20.258,30.879,20.529,31,20.814,31h14.369c0.285,0,0.556-0.121,0.746-0.333
	c0.189-0.213,0.28-0.496,0.248-0.778C33.994,10.434,31.109,5.977,28.574,4.184z"/>
<rect y="30" style="fill:#43B05C;" width="56" height="4"/>
<path style="fill:#23A24D;" d="M44.883,52H11.117C6.082,52,2,47.918,2,42.883V34h52v8.883C54,47.918,49.918,52,44.883,52z"/>
<g>
</g>
<g>
</g>
<g>
</g>
<g>
</g>
<g>
</g>
<g>
</g>
<g>
</g>
<g>
</g>
<g>
</g>
<g>
</g>
<g>
</g>
<g>
</g>
<g>
</g>
<g>
</g>
<g>
</g>
</svg>
