<?xml version="1.0" encoding="iso-8859-1"?>
<!-- Generator: Adobe Illustrator 18.0.0, SVG Export Plug-In . SVG Version: 6.00 Build 0)  -->
<!DOCTYPE svg PUBLIC "-//W3C//DTD SVG 1.1//EN" "http://www.w3.org/Graphics/SVG/1.1/DTD/svg11.dtd">
<svg version="1.1" id="Capa_1" xmlns="http://www.w3.org/2000/svg" xmlns:xlink="http://www.w3.org/1999/xlink" x="0px" y="0px"
	 viewBox="0 0 58 58" style="enable-background:new 0 0 58 58;" xml:space="preserve">
<path style="fill:#EBBA16;" d="M29,57L29,57c-6.805,0-11.982-6.111-10.863-12.823L20,33h18l1.863,11.177
	C40.982,50.889,35.805,57,29,57z"/>
<path style="fill:none;stroke:#FFFFFF;stroke-width:2;stroke-linecap:round;stroke-linejoin:round;stroke-miterlimit:10;" d="M31,49
	c1.1,0,2-0.9,2-2v0c0-1.1-0.9-2-2-2h-4c-1.1,0-2-0.9-2-2v0c0-1.1,0.9-2,2-2h4c1.1,0,2-0.9,2-2v0c0-1.1-0.9-2-2-2h-4
	c-1.1,0-2-0.9-2-2v0c0-1.1,0.9-2,2-2h4"/>
<line style="fill:none;stroke:#FFFFFF;stroke-width:2;stroke-linecap:round;stroke-linejoin:round;stroke-miterlimit:10;" x1="29" y1="33" x2="29" y2="49"/>
<line style="fill:none;stroke:#38454F;stroke-width:2;stroke-linecap:round;stroke-linejoin:round;stroke-miterlimit:10;" x1="29" y1="8" x2="29" y2="2"/>
<polygon style="fill:#D3AC7A;" points="58,33 0,33 20,22 38,22 "/>
<rect x="20" y="19" style="fill:#D89D5B;" width="18" height="3"/>
<rect x="23" y="15" style="fill:#C19969;" width="12" height="4"/>
<rect x="21" y="12" style="fill:#D89D5B;" width="16" height="3"/>
<rect x="27" y="8" style="fill:#556080;" width="4" height="4"/>
<g>
</g>
<g>
</g>
<g>
</g>
<g>
</g>
<g>
</g>
<g>
</g>
<g>
</g>
<g>
</g>
<g>
</g>
<g>
</g>
<g>
</g>
<g>
</g>
<g>
</g>
<g>
</g>
<g>
</g>
</svg>
