<?xml version="1.0" encoding="iso-8859-1"?>
<!-- Generator: Adobe Illustrator 18.0.0, SVG Export Plug-In . SVG Version: 6.00 Build 0)  -->
<!DOCTYPE svg PUBLIC "-//W3C//DTD SVG 1.1//EN" "http://www.w3.org/Graphics/SVG/1.1/DTD/svg11.dtd">
<svg version="1.1" id="Capa_1" xmlns="http://www.w3.org/2000/svg" xmlns:xlink="http://www.w3.org/1999/xlink" x="0px" y="0px"
	 viewBox="0 0 54.193 54.193" style="enable-background:new 0 0 54.193 54.193;" xml:space="preserve">
<polyline style="fill:none;stroke:#7383BF;stroke-width:2;stroke-linecap:round;stroke-miterlimit:10;" points="47.118,15.193 
	25.118,1.193 22.118,3.193 "/>
<line style="fill:none;stroke:#7383BF;stroke-width:2;stroke-linecap:round;stroke-miterlimit:10;" x1="47.118" y1="21.193" x2="26.118" y2="46.193"/>
<path style="fill:#38454F;" d="M50.118,54.193h-47v0c0-3.314,2.686-6,6-6h35C47.431,48.193,50.118,50.88,50.118,54.193
	L50.118,54.193z"/>
<rect x="14.118" y="44.193" style="fill:#556080;" width="25" height="4"/>
<circle style="fill:#556080;" cx="50.118" cy="18.193" r="4"/>
<path style="fill:#EFCE4A;" d="M18.126,17.084l1.421-1.421c2.735-2.735,2.353-6.787-0.382-9.521S12.379,3.025,9.644,5.76
	L8.236,7.176l-8.16,3.917l14.142,14.142L18.126,17.084z"/>
<path style="fill:#C7CAC7;" d="M19.166,6.141c0.761,0.761,1.332,1.626,1.712,2.534l3.239-3.239l-4.243-4.243l-3.238,3.238
	C17.544,4.811,18.406,5.382,19.166,6.141z"/>
<g>
</g>
<g>
</g>
<g>
</g>
<g>
</g>
<g>
</g>
<g>
</g>
<g>
</g>
<g>
</g>
<g>
</g>
<g>
</g>
<g>
</g>
<g>
</g>
<g>
</g>
<g>
</g>
<g>
</g>
</svg>
