<?xml version="1.0" encoding="iso-8859-1"?>
<!-- Generator: Adobe Illustrator 18.0.0, SVG Export Plug-In . SVG Version: 6.00 Build 0)  -->
<!DOCTYPE svg PUBLIC "-//W3C//DTD SVG 1.1//EN" "http://www.w3.org/Graphics/SVG/1.1/DTD/svg11.dtd">
<svg version="1.1" id="Capa_1" xmlns="http://www.w3.org/2000/svg" xmlns:xlink="http://www.w3.org/1999/xlink" x="0px" y="0px"
	 viewBox="0 0 58 58" style="enable-background:new 0 0 58 58;" xml:space="preserve">
<rect x="0" y="3" style="fill:#9D8980;" width="42" height="11"/>
<rect x="3" y="10" style="fill:#EBBA16;" width="36" height="4"/>
<rect x="35" y="3" style="fill:#BFA380;" width="4" height="3"/>
<circle style="fill:#6B5B4B;" cx="55" cy="22" r="3"/>
<circle style="fill:#6B5B4B;" cx="40" cy="37" r="3"/>
<path style="fill:#BFA380;" d="M42,6.473l0.151-0.151l12.693,12.693c-1.53,0.08-2.748,1.298-2.828,2.828L42,11.828V6.473z"/>
<path style="fill:#BFA380;" d="M40.156,34.016l11.86-11.86c0.08,1.53,1.298,2.749,2.828,2.828l-11.86,11.86
	C42.904,35.314,41.686,34.096,40.156,34.016z"/>
<rect x="11" y="52" style="fill:#6B5B4B;" width="44" height="3"/>
<path style="fill:#BFA380;" d="M40,40c0.353,0,0.686-0.072,1-0.184V52h-3V39.221C38.532,39.7,39.228,40,40,40z"/>
<g>
</g>
<g>
</g>
<g>
</g>
<g>
</g>
<g>
</g>
<g>
</g>
<g>
</g>
<g>
</g>
<g>
</g>
<g>
</g>
<g>
</g>
<g>
</g>
<g>
</g>
<g>
</g>
<g>
</g>
</svg>
