<?xml version="1.0" encoding="iso-8859-1"?>
<!-- Generator: Adobe Illustrator 18.0.0, SVG Export Plug-In . SVG Version: 6.00 Build 0)  -->
<!DOCTYPE svg PUBLIC "-//W3C//DTD SVG 1.1//EN" "http://www.w3.org/Graphics/SVG/1.1/DTD/svg11.dtd">
<svg version="1.1" id="Capa_1" xmlns="http://www.w3.org/2000/svg" xmlns:xlink="http://www.w3.org/1999/xlink" x="0px" y="0px"
	 viewBox="0 0 57 57" style="enable-background:new 0 0 57 57;" xml:space="preserve">
<path style="fill:#EDE7E9;" d="M36.485,53h-15.97c-3.322,0-6.015-2.693-6.015-6.015V19.006c0-4.447,1.943-8.672,5.32-11.566L28.5,0
	l8.68,7.44c3.376,2.894,5.32,7.119,5.32,11.566v27.978C42.5,50.307,39.807,53,36.485,53z"/>
<path style="fill:#7383BF;" d="M35.5,49h-14c-1.65,0-3-1.35-3-3v-2.361c0-0.352,0.288-0.639,0.639-0.639h18.721
	c0.352,0,0.639,0.288,0.639,0.639V46C38.5,47.65,37.15,49,35.5,49z"/>
<polygon style="fill:#556080;" points="35.5,45 21.5,45 21.5,47 23.5,47 23.5,57 25.5,57 25.5,47 27.5,47 27.5,57 29.5,57 29.5,47 
	31.5,47 31.5,57 33.5,57 33.5,47 35.5,47 "/>
<path style="fill:#A1C8EC;" d="M38.5,38h-20V22.208c0-1.771,1.436-3.208,3.208-3.208h13.585c1.771,0,3.208,1.436,3.208,3.208V38z"/>
<path style="fill:none;stroke:#7383BF;stroke-width:2;stroke-miterlimit:10;" d="M21.5,38c0,2.764,2.236,5,5,5"/>
<path style="fill:none;stroke:#7383BF;stroke-width:2;stroke-miterlimit:10;" d="M35.5,38c0,2.764-2.236,5-5,5"/>
<line style="fill:none;stroke:#7383BF;stroke-width:2;stroke-miterlimit:10;" x1="28.5" y1="38" x2="28.5" y2="43"/>
<path style="fill:#FFFFFF;" d="M22.5,15c-0.552,0-1-0.447-1-1c0-4.411,3.589-8,8-8c0.552,0,1,0.447,1,1s-0.448,1-1,1
	c-3.309,0-6,2.691-6,6C23.5,14.553,23.052,15,22.5,15z"/>
<line style="fill:none;stroke:#7383BF;stroke-width:2;stroke-linecap:round;stroke-miterlimit:10;" x1="28.5" y1="24" x2="28.5" y2="34"/>
<line style="fill:none;stroke:#7383BF;stroke-width:2;stroke-linecap:round;stroke-miterlimit:10;" x1="22.5" y1="27" x2="34.5" y2="27"/>
<line style="fill:none;stroke:#7383BF;stroke-width:2;stroke-linecap:round;stroke-miterlimit:10;" x1="22.5" y1="31" x2="34.5" y2="31"/>
<g>
</g>
<g>
</g>
<g>
</g>
<g>
</g>
<g>
</g>
<g>
</g>
<g>
</g>
<g>
</g>
<g>
</g>
<g>
</g>
<g>
</g>
<g>
</g>
<g>
</g>
<g>
</g>
<g>
</g>
</svg>
