<?xml version="1.0" encoding="iso-8859-1"?>
<!-- Generator: Adobe Illustrator 18.0.0, SVG Export Plug-In . SVG Version: 6.00 Build 0)  -->
<!DOCTYPE svg PUBLIC "-//W3C//DTD SVG 1.1//EN" "http://www.w3.org/Graphics/SVG/1.1/DTD/svg11.dtd">
<svg version="1.1" id="Capa_1" xmlns="http://www.w3.org/2000/svg" xmlns:xlink="http://www.w3.org/1999/xlink" x="0px" y="0px"
	 viewBox="0 0 58 58" style="enable-background:new 0 0 58 58;" xml:space="preserve">
<path style="fill:#A1C8EC;" d="M47,9c0-4.971-8.611-9-18-9S11,4.029,11,9c0,1.085,0,9.74,0,13.5c0,5.665,1.678,10.836,4.443,14.792
	C15.39,36.635,15.877,36,16.624,36h0c7.694,4.352,17.092,4.41,24.839,0.154L41.743,36c0.56,0,0.98,0.371,1.133,0.832
	C45.452,32.94,47,27.946,47,22.5C47,18.74,47,10.085,47,9z"/>
<line style="fill:none;stroke:#556080;stroke-width:2;stroke-linecap:round;stroke-miterlimit:10;" x1="23" y1="16" x2="23" y2="14"/>
<line style="fill:none;stroke:#556080;stroke-width:2;stroke-linecap:round;stroke-miterlimit:10;" x1="26" y1="16" x2="26" y2="14"/>
<line style="fill:none;stroke:#556080;stroke-width:2;stroke-linecap:round;stroke-miterlimit:10;" x1="29" y1="16" x2="29" y2="14"/>
<line style="fill:none;stroke:#556080;stroke-width:2;stroke-linecap:round;stroke-miterlimit:10;" x1="32" y1="16" x2="32" y2="14"/>
<line style="fill:none;stroke:#556080;stroke-width:2;stroke-linecap:round;stroke-miterlimit:10;" x1="35" y1="16" x2="35" y2="14"/>
<path style="fill:#C7DDE0;" d="M38,37.721V15h-6v24.143C34.037,38.917,36.05,38.439,38,37.721z"/>
<path style="fill:#DAF0F2;" d="M32,39.143V15h-6v24.101C27.991,39.351,30.005,39.365,32,39.143z"/>
<path style="fill:#C7DDE0;" d="M26,39.101V15h-6v22.585C21.946,38.336,23.959,38.845,26,39.101z"/>
<polygon style="fill:#C7CAC7;" points="32,58 26,58 23,54 35,54 "/>
<circle style="fill:#556080;" cx="23" cy="18" r="1"/>
<circle style="fill:#556080;" cx="29" cy="18" r="1"/>
<circle style="fill:#556080;" cx="35" cy="18" r="1"/>
<circle style="fill:#556080;" cx="23" cy="21" r="1"/>
<circle style="fill:#556080;" cx="29" cy="21" r="1"/>
<circle style="fill:#556080;" cx="35" cy="21" r="1"/>
<circle style="fill:#556080;" cx="23" cy="24" r="1"/>
<circle style="fill:#556080;" cx="29" cy="24" r="1"/>
<circle style="fill:#556080;" cx="35" cy="24" r="1"/>
<circle style="fill:#556080;" cx="23" cy="27" r="1"/>
<circle style="fill:#556080;" cx="29" cy="27" r="1"/>
<circle style="fill:#556080;" cx="35" cy="27" r="1"/>
<circle style="fill:#556080;" cx="23" cy="30" r="1"/>
<circle style="fill:#556080;" cx="29" cy="30" r="1"/>
<circle style="fill:#556080;" cx="35" cy="30" r="1"/>
<circle style="fill:#556080;" cx="23" cy="33" r="1"/>
<circle style="fill:#556080;" cx="29" cy="33" r="1"/>
<circle style="fill:#556080;" cx="35" cy="33" r="1"/>
<circle style="fill:#556080;" cx="23" cy="36" r="1"/>
<circle style="fill:#556080;" cx="29" cy="36" r="1"/>
<circle style="fill:#556080;" cx="35" cy="36" r="1"/>
<rect x="18" y="48" style="fill:#E7ECED;" width="22" height="1"/>
<path style="fill:#E7ECED;" d="M42.714,37.886c0.579-0.779,0-1.886-0.971-1.886l-0.281,0.154C33.715,40.41,24.317,40.352,16.624,36
	h0c-0.989,0-1.527,1.117-0.948,1.919c1.109,1.537,1.834,3.248,2.147,5.081h22.537C40.786,41.175,41.584,39.405,42.714,37.886z"/>
<path style="fill:#E7ECED;" d="M22.571,54h12.857c1.97,0,3.634-1.253,4.277-3H18.295C18.937,52.747,20.601,54,22.571,54z"/>
<path style="fill:#E7ECED;" d="M17.997,45c0,0.023,0.003,0.045,0.003,0.067V46h22c0-0.332,0.016-0.666,0.042-1H17.997z"/>
<path style="fill:#C7CAC7;" d="M40.359,43H17.822c0.111,0.652,0.171,1.319,0.175,2h22.045C40.095,44.332,40.204,43.663,40.359,43z"
	/>
<rect x="18" y="46" style="fill:#C7CAC7;" width="22" height="2"/>
<path style="fill:#C7CAC7;" d="M18,49.429c0,0.555,0.114,1.079,0.295,1.571h21.411C39.886,50.508,40,49.983,40,49.429V49H18V49.429z
	"/>
<g>
</g>
<g>
</g>
<g>
</g>
<g>
</g>
<g>
</g>
<g>
</g>
<g>
</g>
<g>
</g>
<g>
</g>
<g>
</g>
<g>
</g>
<g>
</g>
<g>
</g>
<g>
</g>
<g>
</g>
</svg>
