<?xml version="1.0" encoding="iso-8859-1"?>
<!-- Generator: Adobe Illustrator 18.0.0, SVG Export Plug-In . SVG Version: 6.00 Build 0)  -->
<!DOCTYPE svg PUBLIC "-//W3C//DTD SVG 1.1//EN" "http://www.w3.org/Graphics/SVG/1.1/DTD/svg11.dtd">
<svg version="1.1" id="Capa_1" xmlns="http://www.w3.org/2000/svg" xmlns:xlink="http://www.w3.org/1999/xlink" x="0px" y="0px"
	 viewBox="0 0 58 58" style="enable-background:new 0 0 58 58;" xml:space="preserve">
<polygon style="fill:#C7CAC7;" points="32,58 26,58 23,54 35,54 "/>
<path style="fill:#E7ECED;" d="M41.217,22.484l-23.182,6.212c-2.125,0.569-4.33-0.703-4.899-2.828l0,0
	c-0.569-2.125,0.703-4.33,2.828-4.899l23.182-6.212c2.125-0.569,4.33,0.703,4.899,2.828l0,0
	C44.615,19.711,43.342,21.915,41.217,22.484z"/>
<path style="fill:#E7ECED;" d="M34,7.863l-10.965,2.864c-2.125,0.569-4.33-0.703-4.899-2.828l0,0
	C17.566,5.774,18.839,3.569,20.964,3l10.965-2.864c2.125-0.569,4.33,0.703,4.899,2.828v0C37.398,5.089,36.125,7.294,34,7.863z"/>
<path style="fill:#C7CAC7;" d="M42.036,13.999l-23.182,6.212c-2.125,0.569-4.33-0.703-4.899-2.828l0,0
	c-0.569-2.125,0.703-4.33,2.828-4.899l23.182-6.212c2.125-0.569,4.33,0.703,4.899,2.828l0,0
	C45.434,11.225,44.161,13.43,42.036,13.999z"/>
<path style="fill:#C7CAC7;" d="M44.864,25.691c-0.569-2.125-2.774-3.398-4.899-2.828l-11.001,3.001
	c-0.007,0.002-0.015,0.004-0.023,0.006C26.614,26.497,25,28.619,25,31.029V35h7v0.19c0-1.099,0.736-2.063,1.796-2.352l8.239-2.248
	C44.161,30.021,45.433,27.816,44.864,25.691z"/>
<path style="fill:#E7ECED;" d="M41.534,35H16.466C15.656,35,15,35.656,15,36.466v5.424c0,2.995,2.156,5.482,5,6.004V50v2v3h18v-3v-2
	v-2.106c2.844-0.522,5-3.009,5-6.004v-5.424C43,35.656,42.344,35,41.534,35z"/>
<line style="fill:none;stroke:#C7CAC7;stroke-width:2;stroke-miterlimit:10;" x1="20" y1="47" x2="38" y2="47"/>
<line style="fill:none;stroke:#C7CAC7;stroke-width:2;stroke-miterlimit:10;" x1="20" y1="50" x2="38" y2="50"/>
<line style="fill:none;stroke:#C7CAC7;stroke-width:2;stroke-miterlimit:10;" x1="20" y1="53" x2="38" y2="53"/>
<g>
</g>
<g>
</g>
<g>
</g>
<g>
</g>
<g>
</g>
<g>
</g>
<g>
</g>
<g>
</g>
<g>
</g>
<g>
</g>
<g>
</g>
<g>
</g>
<g>
</g>
<g>
</g>
<g>
</g>
</svg>
