<?xml version="1.0" encoding="iso-8859-1"?>
<!-- Generator: Adobe Illustrator 18.0.0, SVG Export Plug-In . SVG Version: 6.00 Build 0)  -->
<!DOCTYPE svg PUBLIC "-//W3C//DTD SVG 1.1//EN" "http://www.w3.org/Graphics/SVG/1.1/DTD/svg11.dtd">
<svg version="1.1" id="Capa_1" xmlns="http://www.w3.org/2000/svg" xmlns:xlink="http://www.w3.org/1999/xlink" x="0px" y="0px"
	 viewBox="0 0 58 58" style="enable-background:new 0 0 58 58;" xml:space="preserve">
<g>
	<path style="fill:#A1C8EC;" d="M21,46h16v0.4c1.256-4.847,5-10.871,5-17.4c0-16.016-7.477-29-13-29S16,12.984,16,29
		c0,6.529,3.744,12.553,5,17.4V46z"/>
</g>
<path style="fill:#556080;" d="M24,20c-0.553,0-1-0.447-1-1v-2c0-0.553,0.447-1,1-1s1,0.447,1,1v2C25,19.553,24.553,20,24,20z"/>
<path style="fill:#556080;" d="M27,20c-0.553,0-1-0.447-1-1v-2c0-0.553,0.447-1,1-1s1,0.447,1,1v2C28,19.553,27.553,20,27,20z"/>
<path style="fill:#556080;" d="M31,20c-0.553,0-1-0.447-1-1v-2c0-0.553,0.447-1,1-1s1,0.447,1,1v2C32,19.553,31.553,20,31,20z"/>
<path style="fill:#556080;" d="M34,20c-0.553,0-1-0.447-1-1v-2c0-0.553,0.447-1,1-1s1,0.447,1,1v2C35,19.553,34.553,20,34,20z"/>
<rect x="23" y="19" style="fill:#C7DDE0;" width="6" height="27"/>
<rect x="29" y="19" style="fill:#DAF0F2;" width="6" height="27"/>
<rect x="21" y="50" style="fill:#E7ECED;" width="16" height="4"/>
<rect x="21" y="46" style="fill:#C7CAC7;" width="16" height="4"/>
<polygon style="fill:#C7CAC7;" points="32,58 26,58 23,54 35,54 "/>
<circle style="fill:#556080;" cx="26" cy="31" r="1"/>
<circle style="fill:#556080;" cx="26" cy="28" r="1"/>
<circle style="fill:#556080;" cx="26" cy="25" r="1"/>
<circle style="fill:#556080;" cx="26" cy="22" r="1"/>
<circle style="fill:#556080;" cx="26" cy="34" r="1"/>
<circle style="fill:#556080;" cx="26" cy="37" r="1"/>
<circle style="fill:#556080;" cx="26" cy="40" r="1"/>
<circle style="fill:#556080;" cx="26" cy="43" r="1"/>
<circle style="fill:#556080;" cx="32" cy="31" r="1"/>
<circle style="fill:#556080;" cx="32" cy="28" r="1"/>
<circle style="fill:#556080;" cx="32" cy="25" r="1"/>
<circle style="fill:#556080;" cx="32" cy="22" r="1"/>
<circle style="fill:#556080;" cx="32" cy="34" r="1"/>
<circle style="fill:#556080;" cx="32" cy="37" r="1"/>
<circle style="fill:#556080;" cx="32" cy="40" r="1"/>
<circle style="fill:#556080;" cx="32" cy="43" r="1"/>
<g>
</g>
<g>
</g>
<g>
</g>
<g>
</g>
<g>
</g>
<g>
</g>
<g>
</g>
<g>
</g>
<g>
</g>
<g>
</g>
<g>
</g>
<g>
</g>
<g>
</g>
<g>
</g>
<g>
</g>
</svg>
