<?xml version="1.0" encoding="iso-8859-1"?>
<!-- Generator: Adobe Illustrator 18.0.0, SVG Export Plug-In . SVG Version: 6.00 Build 0)  -->
<!DOCTYPE svg PUBLIC "-//W3C//DTD SVG 1.1//EN" "http://www.w3.org/Graphics/SVG/1.1/DTD/svg11.dtd">
<svg version="1.1" id="Capa_1" xmlns="http://www.w3.org/2000/svg" xmlns:xlink="http://www.w3.org/1999/xlink" x="0px" y="0px"
	 viewBox="0 0 56 56" style="enable-background:new 0 0 56 56;" xml:space="preserve">
<line style="fill:none;stroke:#556080;stroke-width:2;stroke-linecap:round;stroke-miterlimit:10;" x1="18" y1="3" x2="18" y2="1"/>
<line style="fill:none;stroke:#556080;stroke-width:2;stroke-linecap:round;stroke-miterlimit:10;" x1="22" y1="3" x2="22" y2="1"/>
<line style="fill:none;stroke:#556080;stroke-width:2;stroke-linecap:round;stroke-miterlimit:10;" x1="26" y1="3" x2="26" y2="1"/>
<line style="fill:none;stroke:#556080;stroke-width:2;stroke-linecap:round;stroke-miterlimit:10;" x1="30" y1="3" x2="30" y2="1"/>
<line style="fill:none;stroke:#556080;stroke-width:2;stroke-linecap:round;stroke-miterlimit:10;" x1="34" y1="3" x2="34" y2="1"/>
<line style="fill:none;stroke:#556080;stroke-width:2;stroke-linecap:round;stroke-miterlimit:10;" x1="38" y1="3" x2="38" y2="1"/>
<rect x="16" y="3" style="fill:#C7DDE0;" width="8" height="33"/>
<rect x="24" y="3" style="fill:#DAF0F2;" width="8" height="33"/>
<rect x="32" y="3" style="fill:#C7DDE0;" width="8" height="33"/>
<circle style="fill:#556080;" cx="20" cy="16" r="1"/>
<circle style="fill:#556080;" cx="20" cy="13" r="1"/>
<circle style="fill:#556080;" cx="20" cy="10" r="1"/>
<circle style="fill:#556080;" cx="20" cy="7" r="1"/>
<circle style="fill:#556080;" cx="20" cy="19" r="1"/>
<circle style="fill:#556080;" cx="20" cy="22" r="1"/>
<circle style="fill:#556080;" cx="20" cy="25" r="1"/>
<circle style="fill:#556080;" cx="20" cy="28" r="1"/>
<circle style="fill:#556080;" cx="20" cy="31" r="1"/>
<circle style="fill:#556080;" cx="20" cy="34" r="1"/>
<circle style="fill:#556080;" cx="28" cy="16" r="1"/>
<circle style="fill:#556080;" cx="28" cy="13" r="1"/>
<circle style="fill:#556080;" cx="28" cy="10" r="1"/>
<circle style="fill:#556080;" cx="28" cy="7" r="1"/>
<circle style="fill:#556080;" cx="28" cy="19" r="1"/>
<circle style="fill:#556080;" cx="28" cy="22" r="1"/>
<circle style="fill:#556080;" cx="28" cy="25" r="1"/>
<circle style="fill:#556080;" cx="28" cy="28" r="1"/>
<circle style="fill:#556080;" cx="28" cy="31" r="1"/>
<circle style="fill:#556080;" cx="28" cy="34" r="1"/>
<circle style="fill:#556080;" cx="36" cy="16" r="1"/>
<circle style="fill:#556080;" cx="36" cy="13" r="1"/>
<circle style="fill:#556080;" cx="36" cy="10" r="1"/>
<circle style="fill:#556080;" cx="36" cy="7" r="1"/>
<circle style="fill:#556080;" cx="36" cy="19" r="1"/>
<circle style="fill:#556080;" cx="36" cy="22" r="1"/>
<circle style="fill:#556080;" cx="36" cy="25" r="1"/>
<circle style="fill:#556080;" cx="36" cy="28" r="1"/>
<circle style="fill:#556080;" cx="36" cy="31" r="1"/>
<circle style="fill:#556080;" cx="36" cy="34" r="1"/>
<rect x="20" y="49" style="fill:#E7ECED;" width="16" height="3"/>
<rect x="20" y="46" style="fill:#C7CAC7;" width="16" height="3"/>
<polygon style="fill:#C7CAC7;" points="31,56 25,56 22,52 34,52 "/>
<path style="fill:#E7ECED;" d="M35.89,46H20.11C16.735,46,14,43.265,14,39.89v-2.424C14,36.656,14.656,36,15.466,36h25.068
	C41.344,36,42,36.656,42,37.466v2.424C42,43.265,39.265,46,35.89,46z"/>
<g>
</g>
<g>
</g>
<g>
</g>
<g>
</g>
<g>
</g>
<g>
</g>
<g>
</g>
<g>
</g>
<g>
</g>
<g>
</g>
<g>
</g>
<g>
</g>
<g>
</g>
<g>
</g>
<g>
</g>
</svg>
