<?xml version="1.0" encoding="iso-8859-1"?>
<!-- Generator: Adobe Illustrator 18.0.0, SVG Export Plug-In . SVG Version: 6.00 Build 0)  -->
<!DOCTYPE svg PUBLIC "-//W3C//DTD SVG 1.1//EN" "http://www.w3.org/Graphics/SVG/1.1/DTD/svg11.dtd">
<svg version="1.1" id="Capa_1" xmlns="http://www.w3.org/2000/svg" xmlns:xlink="http://www.w3.org/1999/xlink" x="0px" y="0px"
	 viewBox="0 0 56.993 56.993" style="enable-background:new 0 0 56.993 56.993;" xml:space="preserve">
<rect x="20.496" y="48.993" style="fill:#E7ECED;" width="16" height="4"/>
<rect x="20.496" y="44.993" style="fill:#C7CAC7;" width="16" height="4"/>
<polygon style="fill:#C7CAC7;" points="31.496,56.993 25.496,56.993 22.496,52.993 34.496,52.993 "/>
<path style="fill:#EFCE4A;" d="M28.496,0c-9.004,0-30.723,3.277-21,13c13.934,13.934,13,21.624,13,25.993v6h8h8v-6
	c0-4.369,0.254-13.246,13-25.993C59.219,3.277,37.5,0,28.496,0z"/>
<g>
	<path style="fill:#FFFFFF;" d="M41.024,10.143c-0.469-0.29-1.085-0.148-1.377,0.321c-0.613,0.985-1.376,1.528-2.151,1.528
		s-1.538-0.543-2.151-1.528c-0.005-0.008-0.014-0.012-0.019-0.021c-0.037-0.056-0.091-0.099-0.14-0.148
		c-0.047-0.046-0.087-0.097-0.141-0.133c-0.009-0.006-0.013-0.015-0.022-0.02c-0.044-0.027-0.094-0.032-0.14-0.052
		c-0.066-0.028-0.128-0.06-0.197-0.073c-0.063-0.012-0.125-0.007-0.188-0.007c-0.065,0-0.128-0.006-0.193,0.007
		c-0.07,0.014-0.133,0.046-0.199,0.074c-0.045,0.02-0.094,0.024-0.138,0.051c-0.008,0.005-0.012,0.014-0.021,0.02
		c-0.055,0.036-0.098,0.089-0.146,0.137c-0.047,0.047-0.099,0.089-0.135,0.144c-0.005,0.008-0.014,0.012-0.02,0.021
		c-0.613,0.985-1.376,1.528-2.151,1.528s-1.538-0.543-2.151-1.528c-0.005-0.008-0.014-0.012-0.019-0.021
		c-0.037-0.056-0.091-0.099-0.14-0.148c-0.047-0.046-0.087-0.097-0.141-0.133c-0.009-0.006-0.013-0.015-0.022-0.02
		c-0.044-0.027-0.094-0.032-0.14-0.052c-0.066-0.028-0.128-0.06-0.198-0.073c-0.063-0.012-0.125-0.007-0.188-0.007
		c-0.065,0-0.128-0.006-0.193,0.007c-0.071,0.014-0.134,0.046-0.201,0.075c-0.045,0.02-0.093,0.024-0.136,0.051
		c-0.008,0.005-0.012,0.014-0.02,0.019c-0.056,0.037-0.099,0.09-0.147,0.138c-0.047,0.047-0.099,0.088-0.134,0.143
		c-0.005,0.008-0.014,0.012-0.02,0.021c-0.613,0.985-1.376,1.528-2.151,1.528s-1.538-0.543-2.151-1.528
		c-0.005-0.008-0.014-0.012-0.019-0.021c-0.037-0.056-0.091-0.099-0.14-0.148c-0.047-0.046-0.087-0.097-0.141-0.133
		c-0.009-0.006-0.013-0.015-0.022-0.02c-0.044-0.027-0.094-0.032-0.14-0.052c-0.066-0.028-0.128-0.06-0.198-0.073
		c-0.063-0.012-0.125-0.007-0.188-0.007c-0.065,0-0.128-0.006-0.193,0.007c-0.071,0.014-0.134,0.046-0.201,0.075
		c-0.045,0.02-0.093,0.024-0.136,0.051c-0.008,0.005-0.012,0.014-0.02,0.019c-0.056,0.037-0.099,0.09-0.147,0.138
		c-0.047,0.047-0.099,0.088-0.134,0.143c-0.005,0.008-0.014,0.012-0.02,0.021c-0.613,0.985-1.376,1.528-2.151,1.528
		s-1.538-0.543-2.151-1.528c-0.292-0.469-0.909-0.612-1.377-0.321c-0.469,0.292-0.613,0.908-0.321,1.378
		c0.991,1.594,2.358,2.472,3.849,2.472c1.102,0,2.135-0.482,3-1.376c0.865,0.894,1.898,1.376,3,1.376s2.135-0.482,3-1.376
		c0.865,0.894,1.898,1.376,3,1.376s2.135-0.482,3-1.376c0.865,0.894,1.898,1.376,3,1.376c1.491,0,2.858-0.878,3.849-2.472
		C41.637,11.051,41.493,10.435,41.024,10.143z"/>
	<path style="fill:#FFFFFF;" d="M37.496,14.993c-7.37,0-7.949,6.871-7.995,11h-2.011c-0.046-4.129-0.625-11-7.995-11
		c-0.552,0-1,0.447-1,1c0,0.553,0.448,1,1,1c4.43,0,6,2.617,6,10v18.054h6V26.993c0-7.383,1.57-10,6-10c0.552,0,1-0.447,1-1
		C38.496,15.44,38.049,14.993,37.496,14.993z"/>
</g>
<rect x="25.496" y="25.993" style="fill:#EBBA16;" width="6" height="19.054"/>
<g>
</g>
<g>
</g>
<g>
</g>
<g>
</g>
<g>
</g>
<g>
</g>
<g>
</g>
<g>
</g>
<g>
</g>
<g>
</g>
<g>
</g>
<g>
</g>
<g>
</g>
<g>
</g>
<g>
</g>
</svg>
