<?xml version="1.0" encoding="iso-8859-1"?>
<!-- Generator: Adobe Illustrator 18.0.0, SVG Export Plug-In . SVG Version: 6.00 Build 0)  -->
<!DOCTYPE svg PUBLIC "-//W3C//DTD SVG 1.1//EN" "http://www.w3.org/Graphics/SVG/1.1/DTD/svg11.dtd">
<svg version="1.1" id="Capa_1" xmlns="http://www.w3.org/2000/svg" xmlns:xlink="http://www.w3.org/1999/xlink" x="0px" y="0px"
	 viewBox="0 0 58 58" style="enable-background:new 0 0 58 58;" xml:space="preserve">
<g>
	<path style="fill:#EFCE4A;" d="M26.771,0.124C17.821,1.116,10.596,8.36,9.62,17.311C8.923,23.7,11.32,29.538,15.496,33.543
		c3.153,3.024,5.004,7.156,5.004,11.525V46h16v0c0-4.576,2.023-8.882,5.444-11.92c4.021-3.571,6.556-8.778,6.556-14.58
		C48.5,7.996,38.538-1.181,26.771,0.124z"/>
</g>
<path style="fill:#FFFFFF;stroke:#ED8A19;stroke-width:2;stroke-linecap:round;stroke-miterlimit:10;" d="M28.5,32L28.5,32
	c-2.2,0-4-1.8-4-4v0c0-2.2,1.8-4,4-4h0c2.2,0,4,1.8,4,4v0C32.5,30.2,30.7,32,28.5,32z"/>
<line style="fill:none;stroke:#EBBA16;stroke-width:2;stroke-linecap:round;stroke-miterlimit:10;" x1="28.5" y1="46" x2="28.5" y2="28"/>
<polygon style="fill:#C7CAC7;" points="31.5,58 25.5,58 22.5,54 34.5,54 "/>
<rect x="20.5" y="50" style="fill:#E7ECED;" width="16" height="4"/>
<rect x="20.5" y="46" style="fill:#C7CAC7;" width="16" height="4"/>
<g>
</g>
<g>
</g>
<g>
</g>
<g>
</g>
<g>
</g>
<g>
</g>
<g>
</g>
<g>
</g>
<g>
</g>
<g>
</g>
<g>
</g>
<g>
</g>
<g>
</g>
<g>
</g>
<g>
</g>
</svg>
