<?xml version="1.0" encoding="iso-8859-1"?>
<!-- Generator: Adobe Illustrator 18.0.0, SVG Export Plug-In . SVG Version: 6.00 Build 0)  -->
<!DOCTYPE svg PUBLIC "-//W3C//DTD SVG 1.1//EN" "http://www.w3.org/Graphics/SVG/1.1/DTD/svg11.dtd">
<svg version="1.1" id="Capa_1" xmlns="http://www.w3.org/2000/svg" xmlns:xlink="http://www.w3.org/1999/xlink" x="0px" y="0px"
	 viewBox="0 0 58 58" style="enable-background:new 0 0 58 58;" xml:space="preserve">
<path style="fill:#CAD0D8;" d="M41,38V6c0-3.568-3.13-6.419-6.789-5.949C31.186,0.439,29,3.159,29,6.209V38H41z"/>
<path style="fill:#DCE0E8;" d="M29,38V6c0-3.568-3.13-6.419-6.789-5.949C19.186,0.439,17,3.159,17,6.209V38H29z"/>
<rect x="21" y="51" style="fill:#E7ECED;" width="16" height="3"/>
<rect x="21" y="48" style="fill:#C7CAC7;" width="16" height="3"/>
<polygon style="fill:#C7CAC7;" points="32,58 26,58 23,54 35,54 "/>
<line style="fill:none;stroke:#FFFFFF;stroke-width:2;stroke-linecap:round;stroke-miterlimit:10;" x1="23" y1="38" x2="23" y2="6"/>
<line style="fill:none;stroke:#FFFFFF;stroke-width:2;stroke-linecap:round;stroke-miterlimit:10;" x1="35" y1="38" x2="35" y2="6"/>
<path style="fill:#E7ECED;" d="M36.89,48H21.11C17.735,48,15,45.265,15,41.89v-2.424C15,38.656,15.656,38,16.466,38h25.068
	C42.344,38,43,38.656,43,39.466v2.424C43,45.265,40.265,48,36.89,48z"/>
<g>
</g>
<g>
</g>
<g>
</g>
<g>
</g>
<g>
</g>
<g>
</g>
<g>
</g>
<g>
</g>
<g>
</g>
<g>
</g>
<g>
</g>
<g>
</g>
<g>
</g>
<g>
</g>
<g>
</g>
</svg>
