<?xml version="1.0" encoding="iso-8859-1"?>
<!-- Generator: Adobe Illustrator 18.0.0, SVG Export Plug-In . SVG Version: 6.00 Build 0)  -->
<!DOCTYPE svg PUBLIC "-//W3C//DTD SVG 1.1//EN" "http://www.w3.org/Graphics/SVG/1.1/DTD/svg11.dtd">
<svg version="1.1" id="Capa_1" xmlns="http://www.w3.org/2000/svg" xmlns:xlink="http://www.w3.org/1999/xlink" x="0px" y="0px"
	 viewBox="0 0 59 59" style="enable-background:new 0 0 59 59;" xml:space="preserve">
<path style="fill:#7383BF;" d="M29.5,0h-7c-9.925,0-18,8.075-18,18v36c0,0.553,0.447,1,1,1s1-0.447,1-1V18c0-8.822,7.178-16,16-16h7
	c6.065,0,11,4.935,11,11c0,0.553,0.447,1,1,1s1-0.447,1-1C42.5,5.832,36.668,0,29.5,0z"/>
<path style="fill:#95D6DC;" d="M50.5,21h-18l1.166-4.665c0.49-1.96,2.251-3.335,4.271-3.335h7.125c2.02,0,3.781,1.375,4.271,3.335
	L50.5,21z"/>
<rect x="0.5" y="54.042" style="fill:#556080;" width="10" height="4.958"/>
<path style="fill:#65933A;" d="M58.5,56h-27V42.099C31.5,40.94,32.44,40,33.599,40H58.5V56z"/>
<path style="fill:#88C057;" d="M58.5,40h-6V29.514c0-0.836,0.678-1.514,1.514-1.514h2.972c0.836,0,1.514,0.678,1.514,1.514V40z"/>
<rect x="33.5" y="56" style="fill:#CEAB83;" width="4" height="3"/>
<rect x="52.5" y="56" style="fill:#CEAB83;" width="4" height="3"/>
<path style="fill:#AAD381;" d="M52.5,40h-6v-3.444c0-3.069,2.488-5.556,5.556-5.556H52.5V40z"/>
<g>
</g>
<g>
</g>
<g>
</g>
<g>
</g>
<g>
</g>
<g>
</g>
<g>
</g>
<g>
</g>
<g>
</g>
<g>
</g>
<g>
</g>
<g>
</g>
<g>
</g>
<g>
</g>
<g>
</g>
</svg>
