<?xml version="1.0" encoding="iso-8859-1"?>
<!-- Generator: Adobe Illustrator 18.0.0, SVG Export Plug-In . SVG Version: 6.00 Build 0)  -->
<!DOCTYPE svg PUBLIC "-//W3C//DTD SVG 1.1//EN" "http://www.w3.org/Graphics/SVG/1.1/DTD/svg11.dtd">
<svg version="1.1" id="Capa_1" xmlns="http://www.w3.org/2000/svg" xmlns:xlink="http://www.w3.org/1999/xlink" x="0px" y="0px"
	 viewBox="0 0 58 58" style="enable-background:new 0 0 58 58;" xml:space="preserve">
<path style="fill:#553323;" d="M46.675,26H33.236c-1.471,0-2.921,0.342-4.236,1c-1.315-0.658-2.766-1-4.236-1H12.049
	c-4.971,0-9,4.029-9,9H3v16l5.335,1h41.698l5.643-1V35C55.675,30.029,51.646,26,46.675,26z"/>
<polygon style="fill:#C19B5A;" points="50,58 53,58 53,52 48,52 "/>
<polygon style="fill:#C19B5A;" points="9,58 6,58 6,52 11,52 "/>
<path style="fill:#23A24D;" d="M39.099,12h-3.281c-0.239,0-0.381-0.266-0.249-0.465l5.601-8.402C41.226,3.05,41.319,3,41.419,3H44.7
	c0.239,0,0.381,0.266,0.249,0.465l-5.601,8.402C39.293,11.95,39.199,12,39.099,12z"/>
<rect x="45" y="0" style="fill:#EBBA16;" width="4" height="12"/>
<rect x="49" y="2" style="fill:#7383BF;" width="4" height="10"/>
<path style="fill:#7F4C38;" d="M9.049,52H4.92c-1.122,0-2.123-0.705-2.5-1.762L0.111,38.856C-0.423,36.916,1.037,35,3.049,35h0
	c2.295,0,4.241,1.688,4.566,3.96L9.049,52z"/>
<path style="fill:#7F4C38;" d="M53.673,52h-3.998l0.694-12.717C50.542,36.87,52.55,35,54.97,35h0c1.915,0,3.35,1.755,2.969,3.632
	l-1.713,11.443C55.9,51.214,54.858,52,53.673,52z"/>
<rect x="19" y="12" style="fill:#6B5B4B;" width="37" height="4"/>
<polygon style="fill:#382016;" points="8.169,44 9.049,52 49.675,52 50.112,44 "/>
<path style="fill:none;stroke:#382016;stroke-width:2;stroke-linecap:round;stroke-miterlimit:10;" d="M15.5,36.5L15.5,36.5
	c-0.828-0.828-0.828-2.172,0-3h0c0.828-0.828,2.172-0.828,3,0h0c0.828,0.828,0.828,2.172,0,3h0
	C17.672,37.328,16.328,37.328,15.5,36.5z"/>
<line style="fill:none;stroke:#382016;stroke-width:2;stroke-linecap:round;stroke-miterlimit:10;" x1="20" y1="38" x2="18.5" y2="36.5"/>
<line style="fill:none;stroke:#382016;stroke-width:2;stroke-linecap:round;stroke-miterlimit:10;" x1="20" y1="32" x2="18.5" y2="33.5"/>
<line style="fill:none;stroke:#382016;stroke-width:2;stroke-linecap:round;stroke-miterlimit:10;" x1="14" y1="32" x2="15.5" y2="33.5"/>
<line style="fill:none;stroke:#382016;stroke-width:2;stroke-linecap:round;stroke-miterlimit:10;" x1="14" y1="38" x2="15.5" y2="36.5"/>
<path style="fill:none;stroke:#382016;stroke-width:2;stroke-linecap:round;stroke-miterlimit:10;" d="M39.5,36.5L39.5,36.5
	c-0.828-0.828-0.828-2.172,0-3l0,0c0.828-0.828,2.172-0.828,3,0l0,0c0.828,0.828,0.828,2.172,0,3l0,0
	C41.672,37.328,40.328,37.328,39.5,36.5z"/>
<line style="fill:none;stroke:#382016;stroke-width:2;stroke-linecap:round;stroke-miterlimit:10;" x1="44" y1="38" x2="42.5" y2="36.5"/>
<line style="fill:none;stroke:#382016;stroke-width:2;stroke-linecap:round;stroke-miterlimit:10;" x1="44" y1="32" x2="42.5" y2="33.5"/>
<line style="fill:none;stroke:#382016;stroke-width:2;stroke-linecap:round;stroke-miterlimit:10;" x1="38" y1="32" x2="39.5" y2="33.5"/>
<line style="fill:none;stroke:#382016;stroke-width:2;stroke-linecap:round;stroke-miterlimit:10;" x1="38" y1="38" x2="39.5" y2="36.5"/>
<rect x="22" y="16" style="fill:#443930;" width="3" height="3"/>
<rect x="50" y="16" style="fill:#443930;" width="3" height="3"/>
<path style="fill:#382016;" d="M29,42c-0.553,0-1-0.447-1-1v-1c0-0.553,0.447-1,1-1s1,0.447,1,1v1C30,41.553,29.553,42,29,42z
	 M29,38c-0.553,0-1-0.447-1-1v-1c0-0.553,0.447-1,1-1s1,0.447,1,1v1C30,37.553,29.553,38,29,38z M29,34c-0.553,0-1-0.447-1-1v-1
	c0-0.553,0.447-1,1-1s1,0.447,1,1v1C30,33.553,29.553,34,29,34z M29,30c-0.553,0-1-0.447-1-1v-1c0-0.553,0.447-1,1-1s1,0.447,1,1v1
	C30,29.553,29.553,30,29,30z"/>
<g>
	<line style="fill:#443930;" x1="19" y1="12" x2="56" y2="12"/>
	<path style="fill:#443930;" d="M56,13H19c-0.553,0-1-0.447-1-1s0.447-1,1-1h37c0.553,0,1,0.447,1,1S56.553,13,56,13z"/>
</g>
<g>
</g>
<g>
</g>
<g>
</g>
<g>
</g>
<g>
</g>
<g>
</g>
<g>
</g>
<g>
</g>
<g>
</g>
<g>
</g>
<g>
</g>
<g>
</g>
<g>
</g>
<g>
</g>
<g>
</g>
</svg>
