<?xml version="1.0" encoding="iso-8859-1"?>
<!-- Generator: Adobe Illustrator 18.0.0, SVG Export Plug-In . SVG Version: 6.00 Build 0)  -->
<!DOCTYPE svg PUBLIC "-//W3C//DTD SVG 1.1//EN" "http://www.w3.org/Graphics/SVG/1.1/DTD/svg11.dtd">
<svg version="1.1" id="Capa_1" xmlns="http://www.w3.org/2000/svg" xmlns:xlink="http://www.w3.org/1999/xlink" x="0px" y="0px"
	 viewBox="0 0 60 60" style="enable-background:new 0 0 60 60;" xml:space="preserve">
<rect x="12" y="1" style="fill:#FFFFFF;stroke:#556080;stroke-width:2;stroke-linecap:round;stroke-miterlimit:10;" width="36" height="18"/>
<rect x="15" y="4" style="fill:#EFCE4A;" width="30" height="12"/>
<path style="fill:#3C8D43;" d="M52,53H8c-2.75,0-5-2.25-5-5v0c0-2.75,2.25-5,5-5h44c2.75,0,5,2.25,5,5v0C57,50.75,54.75,53,52,53z"
	/>
<path style="fill:#23A24D;" d="M8,43h1.724C9.892,42.529,10,42.029,10,41.5c0-2.485-2.015-4.5-4.5-4.5S1,39.015,1,41.5
	c0,1.823,1.089,3.385,2.649,4.092C4.505,44.057,6.126,43,8,43z"/>
<path style="fill:#23A24D;" d="M52,43h-1.724C50.108,42.529,50,42.029,50,41.5c0-2.485,2.015-4.5,4.5-4.5s4.5,2.015,4.5,4.5
	c0,1.823-1.089,3.385-2.649,4.092C55.495,44.057,53.874,43,52,43z"/>
<path style="fill:#30773A;" d="M52,37.76v-4.053C52,28.898,48.102,25,43.293,25H16.707C11.898,25,8,28.898,8,33.707v4.053
	c1.205,0.807,2,2.18,2,3.74c0,0.529-0.108,1.029-0.276,1.5h40.551C50.108,42.529,50,42.029,50,41.5C50,39.94,50.795,38.567,52,37.76
	z"/>
<g>
	<path style="fill:#C19B5A;" d="M9,56h1v2c-0.553,0-1,0.447-1,1s0.447,1,1,1h2c0.553,0,1-0.447,1-1s-0.447-1-1-1v-2h1v-3H9V56z"/>
	<path style="fill:#C19B5A;" d="M51,56v-3h-4v3h1v2c-0.553,0-1,0.447-1,1s0.447,1,1,1h2c0.553,0,1-0.447,1-1s-0.447-1-1-1v-2H51z"/>
</g>
<g>
	<path style="fill:#153C1B;" d="M20.707,31.293c-0.391-0.391-1.023-0.391-1.414,0l-2,2C17.098,33.488,17,33.744,17,34
		s0.098,0.512,0.293,0.707l2,2C19.488,36.902,19.744,37,20,37s0.512-0.098,0.707-0.293c0.391-0.391,0.391-1.023,0-1.414L19.414,34
		l1.293-1.293C21.098,32.316,21.098,31.684,20.707,31.293z"/>
	<path style="fill:#153C1B;" d="M14.707,31.293c-0.391-0.391-1.023-0.391-1.414,0s-0.391,1.023,0,1.414L14.586,34l-1.293,1.293
		c-0.391,0.391-0.391,1.023,0,1.414C13.488,36.902,13.744,37,14,37s0.512-0.098,0.707-0.293l2-2C16.902,34.512,17,34.256,17,34
		s-0.098-0.512-0.293-0.707L14.707,31.293z"/>
	<path style="fill:#153C1B;" d="M33.707,33.293c-0.391-0.391-1.023-0.391-1.414,0l-2,2C30.098,35.488,30,35.744,30,36
		s0.098,0.512,0.293,0.707l2,2C32.488,38.902,32.744,39,33,39s0.512-0.098,0.707-0.293c0.391-0.391,0.391-1.023,0-1.414L32.414,36
		l1.293-1.293C34.098,34.316,34.098,33.684,33.707,33.293z"/>
	<path style="fill:#153C1B;" d="M27.707,33.293c-0.391-0.391-1.023-0.391-1.414,0s-0.391,1.023,0,1.414L27.586,36l-1.293,1.293
		c-0.391,0.391-0.391,1.023,0,1.414C26.488,38.902,26.744,39,27,39s0.512-0.098,0.707-0.293l2-2C29.902,36.512,30,36.256,30,36
		s-0.098-0.512-0.293-0.707L27.707,33.293z"/>
	<path style="fill:#153C1B;" d="M45.414,34l1.293-1.293c0.391-0.391,0.391-1.023,0-1.414s-1.023-0.391-1.414,0l-2,2
		C43.098,33.488,43,33.744,43,34s0.098,0.512,0.293,0.707l2,2C45.488,36.902,45.744,37,46,37s0.512-0.098,0.707-0.293
		c0.391-0.391,0.391-1.023,0-1.414L45.414,34z"/>
	<path style="fill:#153C1B;" d="M40.707,31.293c-0.391-0.391-1.023-0.391-1.414,0s-0.391,1.023,0,1.414L40.586,34l-1.293,1.293
		c-0.391,0.391-0.391,1.023,0,1.414C39.488,36.902,39.744,37,40,37s0.512-0.098,0.707-0.293l2-2C42.902,34.512,43,34.256,43,34
		s-0.098-0.512-0.293-0.707L40.707,31.293z"/>
</g>
<path style="fill:#ED8A19;" d="M42.707,11.293l-3-3c-0.391-0.391-1.023-0.391-1.414,0L36,10.586l-2.293-2.293
	c-0.391-0.391-1.023-0.391-1.414,0L30,10.586l-2.293-2.293c-0.391-0.391-1.023-0.391-1.414,0L24,10.586l-2.293-2.293
	c-0.391-0.391-1.023-0.391-1.414,0l-3,3c-0.391,0.391-0.391,1.023,0,1.414C17.488,12.902,17.744,13,18,13s0.512-0.098,0.707-0.293
	L21,10.414l2.293,2.293C23.488,12.902,23.744,13,24,13s0.512-0.098,0.707-0.293L27,10.414l2.293,2.293
	C29.488,12.902,29.744,13,30,13s0.512-0.098,0.707-0.293L33,10.414l2.293,2.293C35.488,12.902,35.744,13,36,13
	s0.512-0.098,0.707-0.293L39,10.414l2.293,2.293C41.488,12.902,41.744,13,42,13s0.512-0.098,0.707-0.293
	C43.098,12.316,43.098,11.684,42.707,11.293z"/>
<g>
</g>
<g>
</g>
<g>
</g>
<g>
</g>
<g>
</g>
<g>
</g>
<g>
</g>
<g>
</g>
<g>
</g>
<g>
</g>
<g>
</g>
<g>
</g>
<g>
</g>
<g>
</g>
<g>
</g>
</svg>
