<?xml version="1.0" encoding="iso-8859-1"?>
<!-- Generator: Adobe Illustrator 18.0.0, SVG Export Plug-In . SVG Version: 6.00 Build 0)  -->
<!DOCTYPE svg PUBLIC "-//W3C//DTD SVG 1.1//EN" "http://www.w3.org/Graphics/SVG/1.1/DTD/svg11.dtd">
<svg version="1.1" id="Capa_1" xmlns="http://www.w3.org/2000/svg" xmlns:xlink="http://www.w3.org/1999/xlink" x="0px" y="0px"
	 viewBox="0 0 58 58" style="enable-background:new 0 0 58 58;" xml:space="preserve">
<path style="fill:#61B872;" d="M15.5,56.5h-7C3.806,56.5,0,52.694,0,48l0-4.5h24V48C24,52.694,20.194,56.5,15.5,56.5z"/>
<path style="fill:#556080;" d="M58,56.5H29V23.121c0-3.657,2.964-6.621,6.621-6.621h15.758c3.657,0,6.621,2.964,6.621,6.621V56.5z"
	/>
<rect x="52" y="27.5" style="fill:#7383BF;" width="6" height="20"/>
<circle style="fill:#28384C;" cx="36" cy="39.5" r="3"/>
<circle style="fill:#28384C;" cx="36" cy="48.5" r="3"/>
<polygon style="fill:#C7CAC7;" points="23,23.5 23,9.5 15,9.5 15,23.5 10,23.5 10,30.5 15,30.5 23,30.5 29,30.5 29,23.5 "/>
<rect x="7" y="21.5" style="fill:#E7ECED;" width="3" height="11"/>
<path style="fill:#949493;" d="M10,18.5c-0.553,0-1,0.447-1,1v13v1v1c0,0.553,0.447,1,1,1s1-0.447,1-1v-1v-1v-13
	C11,18.947,10.553,18.5,10,18.5z"/>
<path style="fill:#7383BF;" d="M39.769,4.846L23,9.5H11c-2.219,0-4.017-1.799-4.017-4.017V1.5h32.33
	c0.941,0,1.704,0.763,1.704,1.704v0C41.017,3.97,40.506,4.642,39.769,4.846z"/>
<g>
</g>
<g>
</g>
<g>
</g>
<g>
</g>
<g>
</g>
<g>
</g>
<g>
</g>
<g>
</g>
<g>
</g>
<g>
</g>
<g>
</g>
<g>
</g>
<g>
</g>
<g>
</g>
<g>
</g>
</svg>
