<?xml version="1.0" encoding="iso-8859-1"?>
<!-- Generator: Adobe Illustrator 18.0.0, SVG Export Plug-In . SVG Version: 6.00 Build 0)  -->
<!DOCTYPE svg PUBLIC "-//W3C//DTD SVG 1.1//EN" "http://www.w3.org/Graphics/SVG/1.1/DTD/svg11.dtd">
<svg version="1.1" id="Capa_1" xmlns="http://www.w3.org/2000/svg" xmlns:xlink="http://www.w3.org/1999/xlink" x="0px" y="0px"
	 viewBox="0 0 58 58" style="enable-background:new 0 0 58 58;" xml:space="preserve">
<rect y="8" style="fill:#38454F;" width="37" height="39"/>
<rect x="42" y="8" style="fill:#556080;" width="16" height="39"/>
<rect x="2" y="47" style="fill:#AFB6BB;" width="6" height="3"/>
<rect x="50" y="47" style="fill:#AFB6BB;" width="6" height="3"/>
<rect x="42" y="8" style="fill:#839594;" width="16" height="12"/>
<rect x="42" y="41" style="fill:#38454F;" width="16" height="6"/>
<g>
	<circle style="fill:#556080;" cx="3" cy="11" r="1"/>
	<circle style="fill:#556080;" cx="9" cy="11" r="1"/>
	<circle style="fill:#556080;" cx="3" cy="17" r="1"/>
	<circle style="fill:#556080;" cx="9" cy="17" r="1"/>
	<circle style="fill:#556080;" cx="6" cy="14" r="1"/>
	<circle style="fill:#556080;" cx="12" cy="14" r="1"/>
	<circle style="fill:#556080;" cx="6" cy="20" r="1"/>
	<circle style="fill:#556080;" cx="12" cy="20" r="1"/>
	<circle style="fill:#556080;" cx="15" cy="11" r="1"/>
	<circle style="fill:#556080;" cx="15" cy="17" r="1"/>
	<circle style="fill:#556080;" cx="3" cy="23" r="1"/>
	<circle style="fill:#556080;" cx="9" cy="23" r="1"/>
	<circle style="fill:#556080;" cx="6" cy="26" r="1"/>
	<circle style="fill:#556080;" cx="12" cy="26" r="1"/>
	<circle style="fill:#556080;" cx="15" cy="23" r="1"/>
	<circle style="fill:#556080;" cx="21" cy="11" r="1"/>
	<circle style="fill:#556080;" cx="21" cy="17" r="1"/>
	<circle style="fill:#556080;" cx="18" cy="14" r="1"/>
	<circle style="fill:#556080;" cx="24" cy="14" r="1"/>
	<circle style="fill:#556080;" cx="18" cy="20" r="1"/>
	<circle style="fill:#556080;" cx="24" cy="20" r="1"/>
	<circle style="fill:#556080;" cx="27" cy="11" r="1"/>
	<circle style="fill:#556080;" cx="27" cy="17" r="1"/>
	<circle style="fill:#556080;" cx="21" cy="23" r="1"/>
	<circle style="fill:#556080;" cx="18" cy="26" r="1"/>
	<circle style="fill:#556080;" cx="24" cy="26" r="1"/>
	<circle style="fill:#556080;" cx="27" cy="23" r="1"/>
	<circle style="fill:#556080;" cx="30" cy="14" r="1"/>
	<circle style="fill:#556080;" cx="30" cy="20" r="1"/>
	<circle style="fill:#556080;" cx="33" cy="11" r="1"/>
	<circle style="fill:#556080;" cx="33" cy="17" r="1"/>
	<circle style="fill:#556080;" cx="30" cy="26" r="1"/>
	<circle style="fill:#556080;" cx="33" cy="23" r="1"/>
	<circle style="fill:#556080;" cx="3" cy="29" r="1"/>
	<circle style="fill:#556080;" cx="9" cy="29" r="1"/>
	<circle style="fill:#556080;" cx="3" cy="35" r="1"/>
	<circle style="fill:#556080;" cx="9" cy="35" r="1"/>
	<circle style="fill:#556080;" cx="6" cy="32" r="1"/>
	<circle style="fill:#556080;" cx="12" cy="32" r="1"/>
	<circle style="fill:#556080;" cx="6" cy="38" r="1"/>
	<circle style="fill:#556080;" cx="12" cy="38" r="1"/>
	<circle style="fill:#556080;" cx="15" cy="29" r="1"/>
	<circle style="fill:#556080;" cx="15" cy="35" r="1"/>
	<circle style="fill:#556080;" cx="3" cy="41" r="1"/>
	<circle style="fill:#556080;" cx="9" cy="41" r="1"/>
	<circle style="fill:#556080;" cx="6" cy="44" r="1"/>
	<circle style="fill:#556080;" cx="12" cy="44" r="1"/>
	<circle style="fill:#556080;" cx="15" cy="41" r="1"/>
	<circle style="fill:#556080;" cx="21" cy="29" r="1"/>
	<circle style="fill:#556080;" cx="21" cy="35" r="1"/>
	<circle style="fill:#556080;" cx="18" cy="32" r="1"/>
	<circle style="fill:#556080;" cx="24" cy="32" r="1"/>
	<circle style="fill:#556080;" cx="18" cy="38" r="1"/>
	<circle style="fill:#556080;" cx="24" cy="38" r="1"/>
	<circle style="fill:#556080;" cx="27" cy="29" r="1"/>
	<circle style="fill:#556080;" cx="27" cy="35" r="1"/>
	<circle style="fill:#556080;" cx="21" cy="41" r="1"/>
	<circle style="fill:#556080;" cx="18" cy="44" r="1"/>
	<circle style="fill:#556080;" cx="24" cy="44" r="1"/>
	<circle style="fill:#556080;" cx="27" cy="41" r="1"/>
	<circle style="fill:#556080;" cx="30" cy="32" r="1"/>
	<circle style="fill:#556080;" cx="30" cy="38" r="1"/>
	<circle style="fill:#556080;" cx="33" cy="29" r="1"/>
	<circle style="fill:#556080;" cx="33" cy="35" r="1"/>
	<circle style="fill:#556080;" cx="30" cy="44" r="1"/>
	<circle style="fill:#556080;" cx="33" cy="41" r="1"/>
</g>
<rect x="37" y="8" style="fill:#AFB6BB;" width="5" height="39"/>
<circle style="fill:#E7ECED;" cx="50" cy="32" r="5"/>
<line style="fill:none;stroke:#C7CAC7;stroke-width:2;stroke-linecap:round;stroke-miterlimit:10;" x1="53.536" y1="28.464" x2="52.121" y2="29.879"/>
<line style="fill:none;stroke:#FFFFFF;stroke-width:2;stroke-linecap:round;stroke-miterlimit:10;" x1="45" y1="12" x2="55" y2="12"/>
<line style="fill:none;stroke:#FFFFFF;stroke-width:2;stroke-linecap:round;stroke-miterlimit:10;" x1="45" y1="16" x2="55" y2="16"/>
<g>
</g>
<g>
</g>
<g>
</g>
<g>
</g>
<g>
</g>
<g>
</g>
<g>
</g>
<g>
</g>
<g>
</g>
<g>
</g>
<g>
</g>
<g>
</g>
<g>
</g>
<g>
</g>
<g>
</g>
</svg>
