<?xml version="1.0" encoding="iso-8859-1"?>
<!-- Generator: Adobe Illustrator 18.0.0, SVG Export Plug-In . SVG Version: 6.00 Build 0)  -->
<!DOCTYPE svg PUBLIC "-//W3C//DTD SVG 1.1//EN" "http://www.w3.org/Graphics/SVG/1.1/DTD/svg11.dtd">
<svg version="1.1" id="Capa_1" xmlns="http://www.w3.org/2000/svg" xmlns:xlink="http://www.w3.org/1999/xlink" x="0px" y="0px"
	 viewBox="0 0 58 58" style="enable-background:new 0 0 58 58;" xml:space="preserve">
<rect y="8" style="fill:#949493;" width="58" height="39"/>
<rect x="42" y="11" style="fill:#E0E1E2;" width="16" height="33"/>
<rect x="2" y="47" style="fill:#556080;" width="6" height="3"/>
<rect x="50" y="47" style="fill:#556080;" width="6" height="3"/>
<path style="fill:#FFFFFF;" d="M31.27,38H8.73C6.67,38,5,36.33,5,34.27V20.73C5,18.67,6.67,17,8.73,17h22.54
	c2.06,0,3.73,1.67,3.73,3.73v13.54C35,36.33,33.33,38,31.27,38z"/>
<rect x="45" y="13" style="fill:#A4CA83;" width="10" height="8"/>
<rect x="45" y="24" style="fill:#FFFFFF;" width="3" height="3"/>
<rect x="52" y="24" style="fill:#FFFFFF;" width="3" height="3"/>
<rect x="45" y="28" style="fill:#FFFFFF;" width="3" height="3"/>
<rect x="52" y="28" style="fill:#FFFFFF;" width="3" height="3"/>
<rect x="45" y="32" style="fill:#FFFFFF;" width="3" height="3"/>
<rect x="52" y="32" style="fill:#FFFFFF;" width="3" height="3"/>
<rect y="11" style="fill:#7FABDA;" width="42" height="33"/>
<rect x="42" y="38" style="fill:#C7CAC7;" width="16" height="6"/>
<circle style="fill:#FFFFFF;" cx="8" cy="20" r="1"/>
<circle style="fill:#FFFFFF;" cx="14" cy="20" r="1"/>
<circle style="fill:#FFFFFF;" cx="8" cy="26" r="1"/>
<circle style="fill:#FFFFFF;" cx="14" cy="26" r="1"/>
<circle style="fill:#FFFFFF;" cx="11" cy="23" r="1"/>
<circle style="fill:#FFFFFF;" cx="17" cy="23" r="1"/>
<circle style="fill:#FFFFFF;" cx="11" cy="29" r="1"/>
<circle style="fill:#FFFFFF;" cx="17" cy="29" r="1"/>
<circle style="fill:#FFFFFF;" cx="20" cy="20" r="1"/>
<circle style="fill:#FFFFFF;" cx="20" cy="26" r="1"/>
<circle style="fill:#FFFFFF;" cx="8" cy="32" r="1"/>
<circle style="fill:#FFFFFF;" cx="14" cy="32" r="1"/>
<circle style="fill:#FFFFFF;" cx="11" cy="35" r="1"/>
<circle style="fill:#FFFFFF;" cx="17" cy="35" r="1"/>
<circle style="fill:#FFFFFF;" cx="20" cy="32" r="1"/>
<circle style="fill:#FFFFFF;" cx="26" cy="20" r="1"/>
<circle style="fill:#FFFFFF;" cx="26" cy="26" r="1"/>
<circle style="fill:#FFFFFF;" cx="23" cy="23" r="1"/>
<circle style="fill:#FFFFFF;" cx="29" cy="23" r="1"/>
<circle style="fill:#FFFFFF;" cx="23" cy="29" r="1"/>
<circle style="fill:#FFFFFF;" cx="29" cy="29" r="1"/>
<circle style="fill:#FFFFFF;" cx="32" cy="20" r="1"/>
<circle style="fill:#FFFFFF;" cx="32" cy="26" r="1"/>
<circle style="fill:#FFFFFF;" cx="26" cy="32" r="1"/>
<circle style="fill:#FFFFFF;" cx="23" cy="35" r="1"/>
<circle style="fill:#FFFFFF;" cx="29" cy="35" r="1"/>
<circle style="fill:#FFFFFF;" cx="32" cy="32" r="1"/>
<path style="fill:#7383BF;" d="M42,35h-1.478C39.129,35,38,33.871,38,32.478v-8.956C38,22.129,39.129,21,40.522,21H42V35z"/>
<g>
</g>
<g>
</g>
<g>
</g>
<g>
</g>
<g>
</g>
<g>
</g>
<g>
</g>
<g>
</g>
<g>
</g>
<g>
</g>
<g>
</g>
<g>
</g>
<g>
</g>
<g>
</g>
<g>
</g>
</svg>
