<?xml version="1.0" encoding="iso-8859-1"?>
<!-- Generator: Adobe Illustrator 18.0.0, SVG Export Plug-In . SVG Version: 6.00 Build 0)  -->
<!DOCTYPE svg PUBLIC "-//W3C//DTD SVG 1.1//EN" "http://www.w3.org/Graphics/SVG/1.1/DTD/svg11.dtd">
<svg version="1.1" id="Capa_1" xmlns="http://www.w3.org/2000/svg" xmlns:xlink="http://www.w3.org/1999/xlink" x="0px" y="0px"
	 viewBox="0 0 58 58" style="enable-background:new 0 0 58 58;" xml:space="preserve">
<line style="fill:none;stroke:#839594;stroke-width:2;stroke-linecap:round;stroke-linejoin:round;stroke-miterlimit:10;" x1="33" y1="17" x2="33" y2="23"/>
<line style="fill:none;stroke:#839594;stroke-width:2;stroke-linecap:round;stroke-linejoin:round;stroke-miterlimit:10;" x1="33" y1="23" x2="33" y2="35"/>
<path style="fill:none;stroke:#839594;stroke-width:2;stroke-linecap:round;stroke-linejoin:round;stroke-miterlimit:10;" d="
	M40.676,35c1.697-3.262,1.18-7.386-1.555-10.121L33,18.758l-6.121,6.121c-2.735,2.735-3.253,6.859-1.555,10.121H40.676z"/>
<path style="fill:none;stroke:#839594;stroke-width:2;stroke-linecap:round;stroke-linejoin:round;stroke-miterlimit:10;" d="
	M30.112,35h5.776c0.211-0.153,0.422-0.31,0.612-0.5c1.933-1.933,1.933-5.067,0-7L33,24l-3.5,3.5c-1.933,1.933-1.933,5.067,0,7
	C29.69,34.69,29.901,34.847,30.112,35z"/>
<path style="fill:#E7ECED;" d="M53,17V3.005C53,1.346,51.654,0,49.995,0H8.005C6.346,0,5,1.346,5,3.005V11v3v39v5h6h39.5
	c1.381,0,2.5-1.119,2.5-2.5v0c0-1.381-1.119-2.5-2.5-2.5H15.722C13.114,53,11,50.886,11,48.278V21.722
	C11,19.114,13.114,17,15.722,17H53z"/>
<path style="fill:#C7CAC7;" d="M33,53L33,53c-9.389,0-17-7.611-17-17v-2h34v2C50,45.389,42.389,53,33,53z"/>
<circle style="fill:#C7CAC7;" cx="43.5" cy="8.5" r="5.5"/>
<line style="fill:none;stroke:#949493;stroke-width:2;stroke-linecap:round;stroke-linejoin:round;stroke-miterlimit:10;" x1="44" y1="8" x2="47.388" y2="4.612"/>
<rect x="14" y="4" style="fill:#949493;" width="4" height="4"/>
<rect x="22" y="4" style="fill:#949493;" width="4" height="4"/>
<line style="fill:none;stroke:#C7CAC7;stroke-width:2;stroke-linecap:round;stroke-linejoin:round;stroke-miterlimit:10;" x1="14" y1="12" x2="18" y2="12"/>
<line style="fill:none;stroke:#C7CAC7;stroke-width:2;stroke-linecap:round;stroke-linejoin:round;stroke-miterlimit:10;" x1="22" y1="12" x2="26" y2="12"/>
<g>
</g>
<g>
</g>
<g>
</g>
<g>
</g>
<g>
</g>
<g>
</g>
<g>
</g>
<g>
</g>
<g>
</g>
<g>
</g>
<g>
</g>
<g>
</g>
<g>
</g>
<g>
</g>
<g>
</g>
</svg>
