<?xml version="1.0" encoding="iso-8859-1"?>
<!-- Generator: Adobe Illustrator 18.0.0, SVG Export Plug-In . SVG Version: 6.00 Build 0)  -->
<!DOCTYPE svg PUBLIC "-//W3C//DTD SVG 1.1//EN" "http://www.w3.org/Graphics/SVG/1.1/DTD/svg11.dtd">
<svg version="1.1" id="Capa_1" xmlns="http://www.w3.org/2000/svg" xmlns:xlink="http://www.w3.org/1999/xlink" x="0px" y="0px"
	 viewBox="0 0 60 60" style="enable-background:new 0 0 60 60;" xml:space="preserve">
<path style="fill:none;stroke:#556080;stroke-width:2;stroke-linecap:round;stroke-linejoin:round;stroke-miterlimit:10;" d="M48,1
	c2.209,0,4,1.791,4,4s-1.791,4-4,4"/>
<line style="fill:none;stroke:#556080;stroke-width:2;stroke-linecap:round;stroke-linejoin:round;stroke-miterlimit:10;" x1="48" y1="9" x2="45" y2="9"/>
<path style="fill:none;stroke:#556080;stroke-width:2;stroke-linecap:round;stroke-linejoin:round;stroke-miterlimit:10;" d="
	M12.177,57.136L12.177,57.136C5.269,50.059,17.009,41,17.009,41s11.695,9.105,4.832,16.136l0,0
	C19.173,59.621,14.846,59.621,12.177,57.136z"/>
<path style="fill:none;stroke:#556080;stroke-width:2;stroke-linecap:round;stroke-linejoin:round;stroke-miterlimit:10;" d="
	M17.009,59c-0.779,0-1.5-0.535-2.042-1.51c-0.926-2.024-1-3.654-0.959-4.856c0.123-3.598,1.529-8.307,2.984-11.634
	c1.465,3.377,2.887,8.147,3.001,11.729c0.04,1.254-0.043,2.798-0.942,4.762C18.51,58.465,17.788,59,17.009,59z"/>
<line style="fill:none;stroke:#556080;stroke-width:2;stroke-linecap:round;stroke-linejoin:round;stroke-miterlimit:10;" x1="17" y1="41" x2="17" y2="31"/>
<path style="fill:#C7CAC7;" d="M45.624,11H47V8h-1.447c-3.405,0-6.784-0.497-10.073-1.381C33.985,6.216,32.415,6,30.792,6H15.95
	C11.007,6,7,10.007,7,14.95v9.258C7,25.75,8.25,27,9.792,27h36.415c1.527,0,2.79-1.231,2.792-2.758
	c0.008-4.413-1.562-8.452-4.169-11.605C44.293,11.986,44.778,11,45.624,11z M40.635,16H15c-1.657,0-3-1.343-3-3s1.343-3,3-3h14.555
	c3.55,0,7.021,1.051,9.975,3.02l1.67,1.113C42.039,14.693,41.643,16,40.635,16z"/>
<rect x="16" y="3" style="fill:#839594;" width="3" height="3"/>
<rect x="22" y="3" style="fill:#839594;" width="3" height="3"/>
<rect x="13" y="27" style="fill:#694F87;" width="8" height="4"/>
<g>
	<line style="fill:#6C797A;" x1="29" y1="21" x2="29" y2="23"/>
	<path style="fill:#6C797A;" d="M29,24c-0.552,0-1-0.447-1-1v-2c0-0.553,0.448-1,1-1s1,0.447,1,1v2C30,23.553,29.552,24,29,24z"/>
</g>
<g>
	<line style="fill:#6C797A;" x1="33" y1="21" x2="33" y2="23"/>
	<path style="fill:#6C797A;" d="M33,24c-0.552,0-1-0.447-1-1v-2c0-0.553,0.448-1,1-1s1,0.447,1,1v2C34,23.553,33.552,24,33,24z"/>
</g>
<g>
	<line style="fill:#6C797A;" x1="37" y1="21" x2="37" y2="23"/>
	<path style="fill:#6C797A;" d="M37,24c-0.552,0-1-0.447-1-1v-2c0-0.553,0.448-1,1-1s1,0.447,1,1v2C38,23.553,37.552,24,37,24z"/>
</g>
<g>
	<line style="fill:#6C797A;" x1="41" y1="21" x2="41" y2="23"/>
	<path style="fill:#6C797A;" d="M41,24c-0.552,0-1-0.447-1-1v-2c0-0.553,0.448-1,1-1s1,0.447,1,1v2C42,23.553,41.552,24,41,24z"/>
</g>
<g>
</g>
<g>
</g>
<g>
</g>
<g>
</g>
<g>
</g>
<g>
</g>
<g>
</g>
<g>
</g>
<g>
</g>
<g>
</g>
<g>
</g>
<g>
</g>
<g>
</g>
<g>
</g>
<g>
</g>
</svg>
