<?xml version="1.0" encoding="iso-8859-1"?>
<!-- Generator: Adobe Illustrator 18.0.0, SVG Export Plug-In . SVG Version: 6.00 Build 0)  -->
<!DOCTYPE svg PUBLIC "-//W3C//DTD SVG 1.1//EN" "http://www.w3.org/Graphics/SVG/1.1/DTD/svg11.dtd">
<svg version="1.1" id="Capa_1" xmlns="http://www.w3.org/2000/svg" xmlns:xlink="http://www.w3.org/1999/xlink" x="0px" y="0px"
	 viewBox="0 0 58 58" style="enable-background:new 0 0 58 58;" xml:space="preserve">
<path style="fill:#C7CAC7;" d="M17.5,12c0-6.627-2.686-12-6-12s-6,5.373-6,12c0,2.253,0.312,4.358,0.853,6.158
	c0.264,0.88,0.264,1.804,0,2.684C5.812,22.642,5.5,24.747,5.5,27c0,6.627,2.686,12,6,12s6-5.373,6-12
	c0-2.253-0.312-4.358-0.853-6.158c-0.264-0.88-0.264-1.804,0-2.684C17.188,16.358,17.5,14.253,17.5,12z"/>
<path style="fill:#E7ECED;" d="M13.5,50.262v-11.96C12.874,38.746,12.202,39,11.5,39s-1.374-0.254-2-0.698v11.96
	c-3.449,0.889-6,4.011-6,7.738h16C19.5,54.274,16.949,51.152,13.5,50.262z"/>
<path style="fill:#7383BF;" d="M16.945,17H6.055c0.091,0.396,0.186,0.787,0.298,1.158c0.264,0.88,0.264,1.804,0,2.684
	C6.241,21.213,6.146,21.604,6.055,22h10.89c-0.091-0.396-0.186-0.787-0.298-1.158c-0.264-0.88-0.264-1.804,0-2.684
	C16.759,17.787,16.854,17.396,16.945,17z"/>
<circle style="fill:#FFFFFF;" cx="11.5" cy="10" r="3"/>
<polygon style="fill:#7FABDA;" points="51.5,58 27.5,58 24.5,36 54.5,36 "/>
<rect x="37.5" y="46" style="fill:#7383BF;" width="4" height="12"/>
<path style="fill:none;stroke:#7383BF;stroke-width:2;stroke-linecap:round;stroke-miterlimit:10;" d="M32.5,50c0,2.764,2.236,5,5,5
	"/>
<path style="fill:none;stroke:#7383BF;stroke-width:2;stroke-linecap:round;stroke-miterlimit:10;" d="M46.5,55c0-2.764-2.236-5-5-5
	"/>
<rect x="35.5" y="36" style="fill:#556080;" width="8" height="10"/>
<rect x="24.5" y="30" style="fill:#556080;" width="30" height="6"/>
<rect x="32.5" y="24" style="fill:#38454F;" width="14" height="6"/>
<rect x="34.5" y="21" style="fill:#AFB6BB;" width="10" height="3"/>
<path style="fill:#949493;" d="M9.5,55c0-0.553-0.448-1-1-1s-1,0.447-1,1v3h2V55z"/>
<path style="fill:#949493;" d="M12.5,55c0-0.553-0.448-1-1-1s-1,0.447-1,1v3h2V55z"/>
<path style="fill:#949493;" d="M15.5,55c0-0.553-0.448-1-1-1s-1,0.447-1,1v3h2V55z"/>
<g>
</g>
<g>
</g>
<g>
</g>
<g>
</g>
<g>
</g>
<g>
</g>
<g>
</g>
<g>
</g>
<g>
</g>
<g>
</g>
<g>
</g>
<g>
</g>
<g>
</g>
<g>
</g>
<g>
</g>
</svg>
