<?xml version="1.0" encoding="iso-8859-1"?>
<!-- Generator: Adobe Illustrator 18.0.0, SVG Export Plug-In . SVG Version: 6.00 Build 0)  -->
<!DOCTYPE svg PUBLIC "-//W3C//DTD SVG 1.1//EN" "http://www.w3.org/Graphics/SVG/1.1/DTD/svg11.dtd">
<svg version="1.1" id="Capa_1" xmlns="http://www.w3.org/2000/svg" xmlns:xlink="http://www.w3.org/1999/xlink" x="0px" y="0px"
	 viewBox="0 0 59 59" style="enable-background:new 0 0 59 59;" xml:space="preserve">
<path style="fill:#E7ECED;" d="M15,47.474V37h-4v10.474C8.237,48.81,6.056,52.851,5.297,58H6c0-1.657,1.343-3,3-3
	c1.381,0,2.544,0.933,2.893,2.203C12.018,57.659,12.396,58,12.87,58h0.261c0.474,0,0.851-0.341,0.977-0.797
	C14.456,55.933,15.619,55,17,55c1.657,0,3,1.343,3,3h0.703C19.944,52.851,17.763,48.81,15,47.474z"/>
<path style="fill:#C7CAC7;" d="M13,0C8.029,0,5,8.507,5,19c0,0.017,0,0.035,0,0.052c0.003,3.069,1.041,6.048,2.833,8.541
	l0.333,0.463c1.843,2.564,2.834,5.642,2.834,8.8V37h4v-0.144c0-3.158,0.991-6.236,2.834-8.8l0.333-0.463
	c1.791-2.493,2.83-5.471,2.833-8.541c0-0.017,0-0.035,0-0.052C21,8.507,17.971,0,13,0z"/>
<circle style="fill:#7383BF;" cx="13" cy="25" r="3"/>
<path style="fill:#694F87;" d="M15,11.5c0,3.938,2.378,7.366,5.892,9.163c0.063-0.533,0.107-1.07,0.108-1.611
	c0-0.017,0-0.035,0-0.052c0-5.985-0.988-11.316-2.757-14.798C16.239,6.091,15,8.662,15,11.5z"/>
<path style="fill:#694F87;" d="M7.757,4.202C5.988,7.684,5,13.015,5,19c0,0.017,0,0.035,0,0.052
	c0.001,0.541,0.044,1.077,0.108,1.611C8.622,18.866,11,15.438,11,11.5C11,8.662,9.761,6.091,7.757,4.202z"/>
<path style="fill:#A1C8EC;" d="M46.624,58H35.376C33.511,58,32,56.489,32,54.624V12h18v42.624C50,56.489,48.489,58,46.624,58z"/>
<g>
	<path style="fill:#628FB7;" d="M50,50h-3c-0.552,0-1,0.447-1,1s0.448,1,1,1h3c0.552,0,1-0.447,1-1S50.552,50,50,50z"/>
	<path style="fill:#628FB7;" d="M50,46h-3c-0.552,0-1,0.447-1,1s0.448,1,1,1h3c0.552,0,1-0.447,1-1S50.552,46,50,46z"/>
	<path style="fill:#628FB7;" d="M50,42h-3c-0.552,0-1,0.447-1,1s0.448,1,1,1h3c0.552,0,1-0.447,1-1S50.552,42,50,42z"/>
	<path style="fill:#628FB7;" d="M50,38h-3c-0.552,0-1,0.447-1,1s0.448,1,1,1h3c0.552,0,1-0.447,1-1S50.552,38,50,38z"/>
	<path style="fill:#628FB7;" d="M47,36h3c0.552,0,1-0.447,1-1s-0.448-1-1-1h-3c-0.552,0-1,0.447-1,1S46.448,36,47,36z"/>
	<path style="fill:#628FB7;" d="M35,50h-3c-0.552,0-1,0.447-1,1s0.448,1,1,1h3c0.552,0,1-0.447,1-1S35.552,50,35,50z"/>
	<path style="fill:#628FB7;" d="M35,46h-3c-0.552,0-1,0.447-1,1s0.448,1,1,1h3c0.552,0,1-0.447,1-1S35.552,46,35,46z"/>
	<path style="fill:#628FB7;" d="M35,42h-3c-0.552,0-1,0.447-1,1s0.448,1,1,1h3c0.552,0,1-0.447,1-1S35.552,42,35,42z"/>
	<path style="fill:#628FB7;" d="M35,38h-3c-0.552,0-1,0.447-1,1s0.448,1,1,1h3c0.552,0,1-0.447,1-1S35.552,38,35,38z"/>
	<path style="fill:#628FB7;" d="M35,34h-3c-0.552,0-1,0.447-1,1s0.448,1,1,1h3c0.552,0,1-0.447,1-1S35.552,34,35,34z"/>
</g>
<path style="fill:#E7ECED;" d="M46.624,59H35.376C32.963,59,31,57.037,31,54.624V11h20v43.624C51,57.037,49.037,59,46.624,59z
	 M33,13v41.624C33,55.935,34.066,57,35.376,57h11.248C47.934,57,49,55.935,49,54.624V13H33z"/>
<line style="fill:none;stroke:#7383BF;stroke-width:2;stroke-linecap:round;stroke-miterlimit:10;" x1="29" y1="12" x2="53" y2="12"/>
<g>
</g>
<g>
</g>
<g>
</g>
<g>
</g>
<g>
</g>
<g>
</g>
<g>
</g>
<g>
</g>
<g>
</g>
<g>
</g>
<g>
</g>
<g>
</g>
<g>
</g>
<g>
</g>
<g>
</g>
</svg>
