<?xml version="1.0" encoding="iso-8859-1"?>
<!-- Generator: Adobe Illustrator 18.0.0, SVG Export Plug-In . SVG Version: 6.00 Build 0)  -->
<!DOCTYPE svg PUBLIC "-//W3C//DTD SVG 1.1//EN" "http://www.w3.org/Graphics/SVG/1.1/DTD/svg11.dtd">
<svg version="1.1" id="Capa_1" xmlns="http://www.w3.org/2000/svg" xmlns:xlink="http://www.w3.org/1999/xlink" x="0px" y="0px"
	 viewBox="0 0 58 58" style="enable-background:new 0 0 58 58;" xml:space="preserve">
<path style="fill:#514236;" d="M9.042,39C7.424,40.564,5.268,43.408,6,46.783c0.878,4.046-0.828,5.222-0.796,5.229L2,55h1.109
	C8.652,55,11,52.292,11,46.783c0-5.33,3.486-7.441,3.519-7.464L15,39H9.042z"/>
<path style="fill:#514236;" d="M48.958,39c1.618,1.564,3.774,4.408,3.042,7.783c-0.878,4.046,0.828,5.222,0.796,5.229L56,55h-1.109
	C49.348,55,47,52.292,47,46.783c0-5.33-3.486-7.441-3.519-7.464L43,39H48.958z"/>
<rect x="3" y="23" style="fill:#635140;" width="52" height="16"/>
<rect x="3" y="7" style="fill:#756049;" width="52" height="16"/>
<path style="fill:#937A5C;" d="M56,7H2C0.9,7,0,6.1,0,5v0c0-1.1,0.9-2,2-2h54c1.1,0,2,0.9,2,2v0C58,6.1,57.1,7,56,7z"/>
<path style="fill:#635140;" d="M51.5,13c-1.381,0-2.5-1.119-2.5-2.5c0-0.171,0.018-0.338,0.05-0.5H8.95
	C8.982,10.162,9,10.329,9,10.5C9,11.881,7.881,13,6.5,13c-0.171,0-0.338-0.018-0.5-0.05v4.101C6.162,17.018,6.329,17,6.5,17
	C7.881,17,9,18.119,9,19.5c0,0.171-0.018,0.338-0.05,0.5H49.05C49.018,19.838,49,19.671,49,19.5c0-1.381,1.119-2.5,2.5-2.5
	c0.171,0,0.338,0.018,0.5,0.05V12.95C51.838,12.982,51.671,13,51.5,13z"/>
<path style="fill:#514236;" d="M51.5,29c-1.381,0-2.5-1.119-2.5-2.5c0-0.171,0.018-0.338,0.05-0.5H8.95
	C8.982,26.162,9,26.329,9,26.5C9,27.881,7.881,29,6.5,29c-0.171,0-0.338-0.018-0.5-0.05v4.101C6.162,33.018,6.329,33,6.5,33
	C7.881,33,9,34.119,9,35.5c0,0.171-0.018,0.338-0.05,0.5H49.05C49.018,35.838,49,35.671,49,35.5c0-1.381,1.119-2.5,2.5-2.5
	c0.171,0,0.338,0.018,0.5,0.05V28.95C51.838,28.982,51.671,29,51.5,29z"/>
<path style="fill:#F0D64E;" d="M32,33h-6c-1.654,0-3-1.346-3-3c0-0.553,0.447-1,1-1s1,0.447,1,1c0,0.552,0.448,1,1,1h6
	c0.552,0,1-0.448,1-1c0-0.553,0.447-1,1-1s1,0.447,1,1C35,31.654,33.654,33,32,33z"/>
<path style="fill:#F0D64E;" d="M32,17h-6c-1.654,0-3-1.346-3-3c0-0.553,0.447-1,1-1s1,0.447,1,1c0,0.552,0.448,1,1,1h6
	c0.552,0,1-0.448,1-1c0-0.553,0.447-1,1-1s1,0.447,1,1C35,15.654,33.654,17,32,17z"/>
<g>
</g>
<g>
</g>
<g>
</g>
<g>
</g>
<g>
</g>
<g>
</g>
<g>
</g>
<g>
</g>
<g>
</g>
<g>
</g>
<g>
</g>
<g>
</g>
<g>
</g>
<g>
</g>
<g>
</g>
</svg>
