<?xml version="1.0" encoding="iso-8859-1"?>
<!-- Generator: Adobe Illustrator 18.0.0, SVG Export Plug-In . SVG Version: 6.00 Build 0)  -->
<!DOCTYPE svg PUBLIC "-//W3C//DTD SVG 1.1//EN" "http://www.w3.org/Graphics/SVG/1.1/DTD/svg11.dtd">
<svg version="1.1" id="Capa_1" xmlns="http://www.w3.org/2000/svg" xmlns:xlink="http://www.w3.org/1999/xlink" x="0px" y="0px"
	 viewBox="0 0 56 56" style="enable-background:new 0 0 56 56;" xml:space="preserve">
<line style="fill:none;stroke:#382016;stroke-width:2;stroke-linecap:round;stroke-miterlimit:10;" x1="13.5" y1="52" x2="13.5" y2="55"/>
<line style="fill:none;stroke:#382016;stroke-width:2;stroke-linecap:round;stroke-miterlimit:10;" x1="42.5" y1="52" x2="42.5" y2="55"/>
<path style="fill:#553323;stroke:#774836;stroke-width:2;stroke-linejoin:round;stroke-miterlimit:10;" d="M43.531,52H12.469
	C10.277,52,8.5,50.223,8.5,48.031V13h39v35.031C47.5,50.223,45.723,52,43.531,52z"/>
<rect x="13.5" y="19" style="fill:#382016;" width="29" height="10"/>
<rect x="13.5" y="36" style="fill:#382016;" width="29" height="10"/>
<line style="fill:none;stroke:#382016;stroke-width:2;stroke-linecap:round;stroke-miterlimit:10;" x1="5.5" y1="13" x2="50.5" y2="13"/>
<path style="fill:#AB8024;" d="M31.5,25h-7c-0.552,0-1-0.447-1-1s0.448-1,1-1h7c0.552,0,1,0.447,1,1S32.052,25,31.5,25z"/>
<path style="fill:#AB8024;" d="M31.5,42h-7c-0.552,0-1-0.447-1-1s0.448-1,1-1h7c0.552,0,1,0.447,1,1S32.052,42,31.5,42z"/>
<path style="fill:#D5354E;" d="M31.5,6.667c-5.485,0-10.364-1.121-13.472-2.86c-1.701-0.952-3.908-0.595-5.016,1.009
	C12.679,5.298,12.5,5.807,12.5,6.333c0,3.13,6.268,5.667,14,5.667s14-2.537,14-5.667c0-0.252-0.055-0.499-0.134-0.743
	C37.785,6.273,34.749,6.667,31.5,6.667z"/>
<path style="fill:#23A24D;" d="M18.028,3.806c2.191,1.226,5.265,2.143,8.808,2.578c0.211-0.532,0.331-1.111,0.331-1.718
	C27.167,2.089,25.077,0,22.5,0c-2.267,0-4.154,1.617-4.577,3.759C17.957,3.777,17.994,3.788,18.028,3.806z"/>
<path style="fill:#F0D64E;" d="M26.823,6.383c1.486,0.183,3.054,0.284,4.677,0.284c0.382,0,0.761-0.007,1.138-0.017
	c0.335-0.585,0.529-1.26,0.529-1.983c0-2.209-1.791-4-4-4c-1.143,0-2.172,0.482-2.901,1.252c0.564,0.771,0.901,1.719,0.901,2.748
	C27.167,5.276,27.037,5.851,26.823,6.383z"/>
<path style="fill:#23A24D;" d="M32.628,6.65c2.053-0.058,4.006-0.274,5.796-0.619C38.472,5.806,38.5,5.573,38.5,5.333
	C38.5,3.492,37.008,2,35.167,2c-0.928,0-1.766,0.381-2.371,0.993c0.236,0.51,0.371,1.075,0.371,1.674
	C33.167,5.391,32.966,6.064,32.628,6.65z"/>
<g>
</g>
<g>
</g>
<g>
</g>
<g>
</g>
<g>
</g>
<g>
</g>
<g>
</g>
<g>
</g>
<g>
</g>
<g>
</g>
<g>
</g>
<g>
</g>
<g>
</g>
<g>
</g>
<g>
</g>
</svg>
