<?xml version="1.0" encoding="iso-8859-1"?>
<!-- Generator: Adobe Illustrator 18.0.0, SVG Export Plug-In . SVG Version: 6.00 Build 0)  -->
<!DOCTYPE svg PUBLIC "-//W3C//DTD SVG 1.1//EN" "http://www.w3.org/Graphics/SVG/1.1/DTD/svg11.dtd">
<svg version="1.1" id="Capa_1" xmlns="http://www.w3.org/2000/svg" xmlns:xlink="http://www.w3.org/1999/xlink" x="0px" y="0px"
	 viewBox="0 0 57 57" style="enable-background:new 0 0 57 57;" xml:space="preserve">
<polygon style="fill:#382016;" points="42.987,37.5 47.487,55.5 50,55.5 46.838,37.5 "/>
<polygon style="fill:#382016;" points="10.162,37.5 7,55.5 9.513,55.5 14.013,37.5 "/>
<path style="fill:#38454F;" d="M23.5,6.5C22.125,6.5,21,5.375,21,4v0c0-1.375,1.125-2.5,2.5-2.5h0C24.875,1.5,26,2.625,26,4v0"/>
<path style="fill:#38454F;" d="M32,4c0-1.375,1.125-2.5,2.5-2.5h0C35.875,1.5,37,2.625,37,4v0c0,1.375-1.125,2.5-2.5,2.5h0"/>
<line style="fill:none;stroke:#38454F;stroke-width:2;stroke-linecap:round;stroke-miterlimit:10;" x1="26" y1="15.5" x2="24" y2="17.5"/>
<line style="fill:none;stroke:#38454F;stroke-width:2;stroke-linecap:round;stroke-miterlimit:10;" x1="32" y1="15.5" x2="34" y2="17.5"/>
<circle style="fill:#A1C8EC;stroke:#556080;stroke-width:2;stroke-linecap:round;stroke-miterlimit:10;" cx="29" cy="9.5" r="6"/>
<path style="fill:#FFFFFF;" d="M29,10.5c-0.552,0-1-0.447-1-1v-3c0-0.553,0.448-1,1-1s1,0.447,1,1v3C30,10.053,29.552,10.5,29,10.5z
	"/>
<path style="fill:#FFFFFF;" d="M31,12.5c-0.256,0-0.512-0.098-0.707-0.293l-2-2c-0.391-0.391-0.391-1.023,0-1.414
	s1.023-0.391,1.414,0l2,2c0.391,0.391,0.391,1.023,0,1.414C31.512,12.402,31.256,12.5,31,12.5z"/>
<path style="fill:#553323;" d="M47.5,37.5h-38C4.275,37.5,0,33.225,0,28v0c0-5.225,4.275-9.5,9.5-9.5h38c5.225,0,9.5,4.275,9.5,9.5
	v0C57,33.225,52.725,37.5,47.5,37.5z"/>
<path style="fill:#3D251B;" d="M47.5,33.5h-38C6.475,33.5,4,31.025,4,28v0c0-3.025,2.475-5.5,5.5-5.5h38c3.025,0,5.5,2.475,5.5,5.5
	v0C53,31.025,50.525,33.5,47.5,33.5z"/>
<circle style="fill:#D7B740;" cx="20.5" cy="28" r="1.5"/>
<circle style="fill:#D7B740;" cx="37.5" cy="28" r="1.5"/>
<g>
</g>
<g>
</g>
<g>
</g>
<g>
</g>
<g>
</g>
<g>
</g>
<g>
</g>
<g>
</g>
<g>
</g>
<g>
</g>
<g>
</g>
<g>
</g>
<g>
</g>
<g>
</g>
<g>
</g>
</svg>
