<?xml version="1.0" encoding="iso-8859-1"?>
<!-- Generator: Adobe Illustrator 18.0.0, SVG Export Plug-In . SVG Version: 6.00 Build 0)  -->
<!DOCTYPE svg PUBLIC "-//W3C//DTD SVG 1.1//EN" "http://www.w3.org/Graphics/SVG/1.1/DTD/svg11.dtd">
<svg version="1.1" id="Capa_1" xmlns="http://www.w3.org/2000/svg" xmlns:xlink="http://www.w3.org/1999/xlink" x="0px" y="0px"
	 viewBox="0 0 58 58" style="enable-background:new 0 0 58 58;" xml:space="preserve">
<path style="fill:#D6D6D6;" d="M56.726,26.755C49.427,32.383,39.693,35.821,29,35.821S8.573,32.383,1.274,26.755l0,0
	C3.163,38.192,14.853,47,29,47S54.837,38.192,56.726,26.755L56.726,26.755z"/>
<g>
	<path style="fill:#DD352E;" d="M1.274,26.755C8.573,32.383,18.307,35.821,29,35.821s20.427-3.439,27.726-9.066v0v0l0,0
		c-0.057,0.343-0.123,0.682-0.197,1.02C56.833,26.388,57,24.961,57,23.5C57,10.521,44.464,0,29,0S1,10.521,1,23.5
		c0,1.461,0.167,2.888,0.471,4.275C1.397,27.437,1.33,27.097,1.274,26.755z"/>
</g>
<path style="fill:#B02721;" d="M49.878,31.018c0.014-0.007,0.028-0.014,0.042-0.021C49.432,27.608,46.525,25,43,25H15
	c-3.525,0-6.432,2.608-6.92,5.997c0.014,0.007,0.028,0.014,0.042,0.021c6.116,3.046,13.25,4.803,20.878,4.803
	S43.762,34.064,49.878,31.018z"/>
<path style="fill:#B02721;" d="M29,0c-5.102,0-9.881,1.151-14,3.152v7.697c0,7.732,6.268,14,14,14s14-6.268,14-14V3.152
	C38.881,1.151,34.102,0,29,0z"/>
<path style="fill:#C7CAC7;" d="M31,47L31,47l-4,0v0c0,2.522-1.774,4.697-4.245,5.203L11,54.611v0c0,2.094,1.88,3.687,3.946,3.342
	l0,0c9.268-1.947,18.84-1.947,28.109,0l0,0C45.12,58.297,47,56.705,47,54.611v0l-11.755-2.408C32.774,51.697,31,49.522,31,47z"/>
<g>
	<circle style="fill:#DD352E;" cx="23" cy="9" r="1"/>
	<circle style="fill:#DD352E;" cx="29" cy="9" r="1"/>
	<circle style="fill:#DD352E;" cx="23" cy="15" r="1"/>
	<circle style="fill:#DD352E;" cx="29" cy="15" r="1"/>
	<circle style="fill:#DD352E;" cx="26" cy="12" r="1"/>
	<circle style="fill:#DD352E;" cx="32" cy="12" r="1"/>
	<circle style="fill:#DD352E;" cx="26" cy="6.152" r="1"/>
	<circle style="fill:#DD352E;" cx="32" cy="6.152" r="1"/>
	<circle style="fill:#DD352E;" cx="35" cy="9" r="1"/>
	<circle style="fill:#DD352E;" cx="35" cy="15" r="1"/>
</g>
<g>
</g>
<g>
</g>
<g>
</g>
<g>
</g>
<g>
</g>
<g>
</g>
<g>
</g>
<g>
</g>
<g>
</g>
<g>
</g>
<g>
</g>
<g>
</g>
<g>
</g>
<g>
</g>
<g>
</g>
</svg>
