<?xml version="1.0" encoding="iso-8859-1"?>
<!-- Generator: Adobe Illustrator 18.0.0, SVG Export Plug-In . SVG Version: 6.00 Build 0)  -->
<!DOCTYPE svg PUBLIC "-//W3C//DTD SVG 1.1//EN" "http://www.w3.org/Graphics/SVG/1.1/DTD/svg11.dtd">
<svg version="1.1" id="Capa_1" xmlns="http://www.w3.org/2000/svg" xmlns:xlink="http://www.w3.org/1999/xlink" x="0px" y="0px"
	 viewBox="0 0 58 58" style="enable-background:new 0 0 58 58;" xml:space="preserve">
<path style="fill:#E7ECED;" d="M47,4.085C47,1.829,45.171,0,42.915,0h-2.77H17.854h-2.77C12.829,0,11,1.829,11,4.085v0.441
	c0,1.564,0.711,3.044,1.933,4.021l1.135,0.908C15.289,10.431,16,11.911,16,13.475V24h0.708C17.421,24,18,24.579,18,25.292V28h22
	v-2.708C40,24.579,40.579,24,41.292,24H42V12.915c0-1.809,0.949-3.485,2.5-4.415l0,0C46.051,7.569,47,5.893,47,4.085L47,4.085z"/>
<g>
	<g>
		<path style="fill:#C7CAC7;" d="M44.983,48.916c-0.006-0.07-0.02-0.134-0.04-0.2c-0.018-0.06-0.037-0.117-0.066-0.172
			c-0.03-0.058-0.066-0.108-0.107-0.159c-0.04-0.05-0.079-0.096-0.128-0.137c-0.048-0.041-0.1-0.073-0.156-0.105
			c-0.058-0.033-0.116-0.061-0.182-0.082c-0.028-0.009-0.05-0.029-0.08-0.036l-13-3c-0.536-0.121-1.075,0.211-1.2,0.75
			c-0.124,0.539,0.211,1.075,0.75,1.2l0.163,0.038c-0.234,0.015-0.465,0.102-0.645,0.281c-0.391,0.391-0.391,1.023,0,1.414l3,3
			C33.488,51.902,33.744,52,34,52s0.512-0.098,0.707-0.293c0.391-0.391,0.391-1.023,0-1.414l-3-3
			c-0.07-0.07-0.155-0.113-0.238-0.158L43,49.796V51c0,0.552,0.448,1,1,1s1-0.448,1-1v-2C45,48.97,44.986,48.945,44.983,48.916z"/>
		<path style="fill:#C7CAC7;" d="M30,41c0-0.552-0.448-1-1-1s-1,0.448-1,1v4c0,0.552,0.448,1,1,1s1-0.448,1-1V41z"/>
		<path style="fill:#C7CAC7;" d="M27.062,47.012l0.163-0.038c0.538-0.125,0.874-0.661,0.75-1.2c-0.125-0.539-0.664-0.873-1.2-0.75
			l-13,3c-0.03,0.007-0.051,0.027-0.08,0.036c-0.065,0.021-0.123,0.049-0.182,0.082c-0.056,0.032-0.108,0.064-0.156,0.105
			c-0.048,0.041-0.088,0.087-0.128,0.137c-0.041,0.051-0.077,0.101-0.107,0.159c-0.029,0.055-0.048,0.112-0.066,0.172
			c-0.02,0.066-0.034,0.13-0.04,0.2C13.014,48.945,13,48.97,13,49v2c0,0.552,0.448,1,1,1s1-0.448,1-1v-1.204l11.531-2.661
			c-0.083,0.045-0.168,0.088-0.238,0.158l-3,3c-0.391,0.391-0.391,1.023,0,1.414C23.488,51.902,23.744,52,24,52
			s0.512-0.098,0.707-0.293l3-3c0.391-0.391,0.391-1.023,0-1.414C27.528,47.114,27.297,47.027,27.062,47.012z"/>
	</g>
	<rect x="26" y="35" style="fill:#546A79;" width="6" height="3"/>
	<rect x="27" y="38" style="fill:#38454F;" width="4" height="3"/>
	<rect x="27" y="45" style="fill:#AFB6BB;" width="4" height="4.038"/>
	
		<line style="fill:none;stroke:#AFB6BB;stroke-width:2;stroke-linecap:round;stroke-miterlimit:10;" x1="37" y1="39" x2="40" y2="39"/>
	
		<line style="fill:none;stroke:#AFB6BB;stroke-width:2;stroke-linecap:round;stroke-miterlimit:10;" x1="37" y1="39" x2="33" y2="35"/>
	<circle style="fill:#38454F;" cx="13.5" cy="54.5" r="3.5"/>
	<circle style="fill:#38454F;" cx="44.5" cy="54.5" r="3.5"/>
	<circle style="fill:#38454F;" cx="23.5" cy="54.5" r="3.5"/>
	<circle style="fill:#38454F;" cx="34.5" cy="54.5" r="3.5"/>
</g>
<circle style="fill:#C7CAC7;" cx="29" cy="8" r="1"/>
<circle style="fill:#C7CAC7;" cx="29" cy="14" r="1"/>
<circle style="fill:#C7CAC7;" cx="29" cy="20" r="1"/>
<path style="fill:#C7CAC7;" d="M40,25.292V28H18v-2.708C18,24.579,17.421,24,16.708,24h-4.415C11.579,24,11,24.579,11,25.292v5
	c0,2.6,2.108,4.708,4.708,4.708h26.585c2.6,0,4.708-2.108,4.708-4.708v-5C47,24.579,46.421,24,45.708,24h-4.415
	C40.579,24,40,24.579,40,25.292z"/>
<g>
</g>
<g>
</g>
<g>
</g>
<g>
</g>
<g>
</g>
<g>
</g>
<g>
</g>
<g>
</g>
<g>
</g>
<g>
</g>
<g>
</g>
<g>
</g>
<g>
</g>
<g>
</g>
<g>
</g>
</svg>
