<?xml version="1.0" encoding="iso-8859-1"?>
<!-- Generator: Adobe Illustrator 18.0.0, SVG Export Plug-In . SVG Version: 6.00 Build 0)  -->
<!DOCTYPE svg PUBLIC "-//W3C//DTD SVG 1.1//EN" "http://www.w3.org/Graphics/SVG/1.1/DTD/svg11.dtd">
<svg version="1.1" id="Capa_1" xmlns="http://www.w3.org/2000/svg" xmlns:xlink="http://www.w3.org/1999/xlink" x="0px" y="0px"
	 viewBox="0 0 54 54" style="enable-background:new 0 0 54 54;" xml:space="preserve">
<path style="fill:#A1744B;" d="M47.708,0.049c-1.769-0.243-3.39,0.44-4.45,1.634c-0.659,0.743-1.808,0.83-2.453,0.074
	C39.889,0.682,38.524,0,37,0c-1.525,0-2.89,0.683-3.807,1.759c-0.618,0.725-1.767,0.725-2.385,0C29.89,0.683,28.525,0,27,0
	s-2.89,0.683-3.807,1.759c-0.618,0.725-1.767,0.725-2.385,0C19.89,0.683,18.525,0,17,0c-1.524,0-2.889,0.682-3.806,1.757
	C12.55,2.513,11.4,2.426,10.741,1.683C9.682,0.489,8.06-0.194,6.292,0.049C3.785,0.393,2,2.684,2,5.215L2,49h50V5.215
	C52,2.684,50.215,0.393,47.708,0.049z"/>
<polygon style="fill:#BFA380;" points="7,54 4,54 4,49 9,49 "/>
<polygon style="fill:#BFA380;" points="47,54 50,54 50,49 45,49 "/>
<g>
	<circle style="fill:#695851;" cx="45" cy="18" r="1"/>
	<circle style="fill:#695851;" cx="45" cy="26" r="1"/>
	<circle style="fill:#695851;" cx="45" cy="34" r="1"/>
	<circle style="fill:#695851;" cx="36" cy="18" r="1"/>
	<circle style="fill:#695851;" cx="36" cy="26" r="1"/>
	<circle style="fill:#695851;" cx="36" cy="34" r="1"/>
	<circle style="fill:#695851;" cx="27" cy="18" r="1"/>
	<circle style="fill:#695851;" cx="27" cy="26" r="1"/>
	<circle style="fill:#695851;" cx="27" cy="34" r="1"/>
	<circle style="fill:#695851;" cx="18" cy="18" r="1"/>
	<circle style="fill:#695851;" cx="18" cy="26" r="1"/>
	<circle style="fill:#695851;" cx="18" cy="34" r="1"/>
	<circle style="fill:#695851;" cx="9" cy="18" r="1"/>
	<circle style="fill:#695851;" cx="9" cy="26" r="1"/>
	<circle style="fill:#695851;" cx="9" cy="34" r="1"/>
	<circle style="fill:#695851;" cx="45" cy="42" r="1"/>
	<circle style="fill:#695851;" cx="36" cy="42" r="1"/>
	<circle style="fill:#695851;" cx="27" cy="42" r="1"/>
	<circle style="fill:#695851;" cx="18" cy="42" r="1"/>
	<circle style="fill:#695851;" cx="9" cy="42" r="1"/>
</g>
<path style="fill:#695851;" d="M47.491,0.023c-1.684-0.161-3.217,0.515-4.233,1.659c-0.659,0.743-1.808,0.83-2.453,0.074
	C39.889,0.682,38.524,0,37,0c-1.525,0-2.89,0.683-3.807,1.759c-0.618,0.725-1.767,0.725-2.385,0C29.89,0.683,28.525,0,27,0
	s-2.89,0.683-3.807,1.759c-0.618,0.725-1.767,0.725-2.385,0C19.89,0.683,18.525,0,17,0c-1.524,0-2.889,0.682-3.806,1.757
	C12.55,2.513,11.4,2.426,10.741,1.683c-1.016-1.145-2.549-1.82-4.233-1.659C3.909,0.271,2,2.603,2,5.215L2,11h50V5.215
	C52,2.603,50.091,0.271,47.491,0.023z"/>
<g>
</g>
<g>
</g>
<g>
</g>
<g>
</g>
<g>
</g>
<g>
</g>
<g>
</g>
<g>
</g>
<g>
</g>
<g>
</g>
<g>
</g>
<g>
</g>
<g>
</g>
<g>
</g>
<g>
</g>
</svg>
