<?xml version="1.0" encoding="iso-8859-1"?>
<!-- Generator: Adobe Illustrator 18.0.0, SVG Export Plug-In . SVG Version: 6.00 Build 0)  -->
<!DOCTYPE svg PUBLIC "-//W3C//DTD SVG 1.1//EN" "http://www.w3.org/Graphics/SVG/1.1/DTD/svg11.dtd">
<svg version="1.1" id="Capa_1" xmlns="http://www.w3.org/2000/svg" xmlns:xlink="http://www.w3.org/1999/xlink" x="0px" y="0px"
	 viewBox="0 0 57 57" style="enable-background:new 0 0 57 57;" xml:space="preserve">
<rect x="7" y="3" style="fill:#AFB6BB;" width="22" height="6"/>
<rect x="46" y="23" style="fill:#AFB6BB;" width="6" height="22"/>
<g>
	<path style="fill:#C7CAC7;" d="M26,22.526V9H10v19.432C10,35.925,16.075,42,23.568,42H46V26H29.474C27.555,26,26,24.445,26,22.526z
		"/>
	<rect x="10" style="fill:#C7CAC7;" width="16" height="3"/>
</g>
<path style="fill:#7383BF;" d="M16.936,55.784L16.936,55.784c-1.622,1.622-4.251,1.622-5.872,0l0,0
	c-1.622-1.622-1.616-4.158,0-6.396L14,45.235l2.936,4.152C18.553,51.983,18.558,54.162,16.936,55.784z"/>
<rect x="52" y="26" style="fill:#C7CAC7;" width="3" height="16"/>
<line style="fill:none;stroke:#E7ECED;stroke-width:2;stroke-linecap:round;stroke-miterlimit:10;" x1="7" y1="41" x2="5" y2="43"/>
<line style="fill:none;stroke:#E7ECED;stroke-width:2;stroke-linecap:round;stroke-miterlimit:10;" x1="6" y1="38" x2="3" y2="38"/>
<line style="fill:none;stroke:#E7ECED;stroke-width:2;stroke-linecap:round;stroke-miterlimit:10;" x1="7" y1="35" x2="5" y2="33"/>
<path style="fill:#556080;" d="M24,31c0-0.553-0.448-1-1-1h-4c-0.552,0-1,0.447-1,1v3h-3c-0.552,0-1,0.447-1,1v3.05
	c0.557,0.554,1.165,1.054,1.81,1.505C15.921,39.394,16,39.21,16,39v-3h3c0.552,0,1-0.447,1-1v-3h3C23.552,32,24,31.553,24,31z"/>
<rect x="10" style="fill:#C7CAC7;" width="16" height="3"/>
<g>
</g>
<g>
</g>
<g>
</g>
<g>
</g>
<g>
</g>
<g>
</g>
<g>
</g>
<g>
</g>
<g>
</g>
<g>
</g>
<g>
</g>
<g>
</g>
<g>
</g>
<g>
</g>
<g>
</g>
</svg>
