<?xml version="1.0" encoding="iso-8859-1"?>
<!-- Generator: Adobe Illustrator 18.0.0, SVG Export Plug-In . SVG Version: 6.00 Build 0)  -->
<!DOCTYPE svg PUBLIC "-//W3C//DTD SVG 1.1//EN" "http://www.w3.org/Graphics/SVG/1.1/DTD/svg11.dtd">
<svg version="1.1" id="Capa_1" xmlns="http://www.w3.org/2000/svg" xmlns:xlink="http://www.w3.org/1999/xlink" x="0px" y="0px"
	 viewBox="0 0 58 58" style="enable-background:new 0 0 58 58;" xml:space="preserve">
<rect x="24.5" style="fill:#DC691D;" width="16" height="3"/>
<rect x="24.5" y="55" style="fill:#DC691D;" width="16" height="3"/>
<path style="fill:#DC691D;" d="M24.5,9v23.448l2.786,3.94c1.616,2.595,1.622,4.775,0,6.396c-0.772,0.772-1.774,1.165-2.786,1.202V49
	h16V9H24.5z"/>
<path style="fill:#1081E0;" d="M27.286,42.784L27.286,42.784c-1.622,1.622-4.251,1.622-5.872,0l0,0
	c-1.622-1.622-1.616-4.158,0-6.396l2.936-4.152l2.936,4.152C28.902,38.983,28.907,41.162,27.286,42.784z"/>
<line style="fill:none;stroke:#EFCE4A;stroke-width:2;stroke-linecap:round;stroke-miterlimit:10;" x1="19.5" y1="28" x2="17.5" y2="30"/>
<line style="fill:none;stroke:#EFCE4A;stroke-width:2;stroke-linecap:round;stroke-miterlimit:10;" x1="18.5" y1="25" x2="15.5" y2="25"/>
<rect x="21.5" y="3" style="fill:#ED8A19;" width="22" height="6"/>
<rect x="21.5" y="49" style="fill:#ED8A19;" width="22" height="6"/>
<line style="fill:none;stroke:#EFCE4A;stroke-width:2;stroke-linecap:round;stroke-miterlimit:10;" x1="19.5" y1="22" x2="17.379" y2="19.879"/>
<path style="fill:#9E4615;" d="M32.5,16c-0.553,0-1,0.447-1,1v3h-3c-0.553,0-1,0.447-1,1v3h-3v2h4c0.553,0,1-0.447,1-1v-3h3
	c0.553,0,1-0.447,1-1v-4C33.5,16.447,33.053,16,32.5,16z"/>
<g>
</g>
<g>
</g>
<g>
</g>
<g>
</g>
<g>
</g>
<g>
</g>
<g>
</g>
<g>
</g>
<g>
</g>
<g>
</g>
<g>
</g>
<g>
</g>
<g>
</g>
<g>
</g>
<g>
</g>
</svg>
