<?xml version="1.0" encoding="iso-8859-1"?>
<!-- Generator: Adobe Illustrator 18.0.0, SVG Export Plug-In . SVG Version: 6.00 Build 0)  -->
<!DOCTYPE svg PUBLIC "-//W3C//DTD SVG 1.1//EN" "http://www.w3.org/Graphics/SVG/1.1/DTD/svg11.dtd">
<svg version="1.1" id="Capa_1" xmlns="http://www.w3.org/2000/svg" xmlns:xlink="http://www.w3.org/1999/xlink" x="0px" y="0px"
	 viewBox="0 0 58.388 58.388" style="enable-background:new 0 0 58.388 58.388;" xml:space="preserve">
<line style="fill:none;stroke:#23A24D;stroke-width:2;stroke-linecap:round;stroke-miterlimit:10;" x1="35.694" y1="33.388" x2="30.694" y2="38.388"/>
<line style="fill:none;stroke:#23A24D;stroke-width:2;stroke-linecap:round;stroke-miterlimit:10;" x1="22.694" y1="33.388" x2="27.694" y2="38.388"/>
<line style="fill:none;stroke:#23A24D;stroke-width:2;stroke-linecap:round;stroke-miterlimit:10;" x1="45.694" y1="10.388" x2="35.866" y2="20.216"/>
<line style="fill:none;stroke:#23A24D;stroke-width:2;stroke-linecap:round;stroke-miterlimit:10;" x1="12.694" y1="10.388" x2="22.522" y2="20.216"/>
<line style="fill:none;stroke:#23A24D;stroke-width:2;stroke-linecap:round;stroke-miterlimit:10;" x1="45.694" y1="23.388" x2="35.866" y2="33.216"/>
<line style="fill:none;stroke:#23A24D;stroke-width:2;stroke-linecap:round;stroke-miterlimit:10;" x1="12.694" y1="23.388" x2="22.522" y2="33.216"/>
<line style="fill:none;stroke:#23A24D;stroke-width:2;stroke-linecap:round;stroke-miterlimit:10;" x1="28.694" y1="38.388" x2="28.694" y2="1.388"/>
<line style="fill:none;stroke:#23A24D;stroke-width:2;stroke-linecap:round;stroke-miterlimit:10;" x1="22.694" y1="20.388" x2="28.694" y2="26.388"/>
<line style="fill:none;stroke:#23A24D;stroke-width:2;stroke-linecap:round;stroke-miterlimit:10;" x1="35.694" y1="20.388" x2="28.694" y2="27.388"/>
<path style="fill:#ED8A19;stroke:#EFCE4A;stroke-width:2;stroke-linecap:round;stroke-miterlimit:10;" d="M38.694,21.388
	L38.694,21.388c-2.209,0-4-1.791-4-4v0c0-5.958,11-7,11-7S45.694,21.388,38.694,21.388z"/>
<path style="fill:#ED8A19;stroke:#EFCE4A;stroke-width:2;stroke-linecap:round;stroke-miterlimit:10;" d="M19.694,21.388
	L19.694,21.388c2.209,0,4-1.791,4-4v0c0-5.958-11-7-11-7S12.694,21.388,19.694,21.388z"/>
<path style="fill:#ED8A19;stroke:#EFCE4A;stroke-width:2;stroke-linecap:round;stroke-miterlimit:10;" d="M38.694,34.388
	L38.694,34.388c-2.209,0-4-1.791-4-4v0c0-5.958,11-7,11-7S45.694,34.388,38.694,34.388z"/>
<path style="fill:#ED8A19;stroke:#EFCE4A;stroke-width:2;stroke-linecap:round;stroke-miterlimit:10;" d="M19.694,34.388
	L19.694,34.388c2.209,0,4-1.791,4-4v0c0-5.958-11-7-11-7S12.694,34.388,19.694,34.388z"/>
<path style="fill:#ED8A19;stroke:#EFCE4A;stroke-width:2;stroke-linecap:round;stroke-miterlimit:10;" d="M31.694,13.116
	L31.694,13.116c-1.562,1.562-4.095,1.562-5.657,0l0,0c-4.213-4.213,2.656-11.728,2.656-11.728S36.644,8.166,31.694,13.116z"/>
<polygon style="fill:#9E6C53;" points="14.694,38.388 14.694,44.388 16.694,44.388 17.694,58.388 39.694,58.388 40.694,44.388 
	42.694,44.388 42.694,38.388 "/>
<g>
	<path style="fill:#CE9982;" d="M22.694,43.388c-0.553,0-1,0.447-1,1v1c0,0.553,0.447,1,1,1s1-0.447,1-1v-1
		C23.694,43.835,23.247,43.388,22.694,43.388z"/>
	<path style="fill:#CE9982;" d="M19.694,43.388c-0.553,0-1,0.447-1,1v1c0,0.553,0.447,1,1,1s1-0.447,1-1v-1
		C20.694,43.835,20.247,43.388,19.694,43.388z"/>
	<path style="fill:#CE9982;" d="M37.694,43.388c-0.553,0-1,0.447-1,1v1c0,0.553,0.447,1,1,1s1-0.447,1-1v-1
		C38.694,43.835,38.247,43.388,37.694,43.388z"/>
	<path style="fill:#CE9982;" d="M34.694,43.388c-0.553,0-1,0.447-1,1v1c0,0.553,0.447,1,1,1s1-0.447,1-1v-1
		C35.694,43.835,35.247,43.388,34.694,43.388z"/>
	<path style="fill:#CE9982;" d="M31.694,43.388c-0.553,0-1,0.447-1,1v1c0,0.553,0.447,1,1,1s1-0.447,1-1v-1
		C32.694,43.835,32.247,43.388,31.694,43.388z"/>
	<path style="fill:#CE9982;" d="M28.694,43.388c-0.553,0-1,0.447-1,1v1c0,0.553,0.447,1,1,1s1-0.447,1-1v-1
		C29.694,43.835,29.247,43.388,28.694,43.388z"/>
	<path style="fill:#CE9982;" d="M25.694,43.388c-0.553,0-1,0.447-1,1v1c0,0.553,0.447,1,1,1s1-0.447,1-1v-1
		C26.694,43.835,26.247,43.388,25.694,43.388z"/>
</g>
<g>
</g>
<g>
</g>
<g>
</g>
<g>
</g>
<g>
</g>
<g>
</g>
<g>
</g>
<g>
</g>
<g>
</g>
<g>
</g>
<g>
</g>
<g>
</g>
<g>
</g>
<g>
</g>
<g>
</g>
</svg>
