<?xml version="1.0" encoding="iso-8859-1"?>
<!-- Generator: Adobe Illustrator 18.0.0, SVG Export Plug-In . SVG Version: 6.00 Build 0)  -->
<!DOCTYPE svg PUBLIC "-//W3C//DTD SVG 1.1//EN" "http://www.w3.org/Graphics/SVG/1.1/DTD/svg11.dtd">
<svg version="1.1" id="Capa_1" xmlns="http://www.w3.org/2000/svg" xmlns:xlink="http://www.w3.org/1999/xlink" x="0px" y="0px"
	 viewBox="0 0 56.001 56.001" style="enable-background:new 0 0 56.001 56.001;" xml:space="preserve">
<path style="fill:#61B872;" d="M45.561,19.618c-0.536-0.974-1.66-1.628-2.795-1.628c-1.017,0-1.922,0.512-2.485,1.402
	c-1.295,2.05-3.997,2.519-6.61,2.972c-0.775,0.135-1.577,0.273-2.318,0.453c-1.213,0.294-2.352,0.763-3.396,1.398
	c-0.154-0.272-0.311-0.531-0.47-0.78c-0.317-0.494-0.905-1.845-0.96-2.083c-0.014-2.178,2.265-3.67,4.469-5.112
	c1.001-0.656,1.947-1.275,2.717-1.974c2.493-2.266,3.442-5.822,2.36-8.851c-0.447-1.254-1.558-2.033-2.897-2.033
	c-1.032,0-2.012,0.48-2.558,1.255c-0.506,0.718-0.607,1.611-0.285,2.514c0.72,2.018-1.161,3.408-3.897,5.151
	c-0.586,0.374-1.14,0.727-1.615,1.081c-1.523,1.136-2.681,2.508-3.404,4.025c-3.261-2.759-6.106-5.488-5.382-9.663
	c0.421-2.426-1.844-6.901-2.234-7.366L13.469,0l-0.883,0.001l-0.293,0.293c-0.929,0.929-1.94,5.201-2.088,6.047
	c-1.219,7.021,3.112,11.201,7.302,15.244c3.941,3.805,7.664,7.398,6.444,13.197c-0.106,0.505-0.088,1.01,0.056,1.5l0.211,0.719
	h5.391l0.166-0.796c0.454-2.185,0.538-4.202,0.256-6.151c1.431-1.383,3.779-1.788,6.056-2.181c0.977-0.169,1.899-0.328,2.767-0.563
	c2.777-0.752,5.05-2.422,6.573-4.829C46.007,21.561,46.056,20.517,45.561,19.618z"/>
<line style="fill:none;stroke:#43B05C;stroke-width:2;stroke-linecap:round;stroke-miterlimit:10;" x1="15.639" y1="12.362" x2="21" y2="7.001"/>
<line style="fill:none;stroke:#43B05C;stroke-width:2;stroke-linecap:round;stroke-miterlimit:10;" x1="15.343" y1="18.001" x2="9" y2="18.001"/>
<line style="fill:none;stroke:#43B05C;stroke-width:2;stroke-linecap:round;stroke-miterlimit:10;" x1="34" y1="23.322" x2="34" y2="19.001"/>
<line style="fill:none;stroke:#43B05C;stroke-width:2;stroke-linecap:round;stroke-miterlimit:10;" x1="42.871" y1="24.001" x2="47" y2="27.001"/>
<line style="fill:none;stroke:#43B05C;stroke-width:2;stroke-linecap:round;stroke-miterlimit:10;" x1="43" y1="19.001" x2="43" y2="15.001"/>
<line style="fill:none;stroke:#43B05C;stroke-width:2;stroke-linecap:round;stroke-miterlimit:10;" x1="35" y1="11.001" x2="40" y2="11.001"/>
<line style="fill:none;stroke:#43B05C;stroke-width:2;stroke-linecap:round;stroke-miterlimit:10;" x1="35.509" y1="8.016" x2="40" y2="6.001"/>
<line style="fill:none;stroke:#43B05C;stroke-width:2;stroke-linecap:round;stroke-miterlimit:10;" x1="28.872" y1="11.872" x2="26" y2="9.001"/>
<line style="fill:none;stroke:#43B05C;stroke-width:2;stroke-linecap:round;stroke-miterlimit:10;" x1="22.922" y1="26.001" x2="17" y2="26.001"/>
<line style="fill:none;stroke:#43B05C;stroke-width:2;stroke-linecap:round;stroke-miterlimit:10;" x1="20" y1="31.001" x2="25.182" y2="33.001"/>
<line style="fill:none;stroke:#43B05C;stroke-width:2;stroke-linecap:round;stroke-miterlimit:10;" x1="29.106" y1="34.001" x2="34" y2="31.001"/>
<line style="fill:none;stroke:#43B05C;stroke-width:2;stroke-linecap:round;stroke-miterlimit:10;" x1="37.593" y1="26.593" x2="41" y2="30.001"/>
<line style="fill:none;stroke:#43B05C;stroke-width:2;stroke-linecap:round;stroke-miterlimit:10;" x1="44.9" y1="21.001" x2="49" y2="19.001"/>
<line style="fill:none;stroke:#43B05C;stroke-width:2;stroke-linecap:round;stroke-miterlimit:10;" x1="34" y1="4.542" x2="36" y2="1.001"/>
<line style="fill:none;stroke:#43B05C;stroke-width:2;stroke-linecap:round;stroke-miterlimit:10;" x1="31.152" y1="6.001" x2="27" y2="3.001"/>
<line style="fill:none;stroke:#43B05C;stroke-width:2;stroke-linecap:round;stroke-miterlimit:10;" x1="7" y1="2.001" x2="11.241" y2="6.242"/>
<rect x="13" y="36.001" style="fill:#6B4842;" width="28" height="6"/>
<polygon style="fill:#9E6C53;" points="35,56.001 19,56.001 15.385,42.001 38.616,42.001 "/>
<path style="fill:#CE9982;" d="M28,46.001h-6c-0.552,0-1-0.447-1-1s0.448-1,1-1h6c0.552,0,1,0.447,1,1S28.553,46.001,28,46.001z"/>
<path style="fill:#CE9982;" d="M31,46.001c-0.26,0-0.52-0.11-0.71-0.29c-0.18-0.19-0.29-0.45-0.29-0.71
	c0-0.271,0.11-0.521,0.29-0.71c0.38-0.37,1.05-0.36,1.42,0c0.18,0.18,0.29,0.439,0.29,0.71c0,0.26-0.11,0.52-0.29,0.71
	C31.521,45.891,31.26,46.001,31,46.001z"/>
<path style="fill:#CE9982;" d="M27,49.001h-2c-0.552,0-1-0.447-1-1s0.448-1,1-1h2c0.552,0,1,0.447,1,1S27.553,49.001,27,49.001z"/>
<path style="fill:#CE9982;" d="M22,49.001c-0.26,0-0.52-0.11-0.71-0.29c-0.18-0.19-0.29-0.44-0.29-0.71c0-0.26,0.11-0.521,0.29-0.71
	c0.38-0.37,1.05-0.37,1.42,0c0.18,0.189,0.29,0.45,0.29,0.71s-0.11,0.52-0.29,0.71C22.521,48.891,22.26,49.001,22,49.001z"/>
<g>
</g>
<g>
</g>
<g>
</g>
<g>
</g>
<g>
</g>
<g>
</g>
<g>
</g>
<g>
</g>
<g>
</g>
<g>
</g>
<g>
</g>
<g>
</g>
<g>
</g>
<g>
</g>
<g>
</g>
</svg>
