<?xml version="1.0" encoding="iso-8859-1"?>
<!-- Generator: Adobe Illustrator 18.0.0, SVG Export Plug-In . SVG Version: 6.00 Build 0)  -->
<!DOCTYPE svg PUBLIC "-//W3C//DTD SVG 1.1//EN" "http://www.w3.org/Graphics/SVG/1.1/DTD/svg11.dtd">
<svg version="1.1" id="Capa_1" xmlns="http://www.w3.org/2000/svg" xmlns:xlink="http://www.w3.org/1999/xlink" x="0px" y="0px"
	 viewBox="0 0 58 58" style="enable-background:new 0 0 58 58;" xml:space="preserve">
<rect y="4.5" style="fill:#D6D9DF;" width="58" height="46"/>
<rect x="3" y="50.5" style="fill:#556080;" width="4" height="3"/>
<rect x="51" y="50.5" style="fill:#556080;" width="4" height="3"/>
<rect x="4" y="40.5" style="fill:#7383BF;stroke:#556080;stroke-width:2;stroke-linecap:round;stroke-miterlimit:10;" width="50" height="6"/>
<rect x="4" y="8.5" style="fill:#7383BF;stroke:#556080;stroke-width:2;stroke-linecap:round;stroke-miterlimit:10;" width="50" height="12"/>
<line style="fill:#7383BF;stroke:#556080;stroke-width:2;stroke-linecap:round;stroke-miterlimit:10;" x1="4" y1="12.5" x2="54" y2="12.5"/>
<line style="fill:#7383BF;stroke:#556080;stroke-width:2;stroke-linecap:round;stroke-miterlimit:10;" x1="4" y1="16.5" x2="54" y2="16.5"/>
<line style="fill:#7383BF;stroke:#556080;stroke-width:2;stroke-linecap:round;stroke-miterlimit:10;" x1="4" y1="43.5" x2="54" y2="43.5"/>
<line style="fill:#7383BF;stroke:#556080;stroke-width:2;stroke-linecap:round;stroke-miterlimit:10;" x1="9" y1="40.5" x2="9" y2="46.5"/>
<line style="fill:#7383BF;stroke:#556080;stroke-width:2;stroke-linecap:round;stroke-miterlimit:10;" x1="14" y1="40.5" x2="14" y2="46.5"/>
<line style="fill:#7383BF;stroke:#556080;stroke-width:2;stroke-linecap:round;stroke-miterlimit:10;" x1="19" y1="40.5" x2="19" y2="46.5"/>
<line style="fill:#7383BF;stroke:#556080;stroke-width:2;stroke-linecap:round;stroke-miterlimit:10;" x1="24" y1="40.5" x2="24" y2="46.5"/>
<line style="fill:#7383BF;stroke:#556080;stroke-width:2;stroke-linecap:round;stroke-miterlimit:10;" x1="29" y1="40.5" x2="29" y2="46.5"/>
<line style="fill:#7383BF;stroke:#556080;stroke-width:2;stroke-linecap:round;stroke-miterlimit:10;" x1="34" y1="40.5" x2="34" y2="46.5"/>
<line style="fill:#7383BF;stroke:#556080;stroke-width:2;stroke-linecap:round;stroke-miterlimit:10;" x1="39" y1="40.5" x2="39" y2="46.5"/>
<line style="fill:#7383BF;stroke:#556080;stroke-width:2;stroke-linecap:round;stroke-miterlimit:10;" x1="44" y1="40.5" x2="44" y2="46.5"/>
<line style="fill:#7383BF;stroke:#556080;stroke-width:2;stroke-linecap:round;stroke-miterlimit:10;" x1="49" y1="40.5" x2="49" y2="46.5"/>
<line style="fill:#7383BF;stroke:#556080;stroke-width:2;stroke-linecap:round;stroke-miterlimit:10;" x1="9" y1="8.5" x2="9" y2="20.5"/>
<line style="fill:#7383BF;stroke:#556080;stroke-width:2;stroke-linecap:round;stroke-miterlimit:10;" x1="14" y1="8.5" x2="14" y2="20.5"/>
<line style="fill:#7383BF;stroke:#556080;stroke-width:2;stroke-linecap:round;stroke-miterlimit:10;" x1="19" y1="8.5" x2="19" y2="20.5"/>
<line style="fill:#7383BF;stroke:#556080;stroke-width:2;stroke-linecap:round;stroke-miterlimit:10;" x1="24" y1="8.5" x2="24" y2="20.5"/>
<line style="fill:#7383BF;stroke:#556080;stroke-width:2;stroke-linecap:round;stroke-miterlimit:10;" x1="29" y1="8.5" x2="29" y2="20.5"/>
<line style="fill:#7383BF;stroke:#556080;stroke-width:2;stroke-linecap:round;stroke-miterlimit:10;" x1="34" y1="8.5" x2="34" y2="20.5"/>
<line style="fill:#7383BF;stroke:#556080;stroke-width:2;stroke-linecap:round;stroke-miterlimit:10;" x1="39" y1="8.5" x2="39" y2="20.5"/>
<line style="fill:#7383BF;stroke:#556080;stroke-width:2;stroke-linecap:round;stroke-miterlimit:10;" x1="44" y1="8.5" x2="44" y2="20.5"/>
<line style="fill:#7383BF;stroke:#556080;stroke-width:2;stroke-linecap:round;stroke-miterlimit:10;" x1="49" y1="8.5" x2="49" y2="20.5"/>
<rect x="4" y="28.5" style="fill:#999A9F;" width="4" height="4"/>
<rect x="11" y="28.5" style="fill:#999A9F;" width="4" height="4"/>
<path style="fill:#999A9F;" d="M42.714,30.357c0-2.13-1.727-3.857-3.857-3.857S35,28.227,35,30.357c0,0.22,0.029,0.433,0.065,0.643
	C35.029,31.21,35,31.423,35,31.643c0,2.13,1.727,3.857,3.857,3.857s3.857-1.727,3.857-3.857c0-0.22-0.029-0.433-0.065-0.643
	C42.685,30.79,42.714,30.577,42.714,30.357z"/>
<circle style="fill:#C2C4C8;" cx="38.857" cy="30.357" r="3.857"/>
<line style="fill:none;stroke:#FFFFFF;stroke-width:2;stroke-miterlimit:10;" x1="38.857" y1="30.515" x2="40.789" y2="28.5"/>
<path style="fill:#999A9F;" d="M54.714,30.357c0-2.13-1.727-3.857-3.857-3.857S47,28.227,47,30.357c0,0.22,0.029,0.433,0.065,0.643
	C47.029,31.21,47,31.423,47,31.643c0,2.13,1.727,3.857,3.857,3.857s3.857-1.727,3.857-3.857c0-0.22-0.029-0.433-0.065-0.643
	C54.685,30.79,54.714,30.577,54.714,30.357z"/>
<circle style="fill:#C2C4C8;" cx="50.857" cy="30.357" r="3.857"/>
<line style="fill:none;stroke:#FFFFFF;stroke-width:2;stroke-miterlimit:10;" x1="50.857" y1="30.515" x2="52.789" y2="28.5"/>
<g>
</g>
<g>
</g>
<g>
</g>
<g>
</g>
<g>
</g>
<g>
</g>
<g>
</g>
<g>
</g>
<g>
</g>
<g>
</g>
<g>
</g>
<g>
</g>
<g>
</g>
<g>
</g>
<g>
</g>
</svg>
