<?xml version="1.0" encoding="iso-8859-1"?>
<!-- Generator: Adobe Illustrator 18.0.0, SVG Export Plug-In . SVG Version: 6.00 Build 0)  -->
<!DOCTYPE svg PUBLIC "-//W3C//DTD SVG 1.1//EN" "http://www.w3.org/Graphics/SVG/1.1/DTD/svg11.dtd">
<svg version="1.1" id="Capa_1" xmlns="http://www.w3.org/2000/svg" xmlns:xlink="http://www.w3.org/1999/xlink" x="0px" y="0px"
	 viewBox="0 0 59 59" style="enable-background:new 0 0 59 59;" xml:space="preserve">
<line style="fill:none;stroke:#949493;stroke-width:2;stroke-linecap:round;stroke-miterlimit:10;" x1="52" y1="12.5" x2="54" y2="12.5"/>
<rect y="10.5" style="fill:#C7CAC7;" width="3" height="5"/>
<rect y="43.5" style="fill:#C7CAC7;" width="3" height="5"/>
<rect x="49" y="9.5" style="fill:#C7CAC7;" width="3" height="6"/>
<rect x="49" y="43.5" style="fill:#C7CAC7;" width="3" height="5"/>
<path style="fill:none;stroke:#949493;stroke-width:2;stroke-linecap:round;stroke-miterlimit:10;" d="M56.5,15.5L56.5,15.5
	c-0.828,0-1.5-0.672-1.5-1.5v-3c0-0.828,0.672-1.5,1.5-1.5l0,0c0.828,0,1.5,0.672,1.5,1.5v3C58,14.828,57.328,15.5,56.5,15.5z"/>
<rect x="52" y="44.5" style="fill:#949493;" width="6" height="3"/>
<path style="fill:#949493;" d="M46,4.5c-1.657,0-3,1.343-3,3v1c0,1.104-0.895,2-2,2s-2-0.896-2-2v-1c0-1.657-1.343-3-3-3
	s-3,1.343-3,3v1c0,1.104-0.895,2-2,2s-2-0.896-2-2v-1c0-1.657-1.343-3-3-3s-3,1.343-3,3v1c0,1.104-0.895,2-2,2s-2-0.896-2-2v-1
	c0-1.657-1.343-3-3-3s-3,1.343-3,3v1c0,1.104-0.895,2-2,2s-2-0.896-2-2v-1c0-1.657-1.343-3-3-3s-3,1.343-3,3v3v6v26v6v3
	c0,1.657,1.343,3,3,3s3-1.343,3-3v-1c0-1.105,0.895-2,2-2s2,0.895,2,2v1c0,1.657,1.343,3,3,3s3-1.343,3-3v-1c0-1.105,0.895-2,2-2
	s2,0.895,2,2v1c0,1.657,1.343,3,3,3s3-1.343,3-3v-1c0-1.105,0.895-2,2-2s2,0.895,2,2v1c0,1.657,1.343,3,3,3s3-1.343,3-3v-1
	c0-1.105,0.895-2,2-2s2,0.895,2,2v1c0,1.657,1.343,3,3,3s3-1.343,3-3v-44C49,5.843,47.657,4.5,46,4.5z M13,42.5c0,1.104-0.895,2-2,2
	s-2-0.896-2-2v-26c0-1.104,0.895-2,2-2s2,0.896,2,2V42.5z M23,42.5c0,1.104-0.895,2-2,2s-2-0.896-2-2v-26c0-1.104,0.895-2,2-2
	s2,0.896,2,2V42.5z M33,42.5c0,1.104-0.895,2-2,2s-2-0.896-2-2v-26c0-1.104,0.895-2,2-2s2,0.896,2,2V42.5z M43,42.5
	c0,1.104-0.895,2-2,2s-2-0.896-2-2v-26c0-1.104,0.895-2,2-2s2,0.896,2,2V42.5z"/>
<g>
</g>
<g>
</g>
<g>
</g>
<g>
</g>
<g>
</g>
<g>
</g>
<g>
</g>
<g>
</g>
<g>
</g>
<g>
</g>
<g>
</g>
<g>
</g>
<g>
</g>
<g>
</g>
<g>
</g>
</svg>
