<?xml version="1.0" encoding="iso-8859-1"?>
<!-- Generator: Adobe Illustrator 18.0.0, SVG Export Plug-In . SVG Version: 6.00 Build 0)  -->
<!DOCTYPE svg PUBLIC "-//W3C//DTD SVG 1.1//EN" "http://www.w3.org/Graphics/SVG/1.1/DTD/svg11.dtd">
<svg version="1.1" id="Capa_1" xmlns="http://www.w3.org/2000/svg" xmlns:xlink="http://www.w3.org/1999/xlink" x="0px" y="0px"
	 viewBox="0 0 58 58" style="enable-background:new 0 0 58 58;" xml:space="preserve">
<rect y="4.5" style="fill:#D6D9DF;" width="58" height="46"/>
<rect x="3" y="50.5" style="fill:#556080;" width="4" height="3"/>
<rect x="51" y="50.5" style="fill:#556080;" width="4" height="3"/>
<rect x="3" y="7.5" style="fill:#556080;stroke:#38454F;stroke-width:2;stroke-linecap:round;stroke-miterlimit:10;" width="8" height="15"/>
<rect x="14" y="7.5" style="fill:#556080;stroke:#38454F;stroke-width:2;stroke-linecap:round;stroke-miterlimit:10;" width="8" height="15"/>
<rect x="25" y="7.5" style="fill:#556080;stroke:#38454F;stroke-width:2;stroke-linecap:round;stroke-miterlimit:10;" width="8" height="15"/>
<rect x="36" y="7.5" style="fill:#556080;stroke:#38454F;stroke-width:2;stroke-linecap:round;stroke-miterlimit:10;" width="8" height="15"/>
<rect x="47" y="7.5" style="fill:#556080;stroke:#38454F;stroke-width:2;stroke-linecap:round;stroke-miterlimit:10;" width="8" height="15"/>
<line style="fill:none;stroke:#38454F;stroke-width:2;stroke-linecap:round;stroke-miterlimit:10;" x1="6" y1="10.5" x2="8" y2="10.5"/>
<line style="fill:none;stroke:#38454F;stroke-width:2;stroke-linecap:round;stroke-miterlimit:10;" x1="6" y1="13.5" x2="8" y2="13.5"/>
<line style="fill:none;stroke:#38454F;stroke-width:2;stroke-linecap:round;stroke-miterlimit:10;" x1="6" y1="16.5" x2="8" y2="16.5"/>
<line style="fill:none;stroke:#38454F;stroke-width:2;stroke-linecap:round;stroke-miterlimit:10;" x1="6" y1="19.5" x2="8" y2="19.5"/>
<line style="fill:none;stroke:#38454F;stroke-width:2;stroke-linecap:round;stroke-miterlimit:10;" x1="17" y1="10.5" x2="19" y2="10.5"/>
<line style="fill:none;stroke:#38454F;stroke-width:2;stroke-linecap:round;stroke-miterlimit:10;" x1="17" y1="13.5" x2="19" y2="13.5"/>
<line style="fill:none;stroke:#38454F;stroke-width:2;stroke-linecap:round;stroke-miterlimit:10;" x1="17" y1="16.5" x2="19" y2="16.5"/>
<line style="fill:none;stroke:#38454F;stroke-width:2;stroke-linecap:round;stroke-miterlimit:10;" x1="17" y1="19.5" x2="19" y2="19.5"/>
<line style="fill:none;stroke:#38454F;stroke-width:2;stroke-linecap:round;stroke-miterlimit:10;" x1="28" y1="10.5" x2="30" y2="10.5"/>
<line style="fill:none;stroke:#38454F;stroke-width:2;stroke-linecap:round;stroke-miterlimit:10;" x1="28" y1="13.5" x2="30" y2="13.5"/>
<line style="fill:none;stroke:#38454F;stroke-width:2;stroke-linecap:round;stroke-miterlimit:10;" x1="28" y1="16.5" x2="30" y2="16.5"/>
<line style="fill:none;stroke:#38454F;stroke-width:2;stroke-linecap:round;stroke-miterlimit:10;" x1="28" y1="19.5" x2="30" y2="19.5"/>
<line style="fill:none;stroke:#38454F;stroke-width:2;stroke-linecap:round;stroke-miterlimit:10;" x1="39" y1="10.5" x2="41" y2="10.5"/>
<line style="fill:none;stroke:#38454F;stroke-width:2;stroke-linecap:round;stroke-miterlimit:10;" x1="39" y1="13.5" x2="41" y2="13.5"/>
<line style="fill:none;stroke:#38454F;stroke-width:2;stroke-linecap:round;stroke-miterlimit:10;" x1="39" y1="16.5" x2="41" y2="16.5"/>
<line style="fill:none;stroke:#38454F;stroke-width:2;stroke-linecap:round;stroke-miterlimit:10;" x1="39" y1="19.5" x2="41" y2="19.5"/>
<line style="fill:none;stroke:#38454F;stroke-width:2;stroke-linecap:round;stroke-miterlimit:10;" x1="50" y1="10.5" x2="52" y2="10.5"/>
<line style="fill:none;stroke:#38454F;stroke-width:2;stroke-linecap:round;stroke-miterlimit:10;" x1="50" y1="13.5" x2="52" y2="13.5"/>
<line style="fill:none;stroke:#38454F;stroke-width:2;stroke-linecap:round;stroke-miterlimit:10;" x1="50" y1="16.5" x2="52" y2="16.5"/>
<line style="fill:none;stroke:#38454F;stroke-width:2;stroke-linecap:round;stroke-miterlimit:10;" x1="50" y1="19.5" x2="52" y2="19.5"/>
<rect x="44" y="43.5" style="fill:#556080;" width="4" height="4"/>
<rect x="51" y="43.5" style="fill:#556080;" width="4" height="4"/>
<g>
</g>
<g>
</g>
<g>
</g>
<g>
</g>
<g>
</g>
<g>
</g>
<g>
</g>
<g>
</g>
<g>
</g>
<g>
</g>
<g>
</g>
<g>
</g>
<g>
</g>
<g>
</g>
<g>
</g>
</svg>
