<?xml version="1.0" encoding="iso-8859-1"?>
<!-- Generator: Adobe Illustrator 18.0.0, SVG Export Plug-In . SVG Version: 6.00 Build 0)  -->
<!DOCTYPE svg PUBLIC "-//W3C//DTD SVG 1.1//EN" "http://www.w3.org/Graphics/SVG/1.1/DTD/svg11.dtd">
<svg version="1.1" id="Capa_1" xmlns="http://www.w3.org/2000/svg" xmlns:xlink="http://www.w3.org/1999/xlink" x="0px" y="0px"
	 viewBox="0 0 59 59" style="enable-background:new 0 0 59 59;" xml:space="preserve">
<line style="fill:none;stroke:#C7CAC7;stroke-width:2;stroke-linecap:round;stroke-miterlimit:10;" x1="55" y1="14.5" x2="58" y2="14.5"/>
<line style="fill:none;stroke:#C7CAC7;stroke-width:2;stroke-linecap:round;stroke-miterlimit:10;" x1="58" y1="12.5" x2="58" y2="16.5"/>
<line style="fill:none;stroke:#C7CAC7;stroke-width:2;stroke-linecap:round;stroke-miterlimit:10;" x1="55" y1="47.5" x2="58" y2="47.5"/>
<rect y="7.5" style="fill:#C7CAC7;" width="4" height="44"/>
<rect x="48" y="7.5" style="fill:#C7CAC7;" width="4" height="44"/>
<path style="fill:#C7CAC7;" d="M10,51.5L10,51.5c-1.105,0-2-0.895-2-2v-40c0-1.105,0.895-2,2-2h0c1.105,0,2,0.895,2,2v40
	C12,50.605,11.105,51.5,10,51.5z"/>
<path style="fill:#C7CAC7;" d="M18,51.5L18,51.5c-1.105,0-2-0.895-2-2v-40c0-1.105,0.895-2,2-2h0c1.105,0,2,0.895,2,2v40
	C20,50.605,19.105,51.5,18,51.5z"/>
<path style="fill:#C7CAC7;" d="M26,51.5L26,51.5c-1.105,0-2-0.895-2-2v-40c0-1.105,0.895-2,2-2h0c1.105,0,2,0.895,2,2v40
	C28,50.605,27.105,51.5,26,51.5z"/>
<path style="fill:#C7CAC7;" d="M34,51.5L34,51.5c-1.105,0-2-0.895-2-2v-40c0-1.105,0.895-2,2-2h0c1.105,0,2,0.895,2,2v40
	C36,50.605,35.105,51.5,34,51.5z"/>
<path style="fill:#C7CAC7;" d="M42,51.5L42,51.5c-1.105,0-2-0.895-2-2v-40c0-1.105,0.895-2,2-2h0c1.105,0,2,0.895,2,2v40
	C44,50.605,43.105,51.5,42,51.5z"/>
<g>
	<rect x="12" y="11.5" style="fill:#949493;" width="4" height="36"/>
	<rect x="28" y="11.5" style="fill:#949493;" width="4" height="36"/>
	<rect x="20" y="11.5" style="fill:#949493;" width="4" height="36"/>
	<rect x="36" y="11.5" style="fill:#949493;" width="4" height="36"/>
	<rect x="44" y="11.5" style="fill:#949493;" width="4" height="36"/>
	<rect x="4" y="11.5" style="fill:#949493;" width="4" height="36"/>
</g>
<rect x="52" y="11.5" style="fill:#949493;" width="3" height="6"/>
<rect x="52" y="44.5" style="fill:#949493;" width="3" height="6"/>
<g>
</g>
<g>
</g>
<g>
</g>
<g>
</g>
<g>
</g>
<g>
</g>
<g>
</g>
<g>
</g>
<g>
</g>
<g>
</g>
<g>
</g>
<g>
</g>
<g>
</g>
<g>
</g>
<g>
</g>
</svg>
