<?xml version="1.0" encoding="iso-8859-1"?>
<!-- Generator: Adobe Illustrator 18.0.0, SVG Export Plug-In . SVG Version: 6.00 Build 0)  -->
<!DOCTYPE svg PUBLIC "-//W3C//DTD SVG 1.1//EN" "http://www.w3.org/Graphics/SVG/1.1/DTD/svg11.dtd">
<svg version="1.1" id="Capa_1" xmlns="http://www.w3.org/2000/svg" xmlns:xlink="http://www.w3.org/1999/xlink" x="0px" y="0px"
	 viewBox="0 0 58 58" style="enable-background:new 0 0 58 58;" xml:space="preserve">
<rect x="3" y="1.5" style="fill:#C7CAC7;" width="8" height="55"/>
<rect x="14" y="1.5" style="fill:#C7CAC7;" width="8" height="55"/>
<rect x="25" y="1.5" style="fill:#C7CAC7;" width="8" height="55"/>
<rect x="36" y="1.5" style="fill:#C7CAC7;" width="8" height="55"/>
<rect x="47" y="1.5" style="fill:#C7CAC7;" width="8" height="55"/>
<g>
	<rect x="11" y="46.5" style="fill:#949493;" width="3" height="7"/>
	<rect x="22" y="46.5" style="fill:#949493;" width="3" height="7"/>
	<rect x="33" y="46.5" style="fill:#949493;" width="3" height="7"/>
	<rect x="44" y="46.5" style="fill:#949493;" width="3" height="7"/>
	<rect y="46.5" style="fill:#949493;" width="3" height="7"/>
	<rect x="55" y="46.5" style="fill:#949493;" width="3" height="7"/>
</g>
<g>
	<rect x="11" y="4.5" style="fill:#949493;" width="3" height="7"/>
	<rect x="22" y="4.5" style="fill:#949493;" width="3" height="7"/>
	<rect x="33" y="4.5" style="fill:#949493;" width="3" height="7"/>
	<rect y="4.5" style="fill:#949493;" width="3" height="7"/>
	<rect x="44" y="4.5" style="fill:#949493;" width="3" height="7"/>
	<rect x="55" y="4.5" style="fill:#949493;" width="3" height="7"/>
</g>
<g>
</g>
<g>
</g>
<g>
</g>
<g>
</g>
<g>
</g>
<g>
</g>
<g>
</g>
<g>
</g>
<g>
</g>
<g>
</g>
<g>
</g>
<g>
</g>
<g>
</g>
<g>
</g>
<g>
</g>
</svg>
