<?xml version="1.0" encoding="iso-8859-1"?>
<!-- Generator: Adobe Illustrator 18.0.0, SVG Export Plug-In . SVG Version: 6.00 Build 0)  -->
<!DOCTYPE svg PUBLIC "-//W3C//DTD SVG 1.1//EN" "http://www.w3.org/Graphics/SVG/1.1/DTD/svg11.dtd">
<svg version="1.1" id="Capa_1" xmlns="http://www.w3.org/2000/svg" xmlns:xlink="http://www.w3.org/1999/xlink" x="0px" y="0px"
	 viewBox="0 0 58 58" style="enable-background:new 0 0 58 58;" xml:space="preserve">
<path style="fill:#949493;" d="M56.019,54.5H1.981C0.887,54.5,0,53.613,0,52.519v-6.038C0,45.387,0.887,44.5,1.981,44.5h54.038
	c1.094,0,1.981,0.887,1.981,1.981v6.038C58,53.613,57.113,54.5,56.019,54.5z"/>
<rect x="5" y="54.5" style="fill:#556080;" width="6" height="3"/>
<rect x="47" y="54.5" style="fill:#556080;" width="6" height="3"/>
<rect x="11" y="40.5" style="fill:#C7CAC7;" width="6" height="4"/>
<rect x="40" y="40.5" style="fill:#C7CAC7;" width="6" height="4"/>
<path style="fill:#556080;" d="M39.62,0.5H18.38C8.229,0.5,0,8.729,0,18.88v19.307C0,39.464,1.035,40.5,2.313,40.5h53.374
	c1.277,0,2.313-1.036,2.313-2.313V18.88C58,8.729,49.771,0.5,39.62,0.5z M37,7.5H21c-1.1,0-2-0.9-2-2s0.9-2,2-2h16c1.1,0,2,0.9,2,2
	S38.1,7.5,37,7.5z"/>
<line style="fill:none;stroke:#38454F;stroke-width:2;stroke-linecap:round;stroke-linejoin:round;stroke-miterlimit:10;" x1="8" y1="13.5" x2="11" y2="13.5"/>
<line style="fill:none;stroke:#38454F;stroke-width:2;stroke-linecap:round;stroke-linejoin:round;stroke-miterlimit:10;" x1="15" y1="13.5" x2="18" y2="13.5"/>
<line style="fill:none;stroke:#38454F;stroke-width:2;stroke-linecap:round;stroke-linejoin:round;stroke-miterlimit:10;" x1="22" y1="13.5" x2="25" y2="13.5"/>
<line style="fill:none;stroke:#38454F;stroke-width:2;stroke-linecap:round;stroke-linejoin:round;stroke-miterlimit:10;" x1="33" y1="13.5" x2="36" y2="13.5"/>
<line style="fill:none;stroke:#38454F;stroke-width:2;stroke-linecap:round;stroke-linejoin:round;stroke-miterlimit:10;" x1="40" y1="13.5" x2="43" y2="13.5"/>
<line style="fill:none;stroke:#38454F;stroke-width:2;stroke-linecap:round;stroke-linejoin:round;stroke-miterlimit:10;" x1="47" y1="13.5" x2="50" y2="13.5"/>
<line style="fill:none;stroke:#38454F;stroke-width:2;stroke-linecap:round;stroke-linejoin:round;stroke-miterlimit:10;" x1="8" y1="17.5" x2="11" y2="17.5"/>
<line style="fill:none;stroke:#38454F;stroke-width:2;stroke-linecap:round;stroke-linejoin:round;stroke-miterlimit:10;" x1="15" y1="17.5" x2="18" y2="17.5"/>
<line style="fill:none;stroke:#38454F;stroke-width:2;stroke-linecap:round;stroke-linejoin:round;stroke-miterlimit:10;" x1="22" y1="17.5" x2="25" y2="17.5"/>
<line style="fill:none;stroke:#38454F;stroke-width:2;stroke-linecap:round;stroke-linejoin:round;stroke-miterlimit:10;" x1="33" y1="17.5" x2="36" y2="17.5"/>
<line style="fill:none;stroke:#38454F;stroke-width:2;stroke-linecap:round;stroke-linejoin:round;stroke-miterlimit:10;" x1="40" y1="17.5" x2="43" y2="17.5"/>
<line style="fill:none;stroke:#38454F;stroke-width:2;stroke-linecap:round;stroke-linejoin:round;stroke-miterlimit:10;" x1="47" y1="17.5" x2="50" y2="17.5"/>
<line style="fill:none;stroke:#38454F;stroke-width:2;stroke-linecap:round;stroke-linejoin:round;stroke-miterlimit:10;" x1="8" y1="21.5" x2="11" y2="21.5"/>
<line style="fill:none;stroke:#38454F;stroke-width:2;stroke-linecap:round;stroke-linejoin:round;stroke-miterlimit:10;" x1="15" y1="21.5" x2="18" y2="21.5"/>
<line style="fill:none;stroke:#38454F;stroke-width:2;stroke-linecap:round;stroke-linejoin:round;stroke-miterlimit:10;" x1="22" y1="21.5" x2="25" y2="21.5"/>
<line style="fill:none;stroke:#38454F;stroke-width:2;stroke-linecap:round;stroke-linejoin:round;stroke-miterlimit:10;" x1="33" y1="21.5" x2="36" y2="21.5"/>
<line style="fill:none;stroke:#38454F;stroke-width:2;stroke-linecap:round;stroke-linejoin:round;stroke-miterlimit:10;" x1="40" y1="21.5" x2="43" y2="21.5"/>
<line style="fill:none;stroke:#38454F;stroke-width:2;stroke-linecap:round;stroke-linejoin:round;stroke-miterlimit:10;" x1="47" y1="21.5" x2="50" y2="21.5"/>
<line style="fill:none;stroke:#38454F;stroke-width:2;stroke-linecap:round;stroke-linejoin:round;stroke-miterlimit:10;" x1="8" y1="27.5" x2="11" y2="27.5"/>
<line style="fill:none;stroke:#38454F;stroke-width:2;stroke-linecap:round;stroke-linejoin:round;stroke-miterlimit:10;" x1="15" y1="27.5" x2="18" y2="27.5"/>
<line style="fill:none;stroke:#38454F;stroke-width:2;stroke-linecap:round;stroke-linejoin:round;stroke-miterlimit:10;" x1="22" y1="27.5" x2="25" y2="27.5"/>
<line style="fill:none;stroke:#38454F;stroke-width:2;stroke-linecap:round;stroke-linejoin:round;stroke-miterlimit:10;" x1="33" y1="27.5" x2="36" y2="27.5"/>
<line style="fill:none;stroke:#38454F;stroke-width:2;stroke-linecap:round;stroke-linejoin:round;stroke-miterlimit:10;" x1="40" y1="27.5" x2="43" y2="27.5"/>
<line style="fill:none;stroke:#38454F;stroke-width:2;stroke-linecap:round;stroke-linejoin:round;stroke-miterlimit:10;" x1="47" y1="27.5" x2="50" y2="27.5"/>
<line style="fill:none;stroke:#38454F;stroke-width:2;stroke-linecap:round;stroke-linejoin:round;stroke-miterlimit:10;" x1="8" y1="31.5" x2="11" y2="31.5"/>
<line style="fill:none;stroke:#38454F;stroke-width:2;stroke-linecap:round;stroke-linejoin:round;stroke-miterlimit:10;" x1="15" y1="31.5" x2="18" y2="31.5"/>
<line style="fill:none;stroke:#38454F;stroke-width:2;stroke-linecap:round;stroke-linejoin:round;stroke-miterlimit:10;" x1="22" y1="31.5" x2="25" y2="31.5"/>
<line style="fill:none;stroke:#38454F;stroke-width:2;stroke-linecap:round;stroke-linejoin:round;stroke-miterlimit:10;" x1="33" y1="31.5" x2="36" y2="31.5"/>
<line style="fill:none;stroke:#38454F;stroke-width:2;stroke-linecap:round;stroke-linejoin:round;stroke-miterlimit:10;" x1="40" y1="31.5" x2="43" y2="31.5"/>
<line style="fill:none;stroke:#38454F;stroke-width:2;stroke-linecap:round;stroke-linejoin:round;stroke-miterlimit:10;" x1="47" y1="31.5" x2="50" y2="31.5"/>
<line style="fill:none;stroke:#38454F;stroke-width:2;stroke-linecap:round;stroke-linejoin:round;stroke-miterlimit:10;" x1="8" y1="35.5" x2="11" y2="35.5"/>
<line style="fill:none;stroke:#38454F;stroke-width:2;stroke-linecap:round;stroke-linejoin:round;stroke-miterlimit:10;" x1="15" y1="35.5" x2="18" y2="35.5"/>
<line style="fill:none;stroke:#38454F;stroke-width:2;stroke-linecap:round;stroke-linejoin:round;stroke-miterlimit:10;" x1="22" y1="35.5" x2="25" y2="35.5"/>
<line style="fill:none;stroke:#38454F;stroke-width:2;stroke-linecap:round;stroke-linejoin:round;stroke-miterlimit:10;" x1="33" y1="35.5" x2="36" y2="35.5"/>
<line style="fill:none;stroke:#38454F;stroke-width:2;stroke-linecap:round;stroke-linejoin:round;stroke-miterlimit:10;" x1="40" y1="35.5" x2="43" y2="35.5"/>
<line style="fill:none;stroke:#38454F;stroke-width:2;stroke-linecap:round;stroke-linejoin:round;stroke-miterlimit:10;" x1="47" y1="35.5" x2="50" y2="35.5"/>
<g>
</g>
<g>
</g>
<g>
</g>
<g>
</g>
<g>
</g>
<g>
</g>
<g>
</g>
<g>
</g>
<g>
</g>
<g>
</g>
<g>
</g>
<g>
</g>
<g>
</g>
<g>
</g>
<g>
</g>
</svg>
