<?xml version="1.0" encoding="iso-8859-1"?>
<!-- Generator: Adobe Illustrator 18.0.0, SVG Export Plug-In . SVG Version: 6.00 Build 0)  -->
<!DOCTYPE svg PUBLIC "-//W3C//DTD SVG 1.1//EN" "http://www.w3.org/Graphics/SVG/1.1/DTD/svg11.dtd">
<svg version="1.1" id="Capa_1" xmlns="http://www.w3.org/2000/svg" xmlns:xlink="http://www.w3.org/1999/xlink" x="0px" y="0px"
	 viewBox="0 0 58 58" style="enable-background:new 0 0 58 58;" xml:space="preserve">
<line style="fill:none;stroke:#E7ECED;stroke-width:2;stroke-linecap:round;stroke-linejoin:round;stroke-miterlimit:10;" x1="13" y1="37" x2="13" y2="40"/>
<path style="fill:#AA9683;" d="M32,19v25H4.673C2.092,44,0,46.092,0,48.673l0,4.655C0,55.908,2.092,58,4.673,58H38h14V44V19H32z"/>
<polygon style="fill:#DAC8B5;" points="52,3 22,3 3,3 3,19 3,24 22,24 22,19 52,19 "/>
<rect x="52" y="13" style="fill:#556080;" width="6" height="12"/>
<rect x="3" y="3" style="fill:#AA9683;" width="6" height="15"/>
<rect x="40" style="fill:#556080;" width="5" height="3"/>
<rect x="31" style="fill:#556080;" width="5" height="3"/>
<rect x="11" y="24" style="fill:#556080;" width="4" height="10"/>
<path style="fill:#839594;" d="M16.5,37h-7C8.672,37,8,36.328,8,35.5l0,0C8,34.672,8.672,34,9.5,34h7c0.828,0,1.5,0.672,1.5,1.5l0,0
	C18,36.328,17.328,37,16.5,37z"/>
<g>
	<circle style="fill:#4F443B;" cx="42" cy="29" r="6"/>
	<path style="fill:#4F443B;" d="M42,36c-3.859,0-7-3.141-7-7s3.141-7,7-7s7,3.141,7,7S45.859,36,42,36z M42,24c-2.757,0-5,2.243-5,5
		s2.243,5,5,5s5-2.243,5-5S44.757,24,42,24z"/>
</g>
<g>
	<path style="fill:#5E534B;" d="M42,22c-0.553,0-1,0.447-1,1v2c0,0.553,0.447,1,1,1s1-0.447,1-1v-2C43,22.447,42.553,22,42,22z"/>
	<path style="fill:#5E534B;" d="M42,32c-0.553,0-1,0.447-1,1v2c0,0.553,0.447,1,1,1s1-0.447,1-1v-2C43,32.447,42.553,32,42,32z"/>
	<path style="fill:#5E534B;" d="M48,28h-2c-0.553,0-1,0.447-1,1s0.447,1,1,1h2c0.553,0,1-0.447,1-1S48.553,28,48,28z"/>
	<path style="fill:#5E534B;" d="M39,29c0-0.553-0.447-1-1-1h-2c-0.553,0-1,0.447-1,1s0.447,1,1,1h2C38.553,30,39,29.553,39,29z"/>
	<path style="fill:#5E534B;" d="M44.828,27.172c0.256,0,0.512-0.098,0.707-0.293l1.414-1.414c0.391-0.391,0.391-1.023,0-1.414
		s-1.023-0.391-1.414,0l-1.414,1.414c-0.391,0.391-0.391,1.023,0,1.414C44.316,27.074,44.572,27.172,44.828,27.172z"/>
	<path style="fill:#5E534B;" d="M38.465,31.121l-1.414,1.414c-0.391,0.391-0.391,1.023,0,1.414c0.195,0.195,0.451,0.293,0.707,0.293
		s0.512-0.098,0.707-0.293l1.414-1.414c0.391-0.391,0.391-1.023,0-1.414S38.855,30.73,38.465,31.121z"/>
	<path style="fill:#5E534B;" d="M45.535,31.121c-0.391-0.391-1.023-0.391-1.414,0s-0.391,1.023,0,1.414l1.414,1.414
		c0.195,0.195,0.451,0.293,0.707,0.293s0.512-0.098,0.707-0.293c0.391-0.391,0.391-1.023,0-1.414L45.535,31.121z"/>
	<path style="fill:#5E534B;" d="M38.465,24.051c-0.391-0.391-1.023-0.391-1.414,0s-0.391,1.023,0,1.414l1.414,1.414
		c0.195,0.195,0.451,0.293,0.707,0.293s0.512-0.098,0.707-0.293c0.391-0.391,0.391-1.023,0-1.414L38.465,24.051z"/>
</g>
<path style="fill:#4F443B;" d="M38,41h-2c-0.553,0-1-0.447-1-1s0.447-1,1-1h2c0.553,0,1,0.447,1,1S38.553,41,38,41z"/>
<path style="fill:#4F443B;" d="M38,44h-2c-0.553,0-1-0.447-1-1s0.447-1,1-1h2c0.553,0,1,0.447,1,1S38.553,44,38,44z"/>
<path style="fill:#4F443B;" d="M48,41h-2c-0.553,0-1-0.447-1-1s0.447-1,1-1h2c0.553,0,1,0.447,1,1S48.553,41,48,41z"/>
<path style="fill:#4F443B;" d="M48,44h-2c-0.553,0-1-0.447-1-1s0.447-1,1-1h2c0.553,0,1,0.447,1,1S48.553,44,48,44z"/>
<path style="fill:#4F443B;" d="M43,41h-2c-0.553,0-1-0.447-1-1s0.447-1,1-1h2c0.553,0,1,0.447,1,1S43.553,41,43,41z"/>
<path style="fill:#4F443B;" d="M43,44h-2c-0.553,0-1-0.447-1-1s0.447-1,1-1h2c0.553,0,1,0.447,1,1S43.553,44,43,44z"/>
<rect x="6" y="44" style="fill:#E7ECED;" width="14" height="4"/>
<path style="fill:#38454F;" d="M58,15h-3c-0.553,0-1,0.447-1,1s0.447,1,1,1h3V15z"/>
<path style="fill:#38454F;" d="M58,18h-3c-0.553,0-1,0.447-1,1s0.447,1,1,1h3V18z"/>
<path style="fill:#38454F;" d="M58,21h-3c-0.553,0-1,0.447-1,1s0.447,1,1,1h3V21z"/>
<g>
</g>
<g>
</g>
<g>
</g>
<g>
</g>
<g>
</g>
<g>
</g>
<g>
</g>
<g>
</g>
<g>
</g>
<g>
</g>
<g>
</g>
<g>
</g>
<g>
</g>
<g>
</g>
<g>
</g>
</svg>
