<?xml version="1.0" encoding="iso-8859-1"?>
<!-- Generator: Adobe Illustrator 18.0.0, SVG Export Plug-In . SVG Version: 6.00 Build 0)  -->
<!DOCTYPE svg PUBLIC "-//W3C//DTD SVG 1.1//EN" "http://www.w3.org/Graphics/SVG/1.1/DTD/svg11.dtd">
<svg version="1.1" id="Capa_1" xmlns="http://www.w3.org/2000/svg" xmlns:xlink="http://www.w3.org/1999/xlink" x="0px" y="0px"
	 viewBox="0 0 60 60" style="enable-background:new 0 0 60 60;" xml:space="preserve">
<path style="fill:none;stroke:#E7ECED;stroke-width:2;stroke-linecap:round;stroke-miterlimit:10;" d="M48.305,57.594
	c0-3.71,1.844-13.563-2.24-15.594"/>
<line style="fill:none;stroke:#556080;stroke-width:2;stroke-linecap:round;stroke-miterlimit:10;" x1="53.72" y1="1" x2="53.72" y2="59"/>
<rect x="32.113" y="28.686" transform="matrix(0.7071 -0.7071 0.7071 0.7071 -11.8283 34.8165)" style="fill:#7383BF;" width="8" height="6"/>
<rect x="49.72" y="8" style="fill:#363E4B;" width="4" height="20"/>
<rect x="28.103" y="20.176" transform="matrix(0.7071 -0.7071 0.7071 0.7071 -9.3388 28.8061)" style="fill:#D6D9DF;" width="4" height="11"/>
<rect x="40.123" y="32.197" transform="matrix(0.7071 -0.7071 0.7071 0.7071 -14.3179 40.8269)" style="fill:#D6D9DF;" width="4" height="11"/>
<path style="fill:#A6AFAE;" d="M25.506,16.837l-4.243,4.243c-1.562,1.562-4.095,1.562-5.657,0l-9.155-9.155
	c-1.562-1.562-1.562-4.095,0-5.657l4.243-4.243L25.506,16.837z"/>
<path style="fill:#7383BF;" d="M21.264,21.08L21.264,21.08c-1.562,1.562-4.095,1.562-5.657,0l-9.155-9.155
	c-1.562-1.562-1.562-4.095,0-5.657l0,0L21.264,21.08z"/>
<polygon style="fill:#C7CAC7;" points="49.72,15.251 37.527,27.444 40.356,30.272 49.72,20.908 "/>
<rect x="21.799" y="18.373" transform="matrix(0.7071 -0.7071 0.7071 0.7071 -7.142 23.5028)" style="fill:#EAEBF0;" width="6" height="4"/>
<g>
</g>
<g>
</g>
<g>
</g>
<g>
</g>
<g>
</g>
<g>
</g>
<g>
</g>
<g>
</g>
<g>
</g>
<g>
</g>
<g>
</g>
<g>
</g>
<g>
</g>
<g>
</g>
<g>
</g>
</svg>
