<?xml version="1.0" encoding="iso-8859-1"?>
<!-- Generator: Adobe Illustrator 18.0.0, SVG Export Plug-In . SVG Version: 6.00 Build 0)  -->
<!DOCTYPE svg PUBLIC "-//W3C//DTD SVG 1.1//EN" "http://www.w3.org/Graphics/SVG/1.1/DTD/svg11.dtd">
<svg version="1.1" id="Capa_1" xmlns="http://www.w3.org/2000/svg" xmlns:xlink="http://www.w3.org/1999/xlink" x="0px" y="0px"
	 viewBox="0 0 59 59" style="enable-background:new 0 0 59 59;" xml:space="preserve">
<rect x="25" style="fill:#7383BF;" width="34" height="59"/>
<path style="fill:#949493;" d="M46,9H34v0c0-2.209,1.791-4,4-4h4C44.209,5,46,6.791,46,9L46,9z"/>
<line style="fill:none;stroke:#556080;stroke-width:2;stroke-linecap:round;stroke-linejoin:round;stroke-miterlimit:10;stroke-dasharray:1,3;" x1="32" y1="15" x2="32" y2="54"/>
<line style="fill:none;stroke:#556080;stroke-width:2;stroke-linecap:round;stroke-linejoin:round;stroke-miterlimit:10;stroke-dasharray:1,3;" x1="36" y1="15" x2="36" y2="54"/>
<line style="fill:none;stroke:#556080;stroke-width:2;stroke-linecap:round;stroke-linejoin:round;stroke-miterlimit:10;stroke-dasharray:1,3;" x1="40" y1="15" x2="40" y2="54"/>
<line style="fill:none;stroke:#556080;stroke-width:2;stroke-linecap:round;stroke-linejoin:round;stroke-miterlimit:10;stroke-dasharray:1,3;" x1="44" y1="15" x2="44" y2="54"/>
<line style="fill:none;stroke:#556080;stroke-width:2;stroke-linecap:round;stroke-linejoin:round;stroke-miterlimit:10;stroke-dasharray:1,3;" x1="48" y1="15" x2="48" y2="54"/>
<circle style="fill:#38454F;" cx="53.5" cy="33.5" r="2.5"/>
<path style="fill:#E7ECED;" d="M16.058,40H6.942C4.765,40,3,38.235,3,36.058V31h17v5.058C20,38.235,18.235,40,16.058,40z"/>
<path style="fill:#D6D9DF;" d="M20,35v1.058C20,38.235,18.235,40,16.058,40H6.942C4.765,40,3,38.235,3,36.058V35H0v24h23V35H20z"/>
<rect y="51" style="fill:#D6D9DF;" width="23" height="8"/>
<rect y="43" style="fill:#EAEBF0;" width="23" height="8"/>
<rect x="10" y="46" style="fill:#7383BF;" width="3" height="2"/>
<rect x="10" y="54" style="fill:#7383BF;" width="3" height="2"/>
<path style="fill:#A1C8EC;" d="M0,1v25h6v-1.238C6,24.341,6.341,24,6.762,24h2.476C9.659,24,10,24.341,10,24.762V24h3v0.762
	C13,24.341,13.341,24,13.762,24h2.476C16.659,24,17,24.341,17,24.762V26h6V1H0z"/>
<path style="fill:#FFFFFF;" d="M3,10c-0.256,0-0.512-0.098-0.707-0.293c-0.391-0.391-0.391-1.023,0-1.414l4-4
	c0.391-0.391,1.023-0.391,1.414,0s0.391,1.023,0,1.414l-4,4C3.512,9.902,3.256,10,3,10z"/>
<path style="fill:#FFFFFF;" d="M3,15c-0.256,0-0.512-0.098-0.707-0.293c-0.391-0.391-0.391-1.023,0-1.414l2-2
	c0.391-0.391,1.023-0.391,1.414,0s0.391,1.023,0,1.414l-2,2C3.512,14.902,3.256,15,3,15z"/>
<path style="fill:#FFFFFF;" d="M7,11c-0.26,0-0.52-0.11-0.71-0.29C6.11,10.52,6,10.26,6,10s0.11-0.521,0.29-0.71
	c0.37-0.37,1.04-0.37,1.42,0C7.89,9.479,8,9.74,8,10s-0.11,0.52-0.29,0.71C7.52,10.89,7.26,11,7,11z"/>
<path style="fill:#FFFFFF;" d="M9,9C8.744,9,8.488,8.902,8.293,8.707c-0.391-0.391-0.391-1.023,0-1.414l3-3
	c0.391-0.391,1.023-0.391,1.414,0s0.391,1.023,0,1.414l-3,3C9.512,8.902,9.256,9,9,9z"/>
<line style="fill:none;stroke:#C7CAC7;stroke-width:2;stroke-linejoin:round;stroke-miterlimit:10;" x1="40" y1="5" x2="40" y2="0"/>
<rect x="10" y="24" style="fill:#C7CAC7;" width="3" height="7"/>
<path style="fill:#839594;" d="M9.238,27H6.762C6.341,27,6,26.659,6,26.238v-1.476C6,24.341,6.341,24,6.762,24h2.476
	C9.659,24,10,24.341,10,24.762v1.476C10,26.659,9.659,27,9.238,27z"/>
<path style="fill:#839594;" d="M16.238,27h-2.476C13.341,27,13,26.659,13,26.238v-1.476C13,24.341,13.341,24,13.762,24h2.476
	C16.659,24,17,24.341,17,24.762v1.476C17,26.659,16.659,27,16.238,27z"/>
<g>
</g>
<g>
</g>
<g>
</g>
<g>
</g>
<g>
</g>
<g>
</g>
<g>
</g>
<g>
</g>
<g>
</g>
<g>
</g>
<g>
</g>
<g>
</g>
<g>
</g>
<g>
</g>
<g>
</g>
</svg>
