<?xml version="1.0" encoding="iso-8859-1"?>
<!-- Generator: Adobe Illustrator 18.0.0, SVG Export Plug-In . SVG Version: 6.00 Build 0)  -->
<!DOCTYPE svg PUBLIC "-//W3C//DTD SVG 1.1//EN" "http://www.w3.org/Graphics/SVG/1.1/DTD/svg11.dtd">
<svg version="1.1" id="Capa_1" xmlns="http://www.w3.org/2000/svg" xmlns:xlink="http://www.w3.org/1999/xlink" x="0px" y="0px"
	 viewBox="0 0 60 60" style="enable-background:new 0 0 60 60;" xml:space="preserve">
<circle style="fill:#556080;" cx="43" cy="32.999" r="3"/>
<circle style="fill:#556080;" cx="55" cy="32.999" r="3"/>
<path style="fill:#D6D9DF;" d="M49,54.999c-0.552,0-1-0.447-1-1V2.416c0-0.24-0.16-0.343-0.256-0.383
	c-0.095-0.038-0.282-0.08-0.452,0.09L44.05,5.365c-0.391,0.391-1.023,0.391-1.414,0s-0.391-1.023,0-1.414l3.242-3.242
	c0.692-0.692,1.726-0.896,2.631-0.523C49.415,0.56,50,1.436,50,2.416v51.583C50,54.551,49.552,54.999,49,54.999z"/>
<line style="fill:none;stroke:#556080;stroke-width:2;stroke-linecap:round;stroke-linejoin:round;stroke-miterlimit:10;" x1="1" y1="58.999" x2="59" y2="58.999"/>
<rect x="46" y="53.999" style="fill:#556080;" width="6" height="5"/>
<rect x="4" y="14.999" style="fill:#61B872;" width="6" height="6"/>
<rect x="10" y="8.999" style="fill:#61B872;" width="6" height="6"/>
<rect x="16" y="26.999" style="fill:#EBBA16;" width="6" height="6"/>
<rect x="22" y="20.999" style="fill:#EBBA16;" width="6" height="6"/>
<rect x="4" y="38.999" style="fill:#7FABDA;" width="6" height="6"/>
<rect x="10" y="32.999" style="fill:#7FABDA;" width="6" height="6"/>
<rect x="4" y="8.999" style="fill:#D6D9DF;" width="6" height="6"/>
<rect x="16" y="20.999" style="fill:#D6D9DF;" width="6" height="6"/>
<rect x="4" y="32.999" style="fill:#7383BF;" width="6" height="6"/>
<rect x="10" y="14.999" style="fill:#D6D9DF;" width="6" height="6"/>
<rect x="22" y="26.999" style="fill:#D6D9DF;" width="6" height="6"/>
<rect x="10" y="38.999" style="fill:#7383BF;" width="6" height="6"/>
<path style="fill:#D6D9DF;" d="M56,29.999h-2v-0.852c0-1.185-0.964-2.148-2.148-2.148h-5.703c-1.185,0-2.148,0.964-2.148,2.148
	v0.852h-2v-0.852c0-2.287,1.861-4.148,4.148-4.148h5.703c2.288,0,4.148,1.861,4.148,4.148V29.999z"/>
<path style="fill:#556080;" d="M43.509,11.564l-7.071-7.071l0,0c1.861-1.861,4.879-1.861,6.74,0l0.331,0.331
	C45.37,6.685,45.37,9.703,43.509,11.564L43.509,11.564z"/>
<g>
</g>
<g>
</g>
<g>
</g>
<g>
</g>
<g>
</g>
<g>
</g>
<g>
</g>
<g>
</g>
<g>
</g>
<g>
</g>
<g>
</g>
<g>
</g>
<g>
</g>
<g>
</g>
<g>
</g>
</svg>
