<?xml version="1.0" encoding="iso-8859-1"?>
<!-- Generator: Adobe Illustrator 18.0.0, SVG Export Plug-In . SVG Version: 6.00 Build 0)  -->
<!DOCTYPE svg PUBLIC "-//W3C//DTD SVG 1.1//EN" "http://www.w3.org/Graphics/SVG/1.1/DTD/svg11.dtd">
<svg version="1.1" id="Capa_1" xmlns="http://www.w3.org/2000/svg" xmlns:xlink="http://www.w3.org/1999/xlink" x="0px" y="0px"
	 viewBox="0 0 57 57" style="enable-background:new 0 0 57 57;" xml:space="preserve">
<rect x="7.5" y="12" style="fill:#EAEBF0;" width="42" height="4"/>
<path style="fill:#D6D9DF;" d="M47.5,16h-38c1.1,7.698,7.464,13.499,15.135,13.969c0.55,0.034,0.948,0.543,0.884,1.09L22.5,57h12
	l-3.019-25.941c-0.064-0.547,0.334-1.056,0.884-1.09C40.036,29.499,46.4,23.698,47.5,16z"/>
<rect x="25.5" style="fill:#BEC2CC;" width="6" height="12"/>
<rect x="25.5" style="fill:#EAEBF0;" width="6" height="5"/>
<rect x="16.5" y="8" style="fill:#BEC2CC;" width="4" height="4"/>
<rect x="36.5" y="8" style="fill:#BEC2CC;" width="4" height="4"/>
<line style="fill:none;stroke:#FFFFFF;stroke-width:2;stroke-miterlimit:10;" x1="28.5" y1="5" x2="28.5" y2="8"/>
<path style="fill:#EAEBF0;" d="M53.5,13h-50c-0.553,0-1-0.447-1-1s0.447-1,1-1h50c0.553,0,1,0.447,1,1S54.053,13,53.5,13z"/>
<g>
</g>
<g>
</g>
<g>
</g>
<g>
</g>
<g>
</g>
<g>
</g>
<g>
</g>
<g>
</g>
<g>
</g>
<g>
</g>
<g>
</g>
<g>
</g>
<g>
</g>
<g>
</g>
<g>
</g>
</svg>
