<?xml version="1.0" encoding="iso-8859-1"?>
<!-- Generator: Adobe Illustrator 18.0.0, SVG Export Plug-In . SVG Version: 6.00 Build 0)  -->
<!DOCTYPE svg PUBLIC "-//W3C//DTD SVG 1.1//EN" "http://www.w3.org/Graphics/SVG/1.1/DTD/svg11.dtd">
<svg version="1.1" id="Capa_1" xmlns="http://www.w3.org/2000/svg" xmlns:xlink="http://www.w3.org/1999/xlink" x="0px" y="0px"
	 viewBox="0 0 58 58" style="enable-background:new 0 0 58 58;" xml:space="preserve">
<path style="fill:#EAEBF0;" d="M53.5,38h-49C3.119,38,2,36.881,2,35.5v0C2,34.119,3.119,33,4.5,33h49c1.381,0,2.5,1.119,2.5,2.5v0
	C56,36.881,54.881,38,53.5,38z"/>
<g>
	<path style="fill:#D6D9DF;" d="M53.5,38h-49c-0.155,0-0.305-0.019-0.452-0.045C4.82,46.346,15.694,53,29,53
		s24.18-6.654,24.952-15.045C53.805,37.981,53.655,38,53.5,38z"/>
</g>
<rect x="27" y="53" style="fill:#556080;" width="4" height="5"/>
<polygon style="fill:#D6D9DF;" points="3,0 3,22 21,22 37,22 55,22 55,0 "/>
<polygon style="fill:#7FABDA;" points="7,0 7,18 21,18 37,18 51,18 51,0 "/>
<line style="fill:none;stroke:#1081E0;stroke-width:2;stroke-linecap:round;stroke-miterlimit:10;" x1="46" y1="9" x2="44" y2="11"/>
<line style="fill:none;stroke:#1081E0;stroke-width:2;stroke-linecap:round;stroke-miterlimit:10;" x1="46" y1="13" x2="46" y2="13"/>
<line style="fill:none;stroke:#1081E0;stroke-width:2;stroke-linecap:round;stroke-miterlimit:10;" x1="42" y1="13" x2="42" y2="13"/>
<rect x="25" y="22" style="fill:#6C797A;" width="8" height="11"/>
<rect x="24" y="18" style="fill:#839594;" width="10" height="4"/>
<polygon style="fill:#C7CAC7;" points="21.343,25 17.808,28.536 22.272,33 24,33 24.657,33 25,33 25,32.657 25,31 25,28.657 "/>
<polygon style="fill:#C7CAC7;" points="36.464,25 33,28.464 33,31 33,32.849 33,33 33.151,33 35,33 35.536,33 40,28.536 "/>
<rect x="27" y="22" style="fill:#839594;" width="4" height="2"/>
<g>
</g>
<g>
</g>
<g>
</g>
<g>
</g>
<g>
</g>
<g>
</g>
<g>
</g>
<g>
</g>
<g>
</g>
<g>
</g>
<g>
</g>
<g>
</g>
<g>
</g>
<g>
</g>
<g>
</g>
</svg>
