<?xml version="1.0" encoding="iso-8859-1"?>
<!-- Generator: Adobe Illustrator 18.0.0, SVG Export Plug-In . SVG Version: 6.00 Build 0)  -->
<!DOCTYPE svg PUBLIC "-//W3C//DTD SVG 1.1//EN" "http://www.w3.org/Graphics/SVG/1.1/DTD/svg11.dtd">
<svg version="1.1" id="Capa_1" xmlns="http://www.w3.org/2000/svg" xmlns:xlink="http://www.w3.org/1999/xlink" x="0px" y="0px"
	 viewBox="0 0 58 58" style="enable-background:new 0 0 58 58;" xml:space="preserve">
<path style="fill:#7383BF;" d="M49.928,12H33.828c-1.811,0-3.548,0.719-4.828,2l0,0l0,0c-1.281-1.281-3.017-2-4.828-2H8.072
	C6.376,12,5,13.376,5,15.072V21c2.757,0,5,2.243,5,5v9h38v-9c0-2.757,2.243-5,5-5v-5.928C53,13.376,51.624,12,49.928,12z"/>
<rect x="10" y="35" style="fill:#47567A;" width="38" height="9"/>
<path style="fill:#38454F;" d="M30.094,30.906L29,32l-1.094-1.094C27.326,30.326,26.539,30,25.719,30H10v5h38v-5H32.281
	C31.461,30,30.674,30.326,30.094,30.906z"/>
<g>
	<path style="fill:#556080;" d="M42.788,22.373c0.426-0.866,0.426-1.881,0-2.747l0.919-0.919c0.391-0.391,0.391-1.023,0-1.414
		s-1.023-0.391-1.414,0l-0.928,0.928c-0.856-0.401-1.874-0.401-2.73,0l-0.928-0.928c-0.391-0.391-1.023-0.391-1.414,0
		s-0.391,1.023,0,1.414l0.92,0.92c-0.426,0.866-0.426,1.88,0,2.747l-0.92,0.92c-0.391,0.391-0.391,1.023,0,1.414
		C36.488,24.902,36.744,25,37,25s0.512-0.098,0.707-0.293l0.918-0.918c0.424,0.21,0.888,0.332,1.375,0.332s0.951-0.123,1.375-0.332
		l0.918,0.918C42.488,24.902,42.744,25,43,25s0.512-0.098,0.707-0.293c0.391-0.391,0.391-1.023,0-1.414L42.788,22.373z
		 M39.207,21.793c-0.437-0.438-0.437-1.148,0-1.586c0.212-0.212,0.494-0.329,0.793-0.329s0.581,0.117,0.793,0.329
		c0.437,0.438,0.437,1.148,0,1.586C40.369,22.217,39.631,22.217,39.207,21.793z"/>
	<path style="fill:#556080;" d="M21.707,17.293c-0.391-0.391-1.023-0.391-1.414,0l-0.928,0.928c-0.856-0.401-1.874-0.401-2.73,0
		l-0.928-0.928c-0.391-0.391-1.023-0.391-1.414,0s-0.391,1.023,0,1.414l0.92,0.92c-0.426,0.866-0.426,1.88,0,2.747l-0.92,0.92
		c-0.391,0.391-0.391,1.023,0,1.414C14.488,24.902,14.744,25,15,25s0.512-0.098,0.707-0.293l0.918-0.918
		c0.424,0.21,0.888,0.332,1.375,0.332s0.951-0.123,1.375-0.332l0.918,0.918C20.488,24.902,20.744,25,21,25s0.512-0.098,0.707-0.293
		c0.391-0.391,0.391-1.023,0-1.414l-0.919-0.919c0.426-0.866,0.426-1.881,0-2.747l0.919-0.919
		C22.098,18.316,22.098,17.684,21.707,17.293z M17.207,21.793c-0.437-0.438-0.437-1.148,0-1.586
		c0.212-0.212,0.494-0.329,0.793-0.329s0.581,0.117,0.793,0.329c0.437,0.438,0.437,1.148,0,1.586
		C18.369,22.217,17.631,22.217,17.207,21.793z"/>
	<path style="fill:#556080;" d="M29,17c-0.552,0-1,0.448-1,1v1c0,0.552,0.448,1,1,1s1-0.448,1-1v-1C30,17.448,29.552,17,29,17z"/>
	<path style="fill:#556080;" d="M29,21c-0.552,0-1,0.448-1,1v1c0,0.552,0.448,1,1,1s1-0.448,1-1v-1C30,21.448,29.552,21,29,21z"/>
	<path style="fill:#556080;" d="M29,25c-0.552,0-1,0.448-1,1v1c0,0.552,0.448,1,1,1s1-0.448,1-1v-1C30,25.448,29.552,25,29,25z"/>
</g>
<rect x="28" y="40" style="fill:#38454F;" width="2" height="4"/>
<path style="fill:#556080;" d="M48,26v20h5V31c2.757,0,5-2.243,5-5s-2.243-5-5-5S48,23.243,48,26z"/>
<path style="fill:#38454F;" d="M54,25c-0.552,0-1,0.448-1,1v5c0.712,0,1.386-0.154,2-0.424V26C55,25.448,54.552,25,54,25z"/>
<path style="fill:#556080;" d="M5,21c-2.757,0-5,2.243-5,5s2.243,5,5,5v15h5V26C10,23.243,7.757,21,5,21z"/>
<path style="fill:#38454F;" d="M5,31v-5c0-0.552-0.448-1-1-1s-1,0.448-1,1v4.576C3.614,30.846,4.288,31,5,31z"/>
<g>
</g>
<g>
</g>
<g>
</g>
<g>
</g>
<g>
</g>
<g>
</g>
<g>
</g>
<g>
</g>
<g>
</g>
<g>
</g>
<g>
</g>
<g>
</g>
<g>
</g>
<g>
</g>
<g>
</g>
</svg>
