<?xml version="1.0" encoding="iso-8859-1"?>
<!-- Generator: Adobe Illustrator 18.0.0, SVG Export Plug-In . SVG Version: 6.00 Build 0)  -->
<!DOCTYPE svg PUBLIC "-//W3C//DTD SVG 1.1//EN" "http://www.w3.org/Graphics/SVG/1.1/DTD/svg11.dtd">
<svg version="1.1" id="Capa_1" xmlns="http://www.w3.org/2000/svg" xmlns:xlink="http://www.w3.org/1999/xlink" x="0px" y="0px"
	 viewBox="0 0 58 58" style="enable-background:new 0 0 58 58;" xml:space="preserve">
<path style="fill:#A8835B;" d="M52,26v10.467C52,37.313,51.313,38,50.467,38H7.533C6.687,38,6,37.313,6,36.467V26
	c0-1.657-1.343-3-3-3h0c-1.657,0-3,1.343-3,3l0,12v0c0,3.314,2.686,6,6,6h46c3.314,0,6-2.686,6-6v0V26c0-1.657-1.343-3-3-3h0
	C53.343,23,52,24.343,52,26z"/>
<path style="fill:#C19E74;" d="M49.056,18.528l-4.17-2.085C44.721,16.77,44.391,17,44,17c-3.86,0-7,3.14-7,7c0,0.552-0.448,1-1,1
	s-1-0.448-1-1c0-4.574,3.433-8.354,7.856-8.919C40.398,13.187,34.362,9,29,9s-11.398,4.187-13.856,6.081
	C19.567,15.646,23,19.426,23,24c0,0.552-0.448,1-1,1s-1-0.448-1-1c0-3.86-3.14-7-7-7c-0.391,0-0.721-0.23-0.885-0.557l-4.17,2.085
	c-2.192,1.096-4.053,2.655-5.507,4.516C4.885,23.257,6,24.493,6,26v7.17v3.297C6,37.313,6.687,38,7.533,38h42.933
	C51.313,38,52,37.313,52,36.467V33.17V26c0-1.507,1.115-2.743,2.563-2.956C53.109,21.182,51.247,19.624,49.056,18.528z"/>
<path style="fill:#D3AF88;" d="M35,24c0,0.552,0.448,1,1,1s1-0.448,1-1c0-3.86,3.14-7,7-7c0.391,0,0.721-0.23,0.885-0.557L44,16
	c0,0-0.428-0.367-1.144-0.919C38.433,15.646,35,19.426,35,24z"/>
<path style="fill:#D3AF88;" d="M14,17c3.86,0,7,3.14,7,7c0,0.552,0.448,1,1,1s1-0.448,1-1c0-4.574-3.433-8.354-7.856-8.919
	C14.428,15.633,14,16,14,16l-0.885,0.443C13.279,16.77,13.609,17,14,17z"/>
<path style="fill:#96724D;" d="M37.172,32L37.172,32L37.172,32c-1.281-1.281-3.017-2-4.828-2h-4.515h-2.172
	c-1.811,0-3.548,0.719-4.828,2l0,0l0,0c-1.281-1.281-3.017-2-4.828-2H6v6.467C6,37.313,6.687,38,7.533,38H29h21.467
	C51.313,38,52,37.313,52,36.467V30H42C40.189,30,38.452,30.719,37.172,32z"/>
<rect x="20" y="36" style="fill:#7C5C42;" width="2" height="2"/>
<rect x="36" y="36" style="fill:#7C5C42;" width="2" height="2"/>
<g>
	<path style="fill:#C19E74;" d="M52,44H6c-3.314,0-6-2.686-6-6v8.168C0,47.732,1.268,49,2.832,49h52.337
		C56.732,49,58,47.732,58,46.168V38C58,41.314,55.314,44,52,44z"/>
</g>
<g>
</g>
<g>
</g>
<g>
</g>
<g>
</g>
<g>
</g>
<g>
</g>
<g>
</g>
<g>
</g>
<g>
</g>
<g>
</g>
<g>
</g>
<g>
</g>
<g>
</g>
<g>
</g>
<g>
</g>
</svg>
