<?xml version="1.0" encoding="iso-8859-1"?>
<!-- Generator: Adobe Illustrator 18.0.0, SVG Export Plug-In . SVG Version: 6.00 Build 0)  -->
<!DOCTYPE svg PUBLIC "-//W3C//DTD SVG 1.1//EN" "http://www.w3.org/Graphics/SVG/1.1/DTD/svg11.dtd">
<svg version="1.1" id="Capa_1" xmlns="http://www.w3.org/2000/svg" xmlns:xlink="http://www.w3.org/1999/xlink" x="0px" y="0px"
	 viewBox="0 0 58 58" style="enable-background:new 0 0 58 58;" xml:space="preserve">
<rect x="21" y="27" style="fill:#556080;" width="16" height="8"/>
<path style="fill:#556080;" d="M11.335,33H1.252C0.561,33,0,32.439,0,31.748V26.83C0,25.819,0.819,25,1.83,25h2.835
	C8.716,25,12,28.284,12,32.335v0C12,32.702,11.702,33,11.335,33z"/>
<polygon style="fill:#AFB6BB;" points="51,48 54,48 54,43 49,43 "/>
<polygon style="fill:#AFB6BB;" points="7,48 4,48 4,43 9,43 "/>
<path style="fill:#626E96;" d="M55.5,38h-53C1.125,38,0,36.875,0,35.5v0C0,34.125,1.125,33,2.5,33h53c1.375,0,2.5,1.125,2.5,2.5v0
	C58,36.875,56.875,38,55.5,38z"/>
<path style="fill:#556080;" d="M55.5,43h-53C1.125,43,0,41.875,0,40.5v0C0,39.125,1.125,38,2.5,38h53c1.375,0,2.5,1.125,2.5,2.5v0
	C58,41.875,56.875,43,55.5,43z"/>
<path style="fill:#556080;" d="M46.665,33h10.083C57.439,33,58,32.439,58,31.748V26.83c0-1.011-0.819-1.83-1.83-1.83h-2.835
	C49.284,25,46,28.284,46,32.335v0C46,32.702,46.298,33,46.665,33z"/>
<path style="fill:#7383BF;" d="M24.293,28.293c0.391-0.391,1.023-0.391,1.414,0l2.878,2.878C28.841,30.69,29,30.15,29,29.567V13.433
	c0-0.583-0.159-1.123-0.415-1.604l-2.878,2.878C25.512,14.902,25.256,15,25,15s-0.512-0.098-0.707-0.293
	c-0.391-0.391-0.391-1.023,0-1.414l2.878-2.878C26.69,10.159,26.15,10,25.567,10H5.433c-0.583,0-1.123,0.159-1.604,0.415
	l2.878,2.878c0.391,0.391,0.391,1.023,0,1.414C6.512,14.902,6.256,15,6,15s-0.512-0.098-0.707-0.293l-2.878-2.878
	C2.159,12.31,2,12.85,2,13.433V25h2.665C8.716,25,12,28.284,12,32.335C12,32.702,11.702,33,11.335,33h14.232
	c0.583,0,1.123-0.159,1.604-0.415l-2.878-2.878C23.902,29.316,23.902,28.684,24.293,28.293z"/>
<path style="fill:#6374A8;" d="M52.707,14.707C52.512,14.902,52.256,15,52,15s-0.512-0.098-0.707-0.293
	c-0.391-0.391-0.391-1.023,0-1.414l2.878-2.878C53.69,10.159,53.15,10,52.567,10H32.433c-0.583,0-1.123,0.159-1.604,0.415
	l2.878,2.878c0.391,0.391,0.391,1.023,0,1.414C33.512,14.902,33.256,15,33,15s-0.512-0.098-0.707-0.293l-2.878-2.878
	C29.159,12.31,29,12.85,29,13.433v16.134c0,0.583,0.159,1.123,0.415,1.604l2.878-2.878c0.391-0.391,1.023-0.391,1.414,0
	s0.391,1.023,0,1.414l-2.878,2.878C31.31,32.841,31.85,33,32.433,33h14.232C46.298,33,46,32.702,46,32.335
	C46,28.284,49.284,25,53.335,25H56V13.433c0-0.583-0.159-1.123-0.415-1.604L52.707,14.707z"/>
<path style="fill:#556080;" d="M24.293,14.707C24.488,14.902,24.744,15,25,15s0.512-0.098,0.707-0.293l2.878-2.878
	c-0.321-0.603-0.812-1.093-1.414-1.414l-2.878,2.878C23.902,13.684,23.902,14.316,24.293,14.707z"/>
<path style="fill:#556080;" d="M6,15c0.256,0,0.512-0.098,0.707-0.293c0.391-0.391,0.391-1.023,0-1.414l-2.878-2.878
	c-0.603,0.321-1.093,0.812-1.414,1.414l2.878,2.878C5.488,14.902,5.744,15,6,15z"/>
<path style="fill:#556080;" d="M28.585,31.171l-2.878-2.878c-0.391-0.391-1.023-0.391-1.414,0s-0.391,1.023,0,1.414l2.878,2.878
	C27.773,32.264,28.264,31.773,28.585,31.171z"/>
<path style="fill:#556080;" d="M29.415,11.829l2.878,2.878C32.488,14.902,32.744,15,33,15s0.512-0.098,0.707-0.293
	c0.391-0.391,0.391-1.023,0-1.414l-2.878-2.878C30.227,10.736,29.736,11.227,29.415,11.829z"/>
<path style="fill:#556080;" d="M51.293,14.707C51.488,14.902,51.744,15,52,15s0.512-0.098,0.707-0.293l2.878-2.878
	c-0.321-0.603-0.812-1.093-1.414-1.414l-2.878,2.878C50.902,13.684,50.902,14.316,51.293,14.707z"/>
<path style="fill:#556080;" d="M33.707,28.293c-0.391-0.391-1.023-0.391-1.414,0l-2.878,2.878c0.321,0.603,0.812,1.093,1.414,1.414
	l2.878-2.878C34.098,29.316,34.098,28.684,33.707,28.293z"/>
<line style="fill:none;stroke:#556080;stroke-width:2;stroke-linecap:round;stroke-miterlimit:10;" x1="13" y1="18" x2="17" y2="22"/>
<line style="fill:none;stroke:#556080;stroke-width:2;stroke-linecap:round;stroke-miterlimit:10;" x1="13" y1="22" x2="17" y2="18"/>
<line style="fill:none;stroke:#556080;stroke-width:2;stroke-linecap:round;stroke-miterlimit:10;" x1="41" y1="18" x2="45" y2="22"/>
<line style="fill:none;stroke:#556080;stroke-width:2;stroke-linecap:round;stroke-miterlimit:10;" x1="41" y1="22" x2="45" y2="18"/>
<g>
</g>
<g>
</g>
<g>
</g>
<g>
</g>
<g>
</g>
<g>
</g>
<g>
</g>
<g>
</g>
<g>
</g>
<g>
</g>
<g>
</g>
<g>
</g>
<g>
</g>
<g>
</g>
<g>
</g>
</svg>
