<?xml version="1.0" encoding="iso-8859-1"?>
<!-- Generator: Adobe Illustrator 18.0.0, SVG Export Plug-In . SVG Version: 6.00 Build 0)  -->
<!DOCTYPE svg PUBLIC "-//W3C//DTD SVG 1.1//EN" "http://www.w3.org/Graphics/SVG/1.1/DTD/svg11.dtd">
<svg version="1.1" id="Capa_1" xmlns="http://www.w3.org/2000/svg" xmlns:xlink="http://www.w3.org/1999/xlink" x="0px" y="0px"
	 viewBox="0 0 58 58" style="enable-background:new 0 0 58 58;" xml:space="preserve">
<path style="fill:#664C3B;" d="M48.503,11h-5.675c-1.811,0-3.548,0.719-4.828,2c-1.281-1.281-3.017-2-4.828-2h-8.343
	c-1.811,0-3.548,0.719-4.828,2c-1.281-1.281-3.017-2-4.828-2H9.497C5.356,11,2,14.356,2,18.497v3.687
	c0.654-0.232,1.39-0.293,2.211,0.109C5.336,22.845,6,24.046,6,25.3V35h46v-9.7c0-1.253,0.664-2.455,1.789-3.007
	c0.821-0.403,1.557-0.342,2.211-0.109v-3.687C56,14.356,52.644,11,48.503,11z"/>
<path style="fill:#423026;" d="M6,44H0V25c0-1.657,1.343-3,3-3h0c1.657,0,3,1.343,3,3V44z"/>
<path style="fill:#423026;" d="M58,44h-6V25c0-1.657,1.343-3,3-3h0c1.657,0,3,1.343,3,3V44z"/>
<rect x="6" y="35" style="fill:#543D30;" width="46" height="9"/>
<path style="fill:#423026;" d="M39.414,30.586L39.414,30.586c-0.781,0.781-2.047,0.781-2.828,0l0,0
	C36.211,30.211,35.702,30,35.172,30H22.828c-0.53,0-1.039,0.211-1.414,0.586l0,0c-0.781,0.781-2.047,0.781-2.828,0l0,0
	C18.211,30.211,17.702,30,17.172,30H6v5h46v-5H40.828C40.298,30,39.789,30.211,39.414,30.586z"/>
<rect x="1" y="44" style="fill:#9E6C53;" width="4" height="3"/>
<rect x="53" y="44" style="fill:#9E6C53;" width="4" height="3"/>
<g>
	<path style="fill:#423026;" d="M31.707,16.293c-0.391-0.391-1.023-0.391-1.414,0L29,17.586l-1.293-1.293
		c-0.391-0.391-1.023-0.391-1.414,0s-0.391,1.023,0,1.414L27.586,19l-1.293,1.293c-0.391,0.391-0.391,1.023,0,1.414
		C26.488,21.902,26.744,22,27,22s0.512-0.098,0.707-0.293L29,20.414l1.293,1.293C30.488,21.902,30.744,22,31,22
		s0.512-0.098,0.707-0.293c0.391-0.391,0.391-1.023,0-1.414L30.414,19l1.293-1.293C32.098,17.316,32.098,16.684,31.707,16.293z"/>
	<path style="fill:#423026;" d="M48.414,19l1.293-1.293c0.391-0.391,0.391-1.023,0-1.414s-1.023-0.391-1.414,0L47,17.586
		l-1.293-1.293c-0.391-0.391-1.023-0.391-1.414,0s-0.391,1.023,0,1.414L45.586,19l-1.293,1.293c-0.391,0.391-0.391,1.023,0,1.414
		C44.488,21.902,44.744,22,45,22s0.512-0.098,0.707-0.293L47,20.414l1.293,1.293C48.488,21.902,48.744,22,49,22
		s0.512-0.098,0.707-0.293c0.391-0.391,0.391-1.023,0-1.414L48.414,19z"/>
	<path style="fill:#423026;" d="M13.707,16.293c-0.391-0.391-1.023-0.391-1.414,0L11,17.586l-1.293-1.293
		c-0.391-0.391-1.023-0.391-1.414,0s-0.391,1.023,0,1.414L9.586,19l-1.293,1.293c-0.391,0.391-0.391,1.023,0,1.414
		C8.488,21.902,8.744,22,9,22s0.512-0.098,0.707-0.293L11,20.414l1.293,1.293C12.488,21.902,12.744,22,13,22
		s0.512-0.098,0.707-0.293c0.391-0.391,0.391-1.023,0-1.414L12.414,19l1.293-1.293C14.098,17.316,14.098,16.684,13.707,16.293z"/>
</g>
<path style="fill:#423026;" d="M39,12.177c-0.356,0.241-0.692,0.515-1,0.823c-0.308-0.308-0.644-0.582-1-0.823V32h2V12.177z"/>
<path style="fill:#423026;" d="M21,12.177c-0.356,0.241-0.692,0.515-1,0.823c-0.308-0.308-0.644-0.582-1-0.823V32h2V12.177z"/>
<g>
</g>
<g>
</g>
<g>
</g>
<g>
</g>
<g>
</g>
<g>
</g>
<g>
</g>
<g>
</g>
<g>
</g>
<g>
</g>
<g>
</g>
<g>
</g>
<g>
</g>
<g>
</g>
<g>
</g>
</svg>
