<?xml version="1.0" encoding="iso-8859-1"?>
<!-- Generator: Adobe Illustrator 18.0.0, SVG Export Plug-In . SVG Version: 6.00 Build 0)  -->
<!DOCTYPE svg PUBLIC "-//W3C//DTD SVG 1.1//EN" "http://www.w3.org/Graphics/SVG/1.1/DTD/svg11.dtd">
<svg version="1.1" id="Capa_1" xmlns="http://www.w3.org/2000/svg" xmlns:xlink="http://www.w3.org/1999/xlink" x="0px" y="0px"
	 viewBox="0 0 58 58" style="enable-background:new 0 0 58 58;" xml:space="preserve">
<g>
	<path style="fill:#BFA380;" d="M9,45.537v-2c0-0.552-0.448-1-1-1s-1,0.448-1,1v2c-0.552,0-1,0.448-1,1s0.448,1,1,1h2
		c0.552,0,1-0.448,1-1S9.552,45.537,9,45.537z"/>
	<path style="fill:#BFA380;" d="M52,45.537v-2c0-0.552-0.448-1-1-1s-1,0.448-1,1v2c-0.552,0-1,0.448-1,1s0.448,1,1,1h2
		c0.552,0,1-0.448,1-1S52.552,45.537,52,45.537z"/>
</g>
<g>
	<path style="fill:#B02721;" d="M53,19.537H31c-6.167,0-7.011-1.845-9.32-4.507C17.225,9.892,9.479,8.803,4.321,13.236
		c-0.21,0.181-0.409,0.368-0.597,0.558C1.898,15.65,1,18.229,1,20.833v4.657c0.911-1.224,2.357-2.027,4-2.027c2.761,0,5,2.239,5,5
		c0,0.742-0.172,1.441-0.462,2.074H3.5c-0.24,0-0.474,0.026-0.701,0.072c0.226-0.046,0.461-0.072,0.701-0.072h51
		c1.933,0,3.5,1.567,3.5,3.5c0-2.368,0-6.971,0-9.5C58,21.776,55.761,19.537,53,19.537z"/>
</g>
<g>
	<circle style="fill:#DD352E;" cx="7" cy="14.537" r="1"/>
	<circle style="fill:#DD352E;" cx="4" cy="17.537" r="1"/>
	<circle style="fill:#DD352E;" cx="10" cy="17.537" r="1"/>
	<circle style="fill:#DD352E;" cx="13" cy="14.537" r="1"/>
	<circle style="fill:#DD352E;" cx="19" cy="14.537" r="1"/>
	<circle style="fill:#DD352E;" cx="16" cy="17.537" r="1"/>
	<circle style="fill:#DD352E;" cx="22" cy="17.537" r="1"/>
	<circle style="fill:#DD352E;" cx="7" cy="20.537" r="1"/>
	<circle style="fill:#DD352E;" cx="4" cy="23.537" r="1"/>
	<circle style="fill:#DD352E;" cx="10" cy="23.537" r="1"/>
	<circle style="fill:#DD352E;" cx="13" cy="20.537" r="1"/>
	<circle style="fill:#DD352E;" cx="19" cy="20.537" r="1"/>
	<circle style="fill:#DD352E;" cx="13" cy="26.537" r="1"/>
	<circle style="fill:#DD352E;" cx="19" cy="26.537" r="1"/>
	<circle style="fill:#DD352E;" cx="16" cy="23.537" r="1"/>
	<circle style="fill:#DD352E;" cx="22" cy="23.537" r="1"/>
	<circle style="fill:#DD352E;" cx="16" cy="29.537" r="1"/>
	<circle style="fill:#DD352E;" cx="22" cy="29.537" r="1"/>
	<circle style="fill:#DD352E;" cx="25" cy="20.537" r="1"/>
	<circle style="fill:#DD352E;" cx="25" cy="26.537" r="1"/>
	<circle style="fill:#DD352E;" cx="31" cy="26.537" r="1"/>
	<circle style="fill:#DD352E;" cx="28" cy="23.537" r="1"/>
	<circle style="fill:#DD352E;" cx="34" cy="23.537" r="1"/>
	<circle style="fill:#DD352E;" cx="28" cy="29.537" r="1"/>
	<circle style="fill:#DD352E;" cx="34" cy="29.537" r="1"/>
	<circle style="fill:#DD352E;" cx="37" cy="26.537" r="1"/>
	<circle style="fill:#DD352E;" cx="43" cy="26.537" r="1"/>
	<circle style="fill:#DD352E;" cx="40" cy="23.537" r="1"/>
	<circle style="fill:#DD352E;" cx="46" cy="23.537" r="1"/>
	<circle style="fill:#DD352E;" cx="40" cy="29.537" r="1"/>
	<circle style="fill:#DD352E;" cx="46" cy="29.537" r="1"/>
	<circle style="fill:#DD352E;" cx="49" cy="26.537" r="1"/>
	<circle style="fill:#DD352E;" cx="55" cy="26.537" r="1"/>
	<circle style="fill:#DD352E;" cx="52" cy="23.537" r="1"/>
	<circle style="fill:#DD352E;" cx="52" cy="29.537" r="1"/>
</g>
<rect x="6" y="40.537" style="fill:#9E6C53;" width="4" height="3"/>
<rect x="49" y="40.537" style="fill:#9E6C53;" width="4" height="3"/>
<path style="fill:#6C4127;" d="M55.5,40.537h-52c-0.828,0-1.5-0.672-1.5-1.5v0c0-0.828,0.672-1.5,1.5-1.5h52
	c0.828,0,1.5,0.672,1.5,1.5v0C57,39.865,56.328,40.537,55.5,40.537z"/>
<path style="fill:#7C1919;" d="M54.5,37.537h-51c-1.933,0-3.5-1.567-3.5-3.5v0c0-1.933,1.567-3.5,3.5-3.5h51
	c1.933,0,3.5,1.567,3.5,3.5v0C58,35.97,56.433,37.537,54.5,37.537z"/>
<path style="fill:#DD352E;" d="M3.5,30.537h6.038C9.828,29.904,10,29.205,10,28.463c0-2.761-2.239-5-5-5s-5,2.239-5,5
	c0,1.159,0.41,2.212,1.072,3.06C1.702,30.915,2.556,30.537,3.5,30.537z"/>
<g>
</g>
<g>
</g>
<g>
</g>
<g>
</g>
<g>
</g>
<g>
</g>
<g>
</g>
<g>
</g>
<g>
</g>
<g>
</g>
<g>
</g>
<g>
</g>
<g>
</g>
<g>
</g>
<g>
</g>
</svg>
