<?xml version="1.0" encoding="iso-8859-1"?>
<!-- Generator: Adobe Illustrator 18.0.0, SVG Export Plug-In . SVG Version: 6.00 Build 0)  -->
<!DOCTYPE svg PUBLIC "-//W3C//DTD SVG 1.1//EN" "http://www.w3.org/Graphics/SVG/1.1/DTD/svg11.dtd">
<svg version="1.1" id="Capa_1" xmlns="http://www.w3.org/2000/svg" xmlns:xlink="http://www.w3.org/1999/xlink" x="0px" y="0px"
	 viewBox="0 0 58 58" style="enable-background:new 0 0 58 58;" xml:space="preserve">
<path style="fill:#0799B1;" d="M9,21.838V36h40V21.838c0-2.52,1.934-4.566,4.395-4.793C51.318,13.443,47.434,11,43,11H15
	c-4.434,0-8.318,2.443-10.395,6.045C7.066,17.271,9,19.317,9,21.838z"/>
<path style="fill:#19C8E0;" d="M57.958,20.413C57.674,18.419,55.852,17,53.838,17h0C51.166,17,49,19.166,49,21.838v12.629
	C49,35.313,48.313,36,47.467,36H10.533C9.687,36,9,35.313,9,34.467V21.838C9,19.166,6.834,17,4.162,17h0
	c-2.014,0-3.836,1.419-4.12,3.413C-0.259,22.529,1.1,24.508,3,25v11c0,3.314,2.686,6,6,6h40c3.314,0,6-2.686,6-6V25
	C56.9,24.508,58.259,22.529,57.958,20.413z"/>
<polygon style="fill:#FBCE9D;" points="47,47 50,47 50,42 45,42 "/>
<polygon style="fill:#FBCE9D;" points="11,47 8,47 8,42 13,42 "/>
<circle style="fill:#17E2CF;" cx="13" cy="32" r="4"/>
<circle style="fill:#17E2CF;" cx="45" cy="32" r="4"/>
<g>
	<circle style="fill:#17E2CF;" cx="8" cy="17" r="1"/>
	<circle style="fill:#17E2CF;" cx="11" cy="14" r="1"/>
	<circle style="fill:#17E2CF;" cx="17" cy="14" r="1"/>
	<circle style="fill:#17E2CF;" cx="11" cy="20" r="1"/>
	<circle style="fill:#17E2CF;" cx="17" cy="20" r="1"/>
	<circle style="fill:#17E2CF;" cx="14" cy="17" r="1"/>
	<circle style="fill:#17E2CF;" cx="20" cy="17" r="1"/>
	<circle style="fill:#17E2CF;" cx="14" cy="23" r="1"/>
	<circle style="fill:#17E2CF;" cx="20" cy="23" r="1"/>
	<circle style="fill:#17E2CF;" cx="23" cy="14" r="1"/>
	<circle style="fill:#17E2CF;" cx="29" cy="14" r="1"/>
	<circle style="fill:#17E2CF;" cx="23" cy="20" r="1"/>
	<circle style="fill:#17E2CF;" cx="29" cy="20" r="1"/>
	<circle style="fill:#17E2CF;" cx="26" cy="17" r="1"/>
	<circle style="fill:#17E2CF;" cx="32" cy="17" r="1"/>
	<circle style="fill:#17E2CF;" cx="26" cy="23" r="1"/>
	<circle style="fill:#17E2CF;" cx="32" cy="23" r="1"/>
	<circle style="fill:#17E2CF;" cx="35" cy="14" r="1"/>
	<circle style="fill:#17E2CF;" cx="41" cy="14" r="1"/>
	<circle style="fill:#17E2CF;" cx="35" cy="20" r="1"/>
	<circle style="fill:#17E2CF;" cx="41" cy="20" r="1"/>
	<circle style="fill:#17E2CF;" cx="38" cy="17" r="1"/>
	<circle style="fill:#17E2CF;" cx="44" cy="17" r="1"/>
	<circle style="fill:#17E2CF;" cx="38" cy="23" r="1"/>
	<circle style="fill:#17E2CF;" cx="44" cy="23" r="1"/>
	<circle style="fill:#17E2CF;" cx="47" cy="14" r="1"/>
	<circle style="fill:#17E2CF;" cx="47" cy="20" r="1"/>
	<circle style="fill:#17E2CF;" cx="50" cy="17" r="1"/>
	<circle style="fill:#17E2CF;" cx="11" cy="26" r="1"/>
	<circle style="fill:#17E2CF;" cx="17" cy="26" r="1"/>
	<circle style="fill:#17E2CF;" cx="20" cy="29" r="1"/>
	<circle style="fill:#17E2CF;" cx="20" cy="35" r="1"/>
	<circle style="fill:#17E2CF;" cx="23" cy="26" r="1"/>
	<circle style="fill:#17E2CF;" cx="29" cy="26" r="1"/>
	<circle style="fill:#17E2CF;" cx="23" cy="32" r="1"/>
	<circle style="fill:#17E2CF;" cx="29" cy="32" r="1"/>
	<circle style="fill:#17E2CF;" cx="26" cy="29" r="1"/>
	<circle style="fill:#17E2CF;" cx="32" cy="29" r="1"/>
	<circle style="fill:#17E2CF;" cx="26" cy="35" r="1"/>
	<circle style="fill:#17E2CF;" cx="32" cy="35" r="1"/>
	<circle style="fill:#17E2CF;" cx="35" cy="26" r="1"/>
	<circle style="fill:#17E2CF;" cx="41" cy="26" r="1"/>
	<circle style="fill:#17E2CF;" cx="35" cy="32" r="1"/>
	<circle style="fill:#17E2CF;" cx="38" cy="29" r="1"/>
	<circle style="fill:#17E2CF;" cx="38" cy="35" r="1"/>
	<circle style="fill:#17E2CF;" cx="47" cy="26" r="1"/>
</g>
<path style="fill:#0799B1;" d="M53,24c-0.553,0-1,0.448-1,1s0.447,1,1,1h2v-1c0.659-0.171,1.245-0.528,1.727-1H53z"/>
<path style="fill:#0799B1;" d="M3,25v1h2c0.553,0,1-0.448,1-1s-0.447-1-1-1H1.273C1.755,24.472,2.341,24.829,3,25z"/>
<g>
</g>
<g>
</g>
<g>
</g>
<g>
</g>
<g>
</g>
<g>
</g>
<g>
</g>
<g>
</g>
<g>
</g>
<g>
</g>
<g>
</g>
<g>
</g>
<g>
</g>
<g>
</g>
<g>
</g>
</svg>
