<?xml version="1.0" encoding="iso-8859-1"?>
<!-- Generator: Adobe Illustrator 18.0.0, SVG Export Plug-In . SVG Version: 6.00 Build 0)  -->
<!DOCTYPE svg PUBLIC "-//W3C//DTD SVG 1.1//EN" "http://www.w3.org/Graphics/SVG/1.1/DTD/svg11.dtd">
<svg version="1.1" id="Capa_1" xmlns="http://www.w3.org/2000/svg" xmlns:xlink="http://www.w3.org/1999/xlink" x="0px" y="0px"
	 viewBox="0 0 58 58" style="enable-background:new 0 0 58 58;" xml:space="preserve">
<path style="fill:#DD352E;" d="M57.873,26.478C57.427,24.68,55.69,23.5,53.838,23.5h0C51.166,23.5,49,25.666,49,28.338v8.629
	c0,0.847-0.687,1.533-1.533,1.533H10.533C9.687,38.5,9,37.813,9,36.967v-8.629C9,25.666,6.834,23.5,4.162,23.5h0
	c-2.014,0-3.836,1.419-4.12,3.413C-0.259,29.029,1.1,30.866,3,31.359v10.226c0,1.61,1.305,2.916,2.916,2.916h46.169
	c1.61,0,2.916-1.305,2.916-2.916V31.359C57.03,30.833,58.442,28.773,57.873,26.478z"/>
<polygon style="fill:#C7CAC7;" points="9,49.5 6,49.5 6,44.5 11,44.5 "/>
<polygon style="fill:#C7CAC7;" points="49,49.5 52,49.5 52,44.5 47,44.5 "/>
<path style="fill:#DD352E;" d="M45.039,33.266l2.45-17.182c0.302-2.12-0.84-4.184-2.797-5.053l0,0
	c-2.874-1.278-6.179,0.515-6.675,3.621l-2.91,18.208C38.408,32.377,41.776,32.514,45.039,33.266z"/>
<path style="fill:#ED4343;" d="M47.162,18.379l-2.123,14.886c1.342,0.309,2.667,0.717,3.961,1.234v-5.497
	c0-1.264,0.368-2.52,1.133-3.526c1.868-2.457,4.664-2.398,6.379-1.052l0.747-4.484c0.423-2.538-1.107-4.995-3.572-5.734l0,0
	C50.694,13.308,47.603,15.285,47.162,18.379z"/>
<path style="fill:#ED4343;" d="M29,34.5c2.008-0.803,4.089-1.355,6.196-1.656l2.94-18.815c0.454-2.905-1.792-5.53-4.733-5.53h-8.807
	c-2.94,0-5.187,2.624-4.733,5.53l2.94,18.815C24.911,33.145,26.992,33.697,29,34.5z"/>
<path style="fill:#DD352E;" d="M22.893,32.859l-2.91-18.208c-0.496-3.106-3.801-4.899-6.675-3.621l0,0
	c-1.957,0.87-3.099,2.933-2.797,5.053l2.45,17.182C16.224,32.514,19.592,32.377,22.893,32.859z"/>
<path style="fill:#ED4343;" d="M9,34.5c1.294-0.518,2.619-0.926,3.961-1.234l-2.175-15.254c-0.414-2.901-3.312-4.754-6.119-3.912
	l0,0C2,14.9,0.343,17.559,0.801,20.307l0.688,4.128c1.543-1.228,3.982-1.405,5.89,0.441C8.452,25.913,9,27.383,9,28.876L9,34.5z"/>
<path style="fill:#BF2525;" d="M29,38.5H9v-4l0,0c6.419-2.568,13.581-2.568,20,0l0,0V38.5z"/>
<path style="fill:#B02721;" d="M49,38.5H29v-4l0,0c6.419-2.568,13.581-2.568,20,0l0,0V38.5z"/>
<path style="fill:#B02721;" d="M53,30.5c-0.553,0-1,0.448-1,1s0.447,1,1,1h2v-1.141c0.606-0.157,1.145-0.463,1.604-0.859H53z"/>
<path style="fill:#B02721;" d="M5,30.5H1.393c0.46,0.396,1,0.702,1.607,0.859V32.5h2c0.553,0,1-0.448,1-1S5.553,30.5,5,30.5z"/>
<g>
</g>
<g>
</g>
<g>
</g>
<g>
</g>
<g>
</g>
<g>
</g>
<g>
</g>
<g>
</g>
<g>
</g>
<g>
</g>
<g>
</g>
<g>
</g>
<g>
</g>
<g>
</g>
<g>
</g>
</svg>
