<?xml version="1.0" encoding="iso-8859-1"?>
<!-- Generator: Adobe Illustrator 18.0.0, SVG Export Plug-In . SVG Version: 6.00 Build 0)  -->
<!DOCTYPE svg PUBLIC "-//W3C//DTD SVG 1.1//EN" "http://www.w3.org/Graphics/SVG/1.1/DTD/svg11.dtd">
<svg version="1.1" id="Capa_1" xmlns="http://www.w3.org/2000/svg" xmlns:xlink="http://www.w3.org/1999/xlink" x="0px" y="0px"
	 viewBox="0 0 60 60" style="enable-background:new 0 0 60 60;" xml:space="preserve">
<path style="fill:#25AE88;" d="M45.993,7.532C45.975,8.069,45.541,8.5,45,8.5c-1.654,0-3,1.346-3,3c0,0.552-0.448,1-1,1
	s-1-0.448-1-1c0-2.401,1.703-4.41,3.964-4.889C41.067,4.277,36.121,1.5,30,1.5S18.933,4.277,16.036,6.611
	C18.297,7.09,20,9.099,20,11.5c0,0.552-0.448,1-1,1s-1-0.448-1-1c0-1.654-1.346-3-3-3c-0.541,0-0.975-0.431-0.993-0.968
	C3.837,7.869,1,13.237,1,16.5c0-2.209,1.791-4,4-4c2.761,0,5,2.239,5,5v5V33c0-1.925,1.575-3.5,3.5-3.5h33
	c1.925,0,3.5,1.575,3.5,3.5V22.5v-5c0-2.761,2.239-5,5-5c2.209,0,4,1.791,4,4C59,13.237,56.163,7.869,45.993,7.532z"/>
<path style="fill:#71C3A9;" d="M50,33.5V33c0,0.171-0.027,0.335-0.051,0.5H50z"/>
<path style="fill:#71C3A9;" d="M10.051,33.5C10.027,33.335,10,33.171,10,33v0.5H10.051z"/>
<path style="fill:#1A9172;" d="M15,8.5c1.654,0,3,1.346,3,3c0,0.552,0.448,1,1,1s1-0.448,1-1c0-2.401-1.703-4.41-3.964-4.889
	C15.656,6.917,15.307,7.216,15,7.5c-0.347,0-0.662,0.021-0.993,0.032C14.025,8.069,14.459,8.5,15,8.5z"/>
<path style="fill:#1A9172;" d="M40,11.5c0,0.552,0.448,1,1,1s1-0.448,1-1c0-1.654,1.346-3,3-3c0.541,0,0.975-0.431,0.993-0.968
	C45.662,7.521,45.347,7.5,45,7.5c-0.307-0.284-0.656-0.583-1.036-0.889C41.703,7.09,40,9.099,40,11.5z"/>
<path style="fill:none;stroke:#25AE88;stroke-width:2;stroke-linecap:round;stroke-miterlimit:10;" d="M10,17.5c0-2.761-2.239-5-5-5
	c-2.209,0-4,1.791-4,4c0,1.767,1.433,3.2,3.2,3.2c1.414,0,2.56-1.146,2.56-2.56"/>
<path style="fill:none;stroke:#25AE88;stroke-width:2;stroke-linecap:round;stroke-miterlimit:10;" d="M50,17.5c0-2.761,2.239-5,5-5
	c2.209,0,4,1.791,4,4c0,1.767-1.433,3.2-3.2,3.2c-1.414,0-2.56-1.146-2.56-2.56"/>
<circle style="fill:#71C3A9;" cx="30" cy="9.5" r="1"/>
<circle style="fill:#71C3A9;" cx="27" cy="12.5" r="1"/>
<circle style="fill:#71C3A9;" cx="33" cy="12.5" r="1"/>
<circle style="fill:#71C3A9;" cx="27" cy="18.5" r="1"/>
<circle style="fill:#71C3A9;" cx="33" cy="18.5" r="1"/>
<circle style="fill:#71C3A9;" cx="30" cy="15.5" r="1"/>
<path style="fill:#A8745D;" d="M13.5,36.5c-0.978,0-1.863-0.409-2.5-1.062l0.366,22.428c0,0.35,0.284,0.634,0.634,0.634h0.857
	c0.297,0,0.555-0.207,0.619-0.497L14.338,36.5H13.5z"/>
<path style="fill:#A8745D;" d="M46.5,36.5h-0.838l1.593,21.503c0.065,0.29,0.322,0.497,0.619,0.497h0.857
	c0.35,0,0.634-0.284,0.634-0.634L49,35.438C48.363,36.091,47.478,36.5,46.5,36.5z"/>
<path style="fill:#9E6C53;" d="M38.239,36.5l1.016,16.565c0.065,0.29,0.322,0.497,0.619,0.497h0.857c0.35,0,0.634-0.284,0.634-0.634
	L41,36.5H38.239z"/>
<path style="fill:#9E6C53;" d="M19,36.5l0.366,16.366c0,0.35,0.284,0.634,0.634,0.634h0.857c0.297,0,0.555-0.207,0.619-0.497
	L21.754,36.5H19z"/>
<line style="fill:none;stroke:#25AE88;stroke-width:2;stroke-linecap:round;stroke-miterlimit:10;" x1="50" y1="17.5" x2="50" y2="31.5"/>
<line style="fill:none;stroke:#25AE88;stroke-width:2;stroke-linecap:round;stroke-miterlimit:10;" x1="10" y1="17.5" x2="10" y2="31.5"/>
<path style="fill:#1A9172;" d="M14,30.5c-0.552,0-1-0.448-1-1v-11c0-0.552,0.448-1,1-1s1,0.448,1,1v11
	C15,30.052,14.552,30.5,14,30.5z"/>
<path style="fill:#1A9172;" d="M46,29.5c-0.552,0-1-0.448-1-1v-10c0-0.552,0.448-1,1-1s1,0.448,1,1v10
	C47,29.052,46.552,29.5,46,29.5z"/>
<path style="fill:#1A9172;" d="M18,27.5c-0.552,0-1-0.448-1-1v-6.652c0-0.552,0.448-1,1-1s1,0.448,1,1V26.5
	C19,27.052,18.552,27.5,18,27.5z"/>
<path style="fill:#1A9172;" d="M42,27.5c-0.552,0-1-0.448-1-1v-6.388c0-0.552,0.448-1,1-1s1,0.448,1,1V26.5
	C43,27.052,42.552,27.5,42,27.5z"/>
<path style="fill:#14A085;" d="M10,31c0-3.59,8.954-6.5,20-6.5s20,2.91,20,6.5"/>
<path style="fill:#26B99A;" d="M48,36.5H12c-1.925,0-3.5-1.575-3.5-3.5v0c0-1.925,1.575-3.5,3.5-3.5h36c1.925,0,3.5,1.575,3.5,3.5v0
	C51.5,34.925,49.925,36.5,48,36.5z"/>
<g>
</g>
<g>
</g>
<g>
</g>
<g>
</g>
<g>
</g>
<g>
</g>
<g>
</g>
<g>
</g>
<g>
</g>
<g>
</g>
<g>
</g>
<g>
</g>
<g>
</g>
<g>
</g>
<g>
</g>
</svg>
