<?xml version="1.0" encoding="iso-8859-1"?>
<!-- Generator: Adobe Illustrator 18.0.0, SVG Export Plug-In . SVG Version: 6.00 Build 0)  -->
<!DOCTYPE svg PUBLIC "-//W3C//DTD SVG 1.1//EN" "http://www.w3.org/Graphics/SVG/1.1/DTD/svg11.dtd">
<svg version="1.1" id="Capa_1" xmlns="http://www.w3.org/2000/svg" xmlns:xlink="http://www.w3.org/1999/xlink" x="0px" y="0px"
	 viewBox="0 0 58 58" style="enable-background:new 0 0 58 58;" xml:space="preserve">
<path style="fill:#C7CAC7;" d="M46,32.335C46,28.284,49.284,25,53.335,25h2.62C55.978,24.669,56,24.337,56,24c0-7.7-6.3-14-14-14H16
	C8.3,10,2,16.3,2,24c0,0.337,0.022,0.669,0.045,1h2.62C8.716,25,12,28.284,12,32.335C12,32.702,11.702,33,11.335,33h35.33
	C46.298,33,46,32.702,46,32.335z"/>
<g>
	<circle style="fill:#E7ECED;" cx="6" cy="16" r="1"/>
	<circle style="fill:#E7ECED;" cx="9" cy="13" r="1"/>
	<circle style="fill:#E7ECED;" cx="9" cy="19" r="1"/>
	<circle style="fill:#E7ECED;" cx="12" cy="16" r="1"/>
	<circle style="fill:#E7ECED;" cx="18" cy="16" r="1"/>
	<circle style="fill:#E7ECED;" cx="15" cy="13" r="1"/>
	<circle style="fill:#E7ECED;" cx="21" cy="13" r="1"/>
	<circle style="fill:#E7ECED;" cx="15" cy="19" r="1"/>
	<circle style="fill:#E7ECED;" cx="21" cy="19" r="1"/>
	<circle style="fill:#E7ECED;" cx="24" cy="16" r="1"/>
	<circle style="fill:#E7ECED;" cx="30" cy="16" r="1"/>
	<circle style="fill:#E7ECED;" cx="27" cy="13" r="1"/>
	<circle style="fill:#E7ECED;" cx="33" cy="13" r="1"/>
	<circle style="fill:#E7ECED;" cx="27" cy="19" r="1"/>
	<circle style="fill:#E7ECED;" cx="33" cy="19" r="1"/>
	<circle style="fill:#E7ECED;" cx="36" cy="16" r="1"/>
	<circle style="fill:#E7ECED;" cx="42" cy="16" r="1"/>
	<circle style="fill:#E7ECED;" cx="39" cy="13" r="1"/>
	<circle style="fill:#E7ECED;" cx="45" cy="13" r="1"/>
	<circle style="fill:#E7ECED;" cx="39" cy="19" r="1"/>
	<circle style="fill:#E7ECED;" cx="45" cy="19" r="1"/>
	<circle style="fill:#E7ECED;" cx="48" cy="16" r="1"/>
	<circle style="fill:#E7ECED;" cx="51" cy="19" r="1"/>
	<circle style="fill:#E7ECED;" cx="6" cy="22" r="1"/>
	<circle style="fill:#E7ECED;" cx="9" cy="25" r="1"/>
	<circle style="fill:#E7ECED;" cx="12" cy="22" r="1"/>
	<circle style="fill:#E7ECED;" cx="18" cy="22" r="1"/>
	<circle style="fill:#E7ECED;" cx="12" cy="28" r="1"/>
	<circle style="fill:#E7ECED;" cx="18" cy="28" r="1"/>
	<circle style="fill:#E7ECED;" cx="15" cy="25" r="1"/>
	<circle style="fill:#E7ECED;" cx="21" cy="25" r="1"/>
	<circle style="fill:#E7ECED;" cx="15" cy="31" r="1"/>
	<circle style="fill:#E7ECED;" cx="21" cy="31" r="1"/>
	<circle style="fill:#E7ECED;" cx="24" cy="22" r="1"/>
	<circle style="fill:#E7ECED;" cx="30" cy="22" r="1"/>
	<circle style="fill:#E7ECED;" cx="24" cy="28" r="1"/>
	<circle style="fill:#E7ECED;" cx="30" cy="28" r="1"/>
	<circle style="fill:#E7ECED;" cx="27" cy="25" r="1"/>
	<circle style="fill:#E7ECED;" cx="33" cy="25" r="1"/>
	<circle style="fill:#E7ECED;" cx="27" cy="31" r="1"/>
	<circle style="fill:#E7ECED;" cx="33" cy="31" r="1"/>
	<circle style="fill:#E7ECED;" cx="36" cy="22" r="1"/>
	<circle style="fill:#E7ECED;" cx="42" cy="22" r="1"/>
	<circle style="fill:#E7ECED;" cx="36" cy="28" r="1"/>
	<circle style="fill:#E7ECED;" cx="42" cy="28" r="1"/>
	<circle style="fill:#E7ECED;" cx="39" cy="25" r="1"/>
	<circle style="fill:#E7ECED;" cx="45" cy="25" r="1"/>
	<circle style="fill:#E7ECED;" cx="39" cy="31" r="1"/>
	<circle style="fill:#E7ECED;" cx="45" cy="31" r="1"/>
	<circle style="fill:#E7ECED;" cx="48" cy="22" r="1"/>
	<circle style="fill:#E7ECED;" cx="54" cy="22" r="1"/>
	<circle style="fill:#E7ECED;" cx="51" cy="25" r="1"/>
</g>
<path style="fill:#E7ECED;" d="M11.335,33H1.252C0.561,33,0,32.439,0,31.748V26.83C0,25.819,0.819,25,1.83,25h2.835
	C8.716,25,12,28.284,12,32.335v0C12,32.702,11.702,33,11.335,33z"/>
<polygon style="fill:#6B5B4B;" points="51,48 54,48 54,43 49,43 "/>
<polygon style="fill:#6B5B4B;" points="7,48 4,48 4,43 9,43 "/>
<path style="fill:#AFB6BB;" d="M55.5,38h-53C1.125,38,0,36.875,0,35.5v0C0,34.125,1.125,33,2.5,33h53c1.375,0,2.5,1.125,2.5,2.5v0
	C58,36.875,56.875,38,55.5,38z"/>
<path style="fill:#E7ECED;" d="M55.5,43h-53C1.125,43,0,41.875,0,40.5v0C0,39.125,1.125,38,2.5,38h53c1.375,0,2.5,1.125,2.5,2.5v0
	C58,41.875,56.875,43,55.5,43z"/>
<path style="fill:#E7ECED;" d="M46.665,33h10.083C57.439,33,58,32.439,58,31.748V26.83c0-1.011-0.819-1.83-1.83-1.83h-2.835
	C49.284,25,46,28.284,46,32.335v0C46,32.702,46.298,33,46.665,33z"/>
<g>
</g>
<g>
</g>
<g>
</g>
<g>
</g>
<g>
</g>
<g>
</g>
<g>
</g>
<g>
</g>
<g>
</g>
<g>
</g>
<g>
</g>
<g>
</g>
<g>
</g>
<g>
</g>
<g>
</g>
</svg>
