<?xml version="1.0" encoding="iso-8859-1"?>
<!-- Generator: Adobe Illustrator 18.0.0, SVG Export Plug-In . SVG Version: 6.00 Build 0)  -->
<!DOCTYPE svg PUBLIC "-//W3C//DTD SVG 1.1//EN" "http://www.w3.org/Graphics/SVG/1.1/DTD/svg11.dtd">
<svg version="1.1" id="Capa_1" xmlns="http://www.w3.org/2000/svg" xmlns:xlink="http://www.w3.org/1999/xlink" x="0px" y="0px"
	 viewBox="0 0 58 58" style="enable-background:new 0 0 58 58;" xml:space="preserve">
<path style="fill:#7383BF;" d="M1.912,41.288L1.912,41.288c-2.549-4.025-2.549-10.551,0-14.576l0,0c0.601-0.949,1.576-0.949,2.177,0
	l0,0c2.549,4.025,2.549,10.551,0,14.576l0,0C3.487,42.237,2.513,42.237,1.912,41.288z"/>
<path style="fill:#7383BF;" d="M53.912,41.288L53.912,41.288c-2.549-4.025-2.549-10.551,0-14.576l0,0
	c0.601-0.949,1.576-0.949,2.177,0l0,0c2.549,4.025,2.549,10.551,0,14.576l0,0C55.487,42.237,54.513,42.237,53.912,41.288z"/>
<g>
	<path style="fill:#556080;" d="M4.253,41h49.493c-0.693-1.18-1.185-2.548-1.463-4H5.717C5.438,38.452,4.947,39.82,4.253,41z"/>
</g>
<path style="fill:#556080;" d="M53.911,26.712L53.911,26.712C54.212,26.237,54.606,26,55,26l-5-3v9h2.124
	C52.366,30.063,52.961,28.213,53.911,26.712z"/>
<path style="fill:#556080;" d="M4.088,26.712L4.088,26.712C5.039,28.213,5.634,30.063,5.876,32H8v-9l-5,3
	C3.394,26,3.788,26.237,4.088,26.712z"/>
<rect x="6" y="41" style="fill:#AFB6BB;" width="4" height="4"/>
<rect x="48" y="41" style="fill:#AFB6BB;" width="4" height="4"/>
<path style="fill:#7383BF;" d="M45.18,13H12.82C10.158,13,8,15.158,8,17.82v9.987C8,26.809,8.809,26,9.807,26h4.386
	C15.191,26,16,26.809,16,27.807V32h26v-4.193C42,26.809,42.809,26,43.807,26h4.386C49.191,26,50,26.809,50,27.807V17.82
	C50,15.158,47.842,13,45.18,13z"/>
<path style="fill:#8B9DD6;" d="M52.283,37c-0.312-1.624-0.365-3.344-0.159-5H50v0.193C50,33.191,49.191,34,48.193,34h-4.386
	C42.809,34,42,33.191,42,32.193V32H16v0.193C16,33.191,15.191,34,14.193,34H9.807C8.809,34,8,33.191,8,32.193V32H5.876
	c0.206,1.656,0.153,3.376-0.159,5H52.283z"/>
<g>
	<circle style="fill:#556080;" cx="15" cy="16" r="1"/>
	<circle style="fill:#556080;" cx="12" cy="19" r="1"/>
	<circle style="fill:#556080;" cx="18" cy="19" r="1"/>
	<circle style="fill:#556080;" cx="21" cy="16" r="1"/>
	<circle style="fill:#556080;" cx="27" cy="16" r="1"/>
	<circle style="fill:#556080;" cx="24" cy="19" r="1"/>
	<circle style="fill:#556080;" cx="30" cy="19" r="1"/>
	<circle style="fill:#556080;" cx="33" cy="16" r="1"/>
	<circle style="fill:#556080;" cx="39" cy="16" r="1"/>
	<circle style="fill:#556080;" cx="36" cy="19" r="1"/>
	<circle style="fill:#556080;" cx="42" cy="19" r="1"/>
	<circle style="fill:#556080;" cx="45" cy="16" r="1"/>
	<circle style="fill:#556080;" cx="48" cy="19" r="1"/>
	<circle style="fill:#556080;" cx="9" cy="22" r="1"/>
	<circle style="fill:#556080;" cx="15" cy="22" r="1"/>
	<circle style="fill:#556080;" cx="12" cy="25" r="1"/>
	<circle style="fill:#556080;" cx="18" cy="25" r="1"/>
	<circle style="fill:#556080;" cx="18" cy="31" r="1"/>
	<circle style="fill:#556080;" cx="21" cy="22" r="1"/>
	<circle style="fill:#556080;" cx="27" cy="22" r="1"/>
	<circle style="fill:#556080;" cx="21" cy="28" r="1"/>
	<circle style="fill:#556080;" cx="27" cy="28" r="1"/>
	<circle style="fill:#556080;" cx="24" cy="25" r="1"/>
	<circle style="fill:#556080;" cx="30" cy="25" r="1"/>
	<circle style="fill:#556080;" cx="24" cy="31" r="1"/>
	<circle style="fill:#556080;" cx="30" cy="31" r="1"/>
	<circle style="fill:#556080;" cx="33" cy="22" r="1"/>
	<circle style="fill:#556080;" cx="39" cy="22" r="1"/>
	<circle style="fill:#556080;" cx="33" cy="28" r="1"/>
	<circle style="fill:#556080;" cx="39" cy="28" r="1"/>
	<circle style="fill:#556080;" cx="36" cy="25" r="1"/>
	<circle style="fill:#556080;" cx="42" cy="25" r="1"/>
	<circle style="fill:#556080;" cx="36" cy="31" r="1"/>
	<circle style="fill:#556080;" cx="42" cy="31" r="1"/>
	<circle style="fill:#556080;" cx="45" cy="22" r="1"/>
	<circle style="fill:#556080;" cx="48" cy="25" r="1"/>
</g>
<path style="fill:#3B4763;" d="M51.193,34h-7.386C42.809,34,42,33.191,42,32.193v-4.386C42,26.809,42.809,26,43.807,26h7.386
	C52.191,26,53,26.809,53,27.807v4.386C53,33.191,52.191,34,51.193,34z"/>
<path style="fill:#3B4763;" d="M14.193,34H6.807C5.809,34,5,33.191,5,32.193v-4.386C5,26.809,5.809,26,6.807,26h7.386
	C15.191,26,16,26.809,16,27.807v4.386C16,33.191,15.191,34,14.193,34z"/>
<g>
</g>
<g>
</g>
<g>
</g>
<g>
</g>
<g>
</g>
<g>
</g>
<g>
</g>
<g>
</g>
<g>
</g>
<g>
</g>
<g>
</g>
<g>
</g>
<g>
</g>
<g>
</g>
<g>
</g>
</svg>
