<?xml version="1.0" encoding="iso-8859-1"?>
<!-- Generator: Adobe Illustrator 18.0.0, SVG Export Plug-In . SVG Version: 6.00 Build 0)  -->
<!DOCTYPE svg PUBLIC "-//W3C//DTD SVG 1.1//EN" "http://www.w3.org/Graphics/SVG/1.1/DTD/svg11.dtd">
<svg version="1.1" id="Capa_1" xmlns="http://www.w3.org/2000/svg" xmlns:xlink="http://www.w3.org/1999/xlink" x="0px" y="0px"
	 viewBox="0 0 58 58" style="enable-background:new 0 0 58 58;" xml:space="preserve">
<polygon style="fill:#D75D2B;" points="51,33.5 7,33.5 12,27.5 46,27.5 "/>
<rect x="12" y="11.5" style="fill:#C45121;" width="34" height="16"/>
<g>
	<circle style="fill:#5F2C18;" cx="33" cy="18.5" r="1"/>
	<circle style="fill:#5F2C18;" cx="35" cy="21.5" r="1"/>
	<circle style="fill:#5F2C18;" cx="39" cy="21.5" r="1"/>
	<circle style="fill:#5F2C18;" cx="37" cy="18.5" r="1"/>
	<circle style="fill:#5F2C18;" cx="41" cy="18.5" r="1"/>
	<circle style="fill:#5F2C18;" cx="16" cy="18.5" r="1"/>
	<circle style="fill:#5F2C18;" cx="18" cy="21.5" r="1"/>
	<circle style="fill:#5F2C18;" cx="22" cy="21.5" r="1"/>
	<circle style="fill:#5F2C18;" cx="20" cy="18.5" r="1"/>
	<circle style="fill:#5F2C18;" cx="24" cy="18.5" r="1"/>
</g>
<polygon style="fill:#CC5D2F;" points="7,16.5 0,16.5 5,11.5 12,11.5 "/>
<polygon style="fill:#8B2F0A;" points="12,27.5 7,33.5 7,16.5 12,11.5 "/>
<polygon style="fill:#CC5D2F;" points="51,16.5 58,16.5 53,11.5 46,11.5 "/>
<polygon style="fill:#8B2F0A;" points="46,27.5 51,33.5 51,16.5 46,11.5 "/>
<polygon style="fill:#BA4615;" points="51,16.5 51,33.5 7,33.5 7,16.5 0,16.5 0,42.5 7,42.5 51,42.5 58,42.5 58,16.5 "/>
<rect x="4" y="42.5" style="fill:#BFA380;" width="6" height="4"/>
<rect x="48" y="42.5" style="fill:#BFA380;" width="6" height="4"/>
<rect x="7" y="33.5" style="fill:#8B2F0A;" width="44" height="4"/>
<rect x="27" y="11.5" style="fill:#B24620;" width="2" height="16"/>
<rect x="27" y="27.5" style="fill:#C65128;" width="2" height="6"/>
<rect x="27" y="33.5" style="fill:#7A280B;" width="2" height="4"/>
<g>
</g>
<g>
</g>
<g>
</g>
<g>
</g>
<g>
</g>
<g>
</g>
<g>
</g>
<g>
</g>
<g>
</g>
<g>
</g>
<g>
</g>
<g>
</g>
<g>
</g>
<g>
</g>
<g>
</g>
</svg>
