<?xml version="1.0" encoding="iso-8859-1"?>
<!-- Generator: Adobe Illustrator 18.0.0, SVG Export Plug-In . SVG Version: 6.00 Build 0)  -->
<!DOCTYPE svg PUBLIC "-//W3C//DTD SVG 1.1//EN" "http://www.w3.org/Graphics/SVG/1.1/DTD/svg11.dtd">
<svg version="1.1" id="Capa_1" xmlns="http://www.w3.org/2000/svg" xmlns:xlink="http://www.w3.org/1999/xlink" x="0px" y="0px"
	 viewBox="0 0 60 60" style="enable-background:new 0 0 60 60;" xml:space="preserve">
<polygon style="fill:#E9E9E7;" points="59,9.5 50,9.5 50,17.5 41,17.5 41,25.5 32,25.5 32,33.5 23,33.5 23,41.5 14,41.5 14,49.5 
	5,49.5 5,57.5 15,57.5 59,57.5 "/>
<rect x="5" y="2.5" style="fill:#FFFFFF;stroke:#556080;stroke-width:2;stroke-linecap:round;stroke-miterlimit:10;" width="14" height="16"/>
<rect x="8" y="5.5" style="fill:#EFCE4A;" width="8" height="10"/>
<path style="fill:#6B5B4B;" d="M59,8.5h-9h-1h-1c-0.552,0-1,0.447-1,1s0.448,1,1,1h1v6h-8h-1h-1c-0.552,0-1,0.447-1,1s0.448,1,1,1h1
	v6h-8h-1h-1c-0.552,0-1,0.447-1,1s0.448,1,1,1h1v6h-8h-1h-1c-0.552,0-1,0.447-1,1s0.448,1,1,1h1v6h-8h-1h-1c-0.552,0-1,0.447-1,1
	s0.448,1,1,1h1v6H5H4H3c-0.552,0-1,0.447-1,1s0.448,1,1,1h1v6H1c-0.552,0-1,0.447-1,1s0.448,1,1,1h4c0.552,0,1-0.447,1-1v-7h9v-8h9
	v-8h9v-8h9v-8h9v-8h8c0.552,0,1-0.447,1-1S59.552,8.5,59,8.5z"/>
<g>
</g>
<g>
</g>
<g>
</g>
<g>
</g>
<g>
</g>
<g>
</g>
<g>
</g>
<g>
</g>
<g>
</g>
<g>
</g>
<g>
</g>
<g>
</g>
<g>
</g>
<g>
</g>
<g>
</g>
</svg>
