<?xml version="1.0" encoding="iso-8859-1"?>
<!-- Generator: Adobe Illustrator 18.0.0, SVG Export Plug-In . SVG Version: 6.00 Build 0)  -->
<!DOCTYPE svg PUBLIC "-//W3C//DTD SVG 1.1//EN" "http://www.w3.org/Graphics/SVG/1.1/DTD/svg11.dtd">
<svg version="1.1" id="Capa_1" xmlns="http://www.w3.org/2000/svg" xmlns:xlink="http://www.w3.org/1999/xlink" x="0px" y="0px"
	 viewBox="0 0 59 59" style="enable-background:new 0 0 59 59;" xml:space="preserve">
<rect x="27.5" y="23.036" style="fill:#C7CAC7;" width="6" height="21.964"/>
<rect x="28.5" y="45" style="fill:#839594;" width="4" height="4"/>
<path style="fill:#C7CAC7;" d="M43.5,58h-26v0c4.971,0,9-4.029,9-9h8C34.5,53.971,38.529,58,43.5,58L43.5,58z"/>
<polyline style="fill:none;stroke:#AFB6BB;stroke-width:2;stroke-linecap:round;stroke-miterlimit:10;" points="47.5,58 42.5,58 
	18.5,58 13.5,58 "/>
<path style="fill:#E7ECED;" d="M33.726,57c-0.538-0.929-0.956-1.937-1.23-3v-5h-2v5h0.01c-0.274,1.063-0.692,2.071-1.23,3H33.726z"
	/>
<rect x="30.5" y="23" style="fill:#E7ECED;" width="2" height="22"/>
<line style="fill:none;stroke:#38454F;stroke-width:2;stroke-linecap:round;stroke-miterlimit:10;" x1="35.5" y1="23" x2="41.5" y2="29"/>
<line style="fill:none;stroke:#38454F;stroke-width:2;stroke-linecap:round;stroke-miterlimit:10;" x1="41.5" y1="29" x2="44.5" y2="29"/>
<path style="fill:#EBEBEB;" d="M49.991,0.023c-2.153-0.205-4.06,0.956-4.954,2.719c-0.228,0.449-0.852,0.437-1.081-0.012
	C43.129,1.11,41.444,0,39.5,0c-1.943,0-3.628,1.109-4.455,2.728c-0.232,0.454-0.857,0.454-1.089,0C33.128,1.109,31.443,0,29.5,0
	s-3.628,1.109-4.455,2.728c-0.232,0.454-0.857,0.454-1.089,0C23.128,1.109,21.443,0,19.5,0c-1.944,0-3.629,1.11-4.456,2.73
	c-0.229,0.448-0.854,0.461-1.081,0.012c-0.893-1.762-2.8-2.924-4.954-2.719C6.409,0.271,4.5,2.603,4.5,5.215l0,8.873
	C4.5,17.905,7.595,21,11.413,21h36.175c3.818,0,6.913-3.095,6.913-6.913V5.215C54.5,2.603,52.591,0.271,49.991,0.023z"/>
<rect x="24.5" y="21" style="fill:#556080;" width="12" height="4"/>
<g>
</g>
<g>
</g>
<g>
</g>
<g>
</g>
<g>
</g>
<g>
</g>
<g>
</g>
<g>
</g>
<g>
</g>
<g>
</g>
<g>
</g>
<g>
</g>
<g>
</g>
<g>
</g>
<g>
</g>
</svg>
