<?xml version="1.0" encoding="iso-8859-1"?>
<!-- Generator: Adobe Illustrator 18.0.0, SVG Export Plug-In . SVG Version: 6.00 Build 0)  -->
<!DOCTYPE svg PUBLIC "-//W3C//DTD SVG 1.1//EN" "http://www.w3.org/Graphics/SVG/1.1/DTD/svg11.dtd">
<svg version="1.1" id="Capa_1" xmlns="http://www.w3.org/2000/svg" xmlns:xlink="http://www.w3.org/1999/xlink" x="0px" y="0px"
	 viewBox="0 0 50 50" style="enable-background:new 0 0 50 50;" xml:space="preserve">
<path style="fill:#DD352E;" d="M25,0C13.954,0,5,2.91,5,6.5h40C45,2.91,36.046,0,25,0z"/>
<path style="fill:#BE6E41;" d="M41.5,12H40l0.158,6H9.842L10,12H8.5c-0.978,0-1.863-0.409-2.5-1.062v37.875
	C6,49.469,6.531,50,7.187,50h0.657c0.643,0,1.17-0.513,1.187-1.156L9.737,22h30.526l0.706,26.844C40.987,49.487,41.513,50,42.156,50
	h0.657C43.469,50,44,49.469,44,48.813V10.938C43.363,11.591,42.478,12,41.5,12z"/>
<g>
	<rect x="33" y="12" style="fill:#6B4842;" width="3" height="6"/>
	<path style="fill:#6B4842;" d="M33,22v21.813C33,44.469,33.531,45,34.187,45h0.626C35.469,45,36,44.469,36,43.813V22H33z"/>
</g>
<g>
	<rect x="14" y="12" style="fill:#6B4842;" width="3" height="6"/>
	<path style="fill:#6B4842;" d="M14,22v21.813C14,44.469,14.531,45,15.187,45h0.626C16.469,45,17,44.469,17,43.813V22H14z"/>
</g>
<path style="fill:#B02721;" d="M42.5,12h-35C5.575,12,4,10.425,4,8.5v0C4,6.575,5.575,5,7.5,5h35C44.425,5,46,6.575,46,8.5v0
	C46,10.425,44.425,12,42.5,12z"/>
<g>
</g>
<g>
</g>
<g>
</g>
<g>
</g>
<g>
</g>
<g>
</g>
<g>
</g>
<g>
</g>
<g>
</g>
<g>
</g>
<g>
</g>
<g>
</g>
<g>
</g>
<g>
</g>
<g>
</g>
</svg>
