<?xml version="1.0" encoding="iso-8859-1"?>
<!-- Generator: Adobe Illustrator 18.0.0, SVG Export Plug-In . SVG Version: 6.00 Build 0)  -->
<!DOCTYPE svg PUBLIC "-//W3C//DTD SVG 1.1//EN" "http://www.w3.org/Graphics/SVG/1.1/DTD/svg11.dtd">
<svg version="1.1" id="Capa_1" xmlns="http://www.w3.org/2000/svg" xmlns:xlink="http://www.w3.org/1999/xlink" x="0px" y="0px"
	 viewBox="0 0 56 56" style="enable-background:new 0 0 56 56;" xml:space="preserve">
<path style="fill:#DD352E;" d="M48.491,0.023C45.509-0.261,43,2.077,43,5c0-2.761-2.239-5-5-5s-5,2.239-5,5c0-2.761-2.239-5-5-5
	s-5,2.239-5,5c0-2.761-2.239-5-5-5s-5,2.239-5,5c0-2.923-2.509-5.261-5.491-4.977C4.909,0.271,3,2.603,3,5.215l0,11.417
	C3,17.388,3.612,18,4.368,18h47.265C52.388,18,53,17.388,53,16.632V5.215C53,2.603,51.091,0.271,48.491,0.023z"/>
<path style="fill:#BFA380;" d="M51.632,18H4.368C3.612,18,3,17.388,3,16.632V14h50v2.632C53,17.388,52.388,18,51.632,18z"/>
<path style="fill:#C7CAC7;" d="M47,56c-0.553,0-1-0.447-1-1v-3c0-0.553,0.447-1,1-1s1,0.447,1,1v3C48,55.553,47.553,56,47,56z"/>
<path style="fill:#C7CAC7;" d="M48,56h-2c-0.553,0-1-0.447-1-1s0.447-1,1-1h2c0.553,0,1,0.447,1,1S48.553,56,48,56z"/>
<path style="fill:#C7CAC7;" d="M9,56c-0.552,0-1-0.447-1-1v-3c0-0.553,0.448-1,1-1s1,0.447,1,1v3C10,55.553,9.552,56,9,56z"/>
<path style="fill:#C7CAC7;" d="M10,56H8c-0.552,0-1-0.447-1-1s0.448-1,1-1h2c0.552,0,1,0.447,1,1S10.552,56,10,56z"/>
<polygon style="fill:#A88F71;" points="45,18 45,25 11,25 11,18 7,18 7,52 11,52 11,29 45,29 45,52 49,52 49,18 "/>
<g>
</g>
<g>
</g>
<g>
</g>
<g>
</g>
<g>
</g>
<g>
</g>
<g>
</g>
<g>
</g>
<g>
</g>
<g>
</g>
<g>
</g>
<g>
</g>
<g>
</g>
<g>
</g>
<g>
</g>
</svg>
