<?xml version="1.0" encoding="iso-8859-1"?>
<!-- Generator: Adobe Illustrator 18.0.0, SVG Export Plug-In . SVG Version: 6.00 Build 0)  -->
<!DOCTYPE svg PUBLIC "-//W3C//DTD SVG 1.1//EN" "http://www.w3.org/Graphics/SVG/1.1/DTD/svg11.dtd">
<svg version="1.1" id="Capa_1" xmlns="http://www.w3.org/2000/svg" xmlns:xlink="http://www.w3.org/1999/xlink" x="0px" y="0px"
	 viewBox="0 0 58 58" style="enable-background:new 0 0 58 58;" xml:space="preserve">
<rect style="fill:#556080;" width="58" height="58"/>
<circle style="fill:#D1C17C;" cx="15" cy="53" r="3"/>
<circle style="fill:#D1C17C;" cx="24" cy="53" r="3"/>
<circle style="fill:#D1C17C;" cx="34" cy="53" r="3"/>
<circle style="fill:#D1C17C;" cx="43" cy="53" r="3"/>
<circle style="fill:#CC4B4C;stroke:#CC4B4C;stroke-width:2;stroke-linecap:round;stroke-linejoin:round;stroke-miterlimit:10;" cx="16" cy="14" r="10"/>
<circle style="fill:#CC4B4C;stroke:#CC4B4C;stroke-width:2;stroke-linecap:round;stroke-linejoin:round;stroke-miterlimit:10;" cx="42" cy="35" r="8"/>
<circle style="fill:#6C2027;" cx="10" cy="11" r="1"/>
<circle style="fill:#6C2027;" cx="16" cy="11" r="1"/>
<circle style="fill:#6C2027;" cx="13" cy="8" r="1"/>
<circle style="fill:#6C2027;" cx="19" cy="8" r="1"/>
<circle style="fill:#6C2027;" cx="13" cy="14" r="1"/>
<circle style="fill:#6C2027;" cx="19" cy="14" r="1"/>
<circle style="fill:#6C2027;" cx="22" cy="11" r="1"/>
<circle style="fill:#6C2027;" cx="25" cy="14" r="1"/>
<circle style="fill:#6C2027;" cx="7" cy="14" r="1"/>
<circle style="fill:#6C2027;" cx="39" cy="32" r="1"/>
<circle style="fill:#6C2027;" cx="42" cy="29" r="1"/>
<circle style="fill:#6C2027;" cx="36" cy="35" r="1"/>
<circle style="fill:#6C2027;" cx="42" cy="35" r="1"/>
<circle style="fill:#6C2027;" cx="45" cy="32" r="1"/>
<circle style="fill:#6C2027;" cx="48" cy="35" r="1"/>
<circle style="fill:#6C2027;" cx="10" cy="17" r="1"/>
<circle style="fill:#6C2027;" cx="16" cy="17" r="1"/>
<circle style="fill:#6C2027;" cx="16" cy="23" r="1"/>
<circle style="fill:#6C2027;" cx="16" cy="5" r="1"/>
<circle style="fill:#6C2027;" cx="13" cy="20" r="1"/>
<circle style="fill:#6C2027;" cx="19" cy="20" r="1"/>
<circle style="fill:#6C2027;" cx="22" cy="17" r="1"/>
<circle style="fill:#CC4B4C;stroke:#CC4B4C;stroke-width:2;stroke-linecap:round;stroke-linejoin:round;stroke-miterlimit:10;" cx="42" cy="14" r="10"/>
<circle style="fill:#6C2027;" cx="36" cy="11" r="1"/>
<circle style="fill:#6C2027;" cx="42" cy="11" r="1"/>
<circle style="fill:#6C2027;" cx="39" cy="8" r="1"/>
<circle style="fill:#6C2027;" cx="45" cy="8" r="1"/>
<circle style="fill:#6C2027;" cx="39" cy="14" r="1"/>
<circle style="fill:#6C2027;" cx="45" cy="14" r="1"/>
<circle style="fill:#6C2027;" cx="48" cy="11" r="1"/>
<circle style="fill:#6C2027;" cx="51" cy="14" r="1"/>
<circle style="fill:#6C2027;" cx="33" cy="14" r="1"/>
<circle style="fill:#6C2027;" cx="36" cy="17" r="1"/>
<circle style="fill:#6C2027;" cx="42" cy="17" r="1"/>
<circle style="fill:#6C2027;" cx="42" cy="23" r="1"/>
<circle style="fill:#6C2027;" cx="42" cy="5" r="1"/>
<circle style="fill:#6C2027;" cx="39" cy="20" r="1"/>
<circle style="fill:#6C2027;" cx="45" cy="20" r="1"/>
<circle style="fill:#6C2027;" cx="48" cy="17" r="1"/>
<circle style="fill:#6C2027;" cx="39" cy="38" r="1"/>
<circle style="fill:#6C2027;" cx="42" cy="41" r="1"/>
<circle style="fill:#6C2027;" cx="45" cy="38" r="1"/>
<circle style="fill:#CC4B4C;stroke:#CC4B4C;stroke-width:2;stroke-linecap:round;stroke-linejoin:round;stroke-miterlimit:10;" cx="16" cy="35" r="8"/>
<circle style="fill:#6C2027;" cx="13" cy="32" r="1"/>
<circle style="fill:#6C2027;" cx="16" cy="29" r="1"/>
<circle style="fill:#6C2027;" cx="10" cy="35" r="1"/>
<circle style="fill:#6C2027;" cx="16" cy="35" r="1"/>
<circle style="fill:#6C2027;" cx="19" cy="32" r="1"/>
<circle style="fill:#6C2027;" cx="22" cy="35" r="1"/>
<circle style="fill:#6C2027;" cx="13" cy="38" r="1"/>
<circle style="fill:#6C2027;" cx="16" cy="41" r="1"/>
<circle style="fill:#6C2027;" cx="19" cy="38" r="1"/>
<circle style="fill:#F2ECBF;" cx="15" cy="51" r="3"/>
<circle style="fill:#F2ECBF;" cx="24" cy="51" r="3"/>
<circle style="fill:#F2ECBF;" cx="34" cy="51" r="3"/>
<circle style="fill:#F2ECBF;" cx="43" cy="51" r="3"/>
<g>
</g>
<g>
</g>
<g>
</g>
<g>
</g>
<g>
</g>
<g>
</g>
<g>
</g>
<g>
</g>
<g>
</g>
<g>
</g>
<g>
</g>
<g>
</g>
<g>
</g>
<g>
</g>
<g>
</g>
</svg>
