<?xml version="1.0" encoding="iso-8859-1"?>
<!-- Generator: Adobe Illustrator 18.0.0, SVG Export Plug-In . SVG Version: 6.00 Build 0)  -->
<!DOCTYPE svg PUBLIC "-//W3C//DTD SVG 1.1//EN" "http://www.w3.org/Graphics/SVG/1.1/DTD/svg11.dtd">
<svg version="1.1" id="Capa_1" xmlns="http://www.w3.org/2000/svg" xmlns:xlink="http://www.w3.org/1999/xlink" x="0px" y="0px"
	 viewBox="0 0 57 57" style="enable-background:new 0 0 57 57;" xml:space="preserve">
<path style="fill:#F5EEE4;" d="M47.83,57H9.17c-1.475,0-2.67-1.195-2.67-2.67V4.67C6.5,3.195,7.695,2,9.17,2h38.66
	c1.475,0,2.67,1.195,2.67,2.67v49.66C50.5,55.805,49.305,57,47.83,57z"/>
<circle style="fill:#928A7F;" cx="13.5" cy="9" r="3"/>
<circle style="fill:#928A7F;" cx="23.5" cy="9" r="3"/>
<circle style="fill:#928A7F;" cx="33.5" cy="9" r="3"/>
<circle style="fill:#928A7F;" cx="43.5" cy="9" r="3"/>
<rect x="6.5" y="16" style="fill:#BCB3AA;" width="44" height="33"/>
<path style="fill:#806D5F;" d="M19.5,2h-8c-0.552,0-1-0.447-1-1s0.448-1,1-1h8c0.552,0,1,0.447,1,1S20.052,2,19.5,2z"/>
<path style="fill:#806D5F;" d="M46.5,2h-18c-0.552,0-1-0.447-1-1s0.448-1,1-1h18c0.552,0,1,0.447,1,1S47.052,2,46.5,2z"/>
<path style="fill:#806D5F;" d="M45.5,19c-0.552,0-1,0.447-1,1h-32c0-0.553-0.448-1-1-1s-1,0.447-1,1c0,1.103,0.897,2,2,2h32
	c1.103,0,2-0.897,2-2C46.5,19.447,46.052,19,45.5,19z"/>
<path style="fill:#5D5854;" d="M43.362,45H13.638c-1.726,0-3.138-1.412-3.138-3.138V28.138c0-1.726,1.412-3.138,3.138-3.138h29.724
	c1.726,0,3.138,1.412,3.138,3.138v13.724C46.5,43.588,45.088,45,43.362,45z"/>
<g>
	<circle style="fill:#603D26;" cx="13.5" cy="27" r="1"/>
	<circle style="fill:#603D26;" cx="13.5" cy="33" r="1"/>
	<circle style="fill:#603D26;" cx="16.5" cy="30" r="1"/>
	<circle style="fill:#603D26;" cx="16.5" cy="36" r="1"/>
	<circle style="fill:#603D26;" cx="19.5" cy="27" r="1"/>
	<circle style="fill:#603D26;" cx="25.5" cy="27" r="1"/>
	<circle style="fill:#603D26;" cx="19.5" cy="33" r="1"/>
	<circle style="fill:#603D26;" cx="25.5" cy="33" r="1"/>
	<circle style="fill:#603D26;" cx="22.5" cy="30" r="1"/>
	<circle style="fill:#603D26;" cx="28.5" cy="30" r="1"/>
	<circle style="fill:#603D26;" cx="22.5" cy="36" r="1"/>
	<circle style="fill:#603D26;" cx="28.5" cy="36" r="1"/>
	<circle style="fill:#603D26;" cx="31.5" cy="27" r="1"/>
	<circle style="fill:#603D26;" cx="37.5" cy="27" r="1"/>
	<circle style="fill:#603D26;" cx="31.5" cy="33" r="1"/>
	<circle style="fill:#603D26;" cx="37.5" cy="33" r="1"/>
	<circle style="fill:#603D26;" cx="34.5" cy="30" r="1"/>
	<circle style="fill:#603D26;" cx="40.5" cy="30" r="1"/>
	<circle style="fill:#603D26;" cx="34.5" cy="36" r="1"/>
	<circle style="fill:#603D26;" cx="40.5" cy="36" r="1"/>
	<circle style="fill:#603D26;" cx="43.5" cy="27" r="1"/>
	<circle style="fill:#603D26;" cx="43.5" cy="33" r="1"/>
	<circle style="fill:#603D26;" cx="13.5" cy="39" r="1"/>
	<circle style="fill:#603D26;" cx="16.5" cy="42" r="1"/>
	<circle style="fill:#603D26;" cx="19.5" cy="39" r="1"/>
	<circle style="fill:#603D26;" cx="25.5" cy="39" r="1"/>
	<circle style="fill:#603D26;" cx="22.5" cy="42" r="1"/>
	<circle style="fill:#603D26;" cx="28.5" cy="42" r="1"/>
	<circle style="fill:#603D26;" cx="31.5" cy="39" r="1"/>
	<circle style="fill:#603D26;" cx="37.5" cy="39" r="1"/>
	<circle style="fill:#603D26;" cx="34.5" cy="42" r="1"/>
	<circle style="fill:#603D26;" cx="40.5" cy="42" r="1"/>
	<circle style="fill:#603D26;" cx="43.5" cy="39" r="1"/>
</g>
<g>
</g>
<g>
</g>
<g>
</g>
<g>
</g>
<g>
</g>
<g>
</g>
<g>
</g>
<g>
</g>
<g>
</g>
<g>
</g>
<g>
</g>
<g>
</g>
<g>
</g>
<g>
</g>
<g>
</g>
</svg>
