<?xml version="1.0" encoding="iso-8859-1"?>
<!-- Generator: Adobe Illustrator 18.0.0, SVG Export Plug-In . SVG Version: 6.00 Build 0)  -->
<!DOCTYPE svg PUBLIC "-//W3C//DTD SVG 1.1//EN" "http://www.w3.org/Graphics/SVG/1.1/DTD/svg11.dtd">
<svg version="1.1" id="Capa_1" xmlns="http://www.w3.org/2000/svg" xmlns:xlink="http://www.w3.org/1999/xlink" x="0px" y="0px"
	 viewBox="0 0 59 59" style="enable-background:new 0 0 59 59;" xml:space="preserve">
<polygon style="fill:#382016;" points="13,59 11,59 12,53 16,53 "/>
<polygon style="fill:#382016;" points="47,59 49,59 48,53 44,53 "/>
<path style="fill:#553323;stroke:#382016;stroke-width:2;stroke-miterlimit:10;" d="M51.5,53h-44C5.025,53,3,50.975,3,48.5v0
	C3,46.025,5.025,44,7.5,44h44c2.475,0,4.5,2.025,4.5,4.5v0C56,50.975,53.975,53,51.5,53z"/>
<circle style="fill:#F0D64E;" cx="21.5" cy="48.5" r="1.5"/>
<circle style="fill:#F0D64E;" cx="37.5" cy="48.5" r="1.5"/>
<polygon style="fill:none;stroke:#556080;stroke-width:2;stroke-linecap:round;stroke-miterlimit:10;" points="13,1 13,27 25,27 
	33,27 46,27 46,1 "/>
<polygon style="fill:#CB465F;" points="18,6 18,22 26,22 32,22 41,22 41,6 "/>
<line style="fill:none;stroke:#88C057;stroke-width:2;stroke-linecap:round;stroke-miterlimit:10;" x1="29.6" y1="37" x2="29.6" y2="32"/>
<path style="fill:#DD352E;" d="M29.6,25h-3v4c0,1.65,1.35,3,3,3V25z"/>
<path style="fill:#B02721;" d="M29.6,25h3v4c0,1.65-1.35,3-3,3V25z"/>
<path style="fill:#3BA58B;" d="M31.6,37L31.6,37L28,37v0c-0.283,1.13-0.965,2.089-1.82,2.88c-0.437,0.405-0.675,1.022-0.544,1.683
	C25.806,42.417,26.608,43,27.479,43h4.642c0.871,0,1.673-0.583,1.843-1.437c0.131-0.661-0.106-1.278-0.544-1.683
	C32.565,39.089,31.883,38.13,31.6,37z"/>
<g>
</g>
<g>
</g>
<g>
</g>
<g>
</g>
<g>
</g>
<g>
</g>
<g>
</g>
<g>
</g>
<g>
</g>
<g>
</g>
<g>
</g>
<g>
</g>
<g>
</g>
<g>
</g>
<g>
</g>
</svg>
