<?xml version="1.0" encoding="iso-8859-1"?>
<!-- Generator: Adobe Illustrator 18.0.0, SVG Export Plug-In . SVG Version: 6.00 Build 0)  -->
<!DOCTYPE svg PUBLIC "-//W3C//DTD SVG 1.1//EN" "http://www.w3.org/Graphics/SVG/1.1/DTD/svg11.dtd">
<svg version="1.1" id="Capa_1" xmlns="http://www.w3.org/2000/svg" xmlns:xlink="http://www.w3.org/1999/xlink" x="0px" y="0px"
	 viewBox="0 0 58 58" style="enable-background:new 0 0 58 58;" xml:space="preserve">
<rect y="28.5" style="fill:#6B5B4B;" width="5" height="5"/>
<rect x="53" y="28.5" style="fill:#6B5B4B;" width="5" height="5"/>
<rect x="1" y="33.5" style="fill:#BFA380;" width="3" height="24"/>
<rect x="54" y="33.5" style="fill:#BFA380;" width="3" height="24"/>
<path style="fill:#DD352E;" d="M4,24.5c0,0.083,29,14,29,14l22-14H4z"/>
<g>
	<polygon style="fill:#BFA380;" points="55,24.5 48.714,28.5 58,28.5 58,24.5 	"/>
	<path style="fill:#BFA380;" d="M4,24.5H0v4h12.209C7.574,26.263,4,24.529,4,24.5z"/>
</g>
<path style="fill:#EFCE4A;" d="M47.143,24.5h-32.86c8.34,4.02,18.717,9,18.717,9L47.143,24.5z"/>
<path style="fill:#88C057;" d="M29,16.5c-0.552,0-1-0.447-1-1v-8c0-0.553,0.448-1,1-1s1,0.447,1,1v8C30,16.053,29.552,16.5,29,16.5z
	"/>
<path style="fill:#88C057;" d="M29,14.5c-0.256,0-0.512-0.098-0.707-0.293l-2-2c-0.391-0.391-0.391-1.023,0-1.414
	s1.023-0.391,1.414,0l2,2c0.391,0.391,0.391,1.023,0,1.414C29.512,14.402,29.256,14.5,29,14.5z"/>
<path style="fill:#88C057;" d="M29,12.5c-0.256,0-0.512-0.098-0.707-0.293c-0.391-0.391-0.391-1.023,0-1.414l2-2
	c0.391-0.391,1.023-0.391,1.414,0s0.391,1.023,0,1.414l-2,2C29.512,12.402,29.256,12.5,29,12.5z"/>
<path style="fill:#EEAF4B;" d="M26.025,15.5C25.39,17.093,25,17.192,25,19.5c0,4.97,1.791,5,4,5s4-0.03,4-5
	c0-2.308-0.39-2.407-1.025-4H26.025z"/>
<path style="fill:#DD352E;" d="M29,0.5h-3v5c0,1.65,1.35,3,3,3V0.5z"/>
<path style="fill:#B02721;" d="M29,2.5h3v2c0,1.65-1.35,3-3,3V2.5z"/>
<g>
</g>
<g>
</g>
<g>
</g>
<g>
</g>
<g>
</g>
<g>
</g>
<g>
</g>
<g>
</g>
<g>
</g>
<g>
</g>
<g>
</g>
<g>
</g>
<g>
</g>
<g>
</g>
<g>
</g>
</svg>
