<?xml version="1.0" encoding="iso-8859-1"?>
<!-- Generator: Adobe Illustrator 18.0.0, SVG Export Plug-In . SVG Version: 6.00 Build 0)  -->
<!DOCTYPE svg PUBLIC "-//W3C//DTD SVG 1.1//EN" "http://www.w3.org/Graphics/SVG/1.1/DTD/svg11.dtd">
<svg version="1.1" id="Capa_1" xmlns="http://www.w3.org/2000/svg" xmlns:xlink="http://www.w3.org/1999/xlink" x="0px" y="0px"
	 viewBox="0 0 58 58" style="enable-background:new 0 0 58 58;" xml:space="preserve">
<path style="fill:#BFA380;" d="M56,26.5H2c-1.1,0-2-0.9-2-2v0c0-1.1,0.9-2,2-2h54c1.1,0,2,0.9,2,2v0C58,25.6,57.1,26.5,56,26.5z"/>
<path style="fill:#C7CAC7;" d="M11,22.5H3c-0.552,0-1-0.447-1-1s0.448-1,1-1h8c0.552,0,1,0.447,1,1S11.552,22.5,11,22.5z"/>
<path style="fill:#C7CAC7;" d="M55,22.5h-8c-0.552,0-1-0.447-1-1s0.448-1,1-1h8c0.552,0,1,0.447,1,1S55.552,22.5,55,22.5z"/>
<path style="fill:#88C057;" d="M33.707,10.793c-0.391-0.391-1.023-0.391-1.414,0L31,12.086V8.5c0-0.553-0.448-1-1-1s-1,0.447-1,1v8
	c0,0.553,0.448,1,1,1s1-0.447,1-1v-1.586l2.707-2.707C34.098,11.816,34.098,11.184,33.707,10.793z"/>
<g>
	<path style="fill:#553323;" d="M3,26.5v15c0,9.5-3,15-3,15c7,0,7-15,7-15v-3.486c0-5.027,3.365-9.432,8.214-10.755L18,26.5H3z"/>
</g>
<g>
	<path style="fill:#553323;" d="M55,26.5v15c0,9.5,3,15,3,15c-7,0-7-15-7-15v-3.486c0-5.027-3.365-9.432-8.214-10.755L40,26.5H55z"
		/>
</g>
<path style="fill:#DD352E;" d="M30,1.5h-3v4c0,1.65,1.35,3,3,3V1.5z"/>
<path style="fill:#B02721;" d="M30,2.5h3v3c0,1.65-1.35,3-3,3V2.5z"/>
<path style="fill:#C7CAC7;" d="M31.8,16.5L31.8,16.5l-3.6,0v0c-0.283,1.13-0.965,2.089-1.82,2.88
	c-0.437,0.405-0.675,1.022-0.544,1.683c0.169,0.854,0.972,1.437,1.843,1.437h4.642c0.871,0,1.673-0.583,1.843-1.437
	c0.131-0.661-0.106-1.278-0.544-1.683C32.765,18.589,32.083,17.63,31.8,16.5z"/>
<g>
</g>
<g>
</g>
<g>
</g>
<g>
</g>
<g>
</g>
<g>
</g>
<g>
</g>
<g>
</g>
<g>
</g>
<g>
</g>
<g>
</g>
<g>
</g>
<g>
</g>
<g>
</g>
<g>
</g>
</svg>
