<?xml version="1.0" encoding="iso-8859-1"?>
<!-- Generator: Adobe Illustrator 18.0.0, SVG Export Plug-In . SVG Version: 6.00 Build 0)  -->
<!DOCTYPE svg PUBLIC "-//W3C//DTD SVG 1.1//EN" "http://www.w3.org/Graphics/SVG/1.1/DTD/svg11.dtd">
<svg version="1.1" id="Capa_1" xmlns="http://www.w3.org/2000/svg" xmlns:xlink="http://www.w3.org/1999/xlink" x="0px" y="0px"
	 viewBox="0 0 60 60" style="enable-background:new 0 0 60 60;" xml:space="preserve">
<path style="fill:#553323;" d="M56,42.5v-21h-1h-3h-5v3c2.761,0,5,2.239,5,5v13c0,0,0,15,7,15C59,57.5,56,52,56,42.5z"/>
<path style="fill:#553323;" d="M4,42.5v-21h1h3h5v3c-2.761,0-5,2.239-5,5v13c0,0,0,15-7,15C1,57.5,4,52,4,42.5z"/>
<rect x="13" y="21.5" style="fill:#7D5C3E;" width="34" height="3"/>
<line style="fill:none;stroke:#88C057;stroke-width:2;stroke-linecap:round;stroke-miterlimit:10;" x1="31" y1="14.5" x2="31" y2="9.5"/>
<path style="fill:#DD352E;" d="M31,2.5h-3v4c0,1.65,1.35,3,3,3V2.5z"/>
<path style="fill:#B02721;" d="M31,2.5h3v4c0,1.65-1.35,3-3,3V2.5z"/>
<path style="fill:#BFA380;" d="M59,22.5H1c-0.553,0-1-0.447-1-1s0.447-1,1-1h58c0.553,0,1,0.447,1,1S59.553,22.5,59,22.5z"/>
<path style="fill:#3BA58B;" d="M33,14.5L33,14.5l-3.6,0v0c-0.283,1.13-0.965,2.089-1.82,2.88c-0.437,0.405-0.675,1.022-0.544,1.683
	c0.169,0.854,0.972,1.437,1.843,1.437h4.642c0.871,0,1.673-0.583,1.843-1.437c0.131-0.661-0.106-1.278-0.544-1.683
	C33.965,16.589,33.283,15.63,33,14.5z"/>
<g>
</g>
<g>
</g>
<g>
</g>
<g>
</g>
<g>
</g>
<g>
</g>
<g>
</g>
<g>
</g>
<g>
</g>
<g>
</g>
<g>
</g>
<g>
</g>
<g>
</g>
<g>
</g>
<g>
</g>
</svg>
