<?xml version="1.0" encoding="iso-8859-1"?>
<!-- Generator: Adobe Illustrator 18.0.0, SVG Export Plug-In . SVG Version: 6.00 Build 0)  -->
<!DOCTYPE svg PUBLIC "-//W3C//DTD SVG 1.1//EN" "http://www.w3.org/Graphics/SVG/1.1/DTD/svg11.dtd">
<svg version="1.1" id="Capa_1" xmlns="http://www.w3.org/2000/svg" xmlns:xlink="http://www.w3.org/1999/xlink" x="0px" y="0px"
	 viewBox="0 0 60 60" style="enable-background:new 0 0 60 60;" xml:space="preserve">
<polygon style="fill:#FBCE9D;" points="53,52 56,52 56,39 51,39 "/>
<polygon style="fill:#FBCE9D;" points="7,52 4,52 4,39 9,39 "/>
<rect x="1" y="33" style="fill:#553323;stroke:#382016;stroke-width:2;stroke-miterlimit:10;" width="58" height="6"/>
<rect x="20" y="28" style="fill:#7383BF;" width="12" height="4"/>
<rect x="22" y="24" style="fill:#EB7937;" width="12" height="4"/>
<rect x="20" y="20" style="fill:#1A9172;" width="12" height="4"/>
<path style="fill:#C7CAC7;stroke:#C7CAC7;stroke-width:2;stroke-linecap:round;stroke-miterlimit:10;" d="M57,27H43
	c1.105,0,4,0.895,4,2c0,0.449,0,2,0,2h6c0,0,0-1.551,0-2C53,27.895,55.895,27,57,27z"/>
<line style="fill:none;stroke:#949493;stroke-width:2;stroke-linecap:round;stroke-miterlimit:10;" x1="42" y1="27" x2="58" y2="27"/>
<line style="fill:none;stroke:#88C057;stroke-width:2;stroke-linecap:round;stroke-miterlimit:10;" x1="10" y1="23" x2="10" y2="15"/>
<line style="fill:none;stroke:#88C057;stroke-width:2;stroke-linecap:round;stroke-miterlimit:10;" x1="10" y1="21" x2="8" y2="19"/>
<line style="fill:none;stroke:#88C057;stroke-width:2;stroke-linecap:round;stroke-miterlimit:10;" x1="10" y1="19" x2="12" y2="17"/>
<path style="fill:#694F87;" d="M7.025,23C6.39,24.593,6,24.692,6,27c0,4.97,1.791,5,4,5s4-0.03,4-5c0-2.308-0.39-2.407-1.025-4
	H7.025z"/>
<path style="fill:#DD352E;" d="M10,8H7v5c0,1.65,1.35,3,3,3V8z"/>
<path style="fill:#B02721;" d="M10,10h3v2c0,1.65-1.35,3-3,3V10z"/>
<g>
</g>
<g>
</g>
<g>
</g>
<g>
</g>
<g>
</g>
<g>
</g>
<g>
</g>
<g>
</g>
<g>
</g>
<g>
</g>
<g>
</g>
<g>
</g>
<g>
</g>
<g>
</g>
<g>
</g>
</svg>
