<?xml version="1.0" encoding="iso-8859-1"?>
<!-- Generator: Adobe Illustrator 18.0.0, SVG Export Plug-In . SVG Version: 6.00 Build 0)  -->
<!DOCTYPE svg PUBLIC "-//W3C//DTD SVG 1.1//EN" "http://www.w3.org/Graphics/SVG/1.1/DTD/svg11.dtd">
<svg version="1.1" id="Capa_1" xmlns="http://www.w3.org/2000/svg" xmlns:xlink="http://www.w3.org/1999/xlink" x="0px" y="0px"
	 viewBox="0 0 58 58" style="enable-background:new 0 0 58 58;" xml:space="preserve">
<g>
	<rect x="26" y="23.732" style="fill:#C7CAC7;" width="6" height="14"/>
	<rect x="27" y="37.732" style="fill:#839594;" width="4" height="4"/>
	<path style="fill:#C7CAC7;" d="M42,50.732H16v0c4.971,0,9-4.029,9-9h8C33,46.702,37.029,50.732,42,50.732L42,50.732z"/>
	<polyline style="fill:none;stroke:#AFB6BB;stroke-width:2;stroke-linecap:round;stroke-miterlimit:10;" points="46,50.732 
		41,50.732 17,50.732 12,50.732 	"/>
	<path style="fill:#E7ECED;" d="M32.226,49.732c-0.538-0.929-0.956-1.937-1.23-3v-5h-2v5h0.01c-0.274,1.063-0.692,2.071-1.23,3
		H32.226z"/>
	<rect x="29" y="23.696" style="fill:#E7ECED;" width="2" height="14.036"/>
</g>
<path style="fill:none;stroke:#7383BF;stroke-width:2;stroke-linecap:round;stroke-miterlimit:10;" d="M50,17.732h2
	c1.105,0,2-0.895,2-2s-0.895-2-2-2h-2"/>
<rect x="46" y="12.732" style="fill:#7383BF;" width="5" height="7"/>
<path style="fill:none;stroke:#C7CAC7;stroke-width:2;stroke-linecap:round;stroke-miterlimit:10;" d="M48.845,7.268
	c1.206,0.5,1.206,1.309,0,1.809c-1.206,0.5-1.206,1.309,0,1.809"/>
<path style="fill:#BE6E41;" d="M56,23.732H2c-1.105,0-2-0.895-2-2v0c0-1.105,0.895-2,2-2h54c1.105,0,2,0.895,2,2v0
	C58,22.836,57.105,23.732,56,23.732z"/>
<path style="fill:#F2ECBF;" d="M32,14.398c-5.485,0-10.364-1.121-13.472-2.86c-1.701-0.952-3.908-0.595-5.016,1.009
	C13.179,13.03,13,13.539,13,14.065c0,3.13,6.268,5.667,14,5.667s14-2.537,14-5.667c0-0.252-0.055-0.499-0.134-0.743
	C38.285,14.005,35.249,14.398,32,14.398z"/>
<path style="fill:#61B872;" d="M18.528,11.538c2.191,1.226,5.265,2.143,8.808,2.578c0.211-0.532,0.331-1.111,0.331-1.718
	c0-2.577-2.089-4.667-4.667-4.667c-2.267,0-4.154,1.617-4.577,3.759C18.457,11.509,18.494,11.519,18.528,11.538z"/>
<path style="fill:#DC691D;" d="M27.323,14.115c1.486,0.183,3.054,0.284,4.677,0.284c0.382,0,0.761-0.007,1.138-0.017
	c0.335-0.585,0.529-1.26,0.529-1.983c0-2.209-1.791-4-4-4c-1.143,0-2.172,0.482-2.901,1.252c0.564,0.771,0.901,1.719,0.901,2.748
	C27.667,13.008,27.537,13.582,27.323,14.115z"/>
<path style="fill:#88C057;" d="M33.128,14.381c2.053-0.058,4.006-0.274,5.796-0.619C38.972,13.537,39,13.305,39,13.065
	c0-1.841-1.492-3.333-3.333-3.333c-0.928,0-1.766,0.381-2.371,0.993c0.236,0.51,0.371,1.075,0.371,1.674
	C33.667,13.123,33.466,13.796,33.128,14.381z"/>
<g>
</g>
<g>
</g>
<g>
</g>
<g>
</g>
<g>
</g>
<g>
</g>
<g>
</g>
<g>
</g>
<g>
</g>
<g>
</g>
<g>
</g>
<g>
</g>
<g>
</g>
<g>
</g>
<g>
</g>
</svg>
