<?xml version="1.0" encoding="iso-8859-1"?>
<!-- Generator: Adobe Illustrator 18.0.0, SVG Export Plug-In . SVG Version: 6.00 Build 0)  -->
<!DOCTYPE svg PUBLIC "-//W3C//DTD SVG 1.1//EN" "http://www.w3.org/Graphics/SVG/1.1/DTD/svg11.dtd">
<svg version="1.1" id="Capa_1" xmlns="http://www.w3.org/2000/svg" xmlns:xlink="http://www.w3.org/1999/xlink" x="0px" y="0px"
	 viewBox="0 0 56 56" style="enable-background:new 0 0 56 56;" xml:space="preserve">
<rect x="1" y="32" style="fill:#6C4127;" width="54" height="16"/>
<rect x="5" y="36" style="fill:#553323;stroke:#382016;stroke-width:2;stroke-miterlimit:10;" width="46" height="8"/>
<path style="fill:#BE6E41;" d="M51.608,48c0.525,0.861,0.878,1.855,0.667,2.909c-0.005,0.026-0.01,0.052-0.015,0.077
	c-0.361,1.85,0.256,3.364,1.664,4.928L54,56h-0.659c-3.294,0-5.143-3.515-5.067-5.091c0.058-1.209-0.301-2.168-0.787-2.909H51.608z"
	/>
<path style="fill:#BE6E41;" d="M4.392,48c-0.525,0.861-0.878,1.855-0.667,2.909c0.005,0.026,0.01,0.052,0.015,0.077
	c0.361,1.85-0.256,3.364-1.664,4.928L2,56h0.659c3.294,0,5.143-3.515,5.067-5.091C7.667,49.7,8.027,48.741,8.513,48H4.392z"/>
<rect x="34" y="36" style="fill:#553323;stroke:#382016;stroke-width:2;stroke-miterlimit:10;" width="17" height="8"/>
<path style="fill:#556080;" d="M5,0v25h21v4c1,0.553,1.447,1,2,1s1-0.447,2-1v-4h21V0H5z"/>
<rect x="23" y="29" style="fill:#38454F;" width="10" height="3"/>
<rect x="7" y="2" style="fill:#363E4B;" width="42" height="21"/>
<g>
</g>
<g>
</g>
<g>
</g>
<g>
</g>
<g>
</g>
<g>
</g>
<g>
</g>
<g>
</g>
<g>
</g>
<g>
</g>
<g>
</g>
<g>
</g>
<g>
</g>
<g>
</g>
<g>
</g>
</svg>
