<?xml version="1.0" encoding="iso-8859-1"?>
<!-- Generator: Adobe Illustrator 18.0.0, SVG Export Plug-In . SVG Version: 6.00 Build 0)  -->
<!DOCTYPE svg PUBLIC "-//W3C//DTD SVG 1.1//EN" "http://www.w3.org/Graphics/SVG/1.1/DTD/svg11.dtd">
<svg version="1.1" id="Capa_1" xmlns="http://www.w3.org/2000/svg" xmlns:xlink="http://www.w3.org/1999/xlink" x="0px" y="0px"
	 viewBox="0 0 58 58" style="enable-background:new 0 0 58 58;" xml:space="preserve">
<path style="fill:#556080;" d="M6,0v25h21v5c1,0.553,1.447,0,2,0s1,0.553,2,0v-5h21V0H6z"/>
<rect x="24" y="30" style="fill:#38454F;" width="10" height="3"/>
<rect x="50" y="53" style="fill:#382016;" width="4" height="5"/>
<rect x="4" y="53" style="fill:#382016;" width="4" height="5"/>
<rect x="2" y="33" style="fill:#553323;stroke:#382016;stroke-width:2;stroke-miterlimit:10;" width="18" height="10"/>
<rect x="20" y="33" style="fill:#553323;stroke:#382016;stroke-width:2;stroke-miterlimit:10;" width="18" height="10"/>
<rect x="38" y="33" style="fill:#553323;stroke:#382016;stroke-width:2;stroke-miterlimit:10;" width="18" height="10"/>
<rect x="2" y="43" style="fill:#553323;stroke:#382016;stroke-width:2;stroke-miterlimit:10;" width="18" height="10"/>
<rect x="20" y="43" style="fill:#553323;stroke:#382016;stroke-width:2;stroke-miterlimit:10;" width="18" height="10"/>
<rect x="38" y="43" style="fill:#553323;stroke:#382016;stroke-width:2;stroke-miterlimit:10;" width="18" height="10"/>
<path style="fill:#D7B740;" d="M13,39H9c-0.553,0-1-0.447-1-1s0.447-1,1-1h4c0.553,0,1,0.447,1,1S13.553,39,13,39z"/>
<path style="fill:#D7B740;" d="M13,49H9c-0.553,0-1-0.447-1-1s0.447-1,1-1h4c0.553,0,1,0.447,1,1S13.553,49,13,49z"/>
<path style="fill:#D7B740;" d="M31,39h-4c-0.553,0-1-0.447-1-1s0.447-1,1-1h4c0.553,0,1,0.447,1,1S31.553,39,31,39z"/>
<path style="fill:#D7B740;" d="M31,49h-4c-0.553,0-1-0.447-1-1s0.447-1,1-1h4c0.553,0,1,0.447,1,1S31.553,49,31,49z"/>
<path style="fill:#D7B740;" d="M49,39h-4c-0.553,0-1-0.447-1-1s0.447-1,1-1h4c0.553,0,1,0.447,1,1S49.553,39,49,39z"/>
<path style="fill:#D7B740;" d="M49,49h-4c-0.553,0-1-0.447-1-1s0.447-1,1-1h4c0.553,0,1,0.447,1,1S49.553,49,49,49z"/>
<rect x="8" y="2" style="fill:#363E4B;" width="42" height="21"/>
<g>
</g>
<g>
</g>
<g>
</g>
<g>
</g>
<g>
</g>
<g>
</g>
<g>
</g>
<g>
</g>
<g>
</g>
<g>
</g>
<g>
</g>
<g>
</g>
<g>
</g>
<g>
</g>
<g>
</g>
</svg>
