<?xml version="1.0" encoding="iso-8859-1"?>
<!-- Generator: Adobe Illustrator 18.0.0, SVG Export Plug-In . SVG Version: 6.00 Build 0)  -->
<!DOCTYPE svg PUBLIC "-//W3C//DTD SVG 1.1//EN" "http://www.w3.org/Graphics/SVG/1.1/DTD/svg11.dtd">
<svg version="1.1" id="Capa_1" xmlns="http://www.w3.org/2000/svg" xmlns:xlink="http://www.w3.org/1999/xlink" x="0px" y="0px"
	 viewBox="0 0 60 60" style="enable-background:new 0 0 60 60;" xml:space="preserve">
<rect x="48" y="55" style="fill:#363E4B;" width="4" height="4"/>
<rect x="8" y="55" style="fill:#363E4B;" width="4" height="4"/>
<path style="fill:#845C46;stroke:#553323;stroke-width:2;stroke-miterlimit:10;" d="M54,55H6c-2.75,0-5-2.25-5-5v0
	c0-2.75,2.25-5,5-5h48c2.75,0,5,2.25,5,5v0C59,52.75,56.75,55,54,55z"/>
<path style="fill:#845C46;stroke:#553323;stroke-width:2;stroke-miterlimit:10;" d="M54,45H6c-2.75,0-5-2.25-5-5v0
	c0-2.75,2.25-5,5-5h48c2.75,0,5,2.25,5,5v0C59,42.75,56.75,45,54,45z"/>
<rect x="10" y="37" style="fill:#EFCE4A;" width="4" height="7"/>
<rect x="14" y="37" style="fill:#88C057;" width="4" height="7"/>
<rect x="18" y="37" style="fill:#23A24D;" width="4" height="7"/>
<rect x="27" y="38" style="fill:#C7CAC7;" width="16" height="6"/>
<rect x="8" y="48" style="fill:#FFFFFF;" width="15" height="6"/>
<rect x="39" y="48" style="fill:#7383BF;" width="15" height="6"/>
<circle style="fill:#556080;" cx="39" cy="41" r="1"/>
<circle style="fill:#556080;" cx="11" cy="51" r="1"/>
<circle style="fill:#556080;" cx="42" cy="51" r="1"/>
<rect x="26" y="47" style="fill:#38454F;" width="10" height="7"/>
<circle style="fill:#61B872;" cx="33" cy="50" r="1"/>
<rect x="3" y="1" style="fill:#38454F;" width="54" height="27"/>
<path style="fill:#38454F;" d="M32,31.896V28c-1-0.553-1.447-1-2-1s-1,0.447-2,1v3.896h-6V34h16v-2.104H32z"/>
<rect x="3" y="25" style="fill:#556080;" width="54" height="3"/>
<g>
</g>
<g>
</g>
<g>
</g>
<g>
</g>
<g>
</g>
<g>
</g>
<g>
</g>
<g>
</g>
<g>
</g>
<g>
</g>
<g>
</g>
<g>
</g>
<g>
</g>
<g>
</g>
<g>
</g>
</svg>
