<?xml version="1.0" encoding="iso-8859-1"?>
<!-- Generator: Adobe Illustrator 18.0.0, SVG Export Plug-In . SVG Version: 6.00 Build 0)  -->
<!DOCTYPE svg PUBLIC "-//W3C//DTD SVG 1.1//EN" "http://www.w3.org/Graphics/SVG/1.1/DTD/svg11.dtd">
<svg version="1.1" id="Capa_1" xmlns="http://www.w3.org/2000/svg" xmlns:xlink="http://www.w3.org/1999/xlink" x="0px" y="0px"
	 viewBox="0 0 58 58" style="enable-background:new 0 0 58 58;" xml:space="preserve">
<rect x="2" y="36" style="fill:#F5EEE4;" width="54" height="16"/>
<rect x="2" y="36" style="fill:#5D5854;" width="22" height="16"/>
<rect x="21" y="45" style="fill:#ED8A19;" width="3" height="7"/>
<rect x="18" y="45" style="fill:#EBBA16;" width="3" height="7"/>
<rect x="15" y="45" style="fill:#EFCE4A;" width="3" height="7"/>
<rect x="12" y="45" style="fill:#88C057;" width="3" height="7"/>
<rect x="9" y="45" style="fill:#A4D873;" width="3" height="7"/>
<rect x="6" y="45" style="fill:#F2ECBF;" width="3" height="7"/>
<polygon style="fill:#5D5854;" points="53,58 56,58 56,55 51,55 "/>
<polygon style="fill:#5D5854;" points="5,58 2,58 2,55 7,55 "/>
<rect x="0" y="33" style="fill:#BCB3AA;" width="58" height="3"/>
<rect x="0" y="52" style="fill:#BCB3AA;" width="58" height="3"/>
<path style="fill:#806D5F;" d="M29,46c-0.553,0-1-0.447-1-1v-2c0-0.553,0.447-1,1-1s1,0.447,1,1v2C30,45.553,29.553,46,29,46z"/>
<path style="fill:#556080;" d="M7,0v25h21v5c1,0.553,1.447,0,2,0s1,0.553,2,0v-5h21V0H7z"/>
<rect x="25" y="30" style="fill:#38454F;" width="10" height="3"/>
<rect x="9" y="2" style="fill:#363E4B;" width="42" height="21"/>
<rect x="2" y="36" style="fill:#BCB3AA;" width="2" height="16"/>
<rect x="4" y="41" style="fill:#BCB3AA;" width="20" height="2"/>
<g>
</g>
<g>
</g>
<g>
</g>
<g>
</g>
<g>
</g>
<g>
</g>
<g>
</g>
<g>
</g>
<g>
</g>
<g>
</g>
<g>
</g>
<g>
</g>
<g>
</g>
<g>
</g>
<g>
</g>
</svg>
