<?xml version="1.0" encoding="iso-8859-1"?>
<!-- Generator: Adobe Illustrator 18.0.0, SVG Export Plug-In . SVG Version: 6.00 Build 0)  -->
<!DOCTYPE svg PUBLIC "-//W3C//DTD SVG 1.1//EN" "http://www.w3.org/Graphics/SVG/1.1/DTD/svg11.dtd">
<svg version="1.1" id="Capa_1" xmlns="http://www.w3.org/2000/svg" xmlns:xlink="http://www.w3.org/1999/xlink" x="0px" y="0px"
	 viewBox="0 0 56 56" style="enable-background:new 0 0 56 56;" xml:space="preserve">
<path style="fill:#EAEBF0;" d="M44,30H12c-1.105,0-2-0.895-2-2v0c0-1.105,0.895-2,2-2h32c1.105,0,2,0.895,2,2v0
	C46,29.105,45.105,30,44,30z"/>
<path style="fill:#D6D9DF;" d="M34.039,48H21.961C16.46,48,12,43.54,12,38.039V30h32v8.039C44,43.54,39.54,48,34.039,48z"/>
<rect x="23" y="48" style="fill:#38454F;" width="10" height="8"/>
<rect x="12" y="3" style="fill:#C7CBD1;" width="32" height="5"/>
<rect x="14" y="8" style="fill:#D6D9DF;" width="28" height="18"/>
<rect x="25" style="fill:#7383BF;" width="6" height="3"/>
<g>
</g>
<g>
</g>
<g>
</g>
<g>
</g>
<g>
</g>
<g>
</g>
<g>
</g>
<g>
</g>
<g>
</g>
<g>
</g>
<g>
</g>
<g>
</g>
<g>
</g>
<g>
</g>
<g>
</g>
</svg>
