<?xml version="1.0" encoding="iso-8859-1"?>
<!-- Generator: Adobe Illustrator 18.0.0, SVG Export Plug-In . SVG Version: 6.00 Build 0)  -->
<!DOCTYPE svg PUBLIC "-//W3C//DTD SVG 1.1//EN" "http://www.w3.org/Graphics/SVG/1.1/DTD/svg11.dtd">
<svg version="1.1" id="Capa_1" xmlns="http://www.w3.org/2000/svg" xmlns:xlink="http://www.w3.org/1999/xlink" x="0px" y="0px"
	 viewBox="0 0 58 58" style="enable-background:new 0 0 58 58;" xml:space="preserve">
<path style="fill:none;stroke:#23A24D;stroke-width:2;stroke-linecap:round;stroke-linejoin:round;stroke-miterlimit:10;" d="M29,26
	c0-7.186,5.814-13,13-13"/>
<path style="fill:none;stroke:#23A24D;stroke-width:2;stroke-linecap:round;stroke-linejoin:round;stroke-miterlimit:10;" d="M29,26
	c0-7.186-5.814-13-13-13"/>
<line style="fill:none;stroke:#23A24D;stroke-width:2;stroke-linecap:round;stroke-linejoin:round;stroke-miterlimit:10;" x1="29" y1="26" x2="29" y2="11"/>
<path style="fill:#814494;stroke:#75348B;stroke-width:2;stroke-linecap:round;stroke-linejoin:round;stroke-miterlimit:10;" d="
	M29,11L29,11c-2.209,0-4-1.791-4-4V1h8v6C33,9.209,31.209,11,29,11z"/>
<path style="fill:#ED8A19;stroke:#EBBA16;stroke-width:2;stroke-linecap:round;stroke-linejoin:round;stroke-miterlimit:10;" d="
	M16,13L16,13c0,2.209-1.791,4-4,4H6V9h6C14.209,9,16,10.791,16,13z"/>
<path style="fill:#DD352E;stroke:#B02721;stroke-width:2;stroke-linecap:round;stroke-linejoin:round;stroke-miterlimit:10;" d="
	M42,13L42,13c0-2.209,1.791-4,4-4h6v8h-6C43.791,17,42,15.209,42,13z"/>
<line style="fill:#ED8A19;stroke:#EBBA16;stroke-width:2;stroke-linecap:round;stroke-linejoin:round;stroke-miterlimit:10;" x1="6" y1="13" x2="10" y2="13"/>
<line style="fill:none;stroke:#B02721;stroke-width:2;stroke-linecap:round;stroke-linejoin:round;stroke-miterlimit:10;" x1="48" y1="13" x2="52" y2="13"/>
<line style="fill:#814494;stroke:#75348B;stroke-width:2;stroke-linecap:round;stroke-linejoin:round;stroke-miterlimit:10;" x1="29" y1="1" x2="29" y2="5"/>
<path style="fill:#C7CAC7;stroke:#E7ECED;stroke-width:2;stroke-linecap:round;stroke-linejoin:round;stroke-miterlimit:10;" d="
	M20,26c2.211,0,4,0.131,4,4v2c0,6.15-2.788,7.918-5.073,9.973C17.089,43.627,16,45.95,16,48.423C16,53.16,19.84,57,24.577,57H30
	h2.423C37.16,57,41,53.16,41,48.423c0-2.473-1.089-4.796-2.927-6.45C35.788,39.918,33,38.15,33,32v-2c0-3.869,1.789-4,4-4H20z"/>
<g>
</g>
<g>
</g>
<g>
</g>
<g>
</g>
<g>
</g>
<g>
</g>
<g>
</g>
<g>
</g>
<g>
</g>
<g>
</g>
<g>
</g>
<g>
</g>
<g>
</g>
<g>
</g>
<g>
</g>
</svg>
