<?xml version="1.0" encoding="iso-8859-1"?>
<!-- Generator: Adobe Illustrator 18.0.0, SVG Export Plug-In . SVG Version: 6.00 Build 0)  -->
<!DOCTYPE svg PUBLIC "-//W3C//DTD SVG 1.1//EN" "http://www.w3.org/Graphics/SVG/1.1/DTD/svg11.dtd">
<svg version="1.1" id="Capa_1" xmlns="http://www.w3.org/2000/svg" xmlns:xlink="http://www.w3.org/1999/xlink" x="0px" y="0px"
	 viewBox="0 0 58 58" style="enable-background:new 0 0 58 58;" xml:space="preserve">
<rect x="49" y="32.453" style="fill:#C7CAC7;" width="6" height="19"/>
<rect x="55" y="35.453" style="fill:#E7ECED;" width="3" height="13"/>
<rect x="3" y="32.453" style="fill:#C7CAC7;" width="6" height="19"/>
<rect x="0" y="35.453" style="fill:#E7ECED;" width="3" height="13"/>
<path style="fill:#EBBA16;" d="M34.72,15.283l-1.157,1.157c-0.987,0.987-0.987,2.588,0,3.576l7.738,7.738
	c0.987,0.987,2.588,0.987,3.576,0l1.157-1.157c0.745-0.745,1.824-1.022,2.847-0.769c0.862,0.213,1.86,0.306,2.36-0.195l2.788-2.788
	c0.988-0.988,0.988-2.589,0-3.576l-11.98-11.98c-0.987-0.987-2.588-0.987-3.576,0l-2.788,2.788c-0.501,0.501-0.408,1.498-0.195,2.36
	C35.742,13.458,35.465,14.538,34.72,15.283z"/>
<polygon style="fill:#E7ECED;" points="32.935,35.453 40.967,27.42 33.896,20.349 18,35.453 9,35.453 9,48.453 49,48.453 49,35.453 
	"/>
<path style="fill:#C7CAC7;" d="M15.231,35.453l-0.293,0.293c-0.391,0.391-0.391,1.023,0,1.414c0.195,0.195,0.451,0.293,0.707,0.293
	s0.512-0.098,0.707-0.293l1.707-1.707H15.231z"/>
<path style="fill:#C7CAC7;" d="M32.908,35.453l-0.293,0.293c-0.391,0.391-0.391,1.023,0,1.414c0.195,0.195,0.451,0.293,0.707,0.293
	s0.512-0.098,0.707-0.293l1.707-1.707H32.908z"/>
<g>
</g>
<g>
</g>
<g>
</g>
<g>
</g>
<g>
</g>
<g>
</g>
<g>
</g>
<g>
</g>
<g>
</g>
<g>
</g>
<g>
</g>
<g>
</g>
<g>
</g>
<g>
</g>
<g>
</g>
</svg>
