<?xml version="1.0" encoding="iso-8859-1"?>
<!-- Generator: Adobe Illustrator 18.0.0, SVG Export Plug-In . SVG Version: 6.00 Build 0)  -->
<!DOCTYPE svg PUBLIC "-//W3C//DTD SVG 1.1//EN" "http://www.w3.org/Graphics/SVG/1.1/DTD/svg11.dtd">
<svg version="1.1" id="Capa_1" xmlns="http://www.w3.org/2000/svg" xmlns:xlink="http://www.w3.org/1999/xlink" x="0px" y="0px"
	 viewBox="0 0 60 60" style="enable-background:new 0 0 60 60;" xml:space="preserve">
<rect x="17" y="5.5" style="fill:#556080;" width="28" height="16"/>
<line style="fill:none;stroke:#7383BF;stroke-width:2;stroke-linejoin:round;stroke-miterlimit:10;" x1="21" y1="5.5" x2="21" y2="21.5"/>
<line style="fill:none;stroke:#7383BF;stroke-width:2;stroke-linejoin:round;stroke-miterlimit:10;" x1="25" y1="5.5" x2="25" y2="21.5"/>
<line style="fill:none;stroke:#7383BF;stroke-width:2;stroke-linejoin:round;stroke-miterlimit:10;" x1="29" y1="5.5" x2="29" y2="21.5"/>
<line style="fill:none;stroke:#7383BF;stroke-width:2;stroke-linejoin:round;stroke-miterlimit:10;" x1="33" y1="5.5" x2="33" y2="21.5"/>
<line style="fill:none;stroke:#7383BF;stroke-width:2;stroke-linejoin:round;stroke-miterlimit:10;" x1="37" y1="5.5" x2="37" y2="21.5"/>
<line style="fill:none;stroke:#7383BF;stroke-width:2;stroke-linejoin:round;stroke-miterlimit:10;" x1="41" y1="5.5" x2="41" y2="21.5"/>
<polygon style="fill:#C7CAC7;" points="43,34.5 43,26.5 19,26.5 19,34.5 7,34.5 7,54.5 53,54.5 53,34.5 "/>
<rect x="24" y="21.5" style="fill:#AFB6BB;" width="14" height="5"/>
<rect x="19" y="2.5" style="fill:#38454F;" width="24" height="3"/>
<rect x="1" y="32.5" style="fill:#7383BF;stroke:#556080;stroke-width:2;stroke-linecap:round;stroke-linejoin:round;stroke-miterlimit:10;" width="6" height="6"/>
<rect x="1" y="38.5" style="fill:#7383BF;stroke:#556080;stroke-width:2;stroke-linecap:round;stroke-linejoin:round;stroke-miterlimit:10;" width="6" height="6"/>
<rect x="1" y="44.5" style="fill:#7383BF;stroke:#556080;stroke-width:2;stroke-linecap:round;stroke-linejoin:round;stroke-miterlimit:10;" width="6" height="6"/>
<rect x="1" y="50.5" style="fill:#7383BF;stroke:#556080;stroke-width:2;stroke-linecap:round;stroke-linejoin:round;stroke-miterlimit:10;" width="6" height="6"/>
<rect x="53" y="32.5" style="fill:#7383BF;stroke:#556080;stroke-width:2;stroke-linecap:round;stroke-linejoin:round;stroke-miterlimit:10;" width="6" height="6"/>
<rect x="53" y="38.5" style="fill:#7383BF;stroke:#556080;stroke-width:2;stroke-linecap:round;stroke-linejoin:round;stroke-miterlimit:10;" width="6" height="6"/>
<rect x="53" y="44.5" style="fill:#7383BF;stroke:#556080;stroke-width:2;stroke-linecap:round;stroke-linejoin:round;stroke-miterlimit:10;" width="6" height="6"/>
<rect x="53" y="50.5" style="fill:#7383BF;stroke:#556080;stroke-width:2;stroke-linecap:round;stroke-linejoin:round;stroke-miterlimit:10;" width="6" height="6"/>
<g>
</g>
<g>
</g>
<g>
</g>
<g>
</g>
<g>
</g>
<g>
</g>
<g>
</g>
<g>
</g>
<g>
</g>
<g>
</g>
<g>
</g>
<g>
</g>
<g>
</g>
<g>
</g>
<g>
</g>
</svg>
