<?xml version="1.0" encoding="iso-8859-1"?>
<!-- Generator: Adobe Illustrator 18.0.0, SVG Export Plug-In . SVG Version: 6.00 Build 0)  -->
<!DOCTYPE svg PUBLIC "-//W3C//DTD SVG 1.1//EN" "http://www.w3.org/Graphics/SVG/1.1/DTD/svg11.dtd">
<svg version="1.1" id="Capa_1" xmlns="http://www.w3.org/2000/svg" xmlns:xlink="http://www.w3.org/1999/xlink" x="0px" y="0px"
	 viewBox="0 0 58 58" style="enable-background:new 0 0 58 58;" xml:space="preserve">
<rect x="49" y="35.5" style="fill:#949493;" width="6" height="22"/>
<polyline style="fill:#C7CAC7;" points="9,54.5 49,54.5 49,38.5 9,38.5 "/>
<rect x="55" y="38.5" style="fill:#C7CAC7;" width="3" height="16"/>
<rect x="3" y="35.5" style="fill:#949493;" width="6" height="22"/>
<rect x="0" y="38.5" style="fill:#C7CAC7;" width="3" height="16"/>
<rect x="14" y="32.5" style="fill:#E7ECED;" width="30" height="6"/>
<rect x="17" y="29.5" style="fill:#C7CAC7;" width="24" height="3"/>
<rect x="24" y="21.5" style="fill:#949493;" width="10" height="8"/>
<rect x="27" y="12.5" style="fill:#556080;" width="4" height="9"/>
<path style="fill:#B02721;" d="M32.586,2.914l-0.172,0.172C31.509,3.991,30.281,4.5,29,4.5h0c-1.281,0-2.509-0.509-3.414-1.414
	l-0.172-0.172C24.509,2.009,23.281,1.5,22,1.5h-5.254C14.125,1.5,12,3.625,12,6.246v4.508c0,2.621,2.125,4.746,4.746,4.746H24v-3h10
	v3h7.254c2.621,0,4.746-2.125,4.746-4.746V6.246C46,3.625,43.875,1.5,41.254,1.5H36C34.719,1.5,33.491,2.009,32.586,2.914z"/>
<path style="fill:#556080;" d="M29,4.5c0.699,0,1.376-0.164,2-0.449V0.5h-4v3.551C27.624,4.336,28.301,4.5,29,4.5z"/>
<g>
</g>
<g>
</g>
<g>
</g>
<g>
</g>
<g>
</g>
<g>
</g>
<g>
</g>
<g>
</g>
<g>
</g>
<g>
</g>
<g>
</g>
<g>
</g>
<g>
</g>
<g>
</g>
<g>
</g>
</svg>
