<?xml version="1.0" encoding="iso-8859-1"?>
<!-- Generator: Adobe Illustrator 18.0.0, SVG Export Plug-In . SVG Version: 6.00 Build 0)  -->
<!DOCTYPE svg PUBLIC "-//W3C//DTD SVG 1.1//EN" "http://www.w3.org/Graphics/SVG/1.1/DTD/svg11.dtd">
<svg version="1.1" id="Capa_1" xmlns="http://www.w3.org/2000/svg" xmlns:xlink="http://www.w3.org/1999/xlink" x="0px" y="0px"
	 viewBox="0 0 59 59" style="enable-background:new 0 0 59 59;" xml:space="preserve">
<line style="fill:none;stroke:#556080;stroke-width:2;stroke-linecap:round;stroke-miterlimit:10;" x1="14.5" y1="56" x2="14.5" y2="58"/>
<line style="fill:none;stroke:#556080;stroke-width:2;stroke-linecap:round;stroke-miterlimit:10;" x1="2.5" y1="56" x2="2.5" y2="58"/>
<line style="fill:none;stroke:#556080;stroke-width:2;stroke-linecap:round;stroke-miterlimit:10;" x1="23.5" y1="56" x2="23.5" y2="58"/>
<line style="fill:none;stroke:#556080;stroke-width:2;stroke-linecap:round;stroke-miterlimit:10;" x1="56.5" y1="56" x2="56.5" y2="58"/>
<rect x="21.5" y="1" style="fill:#A26234;stroke:#BFA380;stroke-width:2;stroke-miterlimit:10;" width="36" height="55"/>
<rect x="1.5" y="47" style="fill:#6C4127;stroke:#6C4127;stroke-width:2;stroke-miterlimit:10;" width="14" height="9"/>
<line style="fill:none;stroke:#D1C17C;stroke-width:2;stroke-linecap:round;stroke-miterlimit:10;" x1="8.5" y1="45" x2="8.5" y2="38"/>
<rect x="5.5" y="30" style="fill:#E4C05C;" width="6" height="8"/>
<line style="fill:none;stroke:#D1C17C;stroke-width:2;stroke-linecap:round;stroke-miterlimit:10;" x1="6.5" y1="45" x2="10.5" y2="45"/>
<rect x="45.5" y="12" style="fill:#704324;stroke:#BFA380;stroke-width:2;stroke-miterlimit:10;" width="12" height="11"/>
<rect x="45.5" y="1" style="fill:#704324;stroke:#BFA380;stroke-width:2;stroke-miterlimit:10;" width="12" height="11"/>
<rect x="45.5" y="34" style="fill:#704324;stroke:#BFA380;stroke-width:2;stroke-miterlimit:10;" width="12" height="11"/>
<rect x="45.5" y="45" style="fill:#704324;stroke:#BFA380;stroke-width:2;stroke-miterlimit:10;" width="12" height="11"/>
<rect x="45.5" y="23" style="fill:#704324;stroke:#BFA380;stroke-width:2;stroke-miterlimit:10;" width="12" height="11"/>
<rect x="22.5" y="10" style="fill:#D7B740;" width="22" height="2"/>
<rect x="22.5" y="14" style="fill:#D7B740;" width="22" height="2"/>
<line style="fill:none;stroke:#FFFFFF;stroke-width:2;stroke-linecap:round;stroke-miterlimit:10;" x1="30.5" y1="15" x2="30.5" y2="18"/>
<line style="fill:none;stroke:#FFFFFF;stroke-width:2;stroke-linecap:round;stroke-miterlimit:10;" x1="30.5" y1="18" x2="26.5" y2="22"/>
<line style="fill:none;stroke:#FFFFFF;stroke-width:2;stroke-linecap:round;stroke-miterlimit:10;" x1="30.5" y1="18" x2="34.5" y2="22"/>
<line style="fill:none;stroke:#FFFFFF;stroke-width:2;stroke-linecap:round;stroke-miterlimit:10;" x1="26.5" y1="22" x2="34.5" y2="22"/>
<path style="fill:#F7E6A1;" d="M40,50h-9c-1.375,0-2.5-1.125-2.5-2.5v0c0-1.375,1.125-2.5,2.5-2.5h9c1.375,0,2.5,1.125,2.5,2.5v0
	C42.5,48.875,41.375,50,40,50z"/>
<path style="fill:#D1C17C;" d="M40,55h-9c-1.375,0-2.5-1.125-2.5-2.5v0c0-1.375,1.125-2.5,2.5-2.5h9c1.375,0,2.5,1.125,2.5,2.5v0
	C42.5,53.875,41.375,55,40,55z"/>
<path style="fill:#F7E6A1;" d="M40,53h-9c-0.275,0-0.5-0.225-0.5-0.5l0,0c0-0.275,0.225-0.5,0.5-0.5h9c0.275,0,0.5,0.225,0.5,0.5
	l0,0C40.5,52.775,40.275,53,40,53z"/>
<path style="fill:#D1C17C;" d="M40,48h-9c-0.275,0-0.5-0.225-0.5-0.5l0,0c0-0.275,0.225-0.5,0.5-0.5h9c0.275,0,0.5,0.225,0.5,0.5
	l0,0C40.5,47.775,40.275,48,40,48z"/>
<g>
</g>
<g>
</g>
<g>
</g>
<g>
</g>
<g>
</g>
<g>
</g>
<g>
</g>
<g>
</g>
<g>
</g>
<g>
</g>
<g>
</g>
<g>
</g>
<g>
</g>
<g>
</g>
<g>
</g>
</svg>
