<?xml version="1.0" encoding="iso-8859-1"?>
<!-- Generator: Adobe Illustrator 18.0.0, SVG Export Plug-In . SVG Version: 6.00 Build 0)  -->
<!DOCTYPE svg PUBLIC "-//W3C//DTD SVG 1.1//EN" "http://www.w3.org/Graphics/SVG/1.1/DTD/svg11.dtd">
<svg version="1.1" id="Capa_1" xmlns="http://www.w3.org/2000/svg" xmlns:xlink="http://www.w3.org/1999/xlink" x="0px" y="0px"
	 viewBox="0 0 58 58" style="enable-background:new 0 0 58 58;" xml:space="preserve">
<path style="fill:#664031;" d="M44,51V5.451C44,4.097,45.097,3,46.451,3l0.348,0.099c0.002,0,0.003-0.001,0.005-0.002
	C46.277,1.311,44.644,0,42.687,0H5.313C2.931,0,1,1.931,1,4.313V54h46v-2.308L44,51z"/>
<polygon style="fill:#382016;" points="6,58 3,58 3,54 8,54 "/>
<path style="fill:#382016;" d="M44,51l13,3V5L46.451,3C45.097,3,44,4.097,44,5.451V51z"/>
<polygon style="fill:#382016;" points="44,58 47,58 47,54 42,54 "/>
<path style="fill:#160E0D;" d="M24,51h20V5.451C44,4.097,42.903,3,41.549,3H24V51z"/>
<rect x="24" y="12" style="fill:#774836;" width="20" height="2"/>
<line style="fill:none;stroke:#774836;stroke-width:2;stroke-miterlimit:10;" x1="24" y1="44" x2="44" y2="44"/>
<rect x="24" y="17" style="fill:#AB8024;" width="20" height="2"/>
<g>
	<path style="fill:#F7B563;" d="M29,15c-0.552,0-1,0.447-1,1v5c0,0.553,0.448,1,1,1s1-0.447,1-1v-5C30,15.447,29.552,15,29,15z"/>
	<path style="fill:#F7B563;" d="M32,15c-0.552,0-1,0.447-1,1v5c0,0.553,0.448,1,1,1s1-0.447,1-1v-5C33,15.447,32.552,15,32,15z"/>
	<path style="fill:#F7B563;" d="M35,15c-0.552,0-1,0.447-1,1v5c0,0.553,0.448,1,1,1s1-0.447,1-1v-5C36,15.447,35.552,15,35,15z"/>
	<path style="fill:#F7B563;" d="M38,15c-0.552,0-1,0.447-1,1v5c0,0.553,0.448,1,1,1s1-0.447,1-1v-5C39,15.447,38.552,15,38,15z"/>
</g>
<path style="fill:#382016;" d="M24,51H4V5.451C4,4.097,5.097,3,6.451,3H24V51z"/>
<path style="fill:#D7B740;" d="M19,31c-0.552,0-1-0.447-1-1v-5c0-0.553,0.448-1,1-1s1,0.447,1,1v5C20,30.553,19.552,31,19,31z"/>
<g>
</g>
<g>
</g>
<g>
</g>
<g>
</g>
<g>
</g>
<g>
</g>
<g>
</g>
<g>
</g>
<g>
</g>
<g>
</g>
<g>
</g>
<g>
</g>
<g>
</g>
<g>
</g>
<g>
</g>
</svg>
