<?xml version="1.0" encoding="iso-8859-1"?>
<!-- Generator: Adobe Illustrator 18.0.0, SVG Export Plug-In . SVG Version: 6.00 Build 0)  -->
<!DOCTYPE svg PUBLIC "-//W3C//DTD SVG 1.1//EN" "http://www.w3.org/Graphics/SVG/1.1/DTD/svg11.dtd">
<svg version="1.1" id="Capa_1" xmlns="http://www.w3.org/2000/svg" xmlns:xlink="http://www.w3.org/1999/xlink" x="0px" y="0px"
	 viewBox="0 0 58 58" style="enable-background:new 0 0 58 58;" xml:space="preserve">
<polygon style="fill:#382016;" points="47,52 11,52 8,52 5,52 5,58 11,58 11,56 47,56 47,58 53,58 53,56 53,52 "/>
<polygon style="fill:#382016;" points="55,0 3,0 3,4 5,4 5,6 53,6 53,4 55,4 "/>
<rect x="8" y="6" style="fill:#774836;" width="42" height="46"/>
<rect x="28" y="6" style="fill:#382016;" width="2" height="46"/>
<rect x="11" y="39" style="fill:#382016;" width="15" height="10"/>
<rect x="32" y="39" style="fill:#382016;" width="15" height="10"/>
<rect x="11" y="9" style="fill:#382016;" width="6" height="6"/>
<rect x="20" y="9" style="fill:#382016;" width="6" height="6"/>
<rect x="11" y="18" style="fill:#382016;" width="6" height="6"/>
<rect x="20" y="18" style="fill:#382016;" width="6" height="6"/>
<rect x="11" y="27" style="fill:#382016;" width="6" height="6"/>
<rect x="20" y="27" style="fill:#382016;" width="6" height="6"/>
<rect x="32" y="9" style="fill:#382016;" width="6" height="6"/>
<rect x="41" y="9" style="fill:#382016;" width="6" height="6"/>
<rect x="32" y="18" style="fill:#382016;" width="6" height="6"/>
<rect x="41" y="18" style="fill:#382016;" width="6" height="6"/>
<rect x="32" y="27" style="fill:#382016;" width="6" height="6"/>
<rect x="41" y="27" style="fill:#382016;" width="6" height="6"/>
<path style="fill:#C4A451;" d="M26,37h-2c-0.552,0-1-0.447-1-1s0.448-1,1-1h2c0.552,0,1,0.447,1,1S26.552,37,26,37z"/>
<path style="fill:#C4A451;" d="M34,37h-2c-0.552,0-1-0.447-1-1s0.448-1,1-1h2c0.552,0,1,0.447,1,1S34.552,37,34,37z"/>
<rect x="3" style="fill:#774836;" width="52" height="4"/>
<g>
</g>
<g>
</g>
<g>
</g>
<g>
</g>
<g>
</g>
<g>
</g>
<g>
</g>
<g>
</g>
<g>
</g>
<g>
</g>
<g>
</g>
<g>
</g>
<g>
</g>
<g>
</g>
<g>
</g>
</svg>
