<?xml version="1.0" encoding="iso-8859-1"?>
<!-- Generator: Adobe Illustrator 18.0.0, SVG Export Plug-In . SVG Version: 6.00 Build 0)  -->
<!DOCTYPE svg PUBLIC "-//W3C//DTD SVG 1.1//EN" "http://www.w3.org/Graphics/SVG/1.1/DTD/svg11.dtd">
<svg version="1.1" id="Capa_1" xmlns="http://www.w3.org/2000/svg" xmlns:xlink="http://www.w3.org/1999/xlink" x="0px" y="0px"
	 viewBox="0 0 58 58" style="enable-background:new 0 0 58 58;" xml:space="preserve">
<path style="fill:#D6D9DF;" d="M48.33,58H9.67C8.195,58,7,56.805,7,55.33V2.67C7,1.195,8.195,0,9.67,0h38.66
	C49.805,0,51,1.195,51,2.67v52.66C51,56.805,49.805,58,48.33,58z"/>
<path style="fill:#EAEBF0;" d="M48.33,0H9.67C8.195,0,7,1.195,7,2.67V12h44V2.67C51,1.195,49.805,0,48.33,0z"/>
<rect x="22" y="2" style="fill:#A4CA83;" width="14" height="8"/>
<circle style="fill:#EAEBF0;" cx="29" cy="35" r="17"/>
<circle style="fill:#7383BF;" cx="29" cy="35" r="13"/>
<path style="fill:#556080;" d="M41.237,35C38.86,38.042,35.164,40,31,40h-3c-3.373,0-6.346,1.67-8.157,4.225
	C22.193,46.557,25.427,48,29,48c7.18,0,13-5.82,13-13C42,34.661,41.49,34.677,41.237,35z"/>
<path style="fill:#BFCAEF;" d="M20.935,32c-0.149,0-0.301-0.033-0.444-0.104c-0.495-0.246-0.696-0.846-0.451-1.341
	C21.743,27.129,25.176,25,29,25c0.552,0,1,0.447,1,1s-0.448,1-1,1c-3.06,0-5.807,1.703-7.169,4.445
	C21.656,31.797,21.302,32,20.935,32z"/>
<circle style="fill:#BFCAEF;" cx="20" cy="34" r="1"/>
<circle style="fill:#7383BF;" cx="39" cy="39" r="1"/>
<circle style="fill:#7383BF;" cx="24" cy="42" r="1"/>
<circle style="fill:#7383BF;" cx="27" cy="45" r="1"/>
<circle style="fill:#7383BF;" cx="30" cy="42" r="1"/>
<circle style="fill:#7383BF;" cx="36" cy="42" r="1"/>
<circle style="fill:#7383BF;" cx="33" cy="45" r="1"/>
<path style="fill:#999A9F;" d="M17,6c0-1.657-1.343-3-3-3s-3,1.343-3,3c0,0.171,0.023,0.336,0.05,0.5C11.023,6.664,11,6.829,11,7
	c0,1.657,1.343,3,3,3s3-1.343,3-3c0-0.171-0.023-0.336-0.05-0.5C16.977,6.336,17,6.171,17,6z"/>
<circle style="fill:#C2C4C8;" cx="14" cy="6" r="3"/>
<path style="fill:#999A9F;" d="M46,6c0-1.657-1.343-3-3-3s-3,1.343-3,3c0,0.171,0.023,0.336,0.05,0.5C40.023,6.664,40,6.829,40,7
	c0,1.657,1.343,3,3,3s3-1.343,3-3c0-0.171-0.023-0.336-0.05-0.5C45.977,6.336,46,6.171,46,6z"/>
<circle style="fill:#C2C4C8;" cx="43" cy="6" r="3"/>
<g>
</g>
<g>
</g>
<g>
</g>
<g>
</g>
<g>
</g>
<g>
</g>
<g>
</g>
<g>
</g>
<g>
</g>
<g>
</g>
<g>
</g>
<g>
</g>
<g>
</g>
<g>
</g>
<g>
</g>
</svg>
