<?xml version="1.0" encoding="iso-8859-1"?>
<!-- Generator: Adobe Illustrator 18.0.0, SVG Export Plug-In . SVG Version: 6.00 Build 0)  -->
<!DOCTYPE svg PUBLIC "-//W3C//DTD SVG 1.1//EN" "http://www.w3.org/Graphics/SVG/1.1/DTD/svg11.dtd">
<svg version="1.1" id="Capa_1" xmlns="http://www.w3.org/2000/svg" xmlns:xlink="http://www.w3.org/1999/xlink" x="0px" y="0px"
	 viewBox="0 0 58 58" style="enable-background:new 0 0 58 58;" xml:space="preserve">
<path style="fill:#D6D9DF;" d="M48.33,58H9.67C8.195,58,7,56.805,7,55.33V2.67C7,1.195,8.195,0,9.67,0h38.66
	C49.805,0,51,1.195,51,2.67v52.66C51,56.805,49.805,58,48.33,58z"/>
<path style="fill:#EAEBF0;" d="M42.77,42.942C44.794,40.144,46,36.717,46,33c0-9.389-7.611-17-17-17s-17,7.611-17,17s7.611,17,17,17
	c4.229,0,8.088-1.553,11.063-4.109l1.177,1.177c0.778,0.778,2.051,0.778,2.828,0c0.778-0.778,0.778-2.051,0-2.828L42.77,42.942z"/>
<path style="fill:#C2C4C8;" d="M48.33,0H9.67C8.195,0,7,1.195,7,2.67V12h44V2.67C51,1.195,49.805,0,48.33,0z"/>
<path style="fill:#EAEBF0;" d="M9.67,0C8.195,0,7,1.195,7,2.67V12h16V0H9.67z"/>
<path style="fill:#999A9F;" d="M33,6c0-1.657-1.343-3-3-3s-3,1.343-3,3c0,0.171,0.023,0.336,0.05,0.5C27.023,6.664,27,6.829,27,7
	c0,1.657,1.343,3,3,3s3-1.343,3-3c0-0.171-0.023-0.336-0.05-0.5C32.977,6.336,33,6.171,33,6z"/>
<path style="fill:#EAEBF0;" d="M38,4h-1c-0.552,0-1-0.447-1-1s0.448-1,1-1h1c0.552,0,1,0.447,1,1S38.552,4,38,4z"/>
<path style="fill:#EAEBF0;" d="M44,4h-3c-0.552,0-1-0.447-1-1s0.448-1,1-1h3c0.552,0,1,0.447,1,1S44.552,4,44,4z"/>
<path style="fill:#EAEBF0;" d="M38,7h-1c-0.552,0-1-0.447-1-1s0.448-1,1-1h1c0.552,0,1,0.447,1,1S38.552,7,38,7z"/>
<path style="fill:#EAEBF0;" d="M44,7h-3c-0.552,0-1-0.447-1-1s0.448-1,1-1h3c0.552,0,1,0.447,1,1S44.552,7,44,7z"/>
<path style="fill:#EAEBF0;" d="M38,10h-1c-0.552,0-1-0.447-1-1s0.448-1,1-1h1c0.552,0,1,0.447,1,1S38.552,10,38,10z"/>
<path style="fill:#EAEBF0;" d="M44,10h-3c-0.552,0-1-0.447-1-1s0.448-1,1-1h3c0.552,0,1,0.447,1,1S44.552,10,44,10z"/>
<path style="fill:#8C8E96;" d="M7,54v1.33C7,56.805,8.195,58,9.67,58h38.66c1.475,0,2.67-1.195,2.67-2.67V54H7z"/>
<circle style="fill:#7FABDA;" cx="29" cy="33" r="13"/>
<circle style="fill:#EAEBF0;" cx="30" cy="6" r="3"/>
<g>
</g>
<g>
</g>
<g>
</g>
<g>
</g>
<g>
</g>
<g>
</g>
<g>
</g>
<g>
</g>
<g>
</g>
<g>
</g>
<g>
</g>
<g>
</g>
<g>
</g>
<g>
</g>
<g>
</g>
</svg>
