<?xml version="1.0" encoding="iso-8859-1"?>
<!-- Generator: Adobe Illustrator 18.0.0, SVG Export Plug-In . SVG Version: 6.00 Build 0)  -->
<!DOCTYPE svg PUBLIC "-//W3C//DTD SVG 1.1//EN" "http://www.w3.org/Graphics/SVG/1.1/DTD/svg11.dtd">
<svg version="1.1" id="Capa_1" xmlns="http://www.w3.org/2000/svg" xmlns:xlink="http://www.w3.org/1999/xlink" x="0px" y="0px"
	 viewBox="0 0 60 60" style="enable-background:new 0 0 60 60;" xml:space="preserve">
<rect x="3" y="1.5" style="fill:#6C4127;" width="54" height="54"/>
<path style="fill:#556080;" d="M44,55.5l5-11c-2.511-2.511-4.443-6.055-5.939-10H16.939c-1.496,3.945-3.428,7.489-5.939,10l5,11H44z
	"/>
<rect x="1" y="55.5" style="fill:#BFA380;" width="58" height="4"/>
<g>
	<line style="fill:#BFA380;" x1="1" y1="1.5" x2="59" y2="1.5"/>
	<path style="fill:#BFA380;" d="M59,2.5H1c-0.553,0-1-0.447-1-1s0.447-1,1-1h58c0.553,0,1,0.447,1,1S59.553,2.5,59,2.5z"/>
</g>
<polygon style="fill:#6C4127;" points="32,30.5 32,4.5 28,4.5 28,30.5 6,30.5 6,34.5 54,34.5 54,30.5 "/>
<line style="fill:none;stroke:#23A24D;stroke-width:2;stroke-linecap:round;stroke-miterlimit:10;" x1="36" y1="39.5" x2="36" y2="48.5"/>
<path style="fill:#EBBA16;stroke:#EBBA16;stroke-width:2;stroke-linecap:round;stroke-linejoin:round;stroke-miterlimit:10;" d="
	M36,37.5l0.028,0.078c0.395,1.11,1.663,1.635,2.726,1.129l0.074-0.035l-0.035,0.074c-0.506,1.064,0.019,2.332,1.129,2.726L40,41.5
	l-0.078,0.028c-1.11,0.395-1.635,1.663-1.129,2.726l0.035,0.074l-0.074-0.035c-1.064-0.506-2.332,0.019-2.726,1.129L36,45.5
	l-0.028-0.078c-0.395-1.11-1.663-1.635-2.726-1.129l-0.074,0.035l0.035-0.074c0.506-1.064-0.019-2.332-1.129-2.726L32,41.5
	l0.078-0.028c1.11-0.395,1.635-1.663,1.129-2.726l-0.035-0.074l0.074,0.035c1.064,0.506,2.332-0.019,2.726-1.129L36,37.5z"/>
<path style="fill:#DD352E;" d="M6,34.5v9h5.924c2.068-2.413,3.708-5.553,5.016-9H6z"/>
<polygon style="fill:#DD352E;" points="6,55.5 16,55.5 11.455,45.5 6,45.5 "/>
<polygon style="fill:#DD352E;" points="44,55.5 54,55.5 54,45.5 48.545,45.5 "/>
<path style="fill:#DD352E;" d="M54,34.5H43.061c1.307,3.447,2.948,6.587,5.016,9H54V34.5z"/>
<path style="fill:#B02721;" d="M6,45.5h5.455L11,44.5c0.317-0.317,0.625-0.651,0.924-1H6V45.5z"/>
<path style="fill:#B02721;" d="M48.076,43.5c0.299,0.349,0.607,0.683,0.924,1l-0.455,1H54v-2H48.076z"/>
<rect x="6" y="4.5" style="fill:#8FBEC9;" width="48" height="26"/>
<path style="fill:#7383BF;" d="M22,4.5H6v26h12.283C21.852,18.365,22,4.5,22,4.5z"/>
<path style="fill:#7383BF;" d="M38,4.5c0,0,0.148,13.865,3.717,26H54v-26H38z"/>
<polygon style="fill:#6C4127;" points="32,30.5 32,4.5 28,4.5 28,30.5 18.283,30.5 6,30.5 6,34.5 16.939,34.5 43.061,34.5 54,34.5 
	54,30.5 41.717,30.5 "/>
<polygon style="fill:#E7ECED;" points="30,48.5 30,51.5 32,51.5 33,55.5 39,55.5 40,51.5 42,51.5 42,48.5 "/>
<path style="fill:#949493;" d="M40,51.5h-2c-0.553,0-1,0.447-1,1s0.447,1,1,1h1.5L40,51.5z"/>
<path style="fill:#949493;" d="M34,51.5h-2l0.5,2H34c0.553,0,1-0.447,1-1S34.553,51.5,34,51.5z"/>
<circle style="fill:#DC691D;" cx="36" cy="41.5" r="1"/>
<path style="fill:#AADAE2;" d="M23,4.5l-1.069,2.138c-0.194,4.348-0.925,14.604-3.648,23.862H20l8-15v-11H23z"/>
<path style="fill:#90A3E0;" d="M10,30.5h8.283c2.723-9.257,3.454-19.514,3.648-23.862L10,30.5z"/>
<g>
</g>
<g>
</g>
<g>
</g>
<g>
</g>
<g>
</g>
<g>
</g>
<g>
</g>
<g>
</g>
<g>
</g>
<g>
</g>
<g>
</g>
<g>
</g>
<g>
</g>
<g>
</g>
<g>
</g>
</svg>
