<?xml version="1.0" encoding="iso-8859-1"?>
<!-- Generator: Adobe Illustrator 18.0.0, SVG Export Plug-In . SVG Version: 6.00 Build 0)  -->
<!DOCTYPE svg PUBLIC "-//W3C//DTD SVG 1.1//EN" "http://www.w3.org/Graphics/SVG/1.1/DTD/svg11.dtd">
<svg version="1.1" id="Capa_1" xmlns="http://www.w3.org/2000/svg" xmlns:xlink="http://www.w3.org/1999/xlink" x="0px" y="0px"
	 viewBox="0 0 58 58" style="enable-background:new 0 0 58 58;" xml:space="preserve">
<path style="fill:#6C4127;" d="M17,7v4h10v31H17v4h38V7H17z"/>
<rect style="fill:#7383BF;" width="58" height="7"/>
<rect x="1" y="7" style="fill:#DD352E;" width="16" height="51"/>
<line style="fill:none;stroke:#B02721;stroke-width:2;stroke-miterlimit:10;" x1="4" y1="7" x2="4" y2="58"/>
<line style="fill:none;stroke:#B02721;stroke-width:2;stroke-miterlimit:10;" x1="8" y1="7" x2="8" y2="58"/>
<line style="fill:none;stroke:#B02721;stroke-width:2;stroke-miterlimit:10;" x1="11" y1="7" x2="11" y2="58"/>
<line style="fill:none;stroke:#B02721;stroke-width:2;stroke-miterlimit:10;" x1="14" y1="7" x2="14" y2="58"/>
<polygon style="fill:#7FABDA;" points="51,42 31,42 31,28 30,28 30,25 31,25 31,11 51,11 "/>
<rect x="17" y="11" style="fill:#7FABDA;" width="10" height="31"/>
<polygon style="fill:#A1C8EC;" points="46,11 31,25 31,37 51,19 51,11 "/>
<rect x="30" y="25" style="fill:#BFA380;" width="8" height="3"/>
<polygon style="fill:#A1C8EC;" points="23,11 17,17 17,28 27,18 27,11 "/>
<g>
</g>
<g>
</g>
<g>
</g>
<g>
</g>
<g>
</g>
<g>
</g>
<g>
</g>
<g>
</g>
<g>
</g>
<g>
</g>
<g>
</g>
<g>
</g>
<g>
</g>
<g>
</g>
<g>
</g>
</svg>
