<?xml version="1.0" encoding="iso-8859-1"?>
<!-- Generator: Adobe Illustrator 18.0.0, SVG Export Plug-In . SVG Version: 6.00 Build 0)  -->
<!DOCTYPE svg PUBLIC "-//W3C//DTD SVG 1.1//EN" "http://www.w3.org/Graphics/SVG/1.1/DTD/svg11.dtd">
<svg version="1.1" id="Capa_1" xmlns="http://www.w3.org/2000/svg" xmlns:xlink="http://www.w3.org/1999/xlink" x="0px" y="0px"
	 viewBox="0 0 57 57" style="enable-background:new 0 0 57 57;" xml:space="preserve">
<rect x="3.5" y="53" style="fill:#492510;" width="50" height="4"/>
<path style="fill:#A45D31;" d="M51.5,53h-46V23c0-12.703,10.297-23,23-23h0c12.703,0,23,10.297,23,23V53z"/>
<path style="fill:#7FABDA;" d="M8.5,50V23c0-11.028,8.972-20,20-20s20,8.972,20,20v27H8.5z"/>
<path style="fill:#A1C8EC;" d="M43.251,11.048c-2.419-2.98-5.721-5.205-9.503-6.295L9.5,48.4V49h12.667L43.251,11.048z"/>
<path style="fill:#553323;" d="M49.399,21c-0.493-5.193-2.892-9.828-6.48-13.227l-0.194-0.179c-0.013-0.012-0.027-0.022-0.04-0.034
	c-0.461-0.424-0.939-0.827-1.436-1.209c-0.036-0.028-0.073-0.054-0.109-0.081c-0.477-0.361-0.966-0.703-1.474-1.023
	c-0.069-0.044-0.14-0.085-0.21-0.128c-0.475-0.292-0.959-0.569-1.458-0.823c-0.113-0.058-0.228-0.109-0.342-0.165
	c-0.462-0.225-0.929-0.44-1.409-0.631c-0.166-0.066-0.335-0.122-0.502-0.184c-0.438-0.162-0.877-0.319-1.329-0.452
	c-0.233-0.069-0.47-0.121-0.706-0.182c-0.397-0.102-0.791-0.207-1.197-0.286c-0.34-0.067-0.685-0.108-1.029-0.157
	c-0.315-0.045-0.625-0.103-0.944-0.134C29.866,2.037,29.185,2,28.5,2c-0.683,0-1.361,0.037-2.034,0.103
	c-0.324,0.031-0.638,0.09-0.957,0.135c-0.336,0.049-0.673,0.089-1.006,0.154c-0.411,0.08-0.812,0.186-1.214,0.289
	C23.062,2.74,22.834,2.79,22.61,2.856c-0.457,0.134-0.903,0.292-1.346,0.456c-0.158,0.059-0.318,0.112-0.474,0.174
	c-0.485,0.192-0.957,0.407-1.423,0.634c-0.107,0.052-0.215,0.101-0.321,0.155c-0.501,0.254-0.988,0.53-1.465,0.822
	c-0.066,0.04-0.132,0.079-0.197,0.12c-0.506,0.318-0.995,0.656-1.471,1.015c-0.036,0.027-0.072,0.053-0.108,0.081
	c-0.494,0.376-0.968,0.774-1.427,1.192c-0.014,0.013-0.029,0.023-0.043,0.036l-0.29,0.267C10.477,11.203,8.093,15.825,7.601,21H7.5
	v2v14v14h20h22V37v-2V23v-2H49.399z M47.5,49h-18V37h18V49z M47.5,35H29.944L27.5,39.4V49h-5.333H9.5v-0.6V37h6.333l1.111-2H9.5V23
	h14.111l1.111-2H9.607c0.456-4.339,2.384-8.24,5.267-11.212l10.335,10.335l1.01-1.818l-9.871-9.872
	c1.238-1.036,2.591-1.896,4.02-2.58c0.083-0.04,0.164-0.081,0.248-0.12c0.386-0.178,0.78-0.338,1.177-0.489
	c0.162-0.061,0.324-0.122,0.489-0.179c0.35-0.123,0.704-0.234,1.061-0.336c0.233-0.066,0.469-0.125,0.706-0.182
	c0.311-0.076,0.622-0.149,0.937-0.209c0.323-0.061,0.652-0.106,0.98-0.15c0.247-0.034,0.493-0.075,0.742-0.098
	C27.299,4.035,27.895,4,28.5,4c0.605,0,1.202,0.035,1.793,0.091c0.246,0.023,0.488,0.064,0.733,0.097
	c0.333,0.045,0.665,0.09,0.992,0.152c0.31,0.059,0.617,0.131,0.923,0.206c0.243,0.059,0.485,0.119,0.724,0.187
	c0.027,0.008,0.054,0.018,0.081,0.026l0.002-0.004c0.119,0.034,0.232,0.079,0.35,0.116c0.204,0.063,0.408,0.123,0.61,0.193
	c0.079,0.027,0.156,0.057,0.234,0.086c0.445,0.161,0.882,0.339,1.311,0.531c0.04,0.018,0.081,0.032,0.121,0.05
	c0.002,0.001,0.004,0.002,0.006,0.003c1.162,0.531,2.255,1.182,3.277,1.926c0.026,0.019,0.052,0.037,0.078,0.056
	c0.311,0.229,0.614,0.466,0.91,0.713c0.002,0.002,0.005,0.004,0.007,0.006l0,0c0.513,0.428,1.006,0.878,1.471,1.357l0.002-0.002
	c0.012,0.013,0.023,0.027,0.035,0.039c0.341,0.353,0.668,0.718,0.981,1.096c0.007,0.008,0.015,0.016,0.022,0.025
	c0.028,0.034,0.06,0.065,0.087,0.1l-0.005,0.009c2.257,2.778,3.753,6.195,4.146,9.943h-9.67l-1.111,2H47.5V35z"/>
<path style="fill:#A1C8EC;" d="M36.253,5.679c-0.429-0.192-0.866-0.37-1.311-0.531c0.092,0.034,0.185,0.067,0.278,0.102
	C35.568,5.383,35.912,5.527,36.253,5.679z"/>
<path style="fill:#A1C8EC;" d="M39.657,7.658c-1.022-0.744-2.115-1.395-3.277-1.926c0.091,0.042,0.18,0.087,0.27,0.13
	C37.699,6.366,38.706,6.966,39.657,7.658z"/>
<path style="fill:#A1C8EC;" d="M42.161,9.828c0.34,0.353,0.668,0.718,0.981,1.096C42.829,10.545,42.502,10.18,42.161,9.828z"/>
<path style="fill:#684233;" d="M29.5,23h7.111l1.111-2h-6.808L42.123,9.791c-0.465-0.479-0.958-0.929-1.471-1.357L28.5,20.586
	l-2.281-2.281l-1.01,1.818L26.086,21h-1.364l-1.111,2H27.5v12H16.944l-1.111,2H27.5v2.4l2.444-4.4H29.5V23z"/>
<path style="fill:#A1C8EC;" d="M33.748,4.754l-0.002,0.004c0.118,0.034,0.235,0.075,0.352,0.112
	C33.98,4.833,33.867,4.788,33.748,4.754z"/>
<path style="fill:#A1C8EC;" d="M39.735,7.715c0.309,0.228,0.613,0.465,0.91,0.713C40.349,8.181,40.046,7.943,39.735,7.715z"/>
<path style="fill:#A1C8EC;" d="M43.251,11.048c-0.028-0.034-0.059-0.066-0.087-0.1c0.029,0.035,0.054,0.073,0.082,0.109
	L43.251,11.048z"/>
<g>
</g>
<g>
</g>
<g>
</g>
<g>
</g>
<g>
</g>
<g>
</g>
<g>
</g>
<g>
</g>
<g>
</g>
<g>
</g>
<g>
</g>
<g>
</g>
<g>
</g>
<g>
</g>
<g>
</g>
</svg>
