<?xml version="1.0" encoding="iso-8859-1"?>
<!-- Generator: Adobe Illustrator 18.0.0, SVG Export Plug-In . SVG Version: 6.00 Build 0)  -->
<!DOCTYPE svg PUBLIC "-//W3C//DTD SVG 1.1//EN" "http://www.w3.org/Graphics/SVG/1.1/DTD/svg11.dtd">
<svg version="1.1" id="Capa_1" xmlns="http://www.w3.org/2000/svg" xmlns:xlink="http://www.w3.org/1999/xlink" x="0px" y="0px"
	 viewBox="0 0 58 58" style="enable-background:new 0 0 58 58;" xml:space="preserve">
<path style="fill:#6B4842;" d="M31,4h-4H2v23v4v23h25h4h25V31v-4V4H31z"/>
<rect x="6" y="8" style="fill:#7383BF;" width="21" height="19"/>
<rect x="6" y="31" style="fill:#7383BF;" width="21" height="19"/>
<rect x="31" y="31" style="fill:#7383BF;" width="21" height="19"/>
<rect x="31" y="8" style="fill:#7383BF;" width="21" height="19"/>
<rect style="fill:#847059;" width="58" height="4"/>
<rect y="54" style="fill:#847059;" width="58" height="4"/>
<polygon style="fill:#93A3D8;" points="15,31 6,40 6,46 21,31 "/>
<polygon style="fill:#93A3D8;" points="40,31 31,40 31,46 46,31 "/>
<polygon style="fill:#93A3D8;" points="15,8 6,17 6,23 21,8 "/>
<polygon style="fill:#93A3D8;" points="40,8 31,17 31,23 46,8 "/>
<g>
</g>
<g>
</g>
<g>
</g>
<g>
</g>
<g>
</g>
<g>
</g>
<g>
</g>
<g>
</g>
<g>
</g>
<g>
</g>
<g>
</g>
<g>
</g>
<g>
</g>
<g>
</g>
<g>
</g>
</svg>
