<?xml version="1.0" encoding="iso-8859-1"?>
<!-- Generator: Adobe Illustrator 18.0.0, SVG Export Plug-In . SVG Version: 6.00 Build 0)  -->
<!DOCTYPE svg PUBLIC "-//W3C//DTD SVG 1.1//EN" "http://www.w3.org/Graphics/SVG/1.1/DTD/svg11.dtd">
<svg version="1.1" id="Capa_1" xmlns="http://www.w3.org/2000/svg" xmlns:xlink="http://www.w3.org/1999/xlink" x="0px" y="0px"
	 viewBox="0 0 59 59" style="enable-background:new 0 0 59 59;" xml:space="preserve">
<path style="fill:#F5D9C3;" d="M7,5v49h45V5H7z"/>
<g>
	<rect x="31" y="8" style="fill:#6E7881;" width="18" height="20"/>
	<rect x="10" y="8" style="fill:#6E7881;" width="18" height="20"/>
	<rect x="10" y="31" style="fill:#6E7881;" width="18" height="20"/>
	<rect x="31" y="31" style="fill:#6E7881;" width="18" height="20"/>
</g>
<g>
	<path style="fill:#FCEDE3;" d="M30,7v22h20V7H30z M48,27H32V9h16V27z"/>
	<path style="fill:#FCEDE3;" d="M9,29h20V7H9V29z M11,9h16v18H11V9z"/>
	<path style="fill:#FCEDE3;" d="M9,52h20V30H9V52z M11,32h16v18H11V32z"/>
	<path style="fill:#FCEDE3;" d="M30,52h20V30H30V52z M32,32h16v18H32V32z"/>
</g>
<rect x="5" y="54" style="fill:#D7B29F;" width="49" height="4"/>
<rect x="5" y="1" style="fill:#D7B29F;" width="49" height="4"/>
<path style="fill:#B45F74;" d="M57,2H2C1.447,2,1,1.553,1,1s0.447-1,1-1h55c0.553,0,1,0.447,1,1S57.553,2,57,2z"/>
<path style="fill:#B45F74;" d="M57,59H2c-0.553,0-1-0.447-1-1s0.447-1,1-1h55c0.553,0,1,0.447,1,1S57.553,59,57,59z"/>
<polygon style="fill:#919FAA;" points="19,27 13,27 21,9 27,9 "/>
<polygon style="fill:#919FAA;" points="40,27 34,27 42,9 48,9 "/>
<polygon style="fill:#919FAA;" points="19,50 13,50 21,32 27,32 "/>
<polygon style="fill:#919FAA;" points="40,50 34,50 42,32 48,32 "/>
<g>
</g>
<g>
</g>
<g>
</g>
<g>
</g>
<g>
</g>
<g>
</g>
<g>
</g>
<g>
</g>
<g>
</g>
<g>
</g>
<g>
</g>
<g>
</g>
<g>
</g>
<g>
</g>
<g>
</g>
</svg>
