<?xml version="1.0" encoding="iso-8859-1"?>
<!-- Generator: Adobe Illustrator 18.0.0, SVG Export Plug-In . SVG Version: 6.00 Build 0)  -->
<!DOCTYPE svg PUBLIC "-//W3C//DTD SVG 1.1//EN" "http://www.w3.org/Graphics/SVG/1.1/DTD/svg11.dtd">
<svg version="1.1" id="Capa_1" xmlns="http://www.w3.org/2000/svg" xmlns:xlink="http://www.w3.org/1999/xlink" x="0px" y="0px"
	 viewBox="0 0 58 58" style="enable-background:new 0 0 58 58;" xml:space="preserve">
<rect x="16" y="11" style="fill:#38454F;" width="26" height="36"/>
<rect x="1" y="55" style="fill:#6B5B4B;" width="56" height="3"/>
<rect x="2" y="7" style="fill:#6C4127;" width="3" height="44"/>
<rect x="53" y="7" style="fill:#6C4127;" width="3" height="44"/>
<rect x="12" y="3" style="fill:#995C3D;" width="4" height="49"/>
<polygon style="fill:#7FABDA;" points="12,52 5,51 5,7 12,3 "/>
<rect x="42" y="3" style="fill:#995C3D;" width="4" height="49"/>
<polygon style="fill:#7FABDA;" points="46,52 53,51 53,7 46,3 "/>
<polygon style="fill:#BFA380;" points="0,0 0,4 10.25,4 12,3 16,3 16,4 42,4 42,3 46,3 47.75,4 58,4 58,0 "/>
<g>
	<rect x="16" y="47" style="fill:#844F32;" width="26" height="4"/>
	<rect x="16" y="7" style="fill:#844F32;" width="26" height="4"/>
</g>
<polygon style="fill:#BFA380;" points="53,51 46,52 42,52 42,51 16,51 16,52 12,52 5,51 0,51 0,55 58,55 58,51 "/>
<g>
	<rect x="16" y="4" style="fill:#6B5B4B;" width="26" height="3"/>
	<polygon style="fill:#6B5B4B;" points="10.25,4 1,4 1,7 5,7 	"/>
	<polygon style="fill:#6B5B4B;" points="47.766,4 53,7 57,7 57,4 	"/>
</g>
<rect x="31.879" y="17.879" transform="matrix(0.7071 0.7071 -0.7071 0.7071 24.1005 -18.1838)" style="fill:#EBBA16;stroke:#EFCE4A;stroke-width:2;stroke-linecap:round;stroke-miterlimit:10;" width="4.243" height="4.243"/>
<line style="fill:#EBBA16;stroke:#EFCE4A;stroke-width:2;stroke-linecap:round;stroke-miterlimit:10;" x1="34" y1="17" x2="34" y2="15"/>
<line style="fill:#EBBA16;stroke:#EFCE4A;stroke-width:2;stroke-linecap:round;stroke-miterlimit:10;" x1="37" y1="20" x2="39" y2="20"/>
<line style="fill:#EBBA16;stroke:#EFCE4A;stroke-width:2;stroke-linecap:round;stroke-miterlimit:10;" x1="34" y1="23" x2="34" y2="25"/>
<line style="fill:#EBBA16;stroke:#EFCE4A;stroke-width:2;stroke-linecap:round;stroke-miterlimit:10;" x1="31" y1="20" x2="29" y2="20"/>
<circle style="fill:#EBBA16;" cx="37" cy="41.25" r="1"/>
<circle style="fill:#EBBA16;" cx="21.312" cy="35.625" r="1"/>
<circle style="fill:#EBBA16;" cx="31.5" cy="31.25" r="1"/>
<circle style="fill:#EBBA16;" cx="22.312" cy="20" r="1"/>
<polygon style="fill:#9BC4EA;" points="12,7 12,11 5,32 5,7 12,3 "/>
<polygon style="fill:#9BC4EA;" points="46,7 46,11 53,32 53,7 46,3 "/>
<g>
</g>
<g>
</g>
<g>
</g>
<g>
</g>
<g>
</g>
<g>
</g>
<g>
</g>
<g>
</g>
<g>
</g>
<g>
</g>
<g>
</g>
<g>
</g>
<g>
</g>
<g>
</g>
<g>
</g>
</svg>
