<?xml version="1.0" encoding="iso-8859-1"?>
<!-- Generator: Adobe Illustrator 18.0.0, SVG Export Plug-In . SVG Version: 6.00 Build 0)  -->
<!DOCTYPE svg PUBLIC "-//W3C//DTD SVG 1.1//EN" "http://www.w3.org/Graphics/SVG/1.1/DTD/svg11.dtd">
<svg version="1.1" id="Capa_1" xmlns="http://www.w3.org/2000/svg" xmlns:xlink="http://www.w3.org/1999/xlink" x="0px" y="0px"
	 viewBox="0 0 60 60" style="enable-background:new 0 0 60 60;" xml:space="preserve">
<polygon style="fill:#7FABDA;" points="30,7 12,7 12,36 30,36 48,36 48,7 "/>
<path style="fill:#FFFFFF;" d="M31,6h-2H11v31h18h2h18V6H31z M29,35H13V8h16V35z M47,35H31V8h16V35z"/>
<rect x="2" y="2" style="fill:#7383BF;" width="5" height="57"/>
<rect x="7" y="2" style="fill:#54659B;" width="4" height="57"/>
<rect x="53" y="2" style="fill:#7383BF;" width="5" height="57"/>
<rect x="49" y="2" style="fill:#54659B;" width="4" height="57"/>
<rect x="11" y="37" style="fill:#E6E8D7;" width="38" height="4"/>
<rect x="11" y="41" style="fill:#979B94;" width="38" height="3"/>
<rect x="11" y="2" style="fill:#E6E8D7;" width="38" height="4"/>
<line style="fill:none;stroke:#556080;stroke-width:2;stroke-linecap:round;stroke-miterlimit:10;" x1="1" y1="2" x2="59" y2="2"/>
<polygon style="fill:#A4C9EA;" points="29,11.333 13,28.417 13,34.417 29,16.917 "/>
<polygon style="fill:#A4C9EA;" points="47,11.333 31,28.417 31,34.417 47,16.917 "/>
<g>
</g>
<g>
</g>
<g>
</g>
<g>
</g>
<g>
</g>
<g>
</g>
<g>
</g>
<g>
</g>
<g>
</g>
<g>
</g>
<g>
</g>
<g>
</g>
<g>
</g>
<g>
</g>
<g>
</g>
</svg>
