<?xml version="1.0" encoding="iso-8859-1"?>
<!-- Generator: Adobe Illustrator 18.0.0, SVG Export Plug-In . SVG Version: 6.00 Build 0)  -->
<!DOCTYPE svg PUBLIC "-//W3C//DTD SVG 1.1//EN" "http://www.w3.org/Graphics/SVG/1.1/DTD/svg11.dtd">
<svg version="1.1" id="Capa_1" xmlns="http://www.w3.org/2000/svg" xmlns:xlink="http://www.w3.org/1999/xlink" x="0px" y="0px"
	 viewBox="0 0 58 58" style="enable-background:new 0 0 58 58;" xml:space="preserve">
<rect x="53" y="7" style="fill:#D3DEE0;" width="3" height="44"/>
<path style="fill:#FFFFFF;" d="M5,7v44h48V7H5z"/>
<rect x="9" y="11" style="fill:#556080;" width="40" height="36"/>
<rect style="fill:#E7ECED;" width="58" height="4"/>
<rect x="1" y="4" style="fill:#949493;" width="56" height="3"/>
<rect y="51" style="fill:#E7ECED;" width="58" height="4"/>
<rect x="1" y="55" style="fill:#949493;" width="56" height="3"/>
<rect x="2" y="7" style="fill:#D3DEE0;" width="3" height="44"/>
<line style="fill:none;stroke:#E7ECED;stroke-width:2;stroke-linecap:round;stroke-miterlimit:10;" x1="29" y1="34" x2="29" y2="37"/>
<circle style="fill:none;stroke:#E7ECED;stroke-width:2;stroke-linecap:round;stroke-miterlimit:10;" cx="29" cy="40" r="3"/>
<rect x="9" y="11" style="fill:#71C3A9;" width="40" height="23"/>
<g>
	<circle style="fill:#25AE88;" cx="12" cy="17" r="1"/>
	<circle style="fill:#25AE88;" cx="18" cy="17" r="1"/>
	<circle style="fill:#25AE88;" cx="15" cy="14" r="1"/>
	<circle style="fill:#25AE88;" cx="21" cy="14" r="1"/>
	<circle style="fill:#25AE88;" cx="15" cy="20" r="1"/>
	<circle style="fill:#25AE88;" cx="21" cy="20" r="1"/>
	<circle style="fill:#25AE88;" cx="24" cy="17" r="1"/>
	<circle style="fill:#25AE88;" cx="30" cy="17" r="1"/>
	<circle style="fill:#25AE88;" cx="27" cy="14" r="1"/>
	<circle style="fill:#25AE88;" cx="33" cy="14" r="1"/>
	<circle style="fill:#25AE88;" cx="27" cy="20" r="1"/>
	<circle style="fill:#25AE88;" cx="33" cy="20" r="1"/>
	<circle style="fill:#25AE88;" cx="36" cy="17" r="1"/>
	<circle style="fill:#25AE88;" cx="42" cy="17" r="1"/>
	<circle style="fill:#25AE88;" cx="39" cy="14" r="1"/>
	<circle style="fill:#25AE88;" cx="45" cy="14" r="1"/>
	<circle style="fill:#25AE88;" cx="39" cy="20" r="1"/>
	<circle style="fill:#25AE88;" cx="45" cy="20" r="1"/>
	<circle style="fill:#25AE88;" cx="12" cy="23" r="1"/>
	<circle style="fill:#25AE88;" cx="18" cy="23" r="1"/>
	<circle style="fill:#25AE88;" cx="12" cy="29" r="1"/>
	<circle style="fill:#25AE88;" cx="18" cy="29" r="1"/>
	<circle style="fill:#25AE88;" cx="15" cy="26" r="1"/>
	<circle style="fill:#25AE88;" cx="21" cy="26" r="1"/>
	<circle style="fill:#25AE88;" cx="15" cy="32" r="1"/>
	<circle style="fill:#25AE88;" cx="21" cy="32" r="1"/>
	<circle style="fill:#25AE88;" cx="24" cy="23" r="1"/>
	<circle style="fill:#25AE88;" cx="30" cy="23" r="1"/>
	<circle style="fill:#25AE88;" cx="24" cy="29" r="1"/>
	<circle style="fill:#25AE88;" cx="30" cy="29" r="1"/>
	<circle style="fill:#25AE88;" cx="27" cy="26" r="1"/>
	<circle style="fill:#25AE88;" cx="33" cy="26" r="1"/>
	<circle style="fill:#25AE88;" cx="27" cy="32" r="1"/>
	<circle style="fill:#25AE88;" cx="33" cy="32" r="1"/>
	<circle style="fill:#25AE88;" cx="36" cy="23" r="1"/>
	<circle style="fill:#25AE88;" cx="42" cy="23" r="1"/>
	<circle style="fill:#25AE88;" cx="36" cy="29" r="1"/>
	<circle style="fill:#25AE88;" cx="42" cy="29" r="1"/>
	<circle style="fill:#25AE88;" cx="39" cy="26" r="1"/>
	<circle style="fill:#25AE88;" cx="45" cy="26" r="1"/>
	<circle style="fill:#25AE88;" cx="39" cy="32" r="1"/>
	<circle style="fill:#25AE88;" cx="45" cy="32" r="1"/>
</g>
<g>
</g>
<g>
</g>
<g>
</g>
<g>
</g>
<g>
</g>
<g>
</g>
<g>
</g>
<g>
</g>
<g>
</g>
<g>
</g>
<g>
</g>
<g>
</g>
<g>
</g>
<g>
</g>
<g>
</g>
</svg>
