<?xml version="1.0" encoding="iso-8859-1"?>
<!-- Generator: Adobe Illustrator 18.0.0, SVG Export Plug-In . SVG Version: 6.00 Build 0)  -->
<!DOCTYPE svg PUBLIC "-//W3C//DTD SVG 1.1//EN" "http://www.w3.org/Graphics/SVG/1.1/DTD/svg11.dtd">
<svg version="1.1" id="Capa_1" xmlns="http://www.w3.org/2000/svg" xmlns:xlink="http://www.w3.org/1999/xlink" x="0px" y="0px"
	 viewBox="0 0 58 58" style="enable-background:new 0 0 58 58;" xml:space="preserve">
<rect x="5" y="35.035" style="fill:#28384C;" width="48" height="15.965"/>
<rect style="fill:#FBF6F2;" width="58" height="4"/>
<rect x="1" y="4" style="fill:#BCB7B3;" width="56" height="3"/>
<rect x="53" y="7" style="fill:#EDE7E9;" width="3" height="44"/>
<polygon style="fill:#DBD6D2;" points="5,7 5,35 36.277,35 43.723,35 53,35 53,7 "/>
<rect y="51" style="fill:#FBF6F2;" width="58" height="4"/>
<rect x="1" y="55" style="fill:#BCB7B3;" width="56" height="3"/>
<rect x="2" y="7" style="fill:#EDE7E9;" width="3" height="44"/>
<rect x="8" y="10" style="fill:#7FABDA;" width="42" height="22"/>
<line style="fill:none;stroke:#23A24D;stroke-width:2;stroke-linecap:round;stroke-miterlimit:10;" x1="40" y1="41" x2="40" y2="43"/>
<path style="fill:#EBBA16;" d="M44,37c0-0.552-0.224-1.052-0.586-1.414c0-0.512-0.195-1.024-0.586-1.414
	c-0.391-0.391-0.902-0.586-1.414-0.586C41.052,33.224,40.552,33,40,33c-0.552,0-1.052,0.224-1.414,0.586
	c-0.512,0-1.024,0.195-1.414,0.586c-0.39,0.391-0.586,0.902-0.586,1.414C36.224,35.948,36,36.448,36,37s0.224,1.052,0.586,1.414
	c0,0.512,0.195,1.024,0.586,1.414c0.391,0.39,0.902,0.586,1.414,0.586C38.948,40.776,39.448,41,40,41s1.052-0.224,1.414-0.586
	c0.512,0,1.024-0.195,1.414-0.586c0.39-0.391,0.586-0.902,0.586-1.414C43.776,38.052,44,37.552,44,37z"/>
<circle style="fill:#DD352E;" cx="40" cy="37" r="1"/>
<polygon style="fill:#F7B563;" points="43,51 37,51 35,46 45,46 "/>
<polygon style="fill:#BC8850;" points="46,46 34,46 33,43 47,43 "/>
<polygon style="fill:#A4C9EA;" points="24,10 8,29 8,32 11,32 29,10 "/>
<polygon style="fill:#D2E8F9;" points="33,10 15,32 17,32 20,32 38,10 "/>
<g>
</g>
<g>
</g>
<g>
</g>
<g>
</g>
<g>
</g>
<g>
</g>
<g>
</g>
<g>
</g>
<g>
</g>
<g>
</g>
<g>
</g>
<g>
</g>
<g>
</g>
<g>
</g>
<g>
</g>
</svg>
