<?xml version="1.0" encoding="iso-8859-1"?>
<!-- Generator: Adobe Illustrator 18.0.0, SVG Export Plug-In . SVG Version: 6.00 Build 0)  -->
<!DOCTYPE svg PUBLIC "-//W3C//DTD SVG 1.1//EN" "http://www.w3.org/Graphics/SVG/1.1/DTD/svg11.dtd">
<svg version="1.1" id="Capa_1" xmlns="http://www.w3.org/2000/svg" xmlns:xlink="http://www.w3.org/1999/xlink" x="0px" y="0px"
	 viewBox="0 0 48 48" style="enable-background:new 0 0 48 48;" xml:space="preserve">
<g>
	<path style="fill:#F4D99D;" d="M3,47.5L3,47.5c-1.657,0-3-1.343-3-3v-41c0-1.657,1.343-3,3-3h0c1.657,0,3,1.343,3,3v41
		C6,46.157,4.657,47.5,3,47.5z"/>
	<path style="fill:#F4D99D;" d="M45,47.5L45,47.5c-1.657,0-3-1.343-3-3v-41c0-1.657,1.343-3,3-3h0c1.657,0,3,1.343,3,3v41
		C48,46.157,46.657,47.5,45,47.5z"/>
	<g>
		<rect x="6" y="9.5" style="fill:#F4D99D;" width="6" height="2"/>
		<rect x="24" y="9.5" style="fill:#F4D99D;" width="18" height="2"/>
		<rect x="6" y="37.5" style="fill:#F4D99D;" width="18" height="2"/>
		<rect x="6" y="23.5" style="fill:#F4D99D;" width="8" height="2"/>
		<rect x="32" y="23.5" style="fill:#F4D99D;" width="10" height="2"/>
		<rect x="36" y="37.5" style="fill:#F4D99D;" width="6" height="2"/>
	</g>
	<path style="fill:#CC66A1;" d="M16.577,15.5h-3.154C12.637,15.5,12,14.863,12,14.077V6.923C12,6.137,12.637,5.5,13.423,5.5h3.154
		C17.363,5.5,18,6.137,18,6.923v7.154C18,14.863,17.363,15.5,16.577,15.5z"/>
	<path style="fill:#B49ACA;" d="M22.577,15.5h-3.154C18.637,15.5,18,14.863,18,14.077V6.923C18,6.137,18.637,5.5,19.423,5.5h3.154
		C23.363,5.5,24,6.137,24,6.923v7.154C24,14.863,23.363,15.5,22.577,15.5z"/>
	<path style="fill:#49CCEA;" d="M28.505,43.5h-3.01C24.669,43.5,24,42.831,24,42.005v-7.01c0-0.826,0.669-1.495,1.495-1.495h3.01
		c0.826,0,1.495,0.669,1.495,1.495v7.01C30,42.831,29.331,43.5,28.505,43.5z"/>
	<path style="fill:#2FA8CC;" d="M34.505,43.5h-3.01C30.669,43.5,30,42.831,30,42.005v-7.01c0-0.826,0.669-1.495,1.495-1.495h3.01
		c0.826,0,1.495,0.669,1.495,1.495v7.01C36,42.831,35.331,43.5,34.505,43.5z"/>
	<path style="fill:#F29C1F;" d="M18.875,29.5h-3.75C14.504,29.5,14,28.996,14,28.375v-7.75c0-0.621,0.504-1.125,1.125-1.125h3.75
		c0.621,0,1.125,0.504,1.125,1.125v7.75C20,28.996,19.496,29.5,18.875,29.5z"/>
	<path style="fill:#F0C419;" d="M24.875,29.5h-3.75C20.504,29.5,20,28.996,20,28.375v-7.75c0-0.621,0.504-1.125,1.125-1.125h3.75
		c0.621,0,1.125,0.504,1.125,1.125v7.75C26,28.996,25.496,29.5,24.875,29.5z"/>
	<path style="fill:#71C285;" d="M30.875,29.5h-3.75C26.504,29.5,26,28.996,26,28.375v-7.75c0-0.621,0.504-1.125,1.125-1.125h3.75
		c0.621,0,1.125,0.504,1.125,1.125v7.75C32,28.996,31.496,29.5,30.875,29.5z"/>
</g>
<g>
</g>
<g>
</g>
<g>
</g>
<g>
</g>
<g>
</g>
<g>
</g>
<g>
</g>
<g>
</g>
<g>
</g>
<g>
</g>
<g>
</g>
<g>
</g>
<g>
</g>
<g>
</g>
<g>
</g>
</svg>
