<?xml version="1.0" encoding="iso-8859-1"?>
<!-- Generator: Adobe Illustrator 18.0.0, SVG Export Plug-In . SVG Version: 6.00 Build 0)  -->
<!DOCTYPE svg PUBLIC "-//W3C//DTD SVG 1.1//EN" "http://www.w3.org/Graphics/SVG/1.1/DTD/svg11.dtd">
<svg version="1.1" id="Capa_1" xmlns="http://www.w3.org/2000/svg" xmlns:xlink="http://www.w3.org/1999/xlink" x="0px" y="0px"
	 viewBox="0 0 54.885 54.885" style="enable-background:new 0 0 54.885 54.885;" xml:space="preserve">
<g>
	<path style="fill:#F2BC8B;" d="M4.442,35.219c-3,0-4.442-2.181-4.442-4.872c0-2.69,1.442-4.871,4.442-4.871V35.219z"/>
	<path style="fill:#F2BC8B;" d="M50.442,35.219c3,0,4.442-2.181,4.442-4.872c0-2.69-1.442-4.871-4.442-4.871V35.219z"/>
	<path style="fill:#FDD7AD;" d="M41.999,11.224l-0.173-0.002c0.023,0.918,0.221,2.613,1.255,4.079
		c0.478,0.678,0.05,1.615-0.778,1.658c-3.11,0.16-8.876,0.019-11.86-2.678v-3.209l-5.993-0.079v3.28
		c-2.984,2.697-8.532,2.846-11.642,2.685c-0.828-0.043-1.255-0.98-0.778-1.658c1.201-1.703,1.274-3.711,1.255-4.455l-0.103-0.001
		c-5.776,4.319-9.516,11.212-9.516,18.979c0,13.079,10.604,23.683,23.683,23.683s23.682-10.604,23.682-23.683
		C51.029,22.277,47.496,15.56,41.999,11.224z"/>
	<g>
		<path style="fill:#F2BC8B;" d="M21.936,26.781c-0.256,0-0.512-0.098-0.707-0.293c-2.194-2.194-5.764-2.194-7.958,0
			c-0.391,0.391-1.023,0.391-1.414,0s-0.391-1.023,0-1.414c2.974-2.973,7.813-2.974,10.787,0c0.391,0.391,0.391,1.023,0,1.414
			C22.447,26.684,22.191,26.781,21.936,26.781z"/>
		<path style="fill:#F2BC8B;" d="M41.942,26.781c-0.256,0-0.512-0.098-0.707-0.293c-1.064-1.063-2.477-1.649-3.979-1.649
			s-2.915,0.586-3.979,1.649c-0.39,0.391-1.023,0.391-1.414,0c-0.391-0.39-0.391-1.023,0-1.414c1.441-1.441,3.356-2.235,5.393-2.235
			s3.952,0.794,5.394,2.235c0.391,0.391,0.391,1.023,0,1.414C42.454,26.684,42.198,26.781,41.942,26.781z"/>
	</g>
	<path style="fill:#F2BC8B;" d="M27.253,44.421c-1.926,0-3.852-0.733-5.319-2.198c-0.391-0.391-0.391-1.024,0-1.415
		c0.391-0.391,1.024-0.39,1.415,0c2.153,2.152,5.656,2.152,7.808,0c0.391-0.391,1.023-0.391,1.414,0s0.391,1.023,0,1.414
		C31.105,43.689,29.179,44.421,27.253,44.421z"/>
	<path style="fill:#E64C3C;" d="M17.203,6.733c-2.423-0.989-4.367-2.258-5.247-3.322c0.597,2.093,1.313,5.034,1.313,7.134
		c0,0,0.265,2.621-1.239,4.755c-0.478,0.678-0.05,1.615,0.778,1.658c3.11,0.16,8.658,0.011,11.642-2.685V7.559
		C23.727,8.459,20.607,8.122,17.203,6.733z"/>
	<path style="fill:#E64C3C;" d="M41.841,10.545c0-2.227,0.806-5.41,1.42-7.513c0.045-0.155,0.003-0.293-0.081-0.395
		c-0.364,1.164-2.654,2.851-5.703,4.096c-2.934,1.197-5.876,1.622-7.036,1.138v6.409c2.984,2.697,8.75,2.838,11.86,2.678
		c0.828-0.043,1.255-0.98,0.778-1.658C41.576,13.166,41.841,10.545,41.841,10.545z"/>
	<path style="fill:#C03A2B;" d="M24.449,7.399c0-0.205,0.042-0.399,0.104-0.583c-0.351-1.165-2.647-2.859-5.707-4.108
		c-3.607-1.472-6.898-1.764-7.352-0.653s2.102,3.206,5.709,4.678c3.403,1.389,6.523,1.726,7.246,0.826V7.399z"/>
	<path style="fill:#C03A2B;" d="M43.187,2.055c-0.454-1.112-3.745-0.819-7.352,0.653c-2.684,1.096-4.784,2.536-5.497,3.659
		c0.203,0.294,0.322,0.649,0.322,1.033v0.463c1.159,0.484,3.884,0.068,6.817-1.13C41.085,5.261,43.641,3.166,43.187,2.055z"/>
	<path style="fill:#D25627;" d="M27.848,4.576h-0.585c-2.103,0-3.813,1.71-3.813,3.813v4.312c0,2.103,1.71,3.813,3.813,3.813h0.585
		c2.083,0,3.595-1.532,3.595-3.644V8.559C31.442,6.326,29.863,4.576,27.848,4.576z"/>
</g>
<g>
</g>
<g>
</g>
<g>
</g>
<g>
</g>
<g>
</g>
<g>
</g>
<g>
</g>
<g>
</g>
<g>
</g>
<g>
</g>
<g>
</g>
<g>
</g>
<g>
</g>
<g>
</g>
<g>
</g>
</svg>
