<?xml version="1.0" encoding="iso-8859-1"?>
<!-- Generator: Adobe Illustrator 18.0.0, SVG Export Plug-In . SVG Version: 6.00 Build 0)  -->
<!DOCTYPE svg PUBLIC "-//W3C//DTD SVG 1.1//EN" "http://www.w3.org/Graphics/SVG/1.1/DTD/svg11.dtd">
<svg version="1.1" id="Capa_1" xmlns="http://www.w3.org/2000/svg" xmlns:xlink="http://www.w3.org/1999/xlink" x="0px" y="0px"
	 viewBox="0 0 55.125 55.125" style="enable-background:new 0 0 55.125 55.125;" xml:space="preserve">
<g>
	<path style="fill:#F2BC8B;" d="M4.563,36.839c-3,0-4.442-2.181-4.442-4.872c0-2.69,1.442-4.871,4.442-4.871V36.839z"/>
	<path style="fill:#F2BC8B;" d="M50.563,36.839c3,0,4.442-2.181,4.442-4.872c0-2.69-1.442-4.871-4.442-4.871V36.839z"/>
	<circle style="fill:#FDD7AD;" cx="27.467" cy="31.442" r="23.682"/>
	<g>
		<path style="fill:#F2BC8B;" d="M22.056,28.401c-0.256,0-0.512-0.098-0.707-0.293c-2.194-2.194-5.764-2.194-7.958,0
			c-0.391,0.391-1.023,0.391-1.414,0s-0.391-1.023,0-1.414c2.974-2.973,7.813-2.974,10.787,0c0.391,0.391,0.391,1.023,0,1.414
			C22.567,28.304,22.312,28.401,22.056,28.401z"/>
		<path style="fill:#F2BC8B;" d="M42.063,28.401c-0.256,0-0.512-0.098-0.707-0.293c-1.064-1.063-2.477-1.649-3.979-1.649
			s-2.915,0.586-3.979,1.649c-0.39,0.391-1.023,0.391-1.414,0c-0.391-0.39-0.391-1.023,0-1.414c1.441-1.441,3.356-2.235,5.393-2.235
			s3.952,0.794,5.394,2.235c0.391,0.391,0.391,1.023,0,1.414C42.574,28.304,42.318,28.401,42.063,28.401z"/>
	</g>
	<path style="fill:#F2BC8B;" d="M27.373,46.042c-1.926,0-3.852-0.733-5.319-2.198c-0.391-0.391-0.391-1.024,0-1.415
		c0.391-0.391,1.024-0.39,1.415,0c2.153,2.152,5.656,2.152,7.808,0c0.391-0.391,1.023-0.391,1.414,0s0.391,1.023,0,1.414
		C31.225,45.309,29.299,46.042,27.373,46.042z"/>
	<g>
		<path style="fill:#2C2F38;" d="M23.563,14c-0.552,0-1-0.448-1-1V5c0-0.552,0.448-1,1-1s1,0.448,1,1v8
			C24.563,13.552,24.115,14,23.563,14z"/>
		<path style="fill:#2C2F38;" d="M31.563,14c-0.552,0-1-0.448-1-1V5c0-0.552,0.448-1,1-1s1,0.448,1,1v8
			C32.563,13.552,32.115,14,31.563,14z"/>
		<path style="fill:#2C2F38;" d="M27.563,14c-0.552,0-1-0.448-1-1V1c0-0.552,0.448-1,1-1s1,0.448,1,1v12
			C28.563,13.552,28.115,14,27.563,14z"/>
	</g>
</g>
<g>
</g>
<g>
</g>
<g>
</g>
<g>
</g>
<g>
</g>
<g>
</g>
<g>
</g>
<g>
</g>
<g>
</g>
<g>
</g>
<g>
</g>
<g>
</g>
<g>
</g>
<g>
</g>
<g>
</g>
</svg>
