<?xml version="1.0" encoding="iso-8859-1"?>
<!-- Generator: Adobe Illustrator 18.0.0, SVG Export Plug-In . SVG Version: 6.00 Build 0)  -->
<!DOCTYPE svg PUBLIC "-//W3C//DTD SVG 1.1//EN" "http://www.w3.org/Graphics/SVG/1.1/DTD/svg11.dtd">
<svg version="1.1" id="Capa_1" xmlns="http://www.w3.org/2000/svg" xmlns:xlink="http://www.w3.org/1999/xlink" x="0px" y="0px"
	 viewBox="0 0 51 51" style="enable-background:new 0 0 51 51;" xml:space="preserve">
<g>
	<circle style="fill:#00B3E9;" cx="25.5" cy="25.5" r="25.5"/>
	<path style="fill:#31BCEB;" d="M25.5,0C11.417,0,0,11.417,0,25.5c0,2.059,0.261,4.055,0.724,5.972
		c2.511-6.414,6.43-12.374,11.57-17.515c6.02-6.019,13.254-10.404,20.91-12.759C30.773,0.426,28.187,0,25.5,0z"/>
	<path style="fill:#FFD80F;" d="M41.608,5.734c-1.605-1.31-3.373-2.426-5.268-3.318c-8.28,2.012-16.177,6.501-22.631,12.954
		c-5.594,5.595-9.685,12.191-12.003,19.28c0.889,2.311,2.101,4.459,3.586,6.389c3.665-6.439,8.834-13.108,14.906-19.18
		C27.052,15.006,34.503,9.413,41.608,5.734z"/>
	<path style="fill:#F18D46;" d="M48.583,14.661c0.22,0.468,0.423,0.944,0.615,1.427C49.007,15.605,48.803,15.129,48.583,14.661z"/>
	<path style="fill:#F18D46;" d="M43.836,7.789c0.498,0.515,0.976,1.048,1.429,1.604C44.812,8.837,44.334,8.304,43.836,7.789z"/>
	<path style="fill:#F18D46;" d="M41.608,5.735c0.555,0.453,1.089,0.932,1.604,1.429C42.696,6.666,42.163,6.188,41.608,5.735z"/>
	<path style="fill:#FFD80F;" d="M45.266,9.392c-3.679,7.105-9.272,14.556-16.126,21.41c-6.073,6.072-12.741,11.241-19.18,14.905
		c1.929,1.485,4.075,2.699,6.384,3.588c7.091-2.317,13.689-6.409,19.285-12.004c6.454-6.454,10.942-14.351,12.954-22.631
		C47.692,12.766,46.575,10.998,45.266,9.392z"/>
	<path style="fill:#31BCEB;" d="M49.802,17.796c-2.355,7.657-6.74,14.891-12.759,20.91c-5.141,5.141-11.102,9.06-17.517,11.571
		C21.444,50.739,23.44,51,25.5,51C39.583,51,51,39.583,51,25.5C51,22.813,50.574,20.227,49.802,17.796z"/>
	<path style="fill:#31BCEB;" d="M43.836,7.788c-0.205-0.212-0.412-0.42-0.624-0.624c-7.125,3.571-14.664,9.174-21.6,16.11
		c-6.158,6.159-11.355,12.929-14.946,19.414c0.524,0.573,1.073,1.123,1.646,1.646c6.485-3.591,13.255-8.788,19.414-14.946
		C34.662,22.452,40.265,14.913,43.836,7.788z"/>
	<path style="fill:#F18D46;" d="M34.912,1.801c0.482,0.192,0.959,0.395,1.427,0.615C35.871,2.197,35.395,1.993,34.912,1.801z"/>
	<path style="fill:#FCC7A2;" d="M34.703,1.719c0.07,0.027,0.139,0.055,0.209,0.082C34.843,1.774,34.773,1.746,34.703,1.719z"/>
	<polygon style="fill:#FCC7A2;" points="36.339,2.417 36.339,2.417 36.339,2.417 	"/>
	<path style="fill:#00A9DF;" d="M12.294,13.957C7.148,19.103,3.225,25.071,0.715,31.492c0.261,1.085,0.592,2.142,0.987,3.168
		c2.317-7.093,6.409-13.692,12.006-19.289C20.162,8.918,28.059,4.429,36.339,2.417l0,0c-0.468-0.22-0.944-0.423-1.427-0.615
		c-0.07-0.028-0.139-0.055-0.209-0.082c-0.488-0.189-0.982-0.367-1.484-0.526C25.557,3.546,18.318,7.934,12.294,13.957z"/>
	<polygon style="fill:#FCC7A2;" points="43.836,7.788 43.836,7.788 43.836,7.789 	"/>
	<polygon style="fill:#FCC7A2;" points="45.266,9.392 45.265,9.392 45.266,9.392 	"/>
	<polygon style="fill:#FCC7A2;" points="8.312,44.335 8.312,44.335 8.312,44.335 	"/>
	<path style="fill:#00A9DF;" d="M29.14,30.803c6.854-6.855,12.447-14.305,16.126-21.41c0,0,0,0,0,0
		c-0.453-0.555-0.932-1.089-1.429-1.604c0,0,0,0,0,0c-3.571,7.125-9.174,14.664-16.11,21.6
		c-6.159,6.158-12.929,11.355-19.414,14.946l0,0c0.528,0.482,1.079,0.938,1.645,1.375C16.397,42.045,23.066,36.875,29.14,30.803z"/>
	<polygon style="fill:#FCC7A2;" points="6.665,42.688 6.665,42.688 6.665,42.688 	"/>
	<polygon style="fill:#FCC7A2;" points="43.212,7.164 43.211,7.164 43.212,7.164 	"/>
	<polygon style="fill:#FCC7A2;" points="41.608,5.734 41.608,5.734 41.608,5.735 	"/>
	<path style="fill:#00A9DF;" d="M43.212,7.164C43.212,7.164,43.212,7.164,43.212,7.164c-0.515-0.498-1.048-0.976-1.604-1.43
		c0,0,0,0,0,0c-7.105,3.679-14.556,9.272-21.41,16.126C14.125,27.934,8.955,34.603,5.29,41.043c0.437,0.567,0.893,1.118,1.375,1.645
		l0,0c3.591-6.485,8.788-13.255,14.946-19.414C28.548,16.338,36.087,10.735,43.212,7.164z"/>
	<polygon style="fill:#FCC7A2;" points="48.583,14.661 48.583,14.661 48.583,14.661 	"/>
	<path style="fill:#FCC7A2;" d="M49.199,16.088c0.028,0.07,0.055,0.139,0.082,0.209C49.254,16.227,49.226,16.157,49.199,16.088z"/>
	<path style="fill:#00A9DF;" d="M16.34,49.298c1.026,0.395,2.083,0.726,3.168,0.987c6.422-2.51,12.389-6.433,17.535-11.579
		c6.023-6.024,10.411-13.264,12.764-20.926c-0.159-0.502-0.337-0.996-0.526-1.484c-0.027-0.07-0.055-0.139-0.082-0.209
		c-0.192-0.482-0.395-0.959-0.615-1.427l0,0c-2.012,8.28-6.501,16.177-12.954,22.631C30.032,42.888,23.432,46.98,16.34,49.298z"/>
</g>
<g>
</g>
<g>
</g>
<g>
</g>
<g>
</g>
<g>
</g>
<g>
</g>
<g>
</g>
<g>
</g>
<g>
</g>
<g>
</g>
<g>
</g>
<g>
</g>
<g>
</g>
<g>
</g>
<g>
</g>
</svg>
