<?xml version="1.0" encoding="iso-8859-1"?>
<!-- Generator: Adobe Illustrator 18.0.0, SVG Export Plug-In . SVG Version: 6.00 Build 0)  -->
<!DOCTYPE svg PUBLIC "-//W3C//DTD SVG 1.1//EN" "http://www.w3.org/Graphics/SVG/1.1/DTD/svg11.dtd">
<svg version="1.1" id="Capa_1" xmlns="http://www.w3.org/2000/svg" xmlns:xlink="http://www.w3.org/1999/xlink" x="0px" y="0px"
	 viewBox="0 0 54 54" style="enable-background:new 0 0 54 54;" xml:space="preserve">
<g>
	<path style="fill:#F9EAB0;" d="M33.667,28.742c0-6.156-4.615-11.224-10.574-11.956c-0.647-3.689-3.859-6.495-7.733-6.495
		c-4.341,0-7.86,3.519-7.86,7.86c0,0.598,0.073,1.177,0.199,1.736C2.333,22.125,3,26.294,3,28.792L33.667,28.742z"/>
	<path style="fill:#D1D4D1;" d="M54,30.792c0,1.657-1.343,3-3,3H3c-1.657,0-3-1.343-3-3l0,0c0-1.657,1.343-3,3-3h48
		C52.657,27.792,54,29.135,54,30.792L54,30.792z"/>
	<path style="fill:#ECF0F1;" d="M3,33.792v2.25c0,6.652,4.724,12.199,11,13.474v1.776c0,1.381,1.119,2.5,2.5,2.5s2.5-1.119,2.5-2.5
		v-0.5h17v0.5c0,1.381,1.119,2.5,2.5,2.5s2.5-1.119,2.5-2.5v-1.776c6.275-1.274,11-6.821,11-13.474v-2.25H3z M11.153,43.628
		c-0.197,0.257-0.494,0.392-0.795,0.392c-0.212,0-0.426-0.067-0.607-0.207c-1.13-0.866-1.901-2.031-2.173-3.281
		c-0.117-0.54,0.226-1.072,0.766-1.189c0.536-0.118,1.072,0.225,1.189,0.765c0.171,0.788,0.681,1.541,1.435,2.119
		C11.406,42.562,11.489,43.19,11.153,43.628z M26.229,47.137c-1.231,0.052-2.487,0.095-3.75,0.095c-2.925,0-5.896-0.228-8.745-1.091
		c-0.528-0.16-0.827-0.718-0.667-1.247c0.16-0.528,0.717-0.828,1.247-0.667c3.779,1.145,7.914,1.078,11.831,0.912
		c0.511-0.014,1.019,0.405,1.041,0.957C27.21,46.647,26.781,47.114,26.229,47.137z"/>
	<circle style="fill:#F5EFCA;" cx="29.021" cy="7.875" r="2.833"/>
	<circle style="fill:#F3D55B;" cx="4" cy="4.125" r="3.916"/>
	<g>
		<path style="fill:#D1D4D1;" d="M38.833,17.292"/>
	</g>
	<g>
		<path style="fill:#D1D4D1;" d="M16.666,3.625"/>
	</g>
</g>
<g>
</g>
<g>
</g>
<g>
</g>
<g>
</g>
<g>
</g>
<g>
</g>
<g>
</g>
<g>
</g>
<g>
</g>
<g>
</g>
<g>
</g>
<g>
</g>
<g>
</g>
<g>
</g>
<g>
</g>
</svg>
