<?xml version="1.0" encoding="iso-8859-1"?>
<!-- Generator: Adobe Illustrator 18.0.0, SVG Export Plug-In . SVG Version: 6.00 Build 0)  -->
<!DOCTYPE svg PUBLIC "-//W3C//DTD SVG 1.1//EN" "http://www.w3.org/Graphics/SVG/1.1/DTD/svg11.dtd">
<svg version="1.1" id="Capa_1" xmlns="http://www.w3.org/2000/svg" xmlns:xlink="http://www.w3.org/1999/xlink" x="0px" y="0px"
	 viewBox="0 0 54 54" style="enable-background:new 0 0 54 54;" xml:space="preserve">
<g>
	<path style="fill:#F18D46;" d="M46.853,26.43c-1.494-4.191-2.392-8.557-2.603-13.002c-0.252-5.291-1.597-11.373-6.236-13.164
		c-2.063-0.796-4.456,0.271-5.047,2.402c-0.009,0.032-0.017,0.064-0.026,0.096c-0.359,1.394,0.184,2.856,1.276,3.794
		c0.683,0.587,1.371,1.465,2.029,2.377c0.695,0.963,1.233,2.047,1.478,3.209c0.034,0.161,0.065,0.324,0.092,0.488
		c1.079,6.486-3.386,12.829-9.941,13.336C21.404,26.466,16,21.364,16,15c0-0.018,0-0.035,0-0.053
		c0.009-2.927,1.198-5.747,3.224-7.859c0.195-0.203,0.392-0.391,0.593-0.561c1.042-0.883,1.594-2.222,1.293-3.554
		c-0.024-0.105-0.049-0.207-0.076-0.307c-0.591-2.131-2.984-3.199-5.047-2.402C11.341,2.057,9.999,8.15,9.749,13.446
		c-0.202,4.282-0.909,8.541-2.436,12.547c-1.001,2.627-1.487,5.497-1.256,8.549c0.801,10.589,9.627,19.1,20.24,19.446
		C38.216,54.377,48,44.831,48,33C48,30.681,47.585,28.483,46.853,26.43z"/>
	<polygon style="fill:#F6C346;" points="27,31 29.369,35.801 34.667,36.571 30.834,40.308 31.739,45.585 27,43.093 22.261,45.585 
		23.166,40.308 19.332,36.571 24.63,35.801 	"/>
	<path style="fill:#F6C346;" d="M25,5h-8c-0.553,0-1-0.448-1-1s0.447-1,1-1h8c0.553,0,1,0.448,1,1S25.552,5,25,5z"/>
	<path style="fill:#F6C346;" d="M38,5h-8c-0.553,0-1-0.448-1-1s0.447-1,1-1h8c0.553,0,1,0.448,1,1S38.552,5,38,5z"/>
</g>
<g>
</g>
<g>
</g>
<g>
</g>
<g>
</g>
<g>
</g>
<g>
</g>
<g>
</g>
<g>
</g>
<g>
</g>
<g>
</g>
<g>
</g>
<g>
</g>
<g>
</g>
<g>
</g>
<g>
</g>
</svg>
