<?xml version="1.0" encoding="iso-8859-1"?>
<!-- Generator: Adobe Illustrator 18.0.0, SVG Export Plug-In . SVG Version: 6.00 Build 0)  -->
<!DOCTYPE svg PUBLIC "-//W3C//DTD SVG 1.1//EN" "http://www.w3.org/Graphics/SVG/1.1/DTD/svg11.dtd">
<svg version="1.1" id="Capa_1" xmlns="http://www.w3.org/2000/svg" xmlns:xlink="http://www.w3.org/1999/xlink" x="0px" y="0px"
	 viewBox="0 0 57.969 57.969" style="enable-background:new 0 0 57.969 57.969;" xml:space="preserve">
<g>
	<path style="fill:#556080;" d="M41,2.985c-1.798,4.748-6.622,9.178-12,9.178c-5.132,0-10.044-4.771-12-9.178
		c2.681,10.724-3.616,15.829-5,16.954v17.515c0,0.428,0.281,0.848,0.312,1.268c6.029,1.286,10.678,6.638,10.678,13.049
		c0,0.416,0.037,1.218,0.001,1.625c1.916,0.763,4.063,1.589,6.251,1.589h0.485c2.323,0,4.536-0.868,6.546-1.723
		c-0.029-0.362-0.055-0.923-0.055-1.294c0-6.279,4.106-11.63,9.948-13.053c0.037-0.45-0.167-1-0.167-1.461v-17.49
		C44.676,18.899,38.298,13.793,41,2.985z"/>
	<path style="fill:#374056;" d="M17,2.985c0,0,14.826,3.704,24,0C39.203,7.733,34.379,12.163,29,12.163
		C23.868,12.163,18.956,7.391,17,2.985z"/>
	<path style="fill:#F6C346;" d="M29.288,8.302c-0.951,0-1.758-0.128-1.898-0.151c-0.545-0.091-0.912-0.606-0.821-1.151
		c0.091-0.544,0.604-0.916,1.15-0.822c0.516,0.084,2.051,0.244,2.957-0.037c0.535-0.165,1.089,0.132,1.252,0.659
		c0.164,0.527-0.131,1.088-0.658,1.251C30.652,8.243,29.937,8.302,29.288,8.302z"/>
	<path style="fill:#D0E8F9;" d="M17,2.985c0,0-8.506,0.069-16.151,4.923c0,0-3.458,5.399,3.58,10.799L12,19.939
		C12,19.939,20.034,15.118,17,2.985z"/>
	<path style="fill:#D0E8F9;" d="M41,2.985c0,0,8.475,0.069,16.12,4.923c0,0,3.458,5.399-3.58,10.799L46,19.964
		C46,19.964,37.967,15.118,41,2.985z"/>
	<path style="fill:#D0E8F9;stroke:#0096E6;stroke-width:2;stroke-linecap:round;stroke-linejoin:round;stroke-miterlimit:10;" d="
		M36.623,27.169"/>
	<g>
		<path style="fill:#B0D3F0;" d="M37.478,20.876c-0.104-0.454-8.122,3.503-8.993,2.208c-1.107-1.646-0.333-3.132-0.257-4.981
			c-1.089,1.097-3.947,0.005-5.082,1.032c-1.353,1.225-0.57,1.734-1.085,3.301c-0.62,1.886-2.311,2.74-2.425,4.779
			c0.754,0.052,1.585,0.09,2.463,0.118c0.285-0.941,1.079-1.683,2.398-1.598c0.931-0.336,1.697-0.347,2.257,0.654
			c0.229,0.409,0.366,0.848,0.42,1.283l3.808,0.258c0.092-1.196,0.924-2.298,2.515-2.195c0.931-0.336,1.697-0.347,2.257,0.654
			c0.337,0.603,0.482,1.269,0.436,1.894l0.519,0.035c0.486,0.042,1.935-0.974,2.292-1.333
			C39.032,25.703,37.781,22.193,37.478,20.876z"/>
		<path style="fill:#B0D3F0;" d="M36.74,29.32L36.74,29.32c-0.028,0-0.087-0.003-0.115-0.005l-0.502-0.034
			c-0.266-0.018-0.514-0.141-0.688-0.342c-0.175-0.201-0.262-0.463-0.242-0.729c0.032-0.441-0.079-0.915-0.313-1.332
			c-0.194-0.347-0.317-0.347-0.417-0.347c-0.149,0-0.36,0.049-0.628,0.146c-0.128,0.046-0.265,0.069-0.403,0.057l-0.138-0.004
			c-1.131,0-1.293,0.978-1.315,1.277c-0.042,0.547-0.529,0.963-1.064,0.922l-3.809-0.258c-0.479-0.032-0.866-0.399-0.925-0.875
			c-0.04-0.324-0.142-0.632-0.301-0.918c-0.194-0.347-0.317-0.347-0.417-0.347c-0.149,0-0.36,0.049-0.628,0.146
			c-0.129,0.046-0.267,0.069-0.403,0.057l-0.139-0.005c-0.8,0-1.114,0.487-1.238,0.895c-0.131,0.433-0.53,0.733-0.988,0.709
			c-0.892-0.028-1.735-0.067-2.501-0.12c-0.546-0.038-0.959-0.507-0.929-1.053c0.081-1.467,0.806-2.438,1.444-3.294
			c0.419-0.561,0.814-1.09,1.028-1.742c0.147-0.447,0.155-0.775,0.163-1.122c0.021-0.881,0.123-1.632,1.201-2.608
			c0.766-0.693,1.862-0.751,2.829-0.751l0.706,0.003c0.378,0,1.263,0,1.509-0.248c0.292-0.293,0.734-0.376,1.109-0.212
			c0.379,0.165,0.616,0.545,0.6,0.957c-0.023,0.583-0.105,1.107-0.186,1.614c-0.177,1.133-0.261,1.844,0.162,2.588
			c0.013,0,0.026,0,0.041,0c1.121,0,3.725-0.994,5.447-1.651c1.692-0.646,2.275-0.855,2.701-0.855c0.466,0,0.956,0.358,1.061,0.812
			c0.094,0.41,0.283,1.036,0.494,1.741c0.61,2.033,1.075,3.664,1.053,4.617c-0.007,0.255-0.11,0.499-0.29,0.68
			C39.545,27.855,37.798,29.32,36.74,29.32z M34.463,24.531c0.637,0,1.529,0.238,2.163,1.371c0.218,0.39,0.375,0.8,0.469,1.22
			c0.281-0.161,0.618-0.386,0.873-0.575c-0.129-0.892-0.604-2.474-0.936-3.579c-0.098-0.324-0.19-0.633-0.272-0.915
			c-0.395,0.145-0.905,0.339-1.354,0.511c-2.081,0.794-4.671,1.783-6.161,1.783c-0.74,0-1.274-0.237-1.589-0.704
			c-0.971-1.443-0.804-2.817-0.614-4.041c-0.346,0.038-0.696,0.045-1.032,0.045l-0.706-0.003c-0.367,0-1.229,0-1.487,0.234
			c-0.526,0.477-0.53,0.624-0.543,1.173c-0.01,0.41-0.023,0.971-0.263,1.699c-0.316,0.962-0.853,1.68-1.325,2.314
			c-0.323,0.433-0.607,0.813-0.799,1.223c0.187,0.009,0.378,0.017,0.571,0.024c0.581-1.007,1.677-1.579,2.891-1.581
			c0.417-0.135,0.774-0.198,1.115-0.198c0.637,0,1.529,0.238,2.163,1.371c0.147,0.264,0.267,0.54,0.358,0.824l2.205,0.149
			c0.472-1.317,1.64-2.155,3.158-2.146C33.764,24.594,34.122,24.531,34.463,24.531z"/>
	</g>
	<circle style="fill:#FFFFFF;" cx="27.5" cy="49.485" r="1.5"/>
	<circle style="fill:#FFFFFF;" cx="31.5" cy="49.485" r="1.5"/>
	<path style="fill:#3B97D3;" d="M52.967,5.68c-1.354,3.692-2.886,8.683-3.088,13.586l2.029-0.406
		c0.269-4.385,1.639-8.866,2.878-12.289C54.174,6.251,53.567,5.95,52.967,5.68z"/>
	<path style="fill:#3B97D3;" d="M6.085,18.976l2.026,0.33C7.868,14.317,6.215,9.256,4.828,5.81C4.225,6.073,3.618,6.365,3.01,6.68
		C4.286,9.885,5.784,14.488,6.085,18.976z"/>
	<path style="fill:#F3D55B;" d="M33.625,25.735c-3.866-0.407-3.455,6.172,0.877,4.737c1.771-0.587,2.11-2.547,1.251-4.082
		c-0.681-1.217-1.66-0.946-2.878-0.405"/>
	<path style="fill:#F3D55B;" d="M24.625,25.735c-3.866-0.407-3.455,6.172,0.877,4.737c1.771-0.587,2.11-2.547,1.251-4.082
		c-0.681-1.217-1.66-0.946-2.878-0.405"/>
</g>
<g>
</g>
<g>
</g>
<g>
</g>
<g>
</g>
<g>
</g>
<g>
</g>
<g>
</g>
<g>
</g>
<g>
</g>
<g>
</g>
<g>
</g>
<g>
</g>
<g>
</g>
<g>
</g>
<g>
</g>
</svg>
