<?xml version="1.0" encoding="iso-8859-1"?>
<!-- Generator: Adobe Illustrator 18.0.0, SVG Export Plug-In . SVG Version: 6.00 Build 0)  -->
<!DOCTYPE svg PUBLIC "-//W3C//DTD SVG 1.1//EN" "http://www.w3.org/Graphics/SVG/1.1/DTD/svg11.dtd">
<svg version="1.1" id="Capa_1" xmlns="http://www.w3.org/2000/svg" xmlns:xlink="http://www.w3.org/1999/xlink" x="0px" y="0px"
	 viewBox="0 0 57.969 57.969" style="enable-background:new 0 0 57.969 57.969;" xml:space="preserve">
<g>
	<path style="fill:#FB7B76;" d="M41,2.985c-1.798,4.748-6.622,9.178-12,9.178c-5.132,0-10.044-4.771-12-9.178
		c2.681,10.724-3.616,15.829-5,16.954v17.515c0,0.428,0.281,0.848,0.312,1.268c6.029,1.286,10.678,6.638,10.678,13.049
		c0,0.416,0.037,1.218,0.001,1.625c1.916,0.763,4.063,1.589,6.251,1.589h0.485c2.323,0,4.536-0.868,6.546-1.723
		c-0.029-0.362-0.055-0.923-0.055-1.294c0-6.279,4.106-11.63,9.948-13.053c0.037-0.45-0.167-1-0.167-1.461v-17.49
		C44.676,18.899,38.298,13.793,41,2.985z"/>
	<path style="fill:#AA4153;" d="M17,2.985c0,0,14.826,3.704,24,0C39.203,7.733,34.379,12.163,29,12.163
		C23.868,12.163,18.956,7.391,17,2.985z"/>
	<path style="fill:#FB7B76;" d="M29.288,8.302c-0.951,0-1.758-0.128-1.898-0.151c-0.545-0.091-0.912-0.606-0.821-1.151
		c0.091-0.544,0.604-0.916,1.15-0.822c0.516,0.084,2.051,0.244,2.957-0.037c0.535-0.165,1.089,0.132,1.252,0.659
		c0.164,0.527-0.131,1.088-0.658,1.251C30.652,8.243,29.937,8.302,29.288,8.302z"/>
	<path style="fill:#DF4D60;" d="M17,2.985c0,0-8.506,0.069-16.151,4.923c0,0-3.458,5.399,3.58,10.799L12,19.939
		C12,19.939,20.034,15.118,17,2.985z"/>
	<path style="fill:#DF4D60;" d="M41,2.985c0,0,8.475,0.069,16.12,4.923c0,0,3.458,5.399-3.58,10.799L46,19.964
		C46,19.964,37.967,15.118,41,2.985z"/>
	<path style="fill:#D0E8F9;stroke:#0096E6;stroke-width:2;stroke-linecap:round;stroke-linejoin:round;stroke-miterlimit:10;" d="
		M36.623,27.169"/>
	<circle style="fill:#FFFFFF;" cx="27.5" cy="49.485" r="1.5"/>
	<circle style="fill:#FFFFFF;" cx="31.5" cy="49.485" r="1.5"/>
	<path style="fill:#FB7B76;" d="M52.967,5.68c-1.354,3.692-2.886,8.683-3.088,13.586l2.029-0.406
		c0.269-4.385,1.639-8.866,2.878-12.289C54.174,6.251,53.567,5.95,52.967,5.68z"/>
	<path style="fill:#FB7B76;" d="M6.085,18.976l2.026,0.33C7.868,14.317,6.215,9.256,4.828,5.81C4.225,6.073,3.618,6.365,3.01,6.68
		C4.286,9.885,5.784,14.488,6.085,18.976z"/>
	<path style="fill:#F7C0BC;" d="M38.286,26.442c-0.837-0.966-2.093-1.186-3.438-1.206c1.181-0.588,2.251-1.465,2.66-3.053
		c0.548-2.13-0.024-3.161-0.601-3.65c-0.533-0.453-1.523-0.833-3.214-0.092c-1.126,0.495-2.089,1.542-2.872,2.717
		c-0.076-1.567-0.397-3.055-1.368-3.847c-0.456-0.372-1.255-0.746-2.47-0.434c-1.504,0.39-2.048,1.297-2.239,1.989
		c-0.381,1.38,0.348,3.039,1.205,4.388c-1.01-0.087-2.054-0.04-2.917,0.134c-1.383,0.277-2.338,0.87-2.762,1.712
		c-0.67,1.327-0.364,2.174,0.009,2.65c0.891,1.135,2.901,1.166,5.691,0.67c-0.874,1.395-1.505,3.102-1.328,4.594
		c0.169,1.437,1.065,2.508,2.523,3.016c0.469,0.164,0.887,0.23,1.258,0.23c1.109,0,1.796-0.603,2.147-1.038
		c0.969-1.203,1.157-3.304,0.954-5.195c2.124,1.244,4.897,1.963,6.761,1.291c0.334-0.121,0.579-0.41,0.644-0.759
		C39.275,28.689,39.064,27.342,38.286,26.442z"/>
	<path style="fill:#FB7B76;" d="M9.862,19.591l2.05,0.333C11.474,15.363,9.76,8.288,8.477,4.468
		C7.881,4.649,7.276,4.844,6.654,5.072C7.843,8.919,9.394,15.564,9.862,19.591z"/>
	<path style="fill:#FB7B76;" d="M48.05,19.591L46,19.925c0.438-4.562,2.152-11.636,3.435-15.457
		c0.596,0.181,1.201,0.376,1.823,0.604C50.07,8.919,48.519,15.564,48.05,19.591z"/>
</g>
<g>
</g>
<g>
</g>
<g>
</g>
<g>
</g>
<g>
</g>
<g>
</g>
<g>
</g>
<g>
</g>
<g>
</g>
<g>
</g>
<g>
</g>
<g>
</g>
<g>
</g>
<g>
</g>
<g>
</g>
</svg>
