<?xml version="1.0" encoding="iso-8859-1"?>
<!-- Generator: Adobe Illustrator 18.0.0, SVG Export Plug-In . SVG Version: 6.00 Build 0)  -->
<!DOCTYPE svg PUBLIC "-//W3C//DTD SVG 1.1//EN" "http://www.w3.org/Graphics/SVG/1.1/DTD/svg11.dtd">
<svg version="1.1" id="Capa_1" xmlns="http://www.w3.org/2000/svg" xmlns:xlink="http://www.w3.org/1999/xlink" x="0px" y="0px"
	 viewBox="0 0 58 58" style="enable-background:new 0 0 58 58;" xml:space="preserve">
<g>
	<rect y="45" style="fill:#D6B772;" width="20" height="11"/>
	<rect x="38" y="45" style="fill:#D6B772;" width="20" height="11"/>
	<path style="fill:#F4D99D;" d="M50,45H38l0-0.869c0-2.581-1.29-6.016-3.437-7.447l0,0c-3.368-2.246-7.757-2.246-11.125,0l0,0
		C21.29,38.116,20,41.55,20,44.131L20,45H8V29h42V45z"/>
	<rect x="20" y="17" style="fill:#FACE64;" width="18" height="12"/>
	<polygon style="fill:#C03A2B;" points="43,17 29,17 15,17 29,2 	"/>
	<rect y="45" style="fill:#FACE64;" width="10" height="11"/>
	<rect x="48" y="45" style="fill:#FACE64;" width="10" height="11"/>
	<rect x="28" y="29" style="fill:#D6B772;" width="2" height="6"/>
	<rect x="20" y="22" style="fill:#D6B772;" width="18" height="2"/>
</g>
<g>
</g>
<g>
</g>
<g>
</g>
<g>
</g>
<g>
</g>
<g>
</g>
<g>
</g>
<g>
</g>
<g>
</g>
<g>
</g>
<g>
</g>
<g>
</g>
<g>
</g>
<g>
</g>
<g>
</g>
</svg>
