<?xml version="1.0" encoding="iso-8859-1"?>
<!-- Generator: Adobe Illustrator 18.0.0, SVG Export Plug-In . SVG Version: 6.00 Build 0)  -->
<!DOCTYPE svg PUBLIC "-//W3C//DTD SVG 1.1//EN" "http://www.w3.org/Graphics/SVG/1.1/DTD/svg11.dtd">
<svg version="1.1" id="Capa_1" xmlns="http://www.w3.org/2000/svg" xmlns:xlink="http://www.w3.org/1999/xlink" x="0px" y="0px"
	 viewBox="0 0 57.674 57.674" style="enable-background:new 0 0 57.674 57.674;" xml:space="preserve">
<g>
	<polygon style="fill:#BDC3C7;" points="6.651,23.837 4.651,24.837 4.651,9.837 6.651,9.837 	"/>
	<path style="fill:#35C3EE;" d="M55.709,34.666c-1.791-2.887-5.097-5.996-11.035-5.996h-5c0,0-0.083-11.833-16-11.833
		c0,0-11.637,0.726-19.023,6.503c-3.659,2.862-0.776,6.316-2.45,10.019c-0.827,1.83-1.66,4.017-2.139,6.229
		c-0.485,2.239,1.972,4.249,5.109,4.249h1.503c0-4.418,3.582-8,8-8c4.418,0,8,3.582,8,8h12c0-4.418,3.582-8,8-8
		c4.417,0,7.998,3.58,8,7.997c0,0.001,0,0.002,0,0.003h3.929c1.696,0,3.071-0.993,3.071-2.218
		C57.674,39.229,57.061,36.847,55.709,34.666z"/>
	<path style="fill:#556080;" d="M23.674,21.447c0,0-9.523-0.773-14.023,6.39h25.023C34.674,27.837,33.757,21.267,23.674,21.447z"/>
	<circle style="fill:#ECF0F1;" cx="5.651" cy="8.837" r="3"/>
	<circle style="fill:#556080;" cx="14.674" cy="43.837" r="8"/>
	<circle style="fill:#D1D4D1;" cx="14.674" cy="43.837" r="3"/>
	<circle style="fill:#556080;" cx="42.674" cy="43.837" r="8"/>
	<circle style="fill:#D1D4D1;" cx="42.674" cy="43.837" r="3"/>
	<path style="fill:#FFFFFF;" d="M25.651,36.17c-0.553,0-1-0.448-1-1v-2.333h-3.978c-0.553,0-1-0.448-1-1c0-0.552,0.447-1,1-1h4.978
		c0.553,0,1,0.448,1,1v3.333C26.651,35.722,26.203,36.17,25.651,36.17z"/>
	<path style="fill:#F0C419;" d="M57.122,37.821c-0.322-1.082-0.784-2.141-1.413-3.155c-0.73-1.177-1.719-2.388-3.029-3.414
		c-0.85,0.698-1.371,1.609-1.371,2.612c0,2.194,2.462,3.972,5.5,3.972C56.915,37.837,57.017,37.825,57.122,37.821z"/>
	<path style="fill:#8697CB;" d="M24.651,27.837h2v-6.211c-0.616-0.086-1.287-0.135-2-0.155V27.837z"/>
</g>
<g>
</g>
<g>
</g>
<g>
</g>
<g>
</g>
<g>
</g>
<g>
</g>
<g>
</g>
<g>
</g>
<g>
</g>
<g>
</g>
<g>
</g>
<g>
</g>
<g>
</g>
<g>
</g>
<g>
</g>
</svg>
