<?xml version="1.0" encoding="iso-8859-1"?>
<!-- Generator: Adobe Illustrator 18.0.0, SVG Export Plug-In . SVG Version: 6.00 Build 0)  -->
<!DOCTYPE svg PUBLIC "-//W3C//DTD SVG 1.1//EN" "http://www.w3.org/Graphics/SVG/1.1/DTD/svg11.dtd">
<svg version="1.1" id="Capa_1" xmlns="http://www.w3.org/2000/svg" xmlns:xlink="http://www.w3.org/1999/xlink" x="0px" y="0px"
	 viewBox="0 0 52.434 52.434" style="enable-background:new 0 0 52.434 52.434;" xml:space="preserve">
<g>
	<path style="fill:#682E2D;" d="M50.106,27.975c-3.08-3.08-5.971-0.904-7.623,1.006v-0.016c0.007-0.008,0.013-0.016,0.02-0.023
		l3.305-13.572c0.096-2.397-2.064-3.941-4.097-3.593l1.771-3.461c1.537-3.004,0.275-6.819-2.876-8.026
		c-0.161-0.062-0.318-0.113-0.47-0.154c-2.125-0.569-4.33,0.703-4.899,2.828l-0.31,1.156l0,0l0.005-0.019
		c-2.188-1.639-5.278-2.667-8.713-2.667s-6.526,1.028-8.713,2.667l0.005,0.019l0,0l-0.31-1.156C16.63,0.839,14.425-0.433,12.3,0.136
		c-0.152,0.041-0.309,0.092-0.47,0.154C8.678,1.496,7.416,5.312,8.953,8.316l1.778,3.476c0,0,0.001,0,0.001,0
		c-2.051-0.39-4.255,1.157-4.158,3.579L9.88,28.942c-1.643-1.901-4.492-4.026-7.551-0.967c-4.75,4.75,0,8,0,8l6.775,5.42
		L7.53,43.597c-0.785,1.099-0.785,2.576,0,3.675c2.314,3.24,6.05,5.163,10.032,5.163h17.312c3.981,0,7.718-1.923,10.032-5.163
		c0.785-1.099,0.785-2.576,0-3.675l-1.573-2.202l6.775-5.42C50.106,35.975,54.856,32.725,50.106,27.975z"/>
	<path style="fill:#84423D;" d="M50.106,27.975c-4.75-4.75-9,3-9,3l-2.64,4.4c-0.138,1.739-1.097,3.269-2.508,4.18l-0.528,0.88h4.16
		c1.021,0,1.979,0.493,2.572,1.324l0.26,0.364l7.684-6.147C50.106,35.975,54.856,32.725,50.106,27.975z"/>
	<path style="fill:#84423D;" d="M13.968,35.375l-2.64-4.4c0,0-4.25-7.75-9-3s0,8,0,8l7.684,6.147l0.26-0.364
		c0.593-0.831,1.552-1.324,2.572-1.324h4.16l-0.528-0.88C15.066,38.644,14.106,37.114,13.968,35.375z"/>
	<path style="fill:#7C3A35;" d="M44.905,43.597l-2.742-3.839c-0.593-0.831-1.552-1.324-2.572-1.324h-9.373c0,2.209-1.791,4-4,4
		s-4-1.791-4-4h-9.373c-1.021,0-1.979,0.493-2.572,1.324L7.53,43.597c-0.785,1.099-0.785,2.576,0,3.675
		c2.314,3.24,6.05,5.163,10.032,5.163h17.312c3.981,0,7.718-1.923,10.032-5.163C45.69,46.173,45.69,44.696,44.905,43.597z"/>
	<path style="fill:#FFFFFF;" d="M28.217,48.434h-4c-0.553,0-1-0.447-1-1s0.447-1,1-1h4c0.553,0,1,0.447,1,1
		S28.77,48.434,28.217,48.434z"/>
	<g>
		<path style="fill:#7C3A35;" d="M41.054,30.975l-2.64,4.4c-0.02,0.251-0.062,0.497-0.115,0.738
			c0.131-0.595,0.173-1.221,0.093-1.865l-2.174-17.394l3.624-4.096c2.251-2.251,6.093-0.568,5.966,2.612l-3.305,13.572
			C41.594,29.993,41.054,30.975,41.054,30.975z"/>
	</g>
	<path style="fill:#B75755;" d="M16.196,18.434l0.021-0.169l4.591-1.831l-3.609-13.47C16.63,0.839,14.425-0.433,12.3,0.136
		c-0.152,0.041-0.309,0.092-0.47,0.154C8.678,1.496,7.416,5.312,8.953,8.316l1.778,3.476c0.643,0.122,1.272,0.429,1.809,0.967
		l3.359,5.628C16,18.388,16.099,18.407,16.196,18.434z"/>
	<path style="fill:#B75755;" d="M40.134,0.136c-2.125-0.569-4.33,0.703-4.899,2.828l-3.609,13.47h4.591l0.046,0.368l3.578-4.044
		c0.554-0.554,1.205-0.868,1.869-0.981l1.771-3.461c1.537-3.004,0.275-6.819-2.876-8.026C40.444,0.228,40.286,0.177,40.134,0.136z"
		/>
	<path style="fill:#7C3A35;" d="M31.626,16.434l3.304-12.333c-2.188-1.639-5.278-2.667-8.713-2.667s-6.526,1.028-8.713,2.667
		l3.304,12.333H31.626z"/>
	<circle style="fill:#441B1B;" cx="26.217" cy="40.434" r="4"/>
	<path style="fill:#682E2D;" d="M38.444,34.248l-2.227-17.814h-20L13.99,34.248c-0.411,3.285,2.151,6.186,5.461,6.186h2.766
		c0-2.209,1.791-4,4-4s4,1.791,4,4h2.766C36.293,40.434,38.855,37.533,38.444,34.248z"/>
	<path style="fill:#F7C0BC;" d="M25.51,36.506l-3.435-17.178l-2.124-1.699c-0.967-0.773-2.167-1.194-3.405-1.194h-0.328v0
		c-0.235,1.881,0.524,3.749,2.003,4.933l0.217,0.174l3.78,18.898c0-0.001,0-0.003,0-0.004C22.217,38.468,23.639,36.841,25.51,36.506
		z"/>
	<path style="fill:#F7C0BC;" d="M36.217,16.434h-0.575c-1.214,0-2.391,0.413-3.339,1.171l-2.153,1.722l-3.431,17.157
		c1.546,0.196,2.814,1.261,3.289,2.698c0.042,0.128,0.228,0.111,0.255-0.021l3.524-17.622l0.455-0.364
		C35.666,20.037,36.411,18.249,36.217,16.434L36.217,16.434z"/>
	<g>
		<path style="fill:#7C3A35;" d="M11.328,30.975l2.64,4.4c0.02,0.251,0.062,0.497,0.115,0.738c-0.131-0.595-0.173-1.221-0.093-1.865
			l2.174-17.394l-3.624-4.096c-2.251-2.251-6.093-0.568-5.966,2.612L9.88,28.942C10.788,29.993,11.328,30.975,11.328,30.975z"/>
	</g>
</g>
<g>
</g>
<g>
</g>
<g>
</g>
<g>
</g>
<g>
</g>
<g>
</g>
<g>
</g>
<g>
</g>
<g>
</g>
<g>
</g>
<g>
</g>
<g>
</g>
<g>
</g>
<g>
</g>
<g>
</g>
</svg>
