<?xml version="1.0" encoding="iso-8859-1"?>
<!-- Generator: Adobe Illustrator 18.0.0, SVG Export Plug-In . SVG Version: 6.00 Build 0)  -->
<!DOCTYPE svg PUBLIC "-//W3C//DTD SVG 1.1//EN" "http://www.w3.org/Graphics/SVG/1.1/DTD/svg11.dtd">
<svg version="1.1" id="Capa_1" xmlns="http://www.w3.org/2000/svg" xmlns:xlink="http://www.w3.org/1999/xlink" x="0px" y="0px"
	 viewBox="0 0 52.585 52.585" style="enable-background:new 0 0 52.585 52.585;" xml:space="preserve">
<g>
	<rect x="9.82" y="13" style="fill:#D1D4D1;" width="2" height="20"/>
	<rect x="40.82" y="13" style="fill:#D1D4D1;" width="2" height="22"/>
	<path style="fill:#CB8252;" d="M25.82,10c-2.757,0-5-2.243-5-5s2.243-5,5-5s5,2.243,5,5S28.577,10,25.82,10z M25.82,2
		c-1.654,0-3,1.346-3,3s1.346,3,3,3s3-1.346,3-3S27.474,2,25.82,2z"/>
	<path style="fill:#805333;" d="M48.174,18.874C27.136,7.583,9.848,15.465,4.509,18.71c-0.886,0.539-2.042,0.241-2.627-0.616l0,0
		c-0.667-0.976-0.312-2.246,0.687-2.88c5.672-3.598,24.18-12.009,47.36,0.064c1.007,0.524,1.416,1.754,0.875,2.752l0,0
		C50.294,18.97,49.115,19.379,48.174,18.874z"/>
	<circle style="fill:#E64C3C;" cx="10.82" cy="35" r="6"/>
	<rect x="24.82" y="13" style="fill:#D1D4D1;" width="2" height="32"/>
	<path style="fill:#46B29D;" d="M48.011,38.257l-5.743,6.172c-0.248,0.248-0.651,0.248-0.899,0l-6.172-6.172
		c-0.248-0.248-0.248-0.651,0-0.899l6.172-6.172c0.248-0.248,0.651-0.248,0.899,0l5.743,6.172
		C48.26,37.607,48.26,38.009,48.011,38.257z"/>
	<polygon style="fill:#F0C419;" points="25.82,38 28.189,42.801 33.488,43.571 29.654,47.308 30.559,52.585 25.82,50.093 
		21.081,52.585 21.986,47.308 18.152,43.571 23.45,42.801 	"/>
	<path style="fill:#D1D4D1;" d="M27.82,29h-4c-0.553,0-1-0.448-1-1s0.447-1,1-1h4c0.553,0,1,0.448,1,1S28.373,29,27.82,29z"/>
	<path style="fill:#D1D4D1;" d="M43.82,25h-4c-0.553,0-1-0.448-1-1s0.447-1,1-1h4c0.553,0,1,0.448,1,1S44.373,25,43.82,25z"/>
	<path style="fill:#D1D4D1;" d="M12.82,23h-4c-0.553,0-1-0.448-1-1s0.447-1,1-1h4c0.553,0,1,0.448,1,1S13.373,23,12.82,23z"/>
</g>
<g>
</g>
<g>
</g>
<g>
</g>
<g>
</g>
<g>
</g>
<g>
</g>
<g>
</g>
<g>
</g>
<g>
</g>
<g>
</g>
<g>
</g>
<g>
</g>
<g>
</g>
<g>
</g>
<g>
</g>
</svg>
