<?xml version="1.0" encoding="iso-8859-1"?>
<!-- Generator: Adobe Illustrator 18.0.0, SVG Export Plug-In . SVG Version: 6.00 Build 0)  -->
<!DOCTYPE svg PUBLIC "-//W3C//DTD SVG 1.1//EN" "http://www.w3.org/Graphics/SVG/1.1/DTD/svg11.dtd">
<svg version="1.1" id="Capa_1" xmlns="http://www.w3.org/2000/svg" xmlns:xlink="http://www.w3.org/1999/xlink" x="0px" y="0px"
	 viewBox="0 0 58 58" style="enable-background:new 0 0 58 58;" xml:space="preserve">
<g>
	<rect x="6" y="15" style="fill:#D1D4D1;" width="2" height="20"/>
	<rect x="53" y="14" style="fill:#D1D4D1;" width="2" height="21"/>
	<rect x="20" y="21" style="fill:#D1D4D1;" width="2" height="27"/>
	<path style="fill:#D1D4D1;" d="M23,39.071h-4c-0.552,0-1-0.447-1-1s0.448-1,1-1h4c0.552,0,1,0.447,1,1S23.552,39.071,23,39.071z"/>
	<rect x="38" y="21" style="fill:#D1D4D1;" width="2" height="20"/>
	<path style="fill:#D1D4D1;" d="M41,31h-4c-0.552,0-1-0.447-1-1s0.448-1,1-1h4c0.552,0,1,0.447,1,1S41.552,31,41,31z"/>
	<path style="fill:#D1D4D1;" d="M56,26h-4c-0.552,0-1-0.447-1-1s0.448-1,1-1h4c0.552,0,1,0.447,1,1S56.552,26,56,26z"/>
	<path style="fill:#D1D4D1;" d="M9,24H5c-0.552,0-1-0.447-1-1s0.448-1,1-1h4c0.552,0,1,0.447,1,1S9.552,24,9,24z"/>
	<path style="fill:#84B5CB;" d="M29,1C14.088,1,2,6.149,2,12.5C2,18.851,14.088,24,29,24s27-5.149,27-11.5C56,6.149,43.912,1,29,1z
		 M29,20c-14.268,0-23-4.855-23-7.5S14.732,5,29,5s23,4.855,23,7.5S43.268,20,29,20z"/>
	<circle style="fill:#F0785A;" cx="21" cy="51" r="6"/>
	<path style="fill:#B49ACA;" d="M56.232,40h-4.465C50.791,40,50,39.209,50,38.232v-4.465C50,32.791,50.791,32,51.768,32h4.465
		C57.209,32,58,32.791,58,33.768v4.465C58,39.209,57.209,40,56.232,40z"/>
	<polygon style="fill:#F0C419;" points="7,29 9.078,33.211 14,34 10.362,37.164 11.156,41.792 7,39.607 2.844,41.792 3.638,37.164 
		0,34 4.922,33.211 	"/>
	<polygon style="fill:#F0C419;" points="38.725,36.208 40.803,40.419 45.45,41.094 42.087,44.372 42.881,49 38.725,46.815 
		34.569,49 35.362,44.372 32,41.094 36.647,40.419 	"/>
</g>
<g>
</g>
<g>
</g>
<g>
</g>
<g>
</g>
<g>
</g>
<g>
</g>
<g>
</g>
<g>
</g>
<g>
</g>
<g>
</g>
<g>
</g>
<g>
</g>
<g>
</g>
<g>
</g>
<g>
</g>
</svg>
