<?xml version="1.0" encoding="iso-8859-1"?>
<!-- Generator: Adobe Illustrator 18.0.0, SVG Export Plug-In . SVG Version: 6.00 Build 0)  -->
<!DOCTYPE svg PUBLIC "-//W3C//DTD SVG 1.1//EN" "http://www.w3.org/Graphics/SVG/1.1/DTD/svg11.dtd">
<svg version="1.1" id="Capa_1" xmlns="http://www.w3.org/2000/svg" xmlns:xlink="http://www.w3.org/1999/xlink" x="0px" y="0px"
	 viewBox="0 0 60 60" style="enable-background:new 0 0 60 60;" xml:space="preserve">
<g>
	<rect x="9" y="49.5" style="fill:#ECF0F1;" width="42" height="6"/>
	<path style="fill:#7F6E5D;" d="M52,56.5H8v-25h44V56.5z M10,54.5h40v-21H10V54.5z"/>
	<rect x="15" y="32.5" style="fill:#7F6E5D;" width="2" height="23"/>
	<rect x="22" y="32.5" style="fill:#7F6E5D;" width="2" height="23"/>
	<rect x="29" y="32.5" style="fill:#7F6E5D;" width="2" height="23"/>
	<rect x="36" y="32.5" style="fill:#7F6E5D;" width="2" height="23"/>
	<rect x="43" y="32.5" style="fill:#7F6E5D;" width="2" height="23"/>
	<rect x="9" y="38.5" style="fill:#7F6E5D;" width="42" height="2"/>
	<path style="fill:#D1D4D1;" d="M31,6.62V1.5c0-0.552-0.448-1-1-1s-1,0.448-1,1v5.025C23.443,6.789,19,11.379,19,17
		c0,0.552,0.448,1,1,1s1-0.448,1-1c0-4.518,3.546-8.214,8-8.475V20.5c0,0.552,0.448,1,1,1s1-0.448,1-1V8.641
		c3.973,0.711,7,4.185,7,8.359c0,0.552,0.448,1,1,1s1-0.448,1-1C40,11.721,36.08,7.352,31,6.62z"/>
	<path style="fill:#81CCB8;" d="M33.112,23.357c0.367,0.525-0.008,1.086-0.649,1.086h-1.894h-3.033
		c-0.641,0-1.016-0.561-0.649-1.086l2.463-3.519c0.315-0.45,0.982-0.45,1.298,0L33.112,23.357z"/>
	<rect x="36" y="16.5" style="fill:#C03A2B;" width="6" height="5"/>
	<polygon style="fill:#F0C419;" points="20,13.5 21.469,16.477 24.755,16.955 22.378,19.273 22.939,22.545 20,21 17.061,22.545 
		17.622,19.273 15.245,16.955 18.531,16.477 	"/>
	<circle style="fill:#F0C419;" cx="5" cy="19.5" r="5"/>
	<path style="fill:#AF8066;" d="M5,24.5c-1.118,0-2.14-0.38-2.973-1H2v36h6v-36H7.973C7.14,24.12,6.118,24.5,5,24.5z"/>
	<circle style="fill:#F0C419;" cx="55" cy="19.5" r="5"/>
	<path style="fill:#AF8066;" d="M55,24.5c-1.118,0-2.14-0.38-2.973-1H52v36h6v-36h-0.027C57.14,24.12,56.118,24.5,55,24.5z"/>
</g>
<g>
</g>
<g>
</g>
<g>
</g>
<g>
</g>
<g>
</g>
<g>
</g>
<g>
</g>
<g>
</g>
<g>
</g>
<g>
</g>
<g>
</g>
<g>
</g>
<g>
</g>
<g>
</g>
<g>
</g>
</svg>
