<?xml version="1.0" encoding="iso-8859-1"?>
<!-- Generator: Adobe Illustrator 18.0.0, SVG Export Plug-In . SVG Version: 6.00 Build 0)  -->
<!DOCTYPE svg PUBLIC "-//W3C//DTD SVG 1.1//EN" "http://www.w3.org/Graphics/SVG/1.1/DTD/svg11.dtd">
<svg version="1.1" id="Capa_1" xmlns="http://www.w3.org/2000/svg" xmlns:xlink="http://www.w3.org/1999/xlink" x="0px" y="0px"
	 viewBox="0 0 58 58" style="enable-background:new 0 0 58 58;" xml:space="preserve">
<g>
	<path style="fill:#ECF0F1;" d="M53.254,8H4.746C3.782,8,3,8.782,3,9.746V12v1v10v1c0,14.359,11.641,27,26,27s26-12.641,26-27v-1V13
		v-1V9.746C55,8.782,54.218,8,53.254,8z"/>
	<path style="fill:#46B29D;" d="M54.949,25.564C53.521,25.209,52.036,25,50.5,25C40.299,25,32,33.299,32,43.5
		c0,2.51,0.507,4.903,1.417,7.087C45.172,48.413,54.23,37.772,54.949,25.564z"/>
	<path style="fill:#46B29D;" d="M7.5,25c-1.536,0-3.021,0.209-4.449,0.564c0.719,12.209,9.778,22.85,21.532,25.024
		C25.493,48.403,26,46.01,26,43.5C26,33.299,17.701,25,7.5,25z"/>
	<path style="fill:#BDC3C7;" d="M54.598,28.565C53.291,28.207,51.921,28,50.5,28C41.94,28,35,34.94,35,43.5
		c0,2.265,0.497,4.41,1.37,6.349C45.727,46.878,52.881,38.462,54.598,28.565z"/>
	<path style="fill:#BDC3C7;" d="M7.5,28c-1.421,0-2.791,0.207-4.098,0.565c1.717,9.896,8.871,18.313,18.228,21.284
		C22.503,47.91,23,45.765,23,43.5C23,34.94,16.06,28,7.5,28z"/>
	<rect x="2" y="7" style="fill:#46B29D;" width="54" height="9"/>
	<path style="fill:#90CED6;" d="M12.764,10H1.368C0.613,10,0,10.613,0,11.368v7.263C0,19.387,0.613,20,1.368,20H13
		c2.919,0,5.275-2.535,4.974-5.513C17.712,11.893,15.372,10,12.764,10z"/>
	<path style="fill:#FFFFFF;" d="M12.764,10H10v10h3c2.919,0,5.275-2.535,4.974-5.513C17.712,11.893,15.372,10,12.764,10z"/>
	<path style="fill:#90CED6;" d="M56.632,9H45.236c-2.607,0-4.947,1.893-5.21,4.487C39.725,16.465,42.081,19,45,19h11.632
		C57.387,19,58,18.387,58,17.632v-7.263C58,9.613,57.387,9,56.632,9z"/>
	<path style="fill:#FFFFFF;" d="M48,9h-2.764c-2.607,0-4.948,1.893-5.21,4.487C39.725,16.465,42.081,19,45,19h3V9z"/>
</g>
<g>
</g>
<g>
</g>
<g>
</g>
<g>
</g>
<g>
</g>
<g>
</g>
<g>
</g>
<g>
</g>
<g>
</g>
<g>
</g>
<g>
</g>
<g>
</g>
<g>
</g>
<g>
</g>
<g>
</g>
</svg>
