<?xml version="1.0" encoding="iso-8859-1"?>
<!-- Generator: Adobe Illustrator 18.0.0, SVG Export Plug-In . SVG Version: 6.00 Build 0)  -->
<!DOCTYPE svg PUBLIC "-//W3C//DTD SVG 1.1//EN" "http://www.w3.org/Graphics/SVG/1.1/DTD/svg11.dtd">
<svg version="1.1" id="Capa_1" xmlns="http://www.w3.org/2000/svg" xmlns:xlink="http://www.w3.org/1999/xlink" x="0px" y="0px"
	 viewBox="0 0 57.196 57.196" style="enable-background:new 0 0 57.196 57.196;" xml:space="preserve">
<g>
	<path style="fill:#EDE9D9;" d="M29.381,11.188c0.936,2.165-1.701,7.194-6.35,11.843s-9.678,7.286-11.843,6.35
		c-0.367,1.433-0.007,3.013,1.115,4.135l23.103,23.103c1.953,1.953,8.284-1.213,14.142-7.071s9.024-12.19,7.071-14.142
		L33.516,12.303C32.394,11.181,30.814,10.821,29.381,11.188z"/>
	<circle style="fill:#EDE9D9;" cx="5" cy="5" r="5"/>
	<path style="fill:#E64C3C;" d="M24.739,6.474c1.082,2.099-1.573,7.23-6.304,11.961s-9.862,7.386-11.961,6.304l-0.06,0.06
		l4.243,4.243c1.757,1.757,7.298-0.934,12.374-6.01s7.768-10.617,6.01-12.374l-4.243-4.243L24.739,6.474z"/>
	<path style="fill:#C03A2B;" d="M10.076,14.243c-3.743,4.398-5.524,8.694-4.016,10.203c1.757,1.757,7.298-0.934,12.374-6.01
		s7.768-10.617,6.01-12.374c-1.509-1.509-5.805,0.273-10.203,4.016"/>
	<path style="fill:#DDD6C0;" d="M20.556,10.657c-1.954,1.954-7.871-0.8-10.607-3.536L7.121,9.95
		c2.736,2.736,5.49,8.652,3.536,10.607l0,0C15.172,18.75,18.75,15.172,20.556,10.657L20.556,10.657z"/>
	<path style="fill:#B0D3F0;" d="M31.381,31.381c-1.238,5.59-6.105,10.456-10.607,10.607l14.632,14.632
		c1.953,1.953,8.284-1.213,14.142-7.071c5.858-5.858,9.024-12.19,7.071-14.142L41.987,20.774
		C36.397,22.012,31.531,26.879,31.381,31.381z"/>
	<circle style="fill:#FFFFFF;" cx="35.406" cy="44.598" r="2.5"/>
	<circle style="fill:#FFFFFF;" cx="47.426" cy="39.648" r="2.5"/>
	<circle style="fill:#FFFFFF;" cx="38.234" cy="30.456" r="2.5"/>
</g>
<g>
</g>
<g>
</g>
<g>
</g>
<g>
</g>
<g>
</g>
<g>
</g>
<g>
</g>
<g>
</g>
<g>
</g>
<g>
</g>
<g>
</g>
<g>
</g>
<g>
</g>
<g>
</g>
<g>
</g>
</svg>
