<?xml version="1.0" encoding="iso-8859-1"?>
<!-- Generator: Adobe Illustrator 18.0.0, SVG Export Plug-In . SVG Version: 6.00 Build 0)  -->
<!DOCTYPE svg PUBLIC "-//W3C//DTD SVG 1.1//EN" "http://www.w3.org/Graphics/SVG/1.1/DTD/svg11.dtd">
<svg version="1.1" id="Capa_1" xmlns="http://www.w3.org/2000/svg" xmlns:xlink="http://www.w3.org/1999/xlink" x="0px" y="0px"
	 viewBox="0 0 55 55" style="enable-background:new 0 0 55 55;" xml:space="preserve">
<g>
	<path style="fill:#F0C419;" d="M39.253,55H15.747c-2.346,0-4.247-1.901-4.247-4.247V19h32v31.753C43.5,53.099,41.599,55,39.253,55z
		"/>
	<path style="fill:#F3D55B;" d="M43.5,45h1.404c3.09,0,5.596-2.505,5.596-5.596v-6.809c0-3.09-2.505-5.596-5.596-5.596H43.5v-4
		h1.404c5.291,0,9.596,4.305,9.596,9.596v6.809c0,5.291-4.305,9.596-9.596,9.596H43.5V45z"/>
	<path style="fill:#F3D55B;" d="M11.5,45h-1.404C7.005,45,4.5,42.495,4.5,39.404v-6.809C4.5,29.505,7.005,27,10.096,27H11.5v-4
		h-1.404C4.805,23,0.5,27.305,0.5,32.596v6.809C0.5,44.695,4.805,49,10.096,49H11.5V45z"/>
	<path style="fill:#FFFFFF;" d="M27.739,23.146l3.696,7.489c0.039,0.079,0.114,0.133,0.201,0.146l8.265,1.201
		c0.219,0.032,0.306,0.301,0.148,0.455l-5.98,5.829c-0.063,0.061-0.092,0.15-0.077,0.236l1.412,8.231
		c0.037,0.218-0.191,0.384-0.387,0.281l-7.392-3.886c-0.078-0.041-0.171-0.041-0.248,0l-7.392,3.886
		c-0.196,0.103-0.425-0.063-0.387-0.281l1.412-8.231c0.015-0.087-0.014-0.175-0.077-0.236l-5.98-5.829
		c-0.158-0.154-0.071-0.423,0.148-0.455l8.265-1.201c0.087-0.013,0.162-0.067,0.201-0.146l3.696-7.489
		C27.359,22.947,27.641,22.947,27.739,23.146z"/>
	<path style="fill:#EDE9D9;" d="M43.5,19c0,0-13.711-2.659-11.435-12.545c0.412-1.79,0.053-3.73-1.235-5.039
		C29.912,0.484,28.958,0,27.5,0c-1.333,0-2.412,0.484-3.33,1.416c-1.289,1.309-1.648,3.249-1.235,5.039
		C25.211,16.341,11.5,19,11.5,19H43.5z"/>
	<path style="fill:#DDD6C0;" d="M33.159,13c-0.408-0.609-0.739-1.275-0.972-2h-9.374c-0.233,0.725-0.564,1.391-0.972,2H33.159z"/>
	<path style="fill:#DDD6C0;" d="M28.5,0.09C28.193,0.03,27.862,0,27.5,0c-0.351,0-0.682,0.038-1,0.104V4h2V0.09z"/>
</g>
<g>
</g>
<g>
</g>
<g>
</g>
<g>
</g>
<g>
</g>
<g>
</g>
<g>
</g>
<g>
</g>
<g>
</g>
<g>
</g>
<g>
</g>
<g>
</g>
<g>
</g>
<g>
</g>
<g>
</g>
</svg>
