<?xml version="1.0" encoding="iso-8859-1"?>
<!-- Generator: Adobe Illustrator 18.0.0, SVG Export Plug-In . SVG Version: 6.00 Build 0)  -->
<!DOCTYPE svg PUBLIC "-//W3C//DTD SVG 1.1//EN" "http://www.w3.org/Graphics/SVG/1.1/DTD/svg11.dtd">
<svg version="1.1" id="Capa_1" xmlns="http://www.w3.org/2000/svg" xmlns:xlink="http://www.w3.org/1999/xlink" x="0px" y="0px"
	 viewBox="0 0 58 58" style="enable-background:new 0 0 58 58;" xml:space="preserve">
<g>
	<path style="fill:#F4D99D;" d="M22,11h-3H8.5C7.672,11,7,11.672,7,12.5S7.672,14,8.5,14H19v10h3V14h13v-3H22z"/>
	<polygon style="fill:#556080;" points="17.915,55.403 16.085,54.597 29.17,25.193 31,26 	"/>
	<polygon style="fill:#556080;" points="46.085,55.403 32.17,24 34,23.193 47.915,54.597 	"/>
	<circle style="fill:#D1D4D1;" cx="17" cy="54" r="4"/>
	<circle style="fill:#D1D4D1;" cx="47" cy="54" r="4"/>
	<rect x="24" y="38" style="fill:#556080;" width="16" height="2"/>
	<circle style="fill:#D1D4D1;" cx="32" cy="26" r="5"/>
	<rect x="12" y="5" style="fill:#E64C3C;" width="4" height="6"/>
	<path style="fill:#FDD7AD;" d="M31.639,9.963l1.503-4.497c0.463-1.497,1.621-2.654,3.049-3.169C35.298,0.92,33.754,0,32,0
		c-2.75,0-5,2.25-5,5C27,7.626,29.059,9.774,31.639,9.963z"/>
	<path style="fill:#9777A8;" d="M41.779,3.972C40.842,2.719,39.406,2,37.841,2c-2.145,0-4.067,1.422-4.699,3.466L31.293,11H35v3
		h-4.709l-1.336,4c-2.46,0-4.815,0.529-6.954,1.476V24h-3v-2.813c-3.429,2.438-5.957,6.109-6.875,10.468L11,37h6l3.285-7.391
		C20.72,28.63,21.69,28,22.76,28h4.662c-0.417-0.954-0.558-2.056-0.273-3.217c0.465-1.897,2.066-3.39,3.992-3.711
		c2.618-0.437,4.909,1.167,5.616,3.465c0.537-0.739,0.961-1.57,1.233-2.473c0,0,4.56-13.724,4.569-13.757
		C43.001,6.805,42.717,5.225,41.779,3.972z"/>
</g>
<g>
</g>
<g>
</g>
<g>
</g>
<g>
</g>
<g>
</g>
<g>
</g>
<g>
</g>
<g>
</g>
<g>
</g>
<g>
</g>
<g>
</g>
<g>
</g>
<g>
</g>
<g>
</g>
<g>
</g>
</svg>
