<?xml version="1.0" encoding="iso-8859-1"?>
<!-- Generator: Adobe Illustrator 18.0.0, SVG Export Plug-In . SVG Version: 6.00 Build 0)  -->
<!DOCTYPE svg PUBLIC "-//W3C//DTD SVG 1.1//EN" "http://www.w3.org/Graphics/SVG/1.1/DTD/svg11.dtd">
<svg version="1.1" id="Capa_1" xmlns="http://www.w3.org/2000/svg" xmlns:xlink="http://www.w3.org/1999/xlink" x="0px" y="0px"
	 viewBox="0 0 55.139 55.139" style="enable-background:new 0 0 55.139 55.139;" xml:space="preserve">
<g>
	<path style="fill:#B0D3F0;" d="M13.593,55.139L13.593,55.139c-3.038,0-5.5-2.462-5.52-5.312V30.119
		c0.02-1.178,0.823-1.98,1.813-1.98H17.3c0.99,0,1.793,0.803,1.745,1.73v19.707C19.093,52.677,16.631,55.139,13.593,55.139z"/>
	<rect x="11.046" y="19.139" style="fill:#DDD7C3;" width="5" height="9"/>
	<path style="fill:#F7C0BC;" d="M40.518,55.139L40.518,55.139c-3.038,0-5.5-2.462-5.473-5.5V29.932
		c-0.027-0.99,0.775-1.793,1.765-1.793h7.414c0.99,0,1.793,0.803,1.82,1.793v19.707C46.018,52.677,43.556,55.139,40.518,55.139z"/>
	<rect x="38.046" y="19.139" style="fill:#DDD7C3;" width="5" height="9"/>
	<path style="fill:#E5DCBE;" d="M23.039,9.664c0-0.587-0.037-1.145-0.106-1.676C21.542-2.662,5.599-2.663,4.207,7.987
		C4.138,8.519,4.1,9.077,4.1,9.664c0,0-0.614,10.259,9.469,9.473C23.652,19.923,23.039,9.664,23.039,9.664z"/>
	<path style="fill:#E5DCBE;" d="M41.046,1.139L41.046,1.139c1.105,0,2,0.895,2.014,2l-0.014,3.972
		c-0.014,1.11,0.886,2.009,1.996,2.009h0c1.092,0,1.987-0.879,2.008-1.971c0.134-6.93,0.982-6.029,0.982-6.029s3.25,5.188,3,11
		c0.001,0.025,0.311,7.437-9,7h-2c-9.313,0.438-9-7-9-7c-0.25-5.812,3-11,3-11s0.848-0.901,0.982,6.029
		c0.021,1.092,0.916,1.971,2.008,1.971h0c1.11,0,2.009-0.9,2.023-2.009l0.014-3.972C39.046,2.034,39.941,1.139,41.046,1.139
		L41.046,1.139z"/>
	<path style="fill:#FFFFFF;" d="M19.046,11.139c-0.553,0-1-0.448-1-1c0-2.757-2.243-5-5-5c-0.553,0-1-0.448-1-1s0.447-1,1-1
		c3.859,0,7,3.14,7,7C20.046,10.691,19.599,11.139,19.046,11.139z"/>
	<rect x="8.046" y="42.139" style="fill:#0096E6;" width="11" height="5"/>
	<rect x="35.046" y="42.139" style="fill:#DF4D60;" width="11" height="5"/>
</g>
<g>
</g>
<g>
</g>
<g>
</g>
<g>
</g>
<g>
</g>
<g>
</g>
<g>
</g>
<g>
</g>
<g>
</g>
<g>
</g>
<g>
</g>
<g>
</g>
<g>
</g>
<g>
</g>
<g>
</g>
</svg>
