<?xml version="1.0" encoding="iso-8859-1"?>
<!-- Generator: Adobe Illustrator 18.0.0, SVG Export Plug-In . SVG Version: 6.00 Build 0)  -->
<!DOCTYPE svg PUBLIC "-//W3C//DTD SVG 1.1//EN" "http://www.w3.org/Graphics/SVG/1.1/DTD/svg11.dtd">
<svg version="1.1" id="Capa_1" xmlns="http://www.w3.org/2000/svg" xmlns:xlink="http://www.w3.org/1999/xlink" x="0px" y="0px"
	 viewBox="0 0 58 58" style="enable-background:new 0 0 58 58;" xml:space="preserve">
<g>
	<path style="fill:#EDE9D9;" d="M42.124,54.01l-0.251-1.005c-1.805-7.218-1.745-16.777,0.172-23.966C42.588,27,41.051,25,38.942,25
		h-1v-3h-18v3h-0.903c-2.026,0-3.546,1.854-3.149,3.841l0.563,2.816c1.102,5.511,1.136,13.182,0.101,18.706l-0.719,3.834
		C15.464,56.173,16.98,58,18.991,58h20.018C41.098,58,42.631,56.037,42.124,54.01z"/>
	<path style="fill:#FBD490;" d="M28.942,14h7c0-1.447-1.059-2.464-2.087-3.11c-1.54-0.968-2.192-3.875-1.528-5.569
		c0.007-0.018,0.014-0.037,0.022-0.055c0.907-2.282-0.501-4.956-2.94-5.239C29.255,0.009,29.099,0,28.942,0
		c-0.158,0-0.313,0.009-0.466,0.027c-2.439,0.283-3.847,2.958-2.94,5.239c0.007,0.018,0.014,0.036,0.022,0.055
		c0.663,1.694,0.011,4.601-1.528,5.569C23,11.536,21.942,12.553,21.942,14H28.942z"/>
	<path style="fill:#71C285;" d="M37.942,18h-18v-3.014c0-0.544,0.441-0.986,0.986-0.986h16.028c0.544,0,0.986,0.441,0.986,0.986V18z
		"/>
	<path style="fill:#D3CDBA;" d="M38.942,22h-20c-0.599,0-1-0.486-1-1.084v-1.831c0-0.599,0.401-1.084,1-1.084h20
		c0.599,0,1,0.486,1,1.084v1.831C39.942,21.514,39.54,22,38.942,22z"/>
	<path style="fill:#B0D3F0;" d="M41.286,32.412c-3.298,3.298-8.983,3.412-12.284,0.11s-9.066-3.181-12.364,0.117l-0.015,0.027
		c0.92,5.413,0.906,12.495-0.069,17.695l-0.719,3.834C15.464,56.173,16.98,58,18.991,58h20.018c2.089,0,3.622-1.963,3.115-3.99
		l-0.251-1.005c-1.533-6.134-1.707-13.945-0.553-20.569L41.286,32.412z"/>
	<circle style="fill:#FFFFFF;" cx="23.442" cy="38.5" r="2.5"/>
	<circle style="fill:#FFFFFF;" cx="33.442" cy="44.5" r="2.5"/>
	<circle style="fill:#FFFFFF;" cx="26.442" cy="52.5" r="2.5"/>
</g>
<g>
</g>
<g>
</g>
<g>
</g>
<g>
</g>
<g>
</g>
<g>
</g>
<g>
</g>
<g>
</g>
<g>
</g>
<g>
</g>
<g>
</g>
<g>
</g>
<g>
</g>
<g>
</g>
<g>
</g>
</svg>
