<?xml version="1.0" encoding="iso-8859-1"?>
<!-- Generator: Adobe Illustrator 18.0.0, SVG Export Plug-In . SVG Version: 6.00 Build 0)  -->
<!DOCTYPE svg PUBLIC "-//W3C//DTD SVG 1.1//EN" "http://www.w3.org/Graphics/SVG/1.1/DTD/svg11.dtd">
<svg version="1.1" id="Capa_1" xmlns="http://www.w3.org/2000/svg" xmlns:xlink="http://www.w3.org/1999/xlink" x="0px" y="0px"
	 viewBox="0 0 54 54" style="enable-background:new 0 0 54 54;" xml:space="preserve">
<g>
	<path style="fill:#8697CB;" d="M38.753,52H15.247C12.901,52,11,50.099,11,47.753V16h32v31.753C43,50.099,41.099,52,38.753,52z"/>
	<path style="fill:#F0C419;" d="M43,42h1.404C47.495,42,50,39.495,50,36.404v-6.809C50,26.505,47.495,24,44.404,24H43v-4h1.404
		C49.695,20,54,24.305,54,29.596v6.809C54,41.695,49.695,46,44.404,46H43V42z"/>
	<path style="fill:#F0C419;" d="M11,42H9.596C6.505,42,4,39.495,4,36.404v-6.809C4,26.505,6.505,24,9.596,24H11v-4H9.596
		C4.305,20,0,24.305,0,29.596l0,6.809C0,41.695,4.305,46,9.596,46H11V42z"/>
	<path style="fill:#ECF0F1;" d="M31,4.66V4.017C31,2.903,30.097,2,28.983,2h-3.966C23.903,2,23,2.903,23,4.017V4.66
		C23,7.057,21.057,9,18.66,9h-6.169C11.668,9,11,9.668,11,10.492V16h32v-5.508C43,9.668,42.332,9,41.508,9H35.34
		C32.943,9,31,7.057,31,4.66z"/>
	<path style="fill:#FFFFFF;" d="M27.239,20.146l3.696,7.489c0.039,0.079,0.114,0.133,0.201,0.146l8.265,1.201
		c0.219,0.032,0.306,0.301,0.148,0.455l-5.98,5.829c-0.063,0.061-0.092,0.15-0.077,0.236l1.412,8.231
		c0.037,0.218-0.191,0.384-0.387,0.281l-7.392-3.886c-0.078-0.041-0.171-0.041-0.248,0l-7.392,3.886
		c-0.196,0.103-0.425-0.063-0.387-0.281l1.412-8.231c0.015-0.087-0.014-0.175-0.077-0.236l-5.98-5.829
		c-0.158-0.154-0.071-0.423,0.148-0.455l8.265-1.201c0.087-0.013,0.162-0.067,0.201-0.146l3.696-7.489
		C26.859,19.947,27.141,19.947,27.239,20.146z"/>
</g>
<g>
</g>
<g>
</g>
<g>
</g>
<g>
</g>
<g>
</g>
<g>
</g>
<g>
</g>
<g>
</g>
<g>
</g>
<g>
</g>
<g>
</g>
<g>
</g>
<g>
</g>
<g>
</g>
<g>
</g>
</svg>
