<?xml version="1.0" encoding="iso-8859-1"?>
<!-- Generator: Adobe Illustrator 18.0.0, SVG Export Plug-In . SVG Version: 6.00 Build 0)  -->
<!DOCTYPE svg PUBLIC "-//W3C//DTD SVG 1.1//EN" "http://www.w3.org/Graphics/SVG/1.1/DTD/svg11.dtd">
<svg version="1.1" id="Capa_1" xmlns="http://www.w3.org/2000/svg" xmlns:xlink="http://www.w3.org/1999/xlink" x="0px" y="0px"
	 viewBox="0 0 50 50" style="enable-background:new 0 0 50 50;" xml:space="preserve">
<g>
	<path style="fill:#B0D3F0;" d="M31.253,50H7.747C5.401,50,3.5,48.099,3.5,45.753V14h32v31.753C35.5,48.099,33.599,50,31.253,50z"/>
	<path style="fill:#26B99A;" d="M35.5,40h1.404c3.09,0,5.596-2.505,5.596-5.596v-6.809c0-3.09-2.505-5.596-5.596-5.596H35.5v-4
		h1.404c5.291,0,9.596,4.305,9.596,9.596v6.809c0,5.291-4.305,9.596-9.596,9.596H35.5V40z"/>
	<path style="fill:#8697CB;" d="M15.5,2.66V2.017C15.5,0.903,14.597,0,13.483,0H9.517C8.403,0,7.5,0.903,7.5,2.017V2.66
		C7.5,7.625,4.992,7,4.992,7C4.168,7,3.5,7.668,3.5,8.492V14h32V8.492C35.5,7.668,34.832,7,34.008,7H18.5
		C16.103,7,15.5,5.057,15.5,2.66z"/>
	<path style="fill:#D0E8F9;" d="M3.5,20.596c6.778,3.359,19.481,5.21,32,5.389v-1.998c-15.109-0.203-26.778-2.694-32-5.626V20.596z"
		/>
	<path style="fill:#D0E8F9;" d="M3.5,27.596c6.778,3.359,19.481,5.21,32,5.389v-1.998c-15.109-0.203-26.778-2.694-32-5.626V27.596z"
		/>
	<path style="fill:#D0E8F9;" d="M3.5,34.596c6.778,3.359,19.481,5.21,32,5.389v-1.998c-15.109-0.203-26.778-2.694-32-5.626V34.596z"
		/>
	<path style="fill:#D0E8F9;" d="M3.5,39.36v2.235c6.742,3.341,19.344,5.189,31.798,5.385c0.119-0.391,0.202-0.798,0.202-1.228
		v-0.766C20.391,44.783,8.722,42.293,3.5,39.36z"/>
</g>
<g>
</g>
<g>
</g>
<g>
</g>
<g>
</g>
<g>
</g>
<g>
</g>
<g>
</g>
<g>
</g>
<g>
</g>
<g>
</g>
<g>
</g>
<g>
</g>
<g>
</g>
<g>
</g>
<g>
</g>
</svg>
