<?xml version="1.0" encoding="iso-8859-1"?>
<!-- Generator: Adobe Illustrator 18.0.0, SVG Export Plug-In . SVG Version: 6.00 Build 0)  -->
<!DOCTYPE svg PUBLIC "-//W3C//DTD SVG 1.1//EN" "http://www.w3.org/Graphics/SVG/1.1/DTD/svg11.dtd">
<svg version="1.1" id="Capa_1" xmlns="http://www.w3.org/2000/svg" xmlns:xlink="http://www.w3.org/1999/xlink" x="0px" y="0px"
	 viewBox="0 0 54 54" style="enable-background:new 0 0 54 54;" xml:space="preserve">
<g>
	<path style="fill:#556080;" d="M47.139,54H6.861C3.072,54,0,50.928,0,47.139V6.861C0,3.072,3.072,0,6.861,0h40.278
		C50.928,0,54,3.072,54,6.861v40.278C54,50.928,50.928,54,47.139,54z"/>
	<path style="fill:#F0C419;" d="M26,4H6.861C5.283,4,4,5.283,4,6.861V26h22V4z"/>
	<path style="fill:#ED7161;" d="M4,28v19.139C4,48.717,5.283,50,6.861,50H26V28H4z"/>
	<path style="fill:#67B9CC;" d="M47.139,4H28v22h22V6.861C50,5.283,48.717,4,47.139,4z"/>
	<path style="fill:#A4E869;" d="M28,50h19.139C48.717,50,50,48.717,50,47.139V28H28V50z"/>
	<circle style="fill:#F29C1F;" cx="14.5" cy="15.5" r="7.5"/>
	
		<rect x="34.05" y="10.05" transform="matrix(0.7071 -0.7071 0.7071 0.7071 0.8162 31.9706)" style="fill:#48A0DC;" width="9.899" height="9.899"/>
	<polygon style="fill:#DF4D60;" points="22,45 15,45 8,45 15,31 	"/>
	<polygon style="fill:#4FBA6F;" points="39,31 41.528,36.123 47,37 43.091,40.931 44.056,46.562 39,43.903 33.944,46.562 
		34.909,40.931 31,37 36.472,36.123 	"/>
</g>
<g>
</g>
<g>
</g>
<g>
</g>
<g>
</g>
<g>
</g>
<g>
</g>
<g>
</g>
<g>
</g>
<g>
</g>
<g>
</g>
<g>
</g>
<g>
</g>
<g>
</g>
<g>
</g>
<g>
</g>
</svg>
