<?xml version="1.0" encoding="iso-8859-1"?>
<!-- Generator: Adobe Illustrator 18.0.0, SVG Export Plug-In . SVG Version: 6.00 Build 0)  -->
<!DOCTYPE svg PUBLIC "-//W3C//DTD SVG 1.1//EN" "http://www.w3.org/Graphics/SVG/1.1/DTD/svg11.dtd">
<svg version="1.1" id="Capa_1" xmlns="http://www.w3.org/2000/svg" xmlns:xlink="http://www.w3.org/1999/xlink" x="0px" y="0px"
	 viewBox="0 0 56 56" style="enable-background:new 0 0 56 56;" xml:space="preserve">
<g>
	<path style="fill:#F0C419;" d="M28.72,20.274c-12.917,0-23.387,9.623-23.387,21.493c0,3.131,0.734,6.104,2.044,8.785
		c5.76,2.927,12.865,2.658,20.557,2.658c8.653,0,16.563-0.192,22.65-3.812c0.98-2.373,1.522-4.943,1.522-7.632
		C52.107,29.897,41.637,20.274,28.72,20.274z"/>
	<path style="fill:#D1D4D1;" d="M28,20.783c-0.552,0-1-0.448-1-1v-10c0-0.552,0.448-1,1-1s1,0.448,1,1v10
		C29,20.336,28.552,20.783,28,20.783z"/>
	<path style="fill:#E57E25;" d="M51.959,44.081l-0.783,0.447c-6.042,3.411-13.82,3.682-23.361,3.682l-1.887,0.003
		c-7.145,0.016-13.898,0.036-19.275-2.538l-1.049-0.664c0.15,0.904,0.362,1.788,0.63,2.651c5.218,2.35,11.355,2.553,17.877,2.553
		c0.604,0,1.212-0.001,1.821-0.003l1.882-0.003c9.496,0,17.313-0.28,23.664-3.584C51.69,45.794,51.857,44.947,51.959,44.081z"/>
	<path style="fill:#E57E25;" d="M28.118,21.28c0.585,0.118,2.889,2.034,4.852,5.864c1.964,3.833,4.594,11.728,0.142,21.54
		c-0.228,0.503-0.005,1.096,0.498,1.324c0.134,0.061,0.274,0.09,0.413,0.09c0.38,0,0.744-0.218,0.911-0.587
		c5.579-12.294,0.896-21.822-1.375-25.348c-0.931-1.445-2.113-2.893-3.245-3.833c-0.527-0.033-1.056-0.055-1.592-0.055
		c-0.528,0-1.051,0.022-1.571,0.054C27.174,20.857,27.582,21.28,28.118,21.28z"/>
	<path style="fill:#E57E25;" d="M28.906,20.283c0-0.002-0.001-0.003-0.001-0.005c-0.062,0-0.123-0.004-0.185-0.004
		c-1.064,0-2.109,0.071-3.135,0.198c-1.079,0.94-2.19,2.319-3.074,3.69c-2.271,3.526-6.953,13.054-1.374,25.348
		c0.167,0.369,0.531,0.587,0.911,0.587c0.138,0,0.279-0.029,0.413-0.09c0.503-0.228,0.726-0.821,0.498-1.324
		c-4.453-9.812-1.823-17.707,0.141-21.54c1.963-3.83,4.266-5.747,4.806-5.861C28.458,21.283,28.906,20.836,28.906,20.283z"/>
	<rect x="28.023" y="8.936" style="fill:none;" width="0" height="0"/>
	<polygon style="fill:#A5A5A4;" points="0,9.113 0,9.11 0,9.107 	"/>
	<polygon style="fill:#A5A5A4;" points="27.977,8.936 28,8.953 28,8.92 	"/>
	<path style="fill:#ECF0F1;" d="M0,9.11c0.001,1.58,1.029,2.929,2.692,3.917c-1.17-0.695-2.021-1.569-2.424-2.578l1.417,0.515
		c5.176,2.205,11.364-0.324,12.287-0.728c0.05-0.037,0.091-0.083,0.149-0.111c0.304-0.143,7.326-3.369,13.565-0.992
		c-0.086,0.058-0.2,0.131-0.322,0.209c0.364-0.234,0.577-0.381,0.613-0.407c-0.245-0.183-8.296-6.153-17.781-6.153
		C4.623,2.783,0.003,5.767,0,9.11z"/>
	<path style="fill:#A5A5A4;" d="M15.097,11.881c-0.05,0.036-0.089,0.082-0.147,0.109c-0.222,0.104-4.059,1.876-8.55,1.876
		c-0.788,0-1.596-0.066-2.408-0.194c1.709,0.706,3.837,1.111,6.146,1.111h0.045c7.983,0,14.956-4.018,17.116-5.397
		c-0.448,0.285-1.103,0.681-1.93,1.135C20.747,9.556,15.902,11.532,15.097,11.881z"/>
	<path style="fill:#A5A5A4;" d="M3.311,13.364c-0.204-0.101-0.4-0.207-0.589-0.318C2.911,13.157,3.107,13.262,3.311,13.364z"/>
	<path style="fill:#A5A5A4;" d="M3.992,13.673c-0.224-0.093-0.44-0.191-0.649-0.293C3.552,13.482,3.767,13.58,3.992,13.673z"/>
	<path style="fill:#D1D4D1;" d="M27.364,9.343c-0.023,0.015-0.042,0.027-0.066,0.042C27.323,9.37,27.34,9.359,27.364,9.343z"/>
	<polygon style="fill:#D1D4D1;" points="3.992,13.673 3.992,13.673 3.992,13.673 	"/>
	<path style="fill:#D1D4D1;" d="M2.723,13.046c-0.01-0.006-0.02-0.012-0.03-0.018C2.703,13.033,2.713,13.04,2.723,13.046z"/>
	<path style="fill:#D1D4D1;" d="M3.343,13.379c-0.01-0.005-0.021-0.01-0.031-0.016C3.322,13.369,3.332,13.374,3.343,13.379z"/>
	<path style="fill:#D1D4D1;" d="M14.121,10.126c-0.058,0.027-0.099,0.074-0.149,0.111c-0.923,0.404-7.11,2.932-12.287,0.728
		L0.269,10.45c0.403,1.008,1.254,1.883,2.424,2.578c0.01,0.006,0.02,0.012,0.03,0.018c0.188,0.111,0.385,0.217,0.589,0.318
		c0.01,0.005,0.021,0.01,0.031,0.016c0.209,0.103,0.425,0.201,0.649,0.293l0,0c0.812,0.128,1.62,0.194,2.408,0.194
		c4.491,0,8.328-1.771,8.55-1.876c0.058-0.027,0.097-0.073,0.147-0.109c0.806-0.35,5.65-2.325,10.271-1.361
		c0.827-0.453,1.482-0.85,1.93-1.135c0.024-0.015,0.043-0.028,0.066-0.042c0.122-0.078,0.235-0.152,0.322-0.209
		C21.447,6.758,14.425,9.983,14.121,10.126z"/>
	<path style="fill:#D1D4D1;" d="M54.886,6.326c0.197,0.238,0.367,0.484,0.514,0.735C55.254,6.809,55.083,6.564,54.886,6.326z"/>
	<path style="fill:#D1D4D1;" d="M28.023,8.936c0.034,0.024,0.224,0.155,0.545,0.363C28.247,9.091,28.057,8.96,28.023,8.936
		L28.023,8.936z"/>
	<path style="fill:#D1D4D1;" d="M28.041,8.923c0.018-0.013,0.05-0.036,0.095-0.069C28.084,8.891,28.06,8.909,28.041,8.923z"/>
	<path style="fill:#ECF0F1;" d="M40.674,6.401c0.047-0.036,0.084-0.081,0.139-0.109c0.283-0.142,6.663-3.277,12.455-1.408
		c0.63,0.428,1.17,0.905,1.599,1.418c-1.702-2.04-5.143-3.519-9.063-3.519c-6.819,0-12.89,3.085-15.864,4.891
		C34.554,9.107,39.852,6.785,40.674,6.401z"/>
	<polygon style="fill:#D1D4D1;" points="28,8.953 28.023,8.936 28.023,8.936 	"/>
	<path style="fill:#A5A5A4;" d="M55.809,7.951l-2.349-0.872C48.63,5.02,42.7,7.618,41.827,8.025
		c-0.047,0.035-0.084,0.081-0.139,0.109c-0.218,0.11-4.071,2.01-8.482,2.01c-1.522,0-3.108-0.239-4.636-0.843
		c1.986,1.286,9.088,5.483,17.248,5.483h0.045c5.573,0,10.134-2.33,10.137-5.673c-0.001-0.68-0.201-1.344-0.553-1.972
		C55.596,7.403,55.719,7.674,55.809,7.951z"/>
	<polygon style="fill:#D1D4D1;" points="56,9.107 56,9.11 56,9.113 	"/>
	<path style="fill:#D1D4D1;" d="M28.582,8.544c0.324-0.219,0.78-0.518,1.352-0.866C29.36,8.027,28.906,8.323,28.582,8.544z"/>
	<path style="fill:#D1D4D1;" d="M28.25,8.773c0.082-0.058,0.18-0.126,0.304-0.21C28.432,8.646,28.331,8.716,28.25,8.773z"/>
	<polygon style="fill:#A5A5A4;" points="28.023,8.936 28,8.92 28.023,8.936 	"/>
	<polygon style="fill:#A5A5A4;" points="28,8.92 28,8.953 28.023,8.936 	"/>
	<polygon style="fill:#A5A5A4;" points="28.57,9.301 28.57,9.301 28.568,9.299 	"/>
	<path style="fill:#A5A5A4;" d="M28.554,8.563c0.009-0.006,0.019-0.013,0.028-0.019C28.572,8.551,28.563,8.556,28.554,8.563z"/>
	<path style="fill:#A5A5A4;" d="M54.867,6.302c0.007,0.008,0.012,0.016,0.019,0.024C54.88,6.318,54.874,6.31,54.867,6.302z"/>
	<path style="fill:#A5A5A4;" d="M28.041,8.923c-0.005,0.004-0.015,0.011-0.018,0.013l0,0C28.026,8.934,28.036,8.927,28.041,8.923z"
		/>
	<path style="fill:#A5A5A4;" d="M28.135,8.855c0.03-0.021,0.075-0.053,0.115-0.081C28.205,8.805,28.167,8.832,28.135,8.855z"/>
	<polygon style="fill:#A5A5A4;" points="29.94,7.675 29.935,7.678 29.94,7.675 	"/>
	<path style="fill:#A5A5A4;" d="M55.401,7.061c0.015,0.026,0.032,0.051,0.046,0.076C55.432,7.112,55.416,7.087,55.401,7.061z"/>
	<path style="fill:#D1D4D1;" d="M41.688,8.133c0.055-0.027,0.091-0.073,0.139-0.109C42.7,7.618,48.63,5.02,53.459,7.079l2.349,0.872
		c-0.089-0.277-0.213-0.548-0.362-0.813c-0.014-0.026-0.031-0.051-0.046-0.076c-0.147-0.252-0.317-0.497-0.514-0.735
		c-0.006-0.008-0.012-0.016-0.019-0.024c-0.43-0.513-0.969-0.99-1.599-1.418c-5.792-1.868-12.172,1.267-12.455,1.408
		c-0.055,0.027-0.091,0.073-0.139,0.109c-0.822,0.383-6.12,2.706-10.734,1.274c-0.002,0.001-0.004,0.002-0.006,0.003
		c-0.573,0.348-1.029,0.646-1.352,0.866c-0.009,0.006-0.019,0.013-0.028,0.019c-0.124,0.084-0.222,0.153-0.304,0.21
		c-0.04,0.028-0.085,0.06-0.115,0.081c-0.045,0.032-0.077,0.055-0.095,0.069c-0.005,0.004-0.015,0.011-0.018,0.013
		c0.034,0.024,0.224,0.155,0.545,0.363c0.001,0,0.001,0.001,0.002,0.001c1.528,0.604,3.114,0.843,4.636,0.843
		C37.617,10.144,41.47,8.243,41.688,8.133z"/>
</g>
<g>
</g>
<g>
</g>
<g>
</g>
<g>
</g>
<g>
</g>
<g>
</g>
<g>
</g>
<g>
</g>
<g>
</g>
<g>
</g>
<g>
</g>
<g>
</g>
<g>
</g>
<g>
</g>
<g>
</g>
</svg>
