<?xml version="1.0" encoding="iso-8859-1"?>
<!-- Generator: Adobe Illustrator 18.0.0, SVG Export Plug-In . SVG Version: 6.00 Build 0)  -->
<!DOCTYPE svg PUBLIC "-//W3C//DTD SVG 1.1//EN" "http://www.w3.org/Graphics/SVG/1.1/DTD/svg11.dtd">
<svg version="1.1" id="Capa_1" xmlns="http://www.w3.org/2000/svg" xmlns:xlink="http://www.w3.org/1999/xlink" x="0px" y="0px"
	 viewBox="0 0 50.096 50.096" style="enable-background:new 0 0 50.096 50.096;" xml:space="preserve">
<g>
	<path style="fill:#FF5364;" d="M50.081,14.913c-0.015-0.326-0.033-0.508-0.033-0.508c0-4.008-2.089-6.571-4.591-8.202
		c-3.619-2.359-8.254-2.215-11.974-0.018c-4.466,2.637-8.435,2.22-8.435,2.22s-3.969,0.418-8.435-2.22
		c-3.72-2.197-8.354-2.342-11.974,0.018c-2.503,1.631-4.591,4.194-4.591,8.202c0,0-0.019,0.182-0.033,0.508
		c-0.302,6.785,4.048,12.64,10.148,14.698l0,0c6.433,0-0.067,0,4.049,0h21.672c3.587,0,0.15,0,4.049,0l0,0
		C46.033,27.553,50.383,21.698,50.081,14.913z"/>
	<circle style="fill:#FFFFFF;" cx="25.048" cy="18.611" r="7"/>
	<path style="fill:#F3D55B;" d="M31.92,17.293c0.041,0.213,0.073,0.428,0.094,0.647c0.022,0.221,0.034,0.445,0.034,0.671
		c0,0.26-0.017,0.517-0.044,0.77c-0.005,0.047-0.015,0.093-0.021,0.139c-0.028,0.212-0.063,0.422-0.109,0.628
		c-0.007,0.03-0.016,0.059-0.023,0.089c-0.054,0.226-0.118,0.447-0.194,0.664c-0.003,0.009-0.006,0.017-0.01,0.026
		c-0.083,0.235-0.177,0.464-0.283,0.686l0,0c2.83,1.99,4.684,5.275,4.684,8.997c0,6.075-4.925,11-11,11s-11-4.925-11-11
		c0-3.723,1.854-7.007,4.684-8.997l0,0c-0.106-0.223-0.201-0.451-0.283-0.686c-0.003-0.009-0.006-0.017-0.01-0.026
		c-0.075-0.217-0.14-0.438-0.194-0.664c-0.007-0.03-0.016-0.059-0.023-0.089c-0.046-0.206-0.082-0.416-0.109-0.628
		c-0.006-0.047-0.016-0.092-0.021-0.139c-0.028-0.253-0.044-0.509-0.044-0.77c0-0.226,0.012-0.45,0.034-0.67
		c0.021-0.219,0.054-0.435,0.094-0.648c-4.821,2.498-8.128,7.524-8.128,13.318c0,8.271,6.729,15,15,15s15-6.729,15-15
		C40.048,24.817,36.74,19.79,31.92,17.293z"/>
</g>
<g>
</g>
<g>
</g>
<g>
</g>
<g>
</g>
<g>
</g>
<g>
</g>
<g>
</g>
<g>
</g>
<g>
</g>
<g>
</g>
<g>
</g>
<g>
</g>
<g>
</g>
<g>
</g>
<g>
</g>
</svg>
