<?xml version="1.0" encoding="iso-8859-1"?>
<!-- Generator: Adobe Illustrator 18.0.0, SVG Export Plug-In . SVG Version: 6.00 Build 0)  -->
<!DOCTYPE svg PUBLIC "-//W3C//DTD SVG 1.1//EN" "http://www.w3.org/Graphics/SVG/1.1/DTD/svg11.dtd">
<svg version="1.1" id="Capa_1" xmlns="http://www.w3.org/2000/svg" xmlns:xlink="http://www.w3.org/1999/xlink" x="0px" y="0px"
	 viewBox="0 0 58 58" style="enable-background:new 0 0 58 58;" xml:space="preserve">
<g>
	<path style="fill:#FDD7AD;" d="M18.918,1.803c-2.195,4.446-6.498,16.71,2.857,31.932c0.985,1.603,0.793,3.717-0.579,5.005
		c-5.969,5.602-3.556,14.969-2.655,17.308C21.786,57.304,25.311,58,29,58c3.51,0,6.874-0.624,9.989-1.767
		c0.063-5.767-1.49-7.733-1.894-8.145c-0.043-0.044-0.022-0.113,0.036-0.132c0.747-0.255,4.5-1.574,5.864-2.785
		c6.729-5.98,5.635-17.036-2.156-21.547c-1.736-1.005-3.239-1.45-3.736-1.581c-0.054-0.014-0.048-0.083,0.005-0.101
		C42.537,20.096,43.928,12,43.928,12C33.315,10.569,31.122,0.955,30.942,0.072C30.299,0.029,29.653,0,29,0
		C25.454,0,22.059,0.639,18.918,1.803z"/>
	<g>
		<path style="fill:#4FBA6F;" d="M18.901,1.838C7.871,5.942,0,16.54,0,29c0,12.327,7.695,22.851,18.541,27.048
			c-0.901-2.338-3.314-11.705,2.655-17.308c1.372-1.288,1.564-3.402,0.579-5.005C12.443,18.551,16.702,6.312,18.901,1.838z"/>
		<path style="fill:#4FBA6F;" d="M30.942,0.072C31.122,0.955,33.315,10.569,43.928,12c0,0-1.39,8.096-6.821,9.942
			c-0.053,0.018-0.059,0.087-0.005,0.101c0.497,0.13,2,0.576,3.736,1.581c7.791,4.511,8.885,15.566,2.156,21.547
			c-1.364,1.212-5.117,2.531-5.864,2.785c-0.058,0.02-0.078,0.089-0.036,0.132c0.404,0.413,1.957,2.378,1.894,8.145
			c-0.077,0.028-0.156,0.052-0.234,0.08C49.971,52.307,58,41.593,58,29C58,13.637,46.052,1.072,30.942,0.072z"/>
	</g>
	<path style="fill:#D1B599;" d="M33.501,43.135c-0.48-0.278-1.091-0.114-1.366,0.364c-0.277,0.479-0.113,1.09,0.364,1.366
		c6.293,3.641,5.543,10.717,5.508,11.017c-0.028,0.232,0.04,0.448,0.154,0.633c0.629-0.209,1.249-0.437,1.858-0.687
		C40.133,54.302,40.293,47.063,33.501,43.135z"/>
</g>
<g>
</g>
<g>
</g>
<g>
</g>
<g>
</g>
<g>
</g>
<g>
</g>
<g>
</g>
<g>
</g>
<g>
</g>
<g>
</g>
<g>
</g>
<g>
</g>
<g>
</g>
<g>
</g>
<g>
</g>
</svg>
