<?xml version="1.0" encoding="iso-8859-1"?>
<!-- Generator: Adobe Illustrator 18.0.0, SVG Export Plug-In . SVG Version: 6.00 Build 0)  -->
<!DOCTYPE svg PUBLIC "-//W3C//DTD SVG 1.1//EN" "http://www.w3.org/Graphics/SVG/1.1/DTD/svg11.dtd">
<svg version="1.1" id="Capa_1" xmlns="http://www.w3.org/2000/svg" xmlns:xlink="http://www.w3.org/1999/xlink" x="0px" y="0px"
	 viewBox="0 0 52.512 52.512" style="enable-background:new 0 0 52.512 52.512;" xml:space="preserve">
<g>
	
		<rect x="31.343" y="28.31" transform="matrix(0.7071 -0.7071 0.7071 0.7071 -14.0184 33.8434)" style="fill:#D77328;" width="5" height="11.067"/>
	<path style="fill:#F6C346;" d="M49.73,36.295c-3.71-3.71-9.725-3.71-13.435,0s-3.71,9.725,0,13.435c3.71,3.71,9.725,3.71,13.435,0
		C53.44,46.02,53.44,40.005,49.73,36.295z M46.901,46.901c-2.144,2.144-5.634,2.144-7.778,0c-2.144-2.144-2.144-5.634,0-7.778
		s5.634-2.144,7.778,0S49.045,44.757,46.901,46.901z"/>
	
		<rect x="9.763" y="5.763" transform="matrix(0.7071 -0.7071 0.7071 0.7071 -7.565 18.2635)" style="fill:#D77328;" width="17" height="25"/>
	<path style="fill:#F6C346;" d="M35.941,23.92L23.92,35.941c-0.781,0.781-2.047,0.781-2.828,0l0,0c-0.781-0.781-0.781-2.047,0-2.828
		l12.021-12.021c0.781-0.781,2.047-0.781,2.828,0l0,0C36.722,21.873,36.722,23.139,35.941,23.92z"/>
	<path style="fill:#F6C346;" d="M15.435,3.414L3.414,15.435c-0.781,0.781-2.047,0.781-2.828,0l0,0c-0.781-0.781-0.781-2.047,0-2.828
		L12.607,0.586c0.781-0.781,2.047-0.781,2.828,0l0,0C16.216,1.367,16.216,2.633,15.435,3.414z"/>
	<polygon style="fill:#F6C346;" points="14.877,20.744 10.658,19.313 12.089,23.532 11.842,23.863 16.975,28.996 17.773,26.429 
		22.027,25.106 18.39,22.534 18.447,18.08 	"/>
	<polygon style="fill:#F6C346;" points="17.082,11.215 15.652,6.997 19.871,8.427 20.201,8.181 25.335,13.314 22.767,14.112 
		21.445,18.366 18.873,14.729 14.418,14.786 	"/>
	<path style="fill:#D77328;" d="M3.414,9.778c-1.757-1.757-1.757-4.607,0-6.364s4.607-1.757,6.364,0L3.414,9.778z"/>
</g>
<g>
</g>
<g>
</g>
<g>
</g>
<g>
</g>
<g>
</g>
<g>
</g>
<g>
</g>
<g>
</g>
<g>
</g>
<g>
</g>
<g>
</g>
<g>
</g>
<g>
</g>
<g>
</g>
<g>
</g>
</svg>
