<?xml version="1.0" encoding="iso-8859-1"?>
<!-- Generator: Adobe Illustrator 18.0.0, SVG Export Plug-In . SVG Version: 6.00 Build 0)  -->
<!DOCTYPE svg PUBLIC "-//W3C//DTD SVG 1.1//EN" "http://www.w3.org/Graphics/SVG/1.1/DTD/svg11.dtd">
<svg version="1.1" id="Capa_1" xmlns="http://www.w3.org/2000/svg" xmlns:xlink="http://www.w3.org/1999/xlink" x="0px" y="0px"
	 viewBox="0 0 56.875 56.875" style="enable-background:new 0 0 56.875 56.875;" xml:space="preserve">
<g>
	
		<rect x="32.866" y="27.15" transform="matrix(0.7071 -0.7071 0.7071 0.7071 -14.9735 35.5004)" style="fill:#ECF0F1;" width="5" height="17.349"/>
	<path style="fill:#C1C5C6;" d="M31.889,30.582l-1.767,1.767c-0.879,0.879-2.304,0.879-3.183,0l-1.237-1.237l4.95-4.95l1.237,1.237
		C32.768,28.277,32.768,29.702,31.889,30.582z"/>
	<circle style="fill:#F7C0BC;" cx="17.459" cy="17" r="17"/>
	<path style="fill:#E64C3C;" d="M5.438,29.021c2.046,2.046,4.485,3.456,7.073,4.241l21.21-21.21
		c-0.785-2.588-2.195-5.027-4.241-7.073s-4.485-3.456-7.073-4.241l-21.21,21.21C1.982,24.536,3.392,26.975,5.438,29.021z"/>
	<circle style="fill:#F7C0BC;" cx="8.973" cy="22.657" r="3"/>
	<circle style="fill:#F7C0BC;" cx="23.116" cy="8.515" r="3"/>
	<circle style="fill:#F7C0BC;" cx="18.873" cy="18.414" r="3"/>
	<path style="fill:#DF4D60;" d="M53.633,40.657c-3.71-3.71-9.725-3.71-13.435,0s-3.71,9.725,0,13.435c3.71,3.71,9.725,3.71,13.435,0
		C57.344,50.382,57.344,44.367,53.633,40.657z M50.805,51.264c-2.144,2.144-5.634,2.144-7.778,0s-2.144-5.634,0-7.778
		s5.634-2.144,7.778,0S52.949,49.12,50.805,51.264z"/>
</g>
<g>
</g>
<g>
</g>
<g>
</g>
<g>
</g>
<g>
</g>
<g>
</g>
<g>
</g>
<g>
</g>
<g>
</g>
<g>
</g>
<g>
</g>
<g>
</g>
<g>
</g>
<g>
</g>
<g>
</g>
</svg>
