<?xml version="1.0" encoding="iso-8859-1"?>
<!-- Generator: Adobe Illustrator 18.0.0, SVG Export Plug-In . SVG Version: 6.00 Build 0)  -->
<!DOCTYPE svg PUBLIC "-//W3C//DTD SVG 1.1//EN" "http://www.w3.org/Graphics/SVG/1.1/DTD/svg11.dtd">
<svg version="1.1" id="Capa_1" xmlns="http://www.w3.org/2000/svg" xmlns:xlink="http://www.w3.org/1999/xlink" x="0px" y="0px"
	 viewBox="0 0 56.327 56.327" style="enable-background:new 0 0 56.327 56.327;" xml:space="preserve">
<g>
	
		<rect x="11" y="20.256" transform="matrix(0.7071 0.7071 -0.7071 0.7071 22.8379 -0.4815)" style="fill:#F0C419;" width="2" height="14.142"/>
	
		<rect x="26.5" y="5.463" transform="matrix(0.7071 0.7071 -0.7071 0.7071 16.4176 -15.9815)" style="fill:#F0C419;" width="2" height="12.728"/>
	<path style="fill:#00B1E8;" d="M39.385,18.165c-0.487-2.158-1.916-3.937-3.891-4.891c0.917-2.615,0.279-5.48-1.724-7.483
		c-2.002-2.002-4.866-2.64-7.481-1.722c-0.954-1.974-2.733-3.405-4.89-3.892c-2.421-0.546-5,0.19-6.731,1.92
		c-0.574,0.575-1.042,1.235-1.395,1.971C10.658,3.152,7.794,3.79,5.792,5.792c-2.003,2.003-2.641,4.867-1.724,7.481
		c-0.736,0.354-1.396,0.82-1.971,1.395c-1.73,1.73-2.466,4.31-1.919,6.73c0.487,2.158,1.917,3.937,3.891,4.891
		c-0.918,2.615-0.28,5.479,1.722,7.481c2.002,2.003,4.866,2.641,7.483,1.724c0.953,1.975,2.733,3.405,4.891,3.891
		c2.422,0.546,5-0.19,6.73-1.919c0.574-0.575,1.042-1.235,1.395-1.971c2.615,0.916,5.479,0.278,7.481-1.724
		c2.003-2.003,2.641-4.867,1.724-7.481c0.736-0.354,1.397-0.821,1.971-1.396C39.196,23.164,39.931,20.585,39.385,18.165z
		 M33.414,22.829L33.414,22.829c-1.806,0.642-2.661,2.705-1.838,4.437c1.307,2.749-1.561,5.617-4.31,4.31
		c-1.731-0.823-3.794,0.032-4.437,1.838l0,0c-1.02,2.868-5.076,2.868-6.096,0c-0.642-1.806-2.705-2.661-4.437-1.838h0
		c-2.749,1.307-5.617-1.561-4.31-4.31c0.823-1.731-0.031-3.794-1.838-4.437l0,0c-2.868-1.02-2.868-5.076,0-6.096l0,0
		c1.806-0.642,2.661-2.705,1.838-4.437c-1.307-2.749,1.561-5.617,4.31-4.31h0c1.731,0.823,3.794-0.032,4.437-1.838
		c1.02-2.868,5.076-2.868,6.096,0l0,0c0.642,1.806,2.705,2.661,4.437,1.838c2.749-1.307,5.617,1.561,4.31,4.31
		c-0.823,1.731,0.032,3.794,1.838,4.437h0C36.282,17.753,36.282,21.81,33.414,22.829z"/>
	<circle style="fill:#E57E25;" cx="49.327" cy="49.327" r="7"/>
	<path style="fill:#E57E25;" d="M33.771,33.771c-0.49,0.49-1.033,0.895-1.609,1.219l11.009,11.009
		c0.315-0.582,0.715-1.13,1.207-1.622s1.04-0.892,1.622-1.207L34.99,32.162C34.666,32.738,34.26,33.281,33.771,33.771z"/>
	<circle style="fill:#F29C1F;" cx="19.628" cy="19.629" r="7"/>
</g>
<g>
</g>
<g>
</g>
<g>
</g>
<g>
</g>
<g>
</g>
<g>
</g>
<g>
</g>
<g>
</g>
<g>
</g>
<g>
</g>
<g>
</g>
<g>
</g>
<g>
</g>
<g>
</g>
<g>
</g>
</svg>
