<?xml version="1.0" encoding="iso-8859-1"?>
<!-- Generator: Adobe Illustrator 18.0.0, SVG Export Plug-In . SVG Version: 6.00 Build 0)  -->
<!DOCTYPE svg PUBLIC "-//W3C//DTD SVG 1.1//EN" "http://www.w3.org/Graphics/SVG/1.1/DTD/svg11.dtd">
<svg version="1.1" id="Capa_1" xmlns="http://www.w3.org/2000/svg" xmlns:xlink="http://www.w3.org/1999/xlink" x="0px" y="0px"
	 viewBox="0 0 59 59" style="enable-background:new 0 0 59 59;" xml:space="preserve">
<g>
	<path style="fill:#BDC3C7;" d="M18,10h-5c-0.552,0-1-0.448-1-1s0.448-1,1-1h5c0.552,0,1,0.448,1,1S18.552,10,18,10z"/>
	<path style="fill:#BDC3C7;" d="M46,10h-5c-0.552,0-1-0.448-1-1s0.448-1,1-1h5c0.552,0,1,0.448,1,1S46.552,10,46,10z"/>
	<path style="fill:#BDC3C7;" d="M40.47,39H18.53C17.685,39,17,38.315,17,37.47V21.53c0-0.845,0.685-1.53,1.53-1.53h21.94
		c0.845,0,1.53,0.685,1.53,1.53v15.94C42,38.315,41.315,39,40.47,39z"/>
	<rect x="24" y="15" style="fill:#95A5A5;" width="11" height="5"/>
	<path style="fill:#D1D4D1;" d="M38,15H21V3.619C21,2.173,22.173,1,23.619,1h11.761C36.827,1,38,2.173,38,3.619V15z"/>
	<circle style="fill:#FFFFFF;" cx="26" cy="5" r="1"/>
	<circle style="fill:#FFFFFF;" cx="33" cy="5" r="1"/>
	<polygon style="fill:#95A5A5;" points="21,13 18,12 18,6 21,5 	"/>
	<polygon style="fill:#95A5A5;" points="38,13 41,12 41,6 38,5 	"/>
	<path style="fill:#ECF0F1;" d="M4,41h4c0-6.617,2.383-12,9-12v-4C8.178,25,4,32.178,4,41z"/>
	<circle style="fill:#F9EAB0;" cx="24" cy="29" r="4"/>
	<path style="fill:#95A5A5;" d="M39,34h-7c-0.552,0-1-0.448-1-1s0.448-1,1-1h7c0.552,0,1,0.448,1,1S39.552,34,39,34z"/>
	<path style="fill:#ECF0F1;" d="M39,30h-6c-0.552,0-1-0.448-1-1s0.448-1,1-1h6c0.552,0,1,0.448,1,1S39.552,30,39,30z"/>
	<path style="fill:#FFFFFF;" d="M39,26h-6c-0.552,0-1-0.448-1-1s0.448-1,1-1h6c0.552,0,1,0.448,1,1S39.552,26,39,26z"/>
	<path style="fill:#95A5A5;" d="M3.001,51.002c-0.208,0-0.419-0.065-0.599-0.2C0.875,49.657,0,47.906,0,46c0-3.309,2.691-6,6-6
		s6,2.691,6,6c0,1.905-0.875,3.654-2.399,4.8c-0.442,0.331-1.068,0.242-1.4-0.199c-0.332-0.441-0.242-1.068,0.199-1.4
		C9.417,48.437,10,47.27,10,46c0-2.206-1.794-4-4-4s-4,1.794-4,4c0,1.271,0.584,2.438,1.603,3.202c0.442,0.332,0.531,0.958,0.2,1.4
		C3.606,50.864,3.306,51.002,3.001,51.002z"/>
	<path style="fill:#ECF0F1;" d="M55,41h-4c0-6.617-2.383-12-9-12v-4C50.822,25,55,32.178,55,41z"/>
	<path style="fill:#95A5A5;" d="M55.999,51.002c-0.304,0-0.604-0.138-0.801-0.4c-0.332-0.442-0.242-1.068,0.2-1.4
		C56.416,48.438,57,47.271,57,46c0-2.206-1.794-4-4-4s-4,1.794-4,4c0,1.27,0.583,2.437,1.601,3.2c0.441,0.332,0.531,0.959,0.199,1.4
		c-0.333,0.441-0.958,0.53-1.4,0.199C47.875,49.654,47,47.905,47,46c0-3.309,2.691-6,6-6s6,2.691,6,6
		c0,1.906-0.875,3.657-2.402,4.802C56.418,50.937,56.207,51.002,55.999,51.002z"/>
	<path style="fill:#95A5A5;" d="M26,58h-9.147C15.83,58,15,57.17,15,56.147v-1.294C15,53.83,15.83,53,16.853,53H26V58z"/>
	<path style="fill:#95A5A5;" d="M42.147,58H33v-5h9.147C43.17,53,44,53.83,44,54.853v1.294C44,57.17,43.17,58,42.147,58z"/>
	<path style="fill:#95A5A5;" d="M29.5,13c-2.649,0-4.5-1.645-4.5-4c0-0.552,0.448-1,1-1s1,0.448,1,1c0,1.475,1.292,2,2.5,2
		S32,10.475,32,9c0-0.552,0.448-1,1-1s1,0.448,1,1C34,11.355,32.149,13,29.5,13z"/>
	<rect x="16" y="43" style="fill:#95A5A5;" width="6" height="5"/>
	<rect x="37" y="43" style="fill:#95A5A5;" width="6" height="5"/>
	<polygon style="fill:#D1D4D1;" points="37,48 37,43 40,43 40,39 33,39 33,53 40,53 40,48 	"/>
	<polygon style="fill:#D1D4D1;" points="19,39 19,43 22,43 22,48 19,48 19,53 26,53 26,39 	"/>
	<circle style="fill:#ECF0F1;" cx="49" cy="9" r="3"/>
	<circle style="fill:#ECF0F1;" cx="10" cy="9" r="3"/>
</g>
<g>
</g>
<g>
</g>
<g>
</g>
<g>
</g>
<g>
</g>
<g>
</g>
<g>
</g>
<g>
</g>
<g>
</g>
<g>
</g>
<g>
</g>
<g>
</g>
<g>
</g>
<g>
</g>
<g>
</g>
</svg>
