<?xml version="1.0" encoding="iso-8859-1"?>
<!-- Generator: Adobe Illustrator 18.0.0, SVG Export Plug-In . SVG Version: 6.00 Build 0)  -->
<!DOCTYPE svg PUBLIC "-//W3C//DTD SVG 1.1//EN" "http://www.w3.org/Graphics/SVG/1.1/DTD/svg11.dtd">
<svg version="1.1" id="Capa_1" xmlns="http://www.w3.org/2000/svg" xmlns:xlink="http://www.w3.org/1999/xlink" x="0px" y="0px"
	 viewBox="0 0 54.858 54.858" style="enable-background:new 0 0 54.858 54.858;" xml:space="preserve">
<g>
	<path style="fill:#ECF0F1;" d="M51.929,37.787c-3.905-3.905-10.237-3.905-14.142,0c-3.905,3.905-3.905,10.237,0,14.142
		c3.905,3.905,10.237,3.905,14.142,0C55.834,48.024,55.834,41.692,51.929,37.787z M49.101,49.101c-2.339,2.34-6.146,2.34-8.485,0
		c-2.34-2.34-2.34-6.146,0-8.485c2.339-2.34,6.146-2.34,8.485,0C51.44,42.955,51.44,46.761,49.101,49.101z"/>
	<path style="fill:#D1D4D1;" d="M5.106,19.113L5.038,19.18l32.749,32.749c-2.311-2.311-3.243-5.471-2.819-8.476L13.43,21.916
		C10.909,23.333,7.366,21.01,5.106,19.113z"/>
	<path style="fill:#D1D4D1;" d="M21.916,13.43l21.538,21.538c3.005-0.424,6.165,0.508,8.476,2.819L19.18,5.038l-0.067,0.067
		C21.01,7.366,23.333,10.909,21.916,13.43z"/>
	<path style="fill:#ECF0F1;" d="M17.059,2.917c-3.889-3.889-10.253-3.889-14.142,0s-3.889,10.253,0,14.142
		c0,0,7.484,8.132,11.314,4.243c1.956-1.956-1.924-6.271-3.87-8.187c-1.347,0.378-2.848,0.055-3.908-1.005
		c-1.562-1.562-1.562-4.095,0-5.657s4.095-1.562,5.657,0c1.059,1.059,1.382,2.561,1.005,3.908c1.916,1.946,6.232,5.826,8.187,3.87
		C25.191,10.4,17.059,2.917,17.059,2.917z"/>
</g>
<g>
</g>
<g>
</g>
<g>
</g>
<g>
</g>
<g>
</g>
<g>
</g>
<g>
</g>
<g>
</g>
<g>
</g>
<g>
</g>
<g>
</g>
<g>
</g>
<g>
</g>
<g>
</g>
<g>
</g>
</svg>
