<?xml version="1.0" encoding="iso-8859-1"?>
<!-- Generator: Adobe Illustrator 18.0.0, SVG Export Plug-In . SVG Version: 6.00 Build 0)  -->
<!DOCTYPE svg PUBLIC "-//W3C//DTD SVG 1.1//EN" "http://www.w3.org/Graphics/SVG/1.1/DTD/svg11.dtd">
<svg version="1.1" id="Capa_1" xmlns="http://www.w3.org/2000/svg" xmlns:xlink="http://www.w3.org/1999/xlink" x="0px" y="0px"
	 viewBox="0 0 47.159 47.159" style="enable-background:new 0 0 47.159 47.159;" xml:space="preserve">
<g>
	<path style="fill:#ECF0F1;" d="M44.08,30.088c-3.905-3.905-10.237-3.905-14.142,0c-3.905,3.905-3.905,10.237,0,14.142
		c3.905,3.905,10.237,3.905,14.142,0C47.985,40.325,47.985,33.994,44.08,30.088z M41.251,41.402c-2.34,2.34-6.146,2.34-8.485,0
		s-2.34-6.146,0-8.485s6.146-2.34,8.485,0S43.591,39.062,41.251,41.402z"/>
	<path style="fill:#D1D4D1;" d="M5.256,19.414l-0.067,0.067L29.938,44.23c-2.311-2.311-3.243-5.471-2.819-8.476L13.581,22.217
		C11.059,23.634,7.517,21.311,5.256,19.414z"/>
	<path style="fill:#ECF0F1;" d="M17.21,3.218c-3.889-3.889-10.253-3.889-14.142,0s-3.889,10.253,0,14.142
		c0,0,7.484,8.132,11.314,4.243c1.956-1.956-1.924-6.271-3.87-8.187c-1.347,0.378-2.848,0.055-3.908-1.005
		c-1.562-1.562-1.562-4.095,0-5.657s4.095-1.562,5.657,0c1.059,1.059,1.382,2.561,1.005,3.908c1.916,1.946,6.232,5.826,8.187,3.87
		C25.341,10.702,17.21,3.218,17.21,3.218z"/>
	<path style="fill:#D1D4D1;" d="M43.069,29.217L30.773,1.219c-0.431-1.017-1.605-1.491-2.622-1.06l0,0
		c-1.017,0.431-1.491,1.605-1.06,2.622L37.868,27.2C39.716,27.359,41.523,28.035,43.069,29.217z"/>
</g>
<g>
</g>
<g>
</g>
<g>
</g>
<g>
</g>
<g>
</g>
<g>
</g>
<g>
</g>
<g>
</g>
<g>
</g>
<g>
</g>
<g>
</g>
<g>
</g>
<g>
</g>
<g>
</g>
<g>
</g>
</svg>
