<?xml version="1.0" encoding="iso-8859-1"?>
<!-- Generator: Adobe Illustrator 18.0.0, SVG Export Plug-In . SVG Version: 6.00 Build 0)  -->
<!DOCTYPE svg PUBLIC "-//W3C//DTD SVG 1.1//EN" "http://www.w3.org/Graphics/SVG/1.1/DTD/svg11.dtd">
<svg version="1.1" id="Capa_1" xmlns="http://www.w3.org/2000/svg" xmlns:xlink="http://www.w3.org/1999/xlink" x="0px" y="0px"
	 viewBox="0 0 51.808 51.808" style="enable-background:new 0 0 51.808 51.808;" xml:space="preserve">
<g>
	<path style="fill:#D1D4D1;" d="M47.581,36c-0.345,0-0.68-0.178-0.865-0.497L29.038,5.098c-0.278-0.478-0.116-1.09,0.361-1.367
		c0.477-0.278,1.089-0.116,1.367,0.361l17.678,30.405c0.278,0.478,0.116,1.09-0.361,1.367C47.924,35.956,47.752,36,47.581,36z"/>
	
		<rect x="1.868" y="33.212" transform="matrix(0.7071 0.7071 -0.7071 0.7071 30.4498 -5.0894)" style="fill:#D1D4D1;" width="39" height="2"/>
	<path style="fill:#F7C0BC;" d="M7.159,21.302c0,0,5.819-0.388,7.028-6.825c0.027-0.142,0.136-0.252,0.278-0.272
		c1.085-0.152,5.6-1.109,6.746-6.563c0.062-0.297-0.038-0.61-0.253-0.824l-3.9-3.9c-3.889-3.889-10.253-3.889-14.142,0l0,0
		c-3.889,3.889-3.889,10.253,0,14.142L7.159,21.302z"/>
	<path style="fill:#F7C0BC;" d="M48.879,34.737c-3.905-3.905-10.237-3.905-14.142,0c-3.905,3.905-3.905,10.237,0,14.142
		c3.905,3.905,10.237,3.905,14.142,0C52.784,44.974,52.784,38.642,48.879,34.737z M46.05,46.05c-2.339,2.34-6.146,2.34-8.485,0
		c-2.34-2.339-2.34-6.146,0-8.485c2.339-2.34,6.146-2.34,8.485,0C48.39,39.905,48.39,43.711,46.05,46.05z"/>
	<circle style="fill:#DF4D60;" cx="8.574" cy="8.574" r="4"/>
</g>
<g>
</g>
<g>
</g>
<g>
</g>
<g>
</g>
<g>
</g>
<g>
</g>
<g>
</g>
<g>
</g>
<g>
</g>
<g>
</g>
<g>
</g>
<g>
</g>
<g>
</g>
<g>
</g>
<g>
</g>
</svg>
