<?xml version="1.0" encoding="iso-8859-1"?>
<!-- Generator: Adobe Illustrator 18.0.0, SVG Export Plug-In . SVG Version: 6.00 Build 0)  -->
<!DOCTYPE svg PUBLIC "-//W3C//DTD SVG 1.1//EN" "http://www.w3.org/Graphics/SVG/1.1/DTD/svg11.dtd">
<svg version="1.1" id="Capa_1" xmlns="http://www.w3.org/2000/svg" xmlns:xlink="http://www.w3.org/1999/xlink" x="0px" y="0px"
	 viewBox="0 0 51.808 51.808" style="enable-background:new 0 0 51.808 51.808;" xml:space="preserve">
<g>
	
		<rect x="1.666" y="32.858" transform="matrix(0.7071 0.7071 -0.7071 0.7071 30.2869 -5.4031)" style="fill:#D1D4D1;" width="40" height="2"/>
	
		<rect x="13.666" y="20.142" transform="matrix(0.7071 0.7071 -0.7071 0.7071 24.8101 -17.6128)" style="fill:#D1D4D1;" width="40" height="2"/>
	<path style="fill:#B0D3F0;" d="M21.302,7.159c-0.973,5.874-5.712,6.886-6.833,7.044c-0.144,0.02-0.255,0.132-0.282,0.276
		c-1.21,6.435-7.027,6.823-7.027,6.823l-4.243-4.243c-3.889-3.889-3.889-10.253,0-14.142l0,0c3.889-3.889,10.253-3.889,14.142,0
		L21.302,7.159z"/>
	<path style="fill:#B0D3F0;" d="M48.879,34.737c-3.905-3.905-10.237-3.905-14.142,0c-3.905,3.905-3.905,10.237,0,14.142
		c3.905,3.905,10.237,3.905,14.142,0C52.784,44.974,52.784,38.642,48.879,34.737z M46.05,46.05c-2.34,2.34-6.146,2.34-8.485,0
		c-2.339-2.339-2.339-6.146,0-8.485c2.34-2.34,6.146-2.34,8.485,0C48.39,39.905,48.39,43.711,46.05,46.05z"/>
	<circle style="fill:#0096E6;" cx="8.574" cy="8.574" r="4"/>
</g>
<g>
</g>
<g>
</g>
<g>
</g>
<g>
</g>
<g>
</g>
<g>
</g>
<g>
</g>
<g>
</g>
<g>
</g>
<g>
</g>
<g>
</g>
<g>
</g>
<g>
</g>
<g>
</g>
<g>
</g>
</svg>
