<?xml version="1.0" encoding="iso-8859-1"?>
<!-- Generator: Adobe Illustrator 18.0.0, SVG Export Plug-In . SVG Version: 6.00 Build 0)  -->
<!DOCTYPE svg PUBLIC "-//W3C//DTD SVG 1.1//EN" "http://www.w3.org/Graphics/SVG/1.1/DTD/svg11.dtd">
<svg version="1.1" id="Capa_1" xmlns="http://www.w3.org/2000/svg" xmlns:xlink="http://www.w3.org/1999/xlink" x="0px" y="0px"
	 viewBox="0 0 58.143 58.143" style="enable-background:new 0 0 58.143 58.143;" xml:space="preserve">
<g>
	
		<rect x="19.571" y="36.45" transform="matrix(0.7071 0.7071 -0.7071 0.7071 38.2994 -1.1777)" style="fill:#8697CB;" width="2" height="18.385"/>
	
		<rect x="31.94" y="42.289" transform="matrix(0.7071 0.7071 -0.7071 0.7071 42.3896 -15.7592)" style="fill:#8697CB;" width="16.556" height="2"/>
	<path style="fill:#556080;" d="M32.071,32.143h-14c-1.875,0-3.667-0.45-5.32-1.239c-0.781-0.372-1.68,0.203-1.68,1.068v6.053
		c0,2.274,1.843,4.118,4.118,4.118h22.699c0.654,0,1.183-0.53,1.183-1.183v-8.987c0-0.865-0.899-1.44-1.68-1.068
		C35.738,31.692,33.946,32.143,32.071,32.143z"/>
	<g>
		<circle style="fill:#8697CB;" cx="14.071" cy="52.143" r="5"/>
		<path style="fill:#556080;" d="M14.071,58.143c-3.309,0-6-2.691-6-6s2.691-6,6-6s6,2.691,6,6S17.38,58.143,14.071,58.143z
			 M14.071,48.143c-2.206,0-4,1.794-4,4s1.794,4,4,4s4-1.794,4-4S16.277,48.143,14.071,48.143z"/>
	</g>
	<g>
		<circle style="fill:#8697CB;" cx="46.071" cy="49.143" r="8"/>
		<path style="fill:#556080;" d="M46.071,58.143c-4.962,0-9-4.037-9-9s4.038-9,9-9c4.963,0,9,4.037,9,9S51.034,58.143,46.071,58.143
			z M46.071,42.143c-3.86,0-7,3.141-7,7s3.14,7,7,7c3.859,0,7-3.141,7-7S49.931,42.143,46.071,42.143z"/>
	</g>
	<path style="fill:#8697CB;" d="M37.071,21.143v-2c6.617,0,12-5.383,12-12h2C51.071,14.862,44.791,21.143,37.071,21.143z"/>
	<circle style="fill:#D36789;" cx="21.071" cy="18.143" r="3"/>
	<path style="fill:#F7C0BC;" d="M21.071,15.143V4.695c0-3.298-3.308-5.552-6.392-4.381C7.928,2.879,3.071,9.377,3.071,16.988v1.155
		h15C18.071,16.486,19.414,15.143,21.071,15.143z"/>
	<path style="fill:#9B4058;" d="M24.071,18.143c0,1.657-1.343,3-3,3s-3-1.343-3-3h-15c0,8.284,6.716,17,15,17h14
		c8.284,0,15-8.716,15-17H24.071z"/>
	<circle style="fill:#D36789;" cx="52.071" cy="7.143" r="3"/>
</g>
<g>
</g>
<g>
</g>
<g>
</g>
<g>
</g>
<g>
</g>
<g>
</g>
<g>
</g>
<g>
</g>
<g>
</g>
<g>
</g>
<g>
</g>
<g>
</g>
<g>
</g>
<g>
</g>
<g>
</g>
</svg>
