<?xml version="1.0" encoding="iso-8859-1"?>
<!-- Generator: Adobe Illustrator 18.0.0, SVG Export Plug-In . SVG Version: 6.00 Build 0)  -->
<!DOCTYPE svg PUBLIC "-//W3C//DTD SVG 1.1//EN" "http://www.w3.org/Graphics/SVG/1.1/DTD/svg11.dtd">
<svg version="1.1" id="Capa_1" xmlns="http://www.w3.org/2000/svg" xmlns:xlink="http://www.w3.org/1999/xlink" x="0px" y="0px"
	 viewBox="0 0 60 60" style="enable-background:new 0 0 60 60;" xml:space="preserve">
<g>
	<path style="fill:#556080;" d="M5.414,47H2v-2h2.586l3.574-3.574c0.626-0.626,1.641-0.626,2.267,0l0.281,0.281L5.414,47z"/>
	<path style="fill:#556080;" d="M27,30c-0.256,0-0.512-0.098-0.707-0.293l-4-4c-0.391-0.391-0.391-1.023,0-1.414
		s1.023-0.391,1.414,0l4,4c0.391,0.391,0.391,1.023,0,1.414C27.512,29.902,27.256,30,27,30z"/>
	<polygon style="fill:#8697CB;" points="24,44 23.444,44 23,44 23,48 39,48 39,36.2 	"/>
	<path style="fill:#31BCEB;" d="M35,4v17L18.556,38L10,41v3h13.444H24l16.691-8.679C45.796,32.666,49,27.389,49,21.634v0
		c0-2.789-0.756-5.526-2.188-7.92L35,4z"/>
	<rect y="54" style="fill:#2C2F38;" width="59" height="2"/>
	<path style="fill:#556080;" d="M56,6c-0.277,0-0.527,0.113-0.708,0.294L13.293,48.293l1.414,1.414L33,31.414l16.293,16.293
		l1.414-1.414L34.414,30L56.376,8.038C57.299,8.215,58,9.026,58,10c0,0.553,0.447,1,1,1s1-0.447,1-1C60,7.794,58.206,6,56,6z"/>
	<g>
		<circle style="fill:#8697CB;" cx="50" cy="47" r="8"/>
		<path style="fill:#556080;" d="M50,56c-4.963,0-9-4.037-9-9s4.037-9,9-9s9,4.037,9,9S54.963,56,50,56z M50,40
			c-3.859,0-7,3.141-7,7s3.141,7,7,7s7-3.141,7-7S53.859,40,50,40z"/>
	</g>
	<g>
		<circle style="fill:#8697CB;" cx="14" cy="49" r="6"/>
		<path style="fill:#556080;" d="M14,56c-3.859,0-7-3.141-7-7s3.141-7,7-7s7,3.141,7,7S17.859,56,14,56z M14,44
			c-2.757,0-5,2.243-5,5s2.243,5,5,5s5-2.243,5-5S16.757,44,14,44z"/>
	</g>
</g>
<g>
</g>
<g>
</g>
<g>
</g>
<g>
</g>
<g>
</g>
<g>
</g>
<g>
</g>
<g>
</g>
<g>
</g>
<g>
</g>
<g>
</g>
<g>
</g>
<g>
</g>
<g>
</g>
<g>
</g>
</svg>
