<?xml version="1.0" encoding="iso-8859-1"?>
<!-- Generator: Adobe Illustrator 18.0.0, SVG Export Plug-In . SVG Version: 6.00 Build 0)  -->
<!DOCTYPE svg PUBLIC "-//W3C//DTD SVG 1.1//EN" "http://www.w3.org/Graphics/SVG/1.1/DTD/svg11.dtd">
<svg version="1.1" id="Capa_1" xmlns="http://www.w3.org/2000/svg" xmlns:xlink="http://www.w3.org/1999/xlink" x="0px" y="0px"
	 viewBox="0 0 60 60" style="enable-background:new 0 0 60 60;" xml:space="preserve">
<g>
	<path style="fill:#556080;" d="M52.136,26.045c-0.552,0-1-0.448-1-1c0-5.654,3.455-10.083,7.864-10.083c0.552,0,1,0.448,1,1
		s-0.448,1-1,1c-3.289,0-5.864,3.551-5.864,8.083C53.136,25.598,52.688,26.045,52.136,26.045z"/>
	<g>
		<path style="fill:#FB7B76;" d="M13.501,31.538c4.517,0,8.423,2.625,10.303,6.424h13.393c1.88-3.799,5.786-6.424,10.304-6.424
			c2.43,0,4.683,0.763,6.543,2.055c1.247-3.742,1.324-6.477,1.324-8.131c0-0.252-0.005-0.5-0.018-0.5H33c0,1.694-2.306,3-4,3
			c-1.694,0-4.031-2.313-4.031-8.188L25,19.962V5.827c-17.313,0-20.5,9.532-20.5,18.884c0,1.8,0.154,4.953,1.736,9.421
			C8.218,32.513,10.747,31.538,13.501,31.538z"/>
	</g>
	<g>
		<path style="fill:#556080;" d="M13.501,31.538C7.159,31.538,2,36.697,2,43.038s5.159,11.5,11.501,11.5
			c6.341,0,11.499-5.159,11.499-11.5S19.842,31.538,13.501,31.538z M20.867,49.026c-0.026-0.034-0.039-0.074-0.07-0.105
			l-2.856-2.856c-0.391-0.391-1.023-0.391-1.414,0s-0.391,1.023,0,1.414l2.856,2.856c0.031,0.031,0.071,0.044,0.105,0.07
			c-1.411,1.149-3.156,1.902-5.066,2.087v-3.53c0-0.552-0.448-1-1-1s-1,0.448-1,1v3.51c-1.88-0.214-3.596-0.974-4.981-2.124
			c0.006-0.005,0.013-0.007,0.019-0.013l2.859-2.856c0.391-0.39,0.391-1.023,0.001-1.414c-0.391-0.391-1.024-0.391-1.414-0.001
			l-2.855,2.852c-1.101-1.392-1.824-3.093-2.005-4.954h3.375c0.552,0,1-0.448,1-1s-0.448-1-1-1H4.066
			c0.209-1.84,0.944-3.522,2.053-4.891l2.788,2.788c0.195,0.195,0.451,0.293,0.707,0.293s0.512-0.098,0.707-0.293
			c0.391-0.391,0.391-1.023,0-1.414l-2.788-2.788c1.369-1.109,3.05-1.844,4.889-2.053v4.358c0,0.552,0.448,1,1,1s1-0.448,1-1v-4.377
			c1.862,0.18,3.564,0.904,4.956,2.005l-2.855,2.855c-0.391,0.391-0.391,1.023,0,1.414c0.195,0.195,0.451,0.293,0.707,0.293
			s0.512-0.098,0.707-0.293l2.857-2.857c0.007-0.007,0.008-0.016,0.015-0.022c1.15,1.385,1.911,3.102,2.125,4.983h-3.513
			c-0.552,0-1,0.448-1,1s0.448,1,1,1h3.531C22.768,45.871,22.016,47.615,20.867,49.026z"/>
		<circle style="fill:#556080;" cx="13.438" cy="43.1" r="1.438"/>
	</g>
	<g>
		<path style="fill:#556080;" d="M47.501,31.538c-6.342,0-11.501,5.159-11.501,11.5s5.159,11.5,11.501,11.5
			c6.341,0,11.499-5.159,11.499-11.5S53.842,31.538,47.501,31.538z M54.867,49.026c-0.026-0.034-0.039-0.074-0.07-0.105
			l-2.856-2.856c-0.391-0.391-1.023-0.391-1.414,0s-0.391,1.023,0,1.414l2.856,2.856c0.031,0.031,0.071,0.044,0.105,0.07
			c-1.411,1.149-3.156,1.902-5.066,2.087v-3.53c0-0.552-0.448-1-1-1s-1,0.448-1,1v3.51c-1.88-0.214-3.596-0.974-4.981-2.124
			c0.006-0.005,0.013-0.007,0.019-0.013l2.859-2.856c0.391-0.39,0.391-1.023,0.001-1.414c-0.391-0.391-1.024-0.391-1.414-0.001
			l-2.855,2.852c-1.101-1.392-1.824-3.093-2.005-4.954h3.375c0.552,0,1-0.448,1-1s-0.448-1-1-1h-3.357
			c0.209-1.84,0.944-3.522,2.053-4.891l2.788,2.788c0.195,0.195,0.451,0.293,0.707,0.293s0.512-0.098,0.707-0.293
			c0.391-0.391,0.391-1.023,0-1.414l-2.788-2.788c1.369-1.109,3.05-1.844,4.889-2.053v4.358c0,0.552,0.448,1,1,1s1-0.448,1-1v-4.377
			c1.862,0.18,3.564,0.904,4.956,2.005l-2.855,2.855c-0.391,0.391-0.391,1.023,0,1.414c0.195,0.195,0.451,0.293,0.707,0.293
			s0.512-0.098,0.707-0.293l2.857-2.857c0.007-0.007,0.008-0.016,0.015-0.022c1.15,1.385,1.911,3.102,2.125,4.983h-3.513
			c-0.552,0-1,0.448-1,1s0.448,1,1,1h3.531C56.768,45.871,56.016,47.615,54.867,49.026z"/>
		<circle style="fill:#556080;" cx="47.438" cy="43.1" r="1.438"/>
	</g>
	<path style="fill:#F7C4B6;" d="M24.433,22.774c-0.242,0-0.484-0.087-0.676-0.264L7.087,7.198C6.68,6.825,6.653,6.192,7.027,5.786
		c0.374-0.406,1.006-0.434,1.413-0.06l16.67,15.313c0.407,0.374,0.434,1.006,0.06,1.413C24.972,22.665,24.703,22.774,24.433,22.774z
		"/>
	<path style="fill:#F7C4B6;" d="M24.433,22.775c-0.127,0-0.257-0.025-0.383-0.077L2.617,13.803c-0.51-0.212-0.752-0.797-0.541-1.307
		c0.211-0.509,0.797-0.751,1.307-0.541l21.433,8.896c0.51,0.212,0.752,0.797,0.541,1.307C25.197,22.542,24.825,22.775,24.433,22.775
		z"/>
	<path style="fill:#F7C4B6;" d="M24.001,22.962c-0.012,0-0.024,0-0.036,0l-23-0.906c-0.552-0.02-0.984-0.53-0.964-1.082
		c0.02-0.551,0.498-0.993,1.035-0.988l23,0.801c0.552,0.02,0.984,0.571,0.964,1.123C24.981,22.449,24.537,22.962,24.001,22.962z"/>
	<path style="fill:#F7C4B6;" d="M1.434,30.329c-0.418,0-0.808-0.265-0.948-0.683c-0.175-0.523,0.107-1.09,0.631-1.266l22.566-7.555
		c0.521-0.175,1.09,0.107,1.266,0.631s-0.107,1.09-0.631,1.266L1.751,30.277C1.646,30.312,1.539,30.329,1.434,30.329z"/>
	<path style="fill:#F7C4B6;" d="M37.068,29.29c-2.243,0-4.067-1.825-4.067-4.067c0-0.552,0.448-1,1-1s1,0.448,1,1
		c0,1.14,0.927,2.067,2.067,2.067c1.141,0,2.068-0.927,2.068-2.067c0-0.552,0.448-1,1-1s1,0.448,1,1
		C41.136,27.465,39.311,29.29,37.068,29.29z"/>
	<path style="fill:#F7C4B6;" d="M44.068,29.29c-2.243,0-4.067-1.825-4.067-4.067c0-0.552,0.448-1,1-1s1,0.448,1,1
		c0,1.14,0.927,2.067,2.067,2.067c1.141,0,2.068-0.927,2.068-2.067c0-0.552,0.448-1,1-1s1,0.448,1,1
		C48.136,27.465,46.311,29.29,44.068,29.29z"/>
	<path style="fill:#F7C4B6;" d="M51.068,29.29c-2.243,0-4.067-1.825-4.067-4.067c0-0.552,0.448-1,1-1s1,0.448,1,1
		c0,1.14,0.927,2.067,2.067,2.067c1.141,0,2.068-0.927,2.068-2.067c0-0.552,0.448-1,1-1s1,0.448,1,1
		C55.136,27.465,53.311,29.29,51.068,29.29z"/>
	<circle style="fill:#F3D55B;" cx="28.5" cy="25.462" r="4.5"/>
	<g>
		<path style="fill:#8697CB;" d="M37.197,37.962H23.804c0.748,1.512,1.181,3.205,1.193,5h11.008
			C36.016,41.167,36.449,39.474,37.197,37.962z"/>
	</g>
</g>
<g>
</g>
<g>
</g>
<g>
</g>
<g>
</g>
<g>
</g>
<g>
</g>
<g>
</g>
<g>
</g>
<g>
</g>
<g>
</g>
<g>
</g>
<g>
</g>
<g>
</g>
<g>
</g>
<g>
</g>
</svg>
