<?xml version="1.0" encoding="iso-8859-1"?>
<!-- Generator: Adobe Illustrator 18.0.0, SVG Export Plug-In . SVG Version: 6.00 Build 0)  -->
<!DOCTYPE svg PUBLIC "-//W3C//DTD SVG 1.1//EN" "http://www.w3.org/Graphics/SVG/1.1/DTD/svg11.dtd">
<svg version="1.1" id="Capa_1" xmlns="http://www.w3.org/2000/svg" xmlns:xlink="http://www.w3.org/1999/xlink" x="0px" y="0px"
	 viewBox="0 0 54 54" style="enable-background:new 0 0 54 54;" xml:space="preserve">
<g>
	<path style="fill:#805333;" d="M26.811,0c-7.18,0-13,5.82-13,13c0,3.763,1.444,7.627,4,10h0.005c0.497,0,2.678,0,2.678,0h12.634
		l1.419-0.872c0.609-0.203,1.234,0.238,1.259,0.872h0.005c2.556-2.373,4-6.237,4-10C39.811,5.82,33.99,0,26.811,0z"/>
	<path style="fill:#805333;" d="M18,23H8c-2.2,0-4,1.8-4,4s1.8,4,4,4h7v2.5V47v1.5c0,3.025,1.975,5.5,5,5.5s5-2.475,5-5.5V43h4v5.5
		c0,3.025,1.975,5.5,5,5.5s5-2.475,5-5.5V47V33.5V31h7c2.2,0,4-1.8,4-4s-1.8-4-4-4H36"/>
	<path style="fill:#A06E4D;" d="M33.811,15c0,3.314-3.134,8-7,8s-7-4.686-7-8s3.134-6,7-6S33.811,11.686,33.811,15z"/>
	<circle style="fill:#2C2F38;" cx="21.811" cy="6" r="1"/>
	<circle style="fill:#2C2F38;" cx="31.811" cy="6" r="1"/>
	<path style="fill:none;stroke:#0096E6;stroke-width:2;stroke-miterlimit:10;" d="M24,25.039"/>
	<path style="fill:#805333;" d="M29.811,15c0-1.105-1.343-2-3-2s-3,0.895-3,2c0,0.875,0.849,1.611,2.024,1.882
		c-0.005,0.04-0.024,0.076-0.024,0.118v3c0,0.552,0.448,1,1,1s1-0.448,1-1v-3c0-0.042-0.019-0.077-0.024-0.118
		C28.962,16.611,29.811,15.875,29.811,15z"/>
	<path style="fill:#A06E4D;" d="M19.324,2.384l-1.294-0.976c-1.764-1.33-4.272-0.978-5.602,0.786v0
		c-1.33,1.764-0.978,4.272,0.786,5.602l1.31,0.987C15.419,6.176,17.114,3.945,19.324,2.384z"/>
	<path style="fill:#A06E4D;" d="M41.194,2.194L41.194,2.194c-1.33-1.764-3.838-2.116-5.602-0.786l-1.294,0.976
		c2.21,1.561,3.905,3.792,4.8,6.4l1.31-0.987C42.172,6.466,42.524,3.958,41.194,2.194z"/>
	<path style="fill:#A06E4D;" d="M27,32.162c-1.369,0-2.737-0.485-3.707-1.455c-0.391-0.391-0.391-1.023,0-1.414s1.023-0.391,1.414,0
		c1.179,1.179,3.407,1.179,4.586,0c0.391-0.391,1.023-0.391,1.414,0s0.391,1.023,0,1.414C29.737,31.677,28.369,32.162,27,32.162z"/>
	<path style="fill:#A06E4D;" d="M27,36.162c-1.369,0-2.737-0.485-3.707-1.455c-0.391-0.391-0.391-1.023,0-1.414s1.023-0.391,1.414,0
		c1.179,1.179,3.407,1.179,4.586,0c0.391-0.391,1.023-0.391,1.414,0s0.391,1.023,0,1.414C29.737,35.677,28.369,36.162,27,36.162z"/>
	<path style="fill:#A06E4D;" d="M27,40.162c-1.369,0-2.737-0.485-3.707-1.455c-0.391-0.391-0.391-1.023,0-1.414s1.023-0.391,1.414,0
		c1.179,1.179,3.407,1.179,4.586,0c0.391-0.391,1.023-0.391,1.414,0s0.391,1.023,0,1.414C29.737,39.677,28.369,40.162,27,40.162z"/>
	<path style="fill:#A06E4D;" d="M33.5,47c-1.742,0-3.32,0.689-4.488,1.805C29.141,51.689,31.078,54,34,54
		c2.567,0,4.372-1.784,4.862-4.172C37.69,48.121,35.727,47,33.5,47z"/>
	<path style="fill:#A06E4D;" d="M46,23h-1.971C43.38,24.011,43,25.21,43,26.5c0,1.748,0.694,3.332,1.816,4.5H46c2.2,0,4-1.8,4-4
		S48.2,23,46,23z"/>
	<path style="fill:#A06E4D;" d="M24.988,48.805C23.82,47.689,22.242,47,20.5,47c-2.227,0-4.19,1.121-5.362,2.828
		C15.628,52.216,17.433,54,20,54C22.922,54,24.859,51.689,24.988,48.805z"/>
	<path style="fill:#A06E4D;" d="M4,27c0,2.2,1.8,4,4,4h1.184C10.306,29.832,11,28.248,11,26.5c0-1.29-0.38-2.489-1.029-3.5H8
		C5.8,23,4,24.8,4,27z"/>
	<path style="fill:#E64C3C;" d="M26,25.039l-6.736,2.911C18.642,28.157,18,27.694,18,27.039v-6c0-0.655,0.642-1.118,1.264-0.911
		L26,23.039V25.039z"/>
	<path style="fill:#E64C3C;" d="M29,25.039l5.736,2.911C35.358,28.157,36,27.694,36,27.039v-6c0-0.655-0.642-1.118-1.264-0.911
		L29,23.039V25.039z"/>
	<path style="fill:#A06E4D;" d="M27,26c-0.552,0-1,0.448-1,1v16h2V27C28,26.448,27.552,26,27,26z"/>
	<circle style="fill:#C03A2B;" cx="27" cy="24.039" r="3"/>
</g>
<g>
</g>
<g>
</g>
<g>
</g>
<g>
</g>
<g>
</g>
<g>
</g>
<g>
</g>
<g>
</g>
<g>
</g>
<g>
</g>
<g>
</g>
<g>
</g>
<g>
</g>
<g>
</g>
<g>
</g>
</svg>
