<?xml version="1.0" encoding="iso-8859-1"?>
<!-- Generator: Adobe Illustrator 18.0.0, SVG Export Plug-In . SVG Version: 6.00 Build 0)  -->
<!DOCTYPE svg PUBLIC "-//W3C//DTD SVG 1.1//EN" "http://www.w3.org/Graphics/SVG/1.1/DTD/svg11.dtd">
<svg version="1.1" id="Capa_1" xmlns="http://www.w3.org/2000/svg" xmlns:xlink="http://www.w3.org/1999/xlink" x="0px" y="0px"
	 viewBox="0 0 56 56" style="enable-background:new 0 0 56 56;" xml:space="preserve">
<g>
	<circle style="fill:#0096E6;" cx="10.5" cy="20.5" r="8.5"/>
	<circle style="fill:#0096E6;" cx="11.5" cy="39.5" r="7.5"/>
	<circle style="fill:#0096E6;" cx="24.5" cy="7.5" r="7.5"/>
	<circle style="fill:#0096E6;" cx="23.5" cy="50.5" r="5.5"/>
	<circle style="fill:#F18D46;" cx="48.5" cy="37.5" r="5.5"/>
	<g>
		<path style="fill:#F6D100;" d="M18.299,42.65c0.016-0.034,0.027-0.07,0.042-0.104c-0.573,1.285-1.486,2.385-2.639,3.166
			c0.928,0.794,1.925,1.509,2.976,2.142c0.736-1.339,2.017-2.329,3.542-2.694c-0.027,0.006-0.055,0.009-0.082,0.016
			C20.75,44.497,19.461,43.647,18.299,42.65z"/>
		<path style="fill:#F6D100;" d="M43.863,40.449C40.559,44.443,35.576,47,30,47c-0.824,0-1.629-0.074-2.423-0.182
			C28.459,47.793,29,49.082,29,50.5c0,0.153-0.011,0.304-0.023,0.453C29.318,50.969,29.655,51,30,51
			c6.916,0,13.086-3.192,17.119-8.182C45.756,42.465,44.6,41.606,43.863,40.449z"/>
		<path style="fill:#F6D100;" d="M12.005,28.859C11.515,28.947,11.014,29,10.5,29c-0.866,0-1.701-0.131-2.488-0.372
			C8.01,28.752,8,28.875,8,29c0,1.267,0.113,2.507,0.319,3.716C9.286,32.261,10.361,32,11.5,32c0.263,0,0.522,0.014,0.777,0.04
			C12.108,31.05,12,30.038,12,29C12,28.953,12.004,28.906,12.005,28.859z"/>
		<path style="fill:#F6D100;" d="M17.714,16.03c-0.019-0.031-0.033-0.066-0.053-0.097c0.848-0.799,1.77-1.52,2.759-2.146
			c0.003,0.002,0.007,0.003,0.01,0.005c-1.154-0.751-2.091-1.81-2.69-3.062c-1.067,0.717-2.065,1.528-2.988,2.416
			C15.962,13.849,16.976,14.845,17.714,16.03z"/>
		<path style="fill:#F6D100;" d="M49.044,18.004c-3.493-6.033-9.76-10.259-17.064-10.911C31.987,7.229,32,7.363,32,7.5
			c0,1.287-0.325,2.498-0.896,3.556l0,0c6.174,0.377,11.509,3.878,14.456,8.935C45.213,20.583,45,21.264,45,22c0,2.209,1.791,4,4,4
			s4-1.791,4-4C53,19.806,51.232,18.028,49.044,18.004z"/>
	</g>
	<circle style="fill:#F18D46;" cx="49" cy="22" r="4"/>
</g>
<g>
</g>
<g>
</g>
<g>
</g>
<g>
</g>
<g>
</g>
<g>
</g>
<g>
</g>
<g>
</g>
<g>
</g>
<g>
</g>
<g>
</g>
<g>
</g>
<g>
</g>
<g>
</g>
<g>
</g>
</svg>
