<?xml version="1.0" encoding="iso-8859-1"?>
<!-- Generator: Adobe Illustrator 18.0.0, SVG Export Plug-In . SVG Version: 6.00 Build 0)  -->
<!DOCTYPE svg PUBLIC "-//W3C//DTD SVG 1.1//EN" "http://www.w3.org/Graphics/SVG/1.1/DTD/svg11.dtd">
<svg version="1.1" id="Capa_1" xmlns="http://www.w3.org/2000/svg" xmlns:xlink="http://www.w3.org/1999/xlink" x="0px" y="0px"
	 viewBox="0 0 54 54" style="enable-background:new 0 0 54 54;" xml:space="preserve">
<g>
	<rect x="2" y="22" style="fill:#C03A2B;" width="39" height="14"/>
	<circle style="fill:#C03A2B;" cx="6.088" cy="43" r="4"/>
	<circle style="fill:#C03A2B;" cx="17.088" cy="43" r="4"/>
	<circle style="fill:#C03A2B;" cx="28.088" cy="43" r="4"/>
	<circle style="fill:#C03A2B;" cx="39.088" cy="43" r="4"/>
	<path style="fill:#F3D55B;" d="M53.912,42h-8.737c-0.048,0-0.088-0.039-0.088-0.088V36v-5.737c0-0.084,0.107-0.12,0.158-0.053
		l8.737,11.649C54.026,41.917,53.984,42,53.912,42z"/>
	<rect x="29" y="15" style="fill:#F0C419;" width="9" height="7"/>
	<path style="fill:#BF9A22;" d="M38,15h-9l-1.977-3.442C26.611,10.873,27.105,10,27.905,10H39.27c0.8,0,1.294,0.873,0.882,1.558
		L38,15z"/>
	<path style="fill:#E04B3F;" d="M0,36v6h2.229c0.446-1.722,1.997-3,3.859-3s3.413,1.278,3.859,3h3.283c0.446-1.722,1.997-3,3.859-3
		s3.413,1.278,3.859,3h3.283c0.446-1.722,1.997-3,3.859-3s3.413,1.278,3.859,3h3.283c0.446-1.722,1.997-3,3.859-3
		s3.413,1.278,3.859,3h2.141v-6H0z"/>
	<rect x="4" y="8" style="fill:#E04B3F;" width="16" height="14"/>
	<path style="fill:#C03A2B;" d="M22.088,9h-20c-0.553,0-1-0.448-1-1s0.447-1,1-1h20c0.553,0,1,0.448,1,1S22.641,9,22.088,9z"/>
	<rect x="8" y="12" style="fill:#F3D55B;" width="8" height="10"/>
	<circle style="fill:#F3D55B;" cx="12" cy="29" r="4"/>
	<path style="fill:#F9EAB0;" d="M24,33c-0.256,0-0.512-0.098-0.707-0.293c-0.391-0.391-0.391-1.023,0-1.414l6-6
		c0.391-0.391,1.023-0.391,1.414,0s0.391,1.023,0,1.414l-6,6C24.512,32.902,24.256,33,24,33z"/>
	<path style="fill:#F9EAB0;" d="M30,33c-0.256,0-0.512-0.098-0.707-0.293c-0.391-0.391-0.391-1.023,0-1.414l6-6
		c0.391-0.391,1.023-0.391,1.414,0s0.391,1.023,0,1.414l-6,6C30.512,32.902,30.256,33,30,33z"/>
</g>
<g>
</g>
<g>
</g>
<g>
</g>
<g>
</g>
<g>
</g>
<g>
</g>
<g>
</g>
<g>
</g>
<g>
</g>
<g>
</g>
<g>
</g>
<g>
</g>
<g>
</g>
<g>
</g>
<g>
</g>
</svg>
