<?xml version="1.0" encoding="iso-8859-1"?>
<!-- Generator: Adobe Illustrator 18.0.0, SVG Export Plug-In . SVG Version: 6.00 Build 0)  -->
<!DOCTYPE svg PUBLIC "-//W3C//DTD SVG 1.1//EN" "http://www.w3.org/Graphics/SVG/1.1/DTD/svg11.dtd">
<svg version="1.1" id="Capa_1" xmlns="http://www.w3.org/2000/svg" xmlns:xlink="http://www.w3.org/1999/xlink" x="0px" y="0px"
	 viewBox="0 0 56 56" style="enable-background:new 0 0 56 56;" xml:space="preserve">
<g>
	<path style="fill:#F0C419;" d="M45.304,9.674l-2.715,21.832c0.819-0.119,1.665-0.143,2.524-0.036
		c0.859,0.107,1.673,0.336,2.438,0.653l2.715-21.832L45.304,9.674z"/>
	<path style="fill:#FFB905;" d="M54.37,3.952c1.236,0.154,1.979,1.464,1.465,2.598c-1.367,3.02-4.499,5.207-7.821,4.794
		c-3.322-0.413-5.823-3.3-6.409-6.563c-0.22-1.226,0.821-2.314,2.057-2.16L54.37,3.952z"/>
	<path style="fill:#31BEED;" d="M3.552,28.394l3.193,23.152c0.146,1.059,1.051,1.848,2.121,1.848h14.268
		c1.069,0,1.975-0.789,2.121-1.848l3.193-23.152H3.552z"/>
	<path style="fill:#D1D4D1;" d="M16,45.394c-8.822,0-16-7.178-16-16c0-1.075,0.108-2.151,0.32-3.199l1.96,0.398
		C2.094,27.509,2,28.451,2,29.394c0,7.72,6.28,14,14,14s14-6.28,14-14c0-0.942-0.094-1.885-0.28-2.801l1.96-0.398
		c0.212,1.048,0.32,2.124,0.32,3.199C32,38.216,24.822,45.394,16,45.394z"/>
	<path style="fill:#FFB905;" d="M33.166,48.883l1.304-10.489c0.645-5.185,5.415-8.9,10.6-8.255l0,0
		c5.185,0.645,8.9,5.415,8.255,10.6L52.02,51.228c-0.132,1.058-1.096,1.809-2.153,1.677l-15.024-1.868
		C33.785,50.905,33.034,49.941,33.166,48.883z"/>
	<path style="fill:#FBD490;" d="M30,22.394c0-1.42-0.167-4-2-4c-0.624,0-1.633,0.213-2,1c-0.55-0.818-1.093-0.857-2-0.857
		c-0.781,0-1.487,0.393-2.021,1.023c-0.11-3.426-2.288-6.166-4.979-6.166c-2.296,0-4.21,2.001-4.797,4.712
		c-0.632-0.538-1.388-0.855-2.203-0.855c-1.576,0-2.926,1.182-3.578,2.885C5.877,19.171,4.999,18.537,4,18.537
		c-1.657,0-3,1.727-3,3.857H30z"/>
	<path style="fill:#F0C419;" d="M30.277,28.394H1.723C0.771,28.394,0,27.623,0,26.671v-2.555c0-0.951,0.771-1.723,1.723-1.723
		h28.555c0.951,0,1.723,0.771,1.723,1.723v2.555C32,27.623,31.229,28.394,30.277,28.394z"/>
</g>
<g>
</g>
<g>
</g>
<g>
</g>
<g>
</g>
<g>
</g>
<g>
</g>
<g>
</g>
<g>
</g>
<g>
</g>
<g>
</g>
<g>
</g>
<g>
</g>
<g>
</g>
<g>
</g>
<g>
</g>
</svg>
