<?xml version="1.0" encoding="iso-8859-1"?>
<!-- Generator: Adobe Illustrator 18.0.0, SVG Export Plug-In . SVG Version: 6.00 Build 0)  -->
<!DOCTYPE svg PUBLIC "-//W3C//DTD SVG 1.1//EN" "http://www.w3.org/Graphics/SVG/1.1/DTD/svg11.dtd">
<svg version="1.1" id="Capa_1" xmlns="http://www.w3.org/2000/svg" xmlns:xlink="http://www.w3.org/1999/xlink" x="0px" y="0px"
	 viewBox="0 0 56 56" style="enable-background:new 0 0 56 56;" xml:space="preserve">
<g>
	<path style="fill:#DF4D60;" d="M39.769,8c-0.552,0-1-0.448-1-1c0-1.654-1.346-3-3-3c-0.552,0-1-0.448-1-1s0.448-1,1-1
		c2.757,0,5,2.243,5,5C40.769,7.552,40.322,8,39.769,8z"/>
	<path style="fill:#DF4D60;" d="M43.769,7c-0.552,0-1-0.448-1-1c0-2.168-3.206-4-7-4c-0.552,0-1-0.448-1-1s0.448-1,1-1
		c5.047,0,9,2.636,9,6C44.769,6.552,44.322,7,43.769,7z"/>
	<g>
		<circle style="fill:#F3D55B;" cx="47" cy="47" r="8"/>
		<path style="fill:#DF4D60;" d="M47,56c-4.962,0-9-4.038-9-9s4.038-9,9-9s9,4.038,9,9S51.962,56,47,56z M47,40c-3.86,0-7,3.14-7,7
			s3.14,7,7,7s7-3.14,7-7S50.86,40,47,40z"/>
	</g>
	<circle style="fill:#A33447;" cx="47" cy="47" r="3"/>
	<path style="fill:#FB7B76;" d="M33.769,6h-10c-1.65,0-3-1.35-3-3v0c0-1.65,1.35-3,3-3h10c1.65,0,3,1.35,3,3v0
		C36.769,4.65,35.419,6,33.769,6z"/>
	<path style="fill:#DF4D60;" d="M43.13,40c1.138-0.631,2.445-0.993,3.838-0.998C46.299,28.347,32.139,19.748,18,19.051
		c-0.15,1.307-0.274,2.644-0.376,3.984C30.172,23.578,43,30.978,43,40H43.13z"/>
	<path style="fill:#F3D55B;" d="M48.257,21.955l-10.052-2.792C37.493,18.966,37,18.318,37,17.579v0c0-0.739,0.493-1.387,1.204-1.584
		l10.052-2.792C50.216,12.877,52,14.388,52,16.374v2.41C52,20.771,50.216,22.282,48.257,21.955z"/>
	<path style="fill:#A33447;" d="M41.841,20.174L38,25.551c0.127,0.101,0.24,0.211,0.365,0.314c0.982,0.697,1.901,1.436,2.745,2.213
		l5.591-6.555L41.841,20.174z"/>
	<path style="fill:#DF4D60;" d="M15.769,27c0.759,0,1.498,0.077,2.224,0.193c0.407-8.661,1.553-18.528,4.786-21.375
		C21.615,5.405,20.769,4.302,20.769,3c0-0.299,0.058-0.581,0.14-0.854C16.377,5.208,14.576,14.242,14,27.124
		C14.581,27.05,15.169,27,15.769,27z"/>
	<g>
		<circle style="fill:#F3D55B;" cx="15" cy="41" r="14"/>
		<path style="fill:#DF4D60;" d="M15,56C6.729,56,0,49.271,0,41s6.729-15,15-15s15,6.729,15,15S23.271,56,15,56z M15,28
			C7.832,28,2,33.832,2,41s5.832,13,13,13s13-5.832,13-13S22.168,28,15,28z"/>
	</g>
	<circle style="fill:#DF4D60;" cx="15" cy="41" r="4"/>
	<path style="fill:#DF4D60;" d="M20.657,36.343c-0.256,0-0.512-0.098-0.707-0.293c-0.391-0.391-0.391-1.023,0-1.414l4.243-4.243
		c0.391-0.391,1.023-0.391,1.414,0s0.391,1.023,0,1.414l-4.243,4.243C21.168,36.246,20.913,36.343,20.657,36.343z"/>
	<path style="fill:#DF4D60;" d="M5.101,51.899c-0.256,0-0.512-0.098-0.707-0.293c-0.391-0.391-0.391-1.023,0-1.414l4.243-4.243
		c0.391-0.391,1.023-0.391,1.414,0s0.391,1.023,0,1.414l-4.243,4.243C5.612,51.802,5.356,51.899,5.101,51.899z"/>
	<path style="fill:#DF4D60;" d="M24.899,51.899c-0.256,0-0.512-0.098-0.707-0.293l-4.243-4.243c-0.391-0.391-0.391-1.023,0-1.414
		s1.023-0.391,1.414,0l4.243,4.243c0.391,0.391,0.391,1.023,0,1.414C25.411,51.802,25.155,51.899,24.899,51.899z"/>
	<path style="fill:#DF4D60;" d="M9.343,36.343c-0.256,0-0.512-0.098-0.707-0.293l-4.243-4.243c-0.391-0.391-0.391-1.023,0-1.414
		s1.023-0.391,1.414,0l4.243,4.243c0.391,0.391,0.391,1.023,0,1.414C9.855,36.246,9.599,36.343,9.343,36.343z"/>
	<rect x="15" y="40" style="fill:#A33447;" width="8" height="2"/>
</g>
<g>
</g>
<g>
</g>
<g>
</g>
<g>
</g>
<g>
</g>
<g>
</g>
<g>
</g>
<g>
</g>
<g>
</g>
<g>
</g>
<g>
</g>
<g>
</g>
<g>
</g>
<g>
</g>
<g>
</g>
</svg>
