<?xml version="1.0" encoding="iso-8859-1"?>
<!-- Generator: Adobe Illustrator 18.0.0, SVG Export Plug-In . SVG Version: 6.00 Build 0)  -->
<!DOCTYPE svg PUBLIC "-//W3C//DTD SVG 1.1//EN" "http://www.w3.org/Graphics/SVG/1.1/DTD/svg11.dtd">
<svg version="1.1" id="Capa_1" xmlns="http://www.w3.org/2000/svg" xmlns:xlink="http://www.w3.org/1999/xlink" x="0px" y="0px"
	 viewBox="0 0 54.414 54.414" style="enable-background:new 0 0 54.414 54.414;" xml:space="preserve">
<g>
	<path style="fill:#805333;" d="M30.667,27.214l-4.747,2.915v21.784c0,1.381,1.119,2.5,2.5,2.5h0c1.381,0,2.5-1.119,2.5-2.5V27.529
		L30.667,27.214z"/>
	<path style="fill:#BDC3C7;" d="M31.433,17.03c0.961,2.046,0.273,4.526-1.699,5.737c-0.789,0.484-1.668,0.695-2.528,0.661
		l2.491,4.056l7.326,11.93c7.799-5.402,7.604-9.655,2.578-17.839l-4.186-6.817L31.433,17.03z"/>
	<path style="fill:#ECF0F1;" d="M24.512,21.514c-0.09-0.146-0.148-0.301-0.219-0.452l-5.199,3.193l-11.887,7.3
		c5.402,7.799,9.46,7.1,17.643,2.074l6.817-4.186l-3.557-5.792C26.684,23.573,25.316,22.824,24.512,21.514z"/>
	<path style="fill:#ECF0F1;" d="M29.521,6.212l-6.817,4.186l3.284,5.348c1.81-0.384,3.743,0.363,4.767,2.03
		c0.09,0.146,0.148,0.301,0.219,0.452l4.304-2.643l11.93-7.326C41.805,0.46,37.704,1.187,29.521,6.212z"/>
	<path style="fill:#BDC3C7;" d="M24.992,16.097c0.435-0.267,0.9-0.431,1.371-0.537l-2.229-3.63L16.808,0
		c-7.799,5.402-7.03,9.476-2.005,17.66l4.186,6.817l4.304-2.643C22.332,19.788,23.02,17.308,24.992,16.097z"/>
	<path style="fill:#9777A8;" d="M31.607,17.315c-0.917-1.492-2.511-2.384-4.265-2.384c-0.921,0-1.824,0.256-2.612,0.74
		c-2.349,1.442-3.086,4.527-1.645,6.877c0.917,1.493,2.511,2.384,4.265,2.384c0.921,0,1.824-0.256,2.613-0.74
		c1.138-0.698,1.936-1.798,2.247-3.098C32.52,19.796,32.306,18.454,31.607,17.315z"/>
</g>
<g>
</g>
<g>
</g>
<g>
</g>
<g>
</g>
<g>
</g>
<g>
</g>
<g>
</g>
<g>
</g>
<g>
</g>
<g>
</g>
<g>
</g>
<g>
</g>
<g>
</g>
<g>
</g>
<g>
</g>
</svg>
