<?xml version="1.0" encoding="iso-8859-1"?>
<!-- Generator: Adobe Illustrator 18.0.0, SVG Export Plug-In . SVG Version: 6.00 Build 0)  -->
<!DOCTYPE svg PUBLIC "-//W3C//DTD SVG 1.1//EN" "http://www.w3.org/Graphics/SVG/1.1/DTD/svg11.dtd">
<svg version="1.1" id="Capa_1" xmlns="http://www.w3.org/2000/svg" xmlns:xlink="http://www.w3.org/1999/xlink" x="0px" y="0px"
	 viewBox="0 0 50 50" style="enable-background:new 0 0 50 50;" xml:space="preserve">
<path d="M46,0.5c-2.206,0-4,1.794-4,4v6H26V7.923C26,6.587,24.913,5.5,23.577,5.5h-3.154C19.89,5.5,19.401,5.678,19,5.971
	C18.599,5.678,18.11,5.5,17.577,5.5h-3.154C13.087,5.5,12,6.587,12,7.923V10.5H8v-6c0-2.206-1.794-4-4-4s-4,1.794-4,4v41
	c0,2.206,1.794,4,4,4s4-1.794,4-4v-5h16v2.505c0,1.376,1.119,2.495,2.495,2.495h3.01c0.563,0,1.077-0.194,1.495-0.51
	c0.418,0.316,0.932,0.51,1.495,0.51h3.01c1.376,0,2.495-1.119,2.495-2.495V40.5h4v5c0,2.206,1.794,4,4,4s4-1.794,4-4v-41
	C50,2.294,48.206,0.5,46,0.5z M6,45.5c0,1.103-0.897,2-2,2s-2-0.897-2-2v-41c0-1.103,0.897-2,2-2s2,0.897,2,2V45.5z M20.423,7.5
	h3.154C23.811,7.5,24,7.689,24,7.923v7.154c0,0.233-0.189,0.423-0.423,0.423h-3.154C20.189,15.5,20,15.311,20,15.077V7.923
	C20,7.689,20.189,7.5,20.423,7.5z M14,7.923C14,7.689,14.189,7.5,14.423,7.5h3.154C17.811,7.5,18,7.689,18,7.923v7.154
	c0,0.233-0.189,0.423-0.423,0.423h-3.154C14.189,15.5,14,15.311,14,15.077V7.923z M12,12.5v2.577c0,1.336,1.087,2.423,2.423,2.423
	h3.154c0.533,0,1.022-0.178,1.423-0.471c0.401,0.293,0.89,0.471,1.423,0.471h3.154c1.336,0,2.423-1.087,2.423-2.423V12.5h16v12h-8
	v-2.875c0-1.172-0.953-2.125-2.125-2.125h-3.75c-0.414,0-0.798,0.124-1.125,0.329c-0.327-0.206-0.711-0.329-1.125-0.329h-3.75
	c-0.414,0-0.798,0.124-1.125,0.329c-0.327-0.206-0.711-0.329-1.125-0.329h-3.75C14.953,19.5,14,20.453,14,21.625V24.5H8v-12H12z
	 M28,21.625c0-0.069,0.056-0.125,0.125-0.125h3.75c0.069,0,0.125,0.056,0.125,0.125v7.75c0,0.069-0.056,0.125-0.125,0.125h-3.75
	C28.056,29.5,28,29.444,28,29.375V21.625z M22,21.625c0-0.069,0.056-0.125,0.125-0.125h3.75c0.069,0,0.125,0.056,0.125,0.125v7.75
	c0,0.069-0.056,0.125-0.125,0.125h-3.75C22.056,29.5,22,29.444,22,29.375V21.625z M20,29.375c0,0.069-0.056,0.125-0.125,0.125h-3.75
	C16.056,29.5,16,29.444,16,29.375v-7.75c0-0.069,0.056-0.125,0.125-0.125h3.75c0.069,0,0.125,0.056,0.125,0.125V29.375z
	 M29.505,43.5h-3.01C26.222,43.5,26,43.278,26,43.005v-7.01c0-0.273,0.222-0.495,0.495-0.495h3.01c0.273,0,0.495,0.222,0.495,0.495
	v7.01C30,43.278,29.778,43.5,29.505,43.5z M36,43.005c0,0.273-0.222,0.495-0.495,0.495h-3.01C32.222,43.5,32,43.278,32,43.005v-7.01
	c0-0.273,0.222-0.495,0.495-0.495h3.01c0.273,0,0.495,0.222,0.495,0.495V43.005z M38,38.5v-2.505c0-1.376-1.119-2.495-2.495-2.495
	h-3.01c-0.563,0-1.077,0.194-1.495,0.51c-0.418-0.316-0.932-0.51-1.495-0.51h-3.01C25.119,33.5,24,34.619,24,35.995V38.5H8v-12h6
	v2.875c0,1.172,0.953,2.125,2.125,2.125h3.75c0.414,0,0.798-0.124,1.125-0.33c0.327,0.206,0.711,0.33,1.125,0.33h3.75
	c0.414,0,0.798-0.124,1.125-0.33c0.327,0.206,0.711,0.33,1.125,0.33h3.75c1.172,0,2.125-0.953,2.125-2.125V26.5h8v12H38z M48,45.5
	c0,1.103-0.897,2-2,2s-2-0.897-2-2v-41c0-1.103,0.897-2,2-2s2,0.897,2,2V45.5z"/>
<g>
</g>
<g>
</g>
<g>
</g>
<g>
</g>
<g>
</g>
<g>
</g>
<g>
</g>
<g>
</g>
<g>
</g>
<g>
</g>
<g>
</g>
<g>
</g>
<g>
</g>
<g>
</g>
<g>
</g>
</svg>
