<?xml version="1.0" encoding="iso-8859-1"?>
<!-- Generator: Adobe Illustrator 18.0.0, SVG Export Plug-In . SVG Version: 6.00 Build 0)  -->
<!DOCTYPE svg PUBLIC "-//W3C//DTD SVG 1.1//EN" "http://www.w3.org/Graphics/SVG/1.1/DTD/svg11.dtd">
<svg version="1.1" id="Capa_1" xmlns="http://www.w3.org/2000/svg" xmlns:xlink="http://www.w3.org/1999/xlink" x="0px" y="0px"
	 viewBox="0 0 57.96 57.96" style="enable-background:new 0 0 57.96 57.96;" xml:space="preserve">
<g>
	<path d="M24.244,29.026c0.391-0.391,0.391-1.023,0-1.414c-2.974-2.974-7.813-2.973-10.787,0c-0.391,0.391-0.391,1.023,0,1.414
		s1.023,0.391,1.414,0c2.195-2.194,5.765-2.194,7.958,0c0.195,0.195,0.451,0.293,0.707,0.293S24.048,29.221,24.244,29.026z"/>
	<path d="M38.857,25.377c-2.037,0-3.952,0.794-5.393,2.235c-0.391,0.391-0.391,1.024,0,1.414c0.391,0.391,1.024,0.391,1.414,0
		c1.063-1.063,2.476-1.649,3.979-1.649s2.916,0.586,3.979,1.649c0.195,0.195,0.451,0.293,0.707,0.293s0.512-0.098,0.707-0.293
		c0.391-0.391,0.391-1.023,0-1.414C42.809,26.171,40.894,25.377,38.857,25.377z"/>
	<path d="M32.757,43.346c-2.152,2.151-5.655,2.152-7.808,0c-0.391-0.39-1.024-0.39-1.415,0c-0.39,0.391-0.39,1.024,0,1.415
		c1.467,1.465,3.393,2.198,5.319,2.198s3.852-0.733,5.317-2.199c0.391-0.391,0.391-1.023,0-1.414S33.148,42.956,32.757,43.346z"/>
	<path d="M57.96,32.885c0-3.045-2.16-5.554-4.913-5.842C50.97,17.62,43.497,10.202,34.043,8.21V5.918c0-0.552-0.448-1-1-1
		s-1,0.448-1,1v1.961c-0.659-0.083-1.326-0.144-2-0.173V1.918c0-0.552-0.448-1-1-1s-1,0.448-1,1v5.783
		c-0.674,0.024-1.341,0.076-2,0.154V5.918c0-0.552-0.448-1-1-1s-1,0.448-1,1v2.251c-9.546,1.933-17.107,9.393-19.196,18.882
		C2.126,27.372,0,29.864,0,32.885C0,36,2.262,38.549,5.106,38.738c2.819,10.528,12.438,18.305,23.842,18.305
		c11.403,0,21.02-7.775,23.841-18.301C55.664,38.588,57.96,36.024,57.96,32.885z M2,32.885c0-1.755,1.051-3.224,2.477-3.696
		c-0.134,1.039-0.211,2.097-0.211,3.172c0,1.461,0.135,2.89,0.379,4.281C3.132,36.234,2,34.71,2,32.885z M28.949,55.043
		c-12.507,0-22.683-10.175-22.683-22.683c0-10.822,7.621-19.893,17.777-22.142v3.7c0,0.552,0.448,1,1,1s1-0.448,1-1V9.87
		c0.659-0.085,1.325-0.143,2-0.169v4.217c0,0.552,0.448,1,1,1s1-0.448,1-1V9.706c0.675,0.032,1.341,0.099,2,0.189v4.023
		c0,0.552,0.448,1,1,1s1-0.448,1-1v-3.656C44.104,12.581,51.63,21.605,51.63,32.36C51.63,44.867,41.456,55.043,28.949,55.043z
		 M53.247,36.665c0.247-1.399,0.384-2.836,0.384-4.305c0-1.083-0.078-2.148-0.214-3.195c1.461,0.448,2.544,1.937,2.544,3.72
		C55.96,34.738,54.795,36.288,53.247,36.665z"/>
</g>
<g>
</g>
<g>
</g>
<g>
</g>
<g>
</g>
<g>
</g>
<g>
</g>
<g>
</g>
<g>
</g>
<g>
</g>
<g>
</g>
<g>
</g>
<g>
</g>
<g>
</g>
<g>
</g>
<g>
</g>
</svg>
