<?xml version="1.0" encoding="iso-8859-1"?>
<!-- Generator: Adobe Illustrator 18.0.0, SVG Export Plug-In . SVG Version: 6.00 Build 0)  -->
<!DOCTYPE svg PUBLIC "-//W3C//DTD SVG 1.1//EN" "http://www.w3.org/Graphics/SVG/1.1/DTD/svg11.dtd">
<svg version="1.1" id="Capa_1" xmlns="http://www.w3.org/2000/svg" xmlns:xlink="http://www.w3.org/1999/xlink" x="0px" y="0px"
	 viewBox="0 0 57.96 57.96" style="enable-background:new 0 0 57.96 57.96;" xml:space="preserve">
<g>
	<path d="M24.244,28.025c0.391-0.391,0.391-1.023,0-1.414c-2.974-2.974-7.813-2.973-10.787,0c-0.391,0.391-0.391,1.023,0,1.414
		s1.023,0.391,1.414,0c2.195-2.194,5.765-2.194,7.958,0c0.195,0.195,0.451,0.293,0.707,0.293S24.048,28.221,24.244,28.025z"/>
	<path d="M38.857,24.376c-2.037,0-3.952,0.794-5.393,2.235c-0.391,0.391-0.391,1.024,0,1.414c0.391,0.391,1.024,0.391,1.414,0
		c1.063-1.063,2.476-1.649,3.979-1.649s2.916,0.586,3.979,1.649c0.195,0.195,0.451,0.293,0.707,0.293s0.512-0.098,0.707-0.293
		c0.391-0.391,0.391-1.023,0-1.414C42.809,25.17,40.894,24.376,38.857,24.376z"/>
	<path d="M32.757,42.346c-2.152,2.151-5.655,2.152-7.808,0c-0.391-0.39-1.024-0.39-1.415,0c-0.39,0.391-0.39,1.024,0,1.415
		c1.467,1.465,3.393,2.198,5.319,2.198s3.852-0.733,5.317-2.199c0.391-0.391,0.391-1.023,0-1.414S33.148,41.955,32.757,42.346z"/>
	<path d="M57.96,31.884c0-3.043-2.157-5.551-4.909-5.841c-1.187-5.425-4.181-10.305-8.613-13.883
		c0.002-0.026,0.004-0.051,0.004-0.077c0-1.617,0.49-4.186,1.38-7.232c0.073-0.251,0.07-0.51,0.007-0.755
		c0.037-0.295,0.003-0.59-0.115-0.881c-0.947-2.32-5.886-1.026-8.656,0.105c-2.45,1-4.49,2.299-5.545,3.503
		c-0.581-0.446-1.289-0.708-2.064-0.708h-0.585c-0.903,0-1.722,0.328-2.375,0.854c-1.178-1.451-3.618-2.815-5.662-3.649
		c-1.834-0.749-3.663-1.234-5.148-1.366c-2.39-0.21-3.226,0.568-3.508,1.261c-0.296,0.725-0.066,1.472,0.475,2.189
		c0.746,2.649,1.161,4.83,1.218,6.431c-4.669,3.608-7.806,8.607-9.023,14.218C2.122,26.376,0,28.866,0,31.884
		c0,3.115,2.262,5.665,5.106,5.854c2.819,10.528,12.438,18.305,23.842,18.305c11.403,0,21.02-7.775,23.841-18.301
		C55.664,37.587,57.96,35.023,57.96,31.884z M33.043,14.408v-3.813c0.125,0.005,0.26-0.001,0.391-0.003
		c0.042,0.001,0.077,0.009,0.119,0.009c1.775,0,4.055-0.651,5.903-1.405c0.246-0.1,0.507-0.215,0.774-0.336
		c0.081-0.037,0.16-0.072,0.242-0.11c0.234-0.109,0.471-0.225,0.712-0.348c0.113-0.058,0.225-0.118,0.338-0.178
		c0.155-0.082,0.309-0.167,0.463-0.255c0.112-0.063,0.223-0.125,0.333-0.19c0.227-0.135,0.451-0.275,0.67-0.419
		c0.042-0.027,0.087-0.053,0.129-0.08c-0.376,1.642-0.669,3.36-0.675,4.758c-0.034,0.436-0.17,3.124,1.41,5.458
		c-2.318,0.117-7.873,0.135-10.809-2.146V14.408z M37.814,5.171c3.153-1.287,5.293-1.364,5.949-1.173
		c-0.026,0.051-0.041,0.096-0.082,0.154c-0.002,0.002-0.003,0.004-0.005,0.007c-0.059,0.085-0.144,0.181-0.234,0.28
		c-0.032,0.035-0.059,0.067-0.095,0.103c-0.064,0.066-0.146,0.138-0.222,0.208c-0.074,0.068-0.141,0.133-0.227,0.205
		c-0.065,0.054-0.144,0.113-0.216,0.169c-0.112,0.088-0.219,0.175-0.347,0.268c-0.117,0.084-0.254,0.172-0.384,0.259
		c-0.103,0.069-0.195,0.135-0.307,0.206c-0.782,0.491-1.765,1.007-2.943,1.487c-2.089,0.853-3.969,1.212-5.161,1.25
		c-0.105,0-0.21,0.001-0.3-0.005c-0.023-0.191-0.066-0.378-0.128-0.559C33.868,7.23,35.501,6.114,37.814,5.171z M28.863,8.113h0.585
		c0.998,0,1.595,1.008,1.595,1.982v4.312c0,1.014-0.611,1.644-1.595,1.644h-0.585c-1,0-1.813-0.813-1.813-1.813V9.926
		C27.05,8.927,27.864,8.113,28.863,8.113z M15.87,12.038c-0.006-1.308-0.265-2.902-0.603-4.431c0.61,0.378,1.292,0.741,2.017,1.083
		c0.021,0.01,0.042,0.02,0.063,0.03c0.136,0.063,0.272,0.126,0.411,0.188c0.23,0.103,0.455,0.201,0.669,0.288
		C18.681,9.3,18.943,9.4,19.208,9.498c0.082,0.03,0.165,0.058,0.247,0.087c0.186,0.066,0.372,0.131,0.561,0.192
		c0.101,0.033,0.201,0.063,0.303,0.095c0.174,0.054,0.348,0.106,0.522,0.156c0.108,0.03,0.215,0.059,0.323,0.088
		c0.17,0.045,0.339,0.087,0.508,0.126c0.109,0.025,0.216,0.05,0.324,0.073c0.17,0.036,0.337,0.068,0.504,0.097
		c0.103,0.018,0.206,0.038,0.308,0.054c0.18,0.028,0.356,0.048,0.532,0.068c0.082,0.009,0.167,0.021,0.248,0.028
		c0.249,0.021,0.493,0.034,0.727,0.034c0.002,0,0.004,0,0.006,0c0.255,0,0.499-0.013,0.73-0.042v3.685v1.106
		c-2.804,2.194-7.797,2.292-10.603,2.069C16.039,15.156,15.903,12.473,15.87,12.038z M20.07,5.171
		c2.871,1.172,4.586,2.545,5.029,3.266c-0.006,0.031-0.012,0.063-0.017,0.094c-0.003,0.001-0.003,0.002-0.005,0.002
		c-0.011,0.003-0.029,0.004-0.041,0.006c-0.09,0.019-0.197,0.035-0.326,0.044c-0.045,0.003-0.102,0.003-0.151,0.005
		c-0.11,0.004-0.227,0.006-0.359,0.003c-0.071-0.002-0.152-0.008-0.229-0.013c-0.132-0.008-0.271-0.019-0.421-0.036
		c-0.094-0.01-0.195-0.024-0.296-0.038c-0.156-0.022-0.321-0.049-0.492-0.08c-0.114-0.021-0.229-0.043-0.35-0.068
		c-0.184-0.039-0.381-0.086-0.581-0.136c-0.126-0.032-0.25-0.061-0.382-0.098c-0.228-0.063-0.471-0.14-0.717-0.218
		c-0.121-0.039-0.237-0.072-0.362-0.115c-0.379-0.13-0.773-0.275-1.188-0.444c-0.339-0.138-0.65-0.279-0.954-0.42
		c-0.137-0.064-0.272-0.129-0.406-0.195c-0.145-0.071-0.283-0.142-0.418-0.213c-0.156-0.082-0.313-0.163-0.462-0.247
		c-0.089-0.05-0.168-0.098-0.252-0.148c-0.238-0.138-0.464-0.278-0.678-0.418c-0.139-0.092-0.283-0.184-0.407-0.273
		c-0.062-0.044-0.116-0.088-0.176-0.132c-0.134-0.1-0.265-0.199-0.378-0.292c-0.068-0.056-0.129-0.112-0.192-0.167
		c-0.075-0.066-0.151-0.132-0.215-0.194c-0.117-0.114-0.226-0.227-0.316-0.336c-0.005-0.006-0.012-0.009-0.017-0.015
		c-0.093-0.112-0.168-0.213-0.211-0.294C14.73,3.802,16.888,3.872,20.07,5.171z M2,31.884c0-1.752,1.048-3.219,2.471-3.694
		c-0.132,1.042-0.205,2.099-0.205,3.17c0,1.461,0.135,2.89,0.379,4.281C3.132,35.234,2,33.709,2,31.884z M28.949,54.042
		c-12.507,0-22.683-10.175-22.683-22.683c0-6.424,2.635-12.373,7.293-16.658c-0.161,0.518-0.391,1.056-0.746,1.559
		c-0.436,0.618-0.503,1.422-0.175,2.097c0.327,0.672,0.969,1.097,1.719,1.136c0.51,0.026,1.088,0.044,1.711,0.044
		c3.11,0,7.345-0.471,10.123-2.586c0.689,0.678,1.631,1.099,2.672,1.099h0.585c1.032,0,1.921-0.378,2.559-1.014
		c2.782,2.042,7.015,2.502,10.156,2.502c0.653,0,1.258-0.019,1.792-0.046c0.749-0.039,1.391-0.463,1.718-1.135
		c0.328-0.675,0.261-1.479-0.175-2.097c-0.211-0.299-0.369-0.612-0.506-0.925c4.246,4.237,6.638,9.944,6.638,16.024
		C51.63,43.867,41.456,54.042,28.949,54.042z M53.247,35.665c0.247-1.399,0.384-2.836,0.384-4.305c0-1.078-0.077-2.143-0.212-3.195
		c1.46,0.448,2.542,1.938,2.542,3.719C55.96,33.737,54.795,35.287,53.247,35.665z"/>
</g>
<g>
</g>
<g>
</g>
<g>
</g>
<g>
</g>
<g>
</g>
<g>
</g>
<g>
</g>
<g>
</g>
<g>
</g>
<g>
</g>
<g>
</g>
<g>
</g>
<g>
</g>
<g>
</g>
<g>
</g>
</svg>
