<?xml version="1.0" encoding="iso-8859-1"?>
<!-- Generator: Adobe Illustrator 18.0.0, SVG Export Plug-In . SVG Version: 6.00 Build 0)  -->
<!DOCTYPE svg PUBLIC "-//W3C//DTD SVG 1.1//EN" "http://www.w3.org/Graphics/SVG/1.1/DTD/svg11.dtd">
<svg version="1.1" id="Capa_1" xmlns="http://www.w3.org/2000/svg" xmlns:xlink="http://www.w3.org/1999/xlink" x="0px" y="0px"
	 viewBox="0 0 53 53" style="enable-background:new 0 0 53 53;" xml:space="preserve">
<path d="M52.945,24.872c-0.007-0.11-0.016-0.219-0.024-0.328c-0.037-0.51-0.088-1.017-0.153-1.521
	c-0.002-0.014-0.003-0.028-0.005-0.041c-0.734-5.557-3.2-10.705-7.133-14.807l0.005-0.016l-0.398-0.397l-0.397-0.398L44.825,7.37
	c-4.102-3.933-9.25-6.399-14.807-7.133c-0.014-0.002-0.028-0.003-0.041-0.005c-0.504-0.066-1.011-0.116-1.521-0.153
	c-0.109-0.008-0.219-0.017-0.328-0.024C27.587,0.022,27.046,0,26.5,0C11.888,0,0,11.888,0,26.5c0,0.571,0.025,1.14,0.062,1.708
	c0.011,0.169,0.025,0.337,0.04,0.505c0.037,0.433,0.084,0.864,0.142,1.293c0.02,0.147,0.035,0.295,0.058,0.442
	c0.081,0.534,0.179,1.065,0.293,1.591c0.036,0.169,0.08,0.336,0.119,0.504c0.091,0.387,0.19,0.771,0.299,1.153
	c0.052,0.182,0.103,0.365,0.159,0.545c0.155,0.504,0.32,1.005,0.505,1.499c0.019,0.051,0.04,0.102,0.059,0.153
	c0.171,0.449,0.355,0.892,0.549,1.331L2.28,37.256l0.122,0.266c0.083,0.182,0.181,0.353,0.268,0.532
	c0.087,0.18,0.178,0.358,0.27,0.536c0.206,0.4,0.419,0.793,0.643,1.179c0.174,0.301,0.35,0.602,0.536,0.896
	c0.137,0.216,0.281,0.426,0.423,0.637c0.188,0.28,0.382,0.557,0.581,0.83c0.119,0.162,0.237,0.325,0.359,0.484
	c0.393,0.514,0.806,1.013,1.238,1.499l-0.006,0.016l0.437,0.467c0.05,0.053,0.103,0.102,0.153,0.155
	c0.131,0.138,0.265,0.272,0.399,0.407c0.02,0.02,0.04,0.039,0.06,0.059c0.003,0.003,0.007,0.007,0.01,0.01
	c0.003,0.003,0.007,0.007,0.01,0.01c0.02,0.02,0.039,0.04,0.059,0.06c0.135,0.134,0.269,0.268,0.407,0.399
	C8.3,45.747,8.349,45.8,8.402,45.85l0.467,0.437l0.016-0.006c0.485,0.432,0.985,0.844,1.499,1.238
	c0.159,0.122,0.322,0.24,0.484,0.359c0.273,0.199,0.55,0.393,0.83,0.581c0.211,0.143,0.421,0.286,0.637,0.423
	c0.294,0.186,0.595,0.362,0.896,0.536c0.386,0.224,0.78,0.438,1.179,0.643c0.178,0.091,0.356,0.182,0.536,0.27
	c0.179,0.087,0.351,0.185,0.532,0.268l0.266,0.122l0.032-0.004c0.439,0.195,0.882,0.379,1.331,0.549
	c0.051,0.019,0.102,0.04,0.153,0.059c0.494,0.184,0.995,0.35,1.499,0.505c0.181,0.056,0.363,0.107,0.545,0.159
	c0.382,0.108,0.766,0.208,1.153,0.299c0.168,0.04,0.335,0.083,0.504,0.119c0.527,0.113,1.057,0.211,1.591,0.293
	c0.147,0.022,0.295,0.038,0.442,0.058c0.429,0.058,0.86,0.106,1.293,0.142c0.168,0.014,0.336,0.029,0.505,0.04
	C25.36,52.975,25.929,53,26.5,53C41.112,53,53,41.112,53,26.5C53,25.954,52.978,25.413,52.945,24.872z M9.189,43.811
	c-0.043-0.043-0.084-0.09-0.127-0.133c2.77-6.549,7.605-13.458,13.674-19.527c6.283-6.284,13.297-11.138,19.983-13.87
	c-2.731,6.685-7.586,13.7-13.87,19.983c-6.068,6.069-12.978,10.905-19.527,13.674C9.279,43.895,9.233,43.854,9.189,43.811z
	 M41.148,6.884C41.2,6.923,41.253,6.96,41.305,7c0.293,0.223,0.577,0.458,0.861,0.694c0.175,0.146,0.348,0.296,0.519,0.447
	c-7.147,2.774-14.672,7.904-21.362,14.596c-5.992,5.991-10.798,12.794-13.715,19.324c-0.262-0.318-0.521-0.638-0.766-0.969
	c-0.059-0.079-0.115-0.162-0.173-0.242c-0.286-0.396-0.565-0.798-0.827-1.21c-0.025-0.039-0.048-0.079-0.073-0.118
	c-0.284-0.451-0.555-0.91-0.809-1.378c-0.008-0.015-0.015-0.03-0.023-0.045c-0.208-0.387-0.399-0.783-0.587-1.18
	c1.183-7.851,4.803-14.993,10.483-20.671C21.327,9.753,29.872,5.914,38.925,5.412C39.691,5.863,40.434,6.352,41.148,6.884z
	 M14.901,48.064c-0.015-0.008-0.03-0.015-0.045-0.023c-0.469-0.254-0.927-0.525-1.378-0.809c-0.039-0.025-0.079-0.048-0.118-0.073
	c-0.412-0.262-0.814-0.541-1.21-0.827c-0.08-0.058-0.162-0.114-0.242-0.173c-0.331-0.245-0.65-0.505-0.969-0.766
	c6.53-2.917,13.334-7.723,19.324-13.715c6.691-6.69,11.822-14.215,14.596-21.362c0.152,0.172,0.301,0.344,0.447,0.519
	c0.236,0.284,0.471,0.567,0.694,0.861c0.039,0.052,0.076,0.105,0.115,0.157c0.532,0.714,1.021,1.457,1.473,2.222
	c-0.502,9.053-4.342,17.599-10.835,24.092c-5.679,5.68-12.82,9.3-20.671,10.483C15.684,48.463,15.288,48.272,14.901,48.064z M26.5,2
	c0.684,0,1.361,0.041,2.035,0.096c0.234,0.02,0.467,0.043,0.7,0.07c0.438,0.048,0.871,0.114,1.304,0.186
	c0.53,0.089,1.056,0.196,1.577,0.32c0.26,0.061,0.52,0.118,0.777,0.187c0.434,0.118,0.862,0.25,1.288,0.391
	c0.116,0.038,0.23,0.079,0.345,0.119c0.334,0.116,0.664,0.242,0.991,0.372c-8.308,1.181-16.048,5.044-22.097,11.093
	C8.22,20.031,4.664,26.397,3.001,33.405c-0.478-1.616-0.787-3.292-0.922-5.003c-0.007-0.09-0.014-0.18-0.02-0.271
	C2.023,27.59,2,27.047,2,26.5C2,12.99,12.99,2,26.5,2z M26.5,51c-0.547,0-1.09-0.023-1.631-0.059c-0.09-0.006-0.18-0.013-0.271-0.02
	c-1.711-0.134-3.386-0.444-5.003-0.922c7.008-1.663,13.373-5.219,18.572-10.418c6.049-6.049,9.912-13.789,11.093-22.097
	c0.13,0.328,0.256,0.658,0.372,0.991c0.04,0.115,0.081,0.229,0.119,0.345c0.141,0.425,0.273,0.854,0.391,1.288
	c0.069,0.257,0.127,0.517,0.187,0.777c0.124,0.521,0.23,1.046,0.32,1.577c0.071,0.432,0.137,0.866,0.186,1.304
	c0.026,0.233,0.05,0.466,0.07,0.7C50.959,25.139,51,25.816,51,26.5C51,40.01,40.01,51,26.5,51z"/>
<g>
</g>
<g>
</g>
<g>
</g>
<g>
</g>
<g>
</g>
<g>
</g>
<g>
</g>
<g>
</g>
<g>
</g>
<g>
</g>
<g>
</g>
<g>
</g>
<g>
</g>
<g>
</g>
<g>
</g>
</svg>
