<?xml version="1.0" encoding="iso-8859-1"?>
<!-- Generator: Adobe Illustrator 18.0.0, SVG Export Plug-In . SVG Version: 6.00 Build 0)  -->
<!DOCTYPE svg PUBLIC "-//W3C//DTD SVG 1.1//EN" "http://www.w3.org/Graphics/SVG/1.1/DTD/svg11.dtd">
<svg version="1.1" id="Capa_1" xmlns="http://www.w3.org/2000/svg" xmlns:xlink="http://www.w3.org/1999/xlink" x="0px" y="0px"
	 viewBox="0 0 56 56" style="enable-background:new 0 0 56 56;" xml:space="preserve">
<g>
	<path d="M56,31.792c0-2.206-1.794-4-4-4H35.657c0.001-0.017,0.01-0.032,0.01-0.049c0-6.34-4.57-11.739-10.743-12.842
		c-1.01-3.87-4.502-6.609-8.563-6.609c-4.886,0-8.86,3.975-8.86,8.86c0,0.376,0.026,0.761,0.078,1.148
		c-4.743,2.35-4.647,6.336-4.59,8.763C2.994,27.318,3,27.562,3,27.792c0,0.047,0.021,0.088,0.027,0.134
		C1.292,28.363,0,29.923,0,31.792c0,1.858,1.279,3.411,3,3.858v1.392c0,6.71,4.579,12.583,11,14.268v0.982c0,1.93,1.57,3.5,3.5,3.5
		c1.76,0,3.221-1.306,3.465-3h15.07c0.244,1.694,1.705,3,3.465,3c1.93,0,3.5-1.57,3.5-3.5v-0.982c6.421-1.684,11-7.557,11-14.268
		v-1.806C55.19,34.541,56,33.265,56,31.792z M9.083,19.811l0.774-0.323l-0.184-0.818C9.559,18.153,9.5,17.642,9.5,17.151
		c0-3.783,3.077-6.86,6.86-6.86c3.334,0,6.172,2.383,6.748,5.667l0.129,0.729l0.734,0.09c5.527,0.679,9.695,5.392,9.695,10.963
		c0,0.018,0.009,0.032,0.01,0.049H5c0-0.245-0.006-0.504-0.013-0.776C4.93,24.59,4.857,21.573,9.083,19.811z M52,37.042
		c0,6.039-4.289,11.293-10.199,12.494L41,49.698v2.594c0,0.827-0.673,1.5-1.5,1.5s-1.5-0.673-1.5-1.5v-1.5H19v1.5
		c0,0.827-0.673,1.5-1.5,1.5s-1.5-0.673-1.5-1.5v-2.594l-0.801-0.163C9.289,48.335,5,43.081,5,37.042v-1.25h47V37.042z M52,33.792H4
		c-1.103,0-2-0.897-2-2s0.897-2,2-2h48c1.103,0,2,0.897,2,2S53.103,33.792,52,33.792z"/>
	<path d="M10.751,44.813c0.182,0.139,0.396,0.207,0.607,0.207c0.301,0,0.598-0.135,0.795-0.392c0.336-0.438,0.253-1.066-0.186-1.402
		c-0.754-0.578-1.264-1.331-1.435-2.119c-0.117-0.54-0.653-0.882-1.189-0.765c-0.54,0.117-0.883,0.649-0.766,1.189
		C8.85,42.782,9.621,43.948,10.751,44.813z"/>
	<path d="M14.734,47.141c2.849,0.863,5.82,1.091,8.745,1.091c1.263,0,2.519-0.042,3.75-0.095c0.552-0.023,0.98-0.49,0.957-1.042
		c-0.022-0.552-0.53-0.971-1.041-0.957c-3.917,0.166-8.052,0.232-11.831-0.912c-0.53-0.161-1.087,0.139-1.247,0.667
		C13.907,46.423,14.206,46.981,14.734,47.141z"/>
	<path d="M30.021,12.708c2.113,0,3.833-1.72,3.833-3.833s-1.72-3.833-3.833-3.833s-3.833,1.719-3.833,3.833
		S27.907,12.708,30.021,12.708z M30.021,7.042c1.011,0,1.833,0.822,1.833,1.833c0,1.011-0.822,1.833-1.833,1.833
		s-1.833-0.822-1.833-1.833C28.187,7.864,29.01,7.042,30.021,7.042z"/>
	<path d="M5,10.042c2.711,0,4.916-2.206,4.916-4.917S7.711,0.208,5,0.208S0.083,2.414,0.083,5.125S2.289,10.042,5,10.042z M5,2.208
		c1.607,0,2.916,1.308,2.916,2.917S6.607,8.042,5,8.042c-1.608,0-2.917-1.308-2.917-2.917S3.392,2.208,5,2.208z"/>
	<circle cx="22" cy="22.792" r="1"/>
	<circle cx="40" cy="18.792" r="1"/>
	<circle cx="18" cy="4.792" r="1"/>
</g>
<g>
</g>
<g>
</g>
<g>
</g>
<g>
</g>
<g>
</g>
<g>
</g>
<g>
</g>
<g>
</g>
<g>
</g>
<g>
</g>
<g>
</g>
<g>
</g>
<g>
</g>
<g>
</g>
<g>
</g>
</svg>
