<?xml version="1.0" encoding="iso-8859-1"?>
<!-- Generator: Adobe Illustrator 18.0.0, SVG Export Plug-In . SVG Version: 6.00 Build 0)  -->
<!DOCTYPE svg PUBLIC "-//W3C//DTD SVG 1.1//EN" "http://www.w3.org/Graphics/SVG/1.1/DTD/svg11.dtd">
<svg version="1.1" id="Capa_1" xmlns="http://www.w3.org/2000/svg" xmlns:xlink="http://www.w3.org/1999/xlink" x="0px" y="0px"
	 viewBox="0 0 56 56" style="enable-background:new 0 0 56 56;" xml:space="preserve">
<g>
	<path d="M35.811,36.581l-4.778-0.694l-2.137-4.329c-0.336-0.683-1.457-0.683-1.793,0l-2.137,4.329l-4.778,0.694
		c-0.377,0.055-0.689,0.319-0.808,0.681c-0.117,0.362-0.02,0.759,0.253,1.025l3.458,3.37l-0.816,4.759
		c-0.064,0.375,0.09,0.754,0.397,0.978c0.31,0.224,0.718,0.253,1.054,0.076L28,45.223l4.273,2.247
		c0.146,0.077,0.307,0.115,0.466,0.115c0.207,0,0.414-0.064,0.588-0.191c0.308-0.224,0.462-0.603,0.397-0.978l-0.816-4.759
		l3.458-3.37c0.272-0.266,0.37-0.663,0.253-1.025C36.501,36.899,36.188,36.635,35.811,36.581z M31.135,40.591
		c-0.235,0.23-0.343,0.561-0.287,0.885l0.563,3.28l-2.945-1.549c-0.146-0.077-0.306-0.115-0.466-0.115s-0.319,0.038-0.466,0.115
		l-2.945,1.549l0.563-3.28c0.056-0.324-0.052-0.655-0.287-0.885l-2.384-2.323l3.294-0.479c0.326-0.047,0.607-0.252,0.753-0.547
		L28,34.259l1.473,2.983c0.146,0.295,0.427,0.5,0.753,0.547l3.294,0.479L31.135,40.591z"/>
	<path d="M48.795,27.094L48.795,27.094c-1.486-4.169-2.344-8.447-2.547-12.714c-0.363-7.595-2.74-12.453-6.875-14.049
		c-1.295-0.499-2.749-0.429-3.988,0.193c-1.188,0.598-2.034,1.619-2.383,2.875l-0.031,0.114C32.93,3.673,32.907,3.837,32.884,4H31
		c-0.553,0-1,0.448-1,1s0.447,1,1,1h2.05c0.269,0.874,0.784,1.687,1.516,2.314c0.652,0.561,1.342,1.472,1.87,2.204
		c0.668,0.926,1.109,1.878,1.31,2.831c0.031,0.147,0.06,0.296,0.085,0.444c0.497,2.989-0.281,6.061-2.135,8.428
		c-1.729,2.207-4.178,3.537-6.897,3.748c-2.819,0.219-5.521-0.715-7.589-2.629C19.169,21.452,18,18.776,18,15.95
		c0.008-2.613,1.082-5.227,2.946-7.169c0.17-0.178,0.341-0.341,0.518-0.49C22.206,7.661,22.72,6.86,22.984,6H26c0.553,0,1-0.448,1-1
		s-0.447-1-1-1h-2.878c-0.014-0.081-0.018-0.164-0.037-0.245c-0.027-0.124-0.057-0.245-0.088-0.356
		c-0.349-1.257-1.195-2.278-2.383-2.875C19.376-0.1,17.922-0.169,16.626,0.33C12.488,1.928,10.11,6.792,9.75,14.398
		c-0.218,4.62-0.993,8.623-2.371,12.238c-1.106,2.902-1.55,5.923-1.318,8.98c0.837,11.062,10.15,20.01,21.205,20.371
		C27.513,55.996,27.76,56,28.007,56c5.744,0,11.15-2.183,15.291-6.191C47.62,45.626,50,40.012,50,34
		C50,31.661,49.594,29.338,48.795,27.094z M41.908,48.372c-3.927,3.801-9.11,5.799-14.578,5.617
		C17.282,53.661,8.815,45.524,8.054,35.466c-0.209-2.761,0.192-5.492,1.193-8.117c1.454-3.816,2.271-8.021,2.5-12.856
		c0.223-4.71,1.376-10.667,5.599-12.296C17.687,2.064,18.045,2,18.403,2c0.452,0,0.902,0.104,1.312,0.31
		c0.678,0.341,1.159,0.917,1.356,1.629C21.076,3.958,21.081,3.98,21.086,4H18c-0.553,0-1,0.448-1,1s0.447,1,1,1h2.797
		c-0.165,0.276-0.362,0.54-0.625,0.763c-0.227,0.192-0.448,0.403-0.669,0.633C17.286,9.706,16.009,12.822,16,16
		c0,3.333,1.403,6.543,3.851,8.808c2.48,2.296,5.706,3.415,9.102,3.155c3.285-0.254,6.239-1.855,8.317-4.509
		c2.198-2.807,3.122-6.448,2.533-9.99c-0.029-0.178-0.063-0.355-0.101-0.529c-0.259-1.227-0.813-2.434-1.646-3.588
		c-0.592-0.821-1.376-1.853-2.188-2.551C35.599,6.567,35.384,6.294,35.217,6H39c0.553,0,1-0.448,1-1s-0.447-1-1-1h-4.081
		c0.005-0.022,0.006-0.045,0.012-0.067c0.195-0.706,0.677-1.282,1.354-1.623c0.732-0.369,1.596-0.412,2.368-0.113
		c4.22,1.628,5.373,7.576,5.598,12.279c0.213,4.464,1.108,8.935,2.66,13.29C47.633,29.793,48,31.891,48,34
		C48,39.465,45.836,44.569,41.908,48.372z"/>
</g>
<g>
</g>
<g>
</g>
<g>
</g>
<g>
</g>
<g>
</g>
<g>
</g>
<g>
</g>
<g>
</g>
<g>
</g>
<g>
</g>
<g>
</g>
<g>
</g>
<g>
</g>
<g>
</g>
<g>
</g>
</svg>
