<?xml version="1.0" encoding="iso-8859-1"?>
<!-- Generator: Adobe Illustrator 18.0.0, SVG Export Plug-In . SVG Version: 6.00 Build 0)  -->
<!DOCTYPE svg PUBLIC "-//W3C//DTD SVG 1.1//EN" "http://www.w3.org/Graphics/SVG/1.1/DTD/svg11.dtd">
<svg version="1.1" id="Capa_1" xmlns="http://www.w3.org/2000/svg" xmlns:xlink="http://www.w3.org/1999/xlink" x="0px" y="0px"
	 viewBox="0 0 59.93 59.93" style="enable-background:new 0 0 59.93 59.93;" xml:space="preserve">
<g>
	<path d="M28.371,9.434c0.141,0.023,0.947,0.151,1.898,0.151c0.648,0,1.363-0.059,1.981-0.251c0.527-0.164,0.822-0.724,0.658-1.251
		c-0.163-0.527-0.717-0.823-1.252-0.659C30.75,7.705,29.215,7.546,28.7,7.461c-0.546-0.094-1.06,0.278-1.15,0.822
		C27.458,8.827,27.826,9.342,28.371,9.434z"/>
	<path d="M58.942,8.651c-0.078-0.123-0.183-0.227-0.306-0.305C50.86,3.41,42.838,2.933,42.5,2.915
		c-0.065-0.003-0.128,0.015-0.193,0.025c-0.276-0.262-0.688-0.357-1.061-0.207c-8.755,3.532-22.355,0.014-22.492-0.022
		c-0.354-0.093-0.702,0.028-0.945,0.267c-0.123-0.045-0.25-0.072-0.379-0.063C17.092,2.933,9.071,3.41,1.293,8.347
		C1.17,8.425,1.066,8.529,0.988,8.651c-0.04,0.062-3.865,6.241,3.813,12.132c0.121,0.093,0.263,0.157,0.412,0.187l6.768,1.354
		v16.413c0,0.399,0.12,0.738,0.216,1.011c0.042,0.119,0.095,0.268,0.1,0.332c0.02,0.261,0.147,0.487,0.33,0.655
		c0.005,0.013,0.002,0.026,0.007,0.038c2.793,6.858,4.592,8.939,10.352,13.956c0.02,0.386,0.249,0.734,0.616,0.88
		c1.759,0.7,4.167,1.66,6.622,1.66h0.485c2.491,0,4.793-0.891,6.937-1.803c0.3-0.128,0.511-0.391,0.582-0.697
		c0.089-0.039,0.178-0.083,0.255-0.151c6.088-5.293,7.043-7.24,9.734-13.846c0.124-0.303,0.073-0.622-0.082-0.882
		c-0.016-0.234-0.047-0.461-0.086-0.666c-0.031-0.167-0.068-0.333-0.068-0.487V22.318l6.736-1.347
		c0.149-0.03,0.291-0.094,0.412-0.187C62.807,14.893,58.982,8.713,58.942,8.651z M31.48,6.319c2.707,0,5.526-0.254,8.141-0.95
		c-1.986,3.234-5.426,6.077-9.641,6.077c-4.148,0-7.705-3.046-9.71-6.338C22.672,5.606,26.912,6.319,31.48,6.319z M5.351,18.641
		C0.6,14.565,2.133,10.76,2.575,9.903C2.886,9.71,3.198,9.527,3.51,9.348C4.289,10.182,5.909,12.693,5.351,18.641z M12.441,20.377
		l-5.151-1.03C7.982,13.075,6.482,9.874,5.312,8.39c4.924-2.426,9.558-3.183,11.394-3.398
		C18.728,14.458,13.789,19.267,12.441,20.377z M15.161,41.619c4.307,1.74,7.359,5.771,7.763,10.389
		C18.883,48.402,17.224,46.354,15.161,41.619z M38.245,52.161c0.388-4.691,3.263-8.689,7.409-10.416
		C43.678,46.476,42.562,48.3,38.245,52.161z M36.2,53.251c0,0.185,0.006,0.415,0.016,0.646c-1.765,0.728-3.624,1.372-5.507,1.372
		h-0.485c-1.816,0-3.664-0.647-5.236-1.262c-0.002-0.169-0.005-0.342-0.009-0.507l-0.007-0.445c0-6.503-4.529-12.244-10.857-13.883
		c-0.01-0.031-0.021-0.061-0.031-0.09c-0.04-0.114-0.101-0.286-0.102-0.345V21.689c1.765-1.558,6.037-6.276,5.065-14.773
		c2.401,3.545,6.297,6.531,10.934,6.531c4.675,0,8.516-2.89,10.881-6.328c-0.887,8.419,3.388,13.081,5.12,14.599v17.02
		c0,0.254,0.038,0.5,0.079,0.726C40.211,41.291,36.2,46.837,36.2,53.251z M47.49,20.377c-1.352-1.114-6.287-5.922-4.266-15.386
		c1.834,0.213,6.463,0.966,11.394,3.399c-1.169,1.484-2.67,4.685-1.977,10.957L47.49,20.377z M54.579,18.641
		c-0.557-5.948,1.062-8.459,1.841-9.294c0.311,0.179,0.623,0.362,0.934,0.555C57.801,10.77,59.323,14.57,54.579,18.641z"/>
	<path d="M39.433,21.937c-0.064-0.282-0.269-0.548-0.523-0.684c-0.557-0.299-1.019-0.122-3.236,0.725
		c-1.382,0.528-4.52,1.729-5.485,1.659c-0.427-0.747-0.344-1.459-0.166-2.596c0.08-0.507,0.162-1.031,0.186-1.614
		c0.017-0.412-0.221-0.792-0.6-0.957c-0.375-0.164-0.817-0.081-1.109,0.212c-0.257,0.258-1.142,0.25-1.854,0.247
		c-1.094-0.008-2.341-0.018-3.189,0.749c-1.078,0.976-1.18,1.727-1.201,2.608c-0.008,0.347-0.016,0.675-0.163,1.122
		c-0.214,0.652-0.609,1.181-1.028,1.742c-0.639,0.856-1.363,1.827-1.444,3.294c-0.03,0.546,0.384,1.016,0.929,1.053
		c0.445,0.031,0.921,0.056,1.413,0.079c0.028,0.82,0.305,1.627,0.834,2.251c0.631,0.747,1.511,1.133,2.52,1.133
		c0.471,0,0.97-0.084,1.485-0.255c1.01-0.334,1.77-1.044,2.141-1.998c0.118-0.305,0.182-0.63,0.215-0.963l1.808-0.075
		c0.046,0.787,0.323,1.557,0.831,2.157c0.631,0.747,1.511,1.133,2.52,1.133c0.471,0,0.97-0.084,1.485-0.255
		c1.01-0.334,1.77-1.044,2.141-1.998c0.014-0.037,0.016-0.079,0.029-0.116c0.693-0.039,1.552-0.318,2.057-0.826
		c0.2-0.202,0.29-0.465,0.282-0.727c0.154-0.171,0.259-0.39,0.265-0.638c0.029-1.211-0.547-3.894-1.113-6.358L39.433,21.937z
		 M27.074,29.983c-0.155,0.398-0.46,0.676-0.905,0.823c-0.577,0.191-1.366,0.299-1.85-0.271c-0.274-0.324-0.385-0.805-0.345-1.264
		c0.146-0.168,0.247-0.378,0.255-0.618c0.001-0.043-0.017-0.08-0.021-0.121c0.085-0.13,0.183-0.243,0.303-0.325
		c0.236,0.086,0.504,0.085,0.752-0.025c0.144-0.064,0.272-0.118,0.389-0.165c0.189-0.008,0.368-0.07,0.518-0.172
		c0.451-0.107,0.547,0.056,0.692,0.316C27.201,28.769,27.281,29.45,27.074,29.983z M36.074,29.983
		c-0.155,0.398-0.46,0.676-0.905,0.823c-0.578,0.191-1.366,0.299-1.85-0.271c-0.258-0.306-0.368-0.751-0.348-1.185
		c0.216-0.192,0.357-0.466,0.344-0.778c-0.002-0.052-0.026-0.096-0.036-0.145c0.069-0.085,0.144-0.161,0.232-0.22
		c0.235,0.086,0.505,0.085,0.752-0.025c0.144-0.064,0.272-0.118,0.389-0.165c0.189-0.008,0.368-0.07,0.518-0.172
		c0.452-0.107,0.547,0.056,0.692,0.316C36.201,28.769,36.281,29.45,36.074,29.983z M38.086,28.571
		c-0.089-0.474-0.233-0.946-0.48-1.386c-0.887-1.585-2.248-1.497-3.256-1.183c-1.271-0.031-2.362,0.578-2.951,1.648l-2.548,0.105
		c-0.076-0.192-0.143-0.387-0.246-0.57c-0.888-1.585-2.248-1.497-3.256-1.183c-1.244-0.03-2.318,0.557-2.914,1.59
		c-0.189-0.008-0.388-0.013-0.571-0.022c0.192-0.411,0.477-0.791,0.8-1.224c0.473-0.634,1.009-1.352,1.325-2.314
		c0.239-0.728,0.253-1.289,0.263-1.699c0.013-0.549,0.017-0.696,0.543-1.173c0.271-0.245,1.134-0.236,1.833-0.232
		c0.451,0.003,0.929,0.008,1.393-0.043c-0.189,1.224-0.356,2.598,0.614,4.041c0.937,1.393,3.553,0.522,7.75-1.08
		c0.433-0.165,0.921-0.352,1.318-0.495c0.348,1.542,0.889,4.083,0.866,4.998c0,0.009,0.004,0.016,0.004,0.024
		C38.484,28.447,38.287,28.526,38.086,28.571z"/>
	<circle cx="27.981" cy="50.268" r="1"/>
	<circle cx="32.981" cy="50.268" r="1"/>
</g>
<g>
</g>
<g>
</g>
<g>
</g>
<g>
</g>
<g>
</g>
<g>
</g>
<g>
</g>
<g>
</g>
<g>
</g>
<g>
</g>
<g>
</g>
<g>
</g>
<g>
</g>
<g>
</g>
<g>
</g>
</svg>
