<?xml version="1.0" encoding="iso-8859-1"?>
<!-- Generator: Adobe Illustrator 18.0.0, SVG Export Plug-In . SVG Version: 6.00 Build 0)  -->
<!DOCTYPE svg PUBLIC "-//W3C//DTD SVG 1.1//EN" "http://www.w3.org/Graphics/SVG/1.1/DTD/svg11.dtd">
<svg version="1.1" id="Capa_1" xmlns="http://www.w3.org/2000/svg" xmlns:xlink="http://www.w3.org/1999/xlink" x="0px" y="0px"
	 viewBox="0 0 59.929 59.929" style="enable-background:new 0 0 59.929 59.929;" xml:space="preserve">
<g>
	<path d="M28.37,9.433c0.141,0.023,0.948,0.151,1.899,0.151c0.647,0,1.363-0.059,1.98-0.251c0.528-0.164,0.822-0.724,0.659-1.251
		c-0.164-0.528-0.726-0.821-1.251-0.659c-0.909,0.282-2.442,0.122-2.957,0.037c-0.541-0.092-1.059,0.278-1.15,0.822
		C27.458,8.827,27.826,9.342,28.37,9.433z"/>
	<path d="M58.941,8.651c-0.078-0.123-0.183-0.227-0.306-0.305C50.859,3.409,42.838,2.932,42.5,2.914
		c-0.066-0.002-0.128,0.016-0.192,0.026c-0.274-0.261-0.684-0.357-1.062-0.207C32.493,6.265,18.89,2.745,18.754,2.71
		c-0.354-0.092-0.702,0.028-0.945,0.266C17.69,2.935,17.563,2.91,17.43,2.914C17.092,2.932,9.07,3.409,1.293,8.346
		C1.17,8.424,1.066,8.528,0.987,8.651C0.948,8.713-2.877,14.892,4.8,20.783c0.122,0.093,0.263,0.157,0.413,0.187l6.768,1.354v16.413
		c0,0.399,0.12,0.738,0.216,1.011c0.042,0.119,0.095,0.268,0.1,0.332c0.019,0.26,0.146,0.487,0.329,0.654
		c0.005,0.013,0.002,0.026,0.007,0.038c2.794,6.858,4.593,8.939,10.353,13.957c0.02,0.386,0.249,0.734,0.616,0.88
		c1.759,0.7,4.167,1.66,6.622,1.66h0.485c2.49,0,4.793-0.891,6.938-1.803c0.3-0.128,0.511-0.391,0.581-0.697
		c0.089-0.039,0.177-0.083,0.255-0.151c6.089-5.294,7.044-7.241,9.734-13.846c0.124-0.303,0.073-0.622-0.082-0.882
		c-0.016-0.234-0.047-0.461-0.086-0.666c-0.031-0.167-0.068-0.333-0.068-0.487V22.318l6.736-1.347
		c0.149-0.03,0.291-0.094,0.412-0.187C62.807,14.892,58.981,8.713,58.941,8.651z M52.641,19.346l-0.951,0.19
		C51.074,12.171,52.69,8.98,53.52,7.871c0.364,0.163,0.73,0.336,1.098,0.518C53.449,9.872,51.948,13.074,52.641,19.346z
		 M43.224,4.99c1.454,0.169,4.666,0.678,8.391,2.091c-1.143,1.747-2.554,5.481-1.899,12.85l-2.226,0.445
		C46.138,19.262,41.202,14.454,43.224,4.99z M31.48,6.319c2.707,0,5.525-0.254,8.14-0.95c-1.986,3.234-5.426,6.077-9.641,6.077
		c-4.148,0-7.704-3.046-9.71-6.338C22.672,5.605,26.912,6.319,31.48,6.319z M12.44,20.376l-2.226-0.445
		c0.654-7.366-0.755-11.1-1.898-12.848c3.72-1.41,6.934-1.922,8.39-2.092C18.728,14.457,13.788,19.266,12.44,20.376z M5.312,8.389
		C5.68,8.208,6.046,8.035,6.41,7.872c0.83,1.11,2.446,4.302,1.831,11.664l-0.951-0.19C7.982,13.074,6.481,9.873,5.312,8.389z
		 M2.575,9.903C2.886,9.709,3.198,9.527,3.51,9.347c0.78,0.835,2.399,3.346,1.841,9.293C0.6,14.564,2.133,10.759,2.575,9.903z
		 M15.161,41.618c4.307,1.741,7.359,5.771,7.763,10.389C18.883,48.402,17.224,46.354,15.161,41.618z M30.708,55.268h-0.485
		c-1.815,0-3.664-0.647-5.236-1.262c-0.001-0.169-0.005-0.341-0.009-0.504l-0.007-0.447c0-6.503-4.53-12.244-10.857-13.883
		c-0.011-0.031-0.021-0.061-0.032-0.09c-0.04-0.114-0.101-0.286-0.102-0.345V21.688c1.765-1.558,6.037-6.277,5.065-14.772
		c2.402,3.545,6.298,6.531,10.934,6.531c4.674,0,8.515-2.89,10.88-6.328c-0.887,8.418,3.388,13.079,5.12,14.598v17.021
		c0,0.254,0.038,0.5,0.079,0.726c-5.848,1.828-9.86,7.374-9.86,13.789c0,0.185,0.006,0.415,0.016,0.646
		C34.45,54.624,32.59,55.268,30.708,55.268z M38.245,52.16c0.388-4.691,3.263-8.688,7.408-10.415
		C43.679,46.475,42.562,48.299,38.245,52.16z M54.579,18.641c-0.557-5.948,1.062-8.459,1.841-9.294
		c0.311,0.179,0.623,0.362,0.934,0.555C57.8,10.769,59.323,14.569,54.579,18.641z"/>
	<path d="M32.505,31.311c2.125,1.245,4.9,1.966,6.761,1.291c0.334-0.121,0.58-0.41,0.644-0.759c0.345-1.871,0.134-3.218-0.645-4.118
		c-0.836-0.966-2.092-1.187-3.437-1.207c1.181-0.588,2.25-1.465,2.659-3.052c0.549-2.13-0.023-3.161-0.599-3.651
		c-0.533-0.454-1.523-0.835-3.214-0.092c-1.126,0.495-2.088,1.542-2.872,2.717c-0.076-1.567-0.397-3.055-1.368-3.846
		c-0.456-0.372-1.253-0.746-2.47-0.435c-1.504,0.39-2.048,1.297-2.239,1.989c-0.381,1.38,0.347,3.039,1.205,4.388
		c-1.008-0.087-2.053-0.04-2.917,0.134c-1.383,0.277-2.338,0.87-2.762,1.712c-0.669,1.327-0.364,2.174,0.01,2.65
		c0.891,1.136,2.899,1.167,5.691,0.67c-0.874,1.395-1.505,3.101-1.329,4.594c0.169,1.437,1.066,2.508,2.524,3.016
		c0.469,0.164,0.887,0.23,1.258,0.23c1.109,0,1.796-0.603,2.147-1.038C32.521,35.303,32.708,33.202,32.505,31.311z M27.653,20.681
		c0.03-0.11,0.111-0.403,0.813-0.585c0.154-0.04,0.275-0.055,0.371-0.055c0.208,0,0.294,0.07,0.334,0.103
		c0.765,0.624,0.673,3.359,0.598,4.894C28.584,23.634,27.393,21.622,27.653,20.681z M22.856,27.845
		c-0.007-0.042,0.011-0.226,0.18-0.562c0.097-0.193,0.514-0.479,1.37-0.651c0.492-0.099,1.01-0.141,1.516-0.141
		c1.387,0,2.676,0.317,3.066,0.651c0.03,0.026,0.062,0.05,0.095,0.072c-0.078,0.018-0.162,0.037-0.252,0.058
		C23.92,28.402,22.996,27.957,22.856,27.845z M29.994,35.251c-0.129,0.16-0.368,0.459-1.189,0.174
		c-0.747-0.26-1.115-0.681-1.196-1.362c-0.188-1.586,1.225-3.955,2.36-4.905C30.645,30.625,30.91,34.114,29.994,35.251z
		 M35.479,21.554c0.453-0.199,0.753-0.249,0.927-0.249c0.111,0,0.171,0.02,0.188,0.034c0.065,0.055,0.25,0.494-0.042,1.628
		c-0.343,1.331-1.471,1.787-3.283,2.421c-0.336,0.118-0.677,0.237-1.013,0.368C33.112,23.877,34.264,22.088,35.479,21.554z
		 M34.4,28.549c1.393-0.054,2.838-0.11,3.354,0.485c0.281,0.325,0.377,0.945,0.284,1.811c-1.758,0.211-4.597-1.003-5.938-2.299
		C32.85,28.609,33.633,28.579,34.4,28.549z"/>
	<circle cx="27.98" cy="50.268" r="1"/>
	<circle cx="32.98" cy="50.268" r="1"/>
</g>
<g>
</g>
<g>
</g>
<g>
</g>
<g>
</g>
<g>
</g>
<g>
</g>
<g>
</g>
<g>
</g>
<g>
</g>
<g>
</g>
<g>
</g>
<g>
</g>
<g>
</g>
<g>
</g>
<g>
</g>
</svg>
