<?xml version="1.0" encoding="iso-8859-1"?>
<!-- Generator: Adobe Illustrator 18.0.0, SVG Export Plug-In . SVG Version: 6.00 Build 0)  -->
<!DOCTYPE svg PUBLIC "-//W3C//DTD SVG 1.1//EN" "http://www.w3.org/Graphics/SVG/1.1/DTD/svg11.dtd">
<svg version="1.1" id="Capa_1" xmlns="http://www.w3.org/2000/svg" xmlns:xlink="http://www.w3.org/1999/xlink" x="0px" y="0px"
	 viewBox="0 0 52.418 52.418" style="enable-background:new 0 0 52.418 52.418;" xml:space="preserve">
<g>
	<path d="M41.199,10.418h-1.49V6.509c0-2.155-1.064-4.167-2.846-5.38c-1.781-1.213-4.043-1.466-6.049-0.677L5.342,10.487
		c-0.004,0.002-0.007,0.005-0.011,0.007c-0.034,0.014-0.059,0.039-0.091,0.056c-0.078,0.042-0.153,0.086-0.215,0.145
		c-0.032,0.03-0.053,0.067-0.081,0.101c-0.049,0.061-0.095,0.121-0.129,0.191c-0.02,0.042-0.031,0.087-0.046,0.132
		c-0.024,0.074-0.04,0.148-0.046,0.227c-0.002,0.025-0.014,0.046-0.014,0.071v35.27c0,3.16,2.571,5.73,5.731,5.73h30.759
		c3.589,0,6.51-2.92,6.51-6.51v-28.98C47.709,13.337,44.788,10.418,41.199,10.418z M31.547,2.314c1.41-0.556,2.937-0.385,4.19,0.468
		c1.253,0.854,1.972,2.212,1.972,3.728v3.908H10.975L31.547,2.314z M45.709,45.908c0,2.486-2.023,4.51-4.51,4.51H10.44
		c-2.057,0-3.731-1.674-3.731-3.73v-34.27h32h2.49c2.487,0,4.51,2.023,4.51,4.51V45.908z"/>
	<path d="M40.89,26.628l-9.18-1.335l-4.105-8.317c-0.338-0.684-1.456-0.684-1.794,0l-4.105,8.317l-9.18,1.335
		c-0.376,0.055-0.689,0.318-0.807,0.681c-0.118,0.361-0.02,0.759,0.253,1.024l6.642,6.475l-1.568,9.143
		c-0.064,0.375,0.09,0.754,0.398,0.978c0.309,0.225,0.717,0.255,1.053,0.076l8.21-4.316l8.21,4.316
		c0.146,0.077,0.306,0.115,0.465,0.115c0.207,0,0.414-0.064,0.588-0.191c0.308-0.224,0.462-0.603,0.398-0.978l-1.568-9.143
		l6.642-6.475c0.273-0.266,0.371-0.663,0.253-1.024C41.58,26.946,41.267,26.682,40.89,26.628z M33.03,33.742
		c-0.236,0.229-0.343,0.561-0.288,0.885l1.315,7.664l-6.882-3.618c-0.146-0.077-0.306-0.115-0.465-0.115s-0.32,0.038-0.465,0.115
		l-6.882,3.618l1.315-7.664c0.055-0.324-0.052-0.655-0.288-0.885l-5.568-5.427l7.695-1.119c0.326-0.047,0.607-0.252,0.753-0.547
		l3.441-6.972l3.441,6.972c0.146,0.295,0.427,0.5,0.753,0.547l7.695,1.119L33.03,33.742z"/>
</g>
<g>
</g>
<g>
</g>
<g>
</g>
<g>
</g>
<g>
</g>
<g>
</g>
<g>
</g>
<g>
</g>
<g>
</g>
<g>
</g>
<g>
</g>
<g>
</g>
<g>
</g>
<g>
</g>
<g>
</g>
</svg>
