<?xml version="1.0" encoding="iso-8859-1"?>
<!-- Generator: Adobe Illustrator 18.0.0, SVG Export Plug-In . SVG Version: 6.00 Build 0)  -->
<!DOCTYPE svg PUBLIC "-//W3C//DTD SVG 1.1//EN" "http://www.w3.org/Graphics/SVG/1.1/DTD/svg11.dtd">
<svg version="1.1" id="Capa_1" xmlns="http://www.w3.org/2000/svg" xmlns:xlink="http://www.w3.org/1999/xlink" x="0px" y="0px"
	 viewBox="0 0 60 60" style="enable-background:new 0 0 60 60;" xml:space="preserve">
<path d="M52,45.233v-16H40v-10h6.301L30,1.767L13.699,19.233H20v10H8v16H0v13h12h10v-11v-1.869c0-2.222,1.144-5.382,2.993-6.615
	c3.042-2.028,6.974-2.028,10.015,0C36.856,39.981,38,43.142,38,45.364v1.869v11h10h12v-13H52z M18.301,17.233L30,4.699
	l11.699,12.534H40H20H18.301z M38,19.233v4H22v-4H38z M22,25.233h16v4H22V25.233z M2,56.233v-9h6h2v9H2z M20,56.233h-8v-9h8V56.233z
	 M23.883,37.085c-2.482,1.655-3.84,5.4-3.882,8.147H12h-2v-14h10h9v4.045C27.21,35.442,25.449,36.041,23.883,37.085z M36.117,37.085
	C34.551,36.04,32.79,35.442,31,35.278v-4.045h9h10v14h-2h-8.001C39.957,42.485,38.6,38.739,36.117,37.085z M40,56.233v-9h8v9H40z
	 M58,56.233h-8v-9h2h6V56.233z"/>
<g>
</g>
<g>
</g>
<g>
</g>
<g>
</g>
<g>
</g>
<g>
</g>
<g>
</g>
<g>
</g>
<g>
</g>
<g>
</g>
<g>
</g>
<g>
</g>
<g>
</g>
<g>
</g>
<g>
</g>
</svg>
