<?xml version="1.0" encoding="iso-8859-1"?>
<!-- Generator: Adobe Illustrator 18.0.0, SVG Export Plug-In . SVG Version: 6.00 Build 0)  -->
<!DOCTYPE svg PUBLIC "-//W3C//DTD SVG 1.1//EN" "http://www.w3.org/Graphics/SVG/1.1/DTD/svg11.dtd">
<svg version="1.1" id="Capa_1" xmlns="http://www.w3.org/2000/svg" xmlns:xlink="http://www.w3.org/1999/xlink" x="0px" y="0px"
	 viewBox="0 0 59.674 59.674" style="enable-background:new 0 0 59.674 59.674;" xml:space="preserve">
<g>
	<path d="M24.702,21.447c-0.876-0.061-10.256-0.529-14.897,6.858c-0.193,0.309-0.205,0.697-0.028,1.016
		c0.176,0.318,0.511,0.516,0.875,0.516h25.022c0.289,0,0.564-0.125,0.754-0.344c0.19-0.218,0.276-0.508,0.236-0.794
		c-0.011-0.08-0.291-1.973-1.973-3.801C33.198,23.273,30.255,21.363,24.702,21.447z M24.594,23.445
		c0.032,0.002,0.07,0.002,0.097,0.003c0.333-0.006,0.648,0,0.96,0.009v4.381H12.654C17.072,22.921,24.511,23.434,24.594,23.445z
		 M27.651,27.837v-4.212c4.316,0.635,6.005,2.836,6.651,4.212H27.651z"/>
	<path d="M15.673,40.837c-2.206,0-4,1.794-4,4s1.794,4,4,4s4-1.794,4-4S17.879,40.837,15.673,40.837z M15.673,46.837
		c-1.103,0-2-0.897-2-2s0.897-2,2-2s2,0.897,2,2S16.776,46.837,15.673,46.837z"/>
	<path d="M43.673,40.837c-2.206,0-4,1.794-4,4s1.794,4,4,4s4-1.794,4-4S45.879,40.837,43.673,40.837z M43.673,46.837
		c-1.103,0-2-0.897-2-2s0.897-2,2-2s2,0.897,2,2S44.776,46.837,43.673,46.837z"/>
	<path d="M26.651,31.837h-4.978c-0.553,0-1,0.448-1,1s0.447,1,1,1h3.978v2.333c0,0.552,0.447,1,1,1s1-0.448,1-1v-3.333
		C27.651,32.285,27.203,31.837,26.651,31.837z"/>
	<path d="M58.023,35.949c-0.146-0.275-0.301-0.545-0.465-0.81c-0.203-0.327-0.43-0.661-0.676-0.996
		c-0.016-0.022-0.031-0.045-0.048-0.067c-0.222-0.299-0.466-0.597-0.725-0.893c-0.026-0.03-0.052-0.059-0.078-0.089
		c-0.502-0.564-1.075-1.112-1.727-1.623c-0.003-0.002-0.005-0.004-0.007-0.006c0,0-0.001,0-0.001,0
		c-2.03-1.589-4.816-2.794-8.621-2.794h-4.099c-0.454-3.012-2.979-11.831-16.96-11.831c-0.001,0-0.003,0-0.004,0
		c-0.434,0.027-9.625,0.653-16.961,4.95v-8.094c1.72-0.447,3-2,3-3.858c0-2.206-1.794-4-4-4s-4,1.794-4,4
		c0,1.858,1.28,3.411,3,3.858v9.396c-0.208,0.151-0.414,0.304-0.616,0.462c-2.562,2.003-2.427,4.356-2.308,6.431
		c0.078,1.368,0.152,2.66-0.438,3.963c-1.035,2.29-1.777,4.452-2.206,6.429c-0.243,1.123,0.05,2.269,0.823,3.228
		c1.128,1.398,3.096,2.233,5.264,2.233h0.562c0.499,4.493,4.316,8,8.941,8s8.442-3.507,8.941-8h10.118c0.499,4.493,4.316,8,8.941,8
		s8.442-3.507,8.941-8h2.989c2.283,0,4.071-1.414,4.071-3.218C59.674,40.237,59.118,37.998,58.023,35.949z M4.651,9.837
		c0-1.103,0.897-2,2-2s2,0.897,2,2s-0.897,2-2,2S4.651,10.94,4.651,9.837z M56.664,37.736c-1.906-0.344-3.355-1.52-3.355-2.871
		c0-0.491,0.187-0.908,0.435-1.246c0.001,0.001,0.001,0.001,0.002,0.002c0.384,0.353,0.744,0.738,1.084,1.148
		c0.016,0.02,0.035,0.036,0.051,0.057c0.35,0.427,0.677,0.883,0.977,1.368C56.163,36.686,56.433,37.201,56.664,37.736z
		 M15.673,51.837c-3.858,0-6.998-3.138-7-6.996c0-0.001,0.001-0.003,0.001-0.004c0-3.86,3.14-7,7-7c3.859,0,7,3.14,7,7
		C22.673,48.697,19.533,51.837,15.673,51.837z M43.673,51.837c-3.858,0-6.998-3.138-7-6.996c0-0.001,0.001-0.003,0.001-0.004
		c0-3.86,3.14-7,7-7c3.618,0,6.604,2.76,6.963,6.285c0.006,0.061,0.005,0.125,0.01,0.187c0.013,0.175,0.027,0.35,0.027,0.529
		C50.673,48.697,47.533,51.837,43.673,51.837z M55.603,43.837h-2.984c-0.028-0.25-0.069-0.496-0.117-0.739
		c-0.005-0.025-0.007-0.052-0.012-0.077c-0.059-0.286-0.132-0.567-0.217-0.843c-0.019-0.062-0.045-0.122-0.066-0.183
		c-0.07-0.208-0.142-0.415-0.226-0.616c-0.039-0.093-0.085-0.182-0.127-0.273c-0.076-0.165-0.151-0.33-0.236-0.49
		c-0.053-0.099-0.112-0.194-0.168-0.29c-0.085-0.146-0.17-0.291-0.262-0.431c-0.065-0.098-0.135-0.193-0.204-0.288
		c-0.094-0.131-0.189-0.262-0.29-0.388c-0.076-0.094-0.155-0.185-0.235-0.276c-0.104-0.119-0.209-0.237-0.319-0.351
		c-0.085-0.088-0.173-0.173-0.262-0.258c-0.113-0.108-0.229-0.214-0.348-0.316c-0.094-0.081-0.189-0.159-0.286-0.235
		c-0.123-0.097-0.248-0.19-0.375-0.281c-0.101-0.072-0.202-0.142-0.306-0.21c-0.132-0.086-0.267-0.166-0.403-0.245
		c-0.107-0.062-0.213-0.123-0.323-0.181c-0.142-0.074-0.287-0.142-0.433-0.209c-0.111-0.051-0.22-0.102-0.333-0.149
		c-0.153-0.063-0.31-0.117-0.468-0.172c-0.112-0.039-0.222-0.08-0.336-0.114c-0.167-0.05-0.338-0.091-0.51-0.131
		c-0.109-0.026-0.217-0.056-0.327-0.078c-0.193-0.038-0.39-0.064-0.587-0.09c-0.093-0.012-0.184-0.03-0.278-0.04
		c-0.293-0.029-0.589-0.045-0.89-0.045h0c0,0,0,0,0,0c-0.005,0-0.009,0.001-0.013,0.001c-0.295,0-0.587,0.016-0.875,0.044
		c-0.102,0.01-0.201,0.03-0.302,0.043c-0.188,0.025-0.376,0.049-0.561,0.086c-0.118,0.023-0.233,0.056-0.35,0.084
		c-0.163,0.039-0.326,0.077-0.485,0.125c-0.122,0.037-0.24,0.081-0.359,0.122c-0.149,0.052-0.298,0.103-0.443,0.162
		c-0.121,0.049-0.238,0.104-0.356,0.159c-0.138,0.063-0.275,0.127-0.409,0.197c-0.118,0.061-0.232,0.128-0.346,0.194
		c-0.128,0.074-0.254,0.149-0.378,0.23c-0.113,0.073-0.223,0.149-0.332,0.227c-0.118,0.084-0.233,0.17-0.346,0.259
		c-0.107,0.084-0.211,0.17-0.314,0.259c-0.108,0.093-0.213,0.189-0.316,0.287c-0.099,0.094-0.197,0.189-0.292,0.288
		c-0.098,0.102-0.192,0.207-0.285,0.313c-0.091,0.104-0.182,0.208-0.268,0.316c-0.087,0.109-0.169,0.223-0.251,0.336
		c-0.082,0.113-0.165,0.225-0.241,0.342c-0.076,0.116-0.146,0.236-0.217,0.356c-0.072,0.122-0.146,0.242-0.213,0.367
		c-0.065,0.123-0.122,0.25-0.182,0.376c-0.061,0.128-0.125,0.255-0.18,0.387c-0.054,0.13-0.098,0.266-0.146,0.399
		c-0.048,0.134-0.102,0.265-0.144,0.402c-0.045,0.146-0.077,0.296-0.115,0.445c-0.065,0.259-0.119,0.523-0.161,0.79
		c-0.021,0.135-0.049,0.268-0.064,0.404H24.619c-0.028-0.25-0.07-0.497-0.118-0.74c-0.005-0.025-0.007-0.05-0.012-0.075
		c-0.059-0.287-0.132-0.568-0.217-0.844c-0.018-0.057-0.041-0.111-0.06-0.168c-0.071-0.214-0.146-0.426-0.232-0.633
		c-0.037-0.088-0.081-0.172-0.12-0.259c-0.078-0.17-0.156-0.34-0.243-0.504c-0.051-0.095-0.108-0.185-0.161-0.278
		c-0.087-0.15-0.175-0.3-0.271-0.445c-0.062-0.094-0.129-0.184-0.194-0.275c-0.098-0.136-0.196-0.272-0.301-0.402
		c-0.072-0.09-0.148-0.176-0.224-0.263c-0.108-0.124-0.217-0.246-0.331-0.364c-0.081-0.084-0.165-0.165-0.25-0.246
		c-0.117-0.112-0.237-0.222-0.36-0.328c-0.09-0.077-0.181-0.152-0.274-0.226c-0.127-0.101-0.256-0.197-0.389-0.291
		c-0.097-0.069-0.194-0.136-0.294-0.201c-0.136-0.089-0.276-0.172-0.418-0.254c-0.103-0.059-0.205-0.118-0.31-0.173
		c-0.146-0.077-0.296-0.146-0.446-0.215c-0.107-0.049-0.213-0.099-0.322-0.144c-0.157-0.064-0.317-0.12-0.478-0.175
		c-0.109-0.037-0.216-0.078-0.326-0.111c-0.17-0.051-0.345-0.092-0.519-0.134c-0.106-0.025-0.211-0.055-0.318-0.076
		c-0.195-0.039-0.394-0.065-0.593-0.091c-0.091-0.012-0.181-0.03-0.273-0.039c-0.293-0.029-0.589-0.045-0.89-0.045h0c0,0,0,0,0,0
		c-0.005,0-0.009,0.001-0.013,0.001c-0.295,0-0.587,0.016-0.875,0.044c-0.102,0.01-0.201,0.03-0.302,0.043
		c-0.188,0.025-0.376,0.049-0.561,0.086c-0.118,0.023-0.233,0.056-0.35,0.084c-0.163,0.039-0.326,0.077-0.485,0.125
		c-0.122,0.037-0.24,0.081-0.359,0.122c-0.149,0.052-0.298,0.103-0.443,0.162c-0.121,0.049-0.238,0.104-0.356,0.159
		c-0.138,0.063-0.275,0.127-0.409,0.197c-0.118,0.061-0.232,0.128-0.346,0.194c-0.128,0.074-0.254,0.149-0.378,0.23
		c-0.113,0.073-0.223,0.149-0.332,0.227c-0.118,0.084-0.233,0.17-0.346,0.259c-0.107,0.084-0.211,0.17-0.314,0.259
		c-0.108,0.093-0.213,0.189-0.316,0.287c-0.099,0.094-0.197,0.189-0.292,0.288c-0.098,0.102-0.192,0.207-0.285,0.313
		c-0.091,0.104-0.182,0.208-0.268,0.316c-0.087,0.109-0.169,0.223-0.251,0.336c-0.082,0.113-0.165,0.225-0.241,0.342
		c-0.076,0.116-0.146,0.236-0.217,0.356c-0.072,0.122-0.146,0.242-0.213,0.367c-0.065,0.123-0.122,0.25-0.182,0.376
		c-0.061,0.128-0.125,0.255-0.18,0.387c-0.054,0.13-0.098,0.266-0.146,0.399c-0.048,0.134-0.102,0.265-0.144,0.402
		c-0.045,0.146-0.077,0.296-0.115,0.445c-0.065,0.259-0.119,0.523-0.161,0.79C6.773,43.568,6.745,43.7,6.73,43.837H6.17
		c-1.546,0-2.966-0.57-3.707-1.489c-0.397-0.493-0.541-1.014-0.425-1.549c0.398-1.839,1.097-3.867,2.073-6.028
		c0.792-1.752,0.696-3.425,0.612-4.902c-0.113-1.964-0.194-3.383,1.543-4.742c7.049-5.513,18.356-6.285,18.407-6.291
		c14.683,0,14.994,10.4,15,10.84c0.004,0.549,0.45,0.993,1,0.993h5c2.5,0,4.658,0.599,6.483,1.744
		c-0.549,0.74-0.849,1.58-0.849,2.451c0,2.624,2.673,4.775,6.045,4.955c0.209,0.904,0.32,1.837,0.32,2.799
		C57.674,43.194,56.788,43.837,55.603,43.837z"/>
</g>
<g>
</g>
<g>
</g>
<g>
</g>
<g>
</g>
<g>
</g>
<g>
</g>
<g>
</g>
<g>
</g>
<g>
</g>
<g>
</g>
<g>
</g>
<g>
</g>
<g>
</g>
<g>
</g>
<g>
</g>
</svg>
