<?xml version="1.0" encoding="iso-8859-1"?>
<!-- Generator: Adobe Illustrator 18.0.0, SVG Export Plug-In . SVG Version: 6.00 Build 0)  -->
<!DOCTYPE svg PUBLIC "-//W3C//DTD SVG 1.1//EN" "http://www.w3.org/Graphics/SVG/1.1/DTD/svg11.dtd">
<svg version="1.1" id="Capa_1" xmlns="http://www.w3.org/2000/svg" xmlns:xlink="http://www.w3.org/1999/xlink" x="0px" y="0px"
	 viewBox="0 0 56.436 56.436" style="enable-background:new 0 0 56.436 56.436;" xml:space="preserve">
<g>
	<path d="M52.814,28.27c-1.417-1.417-2.96-2.016-4.58-1.786c-0.734,0.105-1.416,0.384-2.042,0.753l2.588-10.629l0.027-0.196
		c0.076-1.892-0.954-3.539-2.688-4.298c-0.267-0.117-0.538-0.199-0.811-0.263l1.064-2.079c0.899-1.757,1.01-3.822,0.303-5.665
		c-0.675-1.76-1.993-3.092-3.713-3.75c-0.194-0.074-0.384-0.136-0.567-0.186h-0.001c-1.287-0.344-2.633-0.166-3.791,0.504
		c-1.101,0.635-1.889,1.646-2.262,2.847c-2.297-1.349-5.124-2.087-8.122-2.087s-5.826,0.738-8.122,2.087
		c-0.373-1.201-1.161-2.212-2.262-2.847c-1.158-0.67-2.505-0.848-3.792-0.504c-0.184,0.05-0.373,0.111-0.568,0.187
		c-1.719,0.657-3.037,1.989-3.712,3.749c-0.707,1.843-0.597,3.908,0.303,5.665l1.06,2.07c-0.289,0.065-0.576,0.148-0.858,0.271
		c-1.733,0.76-2.765,2.406-2.688,4.299l2.612,10.792c-0.611-0.352-1.275-0.618-1.986-0.719c-1.623-0.232-3.163,0.368-4.58,1.786
		c-1.749,1.748-2.551,3.549-2.383,5.353c0.24,2.589,2.432,4.116,2.465,4.136l6.944,5.555l-1.932,2.704
		c-1.033,1.447-1.033,3.391,0,4.838c2.497,3.495,6.551,5.581,10.845,5.581h17.312c4.294,0,8.348-2.086,10.845-5.581
		c1.033-1.447,1.033-3.391,0-4.838l-1.932-2.705l6.884-5.51c0.094-0.063,2.285-1.591,2.525-4.18
		C55.364,31.818,54.563,30.018,52.814,28.27z M39.27,37.299c-0.076,0.238-0.18,0.467-0.295,0.69
		c-0.038,0.073-0.073,0.148-0.115,0.219c-0.118,0.201-0.257,0.391-0.407,0.574c-0.06,0.073-0.12,0.145-0.184,0.214
		c-0.163,0.174-0.337,0.334-0.523,0.479c-0.066,0.052-0.135,0.101-0.204,0.149c-0.746,0.516-1.634,0.811-2.557,0.811h-1.769
		c0.007-0.026,0.023-0.048,0.029-0.075l3.453-17.265l1.063-0.851L39.4,35.372c0.06,0.483,0.037,0.98-0.066,1.478
		c-0.004,0.018-0.008,0.034-0.011,0.051l0.033,0.007c-0.019,0.084-0.026,0.171-0.05,0.254C39.293,37.207,39.285,37.254,39.27,37.299
		z M18.895,39.625c-0.069-0.048-0.138-0.098-0.204-0.149c-0.186-0.145-0.361-0.304-0.523-0.479
		c-0.064-0.069-0.125-0.142-0.184-0.214c-0.15-0.183-0.289-0.372-0.407-0.574c-0.042-0.071-0.077-0.146-0.115-0.219
		c-0.115-0.223-0.219-0.452-0.295-0.69c-0.014-0.045-0.023-0.091-0.036-0.137c-0.052-0.182-0.081-0.368-0.109-0.555
		c-0.02-0.128-0.043-0.257-0.052-0.385c-0.018-0.281-0.02-0.565,0.015-0.849L18.61,22.36l0.919,0.735l3.468,17.34h-1.545
		C20.528,40.436,19.641,40.141,18.895,39.625z M37.282,18.436l0.186,1.48l-2.59,2.072l-3.175,15.874
		c-0.034-0.033-0.075-0.058-0.109-0.09c-0.135-0.124-0.274-0.239-0.422-0.348c-0.098-0.073-0.196-0.143-0.3-0.208
		c-0.159-0.1-0.325-0.187-0.495-0.269c-0.106-0.051-0.209-0.105-0.319-0.149c-0.056-0.022-0.11-0.049-0.167-0.069l3.169-15.845
		l3.059-2.447H37.282z M32.916,18.436l-1.675,1.34L28.113,35.42l-3.129-15.644l-1.675-1.34h0.803h8.211H32.916z M23.166,20.883
		l3.185,15.921c-0.002,0.001-0.004,0.002-0.006,0.003c-0.099,0.04-0.19,0.093-0.286,0.139c-0.17,0.082-0.336,0.169-0.495,0.269
		c-0.057,0.036-0.117,0.065-0.173,0.103c-0.036,0.025-0.065,0.057-0.1,0.083c-0.009,0.007-0.017,0.015-0.027,0.022
		c-0.147,0.109-0.287,0.224-0.422,0.348c-0.075,0.069-0.152,0.135-0.223,0.209c-0.019,0.02-0.044,0.034-0.063,0.054l-3.209-16.046
		l-2.447-1.956l0.199-1.596h1.007L23.166,20.883z M25.275,40.866c0.012-0.064,0.034-0.123,0.051-0.185
		c0.031-0.119,0.064-0.236,0.108-0.349c0.028-0.07,0.063-0.135,0.095-0.202c0.047-0.097,0.097-0.193,0.155-0.284
		c0.043-0.068,0.09-0.133,0.138-0.197c0.06-0.08,0.122-0.156,0.19-0.23c0.059-0.064,0.12-0.127,0.185-0.186
		c0.064-0.059,0.132-0.113,0.202-0.166c0.08-0.061,0.16-0.121,0.246-0.174c0.057-0.035,0.117-0.064,0.177-0.096
		c0.107-0.056,0.215-0.113,0.33-0.156c0.031-0.012,0.065-0.019,0.096-0.03c0.142-0.048,0.287-0.092,0.439-0.119l0.025-0.005
		c0.165-0.028,0.333-0.051,0.506-0.051c0.063,0,0.122,0.015,0.185,0.019l0.192,0.024c0.97,0.122,1.813,0.719,2.262,1.561
		c0.016,0.03,0.034,0.06,0.049,0.091c0.05,0.101,0.092,0.207,0.13,0.315c0.11,0.312,0.181,0.642,0.181,0.991c0,1.654-1.346,3-3,3
		s-3-1.346-3-3C25.218,41.241,25.24,41.051,25.275,40.866z M46.811,16.238l-3.224,13.238c-0.813,0.977-1.317,1.855-1.397,1.999
		l-1.001,1.666l-1.877-15.015l3.237-3.661c0.175-0.175,0.368-0.312,0.572-0.426c0.026-0.014,0.051-0.032,0.077-0.046
		c0.198-0.101,0.409-0.171,0.631-0.214c0.541-0.103,1.071-0.018,1.488,0.164C46.052,14.268,46.82,15.036,46.811,16.238z
		 M39.603,2.406c0.696-0.401,1.505-0.509,2.272-0.304c0.121,0.032,0.246,0.074,0.373,0.122c1.182,0.452,2.091,1.375,2.56,2.598
		c0.504,1.313,0.425,2.786-0.217,4.039l-1.561,3.051c-0.035,0.01-0.068,0.027-0.102,0.038c-0.073,0.024-0.144,0.052-0.216,0.08
		c-0.137,0.053-0.271,0.113-0.403,0.18c-0.052,0.027-0.104,0.053-0.155,0.081c-0.15,0.084-0.295,0.178-0.438,0.281
		c-0.036,0.026-0.074,0.049-0.11,0.077c-0.177,0.135-0.35,0.281-0.514,0.446l-2.955,3.34h-2.721h-0.486l3.271-12.211
		C38.408,3.454,38.905,2.809,39.603,2.406z M28.218,3.436c2.805,0,5.521,0.754,7.565,2.085l-2.657,9.918l-0.267,0.997h-9.283
		l-0.267-0.997l-2.657-9.918C22.697,4.19,25.413,3.436,28.218,3.436z M11.628,4.822c0.469-1.223,1.378-2.146,2.559-2.597
		c0.128-0.049,0.253-0.091,0.373-0.123c0.769-0.205,1.577-0.099,2.273,0.304c0.697,0.402,1.194,1.048,1.4,1.818l3.271,12.211h-0.696
		h-2.564l-2.996-3.384c-0.148-0.148-0.306-0.281-0.469-0.405c-0.071-0.055-0.145-0.102-0.219-0.152
		c-0.088-0.059-0.176-0.117-0.268-0.169c-0.102-0.059-0.205-0.114-0.31-0.164c-0.056-0.026-0.113-0.05-0.169-0.074
		c-0.131-0.056-0.262-0.11-0.397-0.153l-1.572-3.072C11.203,7.609,11.124,6.136,11.628,4.822z M11.067,13.944
		c0.371-0.163,0.833-0.253,1.307-0.203l0.172,0.033c0.488,0.093,0.922,0.325,1.246,0.647l3.325,3.758l-0.084,0.67l-0.256,2.044l0,0
		l-0.176,1.41l-1.364,10.909l-1.041-1.734c-0.043-0.077-0.25-0.441-0.597-0.943c-0.014-0.02-0.026-0.039-0.04-0.058
		c-0.055-0.078-0.112-0.158-0.173-0.242c-0.032-0.044-0.065-0.088-0.098-0.133c-0.051-0.069-0.102-0.137-0.158-0.209
		c-0.065-0.085-0.135-0.171-0.206-0.259c-0.031-0.038-0.059-0.075-0.091-0.113c-0.013-0.016-0.024-0.031-0.037-0.046L9.572,16.239
		C9.564,15.036,10.331,14.267,11.067,13.944z M3.231,33.437c-0.109-1.183,0.498-2.445,1.806-3.753
		c0.837-0.837,1.66-1.247,2.505-1.247c0.125,0,0.249,0.009,0.375,0.026c1.273,0.18,2.477,1.262,3.354,2.312
		c0.033,0.039,0.067,0.079,0.098,0.118c0.129,0.158,0.247,0.313,0.359,0.465c0.058,0.078,0.114,0.156,0.166,0.229
		c0.079,0.112,0.152,0.219,0.219,0.321c0.05,0.075,0.096,0.147,0.135,0.209c0.085,0.136,0.166,0.268,0.224,0.374l2.162,3.604
		l0.362,0.604c0.001,0.007,0.004,0.014,0.004,0.022c0.005,0.041,0.015,0.08,0.021,0.121c0.023,0.164,0.05,0.328,0.086,0.49v0.001h0
		c0.027,0.122,0.058,0.244,0.092,0.364c0.005,0.016,0.008,0.033,0.012,0.049c0.095,0.327,0.219,0.645,0.364,0.954
		c0.005,0.01,0.01,0.02,0.015,0.03c0.257,0.539,0.582,1.049,0.986,1.506c0.06,0.068,0.126,0.127,0.188,0.192
		c0.002,0.003,0.004,0.006,0.007,0.008h-1.927c-0.258,0-0.51,0.031-0.76,0.078c-0.042,0.008-0.085,0.014-0.127,0.023
		c-0.237,0.052-0.466,0.125-0.689,0.216c-0.043,0.018-0.084,0.037-0.126,0.056c-0.225,0.101-0.442,0.217-0.646,0.356
		c-0.015,0.01-0.029,0.023-0.044,0.034c-0.196,0.138-0.379,0.295-0.55,0.466c-0.017,0.017-0.038,0.029-0.055,0.047l-6.954-5.56
		C4.879,36.141,3.383,35.074,3.231,33.437z M46.092,49.692c-2.122,2.97-5.568,4.743-9.218,4.743H19.562
		c-3.649,0-7.096-1.773-9.218-4.743c-0.536-0.752-0.536-1.762,0-2.514l2.743-3.838c0.404-0.567,1.062-0.905,1.758-0.905h5.927h0.681
		h1.866c0,0.001,0.001,0.002,0.001,0.003c0.004,0.018,0.012,0.035,0.016,0.053c0.062,0.288,0.15,0.565,0.259,0.832
		c0.039,0.096,0.092,0.184,0.137,0.277c0.088,0.182,0.179,0.361,0.288,0.53c0.064,0.1,0.137,0.191,0.208,0.286
		c0.111,0.149,0.227,0.293,0.354,0.428c0.084,0.089,0.171,0.172,0.261,0.255c0.135,0.124,0.274,0.239,0.422,0.348
		c0.098,0.073,0.196,0.143,0.3,0.208c0.159,0.1,0.325,0.187,0.495,0.269c0.106,0.051,0.209,0.106,0.319,0.149
		c0.192,0.076,0.392,0.133,0.595,0.185c0.099,0.026,0.194,0.06,0.295,0.08c0.308,0.06,0.625,0.096,0.95,0.096
		s0.642-0.036,0.95-0.096c0.101-0.02,0.196-0.054,0.295-0.08c0.203-0.052,0.403-0.109,0.595-0.185
		c0.11-0.044,0.213-0.098,0.319-0.149c0.17-0.082,0.336-0.169,0.495-0.269c0.104-0.065,0.202-0.136,0.3-0.208
		c0.147-0.109,0.287-0.224,0.422-0.348c0.09-0.083,0.177-0.166,0.261-0.255c0.127-0.135,0.242-0.279,0.354-0.428
		c0.071-0.095,0.144-0.186,0.208-0.286c0.109-0.169,0.2-0.348,0.288-0.53c0.045-0.093,0.098-0.181,0.137-0.277
		c0.109-0.267,0.197-0.545,0.259-0.832c0.004-0.018,0.012-0.035,0.016-0.053c0-0.001,0-0.002,0.001-0.003h1.866h0.681h5.927
		c0.174,0,0.346,0.021,0.512,0.062c0.498,0.122,0.943,0.418,1.247,0.845l0.54,0.755l2.202,3.082
		C46.628,47.931,46.628,48.941,46.092,49.692z M53.206,33.422c-0.145,1.648-1.653,2.722-1.725,2.773l-6.894,5.516
		c-0.016-0.016-0.035-0.027-0.051-0.043c-0.173-0.174-0.358-0.333-0.556-0.472c-0.014-0.01-0.027-0.022-0.041-0.031
		c-0.204-0.139-0.422-0.255-0.647-0.356c-0.042-0.019-0.083-0.038-0.126-0.056c-0.223-0.091-0.453-0.164-0.689-0.216
		c-0.042-0.009-0.085-0.015-0.127-0.023c-0.249-0.047-0.502-0.078-0.76-0.078h-1.927c0.002-0.003,0.004-0.006,0.007-0.008
		c0.062-0.065,0.129-0.124,0.188-0.192c0.403-0.457,0.728-0.967,0.986-1.506c0.005-0.01,0.01-0.02,0.015-0.03
		c0.146-0.309,0.269-0.627,0.364-0.954c0.005-0.016,0.008-0.033,0.012-0.049c0.084-0.298,0.145-0.603,0.185-0.911
		c0.004-0.029,0.014-0.057,0.018-0.087l2.544-4.241c0.554-1.01,2.447-3.696,4.532-3.994c0.98-0.135,1.922,0.259,2.884,1.221
		C52.701,30.986,53.31,32.243,53.206,33.422z"/>
	<path d="M30.218,49.436h-4c-0.553,0-1,0.447-1,1s0.447,1,1,1h4c0.553,0,1-0.447,1-1S30.771,49.436,30.218,49.436z"/>
</g>
<g>
</g>
<g>
</g>
<g>
</g>
<g>
</g>
<g>
</g>
<g>
</g>
<g>
</g>
<g>
</g>
<g>
</g>
<g>
</g>
<g>
</g>
<g>
</g>
<g>
</g>
<g>
</g>
<g>
</g>
</svg>
