<?xml version="1.0" encoding="iso-8859-1"?>
<!-- Generator: Adobe Illustrator 18.0.0, SVG Export Plug-In . SVG Version: 6.00 Build 0)  -->
<!DOCTYPE svg PUBLIC "-//W3C//DTD SVG 1.1//EN" "http://www.w3.org/Graphics/SVG/1.1/DTD/svg11.dtd">
<svg version="1.1" id="Capa_1" xmlns="http://www.w3.org/2000/svg" xmlns:xlink="http://www.w3.org/1999/xlink" x="0px" y="0px"
	 viewBox="0 0 53.585 53.585" style="enable-background:new 0 0 53.585 53.585;" xml:space="preserve">
<path d="M52.411,16.214c-0.241-0.79-0.781-1.437-1.521-1.822c-7.519-3.916-14.513-5.699-20.734-6.226
	C30.872,7.301,31.32,6.207,31.32,5c0-2.757-2.243-5-5-5s-5,2.243-5,5c0,1.189,0.435,2.269,1.131,3.128
	C11.88,8.936,4.615,13.049,2.533,14.37c-0.739,0.469-1.261,1.211-1.431,2.038c-0.162,0.786-0.001,1.585,0.453,2.25
	c0.899,1.316,2.644,1.712,3.973,0.906c0.803-0.488,2.453-1.414,4.791-2.369V21h-1c-0.553,0-1,0.448-1,1s0.447,1,1,1h1v5.08
	c-3.386,0.488-6,3.401-6,6.92c0,3.86,3.141,7,7,7s7-3.14,7-7c0-3.519-2.614-6.432-6-6.92V23h1c0.553,0,1-0.448,1-1s-0.447-1-1-1h-1
	v-4.562c3.391-1.187,7.821-2.245,13-2.38V27h-1c-0.553,0-1,0.448-1,1s0.447,1,1,1h1v8.767l-2.033,4.119l-4.778,0.694
	c-0.377,0.055-0.689,0.319-0.808,0.681c-0.117,0.362-0.02,0.759,0.253,1.025l3.458,3.37l-0.816,4.759
	c-0.064,0.375,0.09,0.754,0.397,0.978c0.31,0.224,0.718,0.253,1.054,0.076l4.273-2.247l4.273,2.247
	c0.146,0.077,0.307,0.115,0.466,0.115c0.207,0,0.414-0.064,0.588-0.191c0.308-0.224,0.462-0.603,0.397-0.978l-0.816-4.759
	l3.458-3.37c0.272-0.266,0.37-0.663,0.253-1.025c-0.118-0.362-0.431-0.626-0.808-0.681l-4.778-0.694l-2.033-4.119V29h1
	c0.553,0,1-0.448,1-1s-0.447-1-1-1h-1V14.051c4.264,0.09,8.979,0.84,14,2.641V23h-1c-0.553,0-1,0.448-1,1s0.447,1,1,1h1v5.351
	c-0.053,0.041-0.108,0.08-0.157,0.128l-6.171,6.171c-0.31,0.309-0.48,0.72-0.48,1.157c0,0.438,0.17,0.849,0.479,1.158l6.171,6.171
	c0.31,0.31,0.72,0.48,1.157,0.48s0.848-0.17,1.182-0.505l5.733-6.162c0.622-0.639,0.617-1.665,0.01-2.271l-5.769-6.198
	c-0.048-0.048-0.103-0.086-0.155-0.127V25h1c0.553,0,1-0.448,1-1s-0.447-1-1-1h-1v-5.539c1.601,0.655,3.228,1.407,4.881,2.294
	c0.427,0.229,0.888,0.338,1.345,0.338c1.055,0,2.09-0.577,2.637-1.585C52.566,17.8,52.648,16.986,52.411,16.214z M16.32,35
	c0,2.757-2.243,5-5,5s-5-2.243-5-5s2.243-5,5-5S16.32,32.243,16.32,35z M28.545,43.791l3.294,0.479l-2.384,2.323
	c-0.235,0.23-0.343,0.561-0.287,0.885l0.563,3.28l-2.945-1.549c-0.146-0.077-0.306-0.115-0.466-0.115S26,49.131,25.854,49.208
	l-2.945,1.549l0.563-3.28c0.056-0.324-0.052-0.655-0.287-0.885L20.8,44.269l3.294-0.479c0.326-0.047,0.607-0.252,0.753-0.547
	l1.473-2.983l1.473,2.983C27.938,43.539,28.219,43.743,28.545,43.791z M47.564,37.808l-5.255,5.647l-5.646-5.647l5.646-5.647
	L47.564,37.808z M26.32,2c1.654,0,3,1.346,3,3c0,1.63-1.308,2.954-2.929,2.993c-0.05,0-0.1-0.001-0.15-0.001
	C24.623,7.949,23.32,6.627,23.32,5C23.32,3.346,24.665,2,26.32,2z M50.424,17.554c-0.256,0.471-0.841,0.675-1.278,0.439v0
	c-8.31-4.459-16.054-5.954-22.706-5.954c-11.511,0-19.747,4.478-21.95,5.817c-0.412,0.251-0.986,0.105-1.282-0.325
	c-0.187-0.274-0.183-0.542-0.146-0.719c0.062-0.298,0.26-0.572,0.544-0.752c2.214-1.404,10.561-6.11,22.612-6.069
	C26.252,9.99,26.284,10,26.32,10c0.03,0,0.058-0.008,0.088-0.009c6.822,0.051,14.816,1.62,23.56,6.174
	c0.26,0.135,0.448,0.36,0.532,0.633C50.576,17.053,50.55,17.321,50.424,17.554z"/>
<g>
</g>
<g>
</g>
<g>
</g>
<g>
</g>
<g>
</g>
<g>
</g>
<g>
</g>
<g>
</g>
<g>
</g>
<g>
</g>
<g>
</g>
<g>
</g>
<g>
</g>
<g>
</g>
<g>
</g>
</svg>
