<?xml version="1.0" encoding="iso-8859-1"?>
<!-- Generator: Adobe Illustrator 18.0.0, SVG Export Plug-In . SVG Version: 6.00 Build 0)  -->
<!DOCTYPE svg PUBLIC "-//W3C//DTD SVG 1.1//EN" "http://www.w3.org/Graphics/SVG/1.1/DTD/svg11.dtd">
<svg version="1.1" id="Capa_1" xmlns="http://www.w3.org/2000/svg" xmlns:xlink="http://www.w3.org/1999/xlink" x="0px" y="0px"
	 viewBox="0 0 60 60" style="enable-background:new 0 0 60 60;" xml:space="preserve">
<g>
	<path d="M30,5C16.484,5,6,9.569,6,13.5S16.484,22,30,22s24-4.569,24-8.5S43.516,5,30,5z M30,20c-14.198,0-22-4.882-22-6.5
		S15.802,7,30,7s22,4.882,22,6.5S44.198,20,30,20z"/>
	<path d="M57.233,32H56v-5h1c0.552,0,1-0.447,1-1s-0.448-1-1-1h-1v-6.782c1.288-1.45,2-3.039,2-4.718C58,6.49,45.701,1,30,1
		S2,6.49,2,13.5c0,2.708,1.842,5.187,5,7.213V23H6c-0.552,0-1,0.447-1,1s0.448,1,1,1h1v4.766l-1.746,3.539l-4.412,0.707
		c-0.383,0.062-0.697,0.339-0.803,0.713c-0.107,0.373,0.012,0.774,0.305,1.029l3.213,2.795l-0.699,4.073
		c-0.064,0.375,0.09,0.754,0.398,0.978c0.309,0.225,0.718,0.254,1.053,0.076L8,41.736l3.691,1.94
		c0.146,0.077,0.306,0.115,0.465,0.115c0.207,0,0.414-0.064,0.588-0.191c0.308-0.224,0.462-0.603,0.398-0.978l-0.699-4.073
		l3.213-2.795c0.293-0.255,0.412-0.656,0.305-1.029c-0.106-0.374-0.42-0.651-0.803-0.713l-4.412-0.707L9,29.766V25h1
		c0.552,0,1-0.447,1-1s-0.448-1-1-1H9v-1.152c3.185,1.602,7.298,2.822,12,3.512v12.711h-1c-0.552,0-1,0.447-1,1s0.448,1,1,1h1v5.009
		c-3.387,0.488-6,3.401-6,6.92c0,3.859,3.14,7,7,7s7-3.141,7-7c0-3.519-2.613-6.432-6-6.92v-5.009h1c0.552,0,1-0.447,1-1
		s-0.448-1-1-1h-1V25.621C25.231,25.868,27.574,26,30,26c3.164,0,6.185-0.226,9-0.64V30h-1c-0.552,0-1,0.447-1,1s0.448,1,1,1h1
		v4.974l-1.742,3.53l-4.127,0.601c-0.376,0.055-0.689,0.318-0.807,0.681c-0.118,0.361-0.02,0.759,0.253,1.024l2.986,2.911
		l-0.705,4.109c-0.064,0.375,0.09,0.754,0.398,0.978c0.309,0.225,0.716,0.255,1.053,0.076L40,48.944l3.691,1.94
		C43.837,50.962,43.997,51,44.156,51c0.207,0,0.414-0.064,0.588-0.191c0.308-0.224,0.462-0.603,0.398-0.978l-0.705-4.109
		l2.986-2.911c0.273-0.266,0.371-0.663,0.253-1.024c-0.118-0.362-0.431-0.626-0.807-0.681l-4.127-0.601L41,36.974V32h1
		c0.552,0,1-0.447,1-1s-0.448-1-1-1h-1v-4.968c5.46-1.014,9.992-2.77,13-5.002V25h-1c-0.552,0-1,0.447-1,1s0.448,1,1,1h1v5h-1.232
		C51.242,32,50,33.241,50,34.768v4.465C50,40.759,51.242,42,52.768,42h4.465C58.758,42,60,40.759,60,39.232v-4.465
		C60,33.241,58.758,32,57.233,32z M9.92,35.198l2.811,0.45l-2.024,1.761c-0.264,0.229-0.388,0.58-0.33,0.924l0.452,2.631
		l-2.363-1.242C8.32,39.645,8.16,39.606,8,39.606c-0.16,0-0.32,0.038-0.465,0.115l-2.363,1.242l0.452-2.631
		c0.059-0.344-0.066-0.694-0.33-0.924L3.27,35.648l2.811-0.45c0.32-0.051,0.595-0.254,0.739-0.545L8,32.26l1.181,2.394
		C9.325,34.944,9.6,35.148,9.92,35.198z M27,52c0,2.757-2.243,5-5,5s-5-2.243-5-5s2.243-5,5-5S27,49.243,27,52z M41.934,42.408
		l2.642,0.385l-1.912,1.863c-0.236,0.229-0.344,0.561-0.288,0.885l0.452,2.631l-2.363-1.242C40.32,46.853,40.16,46.814,40,46.814
		s-0.32,0.038-0.465,0.115l-2.363,1.242l0.452-2.631c0.056-0.324-0.052-0.655-0.288-0.885l-1.912-1.863l2.642-0.385
		c0.326-0.047,0.607-0.252,0.753-0.547L40,39.468l1.181,2.394C41.327,42.156,41.608,42.361,41.934,42.408z M30,24
		C15.907,24,4,19.191,4,13.5S15.907,3,30,3s26,4.809,26,10.5S44.093,24,30,24z M58,39.232C58,39.655,57.656,40,57.233,40h-4.465
		C52.344,40,52,39.655,52,39.232v-4.465C52,34.345,52.344,34,52.768,34H54h2h1.232C57.656,34,58,34.345,58,34.768V39.232z"/>
</g>
<g>
</g>
<g>
</g>
<g>
</g>
<g>
</g>
<g>
</g>
<g>
</g>
<g>
</g>
<g>
</g>
<g>
</g>
<g>
</g>
<g>
</g>
<g>
</g>
<g>
</g>
<g>
</g>
<g>
</g>
</svg>
