<?xml version="1.0" encoding="iso-8859-1"?>
<!-- Generator: Adobe Illustrator 18.0.0, SVG Export Plug-In . SVG Version: 6.00 Build 0)  -->
<!DOCTYPE svg PUBLIC "-//W3C//DTD SVG 1.1//EN" "http://www.w3.org/Graphics/SVG/1.1/DTD/svg11.dtd">
<svg version="1.1" id="Capa_1" xmlns="http://www.w3.org/2000/svg" xmlns:xlink="http://www.w3.org/1999/xlink" x="0px" y="0px"
	 viewBox="0 0 60 60" style="enable-background:new 0 0 60 60;" xml:space="preserve">
<g>
	<path d="M60,19c0-3.309-2.691-6-6-6s-6,2.691-6,6c0,1.771,0.776,3.36,2,4.46V31H10v-7.54c1.224-1.099,2-2.688,2-4.46
		c0-3.309-2.691-6-6-6s-6,2.691-6,6c0,1.771,0.776,3.36,2,4.46V60h8v-4h40v4h8V23.46C59.224,22.36,60,20.771,60,19z M50,38h-5v-5h5
		V38z M29,38h-5v-5h5V38z M31,33h5v5h-5V33z M22,38h-5v-5h5V38z M22,40v14h-5V40H22z M24,40h5v14h-5V40z M31,40h5v14h-5V40z M38,40
		h5v14h-5V40z M38,38v-5h5v5H38z M15,33v5h-5v-5H15z M6,15c2.206,0,4,1.794,4,4c0,1.301-0.634,2.448-1.599,3.179l-0.026,0.019
		c-0.164,0.122-0.336,0.226-0.512,0.32c-0.022,0.012-0.043,0.024-0.065,0.035c-0.171,0.087-0.347,0.16-0.526,0.22
		c-0.03,0.01-0.061,0.019-0.092,0.029c-0.769,0.239-1.593,0.239-2.362,0c-0.031-0.01-0.061-0.018-0.091-0.028
		c-0.179-0.061-0.355-0.133-0.526-0.22c-0.022-0.011-0.043-0.024-0.065-0.035c-0.176-0.094-0.348-0.198-0.512-0.32l-0.014-0.009
		C2.639,21.458,2,20.307,2,19C2,16.794,3.794,15,6,15z M8,58H4V24.65c0.31,0.11,0.631,0.196,0.963,0.254
		c0.019,0.003,0.038,0.006,0.057,0.009C5.34,24.966,5.666,25,6,25c0.334,0,0.66-0.034,0.98-0.087
		c0.019-0.003,0.038-0.005,0.058-0.009C7.369,24.846,7.69,24.76,8,24.65V31v25V58z M10,40h5v14h-5V40z M45,54V40h5v14H45z M56,58h-4
		v-2V31v-6.35c0.31,0.11,0.631,0.196,0.962,0.254c0.02,0.003,0.039,0.006,0.058,0.009C53.34,24.966,53.666,25,54,25
		s0.66-0.034,0.979-0.087c0.02-0.003,0.039-0.005,0.058-0.009C55.369,24.846,55.69,24.76,56,24.65V58z M56.399,22.18l-0.023,0.017
		c-0.163,0.122-0.335,0.226-0.511,0.319c-0.022,0.012-0.044,0.025-0.067,0.036c-0.171,0.086-0.346,0.159-0.525,0.22
		c-0.031,0.01-0.062,0.019-0.093,0.029c-0.769,0.239-1.592,0.239-2.361,0c-0.031-0.01-0.062-0.019-0.093-0.029
		c-0.179-0.06-0.354-0.133-0.525-0.22c-0.023-0.012-0.045-0.024-0.067-0.036c-0.176-0.093-0.347-0.198-0.511-0.319l-0.012-0.008
		C50.639,21.459,50,20.307,50,19c0-2.206,1.794-4,4-4s4,1.794,4,4C58,20.302,57.365,21.45,56.399,22.18z"/>
	<path d="M16.548,22.122l-0.472,2.754c-0.064,0.375,0.089,0.754,0.397,0.978c0.309,0.224,0.717,0.253,1.053,0.076L20,24.63
		l2.474,1.3c0.146,0.077,0.306,0.115,0.465,0.115c0.207,0,0.414-0.064,0.588-0.191c0.308-0.224,0.462-0.603,0.397-0.978
		l-0.472-2.754l2.001-1.95c0.273-0.266,0.371-0.663,0.253-1.025c-0.118-0.362-0.431-0.626-0.807-0.681l-2.766-0.402l-1.1-2.229
		c0.328-4.211,3.734-7.561,7.966-7.809v11.371c-0.178,0.112-0.343,0.247-0.468,0.426l-2.463,3.52
		c-0.376,0.538-0.43,1.186-0.145,1.734C26.221,25.646,26.839,26,27.537,26h4.927c0.698,0,1.315-0.354,1.613-0.925
		c0.286-0.548,0.231-1.196-0.145-1.734l-2.464-3.52c-0.125-0.179-0.29-0.313-0.468-0.425V8.141c3.812,0.683,6.743,3.911,6.975,7.859
		H36c-0.552,0-1,0.448-1,1v5c0,0.552,0.448,1,1,1h6c0.552,0,1-0.448,1-1v-5c0-0.552-0.448-1-1-1h-2.025
		c-0.24-5.052-4.057-9.172-8.975-9.88V1c0-0.552-0.448-1-1-1s-1,0.448-1,1v5.025c-5.284,0.251-9.552,4.415-9.959,9.657l-1.175,2.381
		l-2.766,0.402c-0.376,0.055-0.689,0.319-0.807,0.681c-0.118,0.362-0.02,0.76,0.253,1.025L16.548,22.122z M41,21h-4v-3h4V21z
		 M31.952,24h-3.903L30,21.212L31.952,24z M18.675,19.967c0.326-0.047,0.607-0.252,0.753-0.547L20,18.26l0.572,1.16
		c0.146,0.295,0.427,0.5,0.753,0.547l1.281,0.186l-0.926,0.903c-0.236,0.23-0.344,0.561-0.288,0.885l0.219,1.275l-1.146-0.602
		C20.32,22.538,20.16,22.5,20,22.5s-0.32,0.038-0.465,0.115l-1.146,0.602l0.219-1.275c0.056-0.324-0.052-0.655-0.288-0.885
		l-0.926-0.903L18.675,19.967z"/>
</g>
<g>
</g>
<g>
</g>
<g>
</g>
<g>
</g>
<g>
</g>
<g>
</g>
<g>
</g>
<g>
</g>
<g>
</g>
<g>
</g>
<g>
</g>
<g>
</g>
<g>
</g>
<g>
</g>
<g>
</g>
</svg>
