<?xml version="1.0" encoding="iso-8859-1"?>
<!-- Generator: Adobe Illustrator 18.0.0, SVG Export Plug-In . SVG Version: 6.00 Build 0)  -->
<!DOCTYPE svg PUBLIC "-//W3C//DTD SVG 1.1//EN" "http://www.w3.org/Graphics/SVG/1.1/DTD/svg11.dtd">
<svg version="1.1" id="Capa_1" xmlns="http://www.w3.org/2000/svg" xmlns:xlink="http://www.w3.org/1999/xlink" x="0px" y="0px"
	 viewBox="0 0 52 52" style="enable-background:new 0 0 52 52;" xml:space="preserve">
<g>
	<path d="M5.806,43.038c0.307,0.451,0.706,0.851,1.156,1.157c1.875,1.271,3.763,1.8,5.51,1.8c2.421,0,4.571-1.017,6.039-2.484
		c2.525-2.526,3.717-7.076,0.684-11.548c-0.307-0.451-0.706-0.851-1.156-1.157c-4.474-3.034-9.022-1.842-11.549,0.684
		C3.964,34.016,2.772,38.566,5.806,43.038z M12.52,30.993c1.349,0,2.845,0.416,4.396,1.468c0.243,0.165,0.459,0.38,0.623,0.624
		l0.001,0c2.556,3.769,1.358,7.209-0.442,9.011c-1.802,1.803-5.245,2.999-9.012,0.443c-0.243-0.165-0.459-0.38-0.624-0.624
		c-2.556-3.769-1.358-7.209,0.442-9.011C8.964,31.843,10.592,30.993,12.52,30.993z"/>
	<path d="M49.423,25H33.929C33.972,24.814,34,24.622,34,24.423V4.577C34,3.156,32.844,2,31.423,2H11.577C10.156,2,9,3.156,9,4.577
		v19.847C9,24.622,9.028,24.814,9.071,25H2.577C1.156,25,0,26.156,0,27.577v19.847C0,48.844,1.156,50,2.577,50h19.846
		C23.844,50,25,48.844,25,47.423V27.577c0-0.199-0.028-0.391-0.071-0.577h2.141C27.028,27.186,27,27.378,27,27.577v19.847
		C27,48.844,28.156,50,29.577,50h19.846C50.844,50,52,48.844,52,47.423V27.577C52,26.156,50.844,25,49.423,25z M11,24.423V4.577
		C11,4.259,11.259,4,11.577,4h19.846C31.741,4,32,4.259,32,4.577v19.847C32,24.741,31.741,25,31.423,25h-1.846h-7.154H11.577
		C11.259,25,11,24.741,11,24.423z M23,27.577v19.847C23,47.741,22.741,48,22.423,48H2.577C2.259,48,2,47.741,2,47.423V27.577
		C2,27.259,2.259,27,2.577,27h9h10.846C22.741,27,23,27.259,23,27.577z M50,47.423C50,47.741,49.741,48,49.423,48H29.577
		C29.259,48,29,47.741,29,47.423V27.577C29,27.259,29.259,27,29.577,27h1.846h18C49.741,27,50,27.259,50,27.577V47.423z"/>
	<path d="M21.5,5.024l-8.89,8.956l8.89,9.482l8.89-9.482L21.5,5.024z M15.39,14.02l6.11-6.157l6.11,6.157l-6.11,6.518L15.39,14.02z"
		/>
	<path d="M30.359,45h18.281L39.5,27.261L30.359,45z M33.641,43L39.5,31.627L45.359,43H33.641z"/>
</g>
<g>
</g>
<g>
</g>
<g>
</g>
<g>
</g>
<g>
</g>
<g>
</g>
<g>
</g>
<g>
</g>
<g>
</g>
<g>
</g>
<g>
</g>
<g>
</g>
<g>
</g>
<g>
</g>
<g>
</g>
</svg>
