<?xml version="1.0" encoding="iso-8859-1"?>
<!-- Generator: Adobe Illustrator 18.0.0, SVG Export Plug-In . SVG Version: 6.00 Build 0)  -->
<!DOCTYPE svg PUBLIC "-//W3C//DTD SVG 1.1//EN" "http://www.w3.org/Graphics/SVG/1.1/DTD/svg11.dtd">
<svg version="1.1" id="Capa_1" xmlns="http://www.w3.org/2000/svg" xmlns:xlink="http://www.w3.org/1999/xlink" x="0px" y="0px"
	 viewBox="0 0 60 60" style="enable-background:new 0 0 60 60;" xml:space="preserve">
<path d="M57.632,12.5H57v-2.253C57,8.732,55.769,7.5,54.254,7.5H5.746C4.231,7.5,3,8.732,3,10.247V12.5H2.368
	C1.062,12.5,0,13.563,0,14.868v7.264C0,23.438,1.062,24.5,2.368,24.5H3c0,1.299,0.097,2.58,0.272,3.838l-0.01,0.003l0.04,0.229
	c0.51,3.46,1.662,6.732,3.315,9.686c0.021,0.037,0.041,0.073,0.062,0.11c0.302,0.534,0.616,1.061,0.95,1.573
	c0.001,0.002,0.002,0.003,0.003,0.005c0.31,0.474,0.635,0.937,0.971,1.391c0.112,0.152,0.229,0.301,0.344,0.451
	c0.216,0.28,0.437,0.556,0.663,0.828c0.153,0.184,0.304,0.37,0.461,0.55c0.277,0.317,0.562,0.626,0.852,0.93
	c0.258,0.271,0.524,0.532,0.792,0.792c0.132,0.128,0.264,0.256,0.399,0.381c0.26,0.243,0.524,0.482,0.793,0.715
	c0.065,0.056,0.132,0.109,0.198,0.165c0.565,0.479,1.148,0.934,1.749,1.366c0.079,0.057,0.156,0.115,0.236,0.171
	c0.308,0.217,0.621,0.426,0.938,0.63c0.108,0.069,0.218,0.136,0.327,0.204c0.558,0.348,1.128,0.675,1.71,0.981
	c0.137,0.072,0.272,0.148,0.41,0.218c0.277,0.139,0.557,0.271,0.838,0.4c0.234,0.108,0.471,0.212,0.708,0.314
	c0.245,0.104,0.488,0.211,0.736,0.307c0.466,0.182,0.937,0.351,1.413,0.506c0.054,0.017,0.105,0.04,0.159,0.057l0.849,0.27
	l0.009-0.019C25.371,52.167,27.656,52.5,30,52.5s4.629-0.333,6.815-0.948l0.009,0.019l0.849-0.27
	c0.054-0.017,0.105-0.039,0.159-0.057c0.476-0.155,0.948-0.324,1.413-0.506c0.248-0.097,0.491-0.203,0.736-0.307
	c0.238-0.102,0.474-0.205,0.708-0.314c0.282-0.13,0.562-0.261,0.838-0.4c0.138-0.07,0.273-0.146,0.41-0.218
	c0.582-0.306,1.152-0.633,1.71-0.981c0.109-0.068,0.219-0.134,0.327-0.204c0.317-0.204,0.629-0.414,0.938-0.63
	c0.079-0.056,0.157-0.114,0.236-0.171c0.601-0.432,1.184-0.887,1.749-1.366c0.065-0.055,0.133-0.109,0.198-0.165
	c0.269-0.233,0.532-0.472,0.793-0.715c0.135-0.125,0.267-0.253,0.399-0.381c0.268-0.26,0.534-0.522,0.792-0.792
	c0.29-0.304,0.575-0.613,0.852-0.93c0.157-0.18,0.308-0.366,0.461-0.55c0.226-0.272,0.447-0.547,0.663-0.828
	c0.115-0.15,0.231-0.299,0.344-0.451c0.336-0.454,0.661-0.916,0.971-1.391c0.001-0.002,0.002-0.003,0.003-0.005
	c0.334-0.512,0.648-1.039,0.95-1.573c0.021-0.037,0.042-0.073,0.062-0.11c1.653-2.954,2.804-6.227,3.315-9.686l0.04-0.229
	l-0.01-0.003C56.903,27.08,57,25.799,57,24.5h0.632c1.306,0,2.368-1.063,2.368-2.368v-7.264C60,13.563,58.937,12.5,57.632,12.5z
	 M2.368,22.5C2.165,22.5,2,22.335,2,22.132v-7.264C2,14.665,2.165,14.5,2.368,14.5H3h7v8H3H2.368z M17.774,17.231
	c0.029,0.087,0.059,0.174,0.082,0.264c0.036,0.131,0.061,0.265,0.083,0.401c0.02,0.128,0.032,0.258,0.039,0.39
	c0.008,0.146,0.007,0.291-0.001,0.436c-0.008,0.134-0.02,0.267-0.04,0.397c-0.021,0.138-0.052,0.273-0.087,0.408
	c-0.033,0.123-0.069,0.246-0.113,0.364c-0.053,0.141-0.117,0.278-0.186,0.413c-0.05,0.097-0.099,0.195-0.156,0.287
	c-0.096,0.154-0.206,0.3-0.324,0.443c-0.052,0.063-0.1,0.129-0.156,0.189c-0.145,0.155-0.303,0.292-0.468,0.42
	c-0.047,0.037-0.089,0.079-0.138,0.114c-0.193,0.137-0.399,0.252-0.611,0.353c-0.031,0.015-0.059,0.035-0.09,0.049
	c-0.236,0.104-0.482,0.183-0.734,0.24c-0.016,0.004-0.03,0.011-0.046,0.014C14.557,22.47,14.28,22.5,14,22.5h-2v-8h1.765
	C15.605,14.5,17.211,15.648,17.774,17.231z M10.418,40.437c-0.024-0.031-0.048-0.063-0.072-0.094
	c-2.304-3.069-3.969-6.661-4.783-10.53C6.549,29.605,7.533,29.5,8.5,29.5C16.495,29.5,23,36.005,23,44
	c0,1.748-0.314,3.458-0.933,5.094c-0.074-0.027-0.149-0.053-0.223-0.08c-0.34-0.126-0.675-0.261-1.008-0.402
	c-0.133-0.056-0.267-0.108-0.398-0.167c-0.419-0.186-0.832-0.385-1.239-0.594c-0.179-0.092-0.354-0.191-0.531-0.287
	c-0.245-0.133-0.488-0.27-0.728-0.411c-0.197-0.116-0.394-0.235-0.588-0.356c-0.228-0.143-0.451-0.291-0.674-0.441
	c-0.178-0.12-0.359-0.236-0.535-0.36c-0.357-0.253-0.707-0.517-1.051-0.788c-0.163-0.128-0.32-0.263-0.48-0.395
	c-0.225-0.187-0.449-0.376-0.668-0.57c-0.146-0.13-0.292-0.261-0.436-0.394c-0.277-0.257-0.548-0.52-0.814-0.789
	c-0.071-0.072-0.145-0.141-0.216-0.214c-0.354-0.367-0.697-0.744-1.03-1.131c-0.04-0.046-0.078-0.094-0.117-0.14
	C11.017,41.203,10.712,40.824,10.418,40.437z M37,44c0-7.995,6.505-14.5,14.5-14.5c0.967,0,1.951,0.105,2.937,0.313
	c-0.814,3.87-2.479,7.461-4.783,10.53c-0.024,0.031-0.048,0.063-0.072,0.094c-0.294,0.388-0.599,0.766-0.913,1.136
	c-0.039,0.046-0.077,0.094-0.117,0.14c-0.333,0.387-0.676,0.764-1.03,1.131c-0.071,0.073-0.144,0.142-0.216,0.214
	c-0.266,0.269-0.537,0.532-0.814,0.789c-0.144,0.133-0.289,0.264-0.436,0.394c-0.219,0.194-0.442,0.384-0.668,0.57
	c-0.16,0.132-0.318,0.267-0.48,0.395c-0.344,0.271-0.694,0.535-1.051,0.788c-0.175,0.124-0.356,0.24-0.535,0.36
	c-0.223,0.15-0.447,0.298-0.674,0.441c-0.194,0.122-0.391,0.24-0.588,0.356c-0.24,0.141-0.484,0.278-0.728,0.411
	c-0.177,0.096-0.352,0.195-0.531,0.287c-0.407,0.209-0.82,0.408-1.239,0.594c-0.132,0.059-0.266,0.111-0.398,0.167
	c-0.333,0.141-0.668,0.276-1.008,0.402c-0.074,0.028-0.148,0.053-0.223,0.08C37.314,47.458,37,45.748,37,44z M54.776,27.841
	C53.679,27.615,52.581,27.5,51.5,27.5C42.402,27.5,35,34.902,35,44c0,1.955,0.364,3.862,1.043,5.694
	C34.1,50.218,32.075,50.5,30,50.5s-4.1-0.282-6.043-0.806C24.636,47.862,25,45.955,25,44c0-9.098-7.402-16.5-16.5-16.5
	c-1.081,0-2.179,0.115-3.276,0.341C5.081,26.744,5,25.63,5,24.5h5h4c0.212,0,0.422-0.012,0.629-0.034
	c0.002,0,0.005-0.001,0.007-0.001c0.633-0.067,1.235-0.235,1.794-0.484c0.001-0.001,0.003-0.001,0.004-0.002
	c0.185-0.083,0.364-0.174,0.539-0.275c0.016-0.009,0.03-0.019,0.046-0.028c0.16-0.094,0.315-0.194,0.465-0.301
	c0.025-0.018,0.05-0.037,0.075-0.056c0.139-0.103,0.273-0.21,0.402-0.324c0.029-0.026,0.058-0.052,0.087-0.079
	c0.124-0.113,0.242-0.232,0.356-0.355c0.015-0.016,0.031-0.029,0.046-0.046c0.013-0.014,0.023-0.03,0.036-0.045
	c0.112-0.126,0.218-0.257,0.319-0.393c0.022-0.03,0.045-0.059,0.066-0.089c0.105-0.146,0.202-0.296,0.293-0.451
	c0.011-0.019,0.024-0.038,0.035-0.058c0.502-0.873,0.795-1.88,0.799-2.956c0-0.003,0-0.005,0-0.008c0-0.006,0.001-0.012,0.001-0.017
	c0-3.309-2.691-6-6-6h-0.235H10H5v-2.253C5,9.835,5.335,9.5,5.746,9.5h48.508C54.665,9.5,55,9.835,55,10.247V12.5h-5h-3.765H46
	c-3.309,0-6,2.691-6,6c0,0.006,0.001,0.012,0.001,0.017c0,0.003,0,0.005,0,0.008c0.005,1.076,0.297,2.084,0.799,2.956
	c0.011,0.02,0.024,0.038,0.035,0.058c0.091,0.155,0.189,0.305,0.293,0.451c0.021,0.03,0.044,0.059,0.066,0.089
	c0.101,0.135,0.207,0.266,0.319,0.393c0.013,0.014,0.023,0.03,0.036,0.045c0.014,0.016,0.031,0.03,0.046,0.046
	c0.114,0.123,0.233,0.241,0.356,0.355c0.029,0.026,0.057,0.053,0.087,0.079c0.129,0.114,0.263,0.222,0.402,0.324
	c0.025,0.019,0.05,0.038,0.075,0.056c0.15,0.107,0.305,0.207,0.465,0.301c0.015,0.009,0.03,0.019,0.046,0.028
	c0.175,0.1,0.354,0.192,0.539,0.275c0.002,0.001,0.003,0.001,0.004,0.002c0.559,0.249,1.161,0.417,1.794,0.484
	c0.002,0,0.005,0.001,0.007,0.001C45.578,24.488,45.788,24.5,46,24.5h4h5C55,25.63,54.919,26.744,54.776,27.841z M48,22.5h-2
	c-0.28,0-0.557-0.03-0.827-0.088c-0.016-0.003-0.03-0.011-0.046-0.014c-0.252-0.057-0.498-0.136-0.734-0.24
	c-0.031-0.014-0.059-0.034-0.09-0.049c-0.212-0.101-0.419-0.216-0.611-0.353c-0.049-0.035-0.091-0.077-0.138-0.114
	c-0.165-0.128-0.323-0.266-0.468-0.42c-0.056-0.06-0.104-0.126-0.156-0.189c-0.118-0.143-0.229-0.289-0.325-0.443
	c-0.057-0.092-0.106-0.189-0.156-0.286c-0.069-0.135-0.133-0.272-0.186-0.413c-0.044-0.118-0.08-0.24-0.113-0.364
	c-0.036-0.134-0.066-0.27-0.088-0.408c-0.02-0.13-0.033-0.262-0.04-0.396c-0.008-0.144-0.008-0.29-0.001-0.436
	c0.007-0.132,0.02-0.262,0.039-0.39c0.021-0.136,0.047-0.27,0.083-0.401c0.023-0.09,0.053-0.177,0.082-0.264
	c0.564-1.583,2.169-2.731,4.01-2.731H48V22.5z M58,22.132c0,0.203-0.165,0.368-0.368,0.368H57h-7v-8h7h0.632
	c0.203,0,0.368,0.165,0.368,0.368V22.132z"/>
<g>
</g>
<g>
</g>
<g>
</g>
<g>
</g>
<g>
</g>
<g>
</g>
<g>
</g>
<g>
</g>
<g>
</g>
<g>
</g>
<g>
</g>
<g>
</g>
<g>
</g>
<g>
</g>
<g>
</g>
</svg>
