<?xml version="1.0" encoding="iso-8859-1"?>
<!-- Generator: Adobe Illustrator 18.0.0, SVG Export Plug-In . SVG Version: 6.00 Build 0)  -->
<!DOCTYPE svg PUBLIC "-//W3C//DTD SVG 1.1//EN" "http://www.w3.org/Graphics/SVG/1.1/DTD/svg11.dtd">
<svg version="1.1" id="Capa_1" xmlns="http://www.w3.org/2000/svg" xmlns:xlink="http://www.w3.org/1999/xlink" x="0px" y="0px"
	 viewBox="0 0 52 52" style="enable-background:new 0 0 52 52;" xml:space="preserve">
<path d="M37.904,18H37.5v-2v-2V9.492C37.5,8.118,36.382,7,35.008,7H19.5c-0.699,0-2,0-2-3.339V3.017C17.5,1.354,16.146,0,14.483,0
	h-3.966C8.854,0,7.5,1.354,7.5,3.017v0.644c0,2.263-0.561,2.985-0.802,3.19C6.499,7.021,6.306,7.029,6.25,7.029
	c-0.011,0-0.018-0.002-0.016,0L5.992,7C4.618,7,3.5,8.118,3.5,9.492V14v2v30.753C3.5,49.646,5.854,52,8.747,52h23.506
	c2.893,0,5.247-2.354,5.247-5.247V46h0.404C43.747,46,48.5,41.247,48.5,35.404v-6.809C48.5,22.753,43.747,18,37.904,18z M5.5,9.492
	c0-0.251,0.189-0.459,0.433-0.488C6.297,9.052,7.111,9.066,7.9,8.451c1.062-0.83,1.6-2.441,1.6-4.79V3.017
	C9.5,2.456,9.956,2,10.517,2h3.966C15.044,2,15.5,2.456,15.5,3.017v0.644C15.5,8.074,17.675,9,19.5,9h15.508
	C35.279,9,35.5,9.221,35.5,9.492V14h-30V9.492z M35.5,16v2v4v2.992c-17.729-0.17-30-4.813-30-8.992H35.5z M37.5,24h0.404
	c2.534,0,4.596,2.062,4.596,4.596v6.809c0,2.534-2.062,4.596-4.596,4.596H37.5V24z M5.5,19.831c4.071,3.823,14.304,7.029,30,7.161v5
	c-17.729-0.17-30-4.813-30-8.992V19.831z M5.5,26.831c4.071,3.823,14.304,7.029,30,7.161v5c-17.729-0.17-30-4.813-30-8.992V26.831z
	 M5.5,33.831c4.071,3.823,14.304,7.029,30,7.161V42v3.992c-17.729-0.17-30-4.813-30-8.992V33.831z M32.253,50H8.747
	C6.957,50,5.5,48.543,5.5,46.753v-5.922c4.05,3.803,14.196,6.996,29.753,7.159C34.765,49.168,33.605,50,32.253,50z M46.5,35.404
	c0,4.74-3.856,8.596-8.596,8.596H37.5v-2h0.404c3.637,0,6.596-2.959,6.596-6.596v-6.809c0-3.637-2.959-6.596-6.596-6.596H37.5v-2
	h0.404c4.74,0,8.596,3.856,8.596,8.596V35.404z"/>
<g>
</g>
<g>
</g>
<g>
</g>
<g>
</g>
<g>
</g>
<g>
</g>
<g>
</g>
<g>
</g>
<g>
</g>
<g>
</g>
<g>
</g>
<g>
</g>
<g>
</g>
<g>
</g>
<g>
</g>
</svg>
