<?xml version="1.0" encoding="iso-8859-1"?>
<!-- Generator: Adobe Illustrator 18.0.0, SVG Export Plug-In . SVG Version: 6.00 Build 0)  -->
<!DOCTYPE svg PUBLIC "-//W3C//DTD SVG 1.1//EN" "http://www.w3.org/Graphics/SVG/1.1/DTD/svg11.dtd">
<svg version="1.1" id="Capa_1" xmlns="http://www.w3.org/2000/svg" xmlns:xlink="http://www.w3.org/1999/xlink" x="0px" y="0px"
	 viewBox="0 0 56 56" style="enable-background:new 0 0 56 56;" xml:space="preserve">
<g>
	<path d="M45.404,20H45v-2v-2v-4.508C45,10.118,43.882,9,42.508,9h-6.169C34.498,9,33,7.502,33,5.661V5.017
		C33,3.354,31.646,2,29.983,2h-3.966C24.354,2,23,3.354,23,5.017v0.644C23,7.502,21.502,9,19.661,9h-6.169
		C12.118,9,11,10.118,11,11.492V16v2v2h-0.404C4.753,20,0,24.753,0,30.596v6.809C0,43.247,4.753,48,10.596,48H11v0.753
		C11,51.646,13.354,54,16.247,54h23.506C42.646,54,45,51.646,45,48.753V48h0.404C51.247,48,56,43.247,56,37.404v-6.809
		C56,24.753,51.247,20,45.404,20z M13,11.492C13,11.221,13.221,11,13.492,11h6.169C22.605,11,25,8.605,25,5.661V5.017
		C25,4.456,25.456,4,26.017,4h3.966C30.544,4,31,4.456,31,5.017v0.644C31,8.605,33.395,11,36.339,11h6.169
		C42.779,11,43,11.221,43,11.492V16H13V11.492z M10.596,46C5.856,46,2,42.144,2,37.404v-6.809C2,25.856,5.856,22,10.596,22H11v2
		h-0.404C6.959,24,4,26.959,4,30.596v6.809C4,41.041,6.959,44,10.596,44H11v2H10.596z M11,42h-0.404C8.062,42,6,39.938,6,37.404
		v-6.809C6,28.062,8.062,26,10.596,26H11V42z M43,48.753C43,50.543,41.543,52,39.753,52H16.247C14.457,52,13,50.543,13,48.753V48v-4
		V24v-4v-2h30v2v4v20v4V48.753z M45,26h0.404C47.938,26,50,28.062,50,30.596v6.809C50,39.938,47.938,42,45.404,42H45V26z M54,37.404
		C54,42.144,50.144,46,45.404,46H45v-2h0.404C49.041,44,52,41.041,52,37.404v-6.809C52,26.959,49.041,24,45.404,24H45v-2h0.404
		C50.144,22,54,25.856,54,30.596V37.404z"/>
	<path d="M40.544,28.992l-7.883-1.145l-3.525-7.144c-0.215-0.436-0.65-0.706-1.136-0.706c-0.486,0-0.921,0.271-1.136,0.706
		l-3.525,7.144l-7.883,1.145c-0.48,0.07-0.873,0.4-1.023,0.862c-0.15,0.462-0.027,0.96,0.32,1.299l5.705,5.56l-1.346,7.851
		c-0.083,0.479,0.11,0.954,0.503,1.24c0.222,0.162,0.482,0.244,0.744,0.244c0.202,0,0.404-0.049,0.591-0.147L28,42.193l7.05,3.707
		c0.431,0.228,0.942,0.191,1.335-0.096c0.393-0.286,0.586-0.761,0.504-1.239l-1.347-7.852l5.705-5.561
		c0.348-0.339,0.47-0.836,0.32-1.299C41.417,29.392,41.025,29.062,40.544,28.992z M33.873,35.548
		c-0.301,0.292-0.438,0.713-0.367,1.123l1.161,6.768l-6.075-3.194c-0.371-0.196-0.813-0.196-1.181-0.001l-6.077,3.195l1.16-6.764
		c0.073-0.413-0.064-0.834-0.363-1.125l-4.917-4.792l6.795-0.987c0.411-0.061,0.767-0.318,0.954-0.693L28,22.92l3.04,6.159
		c0.185,0.373,0.541,0.63,0.953,0.691l6.794,0.987L33.873,35.548z"/>
</g>
<g>
</g>
<g>
</g>
<g>
</g>
<g>
</g>
<g>
</g>
<g>
</g>
<g>
</g>
<g>
</g>
<g>
</g>
<g>
</g>
<g>
</g>
<g>
</g>
<g>
</g>
<g>
</g>
<g>
</g>
</svg>
