<?xml version="1.0" encoding="iso-8859-1"?>
<!-- Generator: Adobe Illustrator 18.0.0, SVG Export Plug-In . SVG Version: 6.00 Build 0)  -->
<!DOCTYPE svg PUBLIC "-//W3C//DTD SVG 1.1//EN" "http://www.w3.org/Graphics/SVG/1.1/DTD/svg11.dtd">
<svg version="1.1" id="Capa_1" xmlns="http://www.w3.org/2000/svg" xmlns:xlink="http://www.w3.org/1999/xlink" x="0px" y="0px"
	 viewBox="0 0 60 60" style="enable-background:new 0 0 60 60;" xml:space="preserve">
<path d="M48,50c-0.507,0-0.987,0.098-1.448,0.239l-8.701-19.722C38.57,29.527,39,28.314,39,27c0-0.449-0.053-0.884-0.147-1.305
	c0.473-0.73,0.844-1.51,1.087-2.316c4.564-13.74,4.573-13.768,4.579-13.79c0.531-1.808,0.189-3.709-0.938-5.216
	C42.452,2.865,40.725,2,38.841,2c-0.429,0-0.845,0.064-1.254,0.154C36.45,0.794,34.784,0,33,0c-3.309,0-6,2.691-6,6
	c0,2.075,1.089,3.926,2.738,5H18V5h-6v6H9.5C8.121,11,7,12.121,7,13.5S8.121,16,9.5,16H19v5.701
	c-3.513,2.654-5.947,6.443-6.854,10.747L10.768,39h7.882l3.55-7.985C22.473,30.398,23.086,30,23.76,30h4.052
	c0.104,0.179,0.217,0.351,0.338,0.518l-8.701,19.722C18.987,50.098,18.507,50,18,50c-2.757,0-5,2.243-5,5s2.243,5,5,5s5-2.243,5-5
	c0-1.529-0.704-2.883-1.789-3.8l4.5-10.2H40.29l4.5,10.2C43.705,52.117,43,53.471,43,55c0,2.757,2.243,5,5,5s5-2.243,5-5
	S50.757,50,48,50z M21,55c0,1.654-1.346,3-3,3s-3-1.346-3-3s1.346-3,3-3c0.22,0,0.433,0.027,0.64,0.072l-1.555,3.524l1.83,0.807
	l1.433-3.248C20.75,53.666,21,54.301,21,55z M29.337,28.596c-0.039-0.089-0.061-0.179-0.093-0.269
	c-0.051-0.145-0.103-0.29-0.137-0.443c-0.019-0.08-0.028-0.162-0.041-0.242c-0.028-0.171-0.047-0.345-0.053-0.522
	c-0.002-0.079-0.003-0.159,0-0.238c0.005-0.178,0.025-0.352,0.053-0.524c0.013-0.078,0.021-0.155,0.038-0.233
	c0.107-0.475,0.296-0.918,0.556-1.313c0.023-0.035,0.048-0.069,0.072-0.103c0.121-0.172,0.254-0.334,0.4-0.485
	c0.022-0.023,0.043-0.048,0.066-0.07c0.345-0.34,0.753-0.616,1.202-0.814c0.034-0.015,0.069-0.029,0.103-0.043
	c0.2-0.081,0.408-0.145,0.623-0.194c0.034-0.007,0.067-0.018,0.101-0.025c0.174-0.034,0.356-0.044,0.538-0.054
	c0.09-0.005,0.181-0.021,0.27-0.02c0.249,0.002,0.493,0.028,0.729,0.074c0.14,0.027,0.271,0.076,0.406,0.117
	c0.104,0.032,0.21,0.057,0.31,0.096c0.139,0.056,0.27,0.129,0.401,0.2c0.082,0.044,0.166,0.083,0.244,0.132
	c0.14,0.089,0.27,0.191,0.398,0.297c0.054,0.044,0.109,0.086,0.161,0.133c0.144,0.133,0.278,0.277,0.402,0.431
	c0.02,0.025,0.041,0.048,0.061,0.074c0.284,0.371,0.509,0.798,0.655,1.272l0.121,0.392C36.971,26.475,37,26.734,37,27
	c0,2.206-1.794,4-4,4C31.362,31,29.954,30.009,29.337,28.596z M33,2c0.969,0,1.888,0.354,2.604,0.979
	c-0.034,0.022-0.062,0.052-0.096,0.075c-0.187,0.128-0.362,0.27-0.534,0.419c-0.076,0.066-0.156,0.128-0.229,0.197
	c-0.172,0.164-0.327,0.343-0.478,0.527c-0.057,0.07-0.121,0.134-0.175,0.206c-0.149,0.199-0.278,0.413-0.401,0.631
	c-0.039,0.069-0.087,0.133-0.124,0.203c-0.141,0.276-0.26,0.565-0.355,0.864c-0.005,0.016-0.014,0.031-0.019,0.047L31.96,9.838
	C30.251,9.375,29,7.813,29,6C29,3.794,30.794,2,33,2z M14,7h2v4h-2V7z M9.5,14C9.225,14,9,13.775,9,13.5S9.225,13,9.5,13H12h6
	h12.904H35v1h-4.429H22v5.826V24h-1v-3.751V14H9.5z M29.903,16l-0.673,2.015c-1.79,0.07-3.539,0.412-5.229,1.001V16H29.903z
	 M27.085,28H23.76c-1.464,0-2.794,0.864-3.389,2.202L17.351,37h-4.118l0.871-4.14c0.7-3.322,2.414-6.308,4.896-8.582V26h5v-4.859
	C25.905,20.384,27.905,20,29.954,20h0.72l1.337-4H37v-5h-3.318l1.415-4.239c0.081-0.262,0.198-0.508,0.332-0.745
	c0.031-0.054,0.064-0.107,0.097-0.16c0.14-0.221,0.295-0.433,0.477-0.623c0.004-0.004,0.008-0.01,0.012-0.014
	c0.199-0.206,0.423-0.388,0.664-0.548c0.026-0.018,0.054-0.033,0.081-0.05C37,4.469,37.256,4.336,37.53,4.237l0.135-0.049
	C38.04,4.068,38.435,4,38.841,4c1.247,0,2.391,0.572,3.138,1.57s0.974,2.258,0.63,3.429c-0.069,0.213-4.567,13.749-4.575,13.775
	c-0.066,0.22-0.143,0.434-0.229,0.646c-0.312-0.417-0.673-0.793-1.08-1.117c-0.056-0.045-0.114-0.085-0.171-0.128
	c-0.136-0.1-0.276-0.195-0.42-0.284c-0.071-0.044-0.141-0.09-0.215-0.13c-0.196-0.11-0.398-0.21-0.607-0.298
	c-0.062-0.026-0.126-0.046-0.189-0.069c-0.168-0.064-0.339-0.121-0.513-0.169c-0.076-0.021-0.152-0.041-0.229-0.059
	c-0.2-0.047-0.404-0.085-0.611-0.112c-0.038-0.005-0.076-0.013-0.114-0.017C33.44,21.014,33.222,21,33,21
	c-0.036,0-0.07,0.005-0.106,0.005c-0.057,0.001-0.115,0.006-0.173,0.009c-0.204,0.009-0.405,0.029-0.603,0.058
	c-0.048,0.007-0.095,0.006-0.143,0.014c-0.03,0.005-0.057,0.016-0.087,0.021c-0.236,0.044-0.468,0.1-0.693,0.171
	c-0.082,0.026-0.16,0.059-0.24,0.088c-0.163,0.059-0.323,0.125-0.479,0.198c-0.08,0.037-0.16,0.074-0.238,0.115
	c-0.214,0.111-0.421,0.232-0.618,0.368c-0.039,0.027-0.075,0.057-0.113,0.085c-0.175,0.126-0.342,0.261-0.502,0.405
	c-0.047,0.042-0.095,0.084-0.141,0.128c-0.181,0.173-0.354,0.354-0.512,0.548c-0.028,0.034-0.052,0.07-0.078,0.105
	c-0.128,0.164-0.246,0.334-0.357,0.511c-0.044,0.07-0.087,0.139-0.128,0.21c-0.117,0.205-0.226,0.416-0.319,0.635
	c-0.026,0.061-0.045,0.126-0.069,0.188c-0.07,0.182-0.131,0.368-0.183,0.558c-0.012,0.043-0.031,0.084-0.042,0.127
	c-0.011,0.045-0.016,0.09-0.026,0.135c-0.022,0.098-0.04,0.198-0.057,0.298c-0.017,0.097-0.033,0.194-0.045,0.292
	c-0.013,0.105-0.021,0.211-0.028,0.317c-0.007,0.1-0.013,0.199-0.015,0.299C27.005,26.925,27,26.962,27,27
	c0,0.069,0.008,0.136,0.01,0.205c0.003,0.096,0.007,0.191,0.015,0.286c0.01,0.12,0.025,0.238,0.042,0.356
	C27.074,27.898,27.076,27.949,27.085,28z M26.593,39l3.09-7.004C30.634,32.629,31.774,33,33,33c1.226,0,2.366-0.371,3.317-1.005
	L39.407,39H26.593z M48,58c-1.654,0-3-1.346-3-3c0-0.699,0.25-1.334,0.652-1.845l1.433,3.248l1.83-0.807l-1.555-3.524
	C47.567,52.027,47.78,52,48,52c1.654,0,3,1.346,3,3S49.654,58,48,58z"/>
<g>
</g>
<g>
</g>
<g>
</g>
<g>
</g>
<g>
</g>
<g>
</g>
<g>
</g>
<g>
</g>
<g>
</g>
<g>
</g>
<g>
</g>
<g>
</g>
<g>
</g>
<g>
</g>
<g>
</g>
</svg>
