<?xml version="1.0" encoding="iso-8859-1"?>
<!-- Generator: Adobe Illustrator 18.0.0, SVG Export Plug-In . SVG Version: 6.00 Build 0)  -->
<!DOCTYPE svg PUBLIC "-//W3C//DTD SVG 1.1//EN" "http://www.w3.org/Graphics/SVG/1.1/DTD/svg11.dtd">
<svg version="1.1" id="Capa_1" xmlns="http://www.w3.org/2000/svg" xmlns:xlink="http://www.w3.org/1999/xlink" x="0px" y="0px"
	 viewBox="0 0 57 57" style="enable-background:new 0 0 57 57;" xml:space="preserve">
<g>
	<path d="M45.904,23H45.5v-3c0-0.043-0.019-0.08-0.025-0.122c-0.009-0.072-0.018-0.142-0.042-0.209
		c-0.02-0.055-0.047-0.102-0.075-0.152c-0.033-0.059-0.067-0.114-0.111-0.164c-0.038-0.044-0.08-0.08-0.126-0.117
		c-0.051-0.042-0.103-0.079-0.163-0.11c-0.053-0.028-0.107-0.048-0.165-0.066c-0.035-0.011-0.065-0.033-0.102-0.041
		c-0.07-0.014-7.009-1.414-9.768-5.665c-1.088-1.676-1.377-3.533-0.884-5.675c0.52-2.255-0.041-4.485-1.497-5.964
		C31.375,0.529,30.129,0,28.5,0c-1.563,0-2.923,0.577-4.043,1.715C23.001,3.194,22.44,5.424,22.96,7.68
		c0.493,2.142,0.204,3.998-0.884,5.674c-2.759,4.251-9.697,5.651-9.768,5.665c-0.037,0.007-0.066,0.03-0.102,0.041
		c-0.058,0.018-0.112,0.038-0.165,0.066c-0.06,0.031-0.112,0.068-0.163,0.11c-0.045,0.037-0.087,0.073-0.125,0.117
		c-0.044,0.051-0.078,0.106-0.111,0.165c-0.028,0.05-0.056,0.097-0.075,0.152c-0.024,0.067-0.033,0.137-0.042,0.21
		C11.519,19.92,11.5,19.957,11.5,20v3h-0.404C5.253,23,0.5,27.753,0.5,33.596v6.809C0.5,46.247,5.253,51,11.096,51H11.5v0.753
		c0,2.893,2.354,5.247,5.247,5.247h23.506c2.894,0,5.247-2.354,5.247-5.247V51h0.404C51.747,51,56.5,46.247,56.5,40.404v-6.809
		C56.5,27.753,51.747,23,45.904,23z M25.883,3.118c0.491-0.499,1.023-0.807,1.617-0.972V5h2V2.13
		c0.589,0.152,1.088,0.451,1.617,0.988c0.975,0.99,1.339,2.527,0.974,4.112c-0.389,1.69-0.371,3.285,0.046,4.77h-7.273
		c0.416-1.484,0.435-3.079,0.046-4.769C24.544,5.645,24.908,4.108,25.883,3.118z M23.75,14.449c0.096-0.147,0.175-0.299,0.261-0.449
		h8.978c0.086,0.15,0.165,0.302,0.261,0.449c1.346,2.069,3.435,3.537,5.438,4.551H18.312C20.315,17.986,22.404,16.518,23.75,14.449z
		 M11.096,49C6.356,49,2.5,45.144,2.5,40.404v-6.809C2.5,28.856,6.356,25,11.096,25H11.5v2h-0.404C7.459,27,4.5,29.959,4.5,33.596
		v6.809C4.5,44.041,7.459,47,11.096,47H11.5v2H11.096z M11.5,45h-0.404C8.562,45,6.5,42.938,6.5,40.404v-6.809
		C6.5,31.062,8.562,29,11.096,29H11.5V45z M43.5,51.753c0,1.791-1.457,3.247-3.247,3.247H16.747c-1.79,0-3.247-1.457-3.247-3.247V51
		v-4V27v-4v-2h30v2v4v20v4V51.753z M45.5,29h0.404c2.534,0,4.596,2.062,4.596,4.596v6.809c0,2.534-2.062,4.596-4.596,4.596H45.5V29z
		 M54.5,40.404c0,4.74-3.856,8.596-8.596,8.596H45.5v-2h0.404c3.637,0,6.596-2.959,6.596-6.596v-6.809
		c0-3.637-2.959-6.596-6.596-6.596H45.5v-2h0.404c4.739,0,8.596,3.856,8.596,8.596V40.404z"/>
	<path d="M41.044,31.992l-7.882-1.145l-3.526-7.144c-0.215-0.436-0.649-0.706-1.136-0.706s-0.922,0.271-1.136,0.706l-3.526,7.144
		l-7.882,1.145c-0.48,0.07-0.873,0.4-1.023,0.862c-0.149,0.462-0.027,0.959,0.32,1.299l5.705,5.561l-1.347,7.852
		c-0.082,0.479,0.111,0.954,0.505,1.239c0.223,0.161,0.481,0.243,0.742,0.243c0.201,0,0.404-0.049,0.59-0.147l7.052-3.707
		l7.05,3.706c0.431,0.227,0.941,0.19,1.334-0.095c0.394-0.285,0.587-0.76,0.505-1.24l-1.347-7.851l5.705-5.561
		c0.348-0.339,0.47-0.836,0.32-1.298C41.917,32.392,41.524,32.062,41.044,31.992z M34.37,38.551
		c-0.298,0.291-0.435,0.708-0.364,1.12l1.16,6.767l-6.072-3.192c-0.372-0.198-0.816-0.198-1.183-0.002l-6.077,3.195l1.161-6.769
		c0.069-0.41-0.067-0.828-0.365-1.119l-4.917-4.792l6.796-0.987c0.41-0.06,0.767-0.318,0.952-0.693L28.5,25.92l3.04,6.159
		c0.185,0.373,0.541,0.631,0.952,0.691l6.795,0.987L34.37,38.551z"/>
</g>
<g>
</g>
<g>
</g>
<g>
</g>
<g>
</g>
<g>
</g>
<g>
</g>
<g>
</g>
<g>
</g>
<g>
</g>
<g>
</g>
<g>
</g>
<g>
</g>
<g>
</g>
<g>
</g>
<g>
</g>
</svg>
