<?xml version="1.0" encoding="iso-8859-1"?>
<!-- Generator: Adobe Illustrator 18.0.0, SVG Export Plug-In . SVG Version: 6.00 Build 0)  -->
<!DOCTYPE svg PUBLIC "-//W3C//DTD SVG 1.1//EN" "http://www.w3.org/Graphics/SVG/1.1/DTD/svg11.dtd">
<svg version="1.1" id="Capa_1" xmlns="http://www.w3.org/2000/svg" xmlns:xlink="http://www.w3.org/1999/xlink" x="0px" y="0px"
	 viewBox="0 0 59.205 59.205" style="enable-background:new 0 0 59.205 59.205;" xml:space="preserve">
<g>
	<path d="M58.326,35.702L35.224,12.6c-1.161-1.161-2.752-1.699-4.361-1.51c-0.039-0.044-0.074-0.096-0.114-0.136l-4.943-4.944
		l-0.04,0.039C23.381,4.41,18.724,6.941,15.113,9.89c-1.264-0.676-2.463-1.517-3.337-2.362c0.523-1.996,0.029-4.206-1.533-5.767
		C9.109,0.628,7.603,0.004,6,0.004S2.891,0.628,1.758,1.761C0.624,2.895,0,4.401,0,6.004c0,1.603,0.624,3.109,1.758,4.242
		c1.133,1.133,2.64,1.757,4.242,1.757c0.529,0,1.045-0.074,1.543-0.206c0.904,0.936,1.714,2.109,2.353,3.309
		c-2.951,3.61-5.489,8.269-3.854,10.661l-0.039,0.039l0.346,0.346c0.001,0.001,0.002,0.003,0.004,0.005s0.003,0.002,0.005,0.004
		l4.592,4.592c0.042,0.042,0.092,0.07,0.136,0.109c-0.191,1.612,0.348,3.203,1.51,4.365L35.699,58.33
		c0.469,0.469,1.209,0.872,2.369,0.872c1.068,0,2.494-0.342,4.392-1.291c2.765-1.382,5.888-3.745,8.795-6.652
		C56.877,45.637,61.111,38.488,58.326,35.702z M3.172,8.832C2.416,8.076,2,7.072,2,6.004c0-1.068,0.416-2.073,1.172-2.829
		C3.928,2.42,4.932,2.004,6,2.004c1.068,0,2.073,0.416,2.829,1.171c1.559,1.56,1.559,4.097,0,5.657
		C8.073,9.587,7.068,10.003,6,10.003C4.932,10.003,3.928,9.587,3.172,8.832z M10.979,9.51c1.444,1.233,3.361,2.372,5.211,3.076
		c1.3,0.495,2.434,0.718,3.464,0.728c-1.499,2.644-3.703,4.846-6.347,6.345c0.007-1.461-0.534-3.17-1.317-4.789
		c-0.019-0.046-0.041-0.089-0.067-0.133c-0.693-1.404-1.558-2.734-2.419-3.753L10.979,9.51z M10.813,17.168
		c0.587,1.657,0.72,3.103,0.137,3.685c-0.336,0.335-0.39,0.861-0.128,1.257c0.189,0.288,0.507,0.45,0.835,0.45
		c0.125,0,0.25-0.023,0.371-0.071c4.747-1.899,8.559-5.71,10.457-10.457c0.176-0.44,0.019-0.945-0.378-1.206
		c-0.397-0.262-0.922-0.208-1.258,0.128c-0.538,0.537-1.935,0.476-3.678-0.143c3.919-3.008,6.858-3.747,7.567-3.039
		c0.042,0.042,0.077,0.098,0.11,0.16l0.002,0.004c0.083,0.161,0.128,0.371,0.134,0.625c0.003,0.128-0.004,0.269-0.021,0.425
		c0,0.002-0.001,0.005-0.001,0.007c-0.017,0.15-0.046,0.313-0.085,0.489c-0.011,0.051-0.03,0.109-0.043,0.162
		c-0.033,0.133-0.068,0.268-0.115,0.415c-0.019,0.06-0.044,0.125-0.065,0.187c-0.053,0.156-0.11,0.315-0.178,0.485
		c-0.021,0.054-0.046,0.11-0.069,0.165c-0.083,0.198-0.174,0.404-0.279,0.621c-0.017,0.035-0.034,0.07-0.051,0.105
		c-0.127,0.26-0.264,0.523-0.413,0.791c-0.003,0.005-0.006,0.011-0.009,0.016c-0.965,1.729-2.365,3.595-4.054,5.401
		c-0.279,0.298-0.569,0.599-0.872,0.902c-0.32,0.32-0.639,0.627-0.955,0.922c-0.062,0.058-0.123,0.11-0.185,0.167
		c-0.256,0.235-0.511,0.467-0.762,0.685c-0.052,0.046-0.103,0.086-0.156,0.131c-0.259,0.222-0.517,0.439-0.771,0.644
		c-0.054,0.044-0.106,0.082-0.16,0.125c-0.246,0.195-0.491,0.386-0.731,0.565c-0.08,0.06-0.158,0.114-0.237,0.171
		c-0.205,0.15-0.41,0.297-0.61,0.435c-0.126,0.086-0.248,0.166-0.372,0.247c-0.142,0.094-0.285,0.19-0.424,0.278
		c-0.186,0.117-0.368,0.226-0.547,0.332c-0.064,0.038-0.129,0.078-0.192,0.114c-2.249,1.29-3.965,1.677-4.69,1.307
		c-0.06-0.034-0.122-0.067-0.168-0.113C7.059,24.034,7.8,21.091,10.813,17.168z M9.872,26.846c2.638-0.571,6.002-2.749,9.027-5.516
		c0.03-0.028,0.06-0.055,0.09-0.083c0.391-0.359,0.777-0.726,1.153-1.102c0.379-0.379,0.743-0.763,1.099-1.15
		c0.051-0.056,0.101-0.113,0.152-0.169c0.347-0.382,0.682-0.765,1.004-1.15c0.007-0.008,0.014-0.016,0.021-0.025
		c1.096-1.313,2.037-2.634,2.778-3.904c0.026-0.044,0.053-0.088,0.078-0.132c0.227-0.396,0.442-0.789,0.628-1.172
		c0.009-0.019,0.014-0.034,0.023-0.053c0.071-0.147,0.123-0.288,0.188-0.433c0.126-0.283,0.254-0.568,0.349-0.826
		c0.036-0.098,0.059-0.192,0.091-0.289c0.104-0.311,0.195-0.61,0.258-0.886c0.006-0.028,0.019-0.059,0.025-0.087l2.498,2.499
		c0.033,0.033,0.059,0.08,0.087,0.126l0.041,0.095c0.507,1.172-0.8,4.718-4.385,8.856c-0.02,0.023-0.038,0.046-0.057,0.068
		c-0.104,0.119-0.218,0.241-0.326,0.361c-0.164,0.183-0.326,0.367-0.496,0.549c-0.28,0.3-0.571,0.601-0.875,0.905
		c-0.312,0.312-0.623,0.611-0.931,0.899c-0.2,0.187-0.398,0.361-0.595,0.537c-0.103,0.092-0.207,0.189-0.309,0.278
		c-0.284,0.247-0.566,0.484-0.845,0.71c-0.007,0.006-0.014,0.012-0.022,0.018c-3.782,3.065-6.945,4.171-8.037,3.697l-0.081-0.035
		c-0.049-0.03-0.102-0.056-0.14-0.094L9.872,26.846z M13.05,31.579c0.052,0.002,0.099,0.012,0.152,0.012
		c2.908,0,7.194-2.698,10.861-6.191c0.23-0.218,0.455-0.438,0.676-0.658c0.26-0.26,0.519-0.529,0.776-0.803
		c0.144-0.153,0.285-0.307,0.425-0.461c0.075-0.083,0.15-0.165,0.224-0.249c1.87-2.083,3.385-4.233,4.335-6.19
		c0.07-0.145,0.114-0.269,0.176-0.408c0.057-0.125,0.109-0.249,0.161-0.372c0.174-0.417,0.317-0.808,0.424-1.171
		c0.008-0.027,0.018-0.055,0.026-0.082c0.065-0.228,0.117-0.442,0.158-0.649c0.004-0.022,0.008-0.044,0.012-0.066
		c0.087-0.457,0.132-0.877,0.119-1.238c0.835,0.023,1.629,0.355,2.234,0.96l7.28,7.28c-5.23,1.836-9.496,6.526-9.703,10.96
		c-1.122,4.894-5.349,9.286-9.238,9.697l-8.138-8.138C13.405,33.208,13.073,32.414,13.05,31.579z M49.841,49.844
		c-2.759,2.759-5.698,4.988-8.275,6.277c-2.583,1.291-4.012,1.233-4.452,0.794L23.84,43.642c4.27-1.266,8.369-5.854,9.518-11.041
		l0.022-0.183c0.13-3.882,4.419-8.218,9.306-9.527l14.226,14.226C58.065,38.27,55.884,43.801,49.841,49.844z"/>
	<path d="M33.931,43.127c-1.364,1.365-1.364,3.584,0,4.949c0.683,0.683,1.579,1.024,2.476,1.024c0.896,0,1.792-0.341,2.475-1.023
		c0.661-0.661,1.025-1.54,1.025-2.475s-0.364-1.814-1.025-2.475C37.515,41.762,35.295,41.763,33.931,43.127z M37.467,46.662
		c-0.585,0.584-1.535,0.586-2.122,0c-0.584-0.585-0.584-1.536,0-2.121c0.293-0.292,0.677-0.438,1.062-0.438
		c0.384,0,0.768,0.146,1.061,0.438v0c0.283,0.283,0.439,0.66,0.439,1.06S37.75,46.379,37.467,46.662z"/>
	<path d="M45.952,38.177c-0.661,0.661-1.025,1.54-1.025,2.475s0.364,1.814,1.025,2.475c0.683,0.683,1.578,1.023,2.475,1.023
		s1.792-0.341,2.475-1.023c0.661-0.661,1.025-1.54,1.025-2.475s-0.364-1.814-1.025-2.475C49.536,36.813,47.317,36.814,45.952,38.177
		z M49.487,41.712c-0.584,0.585-1.537,0.584-2.121,0c-0.283-0.283-0.439-0.66-0.439-1.06s0.156-0.777,0.439-1.061
		c0.292-0.292,0.677-0.438,1.061-0.438s0.769,0.146,1.061,0.438v0c0.283,0.283,0.439,0.66,0.439,1.06S49.771,41.429,49.487,41.712z"
		/>
	<path d="M36.76,28.984c-0.661,0.661-1.025,1.54-1.025,2.475s0.364,1.814,1.025,2.475c0.683,0.683,1.578,1.023,2.475,1.023
		s1.792-0.341,2.475-1.023c0.661-0.661,1.025-1.54,1.025-2.475s-0.364-1.814-1.025-2.475C40.344,27.62,38.125,27.621,36.76,28.984z
		 M40.295,32.52c-0.584,0.585-1.537,0.584-2.121,0c-0.283-0.283-0.439-0.66-0.439-1.06s0.156-0.777,0.439-1.061
		c0.292-0.292,0.677-0.438,1.061-0.438s0.769,0.146,1.061,0.438v0c0.283,0.283,0.439,0.66,0.439,1.06S40.578,32.237,40.295,32.52z"
		/>
</g>
<g>
</g>
<g>
</g>
<g>
</g>
<g>
</g>
<g>
</g>
<g>
</g>
<g>
</g>
<g>
</g>
<g>
</g>
<g>
</g>
<g>
</g>
<g>
</g>
<g>
</g>
<g>
</g>
<g>
</g>
</svg>
