<?xml version="1.0" encoding="iso-8859-1"?>
<!-- Generator: Adobe Illustrator 18.0.0, SVG Export Plug-In . SVG Version: 6.00 Build 0)  -->
<!DOCTYPE svg PUBLIC "-//W3C//DTD SVG 1.1//EN" "http://www.w3.org/Graphics/SVG/1.1/DTD/svg11.dtd">
<svg version="1.1" id="Capa_1" xmlns="http://www.w3.org/2000/svg" xmlns:xlink="http://www.w3.org/1999/xlink" x="0px" y="0px"
	 viewBox="0 0 57.139 57.139" style="enable-background:new 0 0 57.139 57.139;" xml:space="preserve">
<g>
	<path d="M24.924,8.859C24.125,2.74,19.149,0,14.571,0c-0.001,0-0.001,0-0.001,0C9.992,0,5.016,2.739,4.216,8.858
		C4.14,9.442,4.101,10.05,4.103,10.605c-0.013,0.207-0.268,5.098,2.875,8.184c1.097,1.078,2.463,1.784,4.068,2.133v7.217h-0.159
		c-1.574,0-2.784,1.274-2.813,2.98v11.02H8.046v7h0.027v1.695c0.024,3.417,3.011,6.305,6.521,6.305c1.746,0,3.379-0.682,4.599-1.92
		c1.223-1.241,1.881-2.896,1.854-4.642v-1.438l0,0v-7h0l0-11.218c0.036-0.708-0.221-1.389-0.723-1.917
		c-0.521-0.549-1.259-0.864-2.021-0.864h-0.255v-7.204c1.628-0.345,3.007-1.057,4.115-2.146c3.044-2.989,2.901-7.672,2.878-8.151
		C25.038,10.033,24.999,9.435,24.924,8.859z M10.073,44.139h8.973v3h-8.973V44.139z M19.046,50.592
		c0.019,1.222-0.436,2.367-1.278,3.223c-0.841,0.854-1.968,1.324-3.174,1.324c-2.434,0-4.504-1.978-4.521-4.313v-1.688h8.973V50.592
		z M18.301,30.139c0.218,0,0.426,0.088,0.571,0.242c0.07,0.074,0.186,0.229,0.174,0.489v11.27h-8.973V31.137
		c0.01-0.588,0.345-0.998,0.813-0.998h0.159h7H18.301z M16.046,28.139h-3v-6.976c0.149,0.005,0.293,0.017,0.445,0.017
		c0.351,0,0.71-0.013,1.078-0.04c0.511,0.037,0.999,0.039,1.477,0.024V28.139z M20.76,17.362c-1.05,1.031-2.46,1.625-4.198,1.777
		h-1.94c-0.017-0.001-0.034-0.002-0.052-0.002s-0.035,0.001-0.052,0.002h-1.928c-1.739-0.151-3.15-0.741-4.201-1.769
		c-2.493-2.439-2.291-6.606-2.287-6.706c0-0.529,0.033-1.049,0.098-1.547C6.842,4.201,10.866,2,14.571,2c0,0,0,0,0.001,0
		c3.703,0,7.728,2.202,8.37,7.118c0.064,0.499,0.098,1.019,0.098,1.547c0,0.02,0.001,0.04,0.002,0.06
		C23.043,10.766,23.261,14.907,20.76,17.362z"/>
	<path d="M49.88,1.59l-0.119-0.154c-0.315-0.335-0.8-0.444-1.235-0.276c-0.738,0.285-1.359,1.006-1.476,6.972
		c-0.01,0.545-0.462,0.99-1.008,0.99c-0.271,0-0.524-0.105-0.714-0.297c-0.186-0.188-0.285-0.437-0.282-0.709l0.014-3.988
		c-0.021-1.647-1.372-2.988-3.014-2.988c-0.808,0-1.563,0.315-2.129,0.889c-0.563,0.569-0.867,1.324-0.857,2.108l-0.014,3.963
		c-0.007,0.563-0.466,1.021-1.023,1.021c-0.546,0-0.998-0.444-1.008-0.991c-0.116-5.965-0.737-6.686-1.476-6.971
		c-0.437-0.168-0.92-0.059-1.235,0.276L34.185,1.59c-0.14,0.223-3.412,5.521-3.151,11.489c-0.006,0.133-0.109,3.28,2.25,5.627
		c1.204,1.199,2.806,1.955,4.763,2.268v7.165h-0.234c-0.759,0-1.466,0.298-1.991,0.838c-0.52,0.534-0.795,1.238-0.774,1.955v6.207v7
		v6.491c-0.016,1.731,0.647,3.361,1.866,4.591c1.226,1.236,2.861,1.917,4.606,1.917c3.567,0,6.495-2.912,6.527-6.5v-6.5v-7v-6.235
		c-0.043-1.55-1.282-2.765-2.82-2.765h-0.18v-7.059c2.414-0.199,4.343-0.985,5.735-2.368c2.354-2.337,2.256-5.498,2.25-5.549
		C53.292,7.11,50.02,1.813,49.88,1.59z M37.046,39.139h9v3h-9V39.139z M46.046,50.63c-0.022,2.486-2.054,4.509-4.527,4.509
		c-1.208,0-2.339-0.471-3.187-1.326c-0.84-0.848-1.297-1.972-1.286-3.174v-6.5h9V50.63z M45.226,30.139
		c0.44,0,0.809,0.368,0.82,0.793v6.207h-9v-6.235c-0.006-0.2,0.068-0.389,0.208-0.532c0.146-0.15,0.344-0.233,0.558-0.233h0.234h7
		H45.226z M40.046,28.139v-7h0.149c0.009,0,0.018,0.001,0.028,0.001c0.013,0,0.027-0.001,0.041-0.001h2.783v7H40.046z
		 M49.362,17.303c-1.355,1.339-3.474,1.951-6.33,1.818l-2.047,0.001c-2.807,0.128-4.919-0.479-6.274-1.816
		c-1.738-1.714-1.681-4.123-1.68-4.228c-0.143-3.306,0.938-6.44,1.809-8.394c0.077,0.798,0.145,1.917,0.175,3.484
		c0.03,1.628,1.38,2.953,3.008,2.953c1.646,0,3.003-1.344,3.023-3.006l0.014-3.988c-0.003-0.261,0.096-0.508,0.28-0.694
		c0.187-0.189,0.438-0.294,0.706-0.294c0.552,0,1.007,0.454,1.014,0.997l-0.014,3.963c-0.01,0.802,0.296,1.559,0.859,2.13
		c0.568,0.575,1.327,0.891,2.137,0.891c1.628,0,2.978-1.324,3.008-2.952c0.03-1.564,0.098-2.683,0.174-3.48
		c0.871,1.96,1.951,5.115,1.81,8.471C51.034,13.184,51.097,15.59,49.362,17.303z"/>
	<path d="M14.046,4.139c-0.553,0-1,0.448-1,1s0.447,1,1,1c2.757,0,5,2.243,5,5c0,0.552,0.447,1,1,1s1-0.448,1-1
		C21.046,7.279,17.905,4.139,14.046,4.139z"/>
</g>
<g>
</g>
<g>
</g>
<g>
</g>
<g>
</g>
<g>
</g>
<g>
</g>
<g>
</g>
<g>
</g>
<g>
</g>
<g>
</g>
<g>
</g>
<g>
</g>
<g>
</g>
<g>
</g>
<g>
</g>
</svg>
