<?xml version="1.0" encoding="iso-8859-1"?>
<!-- Generator: Adobe Illustrator 18.0.0, SVG Export Plug-In . SVG Version: 6.00 Build 0)  -->
<!DOCTYPE svg PUBLIC "-//W3C//DTD SVG 1.1//EN" "http://www.w3.org/Graphics/SVG/1.1/DTD/svg11.dtd">
<svg version="1.1" id="Capa_1" xmlns="http://www.w3.org/2000/svg" xmlns:xlink="http://www.w3.org/1999/xlink" x="0px" y="0px"
	 viewBox="0 0 60 60" style="enable-background:new 0 0 60 60;" xml:space="preserve">
<g>
	<path d="M26.916,41.974c1.365-1.364,1.365-3.585,0-4.949c-1.322-1.322-3.627-1.322-4.951,0c-1.364,1.364-1.364,3.585,0.001,4.949
		C22.627,42.635,23.506,43,24.441,43S26.255,42.635,26.916,41.974z M23.38,40.56c-0.585-0.585-0.585-1.536,0-2.121
		C23.664,38.156,24.04,38,24.441,38c0.4,0,0.777,0.156,1.06,0.439h0c0.584,0.585,0.584,1.536,0,2.121
		C24.936,41.126,23.946,41.126,23.38,40.56z"/>
	<path d="M31.965,43.025c-1.364,1.364-1.364,3.585,0.001,4.949C32.627,48.635,33.506,49,34.441,49s1.814-0.364,2.475-1.025
		c1.365-1.364,1.365-3.585,0-4.949C35.594,41.703,33.289,41.703,31.965,43.025z M35.501,46.56c-0.566,0.567-1.555,0.565-2.121,0
		c-0.585-0.585-0.585-1.536,0-2.121C33.664,44.156,34.04,44,34.441,44c0.4,0,0.777,0.156,1.06,0.439h0
		C36.086,45.024,36.086,45.975,35.501,46.56z"/>
	<path d="M24.965,51.025c-1.364,1.364-1.364,3.585,0.001,4.949C25.627,56.635,26.506,57,27.441,57s1.814-0.364,2.475-1.025
		c1.365-1.364,1.365-3.585,0-4.949C28.594,49.703,26.289,49.703,24.965,51.025z M28.501,54.56c-0.566,0.567-1.554,0.565-2.121,0
		c-0.585-0.585-0.585-1.536,0-2.121C26.664,52.156,27.04,52,27.441,52c0.4,0,0.777,0.156,1.06,0.439h0
		C29.086,53.024,29.086,53.975,28.501,54.56z"/>
	<path d="M44.093,54.767l-0.251-1.005c-1.763-7.05-1.695-16.48,0.168-23.466c0.34-1.274,0.074-2.605-0.73-3.651S41.26,25,39.941,25
		v-1c1.122,0,2-0.915,2-2.084v-1.832c0-1.169-0.878-2.084-2-2.084v-2.015c0-1.095-0.891-1.985-1.986-1.985h-0.152
		c-0.302-1.13-1.118-2.14-2.417-2.957c-1.042-0.655-1.655-3.017-1.11-4.407c0.564-1.421,0.431-3.056-0.356-4.374
		c-0.748-1.252-1.986-2.063-3.392-2.228c-0.385-0.045-0.793-0.045-1.169,0c-1.412,0.164-2.65,0.976-3.398,2.228
		c-0.787,1.318-0.92,2.954-0.336,4.424c0.525,1.341-0.087,3.702-1.129,4.357c-1.299,0.817-2.115,1.826-2.417,2.957h-0.152
		c-1.095,0-1.985,0.891-1.985,1.985V18c-1.122,0-2,0.915-2,2.084v1.832c0,1.169,0.878,2.084,2,2.084V25
		c-1.23,0.028-2.377,0.586-3.16,1.54c-0.803,0.979-1.121,2.254-0.873,3.496l0.563,2.816c1.074,5.37,1.114,12.905,0.098,18.324
		l-0.719,3.835c-0.231,1.235,0.096,2.498,0.898,3.465C17.552,59.445,18.733,60,19.99,60h20.018c1.306,0,2.516-0.591,3.319-1.62
		S44.41,56.034,44.093,54.767z M25.56,12.736c2.037-1.28,2.72-4.756,1.904-6.839c-0.336-0.847-0.256-1.822,0.214-2.609
		c0.433-0.725,1.111-1.175,1.916-1.268c0.227-0.029,0.46-0.029,0.698,0c0.8,0.093,1.479,0.543,1.911,1.268
		c0.471,0.787,0.551,1.763,0.191,2.669c-0.792,2.023-0.109,5.499,1.928,6.779c0.625,0.394,1.072,0.816,1.335,1.264H24.225
		C24.488,13.552,24.934,13.129,25.56,12.736z M21.926,16h0.015l0,0h16v2H21.936L21.926,16z M19.941,20.083
		c0-0.046,0.009-0.077,0.007-0.084h19.975c0.007,0.013,0.018,0.034,0.018,0.084v1.832c0,0.047-0.01,0.077-0.002,0.084L38.945,22
		C38.944,22,38.942,22,38.941,22h-18c-0.028,0-0.051,0.014-0.079,0.016l-0.9,0.001c-0.005-0.007-0.021-0.04-0.021-0.101V20.083z
		 M18.328,27.809c0.422-0.515,1.045-0.81,1.71-0.81h0.903c0.552,0,1-0.447,1-1v-2h16v2c0,0.553,0.448,1,1,1h1
		c0.692,0,1.332,0.314,1.753,0.864c0.422,0.549,0.562,1.248,0.383,1.917c-0.263,0.986-0.489,2.022-0.683,3.089
		c-2.95,2.753-7.878,2.753-10.686-0.055c-3.222-3.221-8.637-3.541-12.406-1.004l-0.433-2.167
		C17.739,28.992,17.906,28.323,18.328,27.809z M41.751,57.149C41.329,57.69,40.693,58,40.008,58H19.99
		c-0.66,0-1.28-0.291-1.702-0.799s-0.593-1.171-0.472-1.819l0.719-3.835c0.964-5.139,1.004-12.089,0.161-17.517
		c2.988-2.622,7.822-2.575,10.598,0.2c1.821,1.821,4.276,2.729,6.745,2.729c1.707,0,3.416-0.445,4.932-1.312
		c-0.753,6.182-0.448,13.089,0.93,18.6l0.251,1.005C42.319,55.917,42.173,56.609,41.751,57.149z"/>
</g>
<g>
</g>
<g>
</g>
<g>
</g>
<g>
</g>
<g>
</g>
<g>
</g>
<g>
</g>
<g>
</g>
<g>
</g>
<g>
</g>
<g>
</g>
<g>
</g>
<g>
</g>
<g>
</g>
<g>
</g>
</svg>
