<?xml version="1.0" encoding="iso-8859-1"?>
<!-- Generator: Adobe Illustrator 18.0.0, SVG Export Plug-In . SVG Version: 6.00 Build 0)  -->
<!DOCTYPE svg PUBLIC "-//W3C//DTD SVG 1.1//EN" "http://www.w3.org/Graphics/SVG/1.1/DTD/svg11.dtd">
<svg version="1.1" id="Capa_1" xmlns="http://www.w3.org/2000/svg" xmlns:xlink="http://www.w3.org/1999/xlink" x="0px" y="0px"
	 viewBox="0 0 52 52" style="enable-background:new 0 0 52 52;" xml:space="preserve">
<g>
	<path d="M48,16.919v-6.239C48,8.927,46.573,7.5,44.819,7.5H27.181C25.427,7.5,24,8.927,24,10.681v6.239
		c-2.336,0.899-4,3.161-4,5.809v22.543c0,3.176,2.445,5.229,6.229,5.229h19.543c3.784,0,6.229-2.053,6.229-5.229V22.729
		C52,20.08,50.336,17.818,48,16.919z M46,10.681V16.5h-0.229H43v-7h1.819C45.47,9.5,46,10.029,46,10.681z M31,16.5v-7h2v7H31z
		 M35,9.5h2v7h-2V9.5z M39,9.5h2v7h-2V9.5z M26,16.5v-5.819c0-0.651,0.53-1.181,1.181-1.181H29v7h-2.771H26z M50,45.271
		c0,2.914-2.957,3.229-4.229,3.229H26.229C24.957,48.5,22,48.186,22,45.271V22.729c0-2.332,1.897-4.229,4.229-4.229h19.543
		c2.332,0,4.229,1.896,4.229,4.229V45.271z"/>
	<path d="M14,12.5c0-6.168-3.075-11-7-11s-7,4.832-7,11c0,5.632,2.566,10.137,6,10.88v5.262c-1.72,0.447-3,1.999-3,3.858v4v6v4
		c0,2.206,1.794,4,4,4s4-1.794,4-4v-4v-6v-4c0-1.859-1.28-3.411-3-3.858V23.38C11.434,22.637,14,18.132,14,12.5z M2,12.5
		c0-4.879,2.29-9,5-9s5,4.121,5,9s-2.29,9-5,9S2,17.379,2,12.5z M5,38.5h4v2H5V38.5z M9,46.5c0,1.103-0.897,2-2,2s-2-0.897-2-2v-4h4
		V46.5z M9,32.5v4H5v-4c0-1.103,0.897-2,2-2S9,31.397,9,32.5z"/>
	<path d="M36,21.5c-6.617,0-12,5.383-12,12s5.383,12,12,12s12-5.383,12-12S42.617,21.5,36,21.5z M36,43.5c-5.514,0-10-4.486-10-10
		s4.486-10,10-10s10,4.486,10,10S41.514,43.5,36,43.5z"/>
	<path d="M38.5,29.143c-0.437,0-0.867,0.081-1.278,0.23c0.139-0.548,0.353-1.077,0.689-1.43C38.198,27.641,38.544,27.5,39,27.5
		c0.552,0,1-0.447,1-1s-0.448-1-1-1c-0.999,0-1.876,0.368-2.539,1.064c-0.784,0.824-1.154,1.977-1.325,2.97
		c-0.518-0.247-1.07-0.392-1.637-0.392c-2.481,0-4.5,2.468-4.5,5.5s2.019,5.5,4.5,5.5c0.896,0,1.767-0.328,2.5-0.925
		c0.733,0.597,1.604,0.925,2.5,0.925c2.481,0,4.5-2.468,4.5-5.5S40.981,29.143,38.5,29.143z M38.5,38.143
		c-0.627,0-1.232-0.342-1.704-0.963c-0.189-0.248-0.484-0.395-0.796-0.395c-0.313,0-0.607,0.146-0.796,0.395
		c-0.472,0.621-1.077,0.963-1.704,0.963c-1.355,0-2.5-1.603-2.5-3.5s1.145-3.5,2.5-3.5c0.627,0,1.232,0.342,1.704,0.963
		c0.013,0.017,0.035,0.023,0.049,0.039c0.184,0.213,0.446,0.356,0.746,0.356c0.017,0,0.034,0,0.051-0.001
		c0.294-0.015,0.545-0.16,0.717-0.371c0.008-0.01,0.021-0.013,0.029-0.023c0.472-0.621,1.077-0.963,1.704-0.963
		c1.355,0,2.5,1.603,2.5,3.5S39.855,38.143,38.5,38.143z"/>
</g>
<g>
</g>
<g>
</g>
<g>
</g>
<g>
</g>
<g>
</g>
<g>
</g>
<g>
</g>
<g>
</g>
<g>
</g>
<g>
</g>
<g>
</g>
<g>
</g>
<g>
</g>
<g>
</g>
<g>
</g>
</svg>
