<?xml version="1.0" encoding="iso-8859-1"?>
<!-- Generator: Adobe Illustrator 18.0.0, SVG Export Plug-In . SVG Version: 6.00 Build 0)  -->
<!DOCTYPE svg PUBLIC "-//W3C//DTD SVG 1.1//EN" "http://www.w3.org/Graphics/SVG/1.1/DTD/svg11.dtd">
<svg version="1.1" id="Capa_1" xmlns="http://www.w3.org/2000/svg" xmlns:xlink="http://www.w3.org/1999/xlink" x="0px" y="0px"
	 viewBox="0 0 57 57" style="enable-background:new 0 0 57 57;" xml:space="preserve">
<path d="M56.999,9.503c0-0.001,0-0.002,0-0.003h0c-0.002-1.348-0.58-2.592-1.574-3.652c-0.005-0.005-0.009-0.01-0.014-0.015
	c-1.859-1.97-5.187-3.281-9.095-3.366c-0.12-0.051-0.251-0.079-0.39-0.079c-8.438,0-15.385,4.386-17.426,5.815
	c-2.042-1.43-8.989-5.815-17.426-5.815c-0.138,0-0.27,0.028-0.39,0.079C4.667,2.599,0.005,5.635,0,9.5h0c0,0.001,0,0.002,0,0.003
	s0,0.002,0,0.003h0c0.005,3.948,4.866,7.04,11.072,7.044c0.001,0,0.001,0,0.001,0c0.002,0,0.003,0,0.005,0c0.002,0,0.003,0,0.005,0
	v0c7.486-0.003,13.802-3.461,16.555-5.238c0.085,0.03,0.169,0.059,0.253,0.092v8.325C15.245,20.547,5.225,30.292,5.225,42.16
	c0,3.206,0.722,6.31,2.146,9.224l0.147,0.301l0.298,0.152c5.071,2.577,11.091,2.773,17.492,2.773c0.574,0,1.151-0.001,1.731-0.003
	l1.787-0.003c9.357,0,17.004-0.291,23.162-3.952l0.286-0.17l0.127-0.308C53.462,47.607,54,44.911,54,42.16
	c0-12.316-10.789-22.347-24.107-22.486v-8.028c2.979,1.842,8.978,4.901,16.023,4.904v0c0.002,0,0.004,0,0.006,0
	c0.002,0,0.003,0,0.005,0c0.001,0,0.001,0,0.002,0c6.206-0.004,11.066-3.096,11.071-7.044h0C57,9.505,56.999,9.504,56.999,9.503z
	 M41.705,6.686c-0.055,0.027-0.091,0.073-0.139,0.109c-0.751,0.35-5.232,2.315-9.52,1.564c3.041-1.708,8.145-3.966,13.869-3.969
	v0.066c1.02,0,2.004,0.104,2.929,0.286C45.023,5.06,41.901,6.588,41.705,6.686z M28.708,48.604l-1.887,0.003
	c-1.066,0.003-2.121,0.004-3.166-0.002c-4.156-9.591-1.595-17.297,0.337-21.068c1.59-3.102,3.387-4.927,4.305-5.578
	c0.168,0.128,0.368,0.217,0.595,0.217c0.238,0,0.447-0.095,0.619-0.234c0.937,0.64,2.749,2.469,4.351,5.594
	c1.928,3.763,4.482,11.445,0.362,21.009C32.455,48.591,30.618,48.604,28.708,48.604z M11.083,4.456V4.39
	c6.233,0.003,11.726,2.679,14.626,4.407c-5.346-0.738-10.439,1.601-10.696,1.722c-0.058,0.027-0.098,0.074-0.148,0.11
	c-0.917,0.4-7.051,2.905-12.165,0.774c-0.447-0.59-0.698-1.232-0.699-1.9C2.003,6.767,6.161,4.456,11.083,4.456z M11.078,14.551
	c-1.059,0-2.079-0.113-3.034-0.309c4.159-0.178,7.588-1.759,7.797-1.858c0.058-0.027,0.097-0.073,0.147-0.109
	c0.717-0.311,4.631-1.9,8.743-1.57C21.672,12.397,16.684,14.55,11.078,14.551z M25.292,22.054c-0.677,0.762-1.329,1.632-1.889,2.502
	c-2.189,3.398-6.613,12.372-1.937,24.022c-5.09-0.111-9.826-0.585-13.815-2.464c-0.278-1.294-0.425-2.613-0.425-3.954
	C7.225,32.213,15.009,23.902,25.292,22.054z M28.827,52.604l-1.792,0.003c-6.659,0.02-12.965,0.036-18.011-2.404
	c-0.25-0.534-0.459-1.079-0.658-1.627c4.94,1.865,10.627,2.034,16.639,2.034c0.604,0,1.212-0.001,1.821-0.003l1.882-0.003
	c8.919,0,16.355-0.247,22.485-3.012c-0.152,0.507-0.319,1.011-0.514,1.509C45,52.342,37.721,52.604,28.827,52.604z M52,42.16
	c0,0.985-0.095,1.96-0.247,2.926c-4.258,2.306-9.363,3.111-15.322,3.381c4.603-11.597,0.201-20.526-1.981-23.912
	c-0.617-0.958-1.344-1.916-2.094-2.729C43.409,23.069,52,31.711,52,42.16z M45.922,14.551c-6.044-0.001-11.382-2.513-14.346-4.242
	c0.847,0.158,1.695,0.229,2.523,0.229c4.411,0,8.264-1.9,8.482-2.01c0.055-0.027,0.091-0.073,0.139-0.109
	c0.862-0.402,6.644-2.929,11.399-1.032c0.558,0.648,0.881,1.365,0.882,2.117C54.996,12.238,50.841,14.549,45.922,14.551z"/>
<g>
</g>
<g>
</g>
<g>
</g>
<g>
</g>
<g>
</g>
<g>
</g>
<g>
</g>
<g>
</g>
<g>
</g>
<g>
</g>
<g>
</g>
<g>
</g>
<g>
</g>
<g>
</g>
<g>
</g>
</svg>
