<?xml version="1.0" encoding="iso-8859-1"?>
<!-- Generator: Adobe Illustrator 18.0.0, SVG Export Plug-In . SVG Version: 6.00 Build 0)  -->
<!DOCTYPE svg PUBLIC "-//W3C//DTD SVG 1.1//EN" "http://www.w3.org/Graphics/SVG/1.1/DTD/svg11.dtd">
<svg version="1.1" id="Capa_1" xmlns="http://www.w3.org/2000/svg" xmlns:xlink="http://www.w3.org/1999/xlink" x="0px" y="0px"
	 viewBox="0 0 52.445 52.445" style="enable-background:new 0 0 52.445 52.445;" xml:space="preserve">
<g>
	<path d="M48.311,25.018c-2.338-2.337-5.379-3.702-8.744-4.005c1.843-1.957,1.819-5.042-0.095-6.955
		c-0.941-0.941-2.196-1.46-3.535-1.46s-2.594,0.519-3.536,1.46l-0.129,0.129c-0.145-0.305-0.332-0.591-0.578-0.836
		c-1.13-1.131-3.113-1.131-4.243,0l-2.121,2.121l-3.174-3.174c0.265-4.855-3.657-9.293-3.858-9.516
		c-2.689-2.729-6.138-3.468-9.975-2.14C4.767,1.875,1.911,4.757,0.684,8.351c-1.32,3.868-0.611,7.32,2.092,10.021
		c0.189,0.169,4.632,4.102,9.481,3.825l3.173,3.173l-2.122,2.122c-1.169,1.17-1.169,3.073,0,4.243
		c0.249,0.249,0.536,0.434,0.837,0.577l-0.13,0.13c-1.95,1.949-1.95,5.122,0,7.071c0.975,0.975,2.255,1.462,3.535,1.462
		c1.232,0,2.458-0.463,3.418-1.366c0.302,3.359,1.672,6.406,4.008,8.742c2.742,2.741,6.393,4.093,10.162,4.093
		c4.271,0,8.694-1.736,12.111-5.154c3.099-3.098,4.922-7.113,5.135-11.305C52.601,31.756,51.153,27.86,48.311,25.018z M13.538,20.65
		c-0.299-0.298-0.706-0.464-1.134-0.464c-0.04,0-0.08,0.002-0.121,0.005C8.23,20.5,4.153,16.92,4.151,16.92
		c-2.116-2.116-2.646-4.782-1.574-7.923C3.607,5.981,6,3.565,8.979,2.533c3.099-1.076,5.755-0.518,7.862,1.618
		c0.036,0.041,3.618,4.09,3.31,8.174c-0.035,0.472,0.133,0.93,0.46,1.255l3.306,3.306l-7.072,7.071L13.538,20.65z M14.724,30.321
		c-0.39-0.39-0.39-1.025,0-1.415l2.121-2.121l0,0l4.95-4.95l7.071-7.071c0.187-0.188,0.438-0.291,0.707-0.291
		c0.269,0,0.52,0.104,0.708,0.291s0.291,0.438,0.291,0.707s-0.103,0.52-0.291,0.707L16.136,30.322
		C15.747,30.71,15.113,30.709,14.724,30.321z M15.43,38.1c-1.17-1.17-1.17-3.073,0-4.243l2.119-2.119
		c0.001-0.001,0.002-0.001,0.003-0.002l14.142-14.143l2.121-2.121c0.563-0.563,1.317-0.874,2.122-0.874
		c0.804,0,1.558,0.311,2.121,0.874c1.17,1.17,1.17,3.073,0,4.243l-1.269,1.269L20.942,36.83l0,0.001L19.673,38.1
		C18.502,39.269,16.599,39.269,15.43,38.1z M26.891,37.504c0.184-2.631,1.387-5.182,3.388-7.183
		c2.254-2.254,5.141-3.411,7.867-3.411c2.226,0,4.345,0.772,5.922,2.35c3.509,3.509,3.033,9.694-1.061,13.789
		c-4.094,4.094-10.28,4.568-13.789,1.061C27.538,42.429,26.711,40.083,26.891,37.504z M50.388,35.885
		c-0.188,3.696-1.805,7.245-4.552,9.992c-5.654,5.653-14.376,6.129-19.445,1.062c-2.389-2.39-3.623-5.657-3.494-9.234l2.31-2.31
		c-0.153,0.649-0.264,1.307-0.311,1.971c-0.221,3.164,0.812,6.062,2.909,8.158c1.965,1.965,4.594,2.93,7.336,2.93
		c3.242,0,6.641-1.35,9.281-3.99c4.874-4.874,5.35-12.328,1.061-16.617c-2.63-2.63-6.45-3.461-10.136-2.591l2.317-2.317
		c3.565-0.127,6.844,1.104,9.233,3.494C49.334,28.869,50.574,32.227,50.388,35.885z"/>
	<path d="M11.039,15.002c-2.757,0-5-2.243-5-5c0-0.553-0.448-1-1-1s-1,0.447-1,1c0,3.859,3.14,7,7,7c0.552,0,1-0.447,1-1
		C12.039,15.449,11.591,15.002,11.039,15.002z"/>
</g>
<g>
</g>
<g>
</g>
<g>
</g>
<g>
</g>
<g>
</g>
<g>
</g>
<g>
</g>
<g>
</g>
<g>
</g>
<g>
</g>
<g>
</g>
<g>
</g>
<g>
</g>
<g>
</g>
<g>
</g>
</svg>
