<?xml version="1.0" encoding="iso-8859-1"?>
<!-- Generator: Adobe Illustrator 18.0.0, SVG Export Plug-In . SVG Version: 6.00 Build 0)  -->
<!DOCTYPE svg PUBLIC "-//W3C//DTD SVG 1.1//EN" "http://www.w3.org/Graphics/SVG/1.1/DTD/svg11.dtd">
<svg version="1.1" id="Capa_1" xmlns="http://www.w3.org/2000/svg" xmlns:xlink="http://www.w3.org/1999/xlink" x="0px" y="0px"
	 viewBox="0 0 52.095 52.095" style="enable-background:new 0 0 52.095 52.095;" xml:space="preserve">
<path d="M52.08,15.475c-0.011-0.253-0.025-0.428-0.032-0.51c-0.015-3.741-1.758-6.851-5.045-8.993
	c-3.84-2.504-8.833-2.519-13.029-0.041c-4.097,2.421-7.788,2.087-7.821,2.087l-0.104-0.011l-0.102,0.01
	c-0.037,0.004-3.725,0.335-7.825-2.086C13.925,3.452,8.934,3.469,5.092,5.972c-3.287,2.143-5.03,5.252-5.045,8.993
	c-0.007,0.082-0.021,0.257-0.032,0.511c-0.299,6.714,3.813,12.926,10.073,15.4c-0.027,0.376-0.041,0.755-0.041,1.136
	c0,8.822,7.178,16,16,16s16-7.178,16-16c0-0.381-0.014-0.76-0.041-1.136C48.267,28.402,52.378,22.19,52.08,15.475z M26.047,46.012
	c-7.72,0-14-6.28-14-14c0-4.628,2.266-8.883,6.018-11.484c0.005,0.07,0.012,0.141,0.019,0.211c0.004,0.048,0.008,0.096,0.013,0.144
	c0,0.004,0.001,0.009,0.001,0.013l0.023,0.155c0.003,0.026,0.01,0.052,0.014,0.078c0.029,0.209,0.063,0.417,0.108,0.621
	c0.001,0.007,0.002,0.013,0.003,0.02l0.026,0.1c0.003,0.014,0.009,0.028,0.012,0.041c0.059,0.24,0.127,0.475,0.207,0.705
	c0.005,0.015,0.007,0.028,0.013,0.043c0.003,0.008,0.006,0.016,0.008,0.023c-2.81,2.271-4.465,5.702-4.465,9.329
	c0,6.617,5.383,12,12,12s12-5.383,12-12c0-3.627-1.655-7.058-4.465-9.329c0.006-0.018,0.013-0.035,0.019-0.053
	c0.004-0.012,0.006-0.024,0.01-0.036c0.074-0.216,0.137-0.437,0.193-0.661c0.004-0.017,0.011-0.035,0.015-0.053l0.028-0.111
	c0.001-0.005,0.002-0.011,0.003-0.017c0.048-0.216,0.084-0.437,0.115-0.659c0.003-0.023,0.008-0.042,0.011-0.066l0.02-0.136
	c0-0.003,0.001-0.006,0.001-0.009c0.005-0.047,0.008-0.095,0.013-0.142c0.007-0.071,0.014-0.141,0.019-0.212
	c3.752,2.602,6.018,6.856,6.018,11.484C40.047,39.732,33.767,46.012,26.047,46.012z M31.915,18.764l0.021,0.111
	c0.002,0.008,0.002,0.017,0.004,0.025c0.033,0.176,0.06,0.352,0.078,0.537c0.018,0.189,0.029,0.38,0.029,0.574
	c0,0.224-0.015,0.443-0.042,0.681l-0.016,0.101c-0.023,0.181-0.053,0.36-0.113,0.613c-0.046,0.192-0.101,0.383-0.174,0.591
	c-0.069,0.198-0.149,0.39-0.238,0.577c-0.964,2.028-3.026,3.438-5.417,3.438c-2.391,0-4.454-1.409-5.417-3.437
	c-0.089-0.186-0.169-0.378-0.246-0.598c-0.001-0.002-0.001-0.003-0.002-0.005c-0.064-0.184-0.119-0.374-0.185-0.642
	c-0.04-0.177-0.07-0.356-0.093-0.532l-0.019-0.125c-0.024-0.217-0.039-0.437-0.039-0.66c0-0.193,0.01-0.384,0.029-0.575
	c0.017-0.182,0.045-0.359,0.078-0.536c0.002-0.008,0.002-0.017,0.004-0.025l0.021-0.111c0.576-2.712,2.987-4.753,5.868-4.753
	S31.339,16.053,31.915,18.764z M26.047,28.012c2.74,0,5.16-1.386,6.603-3.491c1.648,1.453,2.756,3.403,3.186,5.535H16.259
	c0.429-2.132,1.538-4.082,3.186-5.535C20.887,26.626,23.308,28.012,26.047,28.012z M36.045,32.056
	c-0.024,5.493-4.498,9.956-9.998,9.956s-9.974-4.463-9.998-9.956H36.045z M41.728,28.838c-0.917-4.543-3.78-8.493-7.937-10.801
	c-0.883-3.457-4.015-6.025-7.743-6.025s-6.86,2.568-7.743,6.025c-4.157,2.309-7.02,6.258-7.937,10.801
	c-5.22-2.277-8.607-7.573-8.354-13.274c0.012-0.277,0.028-0.438,0.029-0.452l0.005-0.101c0-3.097,1.392-5.574,4.137-7.364
	c3.199-2.086,7.382-2.084,10.919,0.006c4.345,2.566,8.244,2.41,8.944,2.362c0.696,0.051,4.597,0.205,8.943-2.362
	c3.537-2.089,7.721-2.091,10.919-0.006c2.746,1.79,4.138,4.268,4.138,7.364l0.005,0.101c0.001,0.015,0.017,0.175,0.029,0.451
	C50.335,21.265,46.947,26.561,41.728,28.838z"/>
<g>
</g>
<g>
</g>
<g>
</g>
<g>
</g>
<g>
</g>
<g>
</g>
<g>
</g>
<g>
</g>
<g>
</g>
<g>
</g>
<g>
</g>
<g>
</g>
<g>
</g>
<g>
</g>
<g>
</g>
</svg>
