<?xml version="1.0" encoding="iso-8859-1"?>
<!-- Generator: Adobe Illustrator 18.0.0, SVG Export Plug-In . SVG Version: 6.00 Build 0)  -->
<!DOCTYPE svg PUBLIC "-//W3C//DTD SVG 1.1//EN" "http://www.w3.org/Graphics/SVG/1.1/DTD/svg11.dtd">
<svg version="1.1" id="Capa_1" xmlns="http://www.w3.org/2000/svg" xmlns:xlink="http://www.w3.org/1999/xlink" x="0px" y="0px"
	 viewBox="0 0 48.988 48.988" style="enable-background:new 0 0 48.988 48.988;" xml:space="preserve">
<g>
	<path d="M46.605,4.22c-0.226-0.271-0.466-0.534-0.719-0.787c-0.254-0.254-0.517-0.494-0.788-0.72
		c-2.696-2.25-6.217-2.948-9.656-1.915c-3.599,1.081-6.388,3.86-7.462,7.436c-0.421,1.4-0.885,2.659-1.378,3.795
		c-6.588-5.5-14.908-10.421-18.095-7.233c-1.688,1.688-1.239,5.028,1.301,9.658c0.265,0.483,0.554,0.976,0.857,1.475
		c-2.138,0.85-4.058,2.081-5.694,3.716c-6.628,6.628-6.628,17.413,0,24.042c3.314,3.314,7.667,4.971,12.021,4.971
		c4.354,0,8.707-1.657,12.021-4.971c1.636-1.636,2.866-3.556,3.716-5.694c0.498,0.303,0.992,0.592,1.475,0.857
		c2.794,1.532,5.118,2.304,6.893,2.304c1.167,0,2.096-0.333,2.766-1.003c3.071-3.071-1.284-10.813-6.653-17.398
		c1.155-0.506,2.441-0.982,3.876-1.414c3.575-1.074,6.355-3.864,7.436-7.462C49.553,10.435,48.856,6.916,46.605,4.22z
		 M22.089,29.648c0.063,0.06,0.125,0.122,0.188,0.181c0.075,0.07,0.15,0.136,0.224,0.206c0.021,0.02,0.042,0.038,0.063,0.058
		c0.38,0.355,0.76,0.704,1.142,1.047c0.116,0.105,0.232,0.214,0.348,0.317c0.009,0.008,0.019,0.016,0.028,0.024
		c0.041,0.036,0.082,0.07,0.123,0.106c0.453,0.401,0.906,0.792,1.36,1.174c0.078,0.066,0.157,0.136,0.235,0.201
		c0.5,0.418,0.999,0.82,1.497,1.213c0.112,0.089,0.224,0.178,0.336,0.266c-0.491,1.892-1.474,3.611-2.864,5.002
		c-4.289,4.288-11.267,4.289-15.557,0c-4.289-4.289-4.289-11.268,0-15.557c1.39-1.39,3.109-2.372,5.002-2.864
		c0.087,0.112,0.177,0.224,0.266,0.336c0.393,0.498,0.796,0.997,1.213,1.497c0.066,0.078,0.135,0.157,0.201,0.235
		c0.382,0.453,0.774,0.907,1.174,1.36c0.036,0.041,0.07,0.082,0.106,0.123c0.008,0.009,0.016,0.019,0.024,0.028
		c0.103,0.116,0.213,0.232,0.317,0.348c0.343,0.381,0.692,0.762,1.047,1.142c0.02,0.021,0.038,0.042,0.058,0.063
		c0.07,0.075,0.136,0.15,0.206,0.224c0.059,0.063,0.122,0.125,0.181,0.188c0.497,0.523,1.001,1.044,1.518,1.562
		S21.566,29.151,22.089,29.648z M27.599,42.272c-5.848,5.849-15.364,5.85-21.213,0c-5.849-5.849-5.849-15.365,0-21.213
		c1.532-1.531,3.333-2.685,5.363-3.434c0.131,0.195,0.273,0.394,0.409,0.591c0.211,0.306,0.424,0.613,0.646,0.921
		c0.045,0.063,0.086,0.124,0.131,0.187c-1.929,0.632-3.685,1.699-5.135,3.149c-5.068,5.068-5.068,13.316,0,18.385
		c2.535,2.534,5.864,3.801,9.192,3.801c3.329,0,6.658-1.267,9.192-3.801c1.45-1.45,2.517-3.206,3.149-5.135
		c0.063,0.046,0.125,0.086,0.187,0.131c0.309,0.222,0.615,0.435,0.921,0.646c0.197,0.136,0.396,0.278,0.591,0.409
		C30.283,38.939,29.13,40.74,27.599,42.272z M42.448,38.736c-0.735,0.734-3.032,0.69-7.283-1.64
		c-0.877-0.481-1.789-1.043-2.717-1.654c-0.264-0.174-0.529-0.35-0.795-0.533c-0.219-0.15-0.44-0.307-0.661-0.464
		c-0.275-0.195-0.55-0.389-0.828-0.593c-0.275-0.203-0.552-0.417-0.829-0.629c-0.041-0.032-0.083-0.063-0.124-0.095
		c-0.491-0.378-0.983-0.769-1.474-1.169c-0.121-0.099-0.242-0.195-0.364-0.296c-0.468-0.387-0.935-0.787-1.402-1.193
		c-0.111-0.097-0.223-0.191-0.334-0.289c-0.086-0.076-0.173-0.154-0.259-0.231c-0.403-0.358-0.805-0.725-1.206-1.097
		c-0.062-0.058-0.124-0.113-0.187-0.171c-0.13-0.121-0.26-0.241-0.39-0.364c-0.554-0.524-1.106-1.056-1.655-1.604
		c-0.548-0.548-1.08-1.101-1.604-1.655c-0.123-0.13-0.243-0.26-0.364-0.39c-0.058-0.062-0.114-0.124-0.171-0.187
		c-0.372-0.401-0.739-0.803-1.097-1.206c-0.077-0.086-0.155-0.173-0.231-0.259c-0.098-0.112-0.192-0.223-0.289-0.334
		c-0.406-0.467-0.807-0.934-1.193-1.402c-0.101-0.122-0.196-0.243-0.296-0.364c-0.4-0.491-0.791-0.982-1.169-1.474
		c-0.032-0.041-0.063-0.083-0.095-0.124c-0.212-0.277-0.426-0.554-0.629-0.829c-0.204-0.277-0.398-0.552-0.593-0.828
		c-0.157-0.221-0.314-0.442-0.464-0.661c-0.183-0.266-0.359-0.531-0.533-0.795c-0.611-0.928-1.172-1.84-1.654-2.717
		c-2.33-4.249-2.375-6.548-1.64-7.283c0.296-0.296,0.766-0.445,1.388-0.445c2.625,0,7.962,2.656,14.391,8.113
		c-0.1,0.183-0.198,0.381-0.3,0.554c-0.009,0.015-0.018,0.031-0.027,0.046c-0.234,0.393-0.473,0.757-0.716,1.093
		c-0.008,0.011-0.016,0.022-0.024,0.033c-0.243,0.333-0.489,0.635-0.739,0.908c-0.011,0.012-0.021,0.023-0.032,0.034
		c-0.247,0.267-0.498,0.504-0.752,0.711c-0.016,0.013-0.033,0.025-0.049,0.038c-0.254,0.203-0.511,0.378-0.77,0.518l-1.256,0.677
		l1.064,0.95c1.145,1.022,2.265,2.079,3.327,3.141c1.511,1.511,2.981,3.107,4.368,4.743l0.975,1.15l0,0l0.001,0.001l0.68-1.346
		c0.134-0.264,0.305-0.526,0.504-0.786c0.012-0.015,0.022-0.031,0.034-0.047c0.202-0.258,0.437-0.513,0.702-0.765
		c0.012-0.011,0.024-0.023,0.036-0.035c0.27-0.254,0.571-0.504,0.902-0.75c0.012-0.009,0.025-0.018,0.038-0.028
		c0.334-0.246,0.698-0.489,1.092-0.726c0.016-0.01,0.034-0.019,0.05-0.029c0.174-0.104,0.375-0.204,0.56-0.306
		C41.657,31.265,43.921,37.263,42.448,38.736z M46.605,13.301c-0.887,2.953-3.166,5.242-6.096,6.123
		c-1.466,0.441-3.08,1.019-4.628,1.736l-0.017-0.02l-0.703,0.352c-0.042,0.021-0.076,0.043-0.117,0.064
		c-0.228,0.116-0.445,0.244-0.668,0.367c-1.121,0.62-2.078,1.277-2.849,1.973c-0.054,0.048-0.116,0.092-0.168,0.141
		c-0.34,0.32-0.647,0.646-0.913,0.98c-0.464-0.529-0.941-1.049-1.42-1.567c-0.718-0.777-1.445-1.543-2.186-2.285
		c-0.794-0.794-1.619-1.585-2.462-2.36c0.329-0.268,0.651-0.577,0.965-0.917c0.057-0.062,0.109-0.136,0.165-0.2
		c0.659-0.747,1.283-1.66,1.873-2.724c0.141-0.254,0.285-0.504,0.417-0.765c0.02-0.039,0.041-0.071,0.06-0.11l0.344-0.693
		l-0.018-0.016c0.706-1.533,1.276-3.128,1.71-4.572c0.881-2.93,3.169-5.208,6.123-6.095c2.787-0.836,5.628-0.277,7.799,1.534
		c0.225,0.188,0.443,0.387,0.656,0.6c0.211,0.21,0.411,0.429,0.598,0.653h0C46.881,7.672,47.441,10.515,46.605,13.301z"/>
	<path d="M37.981,5.026c-1.737,0-3.424,0.831-4.751,2.339c-0.365,0.415-0.324,1.047,0.09,1.412c0.417,0.365,1.047,0.324,1.412-0.09
		c1.91-2.173,4.588-2.173,6.498,0c0.198,0.225,0.474,0.339,0.751,0.339c0.234,0,0.47-0.082,0.66-0.249
		c0.415-0.365,0.455-0.997,0.09-1.412C41.405,5.857,39.718,5.026,37.981,5.026z"/>
</g>
<g>
</g>
<g>
</g>
<g>
</g>
<g>
</g>
<g>
</g>
<g>
</g>
<g>
</g>
<g>
</g>
<g>
</g>
<g>
</g>
<g>
</g>
<g>
</g>
<g>
</g>
<g>
</g>
<g>
</g>
</svg>
