<?xml version="1.0" encoding="iso-8859-1"?>
<!-- Generator: Adobe Illustrator 18.0.0, SVG Export Plug-In . SVG Version: 6.00 Build 0)  -->
<!DOCTYPE svg PUBLIC "-//W3C//DTD SVG 1.1//EN" "http://www.w3.org/Graphics/SVG/1.1/DTD/svg11.dtd">
<svg version="1.1" id="Capa_1" xmlns="http://www.w3.org/2000/svg" xmlns:xlink="http://www.w3.org/1999/xlink" x="0px" y="0px"
	 viewBox="0 0 60 60" style="enable-background:new 0 0 60 60;" xml:space="preserve">
<path d="M60,30C60,14.393,48.019,1.537,32.772,0.133l-0.002-0.008l-0.762-0.051C32,0.074,31.994,0.074,31.985,0.073
	C31.713,0.055,31.44,0.04,31.166,0.03C30.757,0.012,30.368,0,30,0c-0.486,0-0.97,0.014-1.453,0.037
	c-0.149,0.007-0.295,0.02-0.443,0.029c-0.336,0.021-0.67,0.044-1.004,0.077c-0.167,0.016-0.333,0.036-0.499,0.055
	c-0.315,0.036-0.629,0.075-0.942,0.12c-0.166,0.024-0.33,0.05-0.495,0.077c-0.315,0.051-0.628,0.107-0.941,0.169
	c-0.155,0.03-0.31,0.061-0.465,0.094c-0.326,0.069-0.651,0.145-0.975,0.226c-0.135,0.033-0.269,0.065-0.403,0.1
	c-0.361,0.095-0.72,0.198-1.078,0.307c-0.091,0.028-0.183,0.053-0.274,0.081c-0.489,0.153-0.975,0.316-1.457,0.494l-0.373,0.139
	l-0.009,0.019C7.975,6.373,0,17.269,0,30c0,12.569,7.774,23.351,18.763,27.808l0.005,0.012l0.412,0.16
	c0.074,0.029,0.149,0.052,0.223,0.08c0.25,0.095,0.502,0.184,0.754,0.272c0.191,0.066,0.381,0.132,0.573,0.194
	c0.259,0.084,0.52,0.165,0.782,0.242c0.197,0.058,0.395,0.115,0.593,0.169c0.254,0.069,0.509,0.136,0.766,0.199
	c0.216,0.053,0.433,0.102,0.65,0.15c0.242,0.053,0.483,0.106,0.727,0.153c0.241,0.047,0.484,0.089,0.726,0.13
	c0.225,0.038,0.45,0.077,0.676,0.11c0.27,0.039,0.542,0.072,0.813,0.104c0.205,0.024,0.41,0.051,0.616,0.071
	c0.315,0.031,0.631,0.052,0.948,0.072c0.167,0.011,0.334,0.026,0.502,0.035C29.019,59.986,29.509,60,30,60
	c0.485,0,0.968-0.014,1.45-0.037c0.143-0.007,0.285-0.019,0.427-0.028c0.341-0.021,0.682-0.045,1.022-0.078
	c0.156-0.015,0.31-0.034,0.466-0.051c0.331-0.037,0.662-0.078,0.991-0.126c0.144-0.021,0.287-0.043,0.431-0.066
	c0.347-0.056,0.692-0.118,1.037-0.186c0.119-0.023,0.238-0.046,0.357-0.071c0.386-0.081,0.769-0.17,1.151-0.266
	c0.073-0.018,0.146-0.035,0.218-0.054c0.939-0.244,1.869-0.529,2.784-0.865l0.647-0.237l0-0.025C52.105,53.517,60,42.667,60,30z
	 M37.774,21.998c-0.445,0.156-0.73,0.577-0.709,1.046l0.07,0.778l0.711,0.188c0.402,0.106,1.841,0.525,3.49,1.479
	c3.424,1.982,5.62,5.422,6.027,9.437c0.407,4.03-1.063,7.856-4.034,10.497c-0.788,0.7-2.869,1.629-4.802,2.331
	c-0.951-1.326-2.244-2.589-4.027-3.62c-0.48-0.278-1.091-0.114-1.366,0.364c-0.277,0.479-0.113,1.09,0.364,1.366
	c1.589,0.92,2.727,2.059,3.543,3.252l-0.049,0.276l0.387,0.395c0.04,0.041,0.151,0.165,0.297,0.397
	c0.268,0.511,0.492,1.023,0.667,1.524c0.326,1.042,0.614,2.581,0.644,4.803c-0.103,0.035-0.206,0.071-0.309,0.105
	c-0.604,0.197-1.213,0.378-1.829,0.533c-0.135,0.034-0.272,0.062-0.407,0.094c-0.663,0.155-1.329,0.294-2.001,0.401
	c-0.025,0.004-0.05,0.009-0.075,0.013c-0.738,0.115-1.481,0.197-2.227,0.253c-0.067,0.005-0.134,0.011-0.201,0.015
	c-0.758,0.051-1.518,0.076-2.278,0.066c-0.007,0-0.013,0-0.02-0.001c-1.565-0.021-3.129-0.172-4.672-0.453
	c-0.027-0.005-0.053-0.009-0.08-0.014c-0.75-0.138-1.495-0.308-2.233-0.508c-0.048-0.013-0.096-0.027-0.144-0.041
	c-0.737-0.204-1.467-0.435-2.187-0.7c-1.088-3.185-2.427-11.128,2.557-15.805c1.687-1.584,2.001-4.216,0.746-6.258
	c-8.815-14.345-5.193-25.93-2.99-30.596c0.288-0.103,0.578-0.202,0.87-0.295c0.074-0.023,0.146-0.049,0.22-0.072
	c0.378-0.117,0.759-0.224,1.144-0.325c0.056-0.015,0.111-0.032,0.166-0.046c2.205-0.566,4.515-0.869,6.893-0.875
	c0.332,0,0.664,0.009,0.996,0.022C31,2.026,31.074,2.026,31.148,2.029c0.708,2.559,3.527,10.042,12.57,11.786
	C43.172,15.91,41.533,20.721,37.774,21.998z M2,30C2,18.851,8.551,9.207,18.004,4.705c-2.229,5.839-4.36,17.081,3.919,30.554
	c0.761,1.237,0.587,2.815-0.411,3.752c-5.366,5.037-4.407,12.62-3.526,16.276C8.542,50.781,2,41.141,2,30z M41.046,55.725
	c-0.015-1.052-0.159-2.591-0.689-4.28c-0.012-0.043-0.025-0.081-0.037-0.123c-0.031-0.096-0.058-0.189-0.091-0.286
	c-0.201-0.628-0.42-1.145-0.634-1.542c1.552-0.582,3.943-1.579,5.064-2.576c3.458-3.072,5.169-7.517,4.695-12.193
	c-0.472-4.661-3.028-8.658-7.015-10.966c-0.657-0.381-1.283-0.686-1.843-0.928c4.219-2.967,5.364-9.353,5.417-9.662l0.176-1.021
	l-1.027-0.139c-7.979-1.076-10.857-7.038-11.774-9.809C47.182,3.833,58,15.673,58,30C58,41.518,51.007,51.431,41.046,55.725z"/>
<g>
</g>
<g>
</g>
<g>
</g>
<g>
</g>
<g>
</g>
<g>
</g>
<g>
</g>
<g>
</g>
<g>
</g>
<g>
</g>
<g>
</g>
<g>
</g>
<g>
</g>
<g>
</g>
<g>
</g>
</svg>
