<?xml version="1.0" encoding="iso-8859-1"?>
<!-- Generator: Adobe Illustrator 18.0.0, SVG Export Plug-In . SVG Version: 6.00 Build 0)  -->
<!DOCTYPE svg PUBLIC "-//W3C//DTD SVG 1.1//EN" "http://www.w3.org/Graphics/SVG/1.1/DTD/svg11.dtd">
<svg version="1.1" id="Capa_1" xmlns="http://www.w3.org/2000/svg" xmlns:xlink="http://www.w3.org/1999/xlink" x="0px" y="0px"
	 viewBox="0 0 54.512 54.512" style="enable-background:new 0 0 54.512 54.512;" xml:space="preserve">
<g>
	<path d="M51.437,36.587c-1.983-1.983-4.62-3.075-7.424-3.075c-1.592,0-3.125,0.363-4.52,1.03l-5.38-5.38l3.536-3.536
		c0.566-0.566,0.879-1.32,0.879-2.121c0-0.802-0.313-1.556-0.879-2.121c-0.921-0.921-2.292-1.105-3.406-0.577l-7.197-7.197
		c-0.001-0.001-0.002-0.003-0.003-0.004l-5.134-5.134c-0.001-0.001-0.002-0.001-0.003-0.002l-4.186-4.186
		c0.529-1.114,0.344-2.485-0.577-3.406c-1.169-1.171-3.073-1.169-4.242,0l-2.193,2.193C8.566,1.598,5.61,1.805,3.707,3.707
		c-1.902,1.902-2.108,4.858-0.636,6.999l-2.193,2.193C0.312,13.465,0,14.219,0,15.02c0,0.801,0.312,1.555,0.879,2.121
		C1.464,17.726,2.231,18.018,3,18.018c0.441,0,0.878-0.108,1.284-0.3l7.851,7.851l5.134,5.134l3.539,3.539
		c-0.529,1.114-0.344,2.484,0.577,3.405c0.566,0.566,1.32,0.879,2.121,0.879c0.802,0,1.556-0.313,2.121-0.879l3.536-3.536
		l5.384,5.383c-1.856,3.902-1.184,8.717,2.042,11.942c1.983,1.983,4.62,3.075,7.425,3.075c2.804,0,5.44-1.092,7.424-3.075
		s3.075-4.62,3.075-7.425S53.42,38.57,51.437,36.587z M19.029,11.893l-0.779-2.3l2.299,0.78c0.154,0.052,0.315,0.065,0.473,0.041
		l3.435,3.435l-0.987,0.306c-0.314,0.098-0.561,0.344-0.658,0.658l-0.721,2.319l-1.402-1.982c-0.188-0.266-0.492-0.423-0.816-0.423
		c-0.004,0-0.009,0-0.013,0l-2.429,0.031l1.453-1.947C19.08,12.549,19.135,12.205,19.029,11.893z M5.121,5.121
		C5.804,4.438,6.7,4.097,7.597,4.097c0.573,0,1.146,0.14,1.664,0.419L4.517,9.26C3.801,7.934,4.002,6.24,5.121,5.121z M2.293,15.727
		C2.104,15.538,2,15.287,2,15.02c0-0.268,0.104-0.518,0.293-0.707L14.313,2.293C14.509,2.097,14.765,2,15.021,2
		c0.257,0,0.513,0.098,0.707,0.292c0.39,0.391,0.39,1.024,0,1.415L3.707,15.727C3.316,16.118,2.684,16.118,2.293,15.727z
		 M16.435,5.828l1.571,1.571l-1.032-0.35c-0.362-0.12-0.76-0.028-1.028,0.24c-0.27,0.269-0.362,0.668-0.24,1.028l1.261,3.721
		l-2.35,3.149c-0.228,0.305-0.262,0.713-0.089,1.052s0.532,0.509,0.903,0.546l3.929-0.05l2.269,3.207
		c0.189,0.268,0.495,0.423,0.816,0.423c0.052,0,0.104-0.004,0.156-0.013c0.376-0.06,0.686-0.327,0.799-0.69l1.166-3.752l1.489-0.462
		l6.644,6.644L22.092,32.698l-2.982-2.982l0.463-1.49l3.752-1.166c0.363-0.113,0.631-0.423,0.69-0.799s-0.099-0.753-0.41-0.973
		l-3.207-2.269l0.05-3.929c0.005-0.381-0.207-0.73-0.546-0.903c-0.339-0.172-0.746-0.138-1.052,0.089l-3.149,2.35l-3.721-1.262
		c-0.361-0.121-0.76-0.028-1.028,0.24c-0.27,0.27-0.362,0.668-0.24,1.028l0.351,1.034l-5.234-5.234L16.435,5.828z M14.077,24.683
		c0.024-0.156,0.011-0.319-0.041-0.474l-0.78-2.3l2.3,0.78c0.311,0.104,0.655,0.05,0.919-0.146l1.947-1.453l-0.031,2.429
		c-0.004,0.329,0.154,0.639,0.423,0.829l1.982,1.402l-2.319,0.721c-0.314,0.098-0.561,0.344-0.658,0.658l-0.307,0.987L14.077,24.683
		z M24.212,36.233c-0.376,0.378-1.033,0.378-1.413,0c-0.39-0.39-0.39-1.024,0-1.414l12.021-12.021
		c0.195-0.195,0.451-0.292,0.707-0.292c0.257,0,0.513,0.098,0.708,0.293c0.189,0.188,0.293,0.438,0.293,0.706
		c0,0.267-0.104,0.518-0.293,0.707l-3.536,3.535l0,0l-1.118,1.118L24.212,36.233z M35.527,37.647l-4.95-4.949l1.061-1.061
		l1.061-1.061l4.95,4.95L35.527,37.647z M50.022,50.022c-3.313,3.313-8.705,3.315-12.021,0c-3.314-3.314-3.314-8.707,0-12.021
		c1.657-1.657,3.834-2.485,6.01-2.485c2.177,0,4.354,0.828,6.011,2.485C53.337,41.315,53.337,46.708,50.022,50.022z"/>
	<path d="M48.608,39.416c-2.535-2.535-6.659-2.537-9.192,0c-1.227,1.226-1.901,2.857-1.901,4.596s0.675,3.37,1.901,4.596
		c1.268,1.268,2.932,1.9,4.597,1.9c1.664,0,3.328-0.633,4.596-1.9C51.143,46.073,51.143,41.95,48.608,39.416z M47.194,47.193
		c-1.754,1.754-4.61,1.754-6.364,0c-0.849-0.848-1.315-1.978-1.315-3.182s0.467-2.334,1.315-3.182
		c0.877-0.877,2.029-1.315,3.183-1.315c1.152,0,2.305,0.438,3.182,1.315C48.948,42.585,48.948,45.438,47.194,47.193z"/>
</g>
<g>
</g>
<g>
</g>
<g>
</g>
<g>
</g>
<g>
</g>
<g>
</g>
<g>
</g>
<g>
</g>
<g>
</g>
<g>
</g>
<g>
</g>
<g>
</g>
<g>
</g>
<g>
</g>
<g>
</g>
</svg>
