<?xml version="1.0" encoding="iso-8859-1"?>
<!-- Generator: Adobe Illustrator 18.0.0, SVG Export Plug-In . SVG Version: 6.00 Build 0)  -->
<!DOCTYPE svg PUBLIC "-//W3C//DTD SVG 1.1//EN" "http://www.w3.org/Graphics/SVG/1.1/DTD/svg11.dtd">
<svg version="1.1" id="Capa_1" xmlns="http://www.w3.org/2000/svg" xmlns:xlink="http://www.w3.org/1999/xlink" x="0px" y="0px"
	 viewBox="0 0 59.608 59.608" style="enable-background:new 0 0 59.608 59.608;" xml:space="preserve">
<g>
	<path d="M7.038,20.829c-0.756,0.755-1.172,1.76-1.172,2.829s0.416,2.073,1.172,2.828c0.755,0.755,1.76,1.172,2.828,1.172
		s2.073-0.417,2.828-1.172c0.756-0.755,1.172-1.76,1.172-2.828s-0.416-2.073-1.172-2.829C11.184,19.318,8.548,19.318,7.038,20.829z
		 M11.28,25.071c-0.756,0.756-2.072,0.756-2.828,0c-0.378-0.378-0.586-0.88-0.586-1.414s0.208-1.037,0.586-1.415
		c0.378-0.377,0.88-0.585,1.414-0.585s1.036,0.208,1.414,0.585c0.378,0.378,0.586,0.88,0.586,1.415S11.658,24.693,11.28,25.071z"/>
	<path d="M21.179,6.687c-1.559,1.56-1.559,4.098,0,5.657c0.78,0.78,1.804,1.17,2.829,1.17c1.023,0,2.049-0.39,2.828-1.17
		c0.756-0.755,1.172-1.76,1.172-2.828s-0.416-2.073-1.172-2.829C25.276,5.127,22.738,5.128,21.179,6.687z M25.423,10.929
		c-0.778,0.78-2.049,0.781-2.829,0c-0.779-0.78-0.779-2.049,0-2.829c0.39-0.39,0.902-0.584,1.414-0.584
		c0.513,0,1.025,0.195,1.415,0.584c0.378,0.378,0.586,0.88,0.586,1.415S25.801,10.551,25.423,10.929z"/>
	<path d="M19.765,15.415c-1.068,0-2.072,0.416-2.828,1.171s-1.172,1.76-1.172,2.829s0.416,2.073,1.172,2.828
		c0.756,0.756,1.76,1.172,2.828,1.172c1.069,0,2.073-0.417,2.828-1.172c0.756-0.755,1.172-1.76,1.172-2.828
		s-0.416-2.073-1.172-2.829C21.839,15.831,20.834,15.415,19.765,15.415z M21.179,20.829c-0.756,0.756-2.072,0.756-2.828,0
		c-0.378-0.378-0.586-0.88-0.586-1.414s0.208-1.037,0.586-1.415c0.378-0.377,0.88-0.585,1.414-0.585s1.036,0.208,1.414,0.585
		c0.378,0.378,0.586,0.88,0.586,1.415S21.557,20.451,21.179,20.829z"/>
	<path d="M56.181,41.688c-1.983-1.983-4.62-3.075-7.424-3.075c-1.592,0-3.125,0.363-4.52,1.03l-8.855-8.855
		c0.016-0.852-0.296-1.709-0.945-2.359l-0.855-0.856c1.794-2.842,2.77-6.13,2.77-9.574c0-1.593-0.224-3.149-0.623-4.649l0.016-0.016
		l-0.112-0.371c-0.075-0.26-0.166-0.515-0.253-0.771c-0.076-0.222-0.153-0.444-0.237-0.663c-0.097-0.252-0.197-0.501-0.305-0.748
		c-0.112-0.255-0.234-0.505-0.357-0.754c-0.157-0.317-0.323-0.63-0.499-0.938c-0.133-0.233-0.271-0.463-0.414-0.689
		c-0.114-0.18-0.224-0.362-0.345-0.538c-0.258-0.379-0.534-0.746-0.82-1.104c-0.092-0.115-0.187-0.227-0.282-0.34
		c-0.332-0.395-0.674-0.78-1.039-1.146c-0.365-0.365-0.75-0.707-1.145-1.038c-0.113-0.096-0.226-0.191-0.341-0.283
		c-0.358-0.286-0.724-0.561-1.103-0.819c-0.177-0.121-0.359-0.232-0.54-0.347c-0.226-0.142-0.454-0.28-0.686-0.412
		c-0.31-0.177-0.624-0.344-0.943-0.502c-0.248-0.123-0.497-0.244-0.75-0.355c-0.247-0.108-0.497-0.209-0.749-0.306
		c-0.219-0.084-0.44-0.161-0.662-0.237c-0.257-0.087-0.511-0.178-0.772-0.254l-0.371-0.113l-0.016,0.016
		C21.501,0.224,19.945,0,18.351,0C13.544,0,9.023,1.873,5.624,5.272C2.223,8.672,0.351,13.192,0.351,18
		c0,1.594,0.224,3.15,0.623,4.65l-0.016,0.016l0.112,0.37c0.075,0.259,0.165,0.512,0.252,0.767c0.077,0.226,0.155,0.452,0.241,0.674
		c0.095,0.248,0.194,0.493,0.3,0.736c0.12,0.273,0.25,0.542,0.383,0.808c0.149,0.299,0.306,0.592,0.472,0.883
		c0.135,0.236,0.275,0.469,0.42,0.699c0.113,0.179,0.223,0.359,0.343,0.534c0.258,0.378,0.533,0.744,0.819,1.102
		c0.093,0.116,0.19,0.23,0.286,0.345c0.331,0.394,0.673,0.779,1.037,1.143c0.365,0.365,0.75,0.707,1.145,1.038
		c0.113,0.096,0.226,0.191,0.341,0.283c0.358,0.286,0.725,0.562,1.103,0.82c0.177,0.121,0.359,0.232,0.539,0.346
		c0.226,0.143,0.455,0.28,0.687,0.412c0.31,0.177,0.624,0.344,0.943,0.502c0.248,0.123,0.497,0.244,0.75,0.355
		c0.247,0.108,0.497,0.209,0.749,0.306c0.219,0.084,0.44,0.161,0.662,0.237c0.257,0.087,0.511,0.178,0.772,0.254l0.371,0.113
		l0.016-0.016c1.5,0.399,3.056,0.623,4.649,0.623c3.091,0,6.058-0.783,8.689-2.239l1.032,1.033c0.635,0.633,1.467,0.95,2.299,0.95
		c0.02,0,0.04-0.005,0.06-0.006l8.859,8.859c-1.856,3.901-1.183,8.716,2.042,11.941c2.047,2.047,4.735,3.07,7.425,3.07
		c2.688,0,5.377-1.023,7.424-3.07c1.983-1.983,3.075-4.62,3.075-7.424C59.257,46.309,58.165,43.671,56.181,41.688z M12.965,33.055
		c-0.459-0.164-0.911-0.349-1.353-0.555c-0.097-0.045-0.193-0.09-0.289-0.137c-0.43-0.211-0.849-0.443-1.259-0.692
		c-0.096-0.058-0.194-0.113-0.288-0.173c-0.4-0.254-0.785-0.532-1.162-0.821c-0.091-0.07-0.187-0.133-0.277-0.206
		c-0.452-0.363-0.888-0.747-1.299-1.158c-0.412-0.412-0.797-0.848-1.16-1.301c-0.07-0.086-0.13-0.178-0.198-0.266
		c-0.292-0.38-0.572-0.769-0.829-1.174c-0.059-0.093-0.112-0.188-0.169-0.282c-0.249-0.411-0.483-0.832-0.694-1.263
		c-0.047-0.096-0.092-0.193-0.137-0.29c-0.204-0.44-0.388-0.889-0.552-1.345c-0.021-0.059-0.043-0.117-0.063-0.176L23.568,2.885
		c0.057,0.02,0.113,0.041,0.17,0.061C24.197,3.11,24.648,3.295,25.09,3.5c0.097,0.045,0.193,0.09,0.289,0.137
		c0.43,0.211,0.849,0.443,1.259,0.692c0.096,0.058,0.194,0.113,0.288,0.173c0.4,0.254,0.785,0.532,1.162,0.821
		c0.091,0.07,0.187,0.133,0.277,0.206c0.452,0.363,0.888,0.747,1.299,1.158c0.411,0.411,0.797,0.847,1.16,1.3
		c0.07,0.087,0.13,0.179,0.198,0.267c0.292,0.38,0.572,0.769,0.829,1.173c0.058,0.092,0.111,0.186,0.167,0.279
		c0.25,0.412,0.484,0.834,0.696,1.268c0.046,0.094,0.091,0.19,0.135,0.285c0.205,0.441,0.39,0.891,0.554,1.349
		c0.021,0.058,0.042,0.117,0.063,0.175L13.135,33.116C13.078,33.096,13.022,33.075,12.965,33.055z M2.351,18
		c0-4.273,1.664-8.292,4.687-11.313S14.078,2,18.351,2c1.014,0,2.013,0.101,2.988,0.284L2.635,20.989
		C2.452,20.013,2.351,19.015,2.351,18z M15.363,33.716l18.704-18.705c0.183,0.976,0.284,1.974,0.284,2.988
		c0,4.274-1.664,8.292-4.687,11.314S22.625,34,18.351,34C17.337,34,16.339,33.9,15.363,33.716z M28.958,32.85l3.536-3.535
		l0.529,0.529c0.487,0.488,0.487,1.281,0,1.769l-1.768,1.768c-0.488,0.486-1.281,0.486-1.769-0.001L28.958,32.85z M32.668,34.795
		c0.001-0.001,0.002-0.001,0.002-0.002l1.767-1.767l0,0l0.178-0.177l7.778,7.779l-2.122,2.121l-7.778-7.778L32.668,34.795z
		 M54.767,55.124c-3.314,3.313-8.706,3.314-12.021,0c-3.314-3.314-3.314-8.707,0-12.021c1.657-1.657,3.834-2.485,6.01-2.485
		c2.177,0,4.354,0.829,6.011,2.485C58.082,46.417,58.082,51.809,54.767,55.124z"/>
	<path d="M53.353,44.517c-1.226-1.226-2.858-1.901-4.597-1.901s-3.37,0.675-4.596,1.901c-1.227,1.226-1.901,2.858-1.901,4.596
		c0,1.738,0.675,3.371,1.901,4.596c1.226,1.226,2.857,1.901,4.596,1.901s3.371-0.675,4.597-1.901
		C55.887,51.175,55.887,47.051,53.353,44.517z M51.939,52.295c-0.849,0.848-1.979,1.315-3.183,1.315s-2.334-0.467-3.182-1.315
		c-0.849-0.848-1.315-1.978-1.315-3.182c0-1.204,0.467-2.333,1.315-3.182c0.848-0.848,1.978-1.315,3.182-1.315
		s2.334,0.467,3.183,1.315C53.693,47.686,53.693,50.541,51.939,52.295z"/>
</g>
<g>
</g>
<g>
</g>
<g>
</g>
<g>
</g>
<g>
</g>
<g>
</g>
<g>
</g>
<g>
</g>
<g>
</g>
<g>
</g>
<g>
</g>
<g>
</g>
<g>
</g>
<g>
</g>
<g>
</g>
</svg>
