<?xml version="1.0" encoding="iso-8859-1"?>
<!-- Generator: Adobe Illustrator 18.0.0, SVG Export Plug-In . SVG Version: 6.00 Build 0)  -->
<!DOCTYPE svg PUBLIC "-//W3C//DTD SVG 1.1//EN" "http://www.w3.org/Graphics/SVG/1.1/DTD/svg11.dtd">
<svg version="1.1" id="Capa_1" xmlns="http://www.w3.org/2000/svg" xmlns:xlink="http://www.w3.org/1999/xlink" x="0px" y="0px"
	 viewBox="0 0 58.326 58.326" style="enable-background:new 0 0 58.326 58.326;" xml:space="preserve">
<g>
	<path d="M32.65,32.649c1.284-1.284,1.61-3.173,0.831-4.813c-0.275-0.579-0.292-1.223-0.047-1.815s0.713-1.036,1.316-1.25
		c1.711-0.608,2.816-2.175,2.816-3.991c0-1.815-1.105-3.382-2.816-3.99c-0.604-0.214-1.071-0.658-1.316-1.25
		s-0.229-1.236,0.047-1.815c0.779-1.64,0.453-3.529-0.831-4.813c-1.283-1.283-3.172-1.609-4.813-0.831
		c-0.578,0.276-1.221,0.292-1.814,0.047c-0.591-0.245-1.035-0.712-1.25-1.316c-0.608-1.711-2.175-2.816-3.99-2.816
		s-3.382,1.105-3.99,2.816c-0.215,0.604-0.659,1.071-1.25,1.316c-0.592,0.246-1.235,0.229-1.814-0.047h-0.001
		c-1.639-0.778-3.528-0.453-4.813,0.831c-1.283,1.284-1.609,3.173-0.83,4.813c0.275,0.578,0.292,1.223,0.047,1.814
		c-0.245,0.592-0.713,1.036-1.316,1.251c-1.711,0.608-2.816,2.174-2.816,3.99c0,1.816,1.105,3.382,2.816,3.991
		c0.604,0.214,1.071,0.659,1.316,1.25c0.245,0.592,0.229,1.236-0.047,1.814c-0.779,1.64-0.453,3.529,0.83,4.813
		c1.284,1.284,3.173,1.61,4.813,0.831c0.578-0.274,1.223-0.291,1.813-0.047c0.592,0.245,1.036,0.713,1.251,1.316
		c0.608,1.71,2.175,2.816,3.99,2.816s3.382-1.105,3.99-2.816c0.215-0.604,0.659-1.071,1.251-1.316
		c0.592-0.244,1.237-0.227,1.813,0.047C29.478,34.258,31.367,33.932,32.65,32.649z M7.485,22.887
		c-1.096-0.39-1.486-1.343-1.486-2.106c0-0.762,0.391-1.716,1.486-2.105c1.127-0.401,2.036-1.265,2.494-2.37
		c0.457-1.105,0.426-2.358-0.088-3.438c-0.499-1.05-0.102-2.001,0.438-2.54s1.485-0.938,2.541-0.438
		c1.079,0.513,2.331,0.546,3.437,0.088c1.105-0.458,1.969-1.366,2.37-2.494c0.39-1.096,1.343-1.486,2.105-1.486
		s1.716,0.391,2.105,1.486c0.401,1.127,1.265,2.036,2.37,2.494c1.106,0.458,2.358,0.425,3.438-0.088
		c0.514-0.245,1.004-0.272,1.433-0.175l-4.6,4.599c-3.136-2.437-7.679-2.221-10.557,0.658c-2.879,2.879-3.094,7.422-0.658,10.558
		l-4.599,4.599c-0.097-0.43-0.069-0.919,0.175-1.433c0.514-1.08,0.545-2.333,0.088-3.438C9.521,24.151,8.612,23.287,7.485,22.887z
		 M16.388,16.385c1.17-1.169,2.706-1.754,4.242-1.754c1.537,0,3.073,0.585,4.243,1.754c2.339,2.339,2.339,6.146,0,8.486
		c-2.34,2.338-6.146,2.339-8.485,0C14.049,22.532,14.049,18.724,16.388,16.385z M25.259,31.585c-1.104,0.458-1.969,1.367-2.37,2.494
		c-0.39,1.095-1.343,1.486-2.105,1.486s-1.716-0.391-2.105-1.487c-0.401-1.127-1.266-2.036-2.37-2.493
		c-0.519-0.215-1.069-0.321-1.619-0.321c-0.623,0-1.245,0.137-1.818,0.409c-0.709,0.336-1.366,0.261-1.886,0.016l4.746-4.746
		c1.437,1.117,3.167,1.681,4.9,1.681c2.049,0,4.098-0.78,5.657-2.339c2.879-2.879,3.094-7.422,0.658-10.558l4.745-4.745
		c0.246,0.521,0.32,1.179-0.015,1.885c-0.514,1.08-0.546,2.333-0.088,3.438s1.366,1.969,2.494,2.37
		c1.096,0.389,1.486,1.343,1.486,2.105c0,0.763-0.391,1.716-1.486,2.106c-1.127,0.401-2.036,1.264-2.494,2.369
		c-0.458,1.105-0.426,2.359,0.088,3.439c0.499,1.05,0.101,2-0.438,2.54c-0.539,0.539-1.488,0.938-2.539,0.438
		C27.617,31.16,26.365,31.127,25.259,31.585z"/>
	<path d="M55.985,44.67c-1.511-1.511-3.52-2.343-5.656-2.343c-1.092,0-2.149,0.22-3.124,0.634l-10-10
		c0.716-1.614,0.897-3.422,0.478-5.18c0.542-0.334,1.042-0.729,1.492-1.179c1.97-1.97,2.809-4.904,2.188-7.657
		c-0.488-2.167-1.812-4.007-3.682-5.16c0.661-2.759-0.146-5.645-2.201-7.7c-2.055-2.055-4.94-2.86-7.699-2.201
		c-1.152-1.869-2.993-3.192-5.16-3.682c-2.753-0.62-5.688,0.218-7.658,2.188c-0.451,0.452-0.846,0.952-1.179,1.493
		C11.024,3.224,8.14,4.03,6.087,6.084c-2.055,2.054-2.862,4.939-2.203,7.697c-0.541,0.333-1.041,0.728-1.492,1.179
		c-1.971,1.971-2.81,4.905-2.188,7.657c0.488,2.167,1.812,4.008,3.681,5.161c-0.66,2.759,0.146,5.645,2.201,7.699
		c2.055,2.054,4.939,2.862,7.699,2.202c1.152,1.87,2.994,3.193,5.162,3.682c0.601,0.135,1.209,0.202,1.815,0.202
		c2.171,0,4.301-0.849,5.841-2.389c0.45-0.451,0.846-0.951,1.179-1.493c1.761,0.422,3.569,0.24,5.181-0.476l10.004,10.004
		c-1.229,2.912-0.664,6.407,1.705,8.776c1.511,1.511,3.52,2.343,5.657,2.343c2.137,0,4.146-0.832,5.656-2.343
		C59.104,52.864,59.104,47.789,55.985,44.67z M27.623,35.551c-0.482-0.167-1.012,0.051-1.232,0.511
		c-0.305,0.634-0.709,1.205-1.201,1.697c-1.49,1.49-3.716,2.123-5.803,1.651c-1.85-0.417-3.384-1.638-4.211-3.35
		c-0.171-0.354-0.526-0.565-0.9-0.565c-0.11,0-0.222,0.018-0.331,0.056c-2.266,0.794-4.733,0.224-6.444-1.487
		c-1.71-1.711-2.279-4.18-1.486-6.443c0.169-0.48-0.05-1.01-0.509-1.231c-1.712-0.828-2.934-2.362-3.35-4.211
		c-0.472-2.089,0.16-4.313,1.65-5.802c0.493-0.493,1.063-0.897,1.697-1.201c0.459-0.221,0.679-0.751,0.51-1.232
		C5.22,11.678,5.79,9.209,7.501,7.498c1.709-1.71,4.178-2.282,6.442-1.487c0.481,0.167,1.012-0.052,1.232-0.512
		c0.303-0.631,0.707-1.202,1.2-1.696c1.489-1.49,3.714-2.122,5.804-1.651c1.849,0.417,3.384,1.639,4.211,3.352
		c0.222,0.458,0.751,0.677,1.231,0.508c2.263-0.796,4.732-0.225,6.443,1.486c1.711,1.711,2.28,4.181,1.486,6.444
		c-0.169,0.48,0.05,1.01,0.508,1.231c1.714,0.828,2.935,2.362,3.352,4.21c0.472,2.09-0.161,4.313-1.65,5.803
		c-0.492,0.492-1.063,0.896-1.697,1.201c-0.459,0.221-0.679,0.751-0.51,1.232c0.593,1.692,0.423,3.5-0.416,5.02l-0.015,0.027
		c-0.022,0.04-0.053,0.077-0.076,0.117c-0.125,0.212-0.256,0.421-0.404,0.617c-0.175,0.231-0.367,0.453-0.576,0.662
		c-0.21,0.21-0.433,0.402-0.664,0.577c-0.181,0.137-0.375,0.256-0.569,0.372c-0.057,0.034-0.109,0.076-0.166,0.108l-0.021,0.012
		C31.125,35.973,29.316,36.144,27.623,35.551z M44.01,45.422l-9.279-9.28c0.262-0.206,0.512-0.428,0.749-0.664v0
		c0.236-0.236,0.459-0.487,0.665-0.749l9.279,9.279c-0.017,0.013-0.031,0.029-0.049,0.043c-0.237,0.188-0.468,0.387-0.686,0.603
		c-0.006,0.006-0.012,0.01-0.018,0.016c-0.006,0.006-0.011,0.013-0.016,0.019c-0.217,0.218-0.415,0.448-0.602,0.684
		C44.04,45.389,44.023,45.404,44.01,45.422z M54.571,54.569c-1.133,1.133-2.64,1.757-4.242,1.757c-1.604,0-3.11-0.624-4.243-1.757
		s-1.757-2.64-1.757-4.243c0-0.97,0.232-1.904,0.664-2.742l0.06-0.11c0.127-0.236,0.273-0.459,0.429-0.674
		c0.028-0.039,0.057-0.078,0.086-0.116c0.161-0.211,0.332-0.414,0.518-0.6c0.189-0.189,0.395-0.363,0.609-0.525
		c0.033-0.025,0.067-0.05,0.1-0.075c0.217-0.158,0.443-0.306,0.682-0.435l0.105-0.057c0.839-0.433,1.775-0.666,2.747-0.666
		c1.603,0,3.109,0.624,4.242,1.757C56.91,48.423,56.91,52.23,54.571,54.569z"/>
</g>
<g>
</g>
<g>
</g>
<g>
</g>
<g>
</g>
<g>
</g>
<g>
</g>
<g>
</g>
<g>
</g>
<g>
</g>
<g>
</g>
<g>
</g>
<g>
</g>
<g>
</g>
<g>
</g>
<g>
</g>
</svg>
