<?xml version="1.0" encoding="iso-8859-1"?>
<!-- Generator: Adobe Illustrator 18.0.0, SVG Export Plug-In . SVG Version: 6.00 Build 0)  -->
<!DOCTYPE svg PUBLIC "-//W3C//DTD SVG 1.1//EN" "http://www.w3.org/Graphics/SVG/1.1/DTD/svg11.dtd">
<svg version="1.1" id="Capa_1" xmlns="http://www.w3.org/2000/svg" xmlns:xlink="http://www.w3.org/1999/xlink" x="0px" y="0px"
	 viewBox="0 0 57.041 57.041" style="enable-background:new 0 0 57.041 57.041;" xml:space="preserve">
<g>
	<path d="M55.056,44.453c-5.528-8.841-20.17-14.839-24.966-16.615c3.846-4.639,4.832-10.851,2.982-16.312l0.006-0.016l-0.126-0.345
		c-0.011-0.031-0.027-0.061-0.039-0.092c-0.152-0.41-0.324-0.814-0.508-1.214c-0.037-0.081-0.073-0.162-0.112-0.242
		c-0.194-0.402-0.406-0.796-0.633-1.185c-0.038-0.064-0.075-0.129-0.114-0.193c-0.24-0.399-0.498-0.789-0.774-1.171
		c-0.029-0.04-0.058-0.079-0.087-0.118c-0.292-0.397-0.601-0.783-0.932-1.159c-0.005-0.005-0.008-0.011-0.013-0.016L28.509,4.38
		L28.48,4.489C25.336,1.599,21.296,0,17,0C12.459,0,8.191,1.769,4.98,4.979S0,12.459,0,17c0,4.295,1.6,8.336,4.489,11.48
		l-0.111,0.03l1.366,1.204C8.855,32.475,12.806,34,17,34c4.005,0,7.796-1.38,10.839-3.908c1.777,4.799,7.772,19.434,16.614,24.963
		c2.112,1.321,4.259,1.984,6.179,1.984c1.816,0,3.432-0.594,4.623-1.785C57.705,52.805,57.627,48.564,55.056,44.453z M8.541,29.368
		c4.338-1.589,9.325-4.749,12.701-8.125c3.377-3.376,6.537-8.364,8.125-12.702c0.637,0.927,1.164,1.919,1.576,2.967
		c-1.634,4.241-4.582,8.859-7.579,11.856c-2.999,2.999-7.618,5.946-11.857,7.58C10.461,30.533,9.469,30.005,8.541,29.368z
		 M6.394,6.394C9.227,3.561,12.994,2,17,2s7.773,1.561,10.606,4.394c0.092,0.092,0.169,0.193,0.259,0.286
		c-1.291,4.313-4.527,9.639-8.037,13.149c-3.51,3.51-8.835,6.746-13.149,8.037c-0.094-0.089-0.194-0.168-0.286-0.259
		C3.561,24.773,2,21.007,2,17C2,12.994,3.561,9.227,6.394,6.394z M14.564,31.788c3.776-1.796,7.581-4.376,10.215-7.01
		c2.63-2.63,5.208-6.43,7.003-10.203c0.748,4.603-0.634,9.489-4.175,13.031C24.774,30.44,21.007,32,17,32
		C16.175,32,15.363,31.918,14.564,31.788z M53.841,53.841c-1.769,1.768-5.036,1.579-8.327-0.48
		c-8.032-5.023-13.688-18.369-15.611-23.458c5.089,1.925,18.437,7.582,23.458,15.611C55.419,48.806,55.608,52.074,53.841,53.841z"/>
	<path d="M36.75,35.337c-0.409-0.2-0.898-0.119-1.214,0.195l-0.508,0.574l0.306,0.64c1.975,4.129,5.956,11.475,10.438,14.276
		c1.16,0.726,2.137,0.972,2.927,0.972c1.277,0,2.067-0.644,2.359-0.935v0c0.472-0.472,1.863-2.248-0.036-5.287
		C48.219,41.29,40.874,37.309,36.75,35.337z M49.645,49.645c-0.565,0.563-1.59,0.447-2.812-0.318
		c-2.575-1.61-5.584-5.526-8.429-10.922c5.396,2.845,9.312,5.853,10.923,8.427C50.092,48.056,50.207,49.082,49.645,49.645z"/>
	<path d="M15.053,13.61c0.004,0,0.009,0,0.013,0l2.218-0.028l1.28,1.811c0.189,0.267,0.495,0.422,0.816,0.422
		c0.052,0,0.104-0.004,0.156-0.012c0.376-0.06,0.686-0.328,0.799-0.691l0.658-2.118l2.118-0.658c0.363-0.113,0.631-0.423,0.69-0.799
		s-0.1-0.753-0.41-0.973l-1.811-1.281l0.028-2.217c0.005-0.38-0.207-0.731-0.546-0.904c-0.338-0.171-0.747-0.138-1.052,0.089
		l-1.778,1.327l-2.1-0.712c-0.36-0.123-0.76-0.029-1.028,0.24c-0.27,0.269-0.362,0.667-0.24,1.028l0.712,2.1l-1.326,1.777
		c-0.228,0.305-0.262,0.713-0.089,1.052C14.333,13.399,14.677,13.61,15.053,13.61z M17.641,10.09l-0.23-0.679l0.679,0.23
		c0.313,0.104,0.655,0.05,0.919-0.146l0.576-0.43l-0.01,0.718c-0.004,0.329,0.154,0.639,0.423,0.829l0.585,0.414l-0.685,0.213
		c-0.314,0.098-0.561,0.344-0.658,0.658l-0.213,0.685l-0.414-0.586c-0.188-0.265-0.492-0.422-0.816-0.422c-0.004,0-0.009,0-0.013,0
		l-0.717,0.009l0.429-0.575C17.692,10.746,17.746,10.402,17.641,10.09z"/>
	<path d="M8.564,21.835c0.189,0.268,0.495,0.423,0.816,0.423c0.052,0,0.104-0.004,0.156-0.012c0.376-0.06,0.686-0.328,0.799-0.691
		l0.658-2.118l2.118-0.658c0.363-0.113,0.631-0.423,0.69-0.799s-0.1-0.753-0.41-0.973l-1.811-1.281l0.028-2.217
		c0.005-0.38-0.207-0.731-0.546-0.904c-0.339-0.172-0.747-0.138-1.052,0.089l-1.778,1.327l-2.1-0.712
		c-0.361-0.122-0.759-0.029-1.028,0.24c-0.27,0.269-0.362,0.667-0.24,1.028l0.712,2.1l-1.326,1.777
		c-0.228,0.305-0.262,0.713-0.089,1.052c0.172,0.338,0.502,0.545,0.903,0.546l2.218-0.028L8.564,21.835z M7.641,16.533l-0.23-0.679
		l0.679,0.23c0.313,0.104,0.655,0.05,0.919-0.146l0.576-0.43l-0.01,0.718c-0.004,0.329,0.154,0.639,0.423,0.829l0.585,0.414
		l-0.685,0.213c-0.314,0.098-0.561,0.344-0.658,0.658l-0.213,0.685l-0.414-0.585c-0.188-0.266-0.492-0.423-0.816-0.423
		c-0.004,0-0.009,0-0.013,0l-0.717,0.009l0.429-0.575C7.692,17.189,7.746,16.845,7.641,16.533z"/>
</g>
<g>
</g>
<g>
</g>
<g>
</g>
<g>
</g>
<g>
</g>
<g>
</g>
<g>
</g>
<g>
</g>
<g>
</g>
<g>
</g>
<g>
</g>
<g>
</g>
<g>
</g>
<g>
</g>
<g>
</g>
</svg>
