<?xml version="1.0" encoding="iso-8859-1"?>
<!-- Generator: Adobe Illustrator 18.0.0, SVG Export Plug-In . SVG Version: 6.00 Build 0)  -->
<!DOCTYPE svg PUBLIC "-//W3C//DTD SVG 1.1//EN" "http://www.w3.org/Graphics/SVG/1.1/DTD/svg11.dtd">
<svg version="1.1" id="Capa_1" xmlns="http://www.w3.org/2000/svg" xmlns:xlink="http://www.w3.org/1999/xlink" x="0px" y="0px"
	 viewBox="0 0 59 59" style="enable-background:new 0 0 59 59;" xml:space="preserve">
<g>
	<circle cx="26" cy="5" r="1"/>
	<circle cx="33" cy="5" r="1"/>
	<path d="M24,24c-2.757,0-5,2.243-5,5s2.243,5,5,5s5-2.243,5-5S26.757,24,24,24z M24,32c-1.654,0-3-1.346-3-3s1.346-3,3-3
		s3,1.346,3,3S25.654,32,24,32z"/>
	<path d="M39,32h-7c-0.552,0-1,0.448-1,1s0.448,1,1,1h7c0.552,0,1-0.448,1-1S39.552,32,39,32z"/>
	<path d="M39,28h-6c-0.552,0-1,0.448-1,1s0.448,1,1,1h6c0.552,0,1-0.448,1-1S39.552,28,39,28z"/>
	<path d="M39,24h-6c-0.552,0-1,0.448-1,1s0.448,1,1,1h6c0.552,0,1-0.448,1-1S39.552,24,39,24z"/>
	<path d="M55.994,40.808C55.93,30.85,50.99,24.536,43,24.048V21.53c0-1.395-1.135-2.53-2.53-2.53H36v-3h3v-2.279l3-1V10h3.142
		c0.447,1.72,2,3,3.858,3c2.206,0,4-1.794,4-4s-1.794-4-4-4c-1.858,0-3.411,1.28-3.858,3H42V5.279l-3-1v-0.66
		C39,1.624,37.376,0,35.381,0H23.619C21.624,0,20,1.624,20,3.619v0.66l-3,1V8h-3.142c-0.447-1.72-2-3-3.858-3C7.794,5,6,6.794,6,9
		s1.794,4,4,4c1.858,0,3.411-1.28,3.858-3H17v2.721l3,1V16h3v3h-4.47C17.135,19,16,20.135,16,21.53v2.518
		C8.01,24.536,3.07,30.85,3.006,40.808C1.212,41.846,0,43.782,0,46c0,1.906,0.875,3.657,2.402,4.802c0.18,0.135,0.391,0.2,0.599,0.2
		c0.304,0,0.604-0.138,0.801-0.4c0.332-0.442,0.242-1.068-0.2-1.4C2.584,48.438,2,47.271,2,46c0-2.206,1.794-4,4-4s4,1.794,4,4
		c0,1.27-0.583,2.437-1.601,3.2c-0.441,0.332-0.531,0.959-0.199,1.4c0.332,0.441,0.958,0.53,1.4,0.199
		C11.125,49.654,12,47.905,12,46c0-2.214-1.208-4.146-2.997-5.186C9.036,36.102,10.326,30.632,16,30.058v7.412
		c0,1.213,0.859,2.227,2,2.472V42h-2c-0.552,0-1,0.448-1,1v5c0,0.552,0.448,1,1,1h2v3h-1.147C15.28,52,14,53.28,14,54.853v1.295
		C14,57.72,15.28,59,16.853,59H27v-5v-2V40h5v12v2v5h10.147C43.72,59,45,57.72,45,56.147v-1.295C45,53.28,43.72,52,42.147,52H41v-3
		h2c0.552,0,1-0.448,1-1v-5c0-0.552-0.448-1-1-1h-2v-2.058c1.141-0.245,2-1.259,2-2.472v-7.412
		c5.674,0.574,6.964,6.044,6.997,10.756C48.208,41.854,47,43.786,47,46c0,1.905,0.875,3.654,2.399,4.8
		c0.443,0.331,1.068,0.242,1.4-0.199c0.332-0.441,0.242-1.068-0.199-1.4C49.583,48.437,49,47.27,49,46c0-2.206,1.794-4,4-4
		s4,1.794,4,4c0,1.271-0.584,2.438-1.603,3.202c-0.442,0.332-0.531,0.958-0.2,1.4c0.196,0.262,0.497,0.4,0.801,0.4
		c0.208,0,0.419-0.065,0.599-0.2C58.125,49.657,59,47.906,59,46C59,43.782,57.788,41.846,55.994,40.808z M49,7c1.103,0,2,0.897,2,2
		s-0.897,2-2,2s-2-0.897-2-2S47.897,7,49,7z M10,11c-1.103,0-2-0.897-2-2s0.897-2,2-2s2,0.897,2,2S11.103,11,10,11z M40,6.721v4.559
		l-1,0.333V6.387L40,6.721z M19,11.279V6.721l1-0.333v5.226L19,11.279z M22,14V3.619C22,2.727,22.727,2,23.619,2h11.762
		C36.273,2,37,2.727,37,3.619V14h-1H23H22z M25,16h9v3h-9V16z M7.019,40H5.02C5.29,33.335,8.299,26.571,16,26.034v2.007
		C10.513,28.499,7.288,32.785,7.019,40z M17,47v-3h1h3v3h-3H17z M25,57h-8.147C16.382,57,16,56.618,16,56.147v-1.295
		C16,54.382,16.382,54,16.853,54H18h7V57z M25,52h-5v-3h2h1v-1v-5v-1h-1h-2v-2h5V52z M42.147,54C42.618,54,43,54.382,43,54.853
		v1.295C43,56.618,42.618,57,42.147,57H34v-3h7H42.147z M42,44v3h-1h-3v-3h3H42z M37,42h-1v1v5v1h1h2v3h-5V40h5v2H37z M41,37.47
		c0,0.292-0.238,0.53-0.53,0.53H32h-5h-8.47C18.238,38,18,37.762,18,37.47V30v-6v-2.47c0-0.292,0.238-0.53,0.53-0.53H23h13h4.47
		c0.292,0,0.53,0.238,0.53,0.53V24v6V37.47z M51.981,40c-0.27-7.215-3.495-11.501-8.981-11.959v-2.007
		C50.701,26.571,53.71,33.335,53.98,40H51.981z"/>
	<path d="M33,8c-0.552,0-1,0.448-1,1c0,1.475-1.292,2-2.5,2S27,10.475,27,9c0-0.552-0.448-1-1-1s-1,0.448-1,1c0,2.355,1.851,4,4.5,4
		S34,11.355,34,9C34,8.448,33.552,8,33,8z"/>
</g>
<g>
</g>
<g>
</g>
<g>
</g>
<g>
</g>
<g>
</g>
<g>
</g>
<g>
</g>
<g>
</g>
<g>
</g>
<g>
</g>
<g>
</g>
<g>
</g>
<g>
</g>
<g>
</g>
<g>
</g>
</svg>
