<?xml version="1.0" encoding="iso-8859-1"?>
<!-- Generator: Adobe Illustrator 18.0.0, SVG Export Plug-In . SVG Version: 6.00 Build 0)  -->
<!DOCTYPE svg PUBLIC "-//W3C//DTD SVG 1.1//EN" "http://www.w3.org/Graphics/SVG/1.1/DTD/svg11.dtd">
<svg version="1.1" id="Capa_1" xmlns="http://www.w3.org/2000/svg" xmlns:xlink="http://www.w3.org/1999/xlink" x="0px" y="0px"
	 viewBox="0 0 49.159 49.159" style="enable-background:new 0 0 49.159 49.159;" xml:space="preserve">
<g>
	<path d="M45.794,30.381c-0.289-0.289-0.594-0.556-0.909-0.808L32.701,1.828c-0.313-0.737-0.894-1.31-1.637-1.609
		c-0.742-0.299-1.559-0.291-2.296,0.02c-1.522,0.646-2.236,2.411-1.584,3.946l10.154,23.008c-2.682,0.163-5.183,1.272-7.099,3.189
		c-1.274,1.274-2.16,2.787-2.677,4.394L16.095,23.31c0,0,0,0,0,0c0.545-0.545,0.832-1.263,0.829-2.075
		c-0.009-2.406-2.563-5.424-4.705-7.532c-0.256-0.252-0.628-0.349-0.972-0.25c-1.054,0.298-2.174,0.009-2.931-0.749
		c-0.567-0.566-0.879-1.319-0.879-2.121s0.312-1.555,0.879-2.121c1.134-1.133,3.109-1.133,4.243,0
		c0.756,0.757,1.043,1.88,0.749,2.931c-0.097,0.345-0.001,0.716,0.25,0.971c2.107,2.142,5.124,4.696,7.531,4.706
		c0.802-0.013,1.53-0.283,2.071-0.824c0.919-0.904,1.373-2.031,1.351-3.349c-0.071-4.19-5.215-9.04-5.602-9.399
		C14.619-0.778,7.651-0.773,3.368,3.511C-0.92,7.8-0.92,14.778,3.339,19.037c0.066,0.072,0.612,0.659,1.46,1.427l-0.017,0.017
		l25.456,25.456c2.077,2.078,4.839,3.222,7.778,3.222s5.701-1.144,7.778-3.222C50.083,41.649,50.083,34.67,45.794,30.381z
		 M29.549,2.08c0.246-0.104,0.517-0.107,0.765-0.007c0.248,0.1,0.441,0.29,0.551,0.548l11.101,25.276
		c-0.365-0.14-0.739-0.259-1.119-0.36c-0.053-0.014-0.106-0.026-0.159-0.04c-0.326-0.081-0.656-0.147-0.991-0.198
		c-0.047-0.007-0.092-0.021-0.139-0.028L29.019,3.391C28.804,2.884,29.041,2.295,29.549,2.08z M4.782,4.925
		c1.754-1.754,4.059-2.632,6.364-2.632s4.609,0.878,6.364,2.632c0.009,0.01,0.02,0.02,0.029,0.028
		c1.368,1.261,4.926,5.151,4.973,7.978c0.013,0.759-0.234,1.377-0.76,1.895c-0.113,0.113-0.289,0.243-0.648,0.243
		c-0.002,0-0.004,0-0.006,0c-1.218-0.005-3.39-1.424-5.735-3.73c0.242-1.565-0.265-3.166-1.389-4.291
		c-0.944-0.944-2.2-1.465-3.536-1.465c-1.335,0-2.591,0.521-3.535,1.465C5.959,7.99,5.439,9.246,5.439,10.582
		s0.521,2.592,1.465,3.535c1.124,1.125,2.725,1.635,4.292,1.39c2.306,2.346,3.724,4.519,3.729,5.735
		c0.001,0.362-0.129,0.539-0.249,0.659c-0.182,0.185-0.382,0.327-0.591,0.448c-0.935,0.517-2.288,0.339-3.9-0.47
		c-0.036-0.018-0.072-0.035-0.108-0.054c-0.277-0.143-0.563-0.308-0.854-0.487c-0.092-0.057-0.184-0.116-0.275-0.175
		c-0.261-0.168-0.526-0.349-0.796-0.545c-0.096-0.07-0.19-0.141-0.285-0.212c-0.293-0.22-0.589-0.452-0.891-0.703
		c-0.948-0.786-1.736-1.554-2.194-2.05C1.273,14.144,1.273,8.435,4.782,4.925z M27.181,40.052L11.658,24.528
		c0.042,0.009,0.082,0.01,0.125,0.018c0.133,0.025,0.266,0.042,0.398,0.057c0.122,0.014,0.244,0.026,0.363,0.033
		c0.069,0.004,0.14,0.018,0.209,0.019c0.031,0.001,0.062,0.001,0.092,0.001c0.04,0,0.076-0.01,0.116-0.011
		c0.251-0.005,0.498-0.026,0.736-0.068c0.083-0.015,0.162-0.039,0.243-0.058c0.143-0.034,0.288-0.064,0.426-0.112l12.706,12.706
		c-0.042,0.449-0.048,0.899-0.035,1.349c0.003,0.111,0.01,0.221,0.016,0.332c0.019,0.326,0.052,0.651,0.1,0.975
		C27.165,39.863,27.165,39.959,27.181,40.052z M44.38,44.524c-1.7,1.7-3.96,2.636-6.364,2.636c-2.404,0-4.664-0.936-6.364-2.636
		c-0.235-0.235-0.452-0.483-0.657-0.738c-0.077-0.096-0.144-0.196-0.216-0.294c-0.119-0.161-0.237-0.323-0.345-0.491
		c-0.081-0.126-0.154-0.256-0.227-0.385c-0.083-0.146-0.165-0.293-0.239-0.443c-0.071-0.143-0.138-0.288-0.201-0.434
		c-0.063-0.146-0.121-0.294-0.177-0.444c-0.055-0.148-0.109-0.296-0.156-0.446c-0.054-0.172-0.098-0.348-0.141-0.523
		c-0.031-0.127-0.067-0.253-0.093-0.381c-0.127-0.641-0.187-1.299-0.172-1.965c0-0.027,0.003-0.053,0.004-0.08
		c0.01-0.319,0.036-0.64,0.08-0.961c0.256-1.882,1.096-3.699,2.539-5.143c1.7-1.7,3.96-2.636,6.364-2.636
		c0.262,0,0.521,0.016,0.779,0.038c0.415,0.036,0.824,0.102,1.227,0.194c0.021,0.005,0.042,0.011,0.063,0.016
		c1.221,0.289,2.373,0.832,3.384,1.604l0.298,0.228c0.211,0.176,0.417,0.36,0.614,0.557C47.89,35.305,47.89,41.014,44.38,44.524z"/>
	<path d="M42.966,33.21c-1.32-1.32-3.078-2.048-4.95-2.048s-3.629,0.728-4.95,2.048c-1.32,1.32-2.047,3.078-2.047,4.949
		s0.727,3.629,2.047,4.949c1.32,1.32,3.078,2.048,4.95,2.048s3.629-0.728,4.95-2.048s2.047-3.078,2.047-4.949
		S44.286,34.53,42.966,33.21z M41.552,41.694c-0.943,0.942-2.198,1.462-3.536,1.462s-2.593-0.52-3.536-1.462
		c-0.942-0.942-1.461-2.198-1.461-3.535s0.519-2.593,1.461-3.535c0.943-0.942,2.198-1.462,3.536-1.462s2.593,0.52,3.536,1.462
		c0.942,0.942,1.461,2.198,1.461,3.535S42.494,40.752,41.552,41.694z"/>
</g>
<g>
</g>
<g>
</g>
<g>
</g>
<g>
</g>
<g>
</g>
<g>
</g>
<g>
</g>
<g>
</g>
<g>
</g>
<g>
</g>
<g>
</g>
<g>
</g>
<g>
</g>
<g>
</g>
<g>
</g>
</svg>
