<?xml version="1.0" encoding="iso-8859-1"?>
<!-- Generator: Adobe Illustrator 18.0.0, SVG Export Plug-In . SVG Version: 6.00 Build 0)  -->
<!DOCTYPE svg PUBLIC "-//W3C//DTD SVG 1.1//EN" "http://www.w3.org/Graphics/SVG/1.1/DTD/svg11.dtd">
<svg version="1.1" id="Capa_1" xmlns="http://www.w3.org/2000/svg" xmlns:xlink="http://www.w3.org/1999/xlink" x="0px" y="0px"
	 viewBox="0 0 53.803 53.803" style="enable-background:new 0 0 53.803 53.803;" xml:space="preserve">
<g>
	<path d="M50.586,35.029L22.302,6.745l0,0L18.766,3.21C16.696,1.14,13.934,0,10.987,0C8.042,0,5.279,1.14,3.21,3.21
		C1.14,5.279,0,8.042,0,10.987c0,2.946,1.14,5.709,3.21,7.778l4.563,4.564l0.001,0l27.256,27.256
		c2.145,2.145,4.961,3.217,7.778,3.217s5.634-1.072,7.778-3.217C54.875,46.297,54.875,39.318,50.586,35.029z M2,10.987
		c0-2.411,0.932-4.671,2.624-6.363S8.576,2,10.987,2c2.412,0,4.672,0.932,6.364,2.624l3.869,3.868
		c-1.011,4.67-4.741,5.559-5.893,5.721c-0.563,0.08-1.016,0.513-1.124,1.081c-0.878,4.669-4.444,5.724-5.688,5.951l-3.893-3.894
		C2.932,15.659,2,13.399,2,10.987z M10.156,22.884c2.246-0.777,4.998-2.732,5.921-6.774c1.521-0.317,5.265-1.549,6.763-6
		l21.875,21.875c-3.413-0.596-7.054,0.413-9.685,3.044s-3.64,6.272-3.044,9.685L10.156,22.884z M49.172,49.172
		c-3.51,3.51-9.219,3.51-12.729,0c-3.509-3.51-3.509-9.219,0-12.729c1.755-1.755,4.06-2.632,6.364-2.632s4.609,0.877,6.364,2.632
		C52.681,39.953,52.681,45.662,49.172,49.172z"/>
	<path d="M47.757,37.858c-1.32-1.32-3.077-2.048-4.949-2.048s-3.629,0.728-4.949,2.048s-2.048,3.078-2.048,4.949
		c0,1.872,0.728,3.63,2.048,4.95c1.364,1.364,3.157,2.047,4.949,2.047s3.585-0.683,4.949-2.047c1.32-1.32,2.048-3.078,2.048-4.95
		C49.805,40.937,49.077,39.179,47.757,37.858z M46.343,46.344c-1.949,1.949-5.121,1.949-7.07,0
		c-0.942-0.942-1.462-2.198-1.462-3.536c0-1.337,0.52-2.593,1.462-3.535s2.198-1.462,3.535-1.462s2.593,0.52,3.535,1.462
		s1.462,2.198,1.462,3.535C47.805,44.146,47.285,45.401,46.343,46.344z"/>
	<path d="M13.109,13.109c1.948-1.949,1.948-5.122,0-7.071c-1.95-1.95-5.123-1.948-7.071,0c-1.949,1.949-1.949,5.122,0,7.071
		c0.975,0.975,2.255,1.462,3.535,1.462C10.854,14.571,12.135,14.084,13.109,13.109z M7.452,7.452
		c0.585-0.584,1.354-0.877,2.122-0.877c0.768,0,1.536,0.293,2.121,0.877c1.169,1.17,1.169,3.073,0,4.243
		c-1.169,1.167-3.072,1.169-4.243,0C6.282,10.525,6.282,8.622,7.452,7.452z"/>
</g>
<g>
</g>
<g>
</g>
<g>
</g>
<g>
</g>
<g>
</g>
<g>
</g>
<g>
</g>
<g>
</g>
<g>
</g>
<g>
</g>
<g>
</g>
<g>
</g>
<g>
</g>
<g>
</g>
<g>
</g>
</svg>
