<?xml version="1.0" encoding="iso-8859-1"?>
<!-- Generator: Adobe Illustrator 18.0.0, SVG Export Plug-In . SVG Version: 6.00 Build 0)  -->
<!DOCTYPE svg PUBLIC "-//W3C//DTD SVG 1.1//EN" "http://www.w3.org/Graphics/SVG/1.1/DTD/svg11.dtd">
<svg version="1.1" id="Capa_1" xmlns="http://www.w3.org/2000/svg" xmlns:xlink="http://www.w3.org/1999/xlink" x="0px" y="0px"
	 viewBox="0 0 56.858 56.858" style="enable-background:new 0 0 56.858 56.858;" xml:space="preserve">
<g>
	<path d="M53.636,38.083L20.887,5.333l-0.423-0.349c-0.868-0.99-1.578-1.662-1.713-1.786c-2.068-2.061-4.825-3.196-7.764-3.196
		c-2.946,0-5.708,1.14-7.778,3.21C1.14,5.282,0,8.044,0,10.99s1.14,5.708,3.181,7.749c0.066,0.072,0.612,0.659,1.46,1.427
		l-0.017,0.017l33.447,33.448c0.003,0.002,0.005,0.005,0.008,0.008c2.145,2.145,4.961,3.217,7.778,3.217
		c2.817,0,5.634-1.072,7.778-3.217c2.078-2.078,3.222-4.84,3.222-7.778S55.714,40.16,53.636,38.083z M24.227,11.501L47.75,35.025
		c-0.225-0.038-0.453-0.062-0.68-0.087c-0.063-0.007-0.126-0.018-0.189-0.024c-0.26-0.023-0.523-0.033-0.786-0.037
		c-0.428-0.009-0.857-0.002-1.284,0.039L24.107,14.21c0.067-0.196,0.119-0.399,0.159-0.606c0.014-0.073,0.018-0.151,0.029-0.226
		c0.029-0.206,0.046-0.415,0.048-0.631c0.001-0.052,0.012-0.099,0.011-0.151c-0.001-0.073-0.015-0.147-0.02-0.22
		c-0.006-0.11-0.017-0.222-0.03-0.335c-0.016-0.137-0.034-0.274-0.059-0.411C24.238,11.587,24.236,11.546,24.227,11.501z
		 M35.403,42.476L15.938,23.011c0.545-0.545,0.832-1.263,0.829-2.076c-0.009-2.406-2.563-5.424-4.705-7.531
		c-0.256-0.252-0.625-0.347-0.972-0.25c-1.051,0.294-2.174,0.007-2.931-0.749c-0.567-0.567-0.879-1.32-0.879-2.122
		S7.593,8.729,8.16,8.162c1.134-1.134,3.109-1.134,4.243,0c0.756,0.757,1.043,1.88,0.749,2.931c-0.097,0.345-0.001,0.716,0.25,0.972
		c2.107,2.141,5.125,4.695,7.531,4.705c0.798-0.033,1.53-0.284,2.07-0.824c0.002-0.002,0.003-0.004,0.005-0.006l19.465,19.466
		c-1.607,0.517-3.12,1.403-4.394,2.677C36.806,39.356,35.92,40.869,35.403,42.476z M2,10.99c0-2.412,0.932-4.672,2.624-6.364
		s3.952-2.624,6.364-2.624c2.412,0,4.672,0.932,6.364,2.624c0.009,0.01,0.02,0.02,0.029,0.028c0.477,0.44,1.221,1.203,1.988,2.125
		c0.276,0.329,0.527,0.652,0.766,0.97c0.054,0.073,0.109,0.145,0.163,0.219c0.211,0.29,0.405,0.574,0.584,0.853
		c0.048,0.075,0.096,0.149,0.142,0.224c0.188,0.304,0.36,0.603,0.509,0.891c0.012,0.024,0.024,0.047,0.036,0.071
		c0.651,1.29,0.898,2.414,0.711,3.292c-0.005,0.023-0.013,0.045-0.019,0.067c-0.042,0.174-0.107,0.335-0.184,0.488
		c-0.122,0.239-0.274,0.465-0.482,0.669c-0.114,0.114-0.288,0.199-0.654,0.243c-1.217-0.005-3.389-1.423-5.735-3.729
		c0.242-1.566-0.265-3.167-1.389-4.292c-0.944-0.945-2.2-1.465-3.535-1.465c-1.336,0-2.591,0.52-3.536,1.465
		c-0.945,0.944-1.465,2.2-1.465,3.535c0,1.336,0.52,2.591,1.465,3.536c1.125,1.125,2.727,1.632,4.292,1.389
		c2.307,2.346,3.725,4.519,3.729,5.735c0.001,0.362-0.129,0.54-0.249,0.659c-0.198,0.201-0.416,0.349-0.646,0.47
		c-0.165,0.086-0.34,0.156-0.529,0.2c-0.011,0.003-0.021,0.006-0.032,0.009c-0.879,0.192-2.007-0.056-3.302-0.708
		c-0.025-0.013-0.051-0.025-0.076-0.038c-0.285-0.147-0.58-0.317-0.881-0.502c-0.083-0.051-0.165-0.104-0.247-0.157
		c-0.269-0.173-0.542-0.359-0.821-0.562c-0.089-0.065-0.177-0.131-0.264-0.197c-0.299-0.224-0.601-0.46-0.909-0.717
		c-0.945-0.784-1.731-1.55-2.187-2.044C2.932,15.662,2,13.402,2,10.99z M35.023,47.753L11.499,24.229
		c0.043,0.009,0.083,0.01,0.125,0.018c0.135,0.025,0.27,0.042,0.404,0.058c0.118,0.014,0.235,0.025,0.35,0.032
		c0.072,0.004,0.145,0.018,0.216,0.019c0.031,0,0.062,0.001,0.092,0.001c0.042,0,0.08-0.01,0.121-0.011
		c0.243-0.005,0.48-0.026,0.71-0.065c0.094-0.016,0.183-0.041,0.275-0.063c0.139-0.033,0.28-0.063,0.415-0.109l20.705,20.705
		c-0.043,0.45-0.048,0.901-0.035,1.352c0.003,0.109,0.01,0.216,0.015,0.325c0.019,0.332,0.053,0.663,0.102,0.992
		C35.008,47.573,35.008,47.665,35.023,47.753z M52.222,52.225c-3.51,3.51-9.22,3.509-12.729,0c-0.007-0.007-0.013-0.015-0.02-0.023
		c-0.229-0.23-0.441-0.472-0.642-0.722c-0.074-0.093-0.14-0.19-0.21-0.286c-0.121-0.164-0.241-0.329-0.35-0.5
		c-0.079-0.124-0.15-0.25-0.222-0.377c-0.085-0.149-0.167-0.299-0.244-0.452c-0.07-0.141-0.136-0.283-0.198-0.427
		c-0.064-0.149-0.123-0.299-0.179-0.451c-0.054-0.146-0.107-0.291-0.153-0.439c-0.054-0.175-0.099-0.354-0.143-0.532
		c-0.03-0.124-0.066-0.247-0.091-0.372c-0.127-0.641-0.187-1.3-0.172-1.967c0.001-0.026,0.003-0.052,0.004-0.078
		c0.01-0.319,0.036-0.64,0.08-0.962c0.256-1.882,1.096-3.698,2.539-5.141c1.445-1.444,3.263-2.284,5.147-2.54
		c0.31-0.043,0.62-0.067,0.927-0.078c0.042-0.001,0.085-0.005,0.127-0.006c0.313-0.007,0.624,0.004,0.932,0.029
		c0.029,0.002,0.058,0.001,0.087,0.004c0.306,0.028,0.608,0.076,0.907,0.134c0.167,0.033,0.332,0.079,0.497,0.121
		c0.135,0.034,0.27,0.068,0.402,0.108c0.175,0.054,0.347,0.116,0.519,0.181c0.124,0.047,0.247,0.095,0.369,0.147
		c0.164,0.07,0.327,0.145,0.487,0.226c0.133,0.067,0.263,0.139,0.392,0.212c0.142,0.08,0.284,0.161,0.423,0.25
		c0.157,0.101,0.309,0.212,0.46,0.323c0.106,0.078,0.215,0.151,0.318,0.234c0.254,0.204,0.5,0.421,0.735,0.655
		c1.7,1.7,2.636,3.96,2.636,6.364C54.858,48.265,53.922,50.524,52.222,52.225z"/>
	<path d="M50.807,40.911c-1.32-1.32-3.078-2.047-4.949-2.047c-1.872,0-3.629,0.727-4.95,2.047c-2.729,2.729-2.729,7.17,0,9.899
		c1.32,1.32,3.078,2.047,4.95,2.047c1.871,0,3.629-0.727,4.949-2.047s2.048-3.078,2.048-4.95
		C52.855,43.989,52.127,42.231,50.807,40.911z M49.393,49.396c-0.942,0.942-2.198,1.461-3.535,1.461
		c-1.337,0-2.593-0.519-3.536-1.461c-1.949-1.949-1.949-5.122,0-7.071c0.942-0.942,2.198-1.461,3.536-1.461
		c1.337,0,2.593,0.519,3.535,1.461c0.942,0.943,1.462,2.199,1.462,3.536C50.855,47.198,50.335,48.453,49.393,49.396z"/>
</g>
<g>
</g>
<g>
</g>
<g>
</g>
<g>
</g>
<g>
</g>
<g>
</g>
<g>
</g>
<g>
</g>
<g>
</g>
<g>
</g>
<g>
</g>
<g>
</g>
<g>
</g>
<g>
</g>
<g>
</g>
</svg>
