<?xml version="1.0" encoding="iso-8859-1"?>
<!-- Generator: Adobe Illustrator 18.0.0, SVG Export Plug-In . SVG Version: 6.00 Build 0)  -->
<!DOCTYPE svg PUBLIC "-//W3C//DTD SVG 1.1//EN" "http://www.w3.org/Graphics/SVG/1.1/DTD/svg11.dtd">
<svg version="1.1" id="Capa_1" xmlns="http://www.w3.org/2000/svg" xmlns:xlink="http://www.w3.org/1999/xlink" x="0px" y="0px"
	 viewBox="0 0 53.81 53.81" style="enable-background:new 0 0 53.81 53.81;" xml:space="preserve">
<g>
	<path d="M50.703,35.156L33.074,4.835c-0.277-0.478-0.891-0.64-1.367-0.361c-0.478,0.277-0.64,0.89-0.361,1.367l15.561,26.765
		c-3.963-1.582-8.665-0.772-11.868,2.431c-2.63,2.63-3.64,6.272-3.044,9.685l-21.83-21.83c2.245-0.777,4.996-2.731,5.92-6.773
		c1.652-0.346,5.959-1.767,7.113-7.265c0.132-0.626-0.063-1.274-0.524-1.737l-3.899-3.899c-4.289-4.289-11.268-4.289-15.557,0
		s-4.289,11.267,0,15.556l4.563,4.564l0.001,0l27.256,27.256c2.145,2.145,4.961,3.217,7.778,3.217c2.816,0,5.633-1.072,7.777-3.217
		C54.845,46.342,54.877,39.454,50.703,35.156z M4.632,4.631c1.755-1.755,4.06-2.632,6.364-2.632s4.609,0.877,6.364,2.632
		l3.881,3.812c-0.994,4.731-4.772,5.619-5.903,5.777c-0.567,0.078-1.02,0.513-1.125,1.079c-0.877,4.668-4.439,5.724-5.688,5.952
		l-3.894-3.893C1.124,13.85,1.124,8.14,4.632,4.631z M49.18,49.179c-3.508,3.51-9.216,3.511-12.728,0
		c-3.509-3.51-3.509-9.219,0-12.729c1.755-1.755,4.06-2.632,6.363-2.632c2.305,0,4.609,0.877,6.364,2.632
		C52.689,39.96,52.689,45.669,49.18,49.179z"/>
	<path d="M47.766,37.865c-2.729-2.73-7.17-2.729-9.899,0c-1.32,1.32-2.048,3.078-2.048,4.949c0,1.872,0.728,3.63,2.048,4.95
		c1.364,1.364,3.157,2.046,4.949,2.046c1.793,0,3.586-0.682,4.95-2.046c1.32-1.32,2.048-3.078,2.048-4.95
		C49.814,40.943,49.087,39.186,47.766,37.865z M46.352,46.351c-1.948,1.948-5.121,1.95-7.071,0
		c-0.942-0.942-1.462-2.198-1.462-3.536c0-1.337,0.52-2.593,1.462-3.535c0.975-0.975,2.255-1.462,3.535-1.462
		c1.281,0,2.562,0.487,3.536,1.462c0.942,0.942,1.462,2.198,1.462,3.535C47.814,44.152,47.295,45.407,46.352,46.351z"/>
	<path d="M13.118,13.116c1.949-1.949,1.949-5.122,0-7.071c-1.95-1.949-5.123-1.949-7.071,0s-1.948,5.122,0,7.071
		c0.975,0.975,2.255,1.462,3.535,1.462C10.863,14.578,12.143,14.091,13.118,13.116z M7.461,7.459
		c0.585-0.584,1.354-0.877,2.121-0.877c0.769,0,1.537,0.293,2.122,0.877c1.17,1.17,1.17,3.073,0,4.243
		c-1.169,1.167-3.072,1.169-4.243,0C6.292,10.532,6.292,8.629,7.461,7.459z"/>
</g>
<g>
</g>
<g>
</g>
<g>
</g>
<g>
</g>
<g>
</g>
<g>
</g>
<g>
</g>
<g>
</g>
<g>
</g>
<g>
</g>
<g>
</g>
<g>
</g>
<g>
</g>
<g>
</g>
<g>
</g>
</svg>
