<?xml version="1.0" encoding="iso-8859-1"?>
<!-- Generator: Adobe Illustrator 18.0.0, SVG Export Plug-In . SVG Version: 6.00 Build 0)  -->
<!DOCTYPE svg PUBLIC "-//W3C//DTD SVG 1.1//EN" "http://www.w3.org/Graphics/SVG/1.1/DTD/svg11.dtd">
<svg version="1.1" id="Capa_1" xmlns="http://www.w3.org/2000/svg" xmlns:xlink="http://www.w3.org/1999/xlink" x="0px" y="0px"
	 viewBox="0 0 59.139 59.139" style="enable-background:new 0 0 59.139 59.139;" xml:space="preserve">
<g>
	<circle cx="36.07" cy="40.139" r="1"/>
	<circle cx="32.07" cy="40.139" r="1"/>
	<circle cx="34.07" cy="38.139" r="1"/>
	<circle cx="28.07" cy="40.139" r="1"/>
	<circle cx="24.07" cy="40.139" r="1"/>
	<circle cx="30.07" cy="38.139" r="1"/>
	<circle cx="26.07" cy="38.139" r="1"/>
	<circle cx="20.07" cy="40.139" r="1"/>
	<circle cx="16.07" cy="40.139" r="1"/>
	<circle cx="22.07" cy="38.139" r="1"/>
	<circle cx="18.07" cy="38.139" r="1"/>
	<circle cx="14.07" cy="38.139" r="1"/>
	<path d="M50.688,9.334c0.667,0.499,1.486,0.805,2.382,0.805c2.206,0,4-1.794,4-4s-1.794-4-4-4s-4,1.794-4,4c0,6.617-5.383,12-12,12
		H24.928c-0.364-1.399-1.459-2.494-2.858-2.858v-9.59c0-1.869-0.918-3.618-2.457-4.68c-1.549-1.068-3.526-1.308-5.29-0.636
		C6.994,3.161,2.07,10.237,2.07,17.985v0.154v1v1h0.049c0.336,5.457,3.369,11.144,7.951,14.363v9.637h11.586l-4.115,4.115
		c-0.981-0.699-2.177-1.115-3.471-1.115c-3.309,0-6,2.691-6,6s2.691,6,6,6s6-2.691,6-6c0-1.294-0.416-2.49-1.115-3.471l5.529-5.529
		h14.172l0.389,0.389c-1.233,1.54-1.975,3.489-1.975,5.611c0,4.963,4.038,9,9,9c4.963,0,9-4.037,9-9s-4.037-9-9-9
		c-2.122,0-4.071,0.742-5.611,1.975l-0.389-0.389v-8.223c4.862-3.415,8-9.614,8-15.363v-1h-3.826
		C47.443,16.219,49.812,13.066,50.688,9.334z M53.07,4.139c1.103,0,2,0.897,2,2s-0.897,2-2,2s-2-0.897-2-2S51.967,4.139,53.07,4.139
		z M18.07,53.139c0,2.206-1.794,4-4,4s-4-1.794-4-4s1.794-4,4-4c0.74,0,1.424,0.215,2.019,0.567l-2.726,2.726l1.414,1.414
		l2.726-2.726C17.854,51.715,18.07,52.4,18.07,53.139z M23.07,19.139c0,1.103-0.897,2-2,2s-2-0.897-2-2s0.897-2,2-2
		S23.07,18.037,23.07,19.139z M4.07,17.985c0-6.923,4.406-13.248,10.964-15.74c1.167-0.441,2.422-0.292,3.444,0.413
		c1.012,0.698,1.592,1.804,1.592,3.033v9.575c-0.184,0.048-0.362,0.109-0.535,0.182c-0.03,0.013-0.058,0.029-0.087,0.043
		c-0.183,0.082-0.358,0.178-0.526,0.286c-0.052,0.034-0.103,0.067-0.154,0.103c-0.184,0.13-0.36,0.27-0.518,0.428
		c-0.003,0.003-0.007,0.007-0.01,0.01c-0.159,0.159-0.299,0.336-0.429,0.52c-0.036,0.05-0.069,0.101-0.102,0.153
		c-0.109,0.169-0.206,0.345-0.288,0.531c-0.012,0.028-0.028,0.054-0.04,0.082c-0.073,0.173-0.135,0.352-0.183,0.537H4.07V17.985z
		 M46.07,43.139c3.859,0,7,3.141,7,7s-3.141,7-7,7c-3.86,0-7-3.141-7-7c0-1.57,0.526-3.015,1.402-4.184l4.891,4.891l1.414-1.414
		l-4.891-4.891C43.054,43.665,44.5,43.139,46.07,43.139z M38.07,37.139c-0.552,0-1,0.448-1,1c0,0.552,0.448,1,1,1v2
		c-0.552,0-1,0.448-1,1h-2c0-0.552-0.448-1-1-1s-1,0.448-1,1h-2c0-0.552-0.448-1-1-1s-1,0.448-1,1h-2c0-0.552-0.448-1-1-1
		s-1,0.448-1,1h-2c0-0.552-0.448-1-1-1s-1,0.448-1,1h-2c0-0.552-0.448-1-1-1s-1,0.448-1,1h-2c0-0.552-0.448-1-1-1s-1,0.448-1,1h-1
		v-1c0.552,0,1-0.448,1-1c0-0.552-0.448-1-1-1v-2c0.549,0,0.993-0.443,0.998-0.991c0.633,0.256,1.286,0.459,1.956,0.618
		c0.023,0.006,0.047,0.008,0.07,0.014c0.464,0.108,0.932,0.2,1.412,0.258c0.521,0.065,1.043,0.101,1.564,0.101h4h4h4h2
		c0.521,0,1.043-0.035,1.564-0.101c0.479-0.058,0.948-0.15,1.412-0.258c0.023-0.006,0.047-0.008,0.07-0.014
		c0.056-0.013,0.115-0.019,0.171-0.033c0.183,0.24,0.458,0.406,0.783,0.406c0.548,0,0.991-0.442,0.998-0.989
		c0.341-0.138,0.673-0.298,1.002-0.462V37.139z M46.034,20.139c-0.383,5.316-3.753,11.01-8.549,13.587
		c-0.087,0.047-0.174,0.092-0.261,0.136c-0.356,0.181-0.716,0.349-1.086,0.494c-0.036,0.014-0.072,0.024-0.108,0.038
		c-0.354,0.135-0.715,0.25-1.081,0.349c-0.074,0.02-0.148,0.042-0.223,0.061c-0.387,0.097-0.779,0.173-1.177,0.228
		c-0.072,0.01-0.144,0.017-0.216,0.025c-0.415,0.049-0.835,0.081-1.261,0.081h-14c-0.426,0-0.846-0.033-1.261-0.081
		c-0.072-0.008-0.145-0.015-0.217-0.025c-0.398-0.055-0.791-0.131-1.177-0.228c-0.075-0.019-0.149-0.041-0.223-0.061
		c-0.366-0.1-0.727-0.215-1.081-0.349c-0.036-0.014-0.072-0.024-0.108-0.038c-0.37-0.145-0.731-0.314-1.086-0.494
		c-0.088-0.044-0.175-0.09-0.262-0.137c-4.796-2.577-8.167-8.271-8.549-13.587h13.09c0.036,0.139,0.091,0.27,0.141,0.404
		c0.023,0.06,0.038,0.123,0.064,0.182c0.096,0.221,0.21,0.432,0.343,0.63c0.029,0.043,0.065,0.08,0.096,0.122
		c0.11,0.151,0.227,0.297,0.356,0.431c0.058,0.06,0.122,0.114,0.184,0.17c0.115,0.105,0.233,0.205,0.36,0.297
		c0.074,0.053,0.149,0.102,0.227,0.15c0.129,0.081,0.263,0.153,0.402,0.218c0.082,0.039,0.163,0.078,0.248,0.111
		c0.153,0.06,0.312,0.106,0.474,0.147c0.077,0.02,0.151,0.045,0.23,0.06c0.244,0.047,0.493,0.076,0.75,0.076s0.506-0.029,0.75-0.076
		c0.079-0.015,0.153-0.04,0.23-0.06c0.162-0.041,0.321-0.087,0.474-0.147c0.085-0.033,0.166-0.072,0.248-0.111
		c0.139-0.066,0.272-0.138,0.402-0.218c0.077-0.048,0.153-0.097,0.227-0.15c0.127-0.091,0.245-0.192,0.36-0.297
		c0.062-0.057,0.126-0.11,0.184-0.17c0.13-0.134,0.246-0.28,0.356-0.431c0.031-0.042,0.067-0.079,0.096-0.122
		c0.133-0.198,0.247-0.409,0.343-0.63c0.026-0.059,0.041-0.122,0.064-0.182c0.05-0.133,0.105-0.264,0.141-0.404H46.034z"/>
</g>
<g>
</g>
<g>
</g>
<g>
</g>
<g>
</g>
<g>
</g>
<g>
</g>
<g>
</g>
<g>
</g>
<g>
</g>
<g>
</g>
<g>
</g>
<g>
</g>
<g>
</g>
<g>
</g>
<g>
</g>
</svg>
