<?xml version="1.0" encoding="iso-8859-1"?>
<!-- Generator: Adobe Illustrator 18.0.0, SVG Export Plug-In . SVG Version: 6.00 Build 0)  -->
<!DOCTYPE svg PUBLIC "-//W3C//DTD SVG 1.1//EN" "http://www.w3.org/Graphics/SVG/1.1/DTD/svg11.dtd">
<svg version="1.1" id="Capa_1" xmlns="http://www.w3.org/2000/svg" xmlns:xlink="http://www.w3.org/1999/xlink" x="0px" y="0px"
	 viewBox="0 0 59.088 59.088" style="enable-background:new 0 0 59.088 59.088;" xml:space="preserve">
<g>
	<circle cx="13.016" cy="42.75" r="1.438"/>
	<circle cx="46.016" cy="42.75" r="1.438"/>
	<path d="M58.088,12.475c-4.385,0-7.952,4.584-7.952,10.219c0,0.411,0.249,0.763,0.604,0.917H31c0-0.552-0.448-1-1-1
		c-2.757,0-5-2.243-5-5V5.477c0-0.552-0.448-1-1-1c-2.787,0-8.556,0.005-13.417,2.867L8.439,5.375
		c-0.406-0.374-1.039-0.346-1.413,0.06C6.653,5.842,6.68,6.474,7.087,6.847l1.798,1.652c-1.312,1.026-2.507,2.318-3.504,3.934
		l-1.998-0.829c-0.51-0.21-1.096,0.031-1.307,0.541c-0.211,0.51,0.03,1.095,0.541,1.307l1.816,0.754
		c-0.714,1.559-1.258,3.371-1.584,5.47l-1.813-0.064c-0.537-0.005-1.015,0.413-1.035,0.964c-0.02,0.552,0.412,1.015,0.964,1.035
		l1.653,0.058C2.548,22.527,2.5,23.415,2.5,24.361c0,0.638,0,1.764,0.191,3.142L1.116,28.03c-0.524,0.175-0.806,0.742-0.631,1.266
		c0.14,0.418,0.53,0.683,0.948,0.683c0.105,0,0.212-0.017,0.317-0.052l1.331-0.445c0.394,1.536,1.061,3.209,2.176,4.799
		c-2.258,2.101-3.68,5.088-3.68,8.408c0,6.036,4.677,10.99,10.596,11.454c0.178,0.276,0.473,0.47,0.826,0.47
		c0.349,0,0.642-0.19,0.821-0.461c5.347-0.344,9.702-4.349,10.583-9.534c1.2,0.049,2.402,0.074,3.571,0.074
		c2.249,0,4.52-0.087,6.75-0.258c0.8,5.221,5.113,9.291,10.449,9.71c0.178,0.276,0.473,0.47,0.826,0.47
		c0.349,0,0.642-0.19,0.821-0.461c5.995-0.385,10.757-5.371,10.757-11.462c0-3.661-1.726-6.921-4.4-9.028
		c2.186-3.065,2.189-6.824,2.189-8.548c0-0.449,0-1.5-1.018-1.5h-2.817c0.355-0.154,0.604-0.505,0.604-0.917
		c0-4.532,2.67-8.219,5.952-8.219c0.552,0,1-0.448,1-1S58.64,12.475,58.088,12.475z M44.993,25.611
		c-0.299,0.775-1.046,1.328-1.926,1.328c-0.879,0-1.626-0.553-1.925-1.328H44.993z M37.993,25.611
		c-0.299,0.775-1.046,1.328-1.926,1.328c-0.879,0-1.626-0.553-1.925-1.328H37.993z M29.016,24.534
		C29.014,24.561,29,24.584,29,24.611c0,0.552,0.448,1,1,1h0.993c-0.299,0.775-1.046,1.328-1.926,1.328
		c-0.798,0-2.514-0.01-2.978-3.525C26.948,23.995,27.945,24.382,29.016,24.534z M23,6.486v12.125c0,0.06,0.024,0.113,0.034,0.17
		L12.101,8.739C15.35,7.038,19.25,6.553,23,6.486z M10.338,9.834l9.248,8.495l-12.384-5.14C8.084,11.816,9.145,10.713,10.338,9.834z
		 M6.241,14.956l12.745,5.29L4.849,19.746C5.144,17.913,5.617,16.325,6.241,14.956z M4.5,24.361c0-0.921,0.037-1.792,0.105-2.622
		l13.842,0.489L4.629,26.854C4.503,25.771,4.5,24.881,4.5,24.361z M20.445,48.675c-0.026-0.034-0.039-0.074-0.07-0.105l-2.856-2.856
		c-0.391-0.391-1.023-0.391-1.414,0s-0.391,1.023,0,1.414l2.856,2.856c0.031,0.031,0.071,0.044,0.105,0.07
		c-1.411,1.149-3.156,1.902-5.066,2.087v-3.53c0-0.552-0.448-1-1-1s-1,0.448-1,1v3.51c-1.88-0.214-3.596-0.974-4.981-2.124
		c0.006-0.005,0.013-0.007,0.019-0.013l2.859-2.856c0.391-0.39,0.391-1.023,0.001-1.414c-0.391-0.391-1.024-0.391-1.414-0.001
		L5.63,48.565c-0.9-1.138-1.551-2.482-1.855-3.954H8c0.552,0,1-0.448,1-1s-0.448-1-1-1H3.582c0.018-2.23,0.807-4.277,2.115-5.891
		l2.788,2.788c0.195,0.195,0.451,0.293,0.707,0.293s0.512-0.098,0.707-0.293c0.391-0.391,0.391-1.023,0-1.414l-2.528-2.528
		c0.05-0.03,0.104-0.049,0.149-0.088c0.217-0.189,0.327-0.451,0.337-0.718c1.236-0.817,2.671-1.355,4.218-1.518
		C12.029,33.356,12,33.48,12,33.611v5c0,0.552,0.448,1,1,1s1-0.448,1-1v-5c0-0.135-0.028-0.263-0.077-0.381
		c1.892,0.168,3.622,0.893,5.033,2.009l-2.855,2.855c-0.391,0.391-0.391,1.023,0,1.414c0.195,0.195,0.451,0.293,0.707,0.293
		s0.512-0.098,0.707-0.293l2.857-2.857c0.007-0.007,0.008-0.016,0.015-0.022c1.351,1.628,2.168,3.712,2.186,5.983H18
		c-0.552,0-1,0.448-1,1s0.448,1,1,1h4.382C22.068,46.129,21.39,47.515,20.445,48.675z M55.574,42.611H51c-0.552,0-1,0.448-1,1
		s0.448,1,1,1h4.382c-0.313,1.518-0.992,2.904-1.937,4.064c-0.026-0.034-0.039-0.074-0.07-0.105l-2.856-2.856
		c-0.391-0.391-1.023-0.391-1.414,0s-0.391,1.023,0,1.414l2.856,2.856c0.031,0.031,0.071,0.044,0.105,0.07
		c-1.411,1.149-3.156,1.902-5.066,2.087v-3.53c0-0.552-0.448-1-1-1s-1,0.448-1,1v3.51c-1.88-0.214-3.596-0.974-4.981-2.124
		c0.006-0.005,0.013-0.007,0.019-0.013l2.859-2.856c0.391-0.39,0.391-1.023,0.001-1.414c-0.39-0.391-1.024-0.391-1.414-0.001
		l-2.855,2.852c-0.9-1.138-1.551-2.482-1.855-3.954H41c0.552,0,1-0.448,1-1s-0.448-1-1-1h-4.418c0.018-2.23,0.807-4.277,2.115-5.891
		l2.788,2.788c0.195,0.195,0.451,0.293,0.707,0.293s0.512-0.098,0.707-0.293c0.391-0.391,0.391-1.023,0-1.414l-2.788-2.788
		c1.388-1.124,3.095-1.867,4.964-2.064C45.029,33.356,45,33.48,45,33.611v5c0,0.552,0.448,1,1,1s1-0.448,1-1v-5
		c0-0.135-0.028-0.263-0.077-0.381c1.271,0.113,2.469,0.476,3.547,1.041c0.024,0.218,0.105,0.432,0.272,0.599
		c0.195,0.195,0.451,0.293,0.707,0.293c0.11,0,0.218-0.027,0.323-0.063c0.061,0.046,0.124,0.09,0.184,0.138l-2.855,2.855
		c-0.391,0.391-0.391,1.023,0,1.414c0.195,0.195,0.451,0.293,0.707,0.293s0.512-0.098,0.707-0.293l2.857-2.857
		c0.007-0.007,0.008-0.016,0.015-0.022C54.739,38.255,55.556,40.339,55.574,42.611z M46.079,31.187
		c-6.257,0-11.353,5.024-11.488,11.249c0,0,0,0,0,0c-3.29,0.252-6.613,0.317-10.016,0.183c-0.037-6.31-5.178-11.432-11.496-11.432
		c-2.302,0-4.444,0.687-6.244,1.856c-0.949-1.383-1.515-2.85-1.848-4.2L24,22.478c0.233,4.286,1.933,6.461,5.068,6.461
		c1.497,0,2.794-0.822,3.5-2.03c0.706,1.208,2.002,2.03,3.5,2.03c1.497,0,2.794-0.822,3.5-2.03c0.706,1.208,2.002,2.03,3.5,2.03
		c1.497,0,2.794-0.822,3.5-2.03c0.706,1.208,2.002,2.03,3.5,2.03c1.312,0,2.468-0.635,3.213-1.601
		c-0.153,1.603-0.583,3.568-1.775,5.215C49.888,31.683,48.041,31.187,46.079,31.187z M48.143,25.611h3.851
		c-0.299,0.775-1.046,1.328-1.926,1.328C49.189,26.939,48.441,26.386,48.143,25.611z"/>
</g>
<g>
</g>
<g>
</g>
<g>
</g>
<g>
</g>
<g>
</g>
<g>
</g>
<g>
</g>
<g>
</g>
<g>
</g>
<g>
</g>
<g>
</g>
<g>
</g>
<g>
</g>
<g>
</g>
<g>
</g>
</svg>
