<?xml version="1.0" encoding="iso-8859-1"?>
<!-- Generator: Adobe Illustrator 18.0.0, SVG Export Plug-In . SVG Version: 6.00 Build 0)  -->
<!DOCTYPE svg PUBLIC "-//W3C//DTD SVG 1.1//EN" "http://www.w3.org/Graphics/SVG/1.1/DTD/svg11.dtd">
<svg version="1.1" id="Capa_1" xmlns="http://www.w3.org/2000/svg" xmlns:xlink="http://www.w3.org/1999/xlink" x="0px" y="0px"
	 viewBox="0 0 60 60" style="enable-background:new 0 0 60 60;" xml:space="preserve">
<g>
	<path d="M56,7.059c-0.277,0-0.527,0.113-0.708,0.294l-7.367,7.367c-0.085-0.154-0.165-0.31-0.255-0.461l-0.089-0.148L34,2.941
		v18.713l-6.879,7.111l-3.414-3.414c-0.391-0.391-1.023-0.391-1.414,0s-0.391,1.023,0,1.414l3.438,3.438l-7.729,7.99L9,41.35v0.295
		l-4.414,4.414H2v2h3.414L9,44.473v0.704c-1.266,1.294-2,3.032-2,4.882c0,1.958,0.81,3.728,2.111,5H0v2h59v-2h-3.355
		c2.044-1.651,3.355-4.174,3.355-7c0-4.963-4.037-9-9-9c-2.122,0-4.071,0.742-5.611,1.975l-3.585-3.585l0.348-0.181
		C46.609,34.429,50,28.845,50,22.692c0-2.081-0.404-4.134-1.166-6.054l7.542-7.542C57.299,9.273,58,10.085,58,11.059
		c0,0.553,0.447,1,1,1s1-0.447,1-1C60,8.853,58.206,7.059,56,7.059z M11,42.768l8.111-2.844L36,22.463V7.176l10.04,8.257
		c0.145,0.25,0.281,0.504,0.411,0.761L18.586,44.059h-0.97H11V42.768z M34,47.059c-0.552,0-1,0.448-1,1h-2c0-0.552-0.448-1-1-1
		s-1,0.448-1,1h-2c0-0.552-0.448-1-1-1s-1,0.448-1,1h-1v-1c0.552,0,1-0.448,1-1c0-0.126-0.029-0.245-0.072-0.356l4.28-2.225
		C29.086,43.643,29,43.837,29,44.059c0,0.552,0.448,1,1,1s1-0.448,1-1c0-0.549-0.443-0.992-0.99-0.998l1.097-0.57
		c0.162,0.334,0.497,0.568,0.893,0.568c0.552,0,1-0.448,1-1c0-0.177-0.059-0.336-0.14-0.48l1.039-0.54
		c0.035,0.004,0.065,0.02,0.101,0.02c0.375,0,0.689-0.215,0.86-0.52L38,38.906v0.152c-0.552,0-1,0.448-1,1c0,0.552,0.448,1,1,1v2
		c-0.552,0-1,0.448-1,1c0,0.552,0.448,1,1,1v2c-0.552,0-1,0.448-1,1h-2C35,47.506,34.552,47.059,34,47.059z M23.756,44.059h-2.342
		L33,32.473l4.46,4.46L23.756,44.059z M9,50.059c0-1.582,0.743-3.057,2.002-4h5.584l-3.293,3.293l1.414,1.414l3.463-3.463
		c0.533,0.806,0.83,1.759,0.83,2.756c0,2.757-2.243,5-5,5S9,52.815,9,50.059z M18.889,55.059c1.3-1.272,2.111-3.042,2.111-5
		c0-1.455-0.451-2.843-1.258-4H22v4h18V39.473l2.975,2.975C41.742,43.988,41,45.937,41,48.059c0,2.826,1.312,5.349,3.355,7H18.889z
		 M50,41.059c3.859,0,7,3.141,7,7s-3.141,7-7,7s-7-3.141-7-7c0-1.57,0.526-3.015,1.402-4.184l4.891,4.891l1.414-1.414l-4.891-4.891
		C46.985,41.584,48.43,41.059,50,41.059z M48,22.692c0,5.403-2.978,10.308-7.771,12.8l-0.909,0.473l-4.906-4.906l12.862-12.862
		C47.751,19.641,48,21.158,48,22.692z"/>
	<circle cx="36" cy="46.059" r="1"/>
	<circle cx="28" cy="46.059" r="1"/>
	<circle cx="34" cy="44.059" r="1"/>
	<circle cx="36" cy="42.059" r="1"/>
	<circle cx="32" cy="46.059" r="1"/>
</g>
<g>
</g>
<g>
</g>
<g>
</g>
<g>
</g>
<g>
</g>
<g>
</g>
<g>
</g>
<g>
</g>
<g>
</g>
<g>
</g>
<g>
</g>
<g>
</g>
<g>
</g>
<g>
</g>
<g>
</g>
</svg>
