<?xml version="1.0" encoding="iso-8859-1"?>
<!-- Generator: Adobe Illustrator 18.0.0, SVG Export Plug-In . SVG Version: 6.00 Build 0)  -->
<!DOCTYPE svg PUBLIC "-//W3C//DTD SVG 1.1//EN" "http://www.w3.org/Graphics/SVG/1.1/DTD/svg11.dtd">
<svg version="1.1" id="Capa_1" xmlns="http://www.w3.org/2000/svg" xmlns:xlink="http://www.w3.org/1999/xlink" x="0px" y="0px"
	 viewBox="0 0 58 58" style="enable-background:new 0 0 58 58;" xml:space="preserve">
<g>
	<path d="M33,16c0-1.682-1.757-3-4-3s-4,1.318-4,3c0,1.421,1.259,2.571,3,2.898V21c0,0.552,0.448,1,1,1s1-0.448,1-1v-2.102
		C31.741,18.571,33,17.421,33,16z M29,17c-1.221,0-2-0.592-2-1s0.779-1,2-1s2,0.592,2,1S30.221,17,29,17z"/>
	<circle cx="24" cy="7" r="1"/>
	<circle cx="34" cy="7" r="1"/>
	<path d="M48,25h-2.519H39v-0.961c0-0.084-0.019-0.164-0.03-0.246C41.53,21.186,43,17.66,43,14c0-1.333-0.199-2.619-0.549-3.842
		l0.748-0.564c1.066-0.804,1.756-1.975,1.941-3.297s-0.155-2.638-0.959-3.705v0c-1.659-2.201-4.802-2.642-7.002-0.982l-0.736,0.555
		C34.284,0.801,31.737,0,29,0c-2.737,0-5.284,0.801-7.443,2.164l-0.736-0.555c-2.202-1.659-5.343-1.218-7.002,0.983
		c-0.804,1.066-1.145,2.382-0.959,3.705s0.875,2.494,1.941,3.297l0.748,0.564C15.199,11.381,15,12.667,15,14
		c0,3.66,1.47,7.186,4.03,9.793C19.019,23.875,19,23.955,19,24.039V25h-6.481H10c-2.757,0-5,2.243-5,5s2.243,5,5,5h1.609H16v16.5
		c0,0.376,0.033,0.74,0.085,1.096l-0.011,0.017l0.039,0.188c0.011,0.064,0.026,0.127,0.039,0.19l0.008,0.038
		c0.001,0.005,0.003,0.009,0.004,0.013c0.076,0.364,0.173,0.717,0.3,1.051c0.011,0.029,0.025,0.055,0.036,0.083
		c0.093,0.236,0.201,0.462,0.318,0.681c0.129,0.246,0.275,0.475,0.43,0.695c0.032,0.045,0.061,0.093,0.095,0.137
		c0.357,0.478,0.776,0.885,1.248,1.223c0.007,0.005,0.014,0.01,0.021,0.015c0.269,0.191,0.552,0.357,0.852,0.498
		c0.076,0.037,0.152,0.074,0.23,0.107c0.139,0.058,0.278,0.114,0.422,0.161c0.233,0.078,0.473,0.141,0.72,0.19
		c0.081,0.015,0.163,0.026,0.245,0.038C21.38,57.969,21.685,58,22,58c0.212,0,0.42-0.011,0.625-0.032
		c0.034-0.003,0.066-0.011,0.1-0.015c0.172-0.02,0.342-0.045,0.508-0.079c0.022-0.005,0.043-0.012,0.065-0.016
		c0.178-0.039,0.352-0.084,0.523-0.139c0.007-0.002,0.014-0.005,0.022-0.008c0.944-0.306,1.773-0.848,2.438-1.569
		c0.002-0.002,0.004-0.005,0.006-0.007c0.127-0.138,0.248-0.283,0.363-0.434c0.015-0.02,0.029-0.04,0.044-0.06
		c0.099-0.133,0.193-0.27,0.281-0.413c0.027-0.044,0.052-0.089,0.079-0.133c0.07-0.12,0.138-0.241,0.201-0.367
		c0.037-0.074,0.072-0.15,0.106-0.226c0.045-0.099,0.089-0.197,0.129-0.299c0.043-0.108,0.082-0.218,0.12-0.329
		c0.025-0.073,0.049-0.147,0.072-0.221c0.043-0.141,0.08-0.285,0.115-0.431c0.011-0.049,0.023-0.098,0.033-0.147
		c0.036-0.17,0.066-0.343,0.091-0.519c0.004-0.03,0.008-0.06,0.012-0.09c0.024-0.19,0.041-0.382,0.05-0.578
		c0.001-0.012,0.003-0.024,0.003-0.036l0.02-0.454L28,51.39V47h2v4.39l-0.006,0.006l0.02,0.454c0.001,0.012,0.003,0.024,0.003,0.036
		c0.01,0.196,0.026,0.388,0.05,0.578c0.004,0.03,0.008,0.06,0.012,0.09c0.024,0.176,0.054,0.35,0.091,0.521
		c0.01,0.049,0.022,0.096,0.033,0.145c0.034,0.146,0.072,0.291,0.115,0.432c0.022,0.075,0.047,0.148,0.072,0.221
		c0.038,0.112,0.077,0.222,0.121,0.331c0.04,0.101,0.084,0.199,0.128,0.297c0.035,0.076,0.069,0.153,0.107,0.227
		c0.063,0.126,0.131,0.247,0.201,0.367c0.026,0.044,0.051,0.089,0.079,0.133c0.088,0.143,0.183,0.28,0.281,0.413
		c0.015,0.02,0.029,0.041,0.044,0.06c0.115,0.151,0.236,0.296,0.363,0.434c0.002,0.002,0.004,0.005,0.006,0.007
		c0.665,0.722,1.494,1.263,2.438,1.569c0.007,0.002,0.014,0.006,0.022,0.008c0.171,0.055,0.345,0.1,0.523,0.139
		c0.022,0.005,0.043,0.012,0.065,0.016c0.166,0.034,0.337,0.059,0.508,0.079c0.034,0.004,0.066,0.011,0.1,0.015
		C35.58,57.989,35.788,58,36,58c0.315,0,0.62-0.031,0.92-0.077c0.082-0.012,0.164-0.023,0.245-0.038
		c0.246-0.048,0.487-0.112,0.72-0.19c0.144-0.047,0.283-0.103,0.422-0.161c0.078-0.033,0.154-0.071,0.23-0.107
		c0.3-0.141,0.584-0.307,0.852-0.498c0.007-0.005,0.014-0.01,0.021-0.015c0.471-0.338,0.891-0.745,1.248-1.223
		c0.033-0.044,0.063-0.092,0.095-0.137c0.156-0.221,0.302-0.449,0.43-0.695c0.117-0.219,0.225-0.445,0.318-0.681
		c0.011-0.029,0.025-0.054,0.036-0.083c0.127-0.334,0.224-0.687,0.3-1.051c0.001-0.005,0.003-0.009,0.004-0.013l0.008-0.038
		c0.013-0.064,0.028-0.126,0.039-0.19l0.039-0.188l-0.011-0.017C41.967,52.24,42,51.876,42,51.5V35h4.391H48c2.757,0,5-2.243,5-5
		S50.757,25,48,25z M38.129,3.398l0.254-0.191c1.32-0.996,3.206-0.731,4.202,0.59c0.482,0.64,0.687,1.429,0.575,2.223
		c-0.111,0.793-0.525,1.496-1.165,1.979l-0.264,0.199c-0.024-0.054-0.056-0.103-0.081-0.156c-0.165-0.35-0.341-0.692-0.534-1.025
		c-0.077-0.134-0.159-0.264-0.24-0.395c-0.166-0.266-0.339-0.526-0.522-0.78c-0.109-0.152-0.221-0.302-0.336-0.449
		c-0.181-0.232-0.371-0.455-0.566-0.675c-0.123-0.138-0.244-0.277-0.373-0.41c-0.23-0.239-0.472-0.465-0.718-0.688
		C38.281,3.548,38.211,3.468,38.129,3.398z M16.269,8.197l-0.264-0.199c-1.321-0.996-1.585-2.881-0.59-4.202
		c0.589-0.781,1.489-1.193,2.4-1.193c0.628,0,1.262,0.196,1.802,0.603l0.254,0.192c-0.081,0.07-0.151,0.15-0.231,0.221
		c-0.246,0.222-0.488,0.449-0.718,0.688c-0.129,0.133-0.25,0.272-0.373,0.41c-0.195,0.22-0.385,0.443-0.566,0.675
		c-0.115,0.147-0.227,0.297-0.336,0.449c-0.183,0.254-0.356,0.514-0.522,0.78c-0.081,0.131-0.163,0.261-0.24,0.395
		c-0.193,0.333-0.369,0.675-0.534,1.025C16.325,8.094,16.293,8.143,16.269,8.197z M17.522,10.506l0.112-0.327
		c0.017-0.052,0.038-0.102,0.056-0.154c0.264-0.75,0.602-1.462,1-2.135c0.085-0.143,0.169-0.288,0.26-0.427
		c0.09-0.138,0.185-0.273,0.281-0.407c0.115-0.161,0.232-0.319,0.355-0.474c0.094-0.12,0.189-0.238,0.288-0.354
		c0.136-0.159,0.278-0.313,0.422-0.465c0.101-0.106,0.198-0.215,0.302-0.317c0.161-0.158,0.331-0.306,0.5-0.454
		c0.228-0.199,0.464-0.39,0.707-0.573c0.135-0.101,0.266-0.207,0.405-0.303l0.12-0.085C24.24,2.75,26.534,2,29,2
		s4.76,0.75,6.669,2.031l0.12,0.085c0.139,0.096,0.27,0.201,0.405,0.303c0.244,0.183,0.48,0.374,0.707,0.573
		c0.169,0.149,0.339,0.297,0.5,0.454c0.105,0.103,0.202,0.211,0.302,0.317c0.144,0.152,0.286,0.305,0.422,0.465
		c0.099,0.116,0.194,0.235,0.288,0.354c0.122,0.155,0.24,0.313,0.355,0.474c0.096,0.134,0.191,0.269,0.281,0.407
		c0.091,0.14,0.175,0.284,0.26,0.427c0.398,0.673,0.736,1.385,1,2.135c0.018,0.051,0.039,0.102,0.056,0.154l0.112,0.327
		C40.815,11.613,41,12.785,41,14c0,3.05-1.192,5.993-3.276,8.209c-0.415-0.154-0.875-0.172-1.304-0.03l-4.173,2.541
		c-0.114-0.158-0.236-0.31-0.371-0.45C34.963,22.686,37,18.819,37,16c0-3.86-3.589-7-8-7s-8,3.14-8,7
		c0,2.819,2.037,6.686,5.124,8.271c-0.133,0.139-0.255,0.288-0.367,0.445l-3.969-2.44l-0.208-0.097
		c-0.429-0.141-0.889-0.124-1.304,0.03C18.192,19.993,17,17.051,17,14C17,12.785,17.185,11.613,17.522,10.506z M33,26.598
		l4.001-2.459l0.05,5.832L33,27.48V26.598z M29.129,29.026C29.085,29.02,29.046,29,29,29s-0.085,0.02-0.129,0.026
		C27.829,28.958,27,28.098,27,27.039c0-1.103,0.897-2,2-2s2,0.897,2,2C31,28.098,30.171,28.958,29.129,29.026z M29,23
		c-3.312,0-6-4.236-6-7c0-2.757,2.691-5,6-5s6,2.243,6,5C35,18.764,32.312,23,29,23z M25,27.48l-4.001,2.459l-0.05-5.832L25,26.598
		V27.48z M10,33c-1.654,0-3-1.346-3-3s1.346-3,3-3h1.395C11.792,27.773,12,28.628,12,29.5c0,1.286-0.446,2.514-1.263,3.5H10z
		 M25.942,52.26c-0.017,0.128-0.05,0.246-0.075,0.369c-0.035,0.166-0.066,0.333-0.117,0.493c-0.012,0.039-0.029,0.074-0.042,0.112
		c-0.076,0.223-0.164,0.441-0.271,0.648c-0.017,0.034-0.039,0.064-0.057,0.097c-0.105,0.191-0.222,0.373-0.353,0.544
		c-0.051,0.066-0.108,0.126-0.162,0.188c-0.105,0.121-0.217,0.236-0.336,0.343c-0.09,0.08-0.185,0.153-0.282,0.224
		c-0.101,0.074-0.208,0.142-0.317,0.206c-0.116,0.067-0.234,0.13-0.357,0.185c-0.124,0.054-0.256,0.097-0.389,0.138
		c-0.116,0.036-0.23,0.077-0.351,0.102C22.57,55.963,22.295,56,22,56c-0.293,0-0.565-0.038-0.826-0.091
		c-0.075-0.015-0.147-0.035-0.22-0.054c-0.208-0.055-0.407-0.125-0.594-0.211c-0.041-0.019-0.085-0.034-0.125-0.054
		c-0.728-0.372-1.285-0.968-1.659-1.68c-0.001-0.002-0.003-0.004-0.004-0.007c-0.119-0.228-0.217-0.469-0.299-0.717
		c-0.006-0.019-0.015-0.036-0.021-0.056c-0.01-0.03-0.013-0.063-0.022-0.094C19.271,51.754,20.836,51,22.5,51
		c1.262,0,2.468,0.43,3.445,1.22C25.943,52.233,25.944,52.246,25.942,52.26z M26,45v4.872C24.931,49.305,23.735,49,22.5,49
		c-1.647,0-3.217,0.551-4.5,1.517V33h-4.871C13.696,31.931,14,30.736,14,29.5c0-0.859-0.165-1.699-0.45-2.5H19v3.039
		c0,0.628,0.304,1.223,0.814,1.59c0.337,0.244,0.741,0.37,1.148,0.37c0.208,0,0.416-0.033,0.618-0.1l4.173-2.541
		c0.538,0.751,1.328,1.301,2.247,1.539v2.125c-0.486-0.141-0.939-0.376-1.293-0.73c-0.391-0.391-1.023-0.391-1.414,0
		s-0.391,1.023,0,1.414c0.732,0.732,1.692,1.187,2.707,1.366v1.95c-0.486-0.141-0.939-0.376-1.293-0.73
		c-0.391-0.391-1.023-0.391-1.414,0s-0.391,1.023,0,1.414c0.732,0.732,1.692,1.187,2.707,1.366v1.95
		c-0.486-0.141-0.939-0.376-1.293-0.73c-0.391-0.391-1.023-0.391-1.414,0s-0.391,1.023,0,1.414c0.732,0.732,1.692,1.187,2.707,1.366
		V45H26z M39.748,53.131c-0.006,0.019-0.014,0.037-0.021,0.056c-0.082,0.248-0.18,0.489-0.299,0.717
		c-0.001,0.002-0.002,0.004-0.004,0.007c-0.374,0.712-0.93,1.308-1.659,1.68c-0.041,0.02-0.084,0.035-0.125,0.054
		c-0.187,0.086-0.386,0.156-0.594,0.211c-0.073,0.019-0.145,0.039-0.22,0.054C36.565,55.962,36.293,56,36,56
		c-0.295,0-0.57-0.037-0.833-0.091c-0.121-0.026-0.235-0.066-0.351-0.102c-0.133-0.041-0.265-0.084-0.389-0.138
		c-0.123-0.054-0.241-0.118-0.357-0.185c-0.11-0.064-0.216-0.132-0.317-0.206c-0.097-0.07-0.191-0.144-0.282-0.224
		c-0.119-0.107-0.231-0.222-0.336-0.343c-0.055-0.062-0.111-0.122-0.162-0.188c-0.131-0.171-0.248-0.354-0.353-0.544
		c-0.018-0.033-0.039-0.063-0.057-0.097c-0.107-0.207-0.194-0.425-0.271-0.648c-0.013-0.038-0.03-0.073-0.042-0.112
		c-0.051-0.16-0.081-0.328-0.117-0.493c-0.025-0.123-0.058-0.241-0.075-0.369c-0.002-0.013-0.001-0.027-0.003-0.04
		C33.032,51.43,34.238,51,35.5,51c1.664,0,3.229,0.754,4.27,2.037C39.761,53.068,39.758,53.101,39.748,53.131z M40,33v17.517
		C38.717,49.551,37.147,49,35.5,49c-1.236,0-2.431,0.305-3.5,0.872V45h-2v-1.927c1.015-0.179,1.975-0.633,2.707-1.366
		c0.391-0.391,0.391-1.023,0-1.414s-1.023-0.391-1.414,0c-0.354,0.354-0.807,0.588-1.293,0.73v-1.95
		c1.015-0.179,1.975-0.633,2.707-1.366c0.391-0.391,0.391-1.023,0-1.414s-1.023-0.391-1.414,0c-0.354,0.354-0.807,0.588-1.293,0.73
		v-1.95c1.015-0.179,1.975-0.633,2.707-1.366c0.391-0.391,0.391-1.023,0-1.414s-1.023-0.391-1.414,0
		c-0.354,0.354-0.807,0.588-1.293,0.73v-2.125c0.917-0.238,1.705-0.786,2.243-1.535l3.969,2.44l0.208,0.097
		c0.202,0.067,0.41,0.1,0.618,0.1c0.407,0,0.811-0.126,1.148-0.37c0.51-0.367,0.814-0.962,0.814-1.59V27h5.45
		C44.165,27.801,44,28.641,44,29.5c0,1.236,0.304,2.431,0.871,3.5H40z M48,33h-0.737C46.446,32.014,46,30.786,46,29.5
		c0-0.872,0.208-1.727,0.605-2.5H48c1.654,0,3,1.346,3,3S49.654,33,48,33z"/>
</g>
<g>
</g>
<g>
</g>
<g>
</g>
<g>
</g>
<g>
</g>
<g>
</g>
<g>
</g>
<g>
</g>
<g>
</g>
<g>
</g>
<g>
</g>
<g>
</g>
<g>
</g>
<g>
</g>
<g>
</g>
</svg>
