<?xml version="1.0" encoding="iso-8859-1"?>
<!-- Generator: Adobe Illustrator 18.0.0, SVG Export Plug-In . SVG Version: 6.00 Build 0)  -->
<!DOCTYPE svg PUBLIC "-//W3C//DTD SVG 1.1//EN" "http://www.w3.org/Graphics/SVG/1.1/DTD/svg11.dtd">
<svg version="1.1" id="Capa_1" xmlns="http://www.w3.org/2000/svg" xmlns:xlink="http://www.w3.org/1999/xlink" x="0px" y="0px"
	 viewBox="0 0 58 58" style="enable-background:new 0 0 58 58;" xml:space="preserve">
<path d="M49.5,32c-3.584,0-6.5,2.916-6.5,6.5c0,1.003,0.235,1.95,0.643,2.799C40.406,44.919,35.845,47,31,47
	c-0.596,0-1.235-0.05-1.953-0.137C27.874,45.713,26.269,45,24.5,45c-0.419,0-0.827,0.043-1.224,0.119
	c-0.983-0.506-1.908-1.109-2.771-1.79C20.82,42.443,21,41.493,21,40.5c0-4.115-2.941-7.555-6.831-8.333
	c-0.07-0.519-0.116-1.027-0.137-1.52C18.043,29.535,21,25.86,21,21.5c0-1.569-0.389-3.047-1.065-4.352
	c0.489-0.422,0.998-0.813,1.523-1.172C22.661,16.629,24.038,17,25.5,17c2.988,0,5.616-1.554,7.132-3.892
	c5.254,0.505,9.963,3.416,12.779,7.916C45.149,21.63,45,22.298,45,23c0,2.757,2.243,5,5,5s5-2.243,5-5
	c0-0.329-0.036-0.65-0.097-0.962c-0.026-0.132-0.074-0.255-0.11-0.383c-0.049-0.172-0.092-0.346-0.159-0.51
	c-0.062-0.154-0.143-0.295-0.219-0.44c-0.066-0.125-0.126-0.252-0.202-0.371c-0.096-0.15-0.206-0.288-0.317-0.427
	c-0.079-0.099-0.154-0.199-0.24-0.291c-0.124-0.134-0.258-0.255-0.396-0.374c-0.093-0.081-0.185-0.161-0.284-0.234
	c-0.145-0.109-0.296-0.206-0.453-0.298c-0.11-0.065-0.221-0.126-0.337-0.183c-0.159-0.078-0.321-0.147-0.489-0.209
	c-0.129-0.047-0.261-0.086-0.395-0.123c-0.167-0.046-0.335-0.086-0.509-0.114c-0.054-0.009-0.104-0.028-0.158-0.035
	c-3.653-5.985-9.836-9.979-16.748-10.85C33.258,3.127,29.742,0,25.5,0C20.813,0,17,3.813,17,8.5c0,1.017,0.189,1.988,0.518,2.893
	c-0.661,0.481-1.3,0.998-1.914,1.553C14.36,12.346,12.971,12,11.5,12C6.262,12,2,16.262,2,21.5c0,4.007,2.497,7.435,6.014,8.829
	c0.014,0.934,0.094,1.88,0.225,2.828C5.709,34.631,4,37.367,4,40.5c0,4.687,3.813,8.5,8.5,8.5c1.498,0,2.904-0.393,4.127-1.076
	c0.571,0.457,1.169,0.89,1.793,1.298C18.153,49.932,18,50.698,18,51.5c0,3.584,2.916,6.5,6.5,6.5c3.07,0,5.643-2.141,6.32-5.007
	C30.88,52.994,30.94,53,31,53c6.775,0,13.113-2.943,17.497-8.086C48.825,44.966,49.158,45,49.5,45c3.584,0,6.5-2.916,6.5-6.5
	S53.084,32,49.5,32z M50,26c-1.654,0-3-1.346-3-3c0-0.249,0.037-0.494,0.102-0.735c0.007-0.027,0.017-0.052,0.024-0.078
	c0.07-0.235,0.165-0.467,0.297-0.691c0.004-0.007,0.006-0.016,0.01-0.023C47.957,20.595,48.906,20,50,20
	c0.007,0,0.013,0.002,0.02,0.002c0.005,0,0.009,0.002,0.013,0.002C51.669,20.022,53,21.366,53,23C53,24.654,51.654,26,50,26z
	 M48.408,18.284c-0.652,0.221-1.241,0.565-1.742,1.017c-3.044-4.444-7.791-7.385-13.105-8.106c0.008-0.023,0.011-0.047,0.019-0.071
	c0.192-0.591,0.322-1.209,0.38-1.848c0.002-0.021,0.007-0.042,0.009-0.063C39.832,10.048,45.086,13.357,48.408,18.284z M25.5,2
	c3.461,0,6.291,2.722,6.482,6.136c0,0.002-0.001,0.004-0.001,0.007l0.007,0.106C31.99,8.332,32,8.415,32,8.5
	c0,0.25-0.018,0.499-0.046,0.747c-0.008,0.068-0.021,0.135-0.031,0.202c-0.027,0.18-0.059,0.359-0.101,0.536
	c-0.018,0.076-0.038,0.152-0.059,0.227c-0.046,0.167-0.099,0.332-0.158,0.495c-0.027,0.074-0.052,0.148-0.081,0.22
	c-0.078,0.192-0.165,0.381-0.261,0.565C30.179,13.573,28.005,15,25.5,15c-1.308,0-2.526-0.392-3.547-1.06
	c-0.238-0.156-0.465-0.327-0.68-0.512c-0.016-0.013-0.03-0.028-0.046-0.042c-0.204-0.179-0.396-0.369-0.575-0.571
	c-0.014-0.016-0.029-0.031-0.043-0.047c-0.384-0.441-0.71-0.932-0.965-1.464C19.236,10.454,19,9.505,19,8.5
	C19,4.916,21.916,2,25.5,2z M17.361,14.036c0.344-0.294,0.696-0.577,1.056-0.847c0.186,0.28,0.389,0.546,0.605,0.801
	c0.012,0.014,0.025,0.027,0.037,0.041c0.191,0.222,0.395,0.433,0.608,0.635c0.023,0.022,0.042,0.047,0.065,0.068
	c-0.31,0.229-0.614,0.47-0.911,0.719c-0.428-0.517-0.914-0.983-1.44-1.4C17.375,14.048,17.368,14.042,17.361,14.036z M4,21.5
	c0-4.136,3.364-7.5,7.5-7.5c1.381,0,2.672,0.382,3.784,1.035c0.242,0.142,0.476,0.298,0.701,0.467
	c0.015,0.011,0.03,0.022,0.045,0.033c0.721,0.552,1.347,1.239,1.836,2.023c0.005,0.008,0.012,0.013,0.016,0.02
	C18.586,18.722,19,20.062,19,21.5c0,3.683-2.67,6.747-6.175,7.376c-0.283,0.05-0.551,0.078-0.816,0.099
	c-0.1,0.007-0.2,0.012-0.301,0.015c-0.144,0.005-0.284,0.003-0.424,0c-0.161-0.005-0.323-0.01-0.482-0.024
	c-0.092-0.009-0.182-0.023-0.273-0.035c-0.165-0.021-0.331-0.043-0.492-0.075c-0.197-0.04-0.393-0.091-0.589-0.147
	C6.308,27.812,4,24.924,4,21.5z M10.134,32.34c-0.056-0.487-0.094-0.974-0.114-1.456c0.078,0.012,0.156,0.014,0.234,0.025
	c0.17,0.022,0.341,0.041,0.514,0.054c0.161,0.013,0.324,0.021,0.487,0.025C11.337,30.99,11.417,31,11.5,31
	c0.102,0,0.202-0.012,0.304-0.015c0.076-0.003,0.149,0.004,0.226-0.001c0.02,0.336,0.05,0.677,0.09,1.025
	c-0.065,0.003-0.128,0.016-0.193,0.02c-0.212,0.014-0.421,0.036-0.628,0.066c-0.099,0.014-0.198,0.028-0.297,0.045
	c-0.269,0.048-0.533,0.109-0.792,0.182C10.184,32.33,10.159,32.333,10.134,32.34z M6,40.5c0-2.602,1.541-4.846,3.755-5.883
	c0.528-0.246,1.081-0.417,1.642-0.516c0.036-0.006,0.072-0.011,0.108-0.016c0.227-0.036,0.456-0.057,0.684-0.069
	c0.063-0.003,0.125-0.008,0.188-0.01c0.267-0.006,0.533,0.001,0.797,0.029C16.442,34.373,19,37.143,19,40.5
	c0,0.929-0.199,1.811-0.552,2.61c-0.005,0.011-0.016,0.018-0.021,0.029c-0.359,0.804-0.872,1.514-1.498,2.104
	c-0.056,0.053-0.113,0.105-0.171,0.156c-0.171,0.149-0.349,0.29-0.535,0.421C15.167,46.561,13.885,47,12.5,47
	C8.916,47,6,44.084,6,40.5z M19.388,47.488c-0.374-0.248-0.738-0.507-1.092-0.774c0.034-0.032,0.062-0.069,0.095-0.101
	c0.181-0.175,0.354-0.358,0.519-0.549c0.03-0.035,0.063-0.066,0.092-0.102c0.212-0.252,0.41-0.517,0.592-0.793
	c0.427,0.323,0.869,0.627,1.322,0.913c-0.269,0.179-0.521,0.38-0.76,0.596c-0.035,0.031-0.07,0.062-0.104,0.095
	c-0.222,0.209-0.431,0.431-0.622,0.669C19.417,47.458,19.401,47.472,19.388,47.488z M24.5,56c-2.481,0-4.5-2.019-4.5-4.5
	c0-0.856,0.253-1.648,0.669-2.33c0.086-0.141,0.181-0.274,0.281-0.404c0.081-0.104,0.162-0.208,0.251-0.304
	c0.126-0.136,0.263-0.26,0.404-0.379c0.081-0.069,0.159-0.139,0.245-0.202c0.184-0.134,0.381-0.25,0.584-0.356
	c0.058-0.03,0.113-0.066,0.172-0.093c0.255-0.118,0.522-0.212,0.798-0.281C23.758,47.061,24.12,47,24.5,47
	c1.415,0,2.664,0.669,3.489,1.693c0.104,0.13,0.21,0.259,0.298,0.398c0.069,0.107,0.124,0.223,0.183,0.337
	c0.07,0.134,0.145,0.265,0.201,0.405c0.058,0.144,0.096,0.297,0.139,0.448c0.034,0.12,0.078,0.237,0.102,0.36
	C28.967,50.919,29,51.206,29,51.5C29,53.981,26.981,56,24.5,56z M31,51c-0.007,0-0.013,0-0.02,0
	c-0.001-0.018-0.007-0.036-0.009-0.054c-0.026-0.311-0.076-0.615-0.145-0.912c-0.011-0.049-0.025-0.097-0.037-0.145
	c-0.079-0.308-0.173-0.61-0.294-0.898C30.666,48.997,30.833,49,31,49c5.257,0,10.229-2.17,13.822-5.993
	c0.007,0.008,0.016,0.013,0.023,0.021c0.213,0.219,0.443,0.421,0.685,0.608c0.04,0.031,0.081,0.061,0.122,0.092
	c0.251,0.185,0.512,0.357,0.788,0.505C42.467,48.55,36.913,51,31,51z M49.5,43c-0.477,0-0.929-0.095-1.361-0.233
	c-0.17-0.054-0.339-0.108-0.5-0.181c-0.103-0.047-0.199-0.107-0.298-0.162c-0.147-0.081-0.296-0.16-0.432-0.257
	c-0.097-0.069-0.184-0.151-0.275-0.227c-0.126-0.105-0.255-0.207-0.369-0.325c-0.076-0.079-0.139-0.169-0.208-0.252
	c-0.113-0.136-0.229-0.27-0.326-0.42C45.272,40.238,45,39.402,45,38.5c0-2.481,2.019-4.5,4.5-4.5s4.5,2.019,4.5,4.5
	S51.981,43,49.5,43z"/>
<g>
</g>
<g>
</g>
<g>
</g>
<g>
</g>
<g>
</g>
<g>
</g>
<g>
</g>
<g>
</g>
<g>
</g>
<g>
</g>
<g>
</g>
<g>
</g>
<g>
</g>
<g>
</g>
<g>
</g>
</svg>
