<?xml version="1.0" encoding="iso-8859-1"?>
<!-- Generator: Adobe Illustrator 18.0.0, SVG Export Plug-In . SVG Version: 6.00 Build 0)  -->
<!DOCTYPE svg PUBLIC "-//W3C//DTD SVG 1.1//EN" "http://www.w3.org/Graphics/SVG/1.1/DTD/svg11.dtd">
<svg version="1.1" id="Capa_1" xmlns="http://www.w3.org/2000/svg" xmlns:xlink="http://www.w3.org/1999/xlink" x="0px" y="0px"
	 viewBox="0 0 56.154 56.154" style="enable-background:new 0 0 56.154 56.154;" xml:space="preserve">
<g>
	<path d="M47.049,30.193c-0.279-0.379-0.769-0.533-1.214-0.386c-0.446,0.147-0.747,0.563-0.747,1.033v4.737H43v-14h-3v-5.576
		l2.01-3.35c0.381-0.635,0.392-1.398,0.026-2.043c-0.364-0.645-1.024-1.03-1.766-1.03H28.905c-0.74,0-1.4,0.385-1.766,1.029
		s-0.355,1.408,0.025,2.043L29,15.708v5.869h-7v-12h1.088c0.553,0,1-0.448,1-1s-0.447-1-1-1H22H4H3.088c-0.553,0-1,0.448-1,1
		s0.447,1,1,1H4v12H2v14H0v8h2.088c0,2.757,2.243,5,5,5s5-2.243,5-5h1c0,2.757,2.243,5,5,5s5-2.243,5-5h1c0,2.757,2.243,5,5,5
		s5-2.243,5-5h1c0,2.757,2.243,5,5,5s5-2.243,5-5h1.087h0.913h7.824c0.414,0,0.786-0.23,0.972-0.6l0.271-0.645L47.049,30.193z
		 M40.295,11.621l-1.773,2.956h-7.86l-1.756-3L40.295,11.621z M31,16.577h7v5h-7V16.577z M6,9.577h14v12h-2v-10H8v10H6V9.577z
		 M16,21.577h-6v-8h6V21.577z M4,23.577h4h10h4h7h11h1v12H4V23.577z M7.088,46.577c-1.654,0-3-1.346-3-3
		c0-0.186,0.022-0.366,0.055-0.543l0.053-0.206c0.128-0.494,0.374-0.932,0.702-1.287c0.002-0.003,0.004-0.006,0.007-0.008
		c0.081-0.087,0.172-0.164,0.262-0.241c0.048-0.04,0.095-0.082,0.145-0.12c0.079-0.059,0.163-0.112,0.248-0.163
		c0.073-0.044,0.148-0.085,0.225-0.122c0.077-0.038,0.156-0.074,0.237-0.105c0.1-0.038,0.204-0.069,0.31-0.096
		c0.067-0.018,0.134-0.039,0.203-0.052c0.18-0.034,0.364-0.056,0.553-0.056c0.189,0,0.373,0.022,0.552,0.056
		c0.07,0.013,0.137,0.035,0.205,0.053c0.104,0.027,0.206,0.057,0.306,0.095c0.083,0.032,0.163,0.069,0.243,0.108
		c0.074,0.036,0.146,0.076,0.217,0.118c0.088,0.053,0.174,0.107,0.256,0.168c0.046,0.034,0.089,0.073,0.133,0.11
		c0.464,0.392,0.817,0.921,0.979,1.543l0.055,0.213c0.032,0.175,0.054,0.353,0.054,0.536C10.088,45.231,8.742,46.577,7.088,46.577z
		 M18.088,46.577c-1.654,0-3-1.346-3-3c0-0.186,0.022-0.366,0.055-0.543l0.053-0.206c0.128-0.494,0.374-0.932,0.702-1.287
		c0.002-0.003,0.004-0.006,0.007-0.008c0.081-0.087,0.172-0.164,0.262-0.241c0.048-0.04,0.095-0.082,0.145-0.12
		c0.079-0.059,0.163-0.112,0.248-0.163c0.073-0.044,0.148-0.085,0.225-0.122c0.077-0.038,0.156-0.074,0.237-0.105
		c0.1-0.038,0.204-0.069,0.31-0.096c0.067-0.018,0.134-0.039,0.203-0.052c0.18-0.034,0.364-0.056,0.553-0.056
		c0.189,0,0.373,0.022,0.552,0.056c0.07,0.013,0.137,0.035,0.205,0.053c0.104,0.027,0.206,0.057,0.306,0.095
		c0.083,0.032,0.163,0.069,0.243,0.108c0.074,0.036,0.146,0.076,0.217,0.118c0.088,0.053,0.174,0.107,0.256,0.168
		c0.046,0.034,0.089,0.073,0.133,0.11c0.464,0.392,0.817,0.921,0.979,1.543l0.055,0.213c0.032,0.175,0.054,0.353,0.054,0.536
		C21.088,45.231,19.742,46.577,18.088,46.577z M29.088,46.577c-1.654,0-3-1.346-3-3c0-0.186,0.022-0.366,0.055-0.543l0.053-0.206
		c0.128-0.494,0.374-0.932,0.702-1.287c0.002-0.003,0.004-0.006,0.007-0.008c0.081-0.087,0.172-0.164,0.262-0.241
		c0.048-0.04,0.095-0.082,0.145-0.12c0.079-0.059,0.163-0.112,0.248-0.163c0.073-0.044,0.148-0.085,0.225-0.122
		c0.077-0.038,0.156-0.074,0.237-0.105c0.1-0.038,0.204-0.069,0.31-0.096c0.067-0.018,0.134-0.039,0.203-0.052
		c0.18-0.034,0.364-0.056,0.553-0.056c0.189,0,0.373,0.022,0.552,0.056c0.07,0.013,0.137,0.035,0.205,0.053
		c0.104,0.027,0.206,0.057,0.306,0.095c0.083,0.032,0.163,0.069,0.243,0.108c0.074,0.036,0.146,0.076,0.217,0.118
		c0.088,0.053,0.174,0.107,0.256,0.168c0.046,0.034,0.089,0.073,0.133,0.11c0.464,0.392,0.817,0.921,0.979,1.543l0.055,0.213
		c0.032,0.175,0.054,0.353,0.054,0.536C32.088,45.231,30.742,46.577,29.088,46.577z M40.088,46.577c-1.654,0-3-1.346-3-3
		c0-0.186,0.022-0.366,0.055-0.543l0.053-0.206c0.128-0.494,0.374-0.932,0.702-1.287c0.002-0.003,0.004-0.006,0.007-0.008
		c0.081-0.087,0.172-0.164,0.262-0.241c0.048-0.04,0.095-0.082,0.145-0.12c0.079-0.059,0.163-0.112,0.248-0.163
		c0.073-0.044,0.148-0.085,0.225-0.122c0.077-0.038,0.156-0.074,0.237-0.105c0.1-0.038,0.204-0.069,0.31-0.096
		c0.067-0.018,0.134-0.039,0.203-0.052c0.18-0.034,0.364-0.056,0.553-0.056c0.189,0,0.373,0.022,0.552,0.056
		c0.07,0.013,0.137,0.035,0.205,0.053c0.104,0.027,0.206,0.057,0.306,0.095c0.083,0.032,0.163,0.069,0.243,0.108
		c0.074,0.036,0.146,0.076,0.217,0.118c0.088,0.053,0.174,0.107,0.256,0.168c0.046,0.034,0.089,0.073,0.133,0.11
		c0.464,0.392,0.817,0.921,0.979,1.543l0.055,0.213c0.032,0.175,0.054,0.353,0.054,0.536C43.088,45.231,41.742,46.577,40.088,46.577
		z M44.664,41.577c-0.067-0.153-0.156-0.292-0.237-0.437c-0.042-0.076-0.078-0.156-0.124-0.229
		c-0.082-0.129-0.175-0.247-0.268-0.368c-0.085-0.111-0.172-0.219-0.266-0.322c-0.092-0.1-0.184-0.198-0.283-0.29
		c-0.133-0.124-0.274-0.237-0.419-0.346c-0.078-0.058-0.15-0.124-0.231-0.178c-0.226-0.15-0.467-0.277-0.716-0.389
		c-0.088-0.039-0.179-0.07-0.27-0.104c-0.193-0.074-0.39-0.135-0.592-0.184c-0.091-0.022-0.181-0.045-0.274-0.062
		c-0.292-0.054-0.59-0.091-0.896-0.091c-0.306,0-0.604,0.037-0.896,0.091c-0.092,0.017-0.181,0.04-0.272,0.062
		c-0.204,0.05-0.403,0.111-0.597,0.186c-0.089,0.034-0.178,0.064-0.265,0.102c-0.25,0.112-0.493,0.24-0.72,0.391
		c-0.076,0.05-0.143,0.112-0.216,0.166c-0.151,0.113-0.298,0.23-0.436,0.36c-0.096,0.089-0.185,0.184-0.273,0.28
		c-0.098,0.108-0.19,0.221-0.279,0.338c-0.089,0.116-0.178,0.229-0.257,0.353c-0.058,0.092-0.105,0.193-0.157,0.289
		c-0.07,0.127-0.149,0.249-0.208,0.382h-1.848c-0.067-0.153-0.156-0.292-0.237-0.437c-0.042-0.076-0.078-0.156-0.124-0.229
		c-0.082-0.129-0.175-0.247-0.268-0.368c-0.085-0.111-0.172-0.219-0.266-0.322c-0.092-0.1-0.184-0.198-0.283-0.29
		c-0.133-0.124-0.274-0.237-0.419-0.346c-0.078-0.058-0.15-0.124-0.231-0.178c-0.226-0.15-0.467-0.277-0.716-0.389
		c-0.088-0.039-0.179-0.07-0.27-0.104c-0.193-0.074-0.39-0.135-0.592-0.184c-0.091-0.022-0.181-0.045-0.274-0.062
		c-0.292-0.054-0.59-0.091-0.896-0.091c-0.306,0-0.604,0.037-0.896,0.091c-0.092,0.017-0.181,0.04-0.272,0.062
		c-0.204,0.05-0.403,0.111-0.597,0.186c-0.089,0.034-0.178,0.064-0.265,0.102c-0.25,0.112-0.493,0.24-0.72,0.391
		c-0.076,0.05-0.143,0.112-0.216,0.166c-0.151,0.113-0.298,0.23-0.436,0.36c-0.096,0.089-0.185,0.184-0.273,0.28
		c-0.098,0.108-0.19,0.221-0.279,0.338c-0.089,0.116-0.178,0.229-0.257,0.353c-0.058,0.092-0.105,0.193-0.157,0.289
		c-0.07,0.127-0.149,0.249-0.208,0.382h-1.848c-0.067-0.153-0.156-0.292-0.237-0.437c-0.042-0.076-0.078-0.156-0.124-0.229
		c-0.082-0.129-0.175-0.247-0.268-0.368c-0.085-0.111-0.172-0.219-0.266-0.322c-0.092-0.1-0.184-0.198-0.283-0.29
		c-0.133-0.124-0.274-0.237-0.419-0.346c-0.078-0.058-0.15-0.124-0.231-0.178c-0.226-0.15-0.467-0.277-0.716-0.389
		c-0.088-0.039-0.179-0.07-0.27-0.104c-0.193-0.074-0.39-0.135-0.592-0.184c-0.091-0.022-0.181-0.045-0.274-0.062
		c-0.292-0.054-0.59-0.091-0.896-0.091c-0.306,0-0.604,0.037-0.896,0.091c-0.092,0.017-0.181,0.04-0.272,0.062
		c-0.204,0.05-0.403,0.111-0.597,0.186c-0.089,0.034-0.178,0.064-0.265,0.102c-0.25,0.112-0.493,0.24-0.72,0.391
		c-0.076,0.05-0.143,0.112-0.216,0.166c-0.151,0.113-0.298,0.23-0.436,0.36c-0.096,0.089-0.185,0.184-0.273,0.28
		c-0.098,0.108-0.19,0.221-0.279,0.338c-0.089,0.116-0.178,0.229-0.257,0.353c-0.058,0.092-0.105,0.193-0.157,0.289
		c-0.07,0.127-0.149,0.249-0.208,0.382h-1.848c-0.067-0.153-0.156-0.292-0.237-0.437c-0.042-0.076-0.078-0.156-0.124-0.229
		c-0.082-0.129-0.175-0.247-0.268-0.368c-0.085-0.111-0.172-0.219-0.266-0.322c-0.092-0.1-0.184-0.198-0.283-0.29
		c-0.133-0.124-0.274-0.237-0.419-0.346c-0.078-0.058-0.15-0.124-0.231-0.178c-0.226-0.15-0.467-0.277-0.716-0.389
		c-0.088-0.039-0.179-0.07-0.27-0.104c-0.193-0.074-0.39-0.135-0.592-0.184c-0.091-0.022-0.181-0.045-0.274-0.062
		c-0.292-0.054-0.59-0.091-0.896-0.091c-0.306,0-0.604,0.037-0.896,0.091c-0.092,0.017-0.181,0.04-0.272,0.062
		c-0.204,0.05-0.403,0.111-0.597,0.186c-0.089,0.034-0.178,0.064-0.265,0.102c-0.25,0.112-0.493,0.24-0.72,0.391
		c-0.076,0.05-0.143,0.112-0.216,0.166c-0.151,0.113-0.298,0.23-0.436,0.36c-0.096,0.089-0.185,0.184-0.273,0.28
		c-0.098,0.108-0.19,0.221-0.279,0.338c-0.089,0.116-0.178,0.229-0.257,0.353c-0.058,0.092-0.105,0.193-0.157,0.289
		c-0.07,0.127-0.149,0.249-0.208,0.382H2v-4h41h2.088v4H44.664z M47.088,41.577v-6v-1.999l6,7.999H47.088z"/>
	<path d="M13,24.577c-2.757,0-5,2.243-5,5s2.243,5,5,5s5-2.243,5-5S15.757,24.577,13,24.577z M13,32.577c-1.654,0-3-1.346-3-3
		s1.346-3,3-3s3,1.346,3,3S14.654,32.577,13,32.577z"/>
	<path d="M31.707,25.87c-0.391-0.391-1.023-0.391-1.414,0l-6,6c-0.391,0.391-0.391,1.023,0,1.414
		c0.195,0.195,0.451,0.293,0.707,0.293s0.512-0.098,0.707-0.293l6-6C32.098,26.894,32.098,26.261,31.707,25.87z"/>
	<path d="M36.293,25.87l-6,6c-0.391,0.391-0.391,1.023,0,1.414c0.195,0.195,0.451,0.293,0.707,0.293s0.512-0.098,0.707-0.293l6-6
		c0.391-0.391,0.391-1.023,0-1.414S36.684,25.479,36.293,25.87z"/>
</g>
<g>
</g>
<g>
</g>
<g>
</g>
<g>
</g>
<g>
</g>
<g>
</g>
<g>
</g>
<g>
</g>
<g>
</g>
<g>
</g>
<g>
</g>
<g>
</g>
<g>
</g>
<g>
</g>
<g>
</g>
</svg>
