<?xml version="1.0" encoding="iso-8859-1"?>
<!-- Generator: Adobe Illustrator 18.0.0, SVG Export Plug-In . SVG Version: 6.00 Build 0)  -->
<!DOCTYPE svg PUBLIC "-//W3C//DTD SVG 1.1//EN" "http://www.w3.org/Graphics/SVG/1.1/DTD/svg11.dtd">
<svg version="1.1" id="Capa_1" xmlns="http://www.w3.org/2000/svg" xmlns:xlink="http://www.w3.org/1999/xlink" x="0px" y="0px"
	 viewBox="0 0 58.002 58.002" style="enable-background:new 0 0 58.002 58.002;" xml:space="preserve">
<g>
	<path d="M32.791,31.378C33.519,30.889,34,30.058,34,29.117v-2.555c0-1.261-0.866-2.315-2.032-2.623
		c-0.224-3.356-1.706-4.1-2.968-4.1c-0.91,0-1.541,0.337-1.982,0.841c-0.984-0.694-2.19-0.887-3.262-0.457
		c-0.714-3.127-3.02-5.384-5.755-5.384c-2.316,0-4.394,1.666-5.379,4.187c-0.517-0.217-1.063-0.329-1.621-0.329
		c-1.483,0-2.838,0.782-3.769,2.113C6.581,20.278,5.806,19.982,5,19.982c-2.094,0-3.798,1.971-3.967,4.462
		C0.408,24.943,0,25.702,0,26.562v2.555c0,0.941,0.481,1.772,1.209,2.261C1.083,32.191,1,33.014,1,33.839
		c0,4.301,1.714,8.202,4.484,11.08l1.27,9.208c0.213,1.546,1.551,2.712,3.111,2.712h14.269c1.561,0,2.898-1.166,3.111-2.712
		l1.27-9.208C31.286,42.042,33,38.14,33,33.839C33,33.014,32.917,32.191,32.791,31.378z M26.626,43.978
		c-2.512,2.386-5.897,3.861-9.626,3.861s-7.115-1.475-9.626-3.861L5.699,31.839h22.602L26.626,43.978z M3.404,29.839H2.723
		C2.324,29.839,2,29.515,2,29.117v-2.555c0-0.398,0.324-0.723,0.723-0.723h28.555c0.398,0,0.723,0.324,0.723,0.723v2.555
		c0,0.398-0.324,0.723-0.723,0.723h-0.682H3.404z M29,21.839c0.643,0,0.874,1.062,0.956,2h-1.924
		C28.171,21.84,28.739,21.839,29,21.839z M5,21.982c0.594,0,1.16,0.397,1.552,1.092c0.19,0.337,0.559,0.541,0.945,0.505
		c0.386-0.028,0.721-0.278,0.86-0.64c0.529-1.383,1.542-2.242,2.644-2.242c0.543,0,1.082,0.213,1.555,0.616
		c0.268,0.229,0.637,0.297,0.968,0.186c0.333-0.112,0.583-0.392,0.657-0.735c0.5-2.311,2.071-3.924,3.819-3.924
		c2.103,0,3.888,2.332,3.98,5.198c0.013,0.413,0.28,0.775,0.67,0.912c0.391,0.135,0.824,0.019,1.092-0.298
		c0.259-0.306,0.687-0.67,1.257-0.67c0.517,0,0.91,0.297,1.177,0.589c-0.088,0.437-0.134,0.874-0.155,1.269H3.138
		C3.429,22.768,4.162,21.982,5,21.982z M3,33.839c0-0.671,0.065-1.339,0.159-2H3.68l1.249,9.058C3.711,38.822,3,36.415,3,33.839z
		 M25.264,53.854c-0.077,0.562-0.563,0.985-1.13,0.985H9.866c-0.567,0-1.053-0.424-1.13-0.985l-0.961-6.964
		c2.61,1.851,5.789,2.95,9.225,2.95s6.615-1.099,9.225-2.95L25.264,53.854z M29.07,40.897l1.249-9.058h0.521
		c0.095,0.661,0.159,1.329,0.159,2C31,36.415,30.289,38.822,29.07,40.897z"/>
	<path d="M57.634,3.958c-0.449-0.803-1.229-1.328-2.14-1.441L44.786,1.186c-0.91-0.116-1.796,0.205-2.428,0.872
		c-0.629,0.664-0.897,1.56-0.736,2.457c0.445,2.477,1.816,4.602,3.673,5.939l-2.65,21.314c-4.217,0.933-7.604,4.422-8.166,8.948
		l-1.305,10.489c-0.199,1.603,0.943,3.069,2.546,3.269l15.024,1.868c0.123,0.016,0.246,0.023,0.368,0.023
		c0.648,0,1.274-0.214,1.793-0.619c0.618-0.48,1.011-1.173,1.107-1.95l1.304-10.489c0.345-2.772-0.417-5.521-2.145-7.74
		c-0.979-1.257-2.204-2.243-3.581-2.935l2.619-21.064c2.346-0.752,4.414-2.57,5.536-5.048C58.123,5.69,58.082,4.756,57.634,3.958z
		 M51.595,36.795c1.399,1.798,2.017,4.022,1.738,6.266l-1.304,10.488c-0.031,0.247-0.156,0.467-0.352,0.619
		c-0.196,0.153-0.44,0.22-0.686,0.189L35.966,52.49c-0.509-0.063-0.872-0.529-0.809-1.038l1.305-10.489
		c0.579-4.649,4.839-7.959,9.484-7.386C48.189,33.856,50.195,34.998,51.595,36.795z M50.15,11.93L47.71,31.546
		c-0.49-0.138-0.982-0.237-1.475-0.299c-0.405-0.051-0.816-0.075-1.233-0.075c-0.09,0-0.179,0.001-0.269,0.003l2.439-19.615
		l0.419,0.052c0.422,0.131,0.857,0.227,1.3,0.282c0.306,0.038,0.612,0.057,0.917,0.057c0.103,0,0.205-0.021,0.307-0.025L50.15,11.93
		z M55.924,5.696c-1.101,2.432-3.333,4.05-5.67,4.231l-2.202-0.274c-2.223-0.749-3.99-2.863-4.462-5.492
		c-0.048-0.265,0.032-0.53,0.22-0.728c0.165-0.175,0.387-0.271,0.622-0.271c0.036,0,0.071,0.003,0.107,0.007l10.707,1.331
		c0.273,0.034,0.508,0.192,0.644,0.435C56.023,5.173,56.036,5.451,55.924,5.696z"/>
</g>
<g>
</g>
<g>
</g>
<g>
</g>
<g>
</g>
<g>
</g>
<g>
</g>
<g>
</g>
<g>
</g>
<g>
</g>
<g>
</g>
<g>
</g>
<g>
</g>
<g>
</g>
<g>
</g>
<g>
</g>
</svg>
