<?xml version="1.0" encoding="iso-8859-1"?>
<!-- Generator: Adobe Illustrator 18.0.0, SVG Export Plug-In . SVG Version: 6.00 Build 0)  -->
<!DOCTYPE svg PUBLIC "-//W3C//DTD SVG 1.1//EN" "http://www.w3.org/Graphics/SVG/1.1/DTD/svg11.dtd">
<svg version="1.1" id="Capa_1" xmlns="http://www.w3.org/2000/svg" xmlns:xlink="http://www.w3.org/1999/xlink" x="0px" y="0px"
	 viewBox="0 0 57 57" style="enable-background:new 0 0 57 57;" xml:space="preserve">
<g>
	<path d="M48.374,39.044c-0.48-3.74-2.463-7.137-5.395-10.03l4.569-5.357l0.941,0.261l0.103,0.023C48.824,23.98,49.057,24,49.288,24
		c0.99,0,1.954-0.349,2.721-0.999c0.947-0.802,1.491-1.975,1.491-3.216v-2.411c0-1.241-0.543-2.414-1.491-3.216
		c-0.947-0.802-2.191-1.146-3.417-0.941l-10.155,2.814c-1.141,0.317-1.937,1.364-1.937,2.548c0,1.184,0.797,2.232,1.937,2.548
		l2.26,0.628l-2.492,3.489c-5.371-3.435-12.173-5.644-18.732-6.129c0.869-6.797,2.182-9.855,3.344-11.183
		C23.04,7.97,23.266,8,23.5,8h10c1.811,0,3.328-1.218,3.818-2.872C38.573,5.487,39.5,6.631,39.5,8c0,0.552,0.448,1,1,1s1-0.448,1-1
		c0-2.453-1.78-4.49-4.114-4.91c-0.004-0.018-0.012-0.035-0.017-0.054C40.771,3.29,43.5,5,43.5,7c0,0.552,0.448,1,1,1s1-0.448,1-1
		c0-3.364-3.953-6-9-6c-0.109,0-0.209,0.03-0.307,0.062C35.481,0.409,34.54,0,33.5,0h-10c-1.691,0-3.132,1.059-3.717,2.545
		c-4.138,3.08-6.314,10.756-7.009,24.715c-3.029,0.559-5.744,2.021-7.844,4.108c-0.011,0.01-0.026,0.014-0.038,0.025
		s-0.015,0.026-0.025,0.038C2.171,34.145,0.5,37.88,0.5,42s1.671,7.855,4.369,10.569c0.01,0.011,0.014,0.026,0.025,0.038
		s0.026,0.015,0.038,0.025C7.645,55.329,11.38,57,15.5,57s7.855-1.671,10.569-4.369c0.011-0.01,0.026-0.014,0.038-0.025
		s0.015-0.026,0.025-0.038C28.829,49.855,30.5,46.12,30.5,42s-1.671-7.855-4.369-10.569c-0.01-0.011-0.014-0.026-0.025-0.038
		s-0.026-0.015-0.038-0.025c-1.973-1.961-4.489-3.37-7.297-3.998c0.042-0.79,0.086-1.555,0.136-2.286
		c11.096,0.769,23.123,7.335,23.57,15.451C40.08,42.154,38.5,44.896,38.5,48c0,4.962,4.038,9,9,9s9-4.038,9-9
		C56.5,43.333,52.928,39.486,48.374,39.044z M38.5,18.579c0-0.289,0.194-0.544,0.472-0.621l9.997-2.776
		c0.629-0.09,1.263,0.091,1.748,0.502c0.498,0.422,0.783,1.038,0.783,1.69v2.411c0,0.652-0.286,1.268-0.783,1.69
		c-0.485,0.411-1.121,0.589-1.748,0.502L38.972,19.2C38.694,19.123,38.5,18.868,38.5,18.579z M33.5,2c1.103,0,2,0.897,2,2
		s-0.897,2-2,2h-10c-0.182,0-0.355-0.032-0.523-0.078l-0.132-0.047c-0.59-0.209-1.033-0.672-1.23-1.234
		c-0.009-0.027-0.017-0.054-0.025-0.081C21.535,4.38,21.5,4.193,21.5,4c0-0.097,0.015-0.19,0.029-0.283
		c0.016-0.088,0.038-0.18,0.069-0.283l0.068-0.227C21.973,2.498,22.679,2,23.5,2H33.5z M25.362,50.447l-3.498-3.498
		c-0.391-0.391-1.023-0.391-1.414,0s-0.391,1.023,0,1.414l3.498,3.498C21.673,53.813,18.725,55,15.5,55s-6.173-1.187-8.447-3.138
		l3.498-3.498c0.391-0.391,0.391-1.023,0-1.414s-1.023-0.391-1.414,0l-3.498,3.498C3.687,48.173,2.5,45.225,2.5,42
		s1.187-6.173,3.138-8.447l3.498,3.498c0.195,0.195,0.451,0.293,0.707,0.293s0.512-0.098,0.707-0.293
		c0.391-0.391,0.391-1.023,0-1.414l-3.498-3.498c1.876-1.609,4.212-2.689,6.783-3.02l0.021-0.003
		c0.25-0.032,0.472-0.049,0.697-0.068c0.259-0.019,0.518-0.036,0.781-0.04c0.075-0.001,0.153-0.005,0.227-0.005
		c0.367,0.002,0.729,0.023,1.088,0.055c0.29,0.03,0.591,0.07,0.917,0.122l0.592,0.095c2.181,0.455,4.157,1.463,5.789,2.863
		l-3.498,3.498c-0.391,0.391-0.391,1.023,0,1.414c0.195,0.195,0.451,0.293,0.707,0.293s0.512-0.098,0.707-0.293l3.498-3.498
		C27.313,35.827,28.5,38.775,28.5,42S27.313,48.173,25.362,50.447z M14.785,27.021c0.587-11.348,2.177-18.359,4.946-21.692
		c0.013,0.036,0.032,0.069,0.046,0.105c0.035,0.09,0.074,0.177,0.115,0.264c0.054,0.113,0.115,0.222,0.179,0.329
		c0.097,0.163,0.205,0.315,0.323,0.462c0.06,0.075,0.118,0.152,0.184,0.222c0.095,0.102,0.198,0.195,0.303,0.287
		c0.025,0.021,0.046,0.046,0.071,0.067c-2.247,3.064-3.616,9.643-4.171,19.998C16.335,27.021,15.911,27,15.5,27
		C15.267,27,15.03,27.007,14.785,27.021z M39.868,26.356l2.88-4.032l2.675,0.743l-3.913,4.587c-0.203-0.173-0.419-0.328-0.627-0.496
		c-0.171-0.137-0.341-0.275-0.517-0.409C40.197,26.621,40.037,26.48,39.868,26.356z M44.401,39.552
		c-1.229-8.923-13.64-15.605-25.198-16.456c0.058-0.681,0.12-1.345,0.188-1.99c7.49,0.535,13.91,2.997,18.618,6.339
		c0.009,0.008,0.019,0.016,0.028,0.024c0.064,0.057,0.128,0.114,0.25,0.21c0.578,0.41,1.123,0.84,1.651,1.277
		c3.592,3.059,5.875,6.647,6.423,10.117c-0.064,0.008-0.126,0.026-0.19,0.035c-0.235,0.035-0.469,0.076-0.698,0.129
		c-0.091,0.021-0.181,0.046-0.272,0.07c-0.221,0.058-0.438,0.124-0.652,0.198C44.5,39.524,44.449,39.534,44.401,39.552z M47.5,55
		c-3.86,0-7-3.14-7-7c0-2.641,1.471-4.943,3.635-6.135c0.237-0.13,0.481-0.245,0.731-0.346c0.048-0.02,0.098-0.035,0.146-0.054
		c0.208-0.079,0.419-0.149,0.634-0.208c0.063-0.017,0.126-0.033,0.189-0.049c0.212-0.052,0.427-0.093,0.644-0.125
		c0.058-0.008,0.114-0.019,0.172-0.026c0.272-0.033,0.545-0.054,0.82-0.055l0.052,0C51.373,41.015,54.5,44.148,54.5,48
		C54.5,51.86,51.36,55,47.5,55z"/>
	<path d="M47.5,44c-2.206,0-4,1.794-4,4s1.794,4,4,4s4-1.794,4-4S49.706,44,47.5,44z M47.5,50c-1.103,0-2-0.897-2-2s0.897-2,2-2
		s2,0.897,2,2S48.603,50,47.5,50z"/>
	<path d="M20.393,41c-0.188-0.93-0.638-1.816-1.357-2.536c-1.949-1.949-5.122-1.948-7.071,0c-1.949,1.95-1.949,5.122,0,7.071
		c0.975,0.975,2.255,1.462,3.535,1.462c1.281,0,2.562-0.487,3.536-1.462c0.719-0.719,1.169-1.606,1.357-2.536H23.5v-2H20.393z
		 M17.622,44.122c-1.171,1.169-3.074,1.168-4.243,0c-1.169-1.17-1.169-3.073,0-4.243c0.585-0.585,1.354-0.877,2.122-0.877
		c0.769,0,1.537,0.292,2.122,0.877c0.326,0.327,0.552,0.713,0.696,1.122H15.5v2h2.818C18.174,43.409,17.948,43.795,17.622,44.122z"
		/>
</g>
<g>
</g>
<g>
</g>
<g>
</g>
<g>
</g>
<g>
</g>
<g>
</g>
<g>
</g>
<g>
</g>
<g>
</g>
<g>
</g>
<g>
</g>
<g>
</g>
<g>
</g>
<g>
</g>
<g>
</g>
</svg>
