<?xml version="1.0" encoding="iso-8859-1"?>
<!-- Generator: Adobe Illustrator 18.0.0, SVG Export Plug-In . SVG Version: 6.00 Build 0)  -->
<!DOCTYPE svg PUBLIC "-//W3C//DTD SVG 1.1//EN" "http://www.w3.org/Graphics/SVG/1.1/DTD/svg11.dtd">
<svg version="1.1" id="Capa_1" xmlns="http://www.w3.org/2000/svg" xmlns:xlink="http://www.w3.org/1999/xlink" x="0px" y="0px"
	 viewBox="0 0 59.413 59.413" style="enable-background:new 0 0 59.413 59.413;" xml:space="preserve">
<path d="M51.242,8.492c-5.828-8.414-10.581-7.52-19.032-2.331l-6.008,3.69l-5.756-9.374c-0.144-0.234-0.377-0.398-0.646-0.455
	c-0.268-0.058-0.548,0.001-0.775,0.156c-8.379,5.804-7.478,10.554-2.287,19.006l3.663,5.965L8.47,32.475
	c-0.234,0.145-0.398,0.378-0.455,0.646c-0.057,0.27,0,0.55,0.156,0.775c3.074,4.438,5.844,6.288,9.012,6.288
	c2.839,0,5.997-1.487,9.977-3.931l0.26-0.16v19.32c0,1.987,1.3,3.999,3.824,3.999h0.001c3.175-0.122,3.175-2.839,3.175-3.999V34.603
	l4.504,7.335c0.144,0.234,0.377,0.398,0.646,0.455c0.068,0.015,0.137,0.021,0.206,0.021c0.202,0,0.401-0.062,0.569-0.178
	c6.813-4.72,9.126-8.982,2.861-19.185l-3.74-6.09l11.477-7.048c0.234-0.145,0.398-0.378,0.455-0.646
	C51.455,8.998,51.399,8.718,51.242,8.492z M30.668,17.495c0.414,0.063,0.811,0.198,1.174,0.4c0.071,0.04,0.143,0.079,0.211,0.123
	c0.09,0.058,0.176,0.123,0.26,0.189c0.088,0.07,0.171,0.145,0.252,0.224c0.06,0.058,0.122,0.115,0.178,0.178
	c0.135,0.153,0.263,0.314,0.372,0.491c0.039,0.063,0.065,0.13,0.094,0.196l0.071,0.157c0,0.001,0,0.002,0.001,0.003
	c0.282,0.601,0.38,1.243,0.315,1.861c-0.002,0.015-0.004,0.029-0.006,0.044c-0.022,0.187-0.059,0.371-0.111,0.552
	c-0.012,0.04-0.028,0.078-0.041,0.118c-0.052,0.16-0.111,0.318-0.185,0.469c-0.024,0.047-0.054,0.09-0.08,0.136
	c-0.076,0.138-0.155,0.276-0.251,0.403c-0.048,0.063-0.106,0.118-0.157,0.177c-0.088,0.102-0.172,0.206-0.273,0.299
	c-0.162,0.148-0.338,0.283-0.529,0.4c-0.18,0.111-0.369,0.199-0.562,0.274c-0.054,0.021-0.11,0.038-0.165,0.057
	c-0.144,0.048-0.29,0.086-0.438,0.115c-0.063,0.012-0.126,0.026-0.19,0.035c-0.164,0.023-0.33,0.031-0.497,0.03
	c-0.038,0-0.076,0.005-0.114,0.004c-0.004,0-0.008,0.001-0.012,0.001c-0.008,0-0.015-0.003-0.023-0.003
	c-0.005,0-0.009-0.002-0.013-0.002c-0.265-0.014-0.522-0.065-0.771-0.136c-0.064-0.018-0.125-0.043-0.188-0.065
	c-0.189-0.065-0.372-0.145-0.546-0.241c-0.061-0.034-0.122-0.068-0.181-0.106c-0.169-0.107-0.326-0.23-0.475-0.365
	c-0.048-0.044-0.1-0.083-0.146-0.13c-0.184-0.187-0.353-0.39-0.493-0.618c-0.039-0.063-0.066-0.132-0.095-0.198l-0.07-0.155
	c0,0,0,0,0,0c-0.281-0.599-0.378-1.238-0.315-1.854c0.003-0.023,0.007-0.047,0.01-0.07c0.022-0.177,0.057-0.352,0.105-0.523
	c0.015-0.052,0.036-0.103,0.053-0.155c0.048-0.143,0.1-0.284,0.166-0.42c0.038-0.078,0.086-0.151,0.13-0.225
	c0.062-0.107,0.122-0.215,0.196-0.315c0.074-0.1,0.163-0.192,0.249-0.284c0.062-0.067,0.117-0.139,0.184-0.202
	c0.164-0.151,0.343-0.291,0.54-0.412c0.002-0.001,0.005-0.002,0.008-0.004c0.301-0.183,0.646-0.317,1.058-0.41
	c0.006-0.001,0.011-0.007,0.017-0.008c0.008-0.002,0.016,0,0.024-0.001c0.327-0.071,0.656-0.087,0.978-0.065
	C30.48,17.469,30.574,17.481,30.668,17.495z M18.442,18.137c-4.758-7.749-5.336-11.108,0.861-15.699l8.346,13.591
	c-0.134,0.066-0.264,0.137-0.39,0.215c-0.001,0.001-0.003,0.001-0.004,0.002c-0.297,0.183-0.565,0.395-0.815,0.622
	c-0.083,0.076-0.155,0.159-0.233,0.24c-0.155,0.159-0.302,0.322-0.434,0.497c-0.081,0.106-0.154,0.215-0.227,0.326
	c-0.105,0.161-0.199,0.327-0.286,0.498c-0.066,0.129-0.131,0.257-0.187,0.391c-0.064,0.156-0.114,0.316-0.163,0.477
	c-0.049,0.156-0.104,0.309-0.138,0.469c-0.015,0.07-0.017,0.141-0.03,0.212c-0.09,0.506-0.113,1.022-0.058,1.539
	c0.001,0.006,0,0.012,0.001,0.018c0.029,0.271,0.088,0.537,0.158,0.804c0.007,0.025,0.008,0.05,0.015,0.075l-2.753,1.69
	L18.442,18.137z M26.113,34.549c-7.716,4.739-11.069,5.303-15.683-0.931l11.867-7.287c0,0,0.001,0,0.001-0.001l3.428-2.105
	c0.056,0.075,0.128,0.134,0.188,0.206c0.124,0.149,0.252,0.292,0.389,0.426c0.111,0.108,0.225,0.208,0.344,0.306
	c0.16,0.132,0.325,0.255,0.499,0.368c0.121,0.079,0.246,0.149,0.373,0.218c0.183,0.099,0.37,0.19,0.565,0.268
	c0.142,0.057,0.287,0.104,0.434,0.149c0.113,0.035,0.219,0.088,0.335,0.115c0.132,0.032,0.265,0.049,0.398,0.071
	c0.017,0.003,0.033,0.01,0.051,0.013l2.776,4.521l-1.803,1.107l-2.329,1.257c-0.181,0.098-0.318,0.249-0.408,0.424L26.113,34.549z
	 M32.42,55.414c0,1.643-0.199,1.96-1.213,2c-1.736,0-1.787-1.795-1.787-2V34.866l1.865-1.145l1.135-0.612V55.414z M40.068,39.977
	l-8.443-13.748c0.335-0.095,0.658-0.234,0.974-0.394c0.138-0.07,0.279-0.134,0.412-0.216c0.29-0.178,0.552-0.383,0.797-0.604
	c0.093-0.083,0.173-0.178,0.259-0.267c0.139-0.144,0.275-0.29,0.396-0.446c0.094-0.121,0.179-0.248,0.262-0.376
	c0.091-0.141,0.175-0.284,0.253-0.432c0.078-0.147,0.152-0.294,0.216-0.449c0.058-0.141,0.103-0.287,0.149-0.432
	c0.044-0.135,0.105-0.262,0.138-0.402c0.146-0.612,0.165-1.231,0.103-1.839c-0.001-0.006,0-0.011-0.001-0.017
	c-0.03-0.283-0.087-0.56-0.161-0.835c-0.004-0.013-0.004-0.027-0.008-0.04l2.407-1.373l3.68,5.992
	C46.049,31.503,46.569,35.164,40.068,39.977z M34.539,17.641c-0.094-0.126-0.198-0.241-0.302-0.357
	c-0.037-0.042-0.07-0.087-0.108-0.127c-0.192-0.202-0.403-0.383-0.622-0.552c-0.095-0.074-0.191-0.146-0.291-0.214
	c-0.206-0.138-0.419-0.265-0.641-0.374c-0.13-0.064-0.264-0.116-0.399-0.17c-0.145-0.058-0.293-0.108-0.443-0.153
	c-0.109-0.033-0.209-0.084-0.321-0.111c-0.13-0.031-0.262-0.033-0.393-0.055c-0.116-0.019-0.232-0.037-0.35-0.048
	c-0.239-0.024-0.475-0.031-0.713-0.024c-0.082,0.003-0.165,0.003-0.247,0.01l-2.417-3.937l5.965-3.663
	c7.75-4.759,11.113-5.328,15.726,0.904L34.539,17.641z"/>
<g>
</g>
<g>
</g>
<g>
</g>
<g>
</g>
<g>
</g>
<g>
</g>
<g>
</g>
<g>
</g>
<g>
</g>
<g>
</g>
<g>
</g>
<g>
</g>
<g>
</g>
<g>
</g>
<g>
</g>
</svg>
